<svg width="300" height="300" viewBox="0 0 300 300" fill="none" xmlns="http://www.w3.org/2000/svg">
<path d="M108.482 73.6194L108.346 82.8286L99.3355 82.9371L99.3897 92.1554L89.9997 92.1012L89.9455 101.175L80.926 101.247L80.7633 110.547L71.6174 110.628L71.4366 129.2L62.2816 129.345L62.3448 175.31L71.4456 175.373L71.6264 193.936L80.6097 194.225L80.8537 203.019L84.9206 203.118L88.9152 203.001C89.3219 202.992 89.7105 203.146 90.0088 203.344L90.1263 212.301L99.3265 212.418L99.3084 221.492L107.551 221.519C107.731 221.338 108.102 221.302 108.31 221.537C108.707 224.122 108.057 226.146 108.843 226.743C109.629 227.339 109.873 226.499 110.316 226.372H116.48C116.923 226.372 117.573 227.068 117.98 226.788L117.953 235.446L154.718 235.41L154.537 226.797C154.808 226.571 155.558 226.345 156.254 226.354L164.008 226.381L164.035 212.373H155.224C154.944 212.355 154.745 211.568 154.781 211.297C154.844 210.412 154.971 209.625 154.844 208.767C155.034 208.749 155.224 208.695 155.224 208.604L155.35 203.426L153.579 203.236H147.262L145.499 203.254L145.463 175.436L154.835 175.373L154.627 166.245L164.008 166.01L163.972 157.352C166.873 156.738 169.856 156.927 173.217 157V147.384L182.526 147.501L182.562 138.373L186.9 138.355L198.676 138.283L201.008 138.391L201.053 129.164H219.481L219.526 138.328L238.017 138.428L238.044 101.473L228.816 101.338L228.78 92.2729H220.502C220.276 91.9295 220.357 91.2697 220.393 90.9715C220.43 90.6732 219.969 90.3388 219.571 90.4654L219.779 85.3682C220.158 84.8169 220.891 84.112 220.674 83.0275L228.961 82.9461L229.196 92.1554L247 92.2638V138.391L242.825 138.464L242.544 147.637L210.398 147.565L210.326 138.401H201.035L200.945 147.583H191.69L191.627 157.009L182.427 157.036L182.391 166.064L173.281 166.137V175.391L164.144 175.4L164.008 184.826L154.718 185.007L154.907 193.891L164.062 193.873L164.27 203.1L173.29 203.353L173.326 239.928H164.198L164.035 244.754L108.608 244.727L108.482 239.983L99.2361 239.919L99.0644 230.818L89.9545 230.737L89.7105 221.537L80.9351 221.564L80.7905 212.382H71.5722L71.4637 203.317L62.372 203.155L62.3539 184.835L53.0904 184.727L53 129.173H62.3448L62.3268 101.518L71.4637 101.41L71.5631 92.291L80.682 92.2096L80.8989 82.8377L89.9365 82.8738L89.9545 73.7278L108.463 73.6465L108.482 73.6194Z" fill="#F9F9F9"/>
<path d="M191.582 64.4641L132.892 64.419C132.964 64.2563 133.48 62.738 132.838 62.494L129.702 61.2649C129.006 62.8103 128.039 62.5211 127.271 62.3945C127.018 60.2346 126.9 57.9481 127.352 55.2458L191.645 55.291L191.582 64.4732V64.4641Z" fill="#F9F9F9"/>
<path d="M132.892 64.41L127.262 64.4732L127.153 73.5289L108.491 73.6102L108.608 64.428L126.747 64.3648C127.108 63.7683 127.027 62.4398 127.28 62.3765C128.048 62.503 129.015 62.8013 129.711 61.2468L132.847 62.4759C133.48 62.729 132.973 64.2383 132.901 64.4009L132.892 64.41Z" fill="#F4F4F5"/>
<path d="M220.701 83.0001C220.918 84.0846 220.177 84.7896 219.806 85.3408L219.246 83.0995L210.525 82.9911L210.489 73.6643L191.754 73.583L191.6 64.4641H210.326L210.407 73.6191L219.535 73.6914V82.5211C219.535 82.8284 220.466 83.0543 220.719 83.0001H220.701Z" fill="#F4F4F5"/>
<path d="M71.4548 129.2L71.482 137.325C71.9158 137.388 72.0242 137.677 71.9248 137.858C71.4548 138.708 71.4639 139.693 71.491 141.012L71.6266 147.664L71.4368 157.189L71.4639 175.382L62.3631 175.319L62.2998 129.354L71.4548 129.209V129.2Z" fill="#351616"/>
<path d="M127.379 147.573L127.144 152.779V156.801L134.699 157.045L136.398 157.334L136.443 173.584C136.66 174.677 136.299 175.183 135.702 175.545H108.499L108.409 184.383L99.9678 184.501L99.4707 184.88V193.837L99.3623 196.105L99.5611 203.182L108.337 203.145L127.135 203.281L127.397 212.391H145.499L146.403 212.427L148.165 212.4L154.753 212.463L154.826 226.526L150.036 226.101L140.881 226.047H130.235L119.245 225.947C118.585 225.947 118.052 225.206 117.907 224.953C117.862 224.483 117.763 223.652 117.88 223.209C118.359 223.037 118.775 222.106 118.287 221.537L112.06 221.437L109.385 221.419V212.409L100.365 212.355C100.031 212.427 99.4256 212.183 99.4256 211.496L99.4617 203.082L92.2136 203.055C91.2737 203.055 90.6049 203.127 90.0446 203.371C89.7463 203.172 89.3577 203.019 88.951 203.028C88.96 202.938 88.951 202.865 88.9149 202.784C90.1801 200.913 90.4422 197.669 89.8548 194.966C89.6379 193.981 88.454 194.153 87.8575 194.144L81.3685 194.063C80.9889 194.361 80.6907 194.198 80.6455 194.252L80.9257 192.562L80.8624 176.295C80.8624 175.075 79.7327 174.993 78.8019 175.21L71.4905 175.409L71.4634 157.217L80.8624 156.828L81.3324 147.7L127.397 147.601L127.379 147.573ZM90.2344 166.128L80.5099 166.1L80.4828 175.509L90.2072 175.536L90.2344 166.128ZM90.9393 175.5L90.2253 175.87L90.2705 184.51H98.8742L99.3352 183.841L99.2538 175.527L90.9393 175.5Z" fill="#B35F3B"/>
<path d="M140.873 226.01C140.873 226.308 140.873 227.23 141.153 227.61H150.949C152.567 227.601 153.543 227.637 154.564 226.787L154.745 235.4L117.98 235.436L118.008 226.778C118.333 226.562 119.092 227.474 119.571 227.483L129.955 227.637C130.253 227.221 130.226 226.308 130.217 226.01H140.864H140.873Z" fill="#3B1918"/>
<path d="M198.694 138.283C199.724 135.743 199.996 133.583 199.48 130.411L186.855 130.185C182.418 129.291 187.018 132.634 186.918 138.346L182.58 138.364L182.544 147.492L173.235 147.375L173.335 138.4L182.399 138.22L182.499 129.372L186.096 129.164H200.719L200.935 119.44C204.008 120.47 207.361 119.566 210.353 119.702L219.499 120.108L219.544 129.318L228.843 129.254L228.934 113.014L228.626 110.059L228.87 103.055C228.907 101.988 228.527 101.401 227.605 101.364L227.551 98.1291C227.244 97.6772 226.15 97.5145 225.192 97.9573C224.415 98.8792 223.584 99.1141 222.101 98.8611C220.131 98.5267 222.309 94.8755 220.529 92.2456H228.807L228.843 101.31L238.071 101.446L238.044 138.4L219.553 138.301L219.508 129.137H201.08L201.035 138.364L198.703 138.256L198.694 138.283Z" fill="#3B1918"/>
<path d="M145.49 175.436L145.526 203.254L138.432 203.227C138.45 202.504 137.51 201.537 137.483 200.787L137.203 192.743C135.224 191.324 138.902 189.408 136.371 188.884L136.326 184.492C137.257 184.537 137.7 183.561 137.185 182.558L137.402 178.048C137.429 177.47 138.197 175.915 138.649 175.545L145.49 175.427V175.436Z" fill="#3B1918"/>
<path d="M80.6274 194.234L71.6441 193.945L71.4634 175.382L78.7748 175.183C79.7147 174.966 80.8353 175.048 80.8353 176.268L80.8986 192.535L80.6184 194.225L80.6274 194.234Z" fill="#3B1918"/>
<path d="M154.808 211.288C154.763 211.559 154.962 212.355 155.251 212.355H164.063L164.036 226.381L156.282 226.354C155.577 226.354 154.836 226.571 154.564 226.797C153.543 227.637 152.567 227.601 150.949 227.61H141.153C140.873 227.239 140.873 226.318 140.873 226.019L150.028 226.074L154.817 226.498L154.745 212.436L148.157 212.373C148.021 212.174 148.094 211.695 148.347 211.577L154.808 211.297V211.288Z" fill="#662627"/>
<path d="M198.694 138.283L186.918 138.355C187.008 132.643 182.408 129.29 186.855 130.194L199.48 130.42C200.004 133.583 199.733 135.752 198.694 138.292V138.283Z" fill="#351616"/>
<path d="M173.245 147.393V157.009C169.883 156.936 166.9 156.746 163.999 157.361C163.656 157.433 163.357 157.162 163.213 157.027C163.954 156.24 164.053 155.346 164.09 154.008L164.252 147.338L173.245 147.393Z" fill="#351616"/>
<path d="M163.204 157.018C163.349 157.153 163.647 157.424 163.99 157.352L164.027 166.01L154.646 166.245L154.6 158.988C154.338 157.668 154.691 156.837 156.236 156.864L163.195 157.018H163.204Z" fill="#3B1918"/>
<path d="M154.654 166.245L154.862 175.373L145.49 175.436L145.626 166.408L154.654 166.245Z" fill="#351616"/>
<path d="M100.338 212.336C100.23 212.517 100.248 212.987 100.483 213.195L107.541 213.313L107.559 221.537L99.3172 221.51L99.3353 212.436L90.1351 212.318L90.0176 203.362C90.5689 203.118 91.2376 203.046 92.1866 203.046L99.4347 203.073L99.3986 211.487C99.3986 212.165 100.004 212.418 100.338 212.346V212.336Z" fill="#351616"/>
<path d="M153.615 203.236L153.633 208.613C154.284 208.857 154.645 208.785 154.88 208.767C155.007 209.616 154.88 210.412 154.817 211.297L148.355 211.578C148.102 211.704 148.021 212.174 148.165 212.373L146.403 212.4L146.421 204.42C147.325 204.23 147.397 203.552 147.307 203.236H153.624H153.615Z" fill="#351616"/>
<path d="M88.888 202.766C88.1198 200.949 90.3069 193.177 86.719 195.346L82.8509 197.678C81.9471 198.22 82.0918 201.085 83.1763 201.763C83.601 202.034 84.6946 201.835 84.8663 202.061C85.038 202.287 84.9657 202.865 84.9476 203.127L80.8807 203.028L80.6367 194.234C80.6909 194.18 80.9801 194.343 81.3597 194.045L87.8487 194.126C88.4452 194.126 89.6291 193.963 89.846 194.948C90.4334 197.66 90.1713 200.895 88.9061 202.766H88.888Z" fill="#351616"/>
<path d="M88.8879 202.766C88.9241 202.847 88.9421 202.919 88.924 203.01L84.9295 203.127C84.9475 202.865 85.0198 202.287 84.8481 202.061C84.6764 201.835 83.5829 202.034 83.1581 201.763C82.0736 201.085 81.938 198.22 82.8327 197.678L86.7008 195.346C90.2887 193.177 88.1016 200.949 88.8698 202.766H88.8879Z" fill="#3B1918"/>
<path d="M109.359 221.392C109.359 221.6 109.313 221.844 109.612 222.052C110.533 222.721 110.633 223.724 109.431 224.546C109.783 224.836 110.542 225.522 110.335 226.363C109.892 226.489 109.684 227.357 108.861 226.733C108.039 226.11 108.726 224.113 108.328 221.528C108.12 221.293 107.741 221.329 107.569 221.51L107.551 213.286L100.493 213.168C100.258 212.96 100.231 212.499 100.348 212.31L109.359 212.364V221.374V221.392Z" fill="#662627"/>
<path d="M112.042 221.41C112.024 221.537 111.997 221.808 112.205 222.269L116.435 222.305C116.651 223.335 117.474 223.326 117.871 223.164C117.754 223.607 117.853 224.447 117.899 224.908C117.022 224.664 116.299 225.378 116.507 226.354H110.343C110.551 225.513 109.792 224.827 109.439 224.537C110.641 223.715 110.542 222.712 109.62 222.043C109.331 221.826 109.367 221.591 109.367 221.383L112.042 221.401V221.41Z" fill="#3B1918"/>
<path d="M130.226 226.01C130.226 226.309 130.262 227.221 129.964 227.637L119.58 227.483C119.092 227.483 118.342 226.562 118.016 226.779C117.6 227.05 116.95 226.363 116.516 226.363C116.317 225.387 117.031 224.673 117.908 224.917C118.052 225.17 118.586 225.911 119.245 225.911L130.235 226.001L130.226 226.01Z" fill="#662627"/>
<path d="M154.88 208.758C154.636 208.776 154.284 208.857 153.633 208.604L153.615 203.227L155.387 203.416L155.26 208.595C155.26 208.685 155.079 208.739 154.88 208.758Z" fill="#662627"/>
<path d="M147.298 203.227C147.388 203.552 147.316 204.221 146.412 204.41L146.394 212.391L145.49 212.345L145.526 203.245L147.289 203.218L147.298 203.227Z" fill="#662627"/>
<path d="M219.797 85.35L219.589 90.4472C219.571 90.7906 219.282 91.2967 219.481 91.7847C219.662 92.2185 220.041 92.2999 220.52 92.2547C222.301 94.8846 220.123 98.5267 222.093 98.8702C223.575 99.1232 224.406 98.8883 225.184 97.9664C226.151 97.5145 227.235 97.6863 227.542 98.1381L227.597 101.374L219.553 101.645L219.508 92.2185H210.479L210.507 83.0002L219.228 83.1087L219.788 85.35H219.797Z" fill="#351616"/>
<path d="M132.892 64.4099L191.582 64.4551L191.736 73.574L210.47 73.6553L210.507 82.9821L202.319 82.8736C201.695 82.8736 201.306 83.0273 201.008 83.1899C200.15 82.8104 199.183 82.8013 197.845 82.8375L191.591 83.0905L191.501 73.6553L184.216 73.7547C183.665 73.7547 183.132 74.1434 182.861 74.053C182.409 73.8993 181.641 73.7457 180.701 73.7367L175.251 73.7005C174.176 73.7005 173.552 73.7999 172.947 74.2066C172.684 73.9897 172.341 73.7186 171.672 73.7186H147.244L145.463 74.1705L143.719 73.7728L127.443 73.9355C126.945 77.198 126.945 80.3883 127.461 82.8736L110.497 83.0002C110.235 82.0693 109.132 82.1325 109.187 83.1628C108.997 83.0544 108.653 83.1176 108.572 83.2894C108.346 83.1899 108.319 83.0001 108.328 82.8104L108.464 73.6011L127.126 73.5198L127.235 64.4641L132.865 64.4009L132.892 64.4099Z" fill="#3B1918"/>
<path d="M89.9457 101.184L90.3433 101.256L89.9366 110.601L83.1404 110.538C82.3993 110.538 81.116 111.225 81.1069 112.074L81.0347 129.128L71.4458 129.209L71.6266 110.637L80.7726 110.556L80.9352 101.256L89.9547 101.184H89.9457Z" fill="#3B1918"/>
<path d="M108.346 82.8284C108.346 83.0091 108.364 83.2079 108.59 83.3074L108.526 92.1461L99.4616 92.2997L99.2176 101.247H90.3518L89.9541 101.184L90.0083 92.1099L99.3983 92.1642L99.3441 82.9459L108.355 82.8374L108.346 82.8284Z" fill="#351616"/>
<path d="M110.515 83.0184L127.478 82.8918L136.462 83.0003L136.516 92.083L145.499 92.2728L145.725 101.112L152.802 101.211C156.308 101.265 154.04 104.853 155.079 110.646L164.108 110.393L163.936 128.938L154.826 129.309L154.519 138.274L145.59 138.437L145.481 147.411C142.336 147.727 139.607 147.836 136.534 147.375L136.236 138.482L127.298 138.382L127.117 129.155L91.301 129.273C89.7466 129.273 89.6653 133.818 90.56 138.328L80.7994 138.491L73.2259 138.455C72.5301 138.455 72.1053 138.147 71.9245 137.876C72.0239 137.696 71.9065 137.406 71.4817 137.343L71.4546 129.218L81.0434 129.137L81.1157 112.083C81.1157 111.234 82.3991 110.538 83.1492 110.547L89.9454 110.61L90.3521 101.265H99.2179L99.4619 92.309L108.527 92.1553L108.59 83.3166C108.671 83.1539 109.006 83.0816 109.204 83.1901C109.692 83.4703 110.162 83.0364 110.515 83.0274V83.0184ZM108.581 119.738L108.509 110.601L117.645 110.709L117.627 101.392L127.207 101.356L127.017 92.1373L117.79 92.2276L117.935 98.6985C117.953 99.7288 117.871 101.374 116.543 101.392L108.518 101.545L108.445 108.631C108.445 109.272 108.373 110.556 107.496 110.565L99.4168 110.61V119.946L108.59 119.738H108.581Z" fill="#B35F3B"/>
<path d="M90.5605 138.31L127.217 138.427L127.379 147.573L81.315 147.673L80.8361 156.81L71.437 157.189L71.6268 147.664L80.6011 147.402L80.7999 138.482L90.5605 138.31Z" fill="#662627"/>
<path d="M80.7991 138.482L80.6002 147.402L71.626 147.664L71.4904 141.012C71.4633 139.693 71.4542 138.707 71.9242 137.858C72.1049 138.129 72.5297 138.436 73.2256 138.436L80.7991 138.472V138.482Z" fill="#CF8552"/>
<path d="M135.703 175.526C135.278 179.693 136.299 182.214 136.326 184.492L108.482 184.618L108.355 193.692L99.4713 193.818V184.862C99.2544 184.781 99.0736 184.682 98.8748 184.519H90.2711L90.2259 175.87L89.9276 175.536L80.4834 175.508L80.5105 166.1L90.2349 166.127L90.2078 174.767L90.9398 175.508L99.2544 175.536L99.3357 183.85L99.9593 184.483L108.4 184.365L108.491 175.536H135.694L135.703 175.526Z" fill="#CF8552"/>
<path d="M108.355 193.692C108.355 193.891 108.454 194.108 108.509 194.243L108.328 203.127L99.5523 203.163L99.3535 196.087L99.471 193.818L108.355 193.692Z" fill="#9E4F39"/>
<path d="M228.627 110.059L228.934 113.014L228.844 129.254L219.544 129.318L219.499 120.108L210.353 119.702V111.017L210.507 101.401L219.617 101.437V110.348C222.843 110.718 225.78 110.791 228.627 110.041V110.059Z" fill="#CF8552"/>
<path d="M191.681 110.429H200.547C200.736 111.035 200.989 111.911 200.98 113.014L200.935 119.449L200.718 129.164H186.096L182.499 129.381L182.58 113.927C182.58 112.634 182.67 111.559 182.282 110.682L187.045 110.926L191.681 110.429Z" fill="#CF8552"/>
<path d="M182.282 110.682C182.671 111.559 182.589 112.634 182.58 113.927L182.499 129.381L182.4 138.229L173.335 138.409L173.398 110.492L164.008 110.574L164.081 103.045C164.081 102.368 164.37 101.789 164.433 101.473L173.136 101.581L173.407 109.39C173.443 110.547 175.079 110.718 176.137 110.709L182.282 110.673V110.682Z" fill="#662627"/>
<path d="M210.353 111.026V119.711C207.361 119.575 204.017 120.479 200.936 119.449L200.981 113.014C200.981 111.911 200.737 111.035 200.547 110.42C200.655 110.23 200.908 110.095 201.098 110.185C202.264 110.727 203.439 110.646 204.966 110.736L210.353 111.017V111.026Z" fill="#9E4F39"/>
<path d="M135.531 194.117C135.703 194.144 136.064 194.252 136.38 194.496L136.57 203.182C136.805 203.561 138.043 203.236 138.423 203.236L145.517 203.263L145.481 212.364H127.379L127.117 203.272L108.319 203.136L108.5 194.252C109.747 193.9 111.238 193.99 112.973 193.99L135.531 194.126V194.117Z" fill="#CF8552"/>
<path d="M136.326 184.492L136.372 188.884C136.155 188.767 135.739 188.848 135.73 189.092L135.531 194.117L112.973 193.981C111.238 193.981 109.747 193.891 108.5 194.243C108.455 194.108 108.346 193.891 108.346 193.692L108.473 184.618L136.317 184.492H136.326Z" fill="#A63E2F"/>
<path d="M145.626 166.408L145.49 175.436L138.649 175.554C138.197 175.924 137.429 177.479 137.401 178.057L137.185 182.567C137.7 183.561 137.257 184.537 136.326 184.501C136.299 182.224 135.278 179.702 135.702 175.536C136.299 175.174 136.66 174.668 136.443 173.575L136.398 157.325C139.263 156.909 142.146 156.864 145.454 157.226L145.626 166.408Z" fill="#662627"/>
<path d="M138.432 203.227C138.052 203.227 136.814 203.552 136.579 203.172L136.39 194.487C136.073 194.243 135.712 194.144 135.54 194.108L135.739 189.083C135.748 188.839 136.164 188.758 136.381 188.875C138.911 189.399 135.233 191.315 137.212 192.734L137.492 200.778C137.519 201.528 138.45 202.486 138.441 203.218L138.432 203.227Z" fill="#662627"/>
<path d="M163.619 101.31L164.433 101.482C164.37 101.798 164.089 102.377 164.08 103.054L164.008 110.583L173.398 110.501L173.335 138.418L173.235 147.393L164.243 147.338L164.08 154.008C164.044 155.346 163.945 156.231 163.204 157.027L156.245 156.873C154.699 156.837 154.347 157.677 154.609 158.997L154.654 166.254L145.626 166.417L145.454 157.234C142.146 156.873 139.263 156.918 136.398 157.334L136.344 147.691L127.379 147.582L127.225 138.436L90.5689 138.328C89.6742 133.818 89.7646 129.281 91.31 129.272L127.126 129.155L127.307 138.382L136.245 138.482L136.543 147.374C139.616 147.835 142.345 147.736 145.49 147.411L145.599 138.436L154.528 138.274L154.835 129.308L163.945 128.938L164.116 110.393L155.088 110.646C154.049 104.853 156.317 101.265 152.811 101.211L145.734 101.111L145.508 92.2725L136.525 92.0827L136.471 83L145.481 82.9819L145.517 92.2816L154.708 92.2996L154.645 101.274L163.628 101.31H163.619Z" fill="#CF8552"/>
<path d="M117.871 223.173C117.474 223.326 116.651 223.335 116.434 222.314L112.205 222.278C112.006 221.817 112.024 221.537 112.042 221.419L118.269 221.519C118.757 222.088 118.35 223.01 117.862 223.191L117.871 223.173Z" fill="#662627"/>
<path d="M210.515 82.9911L210.488 92.2004H219.516L219.561 101.636L227.605 101.364C228.518 101.401 228.906 101.988 228.87 103.054L228.626 110.059C225.779 110.809 222.842 110.736 219.625 110.366V101.455L210.506 101.419L210.343 111.035L204.957 110.754C203.429 110.664 202.255 110.754 201.089 110.203L201.007 83.208C201.315 83.0454 201.703 82.8827 202.318 82.8917L210.506 83.0002L210.515 82.9911Z" fill="#B35F3B"/>
<path d="M191.599 83.0995L182.517 83.226V75.9418L182.878 74.062C183.149 74.1523 183.682 73.7728 184.234 73.7637L191.518 73.6643L191.608 83.0995H191.599Z" fill="#B35F3B"/>
<path d="M172.964 74.2246L173.136 82.8826L182.508 83.235L182.544 92.1189L189.765 92.2093L191.636 92.4985L191.681 110.447L187.045 110.944L182.282 110.7L176.137 110.736C175.079 110.736 173.443 110.574 173.407 109.417L173.136 101.608L164.433 101.5L163.62 101.328C164.189 98.5266 164.343 95.6255 163.565 92.2907L155.639 91.9111C154.745 91.8659 155.197 90.1397 155.151 89.6427L154.672 84.193C154.582 83.1356 153.479 82.6928 152.657 82.6747L145.653 82.4849L145.49 74.2065L147.271 73.7456H171.699C172.359 73.7546 172.702 74.0348 172.973 74.2517L172.964 74.2246Z" fill="#B35F3B"/>
<path d="M145.481 74.1796L145.644 82.458L152.648 82.6478C153.461 82.6659 154.564 83.1087 154.663 84.1661L155.142 89.6158C155.187 90.1128 154.736 91.839 155.63 91.8842L163.556 92.2638C164.333 95.5986 164.18 98.4997 163.61 101.301L154.627 101.265L154.69 92.2909L145.499 92.2728L145.463 82.9732L136.453 82.9912L127.469 82.8828C126.954 80.3975 126.954 77.2072 127.451 73.9447L143.728 73.782L145.472 74.1796H145.481Z" fill="#662627"/>
<path d="M191.6 83.0996L191.636 92.4896L189.765 92.2004L182.544 92.11L182.508 83.2261L191.6 83.0996Z" fill="#CF8552"/>
<path d="M182.87 74.071L182.518 75.9508V83.2351L173.137 82.8826L172.965 74.2246C173.57 73.8179 174.194 73.7095 175.269 73.7185L180.719 73.7547C181.659 73.7547 182.418 73.9174 182.879 74.071H182.87Z" fill="#CF8552"/>
<path d="M110.515 83.0182C110.162 83.0182 109.692 83.461 109.204 83.1809C109.15 82.1506 110.252 82.0964 110.515 83.0182Z" fill="#662627"/>
<path d="M201.016 83.1991L201.098 110.194C200.908 110.104 200.655 110.23 200.547 110.429H191.681L191.636 92.4897L191.59 83.0997L197.844 82.8466C199.182 82.8104 200.149 82.8195 201.007 83.1991H201.016Z" fill="#662627"/>
<path d="M108.581 119.738L99.417 119.946V110.61L107.488 110.565C108.364 110.565 108.427 109.281 108.436 108.631L108.509 101.545L116.534 101.392C117.854 101.365 117.944 99.7287 117.926 98.6985L117.781 92.2276L127.009 92.1372L127.198 101.356L117.619 101.392L117.637 110.709L108.5 110.601L108.572 119.738H108.581Z" fill="#CF8552"/>
<path d="M136.398 157.325L134.699 157.036L127.144 156.792V152.77L127.379 147.573L136.344 147.682L136.398 157.325Z" fill="#A63E2F"/>
</svg>
