<svg width="300" height="300" viewBox="0 0 300 300" fill="none" xmlns="http://www.w3.org/2000/svg">
<path d="M173.658 121.598C173.666 121.952 173.921 122.321 174.208 122.329L175.292 122.403L175.112 129.796C174.964 129.731 174.808 129.78 174.783 129.985H99.8665L99.8829 138.619C99.694 138.553 99.3079 138.397 99.0286 138.397L91.4055 138.471L91.192 146.168C90.962 146.554 91.0277 146.842 90.9537 146.924L82.7885 146.973L82.8213 214.045L90.9537 214.135L91.3398 228.215L91.5616 229.776L91.2248 229.8H82.7967L82.7146 222.547L74.4097 222.35V138.635L82.7146 138.487L82.7967 130.068H99.5954L99.7597 121.639H124.724L124.757 113.154L116.435 113.121L116.394 104.841L108.065 104.791L108.024 62.9137L116.427 62.8644L116.361 54.5595L124.781 54.4856L124.83 46L150.041 46.0411V71.1693L141.572 71.235L141.703 79.6385L149.959 79.7864L149.983 87.853L158.354 88.0256L158.436 121.582L173.658 121.598ZM141.58 113.187L150.041 113.129L150.016 87.9516L141.539 87.9927L141.49 79.696L133.333 79.5892V63.2012L141.531 63.0205L141.416 54.5678H133.16L133.185 62.8562L124.757 63.0862L124.65 71.2515L116.452 71.3747L116.369 96.2812L124.83 96.5522L124.904 104.742L133.267 104.972V121.516L141.498 121.533L141.572 113.178L141.58 113.187Z" fill="#F9F9F9"/>
<path d="M99.8426 237.933L99.8837 237.481L107.252 237.341C107.301 237.941 107.819 238.253 108.369 238.122L108.328 245.326L113.914 245.465L166.495 245.523L166.471 237.366L174.923 237.44L174.767 229.792H175.055C175.819 229.792 176.706 230.038 177.872 230.014L183.705 229.882L183.614 214.193L188.609 214.127L197.653 213.987L200.462 213.971L200.503 205.764L208.874 205.649L208.973 197.188H217.319L217.302 172.216L208.981 172.282L208.726 163.64L192.059 163.484L192.018 146.883L183.614 146.866L183.59 138.619L200.43 138.455L200.536 155.253L217.236 155.237V163.509L225.533 163.607L225.591 205.551L217.22 205.715L217.236 213.995L208.808 214.045L208.776 222.448L200.536 222.415L200.438 230.006H191.813L191.878 238.138L182.916 238.105V247.133L174.726 247.001L174.743 253.967L106.094 254L106.045 247.108L99.8672 247.026L99.8262 237.908L99.8426 237.933Z" fill="#F9F9F9"/>
<path d="M183.597 138.635L175.276 138.422L175.07 131.333L174.774 129.994C174.799 129.78 174.955 129.739 175.103 129.805C175.579 130.018 176.179 130.059 177.033 130.068L183.49 130.084L183.597 138.644V138.635Z" fill="#F4F4F5"/>
<path d="M99.8831 237.472L99.8421 237.933L91.2497 237.908L91.2168 229.808L91.5536 229.784L99.8256 229.808L99.8831 237.472Z" fill="#F4F4F5"/>
<path d="M141.58 113.187L141.506 121.541L133.267 121.525L133.275 104.98L124.913 104.75L124.839 96.5606L116.378 96.2813L116.452 71.3748L124.658 71.2516L124.757 63.0863L133.185 62.8563L133.168 54.5679L141.424 54.5761L141.539 63.0288L133.325 63.2096L133.333 79.5976L141.49 79.7043L141.547 87.9928L150.016 87.9517L150.041 113.129L141.58 113.187Z" fill="#662627"/>
<path d="M174.784 129.994L175.079 131.324L175.277 138.422L183.598 138.635L183.623 146.875L175.367 146.85L174.956 138.717L99.8836 138.627L99.8672 129.994H174.784Z" fill="#351616"/>
<path d="M90.9455 146.932L91.118 172.29L91.1262 205.477L90.9455 214.143L82.8213 214.053L82.7803 146.981L90.9455 146.932Z" fill="#3B1918"/>
<path d="M108.262 237.259L107.251 237.333L99.8827 237.473L99.8252 229.808L91.5532 229.784L91.3314 228.231L90.9453 214.143L99.6856 214.225L99.8334 229.661L108.196 229.759L108.262 237.259Z" fill="#351616"/>
<path d="M99.0202 138.406C98.8313 139.005 99.2009 139.58 99.8417 139.597V146.875L92.5718 146.842C92.5882 145.946 91.5121 145.938 91.6107 146.916L90.9453 146.932C91.0275 146.85 90.9453 146.563 91.1835 146.176L91.3971 138.479L99.0202 138.406Z" fill="#351616"/>
<path d="M99.8414 139.597C99.2089 139.588 98.8393 139.005 99.02 138.406C99.2993 138.406 99.6936 138.553 99.8743 138.627L99.8332 139.597H99.8414Z" fill="#662627"/>
<path d="M208.989 172.29L207.47 172.085L192.297 172.036L192.084 179.757C192.067 180.283 192.322 180.554 192.692 180.554C192.61 180.719 192.61 181.113 192.807 181.351L199.222 181.458L199.042 195.965L192.782 196.187C192.93 197.525 192.314 198.084 191.024 197.944L191.008 205.091C192.421 204.992 192.757 205.609 192.93 206.75C197.604 206.824 199.69 206.003 199.28 208.484C199.033 210.003 200.405 213.026 198.36 212.722C197.514 212.599 197.341 213.519 197.678 213.987L188.634 214.127L188.478 212.616L183.713 212.55L183.73 209.363C184.592 209.445 184.625 208.41 183.73 208.467L183.697 205.272L183.721 172.405L183.647 146.866L192.051 146.883L192.092 163.484L208.759 163.641L209.014 172.282L208.989 172.29Z" fill="#3B1918"/>
<path d="M149.966 237.251L166.469 237.358L166.494 245.515L113.913 245.457L108.327 245.317L108.368 238.113L108.261 237.259L149.966 237.251Z" fill="#3B1918"/>
<path d="M183.672 205.28L183.704 208.475C183.606 208.779 183.606 209.075 183.704 209.371L183.688 212.558L183.614 214.209H175.202L175.055 229.8H174.767L166.61 229.833L166.47 237.366L149.976 237.259C150.378 235.78 150.263 234.244 150.156 232.412C150.008 229.734 153.442 230.342 158.379 230.819L158.215 214.102C158.338 214.201 158.683 214.324 159.044 214.045L175.293 214.135L175.202 205.608C178.127 205.608 180.92 205.879 183.672 205.288V205.28Z" fill="#BB7656"/>
<path d="M208.972 197.197L208.989 172.29L217.302 172.224L217.318 197.18L208.972 197.197Z" fill="#351616"/>
<path d="M208.972 197.197L208.873 205.658L200.503 205.773L200.462 213.979L197.652 213.996C197.324 213.527 197.496 212.607 198.334 212.731C200.379 213.035 199.008 210.012 199.254 208.492C199.665 206.011 197.578 206.833 192.904 206.759C192.732 205.617 192.403 205.001 190.982 205.099L190.998 197.953C192.28 198.092 192.904 197.526 192.756 196.195L199.016 195.973L199.196 181.466L192.781 181.359C192.576 181.121 192.584 180.727 192.666 180.562L200.831 180.636L200.618 191.282L200.388 194.601C200.355 195.078 200.166 196.942 200.79 196.959L208.964 197.197H208.972ZM200.338 197.328L194.974 197.575L192.682 197.961L192.789 204.976C193.167 205.264 194.547 205.65 195.106 205.633L200.322 205.494L200.338 197.337V197.328Z" fill="#662627"/>
<path d="M183.622 214.201L183.712 229.891L177.88 230.022C176.714 230.047 175.826 229.8 175.062 229.8L175.21 214.209H183.622V214.201Z" fill="#351616"/>
<path d="M174.766 229.792L174.922 237.44L166.47 237.358L166.609 229.825L174.766 229.792Z" fill="#351616"/>
<path d="M188.617 214.135L183.622 214.201L183.696 212.55L188.452 212.624L188.617 214.135Z" fill="#662627"/>
<path d="M108.369 238.113C107.818 238.245 107.301 237.933 107.251 237.333L108.262 237.259L108.36 238.113H108.369Z" fill="#F4F4F5"/>
<path d="M175.366 146.85L99.8992 146.809L99.776 155.196H108.073L108.089 162.548C108.089 162.893 108.212 163.369 108.976 163.369L157.968 163.41C158.05 163.821 158.305 164.322 158.305 164.987L158.222 180.505L99.965 180.472L99.7514 172.29H91.1261L90.9536 146.94L91.619 146.924C91.9476 146.915 92.2597 146.981 92.5801 146.85L99.8582 146.883V139.605L174.43 139.555C174.545 139.555 174.824 138.783 174.964 138.726L175.374 146.858L175.366 146.85Z" fill="#D1966E"/>
<path d="M174.955 138.718C174.816 138.767 174.537 139.547 174.422 139.547L99.8418 139.597L99.8829 138.627L174.955 138.718Z" fill="#DAB694"/>
<path d="M158.223 180.505L158.346 182.246L158.395 211.786L158.214 214.094L99.8913 214.004L99.727 205.617L91.1264 205.477L91.1182 172.29L99.7516 172.282L99.9652 180.472L158.223 180.505Z" fill="#A63E2F"/>
<path d="M158.214 214.094L158.378 230.811C153.441 230.334 150 229.726 150.156 232.404C150.262 234.236 150.377 235.772 149.975 237.251H108.27L108.204 229.759L99.8417 229.66L99.6856 214.234L90.9453 214.151L91.126 205.485L99.7266 205.625L99.8992 214.012L158.222 214.102L158.214 214.094Z" fill="#D1966E"/>
<path d="M92.572 146.842C92.2434 146.965 91.9395 146.899 91.6109 146.916C91.5123 145.938 92.5884 145.946 92.572 146.842Z" fill="#662627"/>
<path d="M183.696 172.414L183.671 205.28C180.919 205.871 178.135 205.609 175.202 205.6L175.292 214.127L159.044 214.037C158.683 214.316 158.338 214.193 158.214 214.094L158.395 211.786L158.346 182.246L158.223 180.505L175.202 180.472L175.243 172.192L183.696 172.414Z" fill="#662627"/>
<path d="M183.622 146.875L183.696 172.414L175.243 172.192L175.202 180.472L158.223 180.505L158.305 164.988C158.305 164.322 158.05 163.821 157.968 163.41L166.372 163.361L166.429 155.993L166.692 155.319L175.178 155.179L175.367 146.858L183.63 146.883L183.622 146.875Z" fill="#BB7656"/>
<path d="M208.989 172.29V197.189L200.807 196.95C200.183 196.934 200.372 195.069 200.404 194.593L200.634 191.274L200.848 180.628L192.683 180.554C192.321 180.554 192.067 180.283 192.075 179.757L192.288 172.036L207.461 172.085L208.98 172.29H208.989Z" fill="#D1966E"/>
<path d="M183.704 209.363C183.614 209.067 183.606 208.771 183.704 208.467C184.591 208.41 184.558 209.445 183.704 209.363Z" fill="#662627"/>
<path d="M200.339 197.328L200.323 205.485L195.106 205.625C194.548 205.641 193.168 205.255 192.79 204.968L192.683 197.953L194.975 197.566L200.339 197.32V197.328Z" fill="#BB7656"/>
<path d="M175.367 146.85L175.178 155.171L166.692 155.311C166.323 155.023 165.559 155.122 165.551 155.878L165.485 162.54H108.082L108.065 155.196H99.7686L99.8918 146.809L175.359 146.85H175.367Z" fill="#3B1918"/>
<path d="M157.96 163.41L108.969 163.369C108.205 163.369 108.082 162.885 108.082 162.548H165.485L165.55 155.878C165.55 155.122 166.323 155.023 166.692 155.311L166.429 155.984L166.372 163.353L157.968 163.402L157.96 163.41Z" fill="#351616"/>
</svg>
