<svg width="920" height="120" viewBox="0 0 920 120" fill="none" xmlns="http://www.w3.org/2000/svg">
<path d="M110 97.5V10H197.5V22.5H135V47.5H185V60H135V85H197.5V97.5H110ZM210 97.5V35H285V47.5H297.5V97.5H272.5V47.5H235V97.5H210ZM322.5 97.5V85H310V47.5H322.5V35H385V47.5H397.5V72.5H335V85H385V97.5H322.5ZM335 60H372.5V47.5H335V60ZM447.5 47.5H460V60H447.5V97.5H422.5V35H447.5V47.5ZM497.5 35V47.5H460V35H497.5ZM522.5 110V97.5H572.5V85H522.5V72.5H510V47.5H522.5V35H597.5V97.5H585V110H522.5ZM535 72.5H572.5V47.5H535V72.5ZM672.5 22.5H660V10H672.5V22.5ZM660 35H647.5V22.5H660V35ZM697.5 85V97.5H622.5V85H647.5V60H635V47.5H672.5V85H697.5ZM722.5 97.5V85H710V72.5H722.5V60H772.5V47.5H722.5V35H785V47.5H797.5V97.5H722.5ZM735 85H772.5V72.5H735V85Z" fill="white"/>
</svg>
