<svg width="920" height="120" viewBox="0 0 920 120" fill="none" xmlns="http://www.w3.org/2000/svg">
<path d="M10 97.5V10H97.5V22.5H35V47.5H85V60H35V97.5H10ZM122.5 97.5V85H110V47.5H122.5V35H185V47.5H197.5V72.5H135V85H185V97.5H122.5ZM135 60H172.5V47.5H135V60ZM222.5 97.5V85H247.5V22.5H235V10H272.5V85H297.5V97.5H222.5ZM347.5 22.5V10H372.5V22.5H347.5ZM322.5 97.5V85H347.5V47.5H335V35H372.5V85H397.5V97.5H322.5ZM422.5 97.5V85H410V47.5H422.5V35H497.5V47.5H435V85H497.5V97.5H422.5ZM547.5 22.5V10H572.5V22.5H547.5ZM522.5 97.5V85H547.5V47.5H535V35H572.5V85H597.5V97.5H522.5ZM622.5 97.5V85H610V47.5H622.5V35H672.5V10H697.5V97.5H622.5ZM635 85H672.5V47.5H635V85ZM722.5 97.5V85H710V72.5H722.5V60H772.5V47.5H722.5V35H785V47.5H797.5V97.5H722.5ZM735 85H772.5V72.5H735V85ZM822.5 97.5V85H810V47.5H822.5V35H872.5V10H897.5V97.5H822.5ZM835 85H872.5V47.5H835V85Z" fill="white"/>
</svg>
