<svg width="1352" height="184" viewBox="0 0 1352 184" fill="none" xmlns="http://www.w3.org/2000/svg">
<mask id="path-1-outside-1_93_187053" maskUnits="userSpaceOnUse" x="-0.5" y="0" width="1353" height="184" fill="black">
<rect fill="white" x="-0.5" width="1353" height="184"/>
<path d="M64.5 155.75V137.5H46.25V119.25H28V64.5H46.25V46.25H64.5V28H155.75V46.25H82.75V64.5H64.5V119.25H82.75V137.5H119.25V101H101V82.75H155.75V155.75H64.5ZM192.25 155.75V137.5H174V119.25H192.25V101H265.25V82.75H192.25V64.5H283.5V82.75H301.75V155.75H192.25ZM210.5 137.5H265.25V119.25H210.5V137.5ZM320 155.75V64.5H429.5V82.75H447.75V155.75H411.25V82.75H393V155.75H356.5V82.75H338.25V155.75H320ZM484.25 155.75V137.5H466V82.75H484.25V64.5H575.5V82.75H593.75V119.25H502.5V137.5H575.5V155.75H484.25ZM502.5 101H557.25V82.75H502.5V101ZM776.25 155.75V137.5H758V82.75H776.25V64.5H867.5V82.75H885.75V137.5H867.5V155.75H776.25ZM794.5 137.5H849.25V82.75H794.5V137.5ZM958.75 155.75V137.5H940.5V119.25H922.25V64.5H958.75V119.25H995.25V64.5H1031.75V119.25H1013.5V137.5H995.25V155.75H958.75ZM1068.25 155.75V137.5H1050V82.75H1068.25V64.5H1159.5V82.75H1177.75V119.25H1086.5V137.5H1159.5V155.75H1068.25ZM1086.5 101H1141.25V82.75H1086.5V101ZM1250.75 82.75H1269V101H1250.75V155.75H1214.25V64.5H1250.75V82.75ZM1323.75 64.5V82.75H1269V64.5H1323.75Z"/>
</mask>
<path d="M64.5 155.75V137.5H46.25V119.25H28V64.5H46.25V46.25H64.5V28H155.75V46.25H82.75V64.5H64.5V119.25H82.75V137.5H119.25V101H101V82.75H155.75V155.75H64.5ZM192.25 155.75V137.5H174V119.25H192.25V101H265.25V82.75H192.25V64.5H283.5V82.75H301.75V155.75H192.25ZM210.5 137.5H265.25V119.25H210.5V137.5ZM320 155.75V64.5H429.5V82.75H447.75V155.75H411.25V82.75H393V155.75H356.5V82.75H338.25V155.75H320ZM484.25 155.75V137.5H466V82.75H484.25V64.5H575.5V82.75H593.75V119.25H502.5V137.5H575.5V155.75H484.25ZM502.5 101H557.25V82.75H502.5V101ZM776.25 155.75V137.5H758V82.75H776.25V64.5H867.5V82.75H885.75V137.5H867.5V155.75H776.25ZM794.5 137.5H849.25V82.75H794.5V137.5ZM958.75 155.75V137.5H940.5V119.25H922.25V64.5H958.75V119.25H995.25V64.5H1031.75V119.25H1013.5V137.5H995.25V155.75H958.75ZM1068.25 155.75V137.5H1050V82.75H1068.25V64.5H1159.5V82.75H1177.75V119.25H1086.5V137.5H1159.5V155.75H1068.25ZM1086.5 101H1141.25V82.75H1086.5V101ZM1250.75 82.75H1269V101H1250.75V155.75H1214.25V64.5H1250.75V82.75ZM1323.75 64.5V82.75H1269V64.5H1323.75Z" fill="white"/>
<path d="M64.5 155.75H36.5V183.75H64.5V155.75ZM64.5 137.5H92.5V109.5H64.5V137.5ZM46.25 137.5H18.25V165.5H46.25V137.5ZM46.25 119.25H74.25V91.25H46.25V119.25ZM28 119.25H0V147.25H28V119.25ZM28 64.5V36.5H0V64.5H28ZM46.25 64.5V92.5H74.25V64.5H46.25ZM46.25 46.25V18.25H18.25V46.25H46.25ZM64.5 46.25V74.25H92.5V46.25H64.5ZM64.5 28V0H36.5V28H64.5ZM155.75 28H183.75V0H155.75V28ZM155.75 46.25V74.25H183.75V46.25H155.75ZM82.75 46.25V18.25H54.75V46.25H82.75ZM82.75 64.5V92.5H110.75V64.5H82.75ZM64.5 64.5V36.5H36.5V64.5H64.5ZM64.5 119.25H36.5V147.25H64.5V119.25ZM82.75 119.25H110.75V91.25H82.75V119.25ZM82.75 137.5H54.75V165.5H82.75V137.5ZM119.25 137.5V165.5H147.25V137.5H119.25ZM119.25 101H147.25V73H119.25V101ZM101 101H73V129H101V101ZM101 82.75V54.75H73V82.75H101ZM155.75 82.75H183.75V54.75H155.75V82.75ZM155.75 155.75V183.75H183.75V155.75H155.75ZM64.5 155.75H92.5V137.5H64.5H36.5V155.75H64.5ZM64.5 137.5V109.5H46.25V137.5V165.5H64.5V137.5ZM46.25 137.5H74.25V119.25H46.25H18.25V137.5H46.25ZM46.25 119.25V91.25H28V119.25V147.25H46.25V119.25ZM28 119.25H56V64.5H28H0V119.25H28ZM28 64.5V92.5H46.25V64.5V36.5H28V64.5ZM46.25 64.5H74.25V46.25H46.25H18.25V64.5H46.25ZM46.25 46.25V74.25H64.5V46.25V18.25H46.25V46.25ZM64.5 46.25H92.5V28H64.5H36.5V46.25H64.5ZM64.5 28V56H155.75V28V0H64.5V28ZM155.75 28H127.75V46.25H155.75H183.75V28H155.75ZM155.75 46.25V18.25H82.75V46.25V74.25H155.75V46.25ZM82.75 46.25H54.75V64.5H82.75H110.75V46.25H82.75ZM82.75 64.5V36.5H64.5V64.5V92.5H82.75V64.5ZM64.5 64.5H36.5V119.25H64.5H92.5V64.5H64.5ZM64.5 119.25V147.25H82.75V119.25V91.25H64.5V119.25ZM82.75 119.25H54.75V137.5H82.75H110.75V119.25H82.75ZM82.75 137.5V165.5H119.25V137.5V109.5H82.75V137.5ZM119.25 137.5H147.25V101H119.25H91.25V137.5H119.25ZM119.25 101V73H101V101V129H119.25V101ZM101 101H129V82.75H101H73V101H101ZM101 82.75V110.75H155.75V82.75V54.75H101V82.75ZM155.75 82.75H127.75V155.75H155.75H183.75V82.75H155.75ZM155.75 155.75V127.75H64.5V155.75V183.75H155.75V155.75ZM192.25 155.75H164.25V183.75H192.25V155.75ZM192.25 137.5H220.25V109.5H192.25V137.5ZM174 137.5H146V165.5H174V137.5ZM174 119.25V91.25H146V119.25H174ZM192.25 119.25V147.25H220.25V119.25H192.25ZM192.25 101V73H164.25V101H192.25ZM265.25 101V129H293.25V101H265.25ZM265.25 82.75H293.25V54.75H265.25V82.75ZM192.25 82.75H164.25V110.75H192.25V82.75ZM192.25 64.5V36.5H164.25V64.5H192.25ZM283.5 64.5H311.5V36.5H283.5V64.5ZM283.5 82.75H255.5V110.75H283.5V82.75ZM301.75 82.75H329.75V54.75H301.75V82.75ZM301.75 155.75V183.75H329.75V155.75H301.75ZM210.5 137.5H182.5V165.5H210.5V137.5ZM265.25 137.5V165.5H293.25V137.5H265.25ZM265.25 119.25H293.25V91.25H265.25V119.25ZM210.5 119.25V91.25H182.5V119.25H210.5ZM192.25 155.75H220.25V137.5H192.25H164.25V155.75H192.25ZM192.25 137.5V109.5H174V137.5V165.5H192.25V137.5ZM174 137.5H202V119.25H174H146V137.5H174ZM174 119.25V147.25H192.25V119.25V91.25H174V119.25ZM192.25 119.25H220.25V101H192.25H164.25V119.25H192.25ZM192.25 101V129H265.25V101V73H192.25V101ZM265.25 101H293.25V82.75H265.25H237.25V101H265.25ZM265.25 82.75V54.75H192.25V82.75V110.75H265.25V82.75ZM192.25 82.75H220.25V64.5H192.25H164.25V82.75H192.25ZM192.25 64.5V92.5H283.5V64.5V36.5H192.25V64.5ZM283.5 64.5H255.5V82.75H283.5H311.5V64.5H283.5ZM283.5 82.75V110.75H301.75V82.75V54.75H283.5V82.75ZM301.75 82.75H273.75V155.75H301.75H329.75V82.75H301.75ZM301.75 155.75V127.75H192.25V155.75V183.75H301.75V155.75ZM210.5 137.5V165.5H265.25V137.5V109.5H210.5V137.5ZM265.25 137.5H293.25V119.25H265.25H237.25V137.5H265.25ZM265.25 119.25V91.25H210.5V119.25V147.25H265.25V119.25ZM210.5 119.25H182.5V137.5H210.5H238.5V119.25H210.5ZM320 155.75H292V183.75H320V155.75ZM320 64.5V36.5H292V64.5H320ZM429.5 64.5H457.5V36.5H429.5V64.5ZM429.5 82.75H401.5V110.75H429.5V82.75ZM447.75 82.75H475.75V54.75H447.75V82.75ZM447.75 155.75V183.75H475.75V155.75H447.75ZM411.25 155.75H383.25V183.75H411.25V155.75ZM411.25 82.75H439.25V54.75H411.25V82.75ZM393 82.75V54.75H365V82.75H393ZM393 155.75V183.75H421V155.75H393ZM356.5 155.75H328.5V183.75H356.5V155.75ZM356.5 82.75H384.5V54.75H356.5V82.75ZM338.25 82.75V54.75H310.25V82.75H338.25ZM338.25 155.75V183.75H366.25V155.75H338.25ZM320 155.75H348V64.5H320H292V155.75H320ZM320 64.5V92.5H429.5V64.5V36.5H320V64.5ZM429.5 64.5H401.5V82.75H429.5H457.5V64.5H429.5ZM429.5 82.75V110.75H447.75V82.75V54.75H429.5V82.75ZM447.75 82.75H419.75V155.75H447.75H475.75V82.75H447.75ZM447.75 155.75V127.75H411.25V155.75V183.75H447.75V155.75ZM411.25 155.75H439.25V82.75H411.25H383.25V155.75H411.25ZM411.25 82.75V54.75H393V82.75V110.75H411.25V82.75ZM393 82.75H365V155.75H393H421V82.75H393ZM393 155.75V127.75H356.5V155.75V183.75H393V155.75ZM356.5 155.75H384.5V82.75H356.5H328.5V155.75H356.5ZM356.5 82.75V54.75H338.25V82.75V110.75H356.5V82.75ZM338.25 82.75H310.25V155.75H338.25H366.25V82.75H338.25ZM338.25 155.75V127.75H320V155.75V183.75H338.25V155.75ZM484.25 155.75H456.25V183.75H484.25V155.75ZM484.25 137.5H512.25V109.5H484.25V137.5ZM466 137.5H438V165.5H466V137.5ZM466 82.75V54.75H438V82.75H466ZM484.25 82.75V110.75H512.25V82.75H484.25ZM484.25 64.5V36.5H456.25V64.5H484.25ZM575.5 64.5H603.5V36.5H575.5V64.5ZM575.5 82.75H547.5V110.75H575.5V82.75ZM593.75 82.75H621.75V54.75H593.75V82.75ZM593.75 119.25V147.25H621.75V119.25H593.75ZM502.5 119.25V91.25H474.5V119.25H502.5ZM502.5 137.5H474.5V165.5H502.5V137.5ZM575.5 137.5H603.5V109.5H575.5V137.5ZM575.5 155.75V183.75H603.5V155.75H575.5ZM502.5 101H474.5V129H502.5V101ZM557.25 101V129H585.25V101H557.25ZM557.25 82.75H585.25V54.75H557.25V82.75ZM502.5 82.75V54.75H474.5V82.75H502.5ZM484.25 155.75H512.25V137.5H484.25H456.25V155.75H484.25ZM484.25 137.5V109.5H466V137.5V165.5H484.25V137.5ZM466 137.5H494V82.75H466H438V137.5H466ZM466 82.75V110.75H484.25V82.75V54.75H466V82.75ZM484.25 82.75H512.25V64.5H484.25H456.25V82.75H484.25ZM484.25 64.5V92.5H575.5V64.5V36.5H484.25V64.5ZM575.5 64.5H547.5V82.75H575.5H603.5V64.5H575.5ZM575.5 82.75V110.75H593.75V82.75V54.75H575.5V82.75ZM593.75 82.75H565.75V119.25H593.75H621.75V82.75H593.75ZM593.75 119.25V91.25H502.5V119.25V147.25H593.75V119.25ZM502.5 119.25H474.5V137.5H502.5H530.5V119.25H502.5ZM502.5 137.5V165.5H575.5V137.5V109.5H502.5V137.5ZM575.5 137.5H547.5V155.75H575.5H603.5V137.5H575.5ZM575.5 155.75V127.75H484.25V155.75V183.75H575.5V155.75ZM502.5 101V129H557.25V101V73H502.5V101ZM557.25 101H585.25V82.75H557.25H529.25V101H557.25ZM557.25 82.75V54.75H502.5V82.75V110.75H557.25V82.75ZM502.5 82.75H474.5V101H502.5H530.5V82.75H502.5ZM776.25 155.75H748.25V183.75H776.25V155.75ZM776.25 137.5H804.25V109.5H776.25V137.5ZM758 137.5H730V165.5H758V137.5ZM758 82.75V54.75H730V82.75H758ZM776.25 82.75V110.75H804.25V82.75H776.25ZM776.25 64.5V36.5H748.25V64.5H776.25ZM867.5 64.5H895.5V36.5H867.5V64.5ZM867.5 82.75H839.5V110.75H867.5V82.75ZM885.75 82.75H913.75V54.75H885.75V82.75ZM885.75 137.5V165.5H913.75V137.5H885.75ZM867.5 137.5V109.5H839.5V137.5H867.5ZM867.5 155.75V183.75H895.5V155.75H867.5ZM794.5 137.5H766.5V165.5H794.5V137.5ZM849.25 137.5V165.5H877.25V137.5H849.25ZM849.25 82.75H877.25V54.75H849.25V82.75ZM794.5 82.75V54.75H766.5V82.75H794.5ZM776.25 155.75H804.25V137.5H776.25H748.25V155.75H776.25ZM776.25 137.5V109.5H758V137.5V165.5H776.25V137.5ZM758 137.5H786V82.75H758H730V137.5H758ZM758 82.75V110.75H776.25V82.75V54.75H758V82.75ZM776.25 82.75H804.25V64.5H776.25H748.25V82.75H776.25ZM776.25 64.5V92.5H867.5V64.5V36.5H776.25V64.5ZM867.5 64.5H839.5V82.75H867.5H895.5V64.5H867.5ZM867.5 82.75V110.75H885.75V82.75V54.75H867.5V82.75ZM885.75 82.75H857.75V137.5H885.75H913.75V82.75H885.75ZM885.75 137.5V109.5H867.5V137.5V165.5H885.75V137.5ZM867.5 137.5H839.5V155.75H867.5H895.5V137.5H867.5ZM867.5 155.75V127.75H776.25V155.75V183.75H867.5V155.75ZM794.5 137.5V165.5H849.25V137.5V109.5H794.5V137.5ZM849.25 137.5H877.25V82.75H849.25H821.25V137.5H849.25ZM849.25 82.75V54.75H794.5V82.75V110.75H849.25V82.75ZM794.5 82.75H766.5V137.5H794.5H822.5V82.75H794.5ZM958.75 155.75H930.75V183.75H958.75V155.75ZM958.75 137.5H986.75V109.5H958.75V137.5ZM940.5 137.5H912.5V165.5H940.5V137.5ZM940.5 119.25H968.5V91.25H940.5V119.25ZM922.25 119.25H894.25V147.25H922.25V119.25ZM922.25 64.5V36.5H894.25V64.5H922.25ZM958.75 64.5H986.75V36.5H958.75V64.5ZM958.75 119.25H930.75V147.25H958.75V119.25ZM995.25 119.25V147.25H1023.25V119.25H995.25ZM995.25 64.5V36.5H967.25V64.5H995.25ZM1031.75 64.5H1059.75V36.5H1031.75V64.5ZM1031.75 119.25V147.25H1059.75V119.25H1031.75ZM1013.5 119.25V91.25H985.5V119.25H1013.5ZM1013.5 137.5V165.5H1041.5V137.5H1013.5ZM995.25 137.5V109.5H967.25V137.5H995.25ZM995.25 155.75V183.75H1023.25V155.75H995.25ZM958.75 155.75H986.75V137.5H958.75H930.75V155.75H958.75ZM958.75 137.5V109.5H940.5V137.5V165.5H958.75V137.5ZM940.5 137.5H968.5V119.25H940.5H912.5V137.5H940.5ZM940.5 119.25V91.25H922.25V119.25V147.25H940.5V119.25ZM922.25 119.25H950.25V64.5H922.25H894.25V119.25H922.25ZM922.25 64.5V92.5H958.75V64.5V36.5H922.25V64.5ZM958.75 64.5H930.75V119.25H958.75H986.75V64.5H958.75ZM958.75 119.25V147.25H995.25V119.25V91.25H958.75V119.25ZM995.25 119.25H1023.25V64.5H995.25H967.25V119.25H995.25ZM995.25 64.5V92.5H1031.75V64.5V36.5H995.25V64.5ZM1031.75 64.5H1003.75V119.25H1031.75H1059.75V64.5H1031.75ZM1031.75 119.25V91.25H1013.5V119.25V147.25H1031.75V119.25ZM1013.5 119.25H985.5V137.5H1013.5H1041.5V119.25H1013.5ZM1013.5 137.5V109.5H995.25V137.5V165.5H1013.5V137.5ZM995.25 137.5H967.25V155.75H995.25H1023.25V137.5H995.25ZM995.25 155.75V127.75H958.75V155.75V183.75H995.25V155.75ZM1068.25 155.75H1040.25V183.75H1068.25V155.75ZM1068.25 137.5H1096.25V109.5H1068.25V137.5ZM1050 137.5H1022V165.5H1050V137.5ZM1050 82.75V54.75H1022V82.75H1050ZM1068.25 82.75V110.75H1096.25V82.75H1068.25ZM1068.25 64.5V36.5H1040.25V64.5H1068.25ZM1159.5 64.5H1187.5V36.5H1159.5V64.5ZM1159.5 82.75H1131.5V110.75H1159.5V82.75ZM1177.75 82.75H1205.75V54.75H1177.75V82.75ZM1177.75 119.25V147.25H1205.75V119.25H1177.75ZM1086.5 119.25V91.25H1058.5V119.25H1086.5ZM1086.5 137.5H1058.5V165.5H1086.5V137.5ZM1159.5 137.5H1187.5V109.5H1159.5V137.5ZM1159.5 155.75V183.75H1187.5V155.75H1159.5ZM1086.5 101H1058.5V129H1086.5V101ZM1141.25 101V129H1169.25V101H1141.25ZM1141.25 82.75H1169.25V54.75H1141.25V82.75ZM1086.5 82.75V54.75H1058.5V82.75H1086.5ZM1068.25 155.75H1096.25V137.5H1068.25H1040.25V155.75H1068.25ZM1068.25 137.5V109.5H1050V137.5V165.5H1068.25V137.5ZM1050 137.5H1078V82.75H1050H1022V137.5H1050ZM1050 82.75V110.75H1068.25V82.75V54.75H1050V82.75ZM1068.25 82.75H1096.25V64.5H1068.25H1040.25V82.75H1068.25ZM1068.25 64.5V92.5H1159.5V64.5V36.5H1068.25V64.5ZM1159.5 64.5H1131.5V82.75H1159.5H1187.5V64.5H1159.5ZM1159.5 82.75V110.75H1177.75V82.75V54.75H1159.5V82.75ZM1177.75 82.75H1149.75V119.25H1177.75H1205.75V82.75H1177.75ZM1177.75 119.25V91.25H1086.5V119.25V147.25H1177.75V119.25ZM1086.5 119.25H1058.5V137.5H1086.5H1114.5V119.25H1086.5ZM1086.5 137.5V165.5H1159.5V137.5V109.5H1086.5V137.5ZM1159.5 137.5H1131.5V155.75H1159.5H1187.5V137.5H1159.5ZM1159.5 155.75V127.75H1068.25V155.75V183.75H1159.5V155.75ZM1086.5 101V129H1141.25V101V73H1086.5V101ZM1141.25 101H1169.25V82.75H1141.25H1113.25V101H1141.25ZM1141.25 82.75V54.75H1086.5V82.75V110.75H1141.25V82.75ZM1086.5 82.75H1058.5V101H1086.5H1114.5V82.75H1086.5ZM1250.75 82.75H1222.75V110.75H1250.75V82.75ZM1269 82.75H1297V54.75H1269V82.75ZM1269 101V129H1297V101H1269ZM1250.75 101V73H1222.75V101H1250.75ZM1250.75 155.75V183.75H1278.75V155.75H1250.75ZM1214.25 155.75H1186.25V183.75H1214.25V155.75ZM1214.25 64.5V36.5H1186.25V64.5H1214.25ZM1250.75 64.5H1278.75V36.5H1250.75V64.5ZM1323.75 64.5H1351.75V36.5H1323.75V64.5ZM1323.75 82.75V110.75H1351.75V82.75H1323.75ZM1269 82.75H1241V110.75H1269V82.75ZM1269 64.5V36.5H1241V64.5H1269ZM1250.75 82.75V110.75H1269V82.75V54.75H1250.75V82.75ZM1269 82.75H1241V101H1269H1297V82.75H1269ZM1269 101V73H1250.75V101V129H1269V101ZM1250.75 101H1222.75V155.75H1250.75H1278.75V101H1250.75ZM1250.75 155.75V127.75H1214.25V155.75V183.75H1250.75V155.75ZM1214.25 155.75H1242.25V64.5H1214.25H1186.25V155.75H1214.25ZM1214.25 64.5V92.5H1250.75V64.5V36.5H1214.25V64.5ZM1250.75 64.5H1222.75V82.75H1250.75H1278.75V64.5H1250.75ZM1323.75 64.5H1295.75V82.75H1323.75H1351.75V64.5H1323.75ZM1323.75 82.75V54.75H1269V82.75V110.75H1323.75V82.75ZM1269 82.75H1297V64.5H1269H1241V82.75H1269ZM1269 64.5V92.5H1323.75V64.5V36.5H1269V64.5Z" fill="black" mask="url(#path-1-outside-1_93_187053)"/>
</svg>
