<svg width="2139" height="179" viewBox="0 0 2139 179" fill="none" xmlns="http://www.w3.org/2000/svg">
<mask id="path-1-outside-1_93_189878" maskUnits="userSpaceOnUse" x="-0.5" y="0" width="2139" height="179" fill="black">
<rect fill="white" x="-0.5" width="2139" height="179"/>
<path d="M45.5 150.5V133H28V115.5H63V133H115.5V28H150.5V133H133V150.5H45.5ZM185.5 150.5V133H168V80.5H185.5V63H273V80.5H290.5V133H273V150.5H185.5ZM203 133H255.5V80.5H203V133ZM360.5 80.5H378V98H360.5V150.5H325.5V63H360.5V80.5ZM430.5 63V80.5H378V63H430.5ZM448 150.5V63H553V80.5H570.5V150.5H535.5V80.5H483V150.5H448ZM605.5 150.5V133H588V115.5H605.5V98H675.5V80.5H605.5V63H693V80.5H710.5V150.5H605.5ZM623 133H675.5V115.5H623V133ZM745.5 150.5V133H728V80.5H745.5V63H815.5V28H850.5V150.5H745.5ZM763 133H815.5V80.5H763V133ZM885.5 150.5V133H868V115.5H885.5V98H955.5V80.5H885.5V63H973V80.5H990.5V150.5H885.5ZM903 133H955.5V115.5H903V133ZM1165.5 150.5V133H1200.5V45.5H1183V28H1235.5V133H1270.5V150.5H1165.5ZM1305.5 150.5V133H1288V115.5H1305.5V98H1375.5V80.5H1305.5V63H1393V80.5H1410.5V150.5H1305.5ZM1323 133H1375.5V115.5H1323V133ZM1445.5 150.5V133H1428V28H1463V63H1533V80.5H1550.5V133H1533V150.5H1445.5ZM1463 133H1515.5V80.5H1463V133ZM1585.5 150.5V133H1568V80.5H1585.5V63H1673V80.5H1690.5V133H1673V150.5H1585.5ZM1603 133H1655.5V80.5H1603V133ZM1760.5 80.5H1778V98H1760.5V150.5H1725.5V63H1760.5V80.5ZM1830.5 63V80.5H1778V63H1830.5ZM1865.5 150.5V133H1848V115.5H1865.5V98H1935.5V80.5H1865.5V63H1953V80.5H1970.5V150.5H1865.5ZM1883 133H1935.5V115.5H1883V133ZM2005.5 150.5V133H2040.5V45.5H2023V28H2075.5V133H2110.5V150.5H2005.5Z"/>
</mask>
<path d="M45.5 150.5V133H28V115.5H63V133H115.5V28H150.5V133H133V150.5H45.5ZM185.5 150.5V133H168V80.5H185.5V63H273V80.5H290.5V133H273V150.5H185.5ZM203 133H255.5V80.5H203V133ZM360.5 80.5H378V98H360.5V150.5H325.5V63H360.5V80.5ZM430.5 63V80.5H378V63H430.5ZM448 150.5V63H553V80.5H570.5V150.5H535.5V80.5H483V150.5H448ZM605.5 150.5V133H588V115.5H605.5V98H675.5V80.5H605.5V63H693V80.5H710.5V150.5H605.5ZM623 133H675.5V115.5H623V133ZM745.5 150.5V133H728V80.5H745.5V63H815.5V28H850.5V150.5H745.5ZM763 133H815.5V80.5H763V133ZM885.5 150.5V133H868V115.5H885.5V98H955.5V80.5H885.5V63H973V80.5H990.5V150.5H885.5ZM903 133H955.5V115.5H903V133ZM1165.5 150.5V133H1200.5V45.5H1183V28H1235.5V133H1270.5V150.5H1165.5ZM1305.5 150.5V133H1288V115.5H1305.5V98H1375.5V80.5H1305.5V63H1393V80.5H1410.5V150.5H1305.5ZM1323 133H1375.5V115.5H1323V133ZM1445.5 150.5V133H1428V28H1463V63H1533V80.5H1550.5V133H1533V150.5H1445.5ZM1463 133H1515.5V80.5H1463V133ZM1585.5 150.5V133H1568V80.5H1585.5V63H1673V80.5H1690.5V133H1673V150.5H1585.5ZM1603 133H1655.5V80.5H1603V133ZM1760.5 80.5H1778V98H1760.5V150.5H1725.5V63H1760.5V80.5ZM1830.5 63V80.5H1778V63H1830.5ZM1865.5 150.5V133H1848V115.5H1865.5V98H1935.5V80.5H1865.5V63H1953V80.5H1970.5V150.5H1865.5ZM1883 133H1935.5V115.5H1883V133ZM2005.5 150.5V133H2040.5V45.5H2023V28H2075.5V133H2110.5V150.5H2005.5Z" fill="white"/>
<path d="M45.5 150.5H17.5V178.5H45.5V150.5ZM45.5 133H73.5V105H45.5V133ZM28 133H0V161H28V133ZM28 115.5V87.5H0V115.5H28ZM63 115.5H91V87.5H63V115.5ZM63 133H35V161H63V133ZM115.5 133V161H143.5V133H115.5ZM115.5 28V0H87.5V28H115.5ZM150.5 28H178.5V0H150.5V28ZM150.5 133V161H178.5V133H150.5ZM133 133V105H105V133H133ZM133 150.5V178.5H161V150.5H133ZM45.5 150.5H73.5V133H45.5H17.5V150.5H45.5ZM45.5 133V105H28V133V161H45.5V133ZM28 133H56V115.5H28H0V133H28ZM28 115.5V143.5H63V115.5V87.5H28V115.5ZM63 115.5H35V133H63H91V115.5H63ZM63 133V161H115.5V133V105H63V133ZM115.5 133H143.5V28H115.5H87.5V133H115.5ZM115.5 28V56H150.5V28V0H115.5V28ZM150.5 28H122.5V133H150.5H178.5V28H150.5ZM150.5 133V105H133V133V161H150.5V133ZM133 133H105V150.5H133H161V133H133ZM133 150.5V122.5H45.5V150.5V178.5H133V150.5ZM185.5 150.5H157.5V178.5H185.5V150.5ZM185.5 133H213.5V105H185.5V133ZM168 133H140V161H168V133ZM168 80.5V52.5H140V80.5H168ZM185.5 80.5V108.5H213.5V80.5H185.5ZM185.5 63V35H157.5V63H185.5ZM273 63H301V35H273V63ZM273 80.5H245V108.5H273V80.5ZM290.5 80.5H318.5V52.5H290.5V80.5ZM290.5 133V161H318.5V133H290.5ZM273 133V105H245V133H273ZM273 150.5V178.5H301V150.5H273ZM203 133H175V161H203V133ZM255.5 133V161H283.5V133H255.5ZM255.5 80.5H283.5V52.5H255.5V80.5ZM203 80.5V52.5H175V80.5H203ZM185.5 150.5H213.5V133H185.5H157.5V150.5H185.5ZM185.5 133V105H168V133V161H185.5V133ZM168 133H196V80.5H168H140V133H168ZM168 80.5V108.5H185.5V80.5V52.5H168V80.5ZM185.5 80.5H213.5V63H185.5H157.5V80.5H185.5ZM185.5 63V91H273V63V35H185.5V63ZM273 63H245V80.5H273H301V63H273ZM273 80.5V108.5H290.5V80.5V52.5H273V80.5ZM290.5 80.5H262.5V133H290.5H318.5V80.5H290.5ZM290.5 133V105H273V133V161H290.5V133ZM273 133H245V150.5H273H301V133H273ZM273 150.5V122.5H185.5V150.5V178.5H273V150.5ZM203 133V161H255.5V133V105H203V133ZM255.5 133H283.5V80.5H255.5H227.5V133H255.5ZM255.5 80.5V52.5H203V80.5V108.5H255.5V80.5ZM203 80.5H175V133H203H231V80.5H203ZM360.5 80.5H332.5V108.5H360.5V80.5ZM378 80.5H406V52.5H378V80.5ZM378 98V126H406V98H378ZM360.5 98V70H332.5V98H360.5ZM360.5 150.5V178.5H388.5V150.5H360.5ZM325.5 150.5H297.5V178.5H325.5V150.5ZM325.5 63V35H297.5V63H325.5ZM360.5 63H388.5V35H360.5V63ZM430.5 63H458.5V35H430.5V63ZM430.5 80.5V108.5H458.5V80.5H430.5ZM378 80.5H350V108.5H378V80.5ZM378 63V35H350V63H378ZM360.5 80.5V108.5H378V80.5V52.5H360.5V80.5ZM378 80.5H350V98H378H406V80.5H378ZM378 98V70H360.5V98V126H378V98ZM360.5 98H332.5V150.5H360.5H388.5V98H360.5ZM360.5 150.5V122.5H325.5V150.5V178.5H360.5V150.5ZM325.5 150.5H353.5V63H325.5H297.5V150.5H325.5ZM325.5 63V91H360.5V63V35H325.5V63ZM360.5 63H332.5V80.5H360.5H388.5V63H360.5ZM430.5 63H402.5V80.5H430.5H458.5V63H430.5ZM430.5 80.5V52.5H378V80.5V108.5H430.5V80.5ZM378 80.5H406V63H378H350V80.5H378ZM378 63V91H430.5V63V35H378V63ZM448 150.5H420V178.5H448V150.5ZM448 63V35H420V63H448ZM553 63H581V35H553V63ZM553 80.5H525V108.5H553V80.5ZM570.5 80.5H598.5V52.5H570.5V80.5ZM570.5 150.5V178.5H598.5V150.5H570.5ZM535.5 150.5H507.5V178.5H535.5V150.5ZM535.5 80.5H563.5V52.5H535.5V80.5ZM483 80.5V52.5H455V80.5H483ZM483 150.5V178.5H511V150.5H483ZM448 150.5H476V63H448H420V150.5H448ZM448 63V91H553V63V35H448V63ZM553 63H525V80.5H553H581V63H553ZM553 80.5V108.5H570.5V80.5V52.5H553V80.5ZM570.5 80.5H542.5V150.5H570.5H598.5V80.5H570.5ZM570.5 150.5V122.5H535.5V150.5V178.5H570.5V150.5ZM535.5 150.5H563.5V80.5H535.5H507.5V150.5H535.5ZM535.5 80.5V52.5H483V80.5V108.5H535.5V80.5ZM483 80.5H455V150.5H483H511V80.5H483ZM483 150.5V122.5H448V150.5V178.5H483V150.5ZM605.5 150.5H577.5V178.5H605.5V150.5ZM605.5 133H633.5V105H605.5V133ZM588 133H560V161H588V133ZM588 115.5V87.5H560V115.5H588ZM605.5 115.5V143.5H633.5V115.5H605.5ZM605.5 98V70H577.5V98H605.5ZM675.5 98V126H703.5V98H675.5ZM675.5 80.5H703.5V52.5H675.5V80.5ZM605.5 80.5H577.5V108.5H605.5V80.5ZM605.5 63V35H577.5V63H605.5ZM693 63H721V35H693V63ZM693 80.5H665V108.5H693V80.5ZM710.5 80.5H738.5V52.5H710.5V80.5ZM710.5 150.5V178.5H738.5V150.5H710.5ZM623 133H595V161H623V133ZM675.5 133V161H703.5V133H675.5ZM675.5 115.5H703.5V87.5H675.5V115.5ZM623 115.5V87.5H595V115.5H623ZM605.5 150.5H633.5V133H605.5H577.5V150.5H605.5ZM605.5 133V105H588V133V161H605.5V133ZM588 133H616V115.5H588H560V133H588ZM588 115.5V143.5H605.5V115.5V87.5H588V115.5ZM605.5 115.5H633.5V98H605.5H577.5V115.5H605.5ZM605.5 98V126H675.5V98V70H605.5V98ZM675.5 98H703.5V80.5H675.5H647.5V98H675.5ZM675.5 80.5V52.5H605.5V80.5V108.5H675.5V80.5ZM605.5 80.5H633.5V63H605.5H577.5V80.5H605.5ZM605.5 63V91H693V63V35H605.5V63ZM693 63H665V80.5H693H721V63H693ZM693 80.5V108.5H710.5V80.5V52.5H693V80.5ZM710.5 80.5H682.5V150.5H710.5H738.5V80.5H710.5ZM710.5 150.5V122.5H605.5V150.5V178.5H710.5V150.5ZM623 133V161H675.5V133V105H623V133ZM675.5 133H703.5V115.5H675.5H647.5V133H675.5ZM675.5 115.5V87.5H623V115.5V143.5H675.5V115.5ZM623 115.5H595V133H623H651V115.5H623ZM745.5 150.5H717.5V178.5H745.5V150.5ZM745.5 133H773.5V105H745.5V133ZM728 133H700V161H728V133ZM728 80.5V52.5H700V80.5H728ZM745.5 80.5V108.5H773.5V80.5H745.5ZM745.5 63V35H717.5V63H745.5ZM815.5 63V91H843.5V63H815.5ZM815.5 28V0H787.5V28H815.5ZM850.5 28H878.5V0H850.5V28ZM850.5 150.5V178.5H878.5V150.5H850.5ZM763 133H735V161H763V133ZM815.5 133V161H843.5V133H815.5ZM815.5 80.5H843.5V52.5H815.5V80.5ZM763 80.5V52.5H735V80.5H763ZM745.5 150.5H773.5V133H745.5H717.5V150.5H745.5ZM745.5 133V105H728V133V161H745.5V133ZM728 133H756V80.5H728H700V133H728ZM728 80.5V108.5H745.5V80.5V52.5H728V80.5ZM745.5 80.5H773.5V63H745.5H717.5V80.5H745.5ZM745.5 63V91H815.5V63V35H745.5V63ZM815.5 63H843.5V28H815.5H787.5V63H815.5ZM815.5 28V56H850.5V28V0H815.5V28ZM850.5 28H822.5V150.5H850.5H878.5V28H850.5ZM850.5 150.5V122.5H745.5V150.5V178.5H850.5V150.5ZM763 133V161H815.5V133V105H763V133ZM815.5 133H843.5V80.5H815.5H787.5V133H815.5ZM815.5 80.5V52.5H763V80.5V108.5H815.5V80.5ZM763 80.5H735V133H763H791V80.5H763ZM885.5 150.5H857.5V178.5H885.5V150.5ZM885.5 133H913.5V105H885.5V133ZM868 133H840V161H868V133ZM868 115.5V87.5H840V115.5H868ZM885.5 115.5V143.5H913.5V115.5H885.5ZM885.5 98V70H857.5V98H885.5ZM955.5 98V126H983.5V98H955.5ZM955.5 80.5H983.5V52.5H955.5V80.5ZM885.5 80.5H857.5V108.5H885.5V80.5ZM885.5 63V35H857.5V63H885.5ZM973 63H1001V35H973V63ZM973 80.5H945V108.5H973V80.5ZM990.5 80.5H1018.5V52.5H990.5V80.5ZM990.5 150.5V178.5H1018.5V150.5H990.5ZM903 133H875V161H903V133ZM955.5 133V161H983.5V133H955.5ZM955.5 115.5H983.5V87.5H955.5V115.5ZM903 115.5V87.5H875V115.5H903ZM885.5 150.5H913.5V133H885.5H857.5V150.5H885.5ZM885.5 133V105H868V133V161H885.5V133ZM868 133H896V115.5H868H840V133H868ZM868 115.5V143.5H885.5V115.5V87.5H868V115.5ZM885.5 115.5H913.5V98H885.5H857.5V115.5H885.5ZM885.5 98V126H955.5V98V70H885.5V98ZM955.5 98H983.5V80.5H955.5H927.5V98H955.5ZM955.5 80.5V52.5H885.5V80.5V108.5H955.5V80.5ZM885.5 80.5H913.5V63H885.5H857.5V80.5H885.5ZM885.5 63V91H973V63V35H885.5V63ZM973 63H945V80.5H973H1001V63H973ZM973 80.5V108.5H990.5V80.5V52.5H973V80.5ZM990.5 80.5H962.5V150.5H990.5H1018.5V80.5H990.5ZM990.5 150.5V122.5H885.5V150.5V178.5H990.5V150.5ZM903 133V161H955.5V133V105H903V133ZM955.5 133H983.5V115.5H955.5H927.5V133H955.5ZM955.5 115.5V87.5H903V115.5V143.5H955.5V115.5ZM903 115.5H875V133H903H931V115.5H903ZM1165.5 150.5H1137.5V178.5H1165.5V150.5ZM1165.5 133V105H1137.5V133H1165.5ZM1200.5 133V161H1228.5V133H1200.5ZM1200.5 45.5H1228.5V17.5H1200.5V45.5ZM1183 45.5H1155V73.5H1183V45.5ZM1183 28V0H1155V28H1183ZM1235.5 28H1263.5V0H1235.5V28ZM1235.5 133H1207.5V161H1235.5V133ZM1270.5 133H1298.5V105H1270.5V133ZM1270.5 150.5V178.5H1298.5V150.5H1270.5ZM1165.5 150.5H1193.5V133H1165.5H1137.5V150.5H1165.5ZM1165.5 133V161H1200.5V133V105H1165.5V133ZM1200.5 133H1228.5V45.5H1200.5H1172.5V133H1200.5ZM1200.5 45.5V17.5H1183V45.5V73.5H1200.5V45.5ZM1183 45.5H1211V28H1183H1155V45.5H1183ZM1183 28V56H1235.5V28V0H1183V28ZM1235.5 28H1207.5V133H1235.5H1263.5V28H1235.5ZM1235.5 133V161H1270.5V133V105H1235.5V133ZM1270.5 133H1242.5V150.5H1270.5H1298.5V133H1270.5ZM1270.5 150.5V122.5H1165.5V150.5V178.5H1270.5V150.5ZM1305.5 150.5H1277.5V178.5H1305.5V150.5ZM1305.5 133H1333.5V105H1305.5V133ZM1288 133H1260V161H1288V133ZM1288 115.5V87.5H1260V115.5H1288ZM1305.5 115.5V143.5H1333.5V115.5H1305.5ZM1305.5 98V70H1277.5V98H1305.5ZM1375.5 98V126H1403.5V98H1375.5ZM1375.5 80.5H1403.5V52.5H1375.5V80.5ZM1305.5 80.5H1277.5V108.5H1305.5V80.5ZM1305.5 63V35H1277.5V63H1305.5ZM1393 63H1421V35H1393V63ZM1393 80.5H1365V108.5H1393V80.5ZM1410.5 80.5H1438.5V52.5H1410.5V80.5ZM1410.5 150.5V178.5H1438.5V150.5H1410.5ZM1323 133H1295V161H1323V133ZM1375.5 133V161H1403.5V133H1375.5ZM1375.5 115.5H1403.5V87.5H1375.5V115.5ZM1323 115.5V87.5H1295V115.5H1323ZM1305.5 150.5H1333.5V133H1305.5H1277.5V150.5H1305.5ZM1305.5 133V105H1288V133V161H1305.5V133ZM1288 133H1316V115.5H1288H1260V133H1288ZM1288 115.5V143.5H1305.5V115.5V87.5H1288V115.5ZM1305.5 115.5H1333.5V98H1305.5H1277.5V115.5H1305.5ZM1305.5 98V126H1375.5V98V70H1305.5V98ZM1375.5 98H1403.5V80.5H1375.5H1347.5V98H1375.5ZM1375.5 80.5V52.5H1305.5V80.5V108.5H1375.5V80.5ZM1305.5 80.5H1333.5V63H1305.5H1277.5V80.5H1305.5ZM1305.5 63V91H1393V63V35H1305.5V63ZM1393 63H1365V80.5H1393H1421V63H1393ZM1393 80.5V108.5H1410.5V80.5V52.5H1393V80.5ZM1410.5 80.5H1382.5V150.5H1410.5H1438.5V80.5H1410.5ZM1410.5 150.5V122.5H1305.5V150.5V178.5H1410.5V150.5ZM1323 133V161H1375.5V133V105H1323V133ZM1375.5 133H1403.5V115.5H1375.5H1347.5V133H1375.5ZM1375.5 115.5V87.5H1323V115.5V143.5H1375.5V115.5ZM1323 115.5H1295V133H1323H1351V115.5H1323ZM1445.5 150.5H1417.5V178.5H1445.5V150.5ZM1445.5 133H1473.5V105H1445.5V133ZM1428 133H1400V161H1428V133ZM1428 28V0H1400V28H1428ZM1463 28H1491V0H1463V28ZM1463 63H1435V91H1463V63ZM1533 63H1561V35H1533V63ZM1533 80.5H1505V108.5H1533V80.5ZM1550.5 80.5H1578.5V52.5H1550.5V80.5ZM1550.5 133V161H1578.5V133H1550.5ZM1533 133V105H1505V133H1533ZM1533 150.5V178.5H1561V150.5H1533ZM1463 133H1435V161H1463V133ZM1515.5 133V161H1543.5V133H1515.5ZM1515.5 80.5H1543.5V52.5H1515.5V80.5ZM1463 80.5V52.5H1435V80.5H1463ZM1445.5 150.5H1473.5V133H1445.5H1417.5V150.5H1445.5ZM1445.5 133V105H1428V133V161H1445.5V133ZM1428 133H1456V28H1428H1400V133H1428ZM1428 28V56H1463V28V0H1428V28ZM1463 28H1435V63H1463H1491V28H1463ZM1463 63V91H1533V63V35H1463V63ZM1533 63H1505V80.5H1533H1561V63H1533ZM1533 80.5V108.5H1550.5V80.5V52.5H1533V80.5ZM1550.5 80.5H1522.5V133H1550.5H1578.5V80.5H1550.5ZM1550.5 133V105H1533V133V161H1550.5V133ZM1533 133H1505V150.5H1533H1561V133H1533ZM1533 150.5V122.5H1445.5V150.5V178.5H1533V150.5ZM1463 133V161H1515.5V133V105H1463V133ZM1515.5 133H1543.5V80.5H1515.5H1487.5V133H1515.5ZM1515.5 80.5V52.5H1463V80.5V108.5H1515.5V80.5ZM1463 80.5H1435V133H1463H1491V80.5H1463ZM1585.5 150.5H1557.5V178.5H1585.5V150.5ZM1585.5 133H1613.5V105H1585.5V133ZM1568 133H1540V161H1568V133ZM1568 80.5V52.5H1540V80.5H1568ZM1585.5 80.5V108.5H1613.5V80.5H1585.5ZM1585.5 63V35H1557.5V63H1585.5ZM1673 63H1701V35H1673V63ZM1673 80.5H1645V108.5H1673V80.5ZM1690.5 80.5H1718.5V52.5H1690.5V80.5ZM1690.5 133V161H1718.5V133H1690.5ZM1673 133V105H1645V133H1673ZM1673 150.5V178.5H1701V150.5H1673ZM1603 133H1575V161H1603V133ZM1655.5 133V161H1683.5V133H1655.5ZM1655.5 80.5H1683.5V52.5H1655.5V80.5ZM1603 80.5V52.5H1575V80.5H1603ZM1585.5 150.5H1613.5V133H1585.5H1557.5V150.5H1585.5ZM1585.5 133V105H1568V133V161H1585.5V133ZM1568 133H1596V80.5H1568H1540V133H1568ZM1568 80.5V108.5H1585.5V80.5V52.5H1568V80.5ZM1585.5 80.5H1613.5V63H1585.5H1557.5V80.5H1585.5ZM1585.5 63V91H1673V63V35H1585.5V63ZM1673 63H1645V80.5H1673H1701V63H1673ZM1673 80.5V108.5H1690.5V80.5V52.5H1673V80.5ZM1690.5 80.5H1662.5V133H1690.5H1718.5V80.5H1690.5ZM1690.5 133V105H1673V133V161H1690.5V133ZM1673 133H1645V150.5H1673H1701V133H1673ZM1673 150.5V122.5H1585.5V150.5V178.5H1673V150.5ZM1603 133V161H1655.5V133V105H1603V133ZM1655.5 133H1683.5V80.5H1655.5H1627.5V133H1655.5ZM1655.5 80.5V52.5H1603V80.5V108.5H1655.5V80.5ZM1603 80.5H1575V133H1603H1631V80.5H1603ZM1760.5 80.5H1732.5V108.5H1760.5V80.5ZM1778 80.5H1806V52.5H1778V80.5ZM1778 98V126H1806V98H1778ZM1760.5 98V70H1732.5V98H1760.5ZM1760.5 150.5V178.5H1788.5V150.5H1760.5ZM1725.5 150.5H1697.5V178.5H1725.5V150.5ZM1725.5 63V35H1697.5V63H1725.5ZM1760.5 63H1788.5V35H1760.5V63ZM1830.5 63H1858.5V35H1830.5V63ZM1830.5 80.5V108.5H1858.5V80.5H1830.5ZM1778 80.5H1750V108.5H1778V80.5ZM1778 63V35H1750V63H1778ZM1760.5 80.5V108.5H1778V80.5V52.5H1760.5V80.5ZM1778 80.5H1750V98H1778H1806V80.5H1778ZM1778 98V70H1760.5V98V126H1778V98ZM1760.5 98H1732.5V150.5H1760.5H1788.5V98H1760.5ZM1760.5 150.5V122.5H1725.5V150.5V178.5H1760.5V150.5ZM1725.5 150.5H1753.5V63H1725.5H1697.5V150.5H1725.5ZM1725.5 63V91H1760.5V63V35H1725.5V63ZM1760.5 63H1732.5V80.5H1760.5H1788.5V63H1760.5ZM1830.5 63H1802.5V80.5H1830.5H1858.5V63H1830.5ZM1830.5 80.5V52.5H1778V80.5V108.5H1830.5V80.5ZM1778 80.5H1806V63H1778H1750V80.5H1778ZM1778 63V91H1830.5V63V35H1778V63ZM1865.5 150.5H1837.5V178.5H1865.5V150.5ZM1865.5 133H1893.5V105H1865.5V133ZM1848 133H1820V161H1848V133ZM1848 115.5V87.5H1820V115.5H1848ZM1865.5 115.5V143.5H1893.5V115.5H1865.5ZM1865.5 98V70H1837.5V98H1865.5ZM1935.5 98V126H1963.5V98H1935.5ZM1935.5 80.5H1963.5V52.5H1935.5V80.5ZM1865.5 80.5H1837.5V108.5H1865.5V80.5ZM1865.5 63V35H1837.5V63H1865.5ZM1953 63H1981V35H1953V63ZM1953 80.5H1925V108.5H1953V80.5ZM1970.5 80.5H1998.5V52.5H1970.5V80.5ZM1970.5 150.5V178.5H1998.5V150.5H1970.5ZM1883 133H1855V161H1883V133ZM1935.5 133V161H1963.5V133H1935.5ZM1935.5 115.5H1963.5V87.5H1935.5V115.5ZM1883 115.5V87.5H1855V115.5H1883ZM1865.5 150.5H1893.5V133H1865.5H1837.5V150.5H1865.5ZM1865.5 133V105H1848V133V161H1865.5V133ZM1848 133H1876V115.5H1848H1820V133H1848ZM1848 115.5V143.5H1865.5V115.5V87.5H1848V115.5ZM1865.5 115.5H1893.5V98H1865.5H1837.5V115.5H1865.5ZM1865.5 98V126H1935.5V98V70H1865.5V98ZM1935.5 98H1963.5V80.5H1935.5H1907.5V98H1935.5ZM1935.5 80.5V52.5H1865.5V80.5V108.5H1935.5V80.5ZM1865.5 80.5H1893.5V63H1865.5H1837.5V80.5H1865.5ZM1865.5 63V91H1953V63V35H1865.5V63ZM1953 63H1925V80.5H1953H1981V63H1953ZM1953 80.5V108.5H1970.5V80.5V52.5H1953V80.5ZM1970.5 80.5H1942.5V150.5H1970.5H1998.5V80.5H1970.5ZM1970.5 150.5V122.5H1865.5V150.5V178.5H1970.5V150.5ZM1883 133V161H1935.5V133V105H1883V133ZM1935.5 133H1963.5V115.5H1935.5H1907.5V133H1935.5ZM1935.5 115.5V87.5H1883V115.5V143.5H1935.5V115.5ZM1883 115.5H1855V133H1883H1911V115.5H1883ZM2005.5 150.5H1977.5V178.5H2005.5V150.5ZM2005.5 133V105H1977.5V133H2005.5ZM2040.5 133V161H2068.5V133H2040.5ZM2040.5 45.5H2068.5V17.5H2040.5V45.5ZM2023 45.5H1995V73.5H2023V45.5ZM2023 28V0H1995V28H2023ZM2075.5 28H2103.5V0H2075.5V28ZM2075.5 133H2047.5V161H2075.5V133ZM2110.5 133H2138.5V105H2110.5V133ZM2110.5 150.5V178.5H2138.5V150.5H2110.5ZM2005.5 150.5H2033.5V133H2005.5H1977.5V150.5H2005.5ZM2005.5 133V161H2040.5V133V105H2005.5V133ZM2040.5 133H2068.5V45.5H2040.5H2012.5V133H2040.5ZM2040.5 45.5V17.5H2023V45.5V73.5H2040.5V45.5ZM2023 45.5H2051V28H2023H1995V45.5H2023ZM2023 28V56H2075.5V28V0H2023V28ZM2075.5 28H2047.5V133H2075.5H2103.5V28H2075.5ZM2075.5 133V161H2110.5V133V105H2075.5V133ZM2110.5 133H2082.5V150.5H2110.5H2138.5V133H2110.5ZM2110.5 150.5V122.5H2005.5V150.5V178.5H2110.5V150.5Z" fill="black" mask="url(#path-1-outside-1_93_189878)"/>
</svg>
