<svg width="1863" height="202" viewBox="0 0 1863 202" fill="none" xmlns="http://www.w3.org/2000/svg">
<mask id="path-1-outside-1_73_160380" maskUnits="userSpaceOnUse" x="0" y="0" width="1863" height="202" fill="black">
<rect fill="white" width="1863" height="202"/>
<path d="M46.25 46.25V28H82.75V46.25H46.25ZM28 155.75V101H46.25V64.5H82.75V155.75H28ZM155.75 155.75V28H192.25V137.5H265.25V155.75H155.75ZM301.75 155.75V137.5H283.5V82.75H301.75V64.5H393V82.75H411.25V137.5H393V155.75H301.75ZM320 137.5H374.75V82.75H320V137.5ZM593.75 155.75V137.5H630.25V46.25H612V28H666.75V137.5H703.25V155.75H593.75ZM739.75 155.75V137.5H721.5V82.75H739.75V64.5H831V82.75H849.25V137.5H831V155.75H739.75ZM758 137.5H812.75V82.75H758V137.5ZM885.75 174V155.75H958.75V137.5H885.75V119.25H867.5V82.75H885.75V64.5H995.25V155.75H977V174H885.75ZM904 119.25H958.75V82.75H904V119.25ZM1068.25 82.75H1086.5V101H1068.25V155.75H1031.75V64.5H1068.25V82.75ZM1141.25 64.5V82.75H1086.5V64.5H1141.25ZM1177.75 155.75V137.5H1159.5V119.25H1177.75V101H1250.75V82.75H1177.75V64.5H1269V82.75H1287.25V155.75H1177.75ZM1196 137.5H1250.75V119.25H1196V137.5ZM1305.5 155.75V137.5H1396.75V119.25H1323.75V101H1305.5V82.75H1323.75V64.5H1415V82.75H1342V101H1415V119.25H1433.25V137.5H1415V155.75H1305.5ZM1506.25 155.75V82.75H1469.75V64.5H1506.25V28H1542.75V64.5H1579.25V82.75H1542.75V155.75H1506.25ZM1615.75 155.75V137.5H1597.5V82.75H1615.75V64.5H1707V82.75H1725.25V119.25H1634V137.5H1707V155.75H1615.75ZM1634 101H1688.75V82.75H1634V101ZM1780 119.25V28H1834.75V82.75H1816.5V119.25H1780ZM1780 155.75V137.5H1816.5V155.75H1780Z"/>
</mask>
<path d="M46.25 46.25V28H82.75V46.25H46.25ZM28 155.75V101H46.25V64.5H82.75V155.75H28ZM155.75 155.75V28H192.25V137.5H265.25V155.75H155.75ZM301.75 155.75V137.5H283.5V82.75H301.75V64.5H393V82.75H411.25V137.5H393V155.75H301.75ZM320 137.5H374.75V82.75H320V137.5ZM593.75 155.75V137.5H630.25V46.25H612V28H666.75V137.5H703.25V155.75H593.75ZM739.75 155.75V137.5H721.5V82.75H739.75V64.5H831V82.75H849.25V137.5H831V155.75H739.75ZM758 137.5H812.75V82.75H758V137.5ZM885.75 174V155.75H958.75V137.5H885.75V119.25H867.5V82.75H885.75V64.5H995.25V155.75H977V174H885.75ZM904 119.25H958.75V82.75H904V119.25ZM1068.25 82.75H1086.5V101H1068.25V155.75H1031.75V64.5H1068.25V82.75ZM1141.25 64.5V82.75H1086.5V64.5H1141.25ZM1177.75 155.75V137.5H1159.5V119.25H1177.75V101H1250.75V82.75H1177.75V64.5H1269V82.75H1287.25V155.75H1177.75ZM1196 137.5H1250.75V119.25H1196V137.5ZM1305.5 155.75V137.5H1396.75V119.25H1323.75V101H1305.5V82.75H1323.75V64.5H1415V82.75H1342V101H1415V119.25H1433.25V137.5H1415V155.75H1305.5ZM1506.25 155.75V82.75H1469.75V64.5H1506.25V28H1542.75V64.5H1579.25V82.75H1542.75V155.75H1506.25ZM1615.75 155.75V137.5H1597.5V82.75H1615.75V64.5H1707V82.75H1725.25V119.25H1634V137.5H1707V155.75H1615.75ZM1634 101H1688.75V82.75H1634V101ZM1780 119.25V28H1834.75V82.75H1816.5V119.25H1780ZM1780 155.75V137.5H1816.5V155.75H1780Z" fill="white"/>
<path d="M46.25 46.25H18.25V74.25H46.25V46.25ZM46.25 28V0H18.25V28H46.25ZM82.75 28H110.75V0H82.75V28ZM82.75 46.25V74.25H110.75V46.25H82.75ZM28 155.75H0V183.75H28V155.75ZM28 101V73H0V101H28ZM46.25 101V129H74.25V101H46.25ZM46.25 64.5V36.5H18.25V64.5H46.25ZM82.75 64.5H110.75V36.5H82.75V64.5ZM82.75 155.75V183.75H110.75V155.75H82.75ZM46.25 46.25H74.25V28H46.25H18.25V46.25H46.25ZM46.25 28V56H82.75V28V0H46.25V28ZM82.75 28H54.75V46.25H82.75H110.75V28H82.75ZM82.75 46.25V18.25H46.25V46.25V74.25H82.75V46.25ZM28 155.75H56V101H28H0V155.75H28ZM28 101V129H46.25V101V73H28V101ZM46.25 101H74.25V64.5H46.25H18.25V101H46.25ZM46.25 64.5V92.5H82.75V64.5V36.5H46.25V64.5ZM82.75 64.5H54.75V155.75H82.75H110.75V64.5H82.75ZM82.75 155.75V127.75H28V155.75V183.75H82.75V155.75ZM155.75 155.75H127.75V183.75H155.75V155.75ZM155.75 28V0H127.75V28H155.75ZM192.25 28H220.25V0H192.25V28ZM192.25 137.5H164.25V165.5H192.25V137.5ZM265.25 137.5H293.25V109.5H265.25V137.5ZM265.25 155.75V183.75H293.25V155.75H265.25ZM155.75 155.75H183.75V28H155.75H127.75V155.75H155.75ZM155.75 28V56H192.25V28V0H155.75V28ZM192.25 28H164.25V137.5H192.25H220.25V28H192.25ZM192.25 137.5V165.5H265.25V137.5V109.5H192.25V137.5ZM265.25 137.5H237.25V155.75H265.25H293.25V137.5H265.25ZM265.25 155.75V127.75H155.75V155.75V183.75H265.25V155.75ZM301.75 155.75H273.75V183.75H301.75V155.75ZM301.75 137.5H329.75V109.5H301.75V137.5ZM283.5 137.5H255.5V165.5H283.5V137.5ZM283.5 82.75V54.75H255.5V82.75H283.5ZM301.75 82.75V110.75H329.75V82.75H301.75ZM301.75 64.5V36.5H273.75V64.5H301.75ZM393 64.5H421V36.5H393V64.5ZM393 82.75H365V110.75H393V82.75ZM411.25 82.75H439.25V54.75H411.25V82.75ZM411.25 137.5V165.5H439.25V137.5H411.25ZM393 137.5V109.5H365V137.5H393ZM393 155.75V183.75H421V155.75H393ZM320 137.5H292V165.5H320V137.5ZM374.75 137.5V165.5H402.75V137.5H374.75ZM374.75 82.75H402.75V54.75H374.75V82.75ZM320 82.75V54.75H292V82.75H320ZM301.75 155.75H329.75V137.5H301.75H273.75V155.75H301.75ZM301.75 137.5V109.5H283.5V137.5V165.5H301.75V137.5ZM283.5 137.5H311.5V82.75H283.5H255.5V137.5H283.5ZM283.5 82.75V110.75H301.75V82.75V54.75H283.5V82.75ZM301.75 82.75H329.75V64.5H301.75H273.75V82.75H301.75ZM301.75 64.5V92.5H393V64.5V36.5H301.75V64.5ZM393 64.5H365V82.75H393H421V64.5H393ZM393 82.75V110.75H411.25V82.75V54.75H393V82.75ZM411.25 82.75H383.25V137.5H411.25H439.25V82.75H411.25ZM411.25 137.5V109.5H393V137.5V165.5H411.25V137.5ZM393 137.5H365V155.75H393H421V137.5H393ZM393 155.75V127.75H301.75V155.75V183.75H393V155.75ZM320 137.5V165.5H374.75V137.5V109.5H320V137.5ZM374.75 137.5H402.75V82.75H374.75H346.75V137.5H374.75ZM374.75 82.75V54.75H320V82.75V110.75H374.75V82.75ZM320 82.75H292V137.5H320H348V82.75H320ZM593.75 155.75H565.75V183.75H593.75V155.75ZM593.75 137.5V109.5H565.75V137.5H593.75ZM630.25 137.5V165.5H658.25V137.5H630.25ZM630.25 46.25H658.25V18.25H630.25V46.25ZM612 46.25H584V74.25H612V46.25ZM612 28V0H584V28H612ZM666.75 28H694.75V0H666.75V28ZM666.75 137.5H638.75V165.5H666.75V137.5ZM703.25 137.5H731.25V109.5H703.25V137.5ZM703.25 155.75V183.75H731.25V155.75H703.25ZM593.75 155.75H621.75V137.5H593.75H565.75V155.75H593.75ZM593.75 137.5V165.5H630.25V137.5V109.5H593.75V137.5ZM630.25 137.5H658.25V46.25H630.25H602.25V137.5H630.25ZM630.25 46.25V18.25H612V46.25V74.25H630.25V46.25ZM612 46.25H640V28H612H584V46.25H612ZM612 28V56H666.75V28V0H612V28ZM666.75 28H638.75V137.5H666.75H694.75V28H666.75ZM666.75 137.5V165.5H703.25V137.5V109.5H666.75V137.5ZM703.25 137.5H675.25V155.75H703.25H731.25V137.5H703.25ZM703.25 155.75V127.75H593.75V155.75V183.75H703.25V155.75ZM739.75 155.75H711.75V183.75H739.75V155.75ZM739.75 137.5H767.75V109.5H739.75V137.5ZM721.5 137.5H693.5V165.5H721.5V137.5ZM721.5 82.75V54.75H693.5V82.75H721.5ZM739.75 82.75V110.75H767.75V82.75H739.75ZM739.75 64.5V36.5H711.75V64.5H739.75ZM831 64.5H859V36.5H831V64.5ZM831 82.75H803V110.75H831V82.75ZM849.25 82.75H877.25V54.75H849.25V82.75ZM849.25 137.5V165.5H877.25V137.5H849.25ZM831 137.5V109.5H803V137.5H831ZM831 155.75V183.75H859V155.75H831ZM758 137.5H730V165.5H758V137.5ZM812.75 137.5V165.5H840.75V137.5H812.75ZM812.75 82.75H840.75V54.75H812.75V82.75ZM758 82.75V54.75H730V82.75H758ZM739.75 155.75H767.75V137.5H739.75H711.75V155.75H739.75ZM739.75 137.5V109.5H721.5V137.5V165.5H739.75V137.5ZM721.5 137.5H749.5V82.75H721.5H693.5V137.5H721.5ZM721.5 82.75V110.75H739.75V82.75V54.75H721.5V82.75ZM739.75 82.75H767.75V64.5H739.75H711.75V82.75H739.75ZM739.75 64.5V92.5H831V64.5V36.5H739.75V64.5ZM831 64.5H803V82.75H831H859V64.5H831ZM831 82.75V110.75H849.25V82.75V54.75H831V82.75ZM849.25 82.75H821.25V137.5H849.25H877.25V82.75H849.25ZM849.25 137.5V109.5H831V137.5V165.5H849.25V137.5ZM831 137.5H803V155.75H831H859V137.5H831ZM831 155.75V127.75H739.75V155.75V183.75H831V155.75ZM758 137.5V165.5H812.75V137.5V109.5H758V137.5ZM812.75 137.5H840.75V82.75H812.75H784.75V137.5H812.75ZM812.75 82.75V54.75H758V82.75V110.75H812.75V82.75ZM758 82.75H730V137.5H758H786V82.75H758ZM885.75 174H857.75V202H885.75V174ZM885.75 155.75V127.75H857.75V155.75H885.75ZM958.75 155.75V183.75H986.75V155.75H958.75ZM958.75 137.5H986.75V109.5H958.75V137.5ZM885.75 137.5H857.75V165.5H885.75V137.5ZM885.75 119.25H913.75V91.25H885.75V119.25ZM867.5 119.25H839.5V147.25H867.5V119.25ZM867.5 82.75V54.75H839.5V82.75H867.5ZM885.75 82.75V110.75H913.75V82.75H885.75ZM885.75 64.5V36.5H857.75V64.5H885.75ZM995.25 64.5H1023.25V36.5H995.25V64.5ZM995.25 155.75V183.75H1023.25V155.75H995.25ZM977 155.75V127.75H949V155.75H977ZM977 174V202H1005V174H977ZM904 119.25H876V147.25H904V119.25ZM958.75 119.25V147.25H986.75V119.25H958.75ZM958.75 82.75H986.75V54.75H958.75V82.75ZM904 82.75V54.75H876V82.75H904ZM885.75 174H913.75V155.75H885.75H857.75V174H885.75ZM885.75 155.75V183.75H958.75V155.75V127.75H885.75V155.75ZM958.75 155.75H986.75V137.5H958.75H930.75V155.75H958.75ZM958.75 137.5V109.5H885.75V137.5V165.5H958.75V137.5ZM885.75 137.5H913.75V119.25H885.75H857.75V137.5H885.75ZM885.75 119.25V91.25H867.5V119.25V147.25H885.75V119.25ZM867.5 119.25H895.5V82.75H867.5H839.5V119.25H867.5ZM867.5 82.75V110.75H885.75V82.75V54.75H867.5V82.75ZM885.75 82.75H913.75V64.5H885.75H857.75V82.75H885.75ZM885.75 64.5V92.5H995.25V64.5V36.5H885.75V64.5ZM995.25 64.5H967.25V155.75H995.25H1023.25V64.5H995.25ZM995.25 155.75V127.75H977V155.75V183.75H995.25V155.75ZM977 155.75H949V174H977H1005V155.75H977ZM977 174V146H885.75V174V202H977V174ZM904 119.25V147.25H958.75V119.25V91.25H904V119.25ZM958.75 119.25H986.75V82.75H958.75H930.75V119.25H958.75ZM958.75 82.75V54.75H904V82.75V110.75H958.75V82.75ZM904 82.75H876V119.25H904H932V82.75H904ZM1068.25 82.75H1040.25V110.75H1068.25V82.75ZM1086.5 82.75H1114.5V54.75H1086.5V82.75ZM1086.5 101V129H1114.5V101H1086.5ZM1068.25 101V73H1040.25V101H1068.25ZM1068.25 155.75V183.75H1096.25V155.75H1068.25ZM1031.75 155.75H1003.75V183.75H1031.75V155.75ZM1031.75 64.5V36.5H1003.75V64.5H1031.75ZM1068.25 64.5H1096.25V36.5H1068.25V64.5ZM1141.25 64.5H1169.25V36.5H1141.25V64.5ZM1141.25 82.75V110.75H1169.25V82.75H1141.25ZM1086.5 82.75H1058.5V110.75H1086.5V82.75ZM1086.5 64.5V36.5H1058.5V64.5H1086.5ZM1068.25 82.75V110.75H1086.5V82.75V54.75H1068.25V82.75ZM1086.5 82.75H1058.5V101H1086.5H1114.5V82.75H1086.5ZM1086.5 101V73H1068.25V101V129H1086.5V101ZM1068.25 101H1040.25V155.75H1068.25H1096.25V101H1068.25ZM1068.25 155.75V127.75H1031.75V155.75V183.75H1068.25V155.75ZM1031.75 155.75H1059.75V64.5H1031.75H1003.75V155.75H1031.75ZM1031.75 64.5V92.5H1068.25V64.5V36.5H1031.75V64.5ZM1068.25 64.5H1040.25V82.75H1068.25H1096.25V64.5H1068.25ZM1141.25 64.5H1113.25V82.75H1141.25H1169.25V64.5H1141.25ZM1141.25 82.75V54.75H1086.5V82.75V110.75H1141.25V82.75ZM1086.5 82.75H1114.5V64.5H1086.5H1058.5V82.75H1086.5ZM1086.5 64.5V92.5H1141.25V64.5V36.5H1086.5V64.5ZM1177.75 155.75H1149.75V183.75H1177.75V155.75ZM1177.75 137.5H1205.75V109.5H1177.75V137.5ZM1159.5 137.5H1131.5V165.5H1159.5V137.5ZM1159.5 119.25V91.25H1131.5V119.25H1159.5ZM1177.75 119.25V147.25H1205.75V119.25H1177.75ZM1177.75 101V73H1149.75V101H1177.75ZM1250.75 101V129H1278.75V101H1250.75ZM1250.75 82.75H1278.75V54.75H1250.75V82.75ZM1177.75 82.75H1149.75V110.75H1177.75V82.75ZM1177.75 64.5V36.5H1149.75V64.5H1177.75ZM1269 64.5H1297V36.5H1269V64.5ZM1269 82.75H1241V110.75H1269V82.75ZM1287.25 82.75H1315.25V54.75H1287.25V82.75ZM1287.25 155.75V183.75H1315.25V155.75H1287.25ZM1196 137.5H1168V165.5H1196V137.5ZM1250.75 137.5V165.5H1278.75V137.5H1250.75ZM1250.75 119.25H1278.75V91.25H1250.75V119.25ZM1196 119.25V91.25H1168V119.25H1196ZM1177.75 155.75H1205.75V137.5H1177.75H1149.75V155.75H1177.75ZM1177.75 137.5V109.5H1159.5V137.5V165.5H1177.75V137.5ZM1159.5 137.5H1187.5V119.25H1159.5H1131.5V137.5H1159.5ZM1159.5 119.25V147.25H1177.75V119.25V91.25H1159.5V119.25ZM1177.75 119.25H1205.75V101H1177.75H1149.75V119.25H1177.75ZM1177.75 101V129H1250.75V101V73H1177.75V101ZM1250.75 101H1278.75V82.75H1250.75H1222.75V101H1250.75ZM1250.75 82.75V54.75H1177.75V82.75V110.75H1250.75V82.75ZM1177.75 82.75H1205.75V64.5H1177.75H1149.75V82.75H1177.75ZM1177.75 64.5V92.5H1269V64.5V36.5H1177.75V64.5ZM1269 64.5H1241V82.75H1269H1297V64.5H1269ZM1269 82.75V110.75H1287.25V82.75V54.75H1269V82.75ZM1287.25 82.75H1259.25V155.75H1287.25H1315.25V82.75H1287.25ZM1287.25 155.75V127.75H1177.75V155.75V183.75H1287.25V155.75ZM1196 137.5V165.5H1250.75V137.5V109.5H1196V137.5ZM1250.75 137.5H1278.75V119.25H1250.75H1222.75V137.5H1250.75ZM1250.75 119.25V91.25H1196V119.25V147.25H1250.75V119.25ZM1196 119.25H1168V137.5H1196H1224V119.25H1196ZM1305.5 155.75H1277.5V183.75H1305.5V155.75ZM1305.5 137.5V109.5H1277.5V137.5H1305.5ZM1396.75 137.5V165.5H1424.75V137.5H1396.75ZM1396.75 119.25H1424.75V91.25H1396.75V119.25ZM1323.75 119.25H1295.75V147.25H1323.75V119.25ZM1323.75 101H1351.75V73H1323.75V101ZM1305.5 101H1277.5V129H1305.5V101ZM1305.5 82.75V54.75H1277.5V82.75H1305.5ZM1323.75 82.75V110.75H1351.75V82.75H1323.75ZM1323.75 64.5V36.5H1295.75V64.5H1323.75ZM1415 64.5H1443V36.5H1415V64.5ZM1415 82.75V110.75H1443V82.75H1415ZM1342 82.75V54.75H1314V82.75H1342ZM1342 101H1314V129H1342V101ZM1415 101H1443V73H1415V101ZM1415 119.25H1387V147.25H1415V119.25ZM1433.25 119.25H1461.25V91.25H1433.25V119.25ZM1433.25 137.5V165.5H1461.25V137.5H1433.25ZM1415 137.5V109.5H1387V137.5H1415ZM1415 155.75V183.75H1443V155.75H1415ZM1305.5 155.75H1333.5V137.5H1305.5H1277.5V155.75H1305.5ZM1305.5 137.5V165.5H1396.75V137.5V109.5H1305.5V137.5ZM1396.75 137.5H1424.75V119.25H1396.75H1368.75V137.5H1396.75ZM1396.75 119.25V91.25H1323.75V119.25V147.25H1396.75V119.25ZM1323.75 119.25H1351.75V101H1323.75H1295.75V119.25H1323.75ZM1323.75 101V73H1305.5V101V129H1323.75V101ZM1305.5 101H1333.5V82.75H1305.5H1277.5V101H1305.5ZM1305.5 82.75V110.75H1323.75V82.75V54.75H1305.5V82.75ZM1323.75 82.75H1351.75V64.5H1323.75H1295.75V82.75H1323.75ZM1323.75 64.5V92.5H1415V64.5V36.5H1323.75V64.5ZM1415 64.5H1387V82.75H1415H1443V64.5H1415ZM1415 82.75V54.75H1342V82.75V110.75H1415V82.75ZM1342 82.75H1314V101H1342H1370V82.75H1342ZM1342 101V129H1415V101V73H1342V101ZM1415 101H1387V119.25H1415H1443V101H1415ZM1415 119.25V147.25H1433.25V119.25V91.25H1415V119.25ZM1433.25 119.25H1405.25V137.5H1433.25H1461.25V119.25H1433.25ZM1433.25 137.5V109.5H1415V137.5V165.5H1433.25V137.5ZM1415 137.5H1387V155.75H1415H1443V137.5H1415ZM1415 155.75V127.75H1305.5V155.75V183.75H1415V155.75ZM1506.25 155.75H1478.25V183.75H1506.25V155.75ZM1506.25 82.75H1534.25V54.75H1506.25V82.75ZM1469.75 82.75H1441.75V110.75H1469.75V82.75ZM1469.75 64.5V36.5H1441.75V64.5H1469.75ZM1506.25 64.5V92.5H1534.25V64.5H1506.25ZM1506.25 28V0H1478.25V28H1506.25ZM1542.75 28H1570.75V0H1542.75V28ZM1542.75 64.5H1514.75V92.5H1542.75V64.5ZM1579.25 64.5H1607.25V36.5H1579.25V64.5ZM1579.25 82.75V110.75H1607.25V82.75H1579.25ZM1542.75 82.75V54.75H1514.75V82.75H1542.75ZM1542.75 155.75V183.75H1570.75V155.75H1542.75ZM1506.25 155.75H1534.25V82.75H1506.25H1478.25V155.75H1506.25ZM1506.25 82.75V54.75H1469.75V82.75V110.75H1506.25V82.75ZM1469.75 82.75H1497.75V64.5H1469.75H1441.75V82.75H1469.75ZM1469.75 64.5V92.5H1506.25V64.5V36.5H1469.75V64.5ZM1506.25 64.5H1534.25V28H1506.25H1478.25V64.5H1506.25ZM1506.25 28V56H1542.75V28V0H1506.25V28ZM1542.75 28H1514.75V64.5H1542.75H1570.75V28H1542.75ZM1542.75 64.5V92.5H1579.25V64.5V36.5H1542.75V64.5ZM1579.25 64.5H1551.25V82.75H1579.25H1607.25V64.5H1579.25ZM1579.25 82.75V54.75H1542.75V82.75V110.75H1579.25V82.75ZM1542.75 82.75H1514.75V155.75H1542.75H1570.75V82.75H1542.75ZM1542.75 155.75V127.75H1506.25V155.75V183.75H1542.75V155.75ZM1615.75 155.75H1587.75V183.75H1615.75V155.75ZM1615.75 137.5H1643.75V109.5H1615.75V137.5ZM1597.5 137.5H1569.5V165.5H1597.5V137.5ZM1597.5 82.75V54.75H1569.5V82.75H1597.5ZM1615.75 82.75V110.75H1643.75V82.75H1615.75ZM1615.75 64.5V36.5H1587.75V64.5H1615.75ZM1707 64.5H1735V36.5H1707V64.5ZM1707 82.75H1679V110.75H1707V82.75ZM1725.25 82.75H1753.25V54.75H1725.25V82.75ZM1725.25 119.25V147.25H1753.25V119.25H1725.25ZM1634 119.25V91.25H1606V119.25H1634ZM1634 137.5H1606V165.5H1634V137.5ZM1707 137.5H1735V109.5H1707V137.5ZM1707 155.75V183.75H1735V155.75H1707ZM1634 101H1606V129H1634V101ZM1688.75 101V129H1716.75V101H1688.75ZM1688.75 82.75H1716.75V54.75H1688.75V82.75ZM1634 82.75V54.75H1606V82.75H1634ZM1615.75 155.75H1643.75V137.5H1615.75H1587.75V155.75H1615.75ZM1615.75 137.5V109.5H1597.5V137.5V165.5H1615.75V137.5ZM1597.5 137.5H1625.5V82.75H1597.5H1569.5V137.5H1597.5ZM1597.5 82.75V110.75H1615.75V82.75V54.75H1597.5V82.75ZM1615.75 82.75H1643.75V64.5H1615.75H1587.75V82.75H1615.75ZM1615.75 64.5V92.5H1707V64.5V36.5H1615.75V64.5ZM1707 64.5H1679V82.75H1707H1735V64.5H1707ZM1707 82.75V110.75H1725.25V82.75V54.75H1707V82.75ZM1725.25 82.75H1697.25V119.25H1725.25H1753.25V82.75H1725.25ZM1725.25 119.25V91.25H1634V119.25V147.25H1725.25V119.25ZM1634 119.25H1606V137.5H1634H1662V119.25H1634ZM1634 137.5V165.5H1707V137.5V109.5H1634V137.5ZM1707 137.5H1679V155.75H1707H1735V137.5H1707ZM1707 155.75V127.75H1615.75V155.75V183.75H1707V155.75ZM1634 101V129H1688.75V101V73H1634V101ZM1688.75 101H1716.75V82.75H1688.75H1660.75V101H1688.75ZM1688.75 82.75V54.75H1634V82.75V110.75H1688.75V82.75ZM1634 82.75H1606V101H1634H1662V82.75H1634ZM1780 119.25H1752V147.25H1780V119.25ZM1780 28V0H1752V28H1780ZM1834.75 28H1862.75V0H1834.75V28ZM1834.75 82.75V110.75H1862.75V82.75H1834.75ZM1816.5 82.75V54.75H1788.5V82.75H1816.5ZM1816.5 119.25V147.25H1844.5V119.25H1816.5ZM1780 155.75H1752V183.75H1780V155.75ZM1780 137.5V109.5H1752V137.5H1780ZM1816.5 137.5H1844.5V109.5H1816.5V137.5ZM1816.5 155.75V183.75H1844.5V155.75H1816.5ZM1780 119.25H1808V28H1780H1752V119.25H1780ZM1780 28V56H1834.75V28V0H1780V28ZM1834.75 28H1806.75V82.75H1834.75H1862.75V28H1834.75ZM1834.75 82.75V54.75H1816.5V82.75V110.75H1834.75V82.75ZM1816.5 82.75H1788.5V119.25H1816.5H1844.5V82.75H1816.5ZM1816.5 119.25V91.25H1780V119.25V147.25H1816.5V119.25ZM1780 155.75H1808V137.5H1780H1752V155.75H1780ZM1780 137.5V165.5H1816.5V137.5V109.5H1780V137.5ZM1816.5 137.5H1788.5V155.75H1816.5H1844.5V137.5H1816.5ZM1816.5 155.75V127.75H1780V155.75V183.75H1816.5V155.75Z" fill="black" mask="url(#path-1-outside-1_73_160380)"/>
</svg>
