<svg width="300" height="300" viewBox="0 0 300 300" fill="none" xmlns="http://www.w3.org/2000/svg">
<g clip-path="url(#clip0_13_8953)">
<path d="M72.7768 180.429L72.7838 182.449L68.8213 182.47L68.9191 180.403C69.064 180.466 69.2142 180.492 69.3958 180.473L72.3769 180.462C72.5148 180.417 72.6528 180.385 72.7785 180.429H72.7768Z" fill="#010101"/>
<path d="M219.299 115.843L219.347 118.057L219.32 120.037L221.316 120.025L221.301 118.125L226.996 117.978C227.036 118.04 227.175 118.04 227.275 118.113L227.271 121.973L224.867 122.073L223.01 122.122C222.841 121.989 222.652 121.977 222.459 122.01L219.369 122.003L219.326 120.061L217.38 120.026L217.289 118.067L215.354 118.071L215.304 110.146L219.28 110.116L219.303 115.846L219.299 115.843Z" fill="#A87E53"/>
<path d="M221.492 116.047L221.515 110.428C221.543 110.267 221.398 110.213 221.328 110.192C221.374 110.108 221.518 110.032 221.679 110.087L223.218 110.059L223.244 108.108L227.191 108.077L227.247 114.013L223.275 114.055L223.265 116.018L221.491 116.047H221.492ZM222.032 110.244C221.704 110.092 221.599 110.519 221.995 110.452C222.187 110.505 222.254 110.265 222.032 110.244Z" fill="#A87E53"/>
<path d="M117.918 88.7585L115.99 88.7812L115.941 86.7715L113.912 86.7628L113.886 84.8615L115.922 84.8021L115.945 82.8326L117.89 82.8291L117.93 84.7671L119.858 84.7776L119.883 86.7365L117.922 86.7575L117.918 88.7585Z" fill="#CA855C"/>
<path d="M183.394 82.4423L179.451 82.4719L179.481 86.437L183.424 86.4073L183.394 82.4423Z" fill="#CA855C"/>
<path d="M226.992 117.977L221.298 118.125L220.864 118.029L219.344 118.057L219.299 115.843L219.58 116.079L221.337 116.011L221.377 117.922L226.992 117.977Z" fill="#642429"/>
<path d="M80.3579 116.782L78.3672 116.803L78.3885 118.843L80.3792 118.822L80.3579 116.782Z" fill="#A87E53"/>
<path d="M221.492 116.047C221.309 116.023 221.237 115.85 221.377 115.683L221.33 110.191C221.398 110.212 221.543 110.267 221.517 110.428L221.494 116.047H221.492Z" fill="#CA855C"/>
<path d="M68.9172 180.401L68.8194 182.469L72.7836 182.449L72.7766 180.429L74.7342 180.48L74.7674 184.415L72.7783 184.45L72.7836 186.418L68.8525 186.465L68.8228 184.513L66.8145 184.464L66.7988 180.524L68.5312 180.492L68.9172 180.401Z" fill="#A87E53"/>
<path d="M72.777 180.429C72.6513 180.384 72.5133 180.415 72.3754 180.462L69.3943 180.473C69.2127 180.492 69.0625 180.466 68.9176 180.403L68.7988 178.484L72.7613 178.463L72.7753 180.431L72.777 180.429Z" fill="#A87E53"/>
<path d="M227.569 181.634L227.578 183.636L229.597 183.628L229.588 181.625L227.569 181.634Z" fill="#A87E53"/>
<path d="M221.299 118.125L221.313 120.025L219.318 120.037L219.345 118.057L220.864 118.029L221.299 118.125Z" fill="#010101"/>
<path d="M222.032 110.244C222.254 110.265 222.187 110.505 221.995 110.452C221.599 110.517 221.704 110.09 222.032 110.244Z" fill="#CA855C"/>
<path d="M96.1954 104.803L96.3525 134.602L74.5144 134.719L74.5057 138.7L72.5568 138.733L72.6074 152.603L74.579 152.621L74.6402 158.567H78.5747L78.6445 166.498L82.6 166.519L82.6629 170.466L84.6031 170.473L84.6433 174.433L88.5778 174.405L88.6354 176.403L92.5734 176.439L92.5909 180.357L96.5796 180.35L96.6285 188.289L92.6346 188.3V190.268L88.6861 190.311L88.7053 194.241L84.7341 194.306L84.762 199.914C84.7795 200.181 84.6014 200.305 84.432 200.311H80.8257L80.7786 202.299H78.8262L78.8594 208.259L82.8288 208.252L82.855 212.199L87.9299 212.183L88.7734 212.173L88.8328 214.163L100.703 214.118L100.776 218.09L124.539 217.955L124.56 215.078C124.577 214.895 124.547 214.749 124.507 214.644C124.554 214.48 124.551 214.307 124.554 214.004L132.474 213.929L132.497 209.964L138.378 209.939L138.429 207.996L140.385 207.937L140.394 205.983L144.346 205.908L144.341 199.968L148.291 199.938L148.299 195.961H152.234L152.264 199.91H156.155C156.214 200.068 156.214 200.173 156.216 200.262L156.221 201.803L156.238 204.813L156.28 205.845L160.101 205.813L160.213 206.156L160.243 207.841L162.18 207.86L162.239 209.805L166.523 209.789L168.143 209.784H168.241L168.224 213.733L175.817 213.716C176.08 213.668 176.196 213.861 176.171 214.034L176.161 217.653L181.784 217.67L199.927 217.546C200.04 216.775 200 216.164 199.948 215.559C200.046 215.274 199.997 214.97 199.965 214.685C199.969 214.478 199.957 214.284 199.878 214.083L199.974 213.591L211.856 213.509L211.902 211.517L217.785 211.482L217.794 207.538L221.768 207.498L221.728 201.544L219.788 201.53L219.706 199.569L215.777 199.585L215.714 193.619L211.799 193.61L211.748 189.666L207.812 189.654L207.763 187.703L203.814 187.728L203.736 179.78L207.74 179.736L207.719 175.827L211.683 175.763L211.699 173.762L215.214 173.741C215.462 173.798 215.665 173.613 215.625 173.365L215.616 169.768L217.596 169.7L217.582 165.802L221.541 165.735L221.527 157.798L225.474 157.777L225.467 151.804L227.418 151.784L227.346 137.909L225.389 137.892L225.321 133.916L206.298 134.012L203.51 133.956L203.35 104.231L207.319 104.201L207.473 131.987C207.48 132.071 207.461 132.174 207.534 132.338L225.954 132.237C226.354 132.086 226.639 132.128 227.093 132.188L227.051 133.468C226.856 133.566 226.812 133.725 226.971 133.883C227.114 133.93 227.289 133.977 227.421 134.156L231.05 134.14L231.075 137.773C231.183 137.823 231.246 137.813 231.284 137.809C231.312 137.806 231.359 137.815 231.419 137.872L233.312 137.923L233.401 153.735L229.44 153.794L229.473 159.723L227.467 159.748L227.474 163.704L225.794 163.736C225.628 163.703 225.497 163.79 225.473 163.879C225.436 163.871 225.38 163.855 225.28 163.907L225.307 169.459L221.812 169.478C221.657 169.483 221.625 169.606 221.604 169.677L221.575 173.69L217.605 173.755L217.626 177.697L215.658 177.718L215.653 181.68L211.722 181.713L211.748 187.362L211.795 187.689C211.792 187.721 211.785 187.782 211.832 187.88L215.455 187.864L215.475 189.582C215.588 189.629 215.655 189.61 215.696 189.599L217.693 189.61L217.729 193.593L221.685 193.587L221.725 199.559L225.724 199.58L225.782 213.446L217.83 213.49L217.839 217.219C217.921 217.329 217.81 217.429 217.724 217.39C217.726 217.362 217.734 217.305 217.687 217.21L216.343 217.217C216.299 217.329 216.311 217.39 216.316 217.415C216.217 217.501 216.06 217.515 215.96 217.397C216.007 217.361 215.965 217.195 215.791 217.216L206.236 217.268C206.175 217.375 206.189 217.443 206.2 217.462L203.947 217.525L203.973 223.5L172.277 223.664L172.207 217.686L170.78 217.667C170.817 217.497 170.628 217.333 170.424 217.511C170.18 217.336 169.897 217.457 169.907 217.665C169.746 217.735 169.542 217.74 169.378 217.651C169.422 217.6 169.376 217.445 169.214 217.464L163.795 217.492C163.632 217.474 163.587 217.632 163.632 217.679C163.526 217.773 163.384 217.773 163.278 217.705C163.309 217.529 163.13 217.404 162.934 217.516C162.756 217.464 162.71 217.641 162.754 217.704C162.616 217.782 162.424 217.78 162.293 217.593C162.265 217.541 162.251 217.404 162.368 217.324C162.389 217.333 162.457 217.347 162.576 217.296L162.567 215.608C162.447 215.559 162.38 215.573 162.361 215.582C162.307 215.557 162.269 215.503 162.279 215.417L162.274 213.777L156.3 213.812L156.261 209.836L152.339 209.852L152.267 205.883L148.301 205.899L148.317 209.88L144.386 209.903L144.409 213.861L138.653 213.906C138.509 213.934 138.399 214.067 138.398 214.181L138.454 217.083L138.158 217.114L138.134 217.627L135.914 217.641C135.867 217.749 135.879 217.814 135.888 217.842C135.548 217.92 135.177 217.917 134.837 217.849C134.844 217.821 134.856 217.756 134.805 217.648L132.252 217.662C132.203 217.772 132.216 217.836 132.224 217.856C132.12 217.947 131.975 217.947 131.87 217.856C131.879 217.836 131.891 217.772 131.838 217.663L128.938 217.679C128.887 217.787 128.901 217.854 128.906 217.892C128.84 217.917 128.756 217.955 128.545 217.91C128.492 218.199 128.498 218.457 128.538 218.723C128.463 218.727 128.37 218.707 128.215 218.762L128.229 223.624L97.0528 223.787C96.9812 223.531 96.997 223.348 97.0109 223.115C96.8957 223.077 96.838 223.085 96.8118 223.089L96.7996 220.294C96.8293 220.297 96.8887 220.306 96.99 220.262L96.9795 218.401C96.8834 218.359 96.8293 218.37 96.8014 218.373C96.8049 218.275 96.7472 218.136 96.5918 218.078C96.2041 218.113 95.8775 218.132 95.5807 218.041C95.6226 217.997 95.5842 217.829 95.4043 217.854L83.2043 217.919L83.1746 214.27C83.0087 214.267 82.9074 214.253 82.8236 214.204L75.1501 214.235C75.0383 214.328 74.944 214.214 74.9737 214.134C75.1641 214.1 75.2514 213.835 75.0995 213.595C75.2654 213.397 75.1117 213.21 74.9475 213.245C74.8881 213.084 74.8777 212.88 74.9632 212.715C74.9755 212.727 75.0436 212.741 75.1449 212.677L75.082 200.669C75.1099 200.5 74.9597 200.456 74.9021 200.468C74.8951 200.323 75.0872 200.243 75.2409 200.347L78.8035 200.305L78.8 194.343L82.7712 194.28L82.7677 190.378L84.2765 190.329C84.4809 190.345 84.6083 190.303 84.7271 190.259C84.776 190.289 84.8493 190.327 84.9698 190.275L84.9559 188.361H85.6596C85.6369 188.525 85.8238 188.655 86.0089 188.501C86.1958 188.653 86.3826 188.52 86.3564 188.354H87.055C87.0515 188.38 87.0428 188.438 87.0847 188.539L88.4224 188.532C88.4625 188.436 88.4521 188.384 88.4468 188.356C88.5935 188.356 88.7158 188.209 88.6651 188.02L88.6459 182.365L84.6799 182.36L84.652 178.39L82.7066 178.365L82.6577 174.445L78.7004 174.452L78.6603 170.76L78.5887 170.454C78.5922 170.416 78.6026 170.351 78.552 170.244L74.9231 170.256L74.8951 164.84C74.8986 164.675 74.7519 164.649 74.6978 164.637C74.0569 164.427 73.3706 164.589 72.6755 164.525L72.6598 160.581L70.6463 160.558L70.6201 154.621L68.6659 154.616L68.638 152.629H66.6663L66.5947 138.812L68.4878 138.735C68.5402 138.677 68.5873 138.665 68.6153 138.666C68.6554 138.67 68.7183 138.684 68.8283 138.631L68.8143 134.999L72.3175 134.978C72.452 134.993 72.5131 134.86 72.4607 134.776C72.5306 134.755 72.5515 134.693 72.5376 134.6C72.5166 134.339 72.5009 134.112 72.5899 133.928C72.6319 133.935 72.6982 133.947 72.8048 133.9L72.8432 133.052L92.1316 132.95C92.2067 132.844 92.1735 132.77 92.1543 132.728L92.3639 132.555L92.2207 104.815L96.1954 104.801V104.803Z" fill="#364956"/>
<path d="M96.1954 104.803L96.3525 134.602L74.5144 134.719L74.5057 138.7L72.5568 138.733L72.6074 152.603L74.579 152.621L74.6402 158.568H78.5747L78.6445 166.498L82.6 166.519L82.6629 170.467L84.6031 170.474L84.6433 174.433L88.5778 174.405L88.6354 176.403L92.5734 176.44L92.5909 180.358L96.5796 180.351L96.6285 188.29L92.6346 188.3V190.268L88.6861 190.312L88.7053 194.242L84.7341 194.306L84.762 199.914C84.7795 200.182 84.6014 200.306 84.432 200.311H80.8257L80.7786 202.3H78.8262L78.8594 208.259L82.8288 208.252L82.855 212.199L87.9299 212.184L88.7734 212.173L88.8328 214.164L100.703 214.118L100.776 218.09L124.539 217.956L124.56 215.078C124.577 214.895 124.547 214.75 124.507 214.645C124.554 214.48 124.551 214.307 124.554 214.004L132.474 213.929L132.497 209.964L138.378 209.94L138.429 207.996L140.385 207.937L140.394 205.983L144.346 205.908L144.341 199.968L148.291 199.938L148.299 195.961H152.234L152.264 199.91H156.155C156.214 200.068 156.214 200.173 156.216 200.262L156.221 201.803L156.238 204.813L156.28 205.845L160.101 205.814L160.213 206.156L160.243 207.841L162.18 207.86L162.239 209.805L166.523 209.789L168.143 209.784H168.241L168.224 213.733L175.817 213.716C176.08 213.669 176.196 213.861 176.171 214.034L176.161 217.653L181.784 217.671L199.927 217.546C200.04 216.775 200 216.165 199.948 215.559C200.046 215.274 199.997 214.97 199.965 214.685C199.969 214.478 199.957 214.284 199.878 214.083L199.974 213.592L211.856 213.509L211.902 211.517L217.785 211.482L217.794 207.538L221.768 207.498L221.728 201.544L219.788 201.53L219.706 199.569L215.777 199.585L215.714 193.619L211.799 193.61L211.748 189.666L207.812 189.654L207.763 187.704L203.814 187.728L203.736 179.78L207.74 179.737L207.719 175.827L211.683 175.763L211.699 173.762L215.214 173.741C215.462 173.799 215.665 173.613 215.625 173.365L215.616 169.769L217.596 169.7L217.582 165.802L221.541 165.735L221.527 157.798L225.474 157.777L225.467 151.804L227.418 151.785L227.346 137.909L225.389 137.892L225.321 133.916L206.298 134.012L203.51 133.956L203.35 104.231L207.319 104.201L207.473 131.987C207.48 132.071 207.461 132.174 207.534 132.339L225.954 132.237C226.354 132.087 226.639 132.129 227.093 132.188L227.051 133.468C226.856 133.566 226.812 133.726 226.971 133.883C227.114 133.93 227.289 133.977 227.421 134.156L231.05 134.14L231.075 137.773C231.183 137.824 231.246 137.813 231.284 137.81C231.312 137.806 231.359 137.815 231.419 137.873L233.312 137.923L233.401 153.735L229.44 153.794L229.473 159.724L227.467 159.748L227.474 163.705L225.794 163.736C225.628 163.703 225.497 163.79 225.473 163.88C225.436 163.871 225.38 163.855 225.28 163.908L225.307 169.459L221.812 169.478C221.657 169.484 221.625 169.606 221.604 169.678L221.575 173.69L217.605 173.755L217.626 177.697L215.658 177.718L215.653 181.68L211.722 181.713L211.748 187.363L211.795 187.69C211.792 187.721 211.785 187.782 211.832 187.88L215.455 187.865L215.475 189.582C215.588 189.629 215.655 189.61 215.696 189.6L217.693 189.61L217.729 193.593L221.685 193.588L221.725 199.559L225.724 199.58L225.782 213.447L217.83 213.49L217.839 217.219C217.921 217.329 217.81 217.429 217.724 217.391C217.726 217.363 217.734 217.305 217.687 217.211L216.343 217.218C216.299 217.329 216.311 217.391 216.316 217.415C216.217 217.501 216.06 217.515 215.96 217.398C216.007 217.361 215.965 217.195 215.791 217.216L206.236 217.268C206.175 217.375 206.189 217.443 206.2 217.462L203.947 217.525L203.973 223.5L172.277 223.665L172.207 217.686L170.78 217.667C170.817 217.497 170.628 217.333 170.424 217.511C170.18 217.336 169.897 217.457 169.907 217.665C169.746 217.735 169.542 217.74 169.378 217.651C169.422 217.601 169.376 217.445 169.214 217.464L163.795 217.492C163.632 217.475 163.587 217.632 163.632 217.679C163.526 217.774 163.384 217.774 163.278 217.706C163.309 217.529 163.13 217.405 162.934 217.517C162.756 217.464 162.71 217.641 162.754 217.704C162.616 217.782 162.424 217.781 162.293 217.594C162.265 217.541 162.251 217.405 162.368 217.324C162.389 217.333 162.457 217.347 162.576 217.296L162.567 215.608C162.447 215.559 162.38 215.573 162.361 215.582C162.307 215.558 162.269 215.503 162.279 215.418L162.274 213.777L156.3 213.812L156.261 209.836L152.339 209.852L152.267 205.884L148.301 205.899L148.317 209.88L144.386 209.903L144.409 213.861L138.653 213.907C138.509 213.935 138.399 214.067 138.398 214.181L138.454 217.083L138.158 217.114L138.134 217.627L135.914 217.641C135.867 217.749 135.879 217.814 135.888 217.842C135.548 217.921 135.177 217.917 134.837 217.849C134.844 217.821 134.856 217.756 134.805 217.648L132.252 217.662C132.203 217.772 132.216 217.837 132.224 217.856C132.12 217.947 131.975 217.947 131.87 217.856C131.879 217.837 131.891 217.772 131.838 217.664L128.938 217.679C128.887 217.788 128.901 217.854 128.906 217.893C128.84 217.917 128.756 217.956 128.545 217.91C128.492 218.199 128.498 218.458 128.538 218.723C128.463 218.727 128.37 218.708 128.215 218.762L128.229 223.624L97.0528 223.787C96.9812 223.532 96.997 223.348 97.0109 223.115C96.8957 223.077 96.838 223.086 96.8118 223.089L96.7996 220.294C96.8293 220.298 96.8887 220.306 96.99 220.263L96.9795 218.402C96.8834 218.36 96.8293 218.37 96.8014 218.374C96.8049 218.276 96.7472 218.136 96.5918 218.078C96.2041 218.113 95.8775 218.132 95.5807 218.041C95.6226 217.998 95.5842 217.83 95.4043 217.854L83.2043 217.919L83.1746 214.27C83.0087 214.267 82.9074 214.253 82.8236 214.204L75.1501 214.235C75.0383 214.328 74.944 214.214 74.9737 214.134C75.1641 214.101 75.2514 213.835 75.0995 213.595C75.2654 213.398 75.1117 213.21 74.9475 213.245C74.8881 213.084 74.8777 212.88 74.9632 212.715C74.9755 212.728 75.0436 212.742 75.1449 212.677L75.082 200.67C75.1099 200.5 74.9597 200.456 74.9021 200.468C74.8951 200.323 75.0872 200.243 75.2409 200.348L78.8035 200.306L78.8 194.343L82.7712 194.28L82.7677 190.378L84.2765 190.329C84.4809 190.345 84.6083 190.303 84.7271 190.259C84.776 190.289 84.8493 190.327 84.9698 190.275L84.9559 188.361H85.6596C85.6369 188.526 85.8238 188.655 86.0089 188.501C86.1958 188.653 86.3826 188.52 86.3564 188.354H87.055C87.0515 188.381 87.0428 188.438 87.0847 188.54L88.4224 188.533C88.4625 188.437 88.4521 188.384 88.4468 188.356C88.5935 188.356 88.7158 188.209 88.6651 188.02L88.6459 182.365L84.6799 182.36L84.652 178.39L82.7066 178.365L82.6577 174.446L78.7004 174.453L78.6603 170.76L78.5887 170.454C78.5922 170.416 78.6026 170.351 78.552 170.244L74.9231 170.257L74.8951 164.84C74.8986 164.675 74.7519 164.649 74.6978 164.637C74.0569 164.427 73.3706 164.59 72.6755 164.525L72.6598 160.581L70.6463 160.558L70.6201 154.622L68.6659 154.616L68.638 152.63H66.6663L66.5947 138.812L68.4878 138.735C68.5402 138.677 68.5873 138.665 68.6153 138.667C68.6554 138.67 68.7183 138.684 68.8283 138.632L68.8143 134.999L72.3175 134.978C72.452 134.994 72.5131 134.861 72.4607 134.777C72.5306 134.756 72.5515 134.693 72.5376 134.6C72.5166 134.339 72.5009 134.112 72.5899 133.928C72.6319 133.935 72.6982 133.948 72.8048 133.9L72.8432 133.052L92.1316 132.951C92.2067 132.844 92.1735 132.771 92.1543 132.729L92.3639 132.555L92.2207 104.815L96.1954 104.801V104.803Z" fill="#364956"/>
<path d="M203.358 104.24L200.016 104.222L199.696 104.271C199.602 104.236 199.553 104.222 199.375 104.248V100.274L189.495 100.327L189.511 104.302L183.532 104.308L183.544 107.836L183.469 108.294C183.406 108.278 183.341 108.275 183.278 108.285L175.612 108.353L175.621 112.067L175.691 112.322L175.615 112.602C175.451 112.583 175.432 112.413 175.46 112.296L171.677 112.324L171.622 104.397L167.647 104.404L167.633 100.483L165.663 100.423L165.625 98.4798L163.669 98.4641L163.622 94.5234H161.664L161.606 90.532L159.643 90.5093L159.61 88.5416L155.63 88.5678L155.613 84.5869L151.629 84.5974L151.636 80.641L147.705 80.655L147.681 84.44C147.738 84.5187 147.742 84.5747 147.742 84.6044C147.773 84.7251 147.777 84.8563 147.712 84.977C147.594 84.9263 147.541 84.8178 147.553 84.6202L143.739 84.6709L143.752 88.6273L139.824 88.6465L139.761 90.6055L137.81 90.6615L137.803 94.6179L135.848 94.6354L135.872 98.6128L133.89 98.66L133.852 100.58L131.931 100.638L131.927 104.589L127.94 104.624L127.982 112.523L124.025 112.544L124.02 112.338L123.986 108.63L116.653 108.647L116.311 108.701L116.06 108.749C116.025 108.761 115.992 108.75 115.969 108.717L116.053 108.378V104.679L110.075 104.731L110.061 100.759L100.177 100.789L100.152 103.926C100.136 104.245 100.135 104.537 100.226 104.783C100.112 104.834 99.9915 104.801 99.8832 104.769L96.1967 104.804L96.167 98.8174L115.992 98.7177L116.039 102.685L123.951 102.655L123.988 104.638L127.954 104.623L127.916 98.667L129.889 98.6442L129.884 94.6756L131.866 94.6441V90.6842L133.808 90.651L133.799 86.6998L137.744 86.6753L137.749 84.7269L139.749 84.6744L139.742 80.732L143.724 80.6585L143.706 76.7074L155.559 76.6392L155.583 80.6078L159.544 80.5956L159.596 84.566L161.587 84.5415L161.625 86.5477L165.572 86.5319L165.602 90.4813L167.544 90.4936L167.6 94.4815L169.57 94.4675L169.589 98.4134L171.583 98.4466L171.618 104.393L175.568 104.374L175.588 102.393L183.497 102.34L183.488 98.3696L203.325 98.2594L203.361 104.25L203.358 104.24Z" fill="#364954"/>
<path d="M128.544 218.725L128.593 223.577C128.408 223.671 128.387 223.787 128.377 223.974L97.2532 224.138C97.1537 223.946 97.0209 223.923 96.8515 223.965L96.8184 223.093C96.8446 223.091 96.9022 223.08 97.0174 223.119C97.0035 223.351 96.9878 223.533 97.0594 223.79L128.235 223.628L128.221 218.765C128.375 218.711 128.467 218.73 128.544 218.727V218.725Z" fill="#364954"/>
<path d="M231.29 137.816C231.252 137.82 231.189 137.83 231.08 137.78L231.056 134.147L227.427 134.163C227.294 133.984 227.12 133.937 226.977 133.89C226.816 133.734 226.861 133.575 227.057 133.475L227.099 132.195C226.646 132.137 226.36 132.095 225.96 132.244L207.54 132.345C207.466 132.181 207.486 132.078 207.479 131.994L225.964 131.901L227.315 131.94L227.352 133.925C227.67 133.895 227.864 133.886 228.092 133.974H231.227L231.287 137.815L231.29 137.816Z" fill="#364954"/>
<path d="M92.1542 132.73C92.1752 132.772 92.2083 132.846 92.1315 132.952L72.8431 133.054L72.8046 133.902C72.6981 133.947 72.63 133.937 72.5898 133.93C72.6772 133.619 72.6457 133.306 72.6318 132.889C72.8204 132.926 72.9496 132.889 73.0387 132.704L89.1575 132.62C89.2029 132.744 89.2867 132.795 89.3758 132.798L92.0128 132.781C92.0913 132.79 92.1315 132.76 92.1542 132.732V132.73Z" fill="#364954"/>
<path d="M95.5854 218.045L83.0519 218.094C83.0658 217.863 83.0763 217.665 82.8563 217.517L82.8301 214.207C82.9139 214.256 83.0152 214.27 83.1811 214.274L83.2108 217.922L95.4108 217.858C95.5889 217.833 95.6291 218.001 95.5872 218.045H95.5854Z" fill="#364954"/>
<path d="M74.9683 212.717L74.9072 200.47C74.9649 200.458 75.115 200.501 75.0871 200.671L75.15 212.678C75.0487 212.743 74.9806 212.729 74.9683 212.717Z" fill="#364954"/>
<path d="M215.962 217.406L206.203 217.471C206.193 217.452 206.177 217.384 206.24 217.277L215.794 217.224C215.969 217.203 216.011 217.37 215.963 217.406H215.962Z" fill="#364954"/>
<path d="M221.609 169.686C221.63 169.613 221.662 169.492 221.817 169.487L225.312 169.468L225.285 163.916C225.385 163.862 225.441 163.879 225.478 163.888L225.486 169.641L221.609 169.686Z" fill="#364954"/>
<path d="M78.594 170.454L74.7555 170.431L74.7031 164.637C74.7573 164.649 74.904 164.675 74.9005 164.84L74.9284 170.256L78.5573 170.244C78.6097 170.351 78.5975 170.416 78.594 170.454Z" fill="#364954"/>
<path d="M72.4607 134.778C72.5131 134.864 72.4502 134.997 72.3175 134.979L68.8143 135L68.8283 138.633C68.7183 138.686 68.6554 138.674 68.6152 138.668C68.61 138.633 68.6065 138.574 68.6536 138.488L68.6397 134.827L72.4624 134.778H72.4607Z" fill="#0E1E36"/>
<path d="M169.383 217.656L163.636 217.684C163.592 217.637 163.636 217.48 163.798 217.497L169.217 217.469C169.38 217.45 169.425 217.607 169.382 217.656H169.383Z" fill="#364954"/>
<path d="M215.7 189.607C215.658 189.617 215.592 189.636 215.478 189.589L215.459 187.871L211.835 187.887C211.787 187.787 211.795 187.728 211.799 187.697H215.639L215.7 189.607Z" fill="#364954"/>
<path d="M138.46 217.088C138.563 217.315 138.548 217.576 138.282 217.795L135.895 217.847C135.886 217.819 135.874 217.754 135.921 217.646L138.141 217.632L138.165 217.119L138.46 217.088Z" fill="#364954"/>
<path d="M131.875 217.859L128.913 217.894C128.908 217.857 128.894 217.791 128.944 217.681L131.845 217.665C131.896 217.773 131.885 217.838 131.877 217.857L131.875 217.859Z" fill="#364954"/>
<path d="M134.842 217.854L132.23 217.859C132.221 217.84 132.209 217.775 132.258 217.665L134.811 217.651C134.861 217.761 134.849 217.826 134.842 217.852V217.854Z" fill="#364954"/>
<path d="M96.8066 220.298V218.377C96.8346 218.372 96.8905 218.363 96.9865 218.405L96.997 220.266C96.8975 220.31 96.8381 220.303 96.8066 220.298Z" fill="#364954"/>
<path d="M84.7322 190.262L84.7968 188.722C84.7235 188.54 84.8125 188.38 84.9592 188.365L84.9732 190.278C84.8527 190.331 84.7794 190.292 84.7305 190.262H84.7322Z" fill="#281F26"/>
<path d="M162.371 217.329L162.364 215.587C162.383 215.578 162.452 215.564 162.57 215.613L162.579 217.301C162.459 217.352 162.392 217.338 162.371 217.329Z" fill="#364954"/>
<path d="M217.728 217.397L216.32 217.422C216.315 217.397 216.303 217.336 216.346 217.224L217.691 217.217C217.738 217.313 217.729 217.371 217.728 217.397Z" fill="#364954"/>
<path d="M88.4517 188.359C88.4569 188.389 88.4674 188.44 88.4272 188.536L87.0895 188.543C87.0476 188.442 87.0563 188.382 87.0598 188.356H88.4517V188.359Z" fill="#281F26"/>
<path d="M74.9791 214.135L74.9512 213.247C75.1153 213.212 75.2708 213.399 75.1031 213.597C75.255 213.838 75.1677 214.104 74.9774 214.135H74.9791Z" fill="#364954"/>
<path d="M170.784 217.672C170.501 217.613 170.193 217.618 169.91 217.672C169.9 217.464 170.183 217.345 170.427 217.518C170.632 217.34 170.819 217.502 170.784 217.674V217.672Z" fill="#364954"/>
<path d="M86.3637 188.358C86.3882 188.524 86.203 188.657 86.0162 188.505C85.8311 188.659 85.6442 188.529 85.6669 188.363L86.3655 188.358H86.3637Z" fill="#281F26"/>
<path d="M163.282 217.711C163.118 217.653 162.924 217.655 162.758 217.709C162.714 217.648 162.758 217.469 162.938 217.522C163.133 217.41 163.311 217.532 163.282 217.711Z" fill="#364954"/>
<path d="M177.216 213.751C177.214 213.835 177.183 213.941 177.266 214.108L199.492 213.987C199.627 214.223 199.791 214.139 199.885 214.09C199.964 214.291 199.978 214.485 199.972 214.692C199.618 214.693 199.295 214.905 199.206 215.398C199.473 215.524 199.718 215.58 199.955 215.566C200.009 216.171 200.048 216.782 199.934 217.553L181.791 217.677L176.168 217.66L176.178 214.041C176.332 214.053 176.414 213.912 176.351 213.73L177.216 213.751Z" fill="#0E1E36"/>
<path d="M84.4318 200.312C84.4387 200.337 84.4545 200.384 84.5016 200.454L84.5522 207.064C84.7478 207.405 84.7828 207.785 84.5645 208.227C84.781 208.444 85.153 208.573 85.5983 208.489L86.9884 208.603L87.6608 208.509C87.9873 208.544 88.2248 208.535 88.492 208.785C88.5147 209.236 88.4973 209.614 88.3925 210.008L89.0858 210.387C89.3285 210.396 89.36 210.636 89.2744 210.795C89.2447 210.889 89.1486 211.068 88.9007 211.045C88.7487 211.143 88.6527 211.253 88.5427 211.414C88.134 211.507 87.8703 211.849 87.9279 212.185L82.853 212.201L82.8269 208.253L78.8574 208.26L78.8242 202.299H80.7766L80.8238 200.312H84.43H84.4318Z" fill="#0E1E36"/>
<path d="M199.973 214.692C200.004 214.977 200.053 215.281 199.955 215.566C199.718 215.578 199.475 215.522 199.206 215.398C199.295 214.905 199.618 214.695 199.973 214.692Z" fill="#0E1D35"/>
<path d="M151.628 84.5939L147.741 84.5991C147.741 84.5694 147.737 84.5134 147.68 84.4347L147.704 80.6497L151.635 80.6357L151.628 84.5921V84.5939Z" fill="#0E1D35"/>
<path d="M156.146 187.833C156.129 187.887 156.155 188.045 156.349 188.008L183.913 187.859C183.948 188.053 183.997 188.284 183.957 188.562L183.948 193.801L156.193 193.949L156.209 199.881L158.301 199.895L162.133 199.861L162.162 202.485C162.133 202.488 162.075 202.494 161.981 202.45L161.96 200.213L157.309 200.232C157.222 200.435 157.073 200.426 156.913 200.369C156.672 200.222 156.445 200.209 156.218 200.271C156.214 200.181 156.214 200.075 156.157 199.919H152.266L152.236 195.97H148.302L148.293 199.945L144.343 199.975L144.348 205.915L140.396 205.99L140.387 207.944L138.431 208.003L138.381 209.946L132.499 209.971L132.506 206.48C132.453 206.256 132.637 206.058 132.857 206.113L137.048 206.086C137.357 206.069 137.626 206.034 137.913 205.911C138.092 205.971 138.211 205.939 138.332 205.901C138.375 205.782 138.456 205.625 138.424 205.402L138.396 200.685C138.307 200.414 138.424 200.188 138.637 200.008L144.334 199.952L144.294 194.014L116.82 194.158C116.523 193.885 116.439 193.622 116.551 193.288L116.499 191.364L116.481 188.73C116.368 188.443 116.565 188.085 116.923 188.219L144.388 188.052L144.433 182.313L147.912 182.292L147.937 185.914C148.122 185.993 148.157 186.122 148.123 186.306L151.068 186.259C151.459 186.103 151.812 186.124 152.323 186.184C152.36 185.806 152.238 185.367 152.411 184.888C152.505 184.366 152.479 183.842 152.421 183.319C152.309 182.955 152.337 182.626 152.44 182.243L155.537 182.257C155.648 182.409 155.779 182.413 155.928 182.423L155.968 187.672C155.947 187.817 156.08 187.866 156.143 187.838L156.146 187.833Z" fill="#0E1D35"/>
<path d="M207.726 175.833L207.747 179.742L203.742 179.785L203.821 187.733L207.769 187.709L207.818 189.659L211.755 189.671L211.805 193.615L215.721 193.624L215.783 199.59L219.713 199.574L219.795 201.535L221.735 201.549L221.775 207.503L217.8 207.543L217.792 211.487L211.908 211.522L211.863 213.515L199.981 213.597L199.885 214.088C199.79 214.137 199.626 214.223 199.492 213.985L177.266 214.106C177.182 213.938 177.213 213.831 177.215 213.749H180.018C180.144 213.717 180.243 213.693 180.313 213.696C180.441 213.733 180.573 213.745 180.706 213.737L199.705 213.637C199.885 213.665 199.932 213.522 199.925 213.457L199.92 209.829C200.061 209.618 200.3 209.532 200.581 209.612L211.383 209.551L211.851 209.451L211.882 207.667C212.036 207.566 212.133 207.529 212.268 207.496L215.794 207.463L215.748 199.742C215.598 199.65 215.473 199.634 215.34 199.595L212.207 199.599C212.02 199.658 211.88 199.545 211.865 199.44L211.835 198.014C211.791 197.792 211.802 197.558 211.828 197.334C211.863 197.211 211.863 197.084 211.823 196.961L211.796 195.559L211.77 193.664L207.811 193.689L207.778 191.756L203.837 191.772C203.812 191.714 203.802 191.655 203.802 191.597L203.788 188.27C203.8 188.109 203.795 187.982 203.749 187.87C203.704 187.817 203.617 187.721 203.403 187.717L183.911 187.852C183.96 187.798 183.974 187.726 183.949 187.66L183.888 182.082C183.981 182.092 184.063 182.008 184.017 181.9C184.061 181.879 184.108 181.876 184.155 181.888C184.232 181.923 184.314 181.921 184.391 181.874L188.202 181.856C188.268 181.9 188.339 181.9 188.406 181.855L193.262 181.828C193.556 181.89 193.865 181.881 194.157 181.835C194.436 181.786 194.733 181.786 195.012 181.835L196.423 181.821L199.551 181.795C199.661 181.863 199.762 181.774 199.764 181.655L199.771 175.808L207.022 175.78L207.724 175.827L207.726 175.833Z" fill="#0E1D35"/>
<path d="M99.8818 104.766L100.037 134.432C100.203 134.511 100.334 134.502 100.399 134.561L106.263 134.588L106.308 140.216L106.352 140.533C106.347 140.569 106.335 140.632 106.387 140.737L110.016 140.725L110.047 146.487L100.456 146.535L100.421 140.993C100.238 140.903 100.214 140.783 100.208 140.597L76.5296 140.722L76.5348 144.566L76.561 146.145C76.4929 146.406 76.6221 146.646 76.8893 146.668H78.489L78.5606 158.553L83.0697 158.536C83.5744 158.515 84.0389 158.482 84.5052 158.632L84.5087 162.174L84.5628 164.46L88.534 164.509L88.5951 170.412L91.8591 170.382C92.1105 170.379 92.3428 170.368 92.5454 170.562L92.5733 176.439L88.6353 176.403L88.5777 174.405L84.6431 174.433L84.603 170.473L82.6628 170.466L82.5999 166.519L78.6444 166.498L78.5746 158.567H74.64L74.5789 152.619L72.6073 152.601L72.5566 138.731L74.5056 138.698L74.5143 134.717L96.3524 134.6L96.1952 104.801L99.8818 104.766Z" fill="#0E1E36"/>
<path d="M203.359 104.239L203.519 133.965L206.306 134.021L225.329 133.925L225.398 137.9L227.355 137.918L227.427 151.793L225.476 151.812L225.483 157.785L221.536 157.806L221.55 165.744L217.591 165.81L217.605 169.709L215.625 169.777L215.634 173.373C215.672 173.622 215.47 173.807 215.223 173.749L211.708 173.77L211.692 175.771L207.728 175.836L207.697 169.803L211.663 169.733L211.631 163.94C211.731 163.863 211.877 163.832 212.019 163.818L215.581 163.78L215.534 157.976C215.8 157.838 216.156 157.799 216.528 157.869C216.828 157.81 217.104 157.81 217.398 157.847L221.545 157.813L221.522 152.022L221.51 150.621L221.496 149.925L221.508 145.909L223.421 145.878L223.415 144.036L223.435 143.798L223.414 139.969L222.542 139.959C222.548 139.877 222.575 139.77 222.499 139.609L206.357 139.695C206.282 139.856 206.312 139.962 206.317 140.045H205.968C205.971 139.964 205.992 139.859 205.935 139.697L199.728 139.728C199.723 140.006 199.616 140.118 199.337 140.123L199.363 145.846L189.948 145.895L189.917 140.309L193.546 140.282C193.595 140.181 193.586 140.12 193.583 140.087L193.625 139.761L193.591 134.357C193.675 134.351 193.747 134.271 193.724 134.175L199.477 134.072C199.508 133.932 199.655 133.902 199.822 133.916L199.695 104.274L200.014 104.225L203.357 104.243L203.359 104.239Z" fill="#0E1E36"/>
<path d="M115.98 182.238C116.053 182.287 116.128 182.283 116.195 182.243C116.341 182.19 116.463 182.285 116.467 182.456L116.477 187.899C116.334 188.032 116.128 188.148 115.842 188.062L108.865 188.088C108.582 188.265 108.284 188.265 107.99 188.101L97.196 188.16L96.6529 188.358L96.6651 191.242C96.4503 191.315 96.4817 191.532 96.6529 191.609C96.5044 191.917 96.5184 192.071 96.4957 192.314L92.6887 192.367L92.6625 194.282L88.7489 194.303L88.693 196.409L88.6965 197.435L88.7751 200.176L84.8755 200.283C84.755 200.547 84.7166 200.851 84.8563 201.147L84.886 207.073C84.8004 207.437 84.8248 207.764 84.858 208.122L85.9477 208.178L88.0416 208.169C88.2948 208.182 88.5114 208.176 88.7384 208.301L88.7925 209.52C88.672 209.814 88.7751 210.121 89.0999 210.202L100.582 210.135C100.764 210.356 100.762 210.581 100.771 210.84L100.793 213.976C100.767 214.041 100.811 214.2 101 214.16L119.834 214.057C119.988 214.013 120.157 214.001 120.312 214.034L122.618 213.99C122.914 213.985 123.171 213.989 123.384 214.043C123.48 214.324 123.7 214.611 123.966 214.805L124.516 214.648C124.556 214.753 124.586 214.898 124.568 215.082L124.547 217.959L100.785 218.094L100.711 214.121L88.8414 214.167L88.7821 212.177L87.9386 212.187C87.8809 211.851 88.1446 211.508 88.5533 211.416C88.6651 211.255 88.7594 211.145 88.9113 211.047C89.1593 211.069 89.2571 210.891 89.285 210.796C89.3706 210.636 89.3392 210.398 89.0964 210.389L88.4031 210.009C88.5061 209.616 88.5254 209.24 88.5026 208.787C88.2355 208.535 87.998 208.544 87.6714 208.51L86.999 208.605L85.6089 208.491C85.1636 208.575 84.7899 208.446 84.5751 208.229C84.7934 207.788 84.7585 207.407 84.5629 207.066L84.5122 200.456C84.4651 200.386 84.4476 200.339 84.4424 200.314C84.61 200.309 84.7882 200.185 84.7724 199.917L84.7445 194.31L88.7157 194.245L88.6965 190.315L92.6467 190.271V188.303L96.6389 188.293L96.59 180.354L92.6013 180.361L92.5839 176.443L92.9401 176.366L100.504 176.343L100.58 181.68C100.551 181.911 100.573 182.108 100.767 182.29L115.992 182.241L115.98 182.238Z" fill="#0E1D35"/>
<path d="M126.077 210.006L132.5 209.966L132.477 213.931L124.558 214.006C124.554 214.309 124.558 214.48 124.511 214.646L123.96 214.804C123.695 214.609 123.475 214.323 123.379 214.041L124.549 214.015L124.531 210.023L126.077 210.006Z" fill="#0E1E36"/>
<path d="M173.19 209.754H176.134L176.122 213.595C176.157 213.724 176.286 213.747 176.351 213.728C176.414 213.91 176.332 214.051 176.178 214.039C176.203 213.866 176.087 213.674 175.824 213.721L168.23 213.738L168.248 209.789L172.139 209.766L173.19 209.754Z" fill="#0E1D35"/>
<path d="M162.166 202.483V203.351C162.101 203.324 161.968 203.373 161.984 203.519L161.993 205.451C161.982 205.593 161.904 205.673 161.823 205.714C161.778 205.736 161.708 205.712 161.375 205.754C161.404 205.784 161.437 205.537 161.34 205.52C161.247 205.432 161.116 205.408 160.959 205.486C160.728 205.374 160.522 205.413 160.381 205.616C160.219 205.569 160.082 205.672 160.11 205.82L156.289 205.852L156.247 204.82C156.413 204.85 156.644 204.785 156.665 204.535C156.787 204.217 157.052 203.993 157.306 203.757C157.489 203.527 157.641 203.34 157.615 203.017C157.665 202.868 157.69 202.733 157.655 202.595L157.314 202.464L156.757 202.002C156.703 201.705 156.384 201.756 156.23 201.812L156.225 200.271C156.452 200.209 156.679 200.222 156.92 200.369C157.079 200.426 157.227 200.437 157.316 200.232L161.967 200.213L161.988 202.45C162.082 202.492 162.14 202.487 162.169 202.485L162.166 202.483Z" fill="#0E1E36"/>
<path d="M166.528 209.796L162.244 209.812L162.185 207.867C162.169 207.751 162.155 207.571 162.204 207.44L162.922 206.17C163.241 206.132 163.559 206.016 163.919 206.132L167.921 206.125V208.038C167.576 208.216 167.296 208.435 167.118 208.787C167.05 208.993 166.826 209.114 166.725 209.227C166.601 209.493 166.517 209.61 166.526 209.798L166.528 209.796Z" fill="#0E1E36"/>
<path d="M183.952 187.665C183.976 187.733 183.962 187.803 183.913 187.857L156.349 188.006C156.155 188.043 156.129 187.885 156.146 187.831V187.658C156.205 187.651 156.31 187.663 156.378 187.831L183.952 187.665Z" fill="#642429"/>
<path d="M203.804 191.604C203.774 191.609 203.716 191.621 203.622 191.574L203.596 189.703L196.282 189.731C196.141 189.753 196.005 189.801 195.886 189.886L195.877 193.734L187.959 193.801L187.973 199.73L166.175 199.852L166.187 203.767L168.101 203.844L168.168 205.77L172.127 205.773L172.184 209.574L173.023 209.577C173.162 209.57 173.209 209.689 173.19 209.754L172.139 209.766L168.248 209.789H168.15L168.161 207.346L168.1 205.768L163.919 205.805L162.296 205.796L162.167 203.351V202.483L162.138 199.859L158.306 199.893L156.214 199.879L156.198 193.948L183.953 193.799L183.962 188.56C184 188.282 183.953 188.051 183.918 187.857L203.411 187.723C203.624 187.726 203.711 187.824 203.757 187.875C203.802 187.987 203.807 188.114 203.795 188.275L203.809 191.602L203.804 191.604Z" fill="#642429"/>
<path d="M168.148 209.791L166.528 209.796C166.519 209.609 166.601 209.492 166.727 209.226C166.828 209.11 167.05 208.99 167.12 208.785C167.298 208.433 167.577 208.216 167.923 208.036V206.123L163.92 206.13C163.561 206.014 163.241 206.13 162.923 206.168L162.206 207.438C162.157 207.569 162.171 207.751 162.186 207.865L160.25 207.846L160.22 206.161L160.108 205.818C160.08 205.67 160.216 205.565 160.379 205.614C160.52 205.413 160.728 205.374 160.957 205.484C161.114 205.406 161.245 205.43 161.338 205.518C161.437 205.535 161.402 205.782 161.373 205.752C161.706 205.71 161.776 205.735 161.821 205.712C161.903 205.673 161.98 205.591 161.991 205.449L161.982 203.517C161.968 203.372 162.099 203.323 162.165 203.349L162.295 205.794L163.917 205.803L168.098 205.766L168.159 207.344L168.148 209.787V209.791Z" fill="#0E1D35"/>
<path d="M156.243 204.818L156.226 201.808C156.381 201.752 156.699 201.701 156.753 201.999L157.31 202.46L157.651 202.591C157.686 202.73 157.661 202.864 157.61 203.013C157.637 203.337 157.485 203.524 157.301 203.753C157.048 203.989 156.783 204.213 156.66 204.531C156.639 204.781 156.411 204.846 156.243 204.816V204.818Z" fill="#0E1D35"/>
<path d="M151.628 84.5938L151.694 88.5764L155.622 88.5676L155.678 94.518L159.63 94.5057L159.666 98.5094L161.662 98.5059L161.722 104.435L165.66 104.43L165.695 110.384L167.605 110.366L167.644 117.824C167.871 117.928 167.851 118.104 167.815 118.228C167.792 118.34 167.883 118.426 167.991 118.4L171.659 118.381L171.955 146.025C171.786 145.928 171.751 146.103 171.803 146.168L167.85 146.151L167.757 128.296L165.824 128.265L165.752 122.313L163.793 122.281L163.751 118.393L161.781 118.354L161.741 112.411L159.768 112.348L159.701 108.448L155.746 108.442L155.683 98.7385C155.617 98.5636 155.5 98.4919 155.339 98.5216L151.771 98.5426L151.666 94.5635L147.994 94.5897C147.828 94.6352 147.739 94.7436 147.746 94.9115L147.749 98.5234L143.991 98.5828C143.897 98.6196 143.836 98.6895 143.811 98.7875L143.823 104.521L139.857 104.568L139.878 110.515L135.93 110.559L135.949 118.48L132.013 118.543L132.037 126.465L128.265 126.491C128.206 126.477 128.145 126.472 128.085 126.475L128.04 118.764C128.022 118.711 128.021 118.66 128.035 118.608H128.394L130.659 118.569C131.14 118.498 131.559 118.475 132.004 118.529C131.978 118.095 131.912 117.667 132.039 117.184L132.015 110.567H133.897L133.888 104.598L137.851 104.573L137.828 98.6371L139.814 98.5986L139.796 94.6247L143.783 94.5932L143.762 88.6376L147.419 88.6061C147.493 88.6306 147.575 88.6446 147.683 88.6306C147.751 88.6219 147.821 88.5239 147.727 88.44L147.711 84.9768C147.775 84.8561 147.772 84.7249 147.741 84.6042L151.628 84.599V84.5938Z" fill="#E3C09A"/>
<path d="M147.711 84.9734L147.726 88.4366L147.515 88.4523C147.459 88.4733 147.41 88.531 147.419 88.6045L143.762 88.6359L143.783 94.5915L139.796 94.623L139.814 98.5969L137.828 98.6354L137.851 104.572L133.888 104.596L133.897 110.568H132.014C131.932 110.55 131.829 110.52 131.667 110.59L131.711 117.188C131.807 117.555 131.789 117.87 131.76 118.277C131.332 118.344 131.028 118.339 130.659 118.263H128.209C128.064 118.243 128.017 118.374 128.043 118.438L128.035 118.608C128.022 118.659 128.024 118.711 128.04 118.764C128.003 118.758 127.947 118.758 127.869 118.816L127.914 125.963C127.682 126.274 127.596 126.745 127.904 127.074L127.951 134.29C127.753 134.329 127.755 134.528 127.951 134.563L127.991 142.551C128.045 142.717 128.012 142.873 127.821 142.948L127.849 146.688C128.117 146.892 128.12 147.298 127.853 147.51L127.874 151.227C128.155 151.463 128.043 151.732 127.846 152.117L124.381 152.171L124.248 126.871C124.287 126.673 124.123 126.643 124.072 126.668C124.063 126.633 124.06 126.596 124.069 126.561C124.104 126.484 124.107 126.402 124.079 126.321C124.147 126.335 124.259 126.29 124.248 126.159L124.24 124.562C124.254 124.429 124.14 124.378 124.074 124.392L124.063 123.182C124.091 123.184 124.145 123.18 124.229 123.136L124.201 117.796C124.116 117.755 124.063 117.751 124.034 117.755V117.067C124.058 117.067 124.11 117.065 124.196 117.027L124.186 115.171C124.098 115.134 124.046 115.133 124.023 115.134L124.02 114.445C124.042 114.445 124.093 114.445 124.18 114.41L124.175 113.247C124.088 113.212 124.035 113.21 124.013 113.212L124.027 112.701V112.546L127.982 112.525L127.94 104.626L131.927 104.591L131.931 100.64L133.852 100.582L133.89 98.6616L135.872 98.6144L135.848 94.637L137.804 94.6195L137.811 90.6631L139.761 90.6072L139.824 88.6482L143.752 88.629L143.739 84.6725L147.554 84.6218C147.541 84.8195 147.595 84.9279 147.712 84.9786L147.711 84.9734Z" fill="#0E1E36"/>
<path d="M175.612 112.603L175.685 126.281C175.734 126.307 175.738 126.36 175.713 126.397C175.689 126.391 175.631 126.384 175.539 126.432L175.519 128.602C175.257 129.003 175.317 129.496 175.56 129.904L175.635 145.084C175.607 145.25 175.743 145.292 175.809 145.274C175.773 145.448 175.774 145.617 175.809 145.79C175.781 145.787 175.727 145.787 175.64 145.829L175.657 149.25C175.746 149.29 175.802 149.29 175.828 149.289C175.806 149.399 175.787 149.512 175.816 149.624L175.486 149.658L175.491 150.667L175.816 150.695L175.821 151.896L172.18 151.912L172.006 118.584C172.044 118.381 171.882 118.36 171.829 118.377H171.655C171.658 118.295 171.677 118.195 171.625 118.031L167.991 118.043L167.949 110.393C167.785 110.333 167.683 110.356 167.601 110.363L165.691 110.38L165.656 104.427L161.718 104.432L161.659 98.5025L159.662 98.506L159.626 94.5023L155.674 94.5146L155.618 88.5642L151.69 88.573L151.624 84.5903L155.607 84.5798L155.625 88.5607L159.605 88.5345L159.638 90.5022L161.601 90.5249L161.659 94.5181H163.616L163.663 98.457L165.619 98.4727L165.658 100.416L167.628 100.475L167.642 104.397L171.616 104.39L171.672 112.317L175.455 112.289C175.425 112.406 175.446 112.575 175.61 112.595L175.612 112.603Z" fill="#0E1E36"/>
<path d="M195.533 104.281C195.521 104.353 195.409 104.393 195.397 104.502L195.444 111.958C195.335 112.138 195.18 112.214 195.005 112.2L189.531 112.249L189.544 116.198L183.567 116.257L183.586 120.086C183.432 120.217 183.223 120.259 183.011 120.238L179.639 120.277L179.658 126.157C179.545 126.199 179.391 126.222 179.203 126.222L176.054 126.232L175.684 126.281L175.61 112.604L175.685 112.324C175.706 112.318 175.757 112.301 175.823 112.245L183.492 112.2C183.465 111.853 183.401 111.537 183.628 111.269V110.158C183.382 109.954 183.382 109.56 183.626 109.354L183.654 108.301L189.471 108.236L189.508 104.304L195.531 104.283L195.533 104.281Z" fill="#E3C09A"/>
<path d="M199.696 104.271L199.824 133.912C199.656 133.898 199.509 133.93 199.478 134.068L199.452 128.368L199.443 128.1L199.333 105.156C199.417 104.82 199.412 104.6 199.356 104.232L195.533 104.281L189.51 104.302L189.494 100.327L199.372 100.274V104.248C199.553 104.222 199.602 104.236 199.695 104.271H199.696Z" fill="#0E1D35"/>
<path d="M183.277 108.287L183.31 112.028L175.617 112.068L175.608 108.355L183.277 108.287Z" fill="#0E1E36"/>
<path d="M189.51 104.304L189.473 108.236L183.656 108.301C183.593 108.315 183.529 108.313 183.466 108.297L183.541 107.839L183.529 104.311L189.508 104.306L189.51 104.304Z" fill="#0E1E36"/>
<path d="M183.656 108.299L183.628 109.352C183.383 109.558 183.383 109.952 183.631 110.157V111.267C183.402 111.535 183.467 111.851 183.493 112.198L175.825 112.243C175.757 112.301 175.706 112.317 175.687 112.322L175.617 112.067L183.308 112.025L183.275 108.285C183.338 108.275 183.402 108.276 183.465 108.294C183.528 108.31 183.593 108.311 183.656 108.297V108.299Z" fill="#010101"/>
<path d="M115.967 108.714C115.99 108.747 116.023 108.757 116.058 108.745C116.058 108.775 116.065 108.827 116.126 108.895L116.153 112.555L122.034 112.527C122.106 112.719 122.266 112.75 122.418 112.691L124.025 112.696L124.011 113.207L124.018 114.44L124.022 115.129L124.032 117.064V117.751L124.062 123.178L124.072 124.389L124.079 126.316C124.107 126.397 124.104 126.479 124.069 126.556L121.105 126.528L120.11 126.479L120.078 120.576H116.537C116.373 120.572 116.24 120.518 116.18 120.494C116.114 120.373 116.093 120.238 116.123 120.074L116.116 116.604L110.138 116.618L110.079 112.652L106.212 112.628L106.144 110.714H104.183L104.139 105.102C104.099 105.02 104.099 104.964 104.101 104.936L104.096 104.747L110.051 104.712L110.126 108.652L115.258 108.659C115.531 108.63 115.791 108.619 115.967 108.712V108.714Z" fill="#E3C09A"/>
<path d="M115.968 108.714C115.791 108.619 115.531 108.63 115.259 108.661L110.126 108.654L110.051 104.713L104.096 104.748L100.224 104.782C100.133 104.535 100.135 104.243 100.151 103.925L100.175 100.787L110.06 100.757L110.074 104.729L116.05 104.677V108.376L115.968 108.715V108.714Z" fill="#0E1E36"/>
<path d="M124.018 112.334L116.327 112.38L116.31 108.698L116.652 108.645L123.985 108.628L124.018 112.334Z" fill="#0E1E36"/>
<path d="M100.224 104.782L100.355 128.541L100.397 134.561C100.334 134.502 100.201 134.511 100.035 134.432L99.8799 104.766C99.9864 104.797 100.109 104.832 100.222 104.78L100.224 104.782Z" fill="#0E1D35"/>
<path d="M124.018 112.334L124.024 112.54V112.696L122.419 112.691C122.267 112.75 122.104 112.719 122.035 112.526L116.153 112.554L116.127 108.895C116.066 108.829 116.059 108.775 116.059 108.745L116.31 108.698L116.328 112.38L124.02 112.334H124.018Z" fill="#010101"/>
<path d="M144.247 181.952L147.356 181.938C147.401 182.029 147.396 182.085 147.393 182.112L144.253 182.134L144.389 188.048L116.924 188.216C116.566 188.083 116.371 188.442 116.482 188.727L116.5 191.361L116.552 193.285C116.44 193.619 116.524 193.881 116.821 194.154L144.295 194.011L144.335 199.949L138.638 200.005C138.425 200.185 138.308 200.41 138.397 200.682L138.425 205.399C138.457 205.619 138.376 205.777 138.333 205.897C138.212 205.936 138.093 205.965 137.913 205.908C137.627 206.028 137.356 206.063 137.049 206.083L132.858 206.109C132.636 206.056 132.454 206.254 132.507 206.476L132.5 209.967L126.077 210.008C126.056 209.941 126.105 209.817 126.243 209.833L128.487 209.815L128.494 206.032L132.341 205.974C132.458 205.806 132.488 205.63 132.46 205.437L132.512 204.04L134.409 203.993L134.37 200.019L112.581 200.129L112.487 194.182L104.623 194.226L104.565 190.273L100.681 190.234L96.848 190.285C96.8411 190.679 96.9266 191.021 96.7625 191.506C96.8498 191.749 96.9336 192.099 96.6821 192.361L96.6559 194.261L92.7092 194.313L92.6743 196.207L89.3702 196.284C89.075 196.19 88.8637 196.269 88.6943 196.412L88.7502 194.306L92.6638 194.285L92.69 192.37L96.497 192.317C96.5215 192.074 96.5058 191.92 96.6542 191.613C96.4831 191.536 96.4516 191.317 96.6664 191.245L96.6542 188.361L97.1973 188.163L107.992 188.104C108.285 188.27 108.585 188.268 108.866 188.092L115.843 188.065C116.13 188.151 116.336 188.036 116.479 187.903C116.605 187.927 116.723 187.912 116.933 188.041L144.104 187.899L144.078 182.311C143.795 182.341 143.528 182.384 143.318 182.148L140.788 182.14C140.774 182.068 140.812 181.965 140.924 181.972L144.249 181.956L144.247 181.952Z" fill="#642429"/>
<path d="M167.893 164.009L167.916 169.597C167.895 169.791 167.93 169.942 167.977 170.046C167.988 170.078 167.983 170.108 167.967 170.137L165.293 170.09C165.014 170.095 164.734 170.141 164.429 170.034C164.228 170.039 164.121 170.139 164.069 170.228C164.045 170.33 164.02 170.485 164.074 170.66L164.09 174.682C164.027 175.152 164.038 175.568 164.106 176L162.712 176.055L160.974 176.076C160.669 175.958 160.395 175.983 160.098 176.095C160.037 176.527 160.03 176.908 160.098 177.328L160.129 182.04L156.989 182.049C156.698 181.982 156.415 181.996 156.123 182.066L156.148 187.66V187.833C156.083 187.861 155.95 187.812 155.971 187.667L155.931 182.418C155.781 182.407 155.65 182.404 155.54 182.251L152.444 182.238C152.339 182.621 152.311 182.949 152.424 183.313C152.482 183.836 152.508 184.361 152.414 184.882C152.243 185.361 152.363 185.8 152.327 186.178C151.815 186.119 151.464 186.099 151.071 186.253L148.127 186.301C148.16 186.117 148.123 185.989 147.94 185.909L147.915 182.286L144.436 182.307L144.391 188.046L144.255 182.133L147.395 182.11L147.741 182.105H147.92H148.093L148.111 185.781C148.092 185.928 148.223 185.975 148.287 185.947L152.122 185.925L152.108 182.262C152.159 182.183 152.155 182.126 152.15 182.089C152.536 181.938 153.009 182.028 153.486 181.986C153.842 181.84 154.204 181.858 154.544 181.961L156.137 181.956L156.086 175.953L158.701 175.962C159.176 176.065 159.626 176.037 160.079 175.951L160.068 169.992H163.384C163.62 170.083 163.835 169.985 163.908 169.877C164.003 169.772 164.05 169.625 163.98 169.443L163.922 168.742L163.912 165.425L164.032 164.042L167.893 164.003V164.009ZM165.3 169.812L167.74 169.765L167.712 164.36L165.255 164.318L164.226 164.273C164.167 164.761 164.16 165.053 164.221 165.424L164.233 168.74L164.242 169.817C164.617 169.851 164.946 169.896 165.302 169.81L165.3 169.812ZM163.779 175.717C163.802 175.222 163.83 174.989 163.774 174.687L163.77 170.835C163.863 170.669 163.851 170.522 163.748 170.409C163.706 170.356 163.568 170.251 163.388 170.297L160.243 170.34L160.295 175.733C160.491 175.857 160.739 175.899 160.971 175.766H162.712C163.068 175.867 163.44 175.846 163.779 175.717ZM159.82 180.112L159.773 177.338C159.921 176.975 159.883 176.628 159.745 176.27L156.261 176.303L156.291 181.75C156.516 181.798 156.76 181.832 156.979 181.736L159.934 181.694C159.934 181.158 160.063 180.642 159.82 180.112Z" fill="#281F26"/>
<path d="M76.8912 144.622L78.5153 144.645V146.634L84.4372 146.604L84.4791 146.971L84.5577 152.521L87.048 152.552L88.4678 152.603L88.5254 158.494L92.4861 158.515L92.535 164.409L96.5045 164.416L96.5534 168.369L100.498 168.388L100.546 170.337L104.482 170.358L104.527 176.317L116.376 176.249L116.418 178.201L120.365 178.241L120.438 182.194L136.281 182.11L136.255 176.574C136.234 176.415 136.168 176.331 136 176.161L132.32 176.174L132.271 170.194L129.292 170.225C128.973 170.222 128.667 170.274 128.295 170.129L128.26 164.399C128.424 164.457 128.623 164.416 128.63 164.219L132.294 164.21L132.277 166.293L132.301 170.134L133.546 170.171L135.969 170.164L135.991 170.384C136.045 170.477 136.138 170.503 136.229 170.48C136.176 170.783 136.168 171.126 136.229 171.516L136.225 173.963L136.279 176.228L138.305 176.126L139.838 176.076C139.824 176.24 139.912 176.383 140.044 176.536L140.067 181.926C140.216 182.101 140.333 182.159 140.457 182.124C140.563 182.078 140.682 182.087 140.787 182.143L143.317 182.152C143.527 182.388 143.794 182.344 144.077 182.315L144.103 187.903L116.932 188.045C116.722 187.915 116.603 187.931 116.477 187.906L116.467 182.463C116.462 182.292 116.341 182.197 116.195 182.25C116.195 182.089 115.995 182.066 115.98 182.245L100.755 182.294C100.561 182.112 100.539 181.914 100.568 181.683L100.491 176.347L92.9279 176.369L92.5717 176.446L92.5437 170.57C92.3412 170.375 92.1089 170.386 91.8574 170.389L88.5935 170.419L88.5324 164.516L84.5612 164.467L84.507 162.181L84.5035 158.639C84.0373 158.489 83.5727 158.522 83.068 158.543L78.559 158.56L78.4874 146.674H76.8877C76.6205 146.653 76.4913 146.413 76.5594 146.153L76.5332 144.573C76.652 144.552 76.7829 144.547 76.8912 144.627V144.622Z" fill="#883B2C"/>
<path d="M167.85 146.149L171.803 146.166L171.83 152.106L167.839 152.129C167.815 152.082 167.624 152.113 167.647 152.304L167.708 163.825L164.21 163.851C164.055 163.836 164.008 163.986 164.03 164.049L163.91 165.432L163.92 168.749L163.978 169.45C164.05 169.632 164.001 169.777 163.906 169.884C163.833 169.991 163.618 170.09 163.382 169.996H160.066L160.077 175.958C159.623 176.042 159.172 176.072 158.699 175.969L156.084 175.96L156.135 181.963L154.542 181.968C154.204 181.865 153.84 181.848 153.484 181.993C153.006 182.035 152.534 181.945 152.148 182.096C152.106 182.087 152.04 182.07 151.93 182.124L151.944 185.758L148.46 185.776L148.437 182.143C148.346 182.099 148.291 182.105 148.264 182.108H148.09H147.917C147.967 181.931 147.712 181.879 147.737 182.108L147.391 182.113C147.395 182.087 147.4 182.031 147.354 181.94L144.246 181.954L144.167 176.156L143.96 176.013C143.925 176.03 143.879 176.067 143.85 176.13H140.655L140.38 176.058L140.283 170.199L136.359 170.153C136.326 170.116 136.272 170.101 136.227 170.108L136.171 164.353C136.131 164.299 136.122 164.233 136.132 164.175C136.138 164.149 136.141 164.091 136.097 164.003L132.469 164.012L132.406 152.349C132.242 152.283 132.14 152.307 132.056 152.314L128.218 152.334L128.187 146.392C128.244 146.397 128.302 146.392 128.359 146.375L132.111 146.347L132.184 148.309L136.103 148.313L136.173 158.265L140.135 158.244L140.189 164.166L144.141 164.178L144.173 170.132L156.06 170.067L156.037 164.114L159.974 164.07L159.984 158.146L163.938 158.114L163.889 148.202L167.853 148.118L167.848 146.149H167.85Z" fill="#AE5A3E"/>
<path d="M124.068 126.558C124.06 126.593 124.063 126.629 124.072 126.664L124.206 152.346L128.219 152.334L128.246 158.277H128.09L124.755 158.303C124.645 158.344 124.531 158.344 124.423 158.31C124.365 158.286 124.301 158.284 124.247 158.3L124.227 152.353L120.244 152.376L120.225 148.367L116.294 148.405L116.274 146.434L111.441 146.457L110.248 146.488L110.185 140.552L106.352 140.534L106.308 140.218L106.263 134.589L100.398 134.563L100.356 128.543C100.419 128.531 100.48 128.545 100.529 128.587C100.601 128.629 100.723 128.66 100.879 128.62L106.257 128.592L106.282 134.558L110.222 134.549L110.26 138.472L112.197 138.513L112.256 140.485L116.227 140.489L116.278 142.43L120.185 142.39L120.109 126.482L121.105 126.531L124.068 126.559V126.558Z" fill="#AE5A3E"/>
<path d="M179.66 126.155L179.758 142.088L183.673 142.081L183.724 140.101L187.674 140.067L187.66 138.098L189.601 138.042L189.628 134.644C189.581 134.371 189.749 134.121 190.055 134.11L193.549 134.059V134.164C193.537 134.225 193.546 134.295 193.589 134.353L193.622 139.758L193.58 140.083L189.567 140.132L189.594 146.065L183.675 146.1L183.743 147.891C183.701 147.956 183.672 148.036 183.537 148.043L181.057 148.047L179.765 148.076L179.7 149.441L179.68 152.056L175.848 152.085L175.864 158.041H174.837L171.947 158.118L171.826 152.103L175.684 152.082C175.817 152.106 175.878 151.975 175.82 151.895L175.815 150.693V149.623C175.785 149.511 175.803 149.397 175.825 149.287L175.806 145.789C175.769 145.615 175.768 145.446 175.806 145.273L175.71 126.395C175.735 126.356 175.731 126.304 175.682 126.279L176.052 126.23L179.201 126.22C179.39 126.22 179.543 126.197 179.657 126.155H179.66Z" fill="#AE5A3E"/>
<path d="M110.046 146.488H110.247V152.245C110.294 152.32 110.301 152.372 110.303 152.398C110.224 152.426 110.144 152.433 110.063 152.421L110.042 146.661L100.402 146.707C100.495 146.606 100.387 146.492 100.278 146.539C100.285 146.478 100.266 146.364 100.102 146.322L100.064 140.772L76.7202 140.895L76.7115 142.303C76.6469 142.453 76.6818 142.618 76.8739 142.682L76.8896 144.619C76.7813 144.538 76.6504 144.543 76.5316 144.564L76.5264 140.72L100.205 140.596C100.21 140.781 100.235 140.9 100.418 140.991L100.453 146.534L110.044 146.485L110.046 146.488Z" fill="#CA855C"/>
<path d="M110.247 146.488H110.046L110.014 140.725L106.385 140.737C106.335 140.632 106.347 140.569 106.351 140.533L110.184 140.55L110.247 146.487V146.488Z" fill="#281F26"/>
<path d="M223.415 144.033L223.42 145.874L221.508 145.906L221.496 149.922L221.51 150.618L221.522 152.019L221.545 157.81L217.397 157.843C217.104 157.807 216.828 157.807 216.527 157.866C216.155 157.794 215.799 157.833 215.534 157.973L215.581 163.776L212.018 163.815C211.875 163.83 211.73 163.86 211.631 163.937L211.662 169.73L207.696 169.8L207.727 175.832L207.025 175.785L199.775 175.813L199.768 181.66C199.644 181.631 199.556 181.701 199.555 181.8L196.427 181.827L196.385 181.685H195.183C195.059 181.673 195.011 181.774 195.014 181.841C194.735 181.792 194.438 181.793 194.158 181.841C194.097 181.676 193.861 181.608 193.629 181.739C193.442 181.603 193.29 181.709 193.264 181.834L188.408 181.86C188.404 181.709 188.219 181.681 188.203 181.862L184.393 181.879C184.379 181.704 184.157 181.704 184.157 181.893C184.11 181.879 184.064 181.884 184.019 181.905C183.913 181.89 183.825 181.989 183.89 182.087L183.951 187.665L156.378 187.831C156.31 187.663 156.205 187.651 156.146 187.658L156.121 182.064C156.414 181.994 156.696 181.98 156.987 182.047L160.127 182.038L160.096 177.326C160.029 176.908 160.035 176.525 160.096 176.093C160.393 175.981 160.667 175.957 160.972 176.074L162.71 176.053L164.104 175.999C164.036 175.567 164.023 175.15 164.088 174.68L164.072 170.659C164.016 170.484 164.041 170.328 164.067 170.227C164.119 170.137 164.226 170.038 164.427 170.033C164.732 170.139 165.014 170.092 165.291 170.089L167.965 170.136L167.996 175.993L164.287 176.014C164.2 176.128 164.102 176.277 164.055 176.422L164.105 181.968L179.936 181.877L179.929 178.082C180.071 177.905 180.291 177.863 180.514 177.903L183.893 177.832L183.921 175.913L190.177 175.867L195.742 175.792L195.739 169.879L199.322 169.84C199.574 169.875 199.762 169.69 199.734 169.438L199.727 167.862L203.665 167.804L203.672 163.89L207.637 163.811L207.633 157.906L211.58 157.829L211.55 152.246C211.528 152.068 211.62 151.942 211.795 151.903L215.492 151.877L215.481 146.284L215.422 145.918L221.471 145.881L221.49 143.982C221.873 143.866 222.196 143.877 222.558 143.908C222.91 143.845 223.172 143.931 223.413 144.036L223.415 144.033Z" fill="#883B2C"/>
<path d="M223.434 143.795L223.415 144.033C223.174 143.926 222.912 143.842 222.559 143.905C222.199 143.873 221.874 143.863 221.492 143.978L221.473 145.878L215.423 145.915L199.718 145.997C199.678 145.958 199.682 145.824 199.822 145.843L199.869 140.249L223.036 140.129L223.106 141.295C223.336 141.626 223.336 142.124 223.114 142.457L223.09 143.805C223.249 143.844 223.348 143.805 223.432 143.798L223.434 143.795Z" fill="#CB835B"/>
<path d="M205.97 140.041L199.691 140.076L199.826 145.841C199.686 145.82 199.683 145.956 199.723 145.995C199.665 146.019 199.602 146.021 199.547 146.016L189.779 146.068L189.807 152.008L185.773 152.027L179.865 152.062L179.893 158.013L176.095 158.022C176.053 158.205 175.92 158.221 175.854 158.205C175.84 158.151 175.843 158.095 175.869 158.043L175.854 152.087L179.685 152.057L179.706 149.442L179.771 148.078L181.063 148.048L183.543 148.045L183.475 148.372L181.07 148.356C180.712 148.23 180.361 148.262 179.996 148.391L180.042 151.886L189.456 151.837L189.428 146.249L184.032 146.275L184.025 147.63C183.864 147.714 183.815 147.809 183.751 147.894L183.683 146.103L189.601 146.068L189.575 140.136L193.588 140.087C193.591 140.12 193.6 140.181 193.551 140.282L189.922 140.309L189.954 145.895L199.368 145.846L199.342 140.123C199.622 140.116 199.73 140.006 199.733 139.728L205.94 139.697C205.998 139.857 205.977 139.962 205.973 140.045L205.97 140.041ZM179.514 152.237L176.025 152.255L176.055 157.847L179.544 157.829L179.514 152.237Z" fill="#281F26"/>
<path d="M205.97 140.041H206.319L222.544 139.954L223.416 139.964L223.437 143.793C223.353 143.8 223.253 143.84 223.094 143.8L223.119 142.451C223.34 142.119 223.34 141.62 223.11 141.29L223.04 140.123L199.873 140.244L199.826 145.837L199.691 140.073L205.97 140.038V140.041Z" fill="#CA855C"/>
<path d="M222.542 139.956L206.317 140.041C206.312 139.959 206.282 139.852 206.357 139.691L222.499 139.606C222.575 139.767 222.547 139.873 222.542 139.956Z" fill="#281F26"/>
<path d="M199.478 134.07L193.725 134.173L193.551 134.166V134.061C193.537 133.977 193.544 133.89 193.575 133.806L199.302 133.786L199.279 128.408C199.368 128.361 199.426 128.366 199.452 128.37L199.478 134.07Z" fill="#A87E53"/>
<path d="M193.593 134.355C193.549 134.297 193.54 134.227 193.551 134.166L193.726 134.173C193.748 134.271 193.677 134.35 193.593 134.355Z" fill="#642429"/>
<path d="M196.425 181.827L195.014 181.841C195.01 181.776 195.059 181.674 195.183 181.685H196.385L196.427 181.827H196.425Z" fill="#642429"/>
<path d="M194.157 181.841C193.865 181.884 193.556 181.895 193.263 181.834C193.289 181.711 193.441 181.603 193.628 181.739C193.862 181.608 194.096 181.676 194.157 181.841Z" fill="#642429"/>
<path d="M184.391 181.879C184.314 181.926 184.232 181.928 184.155 181.893C184.155 181.704 184.377 181.704 184.391 181.879Z" fill="#642429"/>
<path d="M188.406 181.86C188.34 181.905 188.269 181.905 188.202 181.862C188.218 181.681 188.403 181.709 188.406 181.86Z" fill="#642429"/>
<path d="M199.553 181.8C199.554 181.701 199.644 181.631 199.766 181.66C199.762 181.778 199.661 181.869 199.553 181.8Z" fill="#642429"/>
<path d="M183.89 182.087C183.826 181.989 183.913 181.889 184.02 181.905C184.065 182.014 183.985 182.098 183.89 182.087Z" fill="#642429"/>
<path d="M116.194 182.245C116.128 182.285 116.051 182.287 115.979 182.239C115.997 182.061 116.194 182.084 116.194 182.245Z" fill="#642429"/>
<path d="M203.803 191.604C203.803 191.662 203.814 191.721 203.838 191.779L203.868 193.671L207.799 193.703L207.858 195.592L209.748 195.634L211.798 195.562L211.824 196.965C211.709 196.968 211.611 197.089 211.674 197.234C211.69 197.285 211.748 197.343 211.83 197.337C211.802 197.561 211.793 197.796 211.837 198.018C211.772 198.009 211.665 198.06 211.679 198.186L211.692 199.408C211.776 199.462 211.828 199.452 211.866 199.443C211.88 199.548 212.022 199.662 212.209 199.602L215.342 199.599C215.476 199.637 215.6 199.653 215.75 199.746L215.796 207.466L212.27 207.499C212.137 207.534 212.037 207.569 211.884 207.671L211.852 209.455L211.384 209.555L200.583 209.616C200.302 209.535 200.064 209.621 199.921 209.833L199.927 213.46L180.897 213.563C180.718 213.53 180.683 213.681 180.706 213.738C180.573 213.745 180.441 213.735 180.313 213.698L180.128 213.406L180.088 209.714L176.134 209.754H173.19C173.209 209.691 173.162 209.572 173.022 209.579L172.184 209.576L172.126 205.775L168.167 205.771L168.101 203.846L166.187 203.769L166.175 199.854L187.973 199.732L187.959 193.802L195.877 193.736L195.885 189.888C196.004 189.802 196.14 189.753 196.282 189.732L203.596 189.704L203.622 191.576C203.716 191.621 203.774 191.611 203.803 191.606V191.604Z" fill="#883B2C"/>
<path d="M211.799 195.564L209.749 195.635L207.859 195.593L207.8 193.704L203.869 193.671L203.839 191.779L207.78 191.761L207.812 193.694L211.773 193.669L211.799 195.564Z" fill="#642429"/>
<path d="M199.927 213.46C199.934 213.525 199.887 213.668 199.707 213.64L180.708 213.74C180.686 213.682 180.719 213.532 180.899 213.565L199.929 213.462L199.927 213.46Z" fill="#642429"/>
<path d="M211.867 199.443C211.828 199.452 211.776 199.463 211.692 199.408L211.68 198.186C211.666 198.06 211.773 198.009 211.837 198.018L211.867 199.443Z" fill="#642429"/>
<path d="M211.829 197.339C211.746 197.344 211.69 197.287 211.674 197.236C211.611 197.091 211.709 196.972 211.824 196.967C211.864 197.089 211.864 197.217 211.829 197.339Z" fill="#642429"/>
<path d="M126.077 210.006L124.531 210.023L120.546 210.036L120.539 213.845C120.359 213.871 120.315 213.971 120.307 214.032C120.151 214.001 119.984 214.011 119.828 214.055C119.837 213.983 119.795 213.854 119.627 213.885L100.789 213.974L100.767 210.838C100.758 210.579 100.758 210.354 100.578 210.133L89.0959 210.2C88.7711 210.119 88.6663 209.812 88.7885 209.518L88.7344 208.299C88.5074 208.174 88.2908 208.18 88.0376 208.167L85.9437 208.176L84.854 208.12C84.8208 207.76 84.7964 207.435 84.8819 207.071L84.8522 201.145C84.7125 200.849 84.7527 200.545 84.8715 200.281L88.7711 200.174L88.8496 197.484C88.7676 197.442 88.7169 197.433 88.6925 197.433L88.689 196.407C88.8584 196.265 89.0697 196.185 89.3648 196.279L92.6689 196.202L92.7038 194.308L96.6506 194.255L96.6768 192.356C96.93 192.094 96.8462 191.744 96.7571 191.501C96.9213 191.016 96.8357 190.673 96.8427 190.28L100.676 190.229L104.56 190.267L104.617 194.22L112.481 194.177L112.576 200.124L134.365 200.013L134.403 203.987L132.507 204.034L132.454 205.432C132.482 205.626 132.453 205.801 132.336 205.969L128.488 206.027L128.481 209.81L126.237 209.827C126.098 209.812 126.05 209.936 126.071 210.002L126.077 210.006Z" fill="#883B2C"/>
<path d="M124.533 210.023L124.55 214.015L123.38 214.041C123.167 213.985 122.912 213.983 122.614 213.989L120.309 214.032C120.317 213.971 120.361 213.871 120.541 213.845L120.548 210.036L124.533 210.023Z" fill="#642429"/>
<path d="M119.831 214.057L100.996 214.16C100.808 214.2 100.764 214.041 100.79 213.976L119.628 213.887C119.796 213.856 119.839 213.985 119.829 214.057H119.831Z" fill="#642429"/>
<path d="M180.315 213.698C180.245 213.693 180.144 213.719 180.02 213.749H177.217L176.353 213.728C176.288 213.745 176.159 213.724 176.124 213.595L176.136 209.754L180.09 209.714L180.13 213.406L180.315 213.698Z" fill="#642429"/>
<path d="M88.7729 200.176L88.6943 197.435C88.7188 197.435 88.7694 197.444 88.8515 197.486L88.7729 200.176Z" fill="#642429"/>
<path d="M167.85 146.149L167.855 148.118L163.891 148.202L163.94 158.114L159.986 158.146L159.976 164.07L156.04 164.114L156.062 170.068L144.175 170.132L144.143 164.178L140.191 164.166L140.137 158.244L136.175 158.265L136.105 148.313L132.186 148.309L132.113 146.347L128.362 146.375L128.266 126.488L132.038 126.461L132.013 118.54L135.95 118.477L135.93 110.555L139.879 110.512L139.858 104.565L143.824 104.518L143.812 98.7841C143.836 98.6861 143.897 98.6144 143.992 98.5794L147.75 98.52L147.746 94.9081C147.739 94.7402 147.828 94.6318 147.994 94.5863L151.667 94.5601L151.772 98.5392L155.339 98.5182C155.498 98.4885 155.617 98.5602 155.683 98.7351L155.746 108.439L159.702 108.444L159.768 112.345L161.741 112.408L161.782 118.351L163.751 118.389L163.793 122.278L165.753 122.309L165.824 128.261L167.758 128.293L167.85 146.147V146.149Z" fill="#CB835B"/>
<path d="M171.829 152.106L171.95 158.121L174.793 158.205C174.835 158.12 174.842 158.067 174.838 158.044H175.865C175.841 158.097 175.837 158.153 175.849 158.207L175.874 158.396L175.706 158.426L175.717 161.646C175.593 161.756 175.505 161.842 175.388 161.88L173.336 161.873C173.141 161.579 172.772 161.654 172.629 161.948C172.308 161.775 172.105 161.891 172.002 162.065C171.821 162.653 171.952 163.26 171.899 163.996L167.891 164.01L167.839 152.131L171.829 152.108V152.106Z" fill="#0E1D35"/>
<path d="M175.824 151.898C175.881 151.979 175.82 152.108 175.688 152.085L171.83 152.106L171.804 146.166C171.751 146.102 171.786 145.929 171.956 146.023L171.833 118.377C171.886 118.36 172.048 118.381 172.01 118.584L172.184 151.912L175.826 151.896L175.824 151.898Z" fill="#0E1D35"/>
<path d="M171.955 146.023L171.658 118.381L171.833 118.379L171.955 146.023Z" fill="#364954"/>
<path d="M132.011 110.564L132.036 117.181C131.908 117.663 131.975 118.092 132.001 118.526C131.555 118.472 131.138 118.494 130.656 118.566L128.391 118.608C128.388 118.417 128.196 118.368 128.04 118.437C128.014 118.372 128.061 118.239 128.206 118.26H130.656C131.023 118.337 131.328 118.342 131.756 118.276C131.786 117.87 131.803 117.553 131.707 117.186L131.664 110.588C131.826 110.52 131.929 110.548 132.011 110.566V110.564Z" fill="#0E1D35"/>
<path d="M171.659 118.381L167.991 118.4C168.023 118.286 167.934 118.197 167.815 118.228C167.852 118.104 167.871 117.928 167.644 117.824L167.605 110.366C167.688 110.359 167.789 110.337 167.953 110.396L167.995 118.047L171.629 118.034C171.68 118.197 171.662 118.298 171.659 118.382V118.381Z" fill="#0E1D35"/>
<path d="M147.726 88.4366C147.821 88.5205 147.751 88.6185 147.683 88.6272C147.574 88.6412 147.492 88.6272 147.419 88.6027C147.41 88.531 147.459 88.4715 147.515 88.4506L147.726 88.4348V88.4366Z" fill="#364954"/>
<path d="M167.991 118.4C167.885 118.426 167.792 118.341 167.815 118.229C167.934 118.197 168.023 118.286 167.991 118.4Z" fill="#364956"/>
<path d="M128.086 126.472L128.19 146.392L128.222 152.334L124.209 152.346L124.074 126.664C124.125 126.638 124.289 126.668 124.251 126.867L124.383 152.167L127.848 152.113C128.045 151.727 128.157 151.459 127.876 151.223L127.855 147.506C128.122 147.296 128.119 146.891 127.852 146.684L127.824 142.945C128.014 142.871 128.049 142.714 127.993 142.548L127.953 134.56C127.757 134.523 127.756 134.323 127.953 134.287L127.906 127.07C127.598 126.743 127.684 126.271 127.916 125.959L127.871 118.813C127.949 118.755 128.005 118.755 128.042 118.76L128.087 126.472H128.086Z" fill="#281F26"/>
<path d="M132.058 152.314C132.023 152.498 132.105 152.643 132.242 152.825L132.294 164.206L128.63 164.215L128.274 164.231L128.263 162.298L124.259 162.317L124.245 158.303C124.299 158.288 124.364 158.289 124.422 158.314L124.434 161.964L128.256 161.95C128.225 162.127 128.256 162.26 128.443 162.338L128.463 164.042L131.945 164.018L131.884 152.5L128.407 152.51V153.696C128.651 153.764 128.651 154.034 128.429 154.119C128.386 154.476 128.3 154.879 128.56 155.199L128.595 157.88C128.414 157.941 128.389 158.076 128.424 158.186C128.407 158.242 128.34 158.303 128.246 158.281L128.22 152.337L132.058 152.318V152.314Z" fill="#281F26"/>
<path d="M124.064 123.18L124.032 117.753C124.062 117.749 124.116 117.753 124.2 117.795L124.228 123.135C124.144 123.178 124.09 123.182 124.062 123.18H124.064Z" fill="#281F26"/>
<path d="M124.032 117.065L124.021 115.131C124.046 115.131 124.097 115.131 124.184 115.168L124.194 117.023C124.109 117.06 124.056 117.065 124.032 117.064V117.065Z" fill="#281F26"/>
<path d="M124.079 126.318L124.072 124.39C124.139 124.376 124.252 124.425 124.238 124.56L124.247 126.157C124.259 126.286 124.146 126.334 124.078 126.32L124.079 126.318Z" fill="#281F26"/>
<path d="M124.02 114.442L124.013 113.209C124.035 113.209 124.086 113.209 124.175 113.244L124.18 114.407C124.093 114.442 124.042 114.444 124.02 114.442Z" fill="#281F26"/>
<path d="M128.393 118.608H128.033L128.042 118.437C128.197 118.368 128.389 118.419 128.393 118.608Z" fill="#364956"/>
<path d="M175.811 145.274C175.745 145.292 175.609 145.25 175.637 145.084L175.562 129.903C175.319 129.496 175.26 129.003 175.522 128.602L175.541 126.432C175.633 126.384 175.691 126.391 175.715 126.397L175.811 145.274Z" fill="#0E1D35"/>
<path d="M175.83 149.289C175.804 149.29 175.748 149.29 175.659 149.25L175.642 145.829C175.729 145.787 175.785 145.787 175.811 145.79L175.83 149.289Z" fill="#0E1D35"/>
<path d="M175.818 149.624L175.82 150.695L175.494 150.668L175.488 149.658L175.818 149.624Z" fill="#0E1D35"/>
<path d="M199.443 128.102L193.586 128.134L193.575 133.806C193.544 133.89 193.537 133.977 193.552 134.061L190.058 134.112C189.752 134.124 189.583 134.372 189.632 134.645L189.604 138.044L187.664 138.1L187.678 140.069L183.727 140.102L183.677 142.082L179.762 142.089L179.664 126.157L179.645 120.277L183.017 120.238C183.228 120.259 183.439 120.217 183.591 120.086L183.572 116.257L189.55 116.198L189.536 112.248L195.011 112.199C195.187 112.213 195.341 112.138 195.449 111.958L195.402 104.502C195.414 104.393 195.526 104.355 195.538 104.281L199.361 104.232C199.417 104.6 199.422 104.82 199.338 105.156L199.448 128.1L199.443 128.102Z" fill="#CA855C"/>
<path d="M199.443 128.102L199.452 128.37C199.425 128.364 199.368 128.361 199.279 128.408L199.301 133.787L193.575 133.806L193.586 128.134L199.443 128.102Z" fill="#AE5A3E"/>
<path d="M104.099 104.937C104.097 104.967 104.099 105.021 104.137 105.103L104.181 110.715H106.142L106.21 112.63L110.077 112.654L110.136 116.619L116.114 116.605L116.121 120.076C116.093 120.24 116.114 120.375 116.178 120.495C116.238 120.52 116.37 120.574 116.535 120.576H120.076L120.108 126.481L120.183 142.388L116.276 142.429L116.225 140.487L112.254 140.484L112.195 138.511L110.258 138.471L110.22 134.547L106.28 134.556L106.256 128.59L100.877 128.618C100.721 128.658 100.599 128.627 100.528 128.585L100.405 105.002C100.561 104.871 100.739 104.93 100.789 105.119L102.11 105.114C102.174 104.92 102.338 104.888 102.487 104.95L104.097 104.939L104.099 104.937Z" fill="#CB835B"/>
<path d="M104.096 104.748L104.101 104.937L102.491 104.948C102.341 104.888 102.178 104.918 102.114 105.112L100.793 105.117C100.743 104.927 100.563 104.867 100.409 105L100.531 128.583C100.481 128.543 100.421 128.527 100.359 128.539L100.228 104.78L104.099 104.747L104.096 104.748Z" fill="#CA855C"/>
<path d="M143.853 176.13C143.926 176.202 144.024 176.207 144.171 176.156L144.249 181.954L140.924 181.97C140.812 181.965 140.774 182.066 140.788 182.138C140.683 182.082 140.564 182.075 140.458 182.119L140.414 181.975L140.393 178.174C140.201 178.108 140.166 177.944 140.226 177.791L140.208 176.034C140.267 176.027 140.327 176.034 140.383 176.056L140.659 176.126H143.853V176.13Z" fill="#0E1D35"/>
<path d="M140.285 170.199L140.207 176.035C140.084 176.025 139.96 176.025 139.838 176.072L138.305 176.123L136.279 176.224L136.225 173.959L136.229 171.512C136.166 171.122 136.174 170.779 136.229 170.477C136.359 170.416 136.38 170.283 136.361 170.153L140.285 170.199Z" fill="#0E1D35"/>
<path d="M215.426 145.915L215.485 146.28L215.496 151.874L211.799 151.9C211.624 151.94 211.531 152.064 211.554 152.243L211.584 157.826L207.637 157.903L207.641 163.808L203.676 163.886L203.669 167.801L199.731 167.858L199.738 169.434C199.766 169.686 199.578 169.872 199.326 169.837L195.743 169.875L195.746 175.789L190.181 175.864L183.925 175.909L183.897 177.828L180.518 177.9C180.294 177.86 180.074 177.903 179.933 178.078L179.94 181.874L164.109 181.965L164.059 176.418C164.106 176.273 164.204 176.126 164.291 176.011L168 175.99L167.969 170.132C167.984 170.104 167.988 170.073 167.979 170.041L169.684 170.029L171.587 169.977C171.83 169.994 171.992 169.816 171.963 169.573L171.949 164.014L175.878 163.984L175.902 162.037L175.878 158.389L175.853 158.2C175.92 158.216 176.053 158.2 176.094 158.016L179.893 158.008L183.754 157.981L183.771 155.699L183.805 154.476C183.803 154.146 184.089 153.955 184.404 154.049L185.465 153.98C185.68 154.067 185.818 153.896 185.795 153.735C185.871 153.75 186 153.794 186.173 153.712C186.398 153.679 186.583 153.836 186.508 154.128C186.718 154.207 186.787 154.06 186.807 154.002C186.866 153.883 186.854 153.743 186.796 153.619C186.967 153.507 186.992 153.439 186.99 153.184C186.808 153.178 186.585 152.998 186.695 152.706C186.59 152.54 186.585 152.377 186.7 152.211L188.59 152.188C189.077 152.143 189.517 152.222 189.981 152.372C190.142 152.339 190.231 152.467 190.257 152.526L190.273 153.005C190.174 153.313 190.146 153.642 190.502 153.777C190.678 153.7 190.802 153.819 190.832 153.957C191.174 153.868 191.207 153.862 191.642 153.896C191.502 153.82 191.494 153.546 191.775 153.596C191.806 153.561 191.838 153.425 191.864 153.201C191.637 153.065 191.372 152.955 191.031 152.956C190.944 152.584 190.753 152.47 190.507 152.358L190.537 152.024L192.587 152.017C192.554 152.265 192.709 152.423 192.896 152.486C193.167 152.563 193.371 152.465 193.52 152.157C193.623 152.157 193.626 152.071 193.577 152.035C193.675 151.991 193.804 151.949 193.996 151.973L195.641 151.882L195.671 147.985L199.574 147.942L199.599 146.184C199.553 146.131 199.539 146.07 199.551 146.007C199.607 146.012 199.67 146.011 199.728 145.986L215.433 145.904L215.426 145.915Z" fill="#B0593D"/>
<path d="M175.901 162.043L175.876 163.989L171.947 164.019L171.961 169.578C171.989 169.821 171.828 169.999 171.585 169.982L169.682 170.034L167.977 170.046C167.93 169.942 167.895 169.791 167.916 169.597L167.894 164.009L171.901 163.995C171.954 163.258 171.823 162.651 172.004 162.064L175.902 162.043H175.901Z" fill="#883B2C"/>
<path d="M159.82 180.112C160.063 180.642 159.935 181.158 159.933 181.694L156.978 181.736C156.76 181.832 156.516 181.8 156.29 181.75L156.261 176.303L159.745 176.27C159.883 176.628 159.921 176.973 159.773 177.338L159.82 180.112Z" fill="#0E1D35"/>
<path d="M165.3 169.812C164.943 169.898 164.617 169.852 164.24 169.819L164.231 168.742L164.219 165.426C164.159 165.055 164.165 164.763 164.224 164.275L165.253 164.32L167.71 164.362L167.738 169.767L165.298 169.814L165.3 169.812Z" fill="#0E1E36"/>
<path d="M163.779 175.717C163.44 175.848 163.068 175.867 162.712 175.764H160.97C160.738 175.899 160.49 175.857 160.295 175.733L160.242 170.34L163.387 170.297C163.567 170.251 163.703 170.356 163.747 170.408C163.85 170.522 163.864 170.669 163.77 170.835L163.773 174.687C163.829 174.989 163.801 175.222 163.779 175.717Z" fill="#0E1D35"/>
<path d="M167.893 164.009L164.032 164.047C164.009 163.984 164.055 163.834 164.212 163.85L167.71 163.823L167.649 152.302C167.626 152.112 167.814 152.08 167.841 152.127L167.893 164.007V164.009Z" fill="#A87E53"/>
<path d="M152.149 182.094C152.154 182.131 152.157 182.189 152.107 182.267L152.121 185.93L148.286 185.953L148.265 182.108C148.293 182.105 148.348 182.099 148.438 182.143L148.46 185.776L151.944 185.759L151.93 182.124C152.04 182.07 152.107 182.087 152.149 182.096V182.094Z" fill="#A87E53"/>
<path d="M148.286 185.953C148.221 185.979 148.09 185.932 148.109 185.786L148.092 182.11H148.266L148.287 185.953H148.286Z" fill="#642429"/>
<path d="M147.919 182.108H147.739C147.715 181.879 147.969 181.931 147.919 182.108Z" fill="#642429"/>
<path d="M100.278 146.541C100.387 146.493 100.497 146.609 100.402 146.709C100.357 147.251 100.34 147.837 100.45 148.466L103.373 148.519C103.427 148.706 103.523 148.879 103.782 148.961L104.321 148.993C104.309 149.068 104.34 149.177 104.377 149.306L104.403 152.453L110.061 152.425C110.144 152.437 110.224 152.428 110.301 152.402C110.348 152.384 110.4 152.388 110.447 152.421C110.393 152.58 110.447 152.802 110.678 152.855C110.984 153.004 111.305 152.928 111.5 152.629L113.046 152.615C113.292 152.521 113.53 152.678 113.559 152.946C113.699 153.101 113.813 153.14 114.034 153.278C114.019 153.173 114.132 153.087 114.232 153.191C114.296 153.36 114.316 153.546 114.303 153.815C114.263 154.039 114.277 154.247 114.406 154.419L116.291 154.41L116.34 158.357L120.049 158.333C120.119 158.322 120.189 158.321 120.26 158.331L124.244 158.307L124.258 162.321L124.293 164.271L128.272 164.234L128.258 164.4L128.293 170.13C128.665 170.277 128.971 170.223 129.291 170.227L132.27 170.195L132.319 176.175L135.998 176.163C136.168 176.331 136.234 176.415 136.253 176.576L136.279 182.112L120.437 182.196L120.363 178.243L116.416 178.202L116.375 176.25L104.526 176.319L104.48 170.36L100.544 170.339L100.497 168.39L96.5517 168.371L96.5028 164.418L92.5334 164.411L92.4845 158.517L88.5238 158.496L88.4661 152.605L87.0463 152.554L84.556 152.523L84.4775 146.973L84.4355 146.605L100.275 146.544L100.278 146.541Z" fill="#B0593D"/>
<path d="M100.278 146.541L84.4385 146.602L78.5149 146.632V144.643L76.8908 144.62L76.8751 142.684C76.6812 142.619 76.6481 142.455 76.7127 142.304L76.7214 140.896L100.065 140.774L100.103 146.324C100.267 146.366 100.287 146.479 100.28 146.541H100.278Z" fill="#CB835B"/>
<path d="M140.209 176.035L140.226 177.793C140.167 177.945 140.2 178.108 140.394 178.176L140.415 181.977L140.459 182.12C140.336 182.157 140.218 182.098 140.069 181.923L140.046 176.532C139.914 176.378 139.826 176.237 139.84 176.072C139.963 176.025 140.085 176.025 140.209 176.035Z" fill="#642429"/>
<path d="M140.384 176.058C140.328 176.035 140.268 176.028 140.209 176.035L140.288 170.199L140.384 176.058Z" fill="#642429"/>
<path d="M124.247 158.3L120.264 158.324C120.264 158.281 120.267 158.221 120.224 158.135L120.208 152.377L114.255 152.407L110.448 152.416C110.401 152.384 110.35 152.381 110.301 152.397C110.301 152.37 110.292 152.318 110.245 152.243V146.487L111.436 146.455L116.27 146.432L116.289 148.404L120.22 148.365L120.239 152.374L124.223 152.351L124.242 158.298L124.247 158.3Z" fill="#0E1D35"/>
<path d="M110.063 152.423L104.405 152.451L104.379 149.304C104.342 149.177 104.312 149.068 104.323 148.991L104.384 148.526C104.035 148.451 103.687 148.451 103.375 148.519L100.451 148.466C100.341 147.837 100.357 147.251 100.404 146.709L110.044 146.663L110.065 152.423H110.063Z" fill="#CB835B"/>
<path d="M183.541 148.047C183.675 148.04 183.703 147.959 183.747 147.894C183.811 147.809 183.86 147.714 184.021 147.63L184.028 146.275L189.424 146.249L189.452 151.837L180.038 151.886L179.992 148.391C180.357 148.262 180.708 148.23 181.066 148.356L183.471 148.372L183.539 148.045L183.541 148.047Z" fill="#0E1D35"/>
<path d="M185.773 152.029L185.794 153.74C185.817 153.901 185.679 154.072 185.464 153.985L184.402 154.055C184.089 153.96 183.801 154.151 183.803 154.482L183.77 155.704L183.752 157.987L179.891 158.013L179.863 152.063L185.771 152.028L185.773 152.029Z" fill="#CA855C"/>
<path d="M179.513 152.241L176.023 152.259L176.053 157.851L179.542 157.832L179.513 152.241Z" fill="#0E1E36"/>
<path d="M189.805 152.01L189.99 152.003L190.533 152.031L190.503 152.365C190.749 152.477 190.94 152.591 191.027 152.963C191.368 152.962 191.633 153.072 191.86 153.208C191.836 153.434 191.802 153.569 191.771 153.604C191.488 153.553 191.499 153.827 191.638 153.903C191.203 153.869 191.168 153.875 190.828 153.964C190.798 153.826 190.674 153.707 190.498 153.784C190.142 153.649 190.17 153.32 190.269 153.012L190.253 152.533C190.227 152.474 190.138 152.346 189.977 152.379C189.515 152.229 189.075 152.15 188.586 152.196L186.696 152.218C186.583 152.384 186.588 152.547 186.691 152.713C186.581 153.005 186.804 153.186 186.986 153.191C186.986 153.446 186.963 153.514 186.792 153.626C186.85 153.749 186.862 153.89 186.803 154.009C186.783 154.067 186.714 154.214 186.504 154.135C186.581 153.843 186.396 153.686 186.169 153.719C185.996 153.801 185.865 153.757 185.791 153.742L185.771 152.031L189.805 152.012V152.01Z" fill="#AE5A3E"/>
<path d="M199.545 146.018C199.532 146.079 199.546 146.142 199.592 146.194L189.952 146.245L189.99 152.005L189.805 152.012L189.777 146.072L199.545 146.02V146.018Z" fill="#CA855C"/>
<path d="M128.362 146.375C128.306 146.392 128.246 146.397 128.189 146.392L128.084 126.472C128.143 126.468 128.203 126.472 128.264 126.488L128.36 146.375H128.362Z" fill="#CA855C"/>
<path d="M135.958 164.175C135.931 164.302 136.038 164.386 136.171 164.353L136.227 170.108C136.141 170.097 136.048 170.113 135.968 170.16L133.546 170.167L132.301 170.13L132.276 166.289L132.294 164.206L135.958 164.175Z" fill="#0E1D35"/>
<path d="M136.132 164.173H135.957L132.294 164.205L132.241 152.823C132.105 152.642 132.023 152.496 132.058 152.313C132.14 152.306 132.243 152.281 132.407 152.348L132.47 164.01L136.099 164.002C136.144 164.091 136.139 164.147 136.134 164.173H136.132Z" fill="#A87E53"/>
<path d="M136.362 170.151C136.381 170.281 136.358 170.414 136.229 170.475C136.138 170.499 136.046 170.471 135.991 170.379L135.969 170.158C136.051 170.111 136.143 170.095 136.227 170.106C136.274 170.099 136.328 170.115 136.36 170.151H136.362Z" fill="#642429"/>
<path d="M136.173 164.352C136.04 164.386 135.934 164.301 135.96 164.173H136.135C136.124 164.229 136.133 164.297 136.173 164.352Z" fill="#642429"/>
<path d="M144.169 176.156C144.023 176.207 143.925 176.202 143.852 176.13C143.881 176.067 143.927 176.03 143.962 176.013L144.169 176.156Z" fill="#642429"/>
<path d="M199.592 146.193L199.567 147.95L195.664 147.994L195.634 151.891L193.989 151.982C193.799 151.958 193.668 152 193.57 152.043C193.249 151.938 192.905 151.973 192.58 152.026L190.53 152.033L189.987 152.005L189.948 146.245L199.588 146.194L199.592 146.193Z" fill="#CB835B"/>
<path d="M175.901 162.043L172.003 162.064C172.106 161.889 172.309 161.773 172.63 161.947C172.773 161.653 173.142 161.578 173.337 161.871L175.389 161.878C175.508 161.84 175.593 161.753 175.717 161.644L175.707 158.424L175.875 158.394L175.899 162.043H175.901Z" fill="#281F26"/>
<path d="M193.572 152.042C193.621 152.08 193.619 152.166 193.514 152.164C193.366 152.472 193.16 152.57 192.891 152.493C192.704 152.43 192.548 152.273 192.582 152.024C192.906 151.97 193.249 151.935 193.572 152.042Z" fill="#AE5A3E"/>
<path d="M120.052 158.328L116.343 158.352L116.294 154.404L114.41 154.413C114.281 154.242 114.267 154.034 114.307 153.81C114.319 153.54 114.298 153.355 114.235 153.185C114.312 152.998 114.305 152.788 114.272 152.589L120.019 152.554L120.052 158.328Z" fill="#CB835B"/>
<path d="M128.276 164.227L124.296 164.264L124.261 162.314L128.265 162.295L128.276 164.227Z" fill="#883B2C"/>
<path d="M120.263 158.324C120.191 158.316 120.122 158.316 120.052 158.326L120.019 152.552L114.271 152.587L114.254 152.407L120.207 152.377L120.223 158.135C120.265 158.221 120.263 158.279 120.263 158.324Z" fill="#CA855C"/>
<path d="M114.256 152.409L114.274 152.589C114.307 152.789 114.314 152.998 114.237 153.186C114.136 153.082 114.024 153.168 114.04 153.273C113.818 153.137 113.705 153.098 113.565 152.941C113.535 152.673 113.298 152.516 113.052 152.61L111.506 152.624C111.309 152.923 110.989 153 110.683 152.85C110.453 152.797 110.399 152.575 110.453 152.416L114.26 152.407L114.256 152.409Z" fill="#AE5A3E"/>
<path d="M104.321 148.991L103.782 148.96C103.523 148.878 103.427 148.704 103.373 148.517C103.686 148.449 104.033 148.451 104.382 148.524L104.321 148.989V148.991Z" fill="#AE5A3E"/>
<path d="M128.632 164.213C128.625 164.411 128.426 164.451 128.262 164.394L128.276 164.227L128.632 164.212V164.213Z" fill="#642429"/>
<path d="M174.841 158.043C174.842 158.065 174.837 158.118 174.795 158.204L171.952 158.12L174.842 158.043H174.841Z" fill="#281F26"/>
<path d="M124.423 158.31C124.531 158.344 124.645 158.344 124.755 158.303C124.742 158.375 124.795 158.485 124.929 158.468L128.052 158.448C128.104 158.365 128.097 158.307 128.092 158.275H128.247C128.342 158.3 128.408 158.239 128.425 158.181C128.391 158.071 128.415 157.936 128.597 157.875L128.562 155.193C128.303 154.873 128.387 154.471 128.431 154.114C128.653 154.029 128.653 153.761 128.408 153.691V152.505L131.885 152.495L131.946 164.012L128.464 164.037L128.445 162.333C128.26 162.254 128.226 162.122 128.258 161.945L124.435 161.959L124.423 158.309V158.31Z" fill="#0E1E36"/>
<path d="M128.091 158.275C128.098 158.307 128.103 158.364 128.05 158.448L124.928 158.468C124.795 158.485 124.743 158.375 124.753 158.303L128.089 158.275H128.091Z" fill="#281F26"/>
<rect x="128.377" y="217.96" width="3.86138" height="5.40593" fill="white"/>
<rect x="132.238" y="217.96" width="10.0396" height="3.86138" fill="white"/>
<rect x="137.644" y="213.326" width="4.63365" height="4.63365" fill="white"/>
<rect x="142.277" y="213.326" width="4.63365" height="4.63365" fill="white"/>
<rect x="143.822" y="209.465" width="4.63365" height="4.63365" fill="white"/>
<rect x="147.684" y="205.604" width="4.63365" height="6.95048" fill="white"/>
<rect x="152.317" y="209.465" width="4.63365" height="4.63365" fill="white"/>
<rect x="162.356" y="217.188" width="10.8119" height="5.40593" fill="white"/>
<rect x="152.317" y="213.326" width="10.8119" height="4.63365" fill="white"/>
<rect x="227.228" y="129.921" width="4.63365" height="4.63365" fill="white"/>
<rect x="207.148" y="127.604" width="21.6237" height="4.63365" fill="white"/>
<rect x="207.148" y="103.663" width="4.63365" height="24.7128" fill="white"/>
<rect x="202.516" y="98.2576" width="4.63365" height="6.1782" fill="white"/>
<rect x="179.347" y="94.396" width="4.63365" height="8.49503" fill="white"/>
<rect x="175.485" y="98.2576" width="4.63365" height="4.63365" fill="white"/>
<rect x="171.624" y="99.802" width="4.63365" height="4.63365" fill="white"/>
<rect x="168.535" y="95.1685" width="4.63365" height="4.63365" fill="white"/>
<rect x="166.99" y="90.5347" width="4.63365" height="4.63365" fill="white"/>
<rect x="164.674" y="85.9011" width="4.63365" height="4.63365" fill="white"/>
<rect x="160.812" y="82.0398" width="4.63365" height="4.63365" fill="white"/>
<rect x="157.724" y="80.4951" width="4.63365" height="4.63365" fill="white"/>
<rect x="155.406" y="76.6338" width="4.63365" height="4.63365" fill="white"/>
<rect x="139.961" y="76.6338" width="4.63365" height="4.63365" fill="white"/>
<rect x="136.1" y="80.4951" width="4.63365" height="4.63365" fill="white"/>
<rect x="133.782" y="84.3564" width="4.63365" height="4.63365" fill="white"/>
<rect x="130.693" y="88.9902" width="4.63365" height="4.63365" fill="white"/>
<rect x="128.377" y="93.6238" width="4.63365" height="4.63365" fill="white"/>
<rect x="126.832" y="98.2576" width="4.63365" height="4.63365" fill="white"/>
<rect x="113.703" y="98.2576" width="4.63365" height="4.63365" fill="white"/>
<rect x="92.0801" y="98.2576" width="4.63365" height="6.95048" fill="white"/>
<rect x="72.001" y="128.376" width="16.2178" height="4.63365" fill="white"/>
<rect x="88.2188" y="105.208" width="4.63365" height="27.8019" fill="white"/>
<rect x="95.9414" y="94.396" width="20.0792" height="4.63365" fill="white"/>
<rect x="116.021" y="100.574" width="13.1287" height="4.63365" fill="white"/>
<rect x="183.208" y="94.396" width="23.9405" height="3.86138" fill="white"/>
<rect x="66.5947" y="154.634" width="4.63365" height="6.1782" fill="white"/>
<rect x="68.1396" y="160.04" width="4.63365" height="3.86138" fill="white"/>
<rect x="70.4561" y="163.901" width="4.63365" height="6.95048" fill="white"/>
<rect x="70.4561" y="197.881" width="4.63365" height="16.2178" fill="white"/>
<rect x="74.3174" y="170.079" width="4.63365" height="4.63365" fill="white"/>
<rect x="78.1787" y="173.94" width="4.63365" height="4.63365" fill="white"/>
<rect x="80.4961" y="177.802" width="4.63365" height="4.63365" fill="white"/>
<rect x="80.4961" y="187.069" width="4.63365" height="4.63365" fill="white"/>
<rect x="78.1787" y="190.93" width="4.63365" height="4.63365" fill="white"/>
<rect x="74.3174" y="194.792" width="4.63365" height="6.1782" fill="white"/>
<rect x="74.3174" y="213.326" width="9.2673" height="4.63365" fill="white"/>
<rect x="82.04" y="217.96" width="14.6732" height="6.1782" fill="white"/>
<rect x="84.3574" y="181.663" width="4.63365" height="6.95048" fill="white"/>
</g>
<rect x="68.1396" y="131.466" width="4.63365" height="3.86138" fill="white"/>
<rect x="64.2773" y="135.327" width="4.63365" height="3.86138" fill="white"/>
<rect x="64.2773" y="152.317" width="4.63365" height="3.86138" fill="white"/>
<rect x="61.9609" y="138.416" width="4.63365" height="13.901" fill="white"/>
<rect x="143.822" y="72" width="13.1287" height="4.63365" fill="white"/>
<rect x="203.287" y="217.188" width="14.6732" height="5.40593" fill="white"/>
<rect x="217.188" y="213.327" width="13.1287" height="5.40593" fill="white"/>
<rect x="224.911" y="199.426" width="5.40593" height="13.901" fill="white"/>
<rect x="221.822" y="195.564" width="8.49503" height="4.63365" fill="white"/>
<rect x="221.822" y="190.931" width="4.63365" height="4.63365" fill="white"/>
<rect x="217.188" y="189.386" width="4.63365" height="4.63365" fill="white"/>
<rect x="214.872" y="185.525" width="4.63365" height="4.63365" fill="white"/>
<rect x="211.01" y="181.663" width="5.40593" height="6.1782" fill="white"/>
<rect x="215.644" y="177.03" width="5.40593" height="5.40593" fill="white"/>
<rect x="221.05" y="168.535" width="5.40593" height="5.40593" fill="white"/>
<rect x="224.911" y="163.129" width="5.40593" height="5.40593" fill="white"/>
<rect x="227.229" y="159.267" width="5.40593" height="5.40593" fill="white"/>
<rect x="228.772" y="153.089" width="5.40593" height="6.1782" fill="white"/>
<rect x="232.634" y="138.416" width="5.40593" height="15.4455" fill="white"/>
<rect x="231.09" y="133.782" width="4.63365" height="4.63365" fill="white"/>
<rect x="217.188" y="173.168" width="4.63365" height="4.63365" fill="white"/>
<rect x="170.852" y="222.594" width="34.7524" height="5.40593" fill="white"/>
<rect x="96.7139" y="223.366" width="35.5247" height="3.86138" fill="white"/>
<defs>
<clipPath id="clip0_13_8953">
<rect width="166.811" height="147.505" fill="white" transform="translate(66.5947 76.6338)"/>
</clipPath>
</defs>
</svg>
