<svg width="165" height="199" viewBox="0 0 165 199" fill="none" xmlns="http://www.w3.org/2000/svg">
<mask id="mask0_93_190115" style="mask-type:luminance" maskUnits="userSpaceOnUse" x="0" y="0" width="165" height="199">
<path d="M164.386 0H0V198.527H164.386V0Z" fill="white"/>
</mask>
<g mask="url(#mask0_93_190115)">
<path d="M156.11 169.125C155.95 171.369 155.453 173.055 154.219 174.235L149.373 175.551L149.028 179.555C146.505 180.408 144.374 180.798 141.106 180.871C141.041 183.948 139.96 186.466 137.701 188.172C136.01 187.688 135.778 189.478 135.978 190.037C134.44 191.143 133.968 191.849 132.662 192.144L124.01 192.323C123.473 193.609 123.409 194.62 123.377 195.715L118.955 198.527L62.734 198.485C60.2426 198.675 58.0316 197.685 56.5896 195.609C56.8219 194.42 56.6297 193.745 56.4534 193.218C56.141 192.428 55.1957 191.849 53.962 192.26C51.054 192.639 48.6187 192.67 45.8389 191.606C45.222 189.257 43.7239 187.856 41.0082 188.425C40.5035 186.634 39.6945 185.696 38.1563 185.191C36.466 184.906 35.0721 183.779 34.6876 181.588L29.128 178.943L28.9837 174.877C26.3721 175.268 24.786 174.161 23.5683 172.517C23.9048 171.232 23.8086 170.505 23.7765 169.715C23.3119 169.072 22.2065 168.599 20.7885 169.199C19.2905 167.377 18.5694 165.585 18.7056 162.825C16.9832 162.931 15.6133 162.605 14.1634 161.498C12.9617 161.297 12.4811 159.95 12.8977 158.654C13.1781 157.263 12.7534 156.242 11.3195 156.115C10.7267 153.597 10.8148 151.027 11.3035 148.161L10.959 144.98C8.97228 144.79 7.14573 143.104 7.25788 140.724C7.31396 139.238 5.75181 138.279 4.47807 138.405C2.12284 137.489 1.45799 135.666 0.344467 133.107L0 66.4221C0.384527 65.8005 0.96923 65.1469 0.849065 64.0094C1.56204 61.0071 4.00544 58.8367 7.33 59.0575C7.36205 56.4872 7.41017 55.244 7.99498 53.2009C9.24469 53.4745 9.94162 53.1793 10.5985 52.5473C10.4063 48.6602 10.7908 45.6787 11.5999 42.2869C12.2808 42.002 12.8496 41.7917 13.9151 40.8853C13.2662 38.9045 13.5786 37.4406 14.3637 35.871L18.9139 34.7967L19.8271 30.8141C21.3813 30.7299 23.2078 30.1401 24.081 28.4016L24.4415 24.7462C25.7793 23.7557 26.7647 23.2501 29.2641 23.2291C28.8556 20.9221 29.136 19.7211 29.8329 18.3305C31.0025 17.4982 32.3324 16.6974 34.7036 17.1295C34.9439 14.9066 35.1842 14.0007 35.6408 12.7579L38.4688 12.4941C38.8293 10.6086 39.5582 9.57636 40.5996 8.48036C43.772 8.16429 46.6719 8.21701 50.0926 8.2803C50.9098 8.40669 51.7509 8.02742 51.7189 6.62626L56.3012 6.35252C56.0048 2.33881 58.4882 0.10553 61.7647 0.157733L127.847 0C129.241 1.31701 130.619 2.19104 132.606 2.07555L135.129 6.98467L135.161 25.7471C134.04 26.0841 133.207 26.9586 133.127 28.5807L128.536 30.7722L112.498 30.9933C112.554 33.4481 111.145 34.4911 109.382 34.2698C107.892 34.1643 106.754 34.8391 106.442 36.8822C104.704 36.7766 103.59 36.6502 101.892 37.2302C102.453 39.2317 101.988 40.4637 101.315 41.2965C99.4483 42.4868 98.1345 43.1716 95.5149 42.6868C95.4508 44.3412 95.1304 45.1099 94.8179 45.5835C94.0088 46.2371 93.1839 46.4691 91.806 46.0475L89.0661 52.4313C87.9847 53.2113 87.3277 54.0121 85.6454 54.2649C85.0767 55.3176 85.0846 57.0144 85.1727 58.6255C85.357 60.4694 84.8924 61.6174 83.6267 62.703C84.4999 64.1357 83.2342 65.2837 82.1126 64.5574C80.6947 65.4525 79.6612 66.1901 78.1631 66.9588C78.2352 68.1492 78.1872 68.7916 78.067 69.6036C77.5624 70.0252 76.6491 70.278 75.159 70.2252L75.2072 94.5708C76.2486 94.9292 77.0176 95.5084 77.306 96.4667C77.0256 98.2475 77.9629 99.1954 78.6999 100.08C79.2526 102.314 81.5518 102.883 83.4664 102.198C83.7628 103.778 84.0432 104.421 84.9645 105.222L85.3251 112.859L90.1956 114.45L90.8606 119.854L94.8661 120.687C94.8821 122.14 95.3308 122.793 95.7795 124.131C96.5405 125.69 98.6954 126.238 100.674 125.469C101.307 126.533 101.315 127.123 101.595 128.135L101.996 130.411C102.38 130.842 103.318 131.442 104.616 130.684C105.833 131.274 106.803 132.232 107.58 133.265C107.323 134.508 108.597 135.246 109.462 134.034C110.68 134.918 111.177 135.951 111.273 137.679L112.835 138.637C113.532 139.607 113.451 140.249 113.532 142.061C114.605 140.555 117.321 139.86 118.242 142.377L133.303 142.841C133.375 141.197 134.112 140.565 135.073 139.965C134.577 138.385 135.746 137.784 136.683 138.153L139.031 137.932C139.64 137.384 139.872 136.278 140.16 135.224C140.841 133.413 141.45 132.822 143.389 132.032C143.933 131.979 145.456 132.464 146.185 130.778L157.184 131.106C159.555 131.41 161.502 131.938 163 134.571C162.855 135.572 163.032 136.847 164.386 137.405L164.337 160.845C163.12 162.699 162.335 163.931 160.564 164.637C160.909 167.892 158.497 169.157 156.142 169.104L156.11 169.125ZM106.474 143.42C106.778 142.029 106.931 140.649 106.394 138.553C102.661 138.269 99.3203 138.185 96.0518 138.627L95.8274 132.254L84.9164 132.201L84.7723 119.949H78.9323L78.8441 108.203L67.6608 108.108L67.6047 59.7111C67.8611 59.7215 68.1815 59.7111 68.542 59.2791L78.756 59.2263L78.8761 48.0066L84.7642 47.8915L84.7401 35.955L95.7795 35.723L95.8755 29.4025L106.738 29.508L107.003 23.4083L128.368 23.3765V7.93289L62.4777 7.94328L62.2613 17.6879L45.8549 17.6351L45.7267 23.5452L40.3192 23.7349C40.183 26.0418 40.2232 27.1901 40.3674 29.4762L34.5353 29.5394L34.5193 35.6494L29.0077 35.9758C29.1679 38.199 29.224 39.7685 28.7193 41.7285L23.5122 41.77L23.344 47.7019L17.9926 47.8283L17.9766 65.3573L8.64382 65.8637V132.138L17.9686 132.295L18.0327 150.226L23.5443 150.395L23.6885 156.378L28.8875 156.452L29.0958 162.415C31.0906 162.277 32.4926 162.204 34.3912 162.752L34.4392 168.377L40.2311 168.536L40.3192 174.392L45.2701 174.52L45.6146 180.545L62.053 180.682L62.3255 189.657L117.994 189.752L118.122 180.492L134.657 180.64L134.713 168.409L145.776 168.493L145.984 162.467L151.424 162.352L151.456 156.526H156.863L156.815 138.501L146.032 138.342L145.816 144.273L140.368 144.21L140.184 150.32L106.674 150.268C106.794 147.455 106.947 145.38 106.434 143.4L106.474 143.42Z" fill="#F7F6F6"/>
<path d="M67.6206 59.7114C68.0773 57.657 68.1013 55.5715 67.6687 53.5267L67.941 47.175C69.5673 47.6381 71.2497 47.6702 73.3245 47.4381C73.5969 44.9198 73.4367 43.5502 73.3405 41.9487L73.6048 35.4593C75.3031 35.68 77.0256 35.7224 79.0924 35.5432C79.0444 32.9519 79.0043 31.1923 79.2766 29.2646C81.0311 29.7071 82.8815 29.96 84.8282 29.3065C84.5318 26.5674 84.5719 24.7975 85.1086 22.9434C88.4172 23.6806 91.9019 23.6069 95.651 23.1435L95.6831 17.5704L85.0125 17.6441L67.5325 17.7282L62.5417 17.6441C62.2292 20.2358 62.4215 21.9848 62.5897 23.8597L51.5026 23.818L51.3583 29.496L46.023 29.3592C45.4863 31.6771 45.6785 33.6153 46.1031 35.5225C44.3247 35.7328 42.6744 35.7432 40.3272 35.6489V41.9279C38.0681 41.7383 36.6662 41.7487 34.5593 42.0222L34.4471 48.1333C32.4924 47.7334 31.5552 47.6909 29.1439 47.8173L29.0797 53.8219L23.6644 53.7172L23.5762 65.98C21.6135 65.8121 20.0354 65.5697 17.8083 66.012L17.8964 125.958C17.8644 127.907 17.7602 129.793 18.0486 132.237L21.7737 132.121C22.2464 132.047 22.9754 132.079 23.5201 132.479L23.5361 144.173L29.1519 144.395L29.0878 149.883L34.5192 150.231L34.6234 156.405L40.1349 156.542L40.2231 162.325L45.7106 162.305L45.7907 168.468L51.6067 168.626C51.2863 170.838 51.2222 172.366 51.9271 174.431L62.774 174.557C64.3202 174.504 65.7621 174.231 67.3963 174.747L67.2121 180.467L118.05 180.604L118.258 174.325L128.801 174.22L128.696 168.668L134.705 168.363L135.049 162.347H140C140.384 160.503 140.328 158.881 140.168 156.5L106.842 156.668L106.546 150.337L95.6351 150.252C95.9396 148.282 96.0678 146.555 95.8114 144.036C93.4001 144.447 91.7337 144.542 89.9633 144.183C89.723 144.015 89.2743 143.816 88.4732 143.942C88.5533 143.879 88.193 144.152 88.0407 144.605C87.0234 144.11 86.062 144.415 85.0606 144.827C84.7482 144.079 84.5719 143.162 84.7161 141.856L84.6199 138.6L84.9003 132.437C80.9189 132.258 77.2258 132.016 73.6289 132.542L73.3726 126.031L73.4366 120.322C71.1935 120.079 69.5032 120.195 67.8129 120.595L67.6687 108.142L78.852 108.237L78.9401 119.974H84.7802L84.9244 132.226L95.8354 132.279L96.0596 138.653L95.8755 144.005C99.7127 144.132 103.141 144.384 106.474 143.436C106.987 145.416 106.826 147.492 106.714 150.305L140.224 150.358L140.408 144.247L145.856 144.31L146.072 138.379L156.855 138.537L156.903 156.574H151.496L151.464 162.389L146.024 162.505L145.816 168.531L134.753 168.447L134.697 180.678L118.162 180.53L118.034 189.792L62.3494 189.697L62.077 180.72L45.6385 180.583L45.3021 174.557L40.3432 174.431L40.2632 168.573L34.4712 168.416L34.4231 162.789C32.5245 162.241 31.1226 162.315 29.1279 162.452L28.9115 156.489L23.7124 156.415L23.5683 150.431L18.0567 150.263L17.9925 132.332L8.67578 132.173V65.896L18.0006 65.3905L18.0247 47.8597L23.376 47.7334L23.5361 41.8015L28.7433 41.7591C29.2561 39.8103 29.192 38.2295 29.0398 36.0073L34.5433 35.68L34.5673 29.5702L40.3993 29.507C40.2471 27.2204 40.2071 26.0826 40.3432 23.7652L45.7586 23.5756L45.8869 17.665L62.2934 17.7177L62.5096 7.97266H128.408V23.4277L107.035 23.4596L106.77 29.5593L95.9075 29.4543L95.8114 35.7752L84.7802 36.0073L84.7962 47.9437L78.9081 48.0597L78.7879 59.2794L68.574 59.3322C68.2135 59.7642 67.877 59.7746 67.6367 59.7642L67.6206 59.7114ZM63.1826 178.645L62.6938 179.172L63.1826 179.699L63.6632 179.172L63.1826 178.645Z" fill="#2C2B3F"/>
<path d="M106.482 143.42C103.166 144.368 99.7291 144.115 95.8838 143.989L96.0679 138.638C99.3364 138.195 102.669 138.28 106.41 138.564C106.939 140.66 106.787 142.04 106.49 143.431L106.482 143.42Z" fill="#717886"/>
<path d="M67.6767 108.112L66.5872 108.196L66.5552 59.6621L67.6287 59.7149L67.6767 108.112Z" fill="#0E2745"/>
<path d="M62.5816 23.8666L62.1089 29.7239L56.6936 29.7976C57.2864 32.4943 57.0219 33.969 56.8056 35.602L46.103 35.5284C45.6784 33.6216 45.4942 31.6829 46.0229 29.3655L51.3582 29.5024L51.5025 23.8242L62.5816 23.8666Z" fill="#BBC0C6"/>
<path d="M73.517 29.8563L73.605 35.4612L73.3407 41.9506C71.6344 41.4875 69.7597 41.4347 67.8371 41.8035L67.9493 47.1657L67.677 53.5183C66.227 53.7503 64.825 53.9503 62.7982 53.5815C62.2935 55.7415 62.3577 57.1846 62.7422 59.7982C60.379 59.5238 58.945 59.2918 56.9903 59.8718L56.9502 96.1971L62.2535 96.6404L62.3496 108.102L66.5954 108.186L67.6849 108.102L67.8291 120.555L67.725 125.117C68.2617 125.97 69.4233 126.065 70.3686 125.644C71.8427 125.76 72.5156 125.802 73.3888 126.002L73.6532 132.513L73.4769 138.275H82.1848C83.2582 137.928 84.0995 138.17 84.6282 138.57L84.7243 141.825C84.5801 143.132 84.7643 144.049 85.0687 144.797L86.2064 150.043C89.6591 150.285 92.6152 150.507 95.6354 150.233L106.546 150.317L106.835 156.649L106.995 162.202L123.297 162.317C124.259 164.15 124.307 166.731 123.209 168.606L84.9005 168.522L84.524 162.486L67.9894 162.443L67.6048 156.617L62.9665 156.175C62.3577 154.806 62.2215 153.415 62.8944 150.707L56.9022 150.275C56.3814 147.916 56.6378 146.166 56.814 144.386L61.7488 143.922C62.1974 142.015 62.2455 140.678 62.1173 138.138L52.8646 138.181C52.2478 137.812 51.687 137.517 51.2785 137.527C51.0061 135.778 51.0701 133.998 51.1262 132.218C51.4226 130.331 51.5268 128.519 51.2945 126.002L45.5345 126.118C45.7188 128.731 45.5906 130.395 45.1179 132.144C43.692 132.471 42.3142 132.86 40.3675 132.102L39.9349 119.648C40.4316 117.742 40.5517 115.645 39.7747 114.118C37.4435 114.381 36.1616 114.065 34.4313 113.57C32.3725 114.171 30.6501 113.917 29.112 113.18L28.7034 108.555C29.0239 107.997 29.2402 107.165 29.096 106.059L28.9358 72.5034C26.6687 71.829 25.1546 72.1346 23.6646 72.3554C23.4002 70.4595 23.3682 68.7635 23.5685 65.9084C25.9638 65.4868 27.1893 65.7396 28.7835 66.0452C28.8396 67.6147 28.9518 69.0795 28.6074 71.5338C30.8184 72.1026 32.3645 72.1026 34.5435 71.829L34.5194 66.0244L40.1111 65.8028V53.9399L45.4865 53.7824L45.6867 47.5657L51.5107 47.6185L51.5267 41.4979L56.6858 41.5611L56.83 35.598L67.741 35.7244L67.7169 29.688C70.0802 29.4352 71.7626 29.688 73.533 29.8563H73.517Z" fill="#BBC0C6"/>
<path d="M85.0044 17.6462C84.748 19.4794 84.8282 21.1855 85.0925 22.945C84.5638 24.7991 84.5238 26.569 84.8042 29.308C82.8575 29.961 81.0149 29.7186 79.2605 29.2657C79.0763 27.6964 78.9641 26.232 79.0762 23.7035L67.4844 23.6508C67.933 21.6913 67.6926 19.7003 67.5164 17.7198L84.9884 17.6357L85.0044 17.6462Z" fill="#BBC0C6"/>
<path d="M85.1087 22.9487C84.8363 21.1788 84.7642 19.472 85.0205 17.6498L95.6912 17.5762L95.6511 23.1488C91.9099 23.6127 88.4253 23.6864 85.1167 22.9487H85.1087Z" fill="#8D95A1"/>
<path d="M79.2686 29.2686C78.9963 31.1962 79.0364 32.9557 79.0844 35.5472C77.0096 35.7264 75.3033 35.684 73.5969 35.4624L73.5088 29.8584C75.4074 29.6373 77.3941 30.0062 79.2767 29.2686H79.2686Z" fill="#8D95A1"/>
<path d="M73.3407 41.9489C73.4368 43.5505 73.589 44.9201 73.3166 47.4376C71.2578 47.6696 69.5755 47.6384 67.9332 47.1744L67.8291 41.8122C69.7437 41.4434 71.6344 41.4962 73.3247 41.9602L73.3407 41.9489Z" fill="#8D95A1"/>
<path d="M67.5247 17.7281C67.7009 19.7086 67.9412 21.6891 67.5006 23.6591L62.5819 23.8592C62.4136 21.9947 62.2214 20.2352 62.5338 17.6436L67.5247 17.7281Z" fill="#8D95A1"/>
<path d="M67.6606 53.5322C68.1012 55.5753 68.0771 57.6721 67.6124 59.716L66.5391 59.6736C65.5137 59.6528 64.3761 59.1472 62.2051 59.6424L62.2291 96.6509L56.9258 96.2085L56.9659 59.8848C58.9206 59.3048 60.3465 59.5368 62.7178 59.8113C62.3333 57.1985 62.2692 55.7545 62.7739 53.5954C64.7927 53.9642 66.1946 53.7538 67.6446 53.5322H67.6606Z" fill="#8D95A1"/>
<path d="M46.1031 35.5191C45.5584 37.3414 45.5264 39.1326 45.7187 41.6189C43.9643 41.5661 42.5143 41.4613 40.2952 41.8509L40.167 47.8979C38.0361 47.6772 36.6261 47.5187 34.4712 48.1723L34.4071 59.708L29.4402 59.7296L28.7594 66.0398C27.1652 65.7342 25.9475 65.4814 23.5442 65.903C23.3439 68.7573 23.3759 70.4541 23.6403 72.35C23.7044 72.8565 23.5522 73.5837 23.3679 74.4572L23.2879 108.339C25.8113 108.223 27.2293 108.287 28.6793 108.539L29.0878 113.164C28.9276 115.398 28.9115 117.663 29.1519 120.16L34.5753 120.107L34.6474 132.18L40.0949 132.296L40.0227 138.175L45.4783 138.302L45.5183 144.001C47.4089 144.465 49.2835 144.317 51.086 144.022C51.4705 145.866 51.5266 147.583 51.3022 150.259L56.8299 150.302L56.8939 156.349C59.3212 156.496 61.1478 156.601 62.9903 156.18L67.6287 156.622L68.0132 162.448L84.5479 162.491L84.9244 168.527L123.233 168.612C124.322 166.747 124.282 164.156 123.321 162.322L107.019 162.206L106.859 156.654L140.184 156.485C140.361 158.867 140.408 160.489 140.024 162.344H135.065L134.729 168.348L128.721 168.654L128.817 174.206L118.282 174.311L118.074 180.59L67.2281 180.453L67.4124 174.733C65.7781 174.216 64.3522 174.501 62.7901 174.543L51.9512 174.417C51.2382 172.352 51.3023 170.824 51.6307 168.612L45.8067 168.454L45.7347 162.291L40.2391 162.312L40.159 156.528L34.6474 156.391L34.5433 150.218L29.1118 149.87L29.176 144.38L23.5602 144.159L23.5442 132.465C22.9995 132.065 22.2784 132.033 21.7978 132.107L22.2063 126.945C20.8765 125.333 19.3304 125.385 17.9285 125.944L17.8403 65.9974C20.0754 65.555 21.6456 65.7974 23.6083 65.9662L23.6964 53.7025L29.1118 53.8081L29.176 47.8035C31.6033 47.6772 32.5326 47.7187 34.4792 48.1195L34.5913 42.0085C36.6982 41.7245 38.1002 41.7245 40.3593 41.9141V35.6342C42.7145 35.7294 44.3728 35.719 46.1432 35.5078L46.1031 35.5191Z" fill="#8D95A1"/>
<path d="M56.8298 144.369C54.9152 144.41 52.9445 144.579 51.0859 144.01L51.2862 137.5C51.6867 137.5 52.2555 137.794 52.8644 138.153L62.125 138.11C62.2612 140.649 62.1972 141.988 61.7566 143.894L56.8217 144.357L56.8298 144.369Z" fill="#8D95A1"/>
<path d="M21.7659 132.131L18.0408 132.247C17.7444 129.803 17.8566 127.928 17.8806 125.969C19.2825 125.421 20.8287 125.368 22.1665 126.969L21.7579 132.131H21.7659Z" fill="#717886"/>
<path d="M63.1826 178.638L62.6938 179.168L63.1826 179.696L63.6713 179.167L63.1826 178.638Z" fill="#8D95A1"/>
<path d="M84.6278 138.568C84.1071 138.157 83.2579 137.926 82.1844 138.273H73.4766L73.6528 132.511C77.2418 131.983 80.9428 132.226 84.9243 132.405L84.6278 138.568Z" fill="#8D95A1"/>
<path d="M73.3728 125.998C72.4996 125.798 71.8266 125.756 70.3606 125.64C69.4153 126.072 68.2457 125.977 67.709 125.113L67.8211 120.552C69.5034 120.151 71.1938 120.035 73.4449 120.277L73.3728 125.988V125.998Z" fill="#8D95A1"/>
<path d="M95.6428 150.233C92.6227 150.507 89.6588 150.286 86.206 150.044L85.0684 144.798C86.0697 144.386 87.039 144.092 88.0484 144.576C87.784 145.103 87.9283 145.735 88.465 146.03C88.8255 146.21 89.4425 146.315 89.9392 145.535C89.9392 145.419 89.8669 144.892 89.979 144.166C91.7495 144.513 93.4078 144.429 95.8271 144.018C96.0755 146.536 95.9473 148.274 95.6509 150.233H95.6428Z" fill="#8D95A1"/>
<path d="M89.9552 144.165C89.8511 144.892 89.9071 145.409 89.9151 145.535C89.4345 146.315 88.8097 146.209 88.4492 146.03C87.9125 145.735 87.7683 145.103 88.0326 144.576C88.1849 144.123 88.5372 143.85 88.4651 143.913C89.2662 143.786 89.7149 143.997 89.9552 144.155V144.165Z" fill="#BBC0C6"/>
<path d="M66.5471 59.6578L66.5791 108.181L62.3333 108.097L62.2372 96.635L62.2212 59.6258C64.3922 59.1314 65.5377 59.6258 66.5471 59.6578Z" fill="#2C2B3F"/>
<path d="M56.8058 35.5892L56.6617 41.5523L51.5026 41.4891L51.4866 47.6097L45.6626 47.5569L45.4622 53.7727L40.0789 53.9311V65.7931L34.5032 66.0139L34.5352 71.8185C32.3482 72.0929 30.7941 72.0929 28.5991 71.5233C28.9356 69.069 28.8314 67.6051 28.7673 66.0355L29.4483 59.7253L34.4151 59.7037L34.4872 48.168C36.6341 47.5153 38.0441 47.6729 40.1751 47.8945L40.3032 41.8475C42.5222 41.4579 43.9723 41.5626 45.7347 41.6155C45.5344 39.1291 45.5664 37.3284 46.1112 35.5156L56.8139 35.5892H56.8058Z" fill="#E1E5EA"/>
<path d="M67.4925 23.6553L79.0844 23.7076C78.9723 26.2256 79.0844 27.7003 79.2687 29.2702C77.3781 30.0073 75.3913 29.639 73.5007 29.86C71.7223 29.6808 70.0401 29.4389 67.6768 29.6918L67.7089 35.7277L56.7979 35.6013C57.0142 33.9688 57.2786 32.494 56.6777 29.7968L62.1012 29.7232L62.5658 23.8658L67.4846 23.6658L67.4925 23.6553Z" fill="#E1E5EA"/>
<path d="M28.6873 108.541C27.2293 108.277 25.8194 108.214 23.2959 108.34L23.3761 74.4605C23.5603 73.5861 23.7205 72.8598 23.6484 72.3533C25.1385 72.1222 26.6605 71.8157 28.9276 72.5014L29.0798 106.055C29.224 107.16 29.0078 107.983 28.6873 108.551V108.541Z" fill="#E1E5EA"/>
<path d="M56.83 144.362C56.6618 146.142 56.4055 147.902 56.9182 150.251L62.9104 150.683C62.2455 153.401 62.3817 154.791 62.9825 156.15C61.14 156.572 59.3135 156.466 56.8861 156.319L56.822 150.272L51.2945 150.23C51.5188 147.554 51.4707 145.836 51.0781 143.993C52.9367 144.562 54.9073 144.394 56.822 144.352L56.83 144.362Z" fill="#E1E5EA"/>
<path d="M45.1099 132.123L51.1341 132.196C51.0781 133.976 51.006 135.747 51.2784 137.506L51.0861 144.016C49.2836 144.311 47.409 144.458 45.5184 143.995L45.4784 138.296L40.0228 138.17L40.0949 132.292L34.6475 132.176L34.5835 120.102L29.1519 120.155C28.9196 117.658 28.9276 115.393 29.0958 113.16C30.642 113.887 32.3564 114.151 34.4072 113.55C36.1376 114.045 37.4193 114.351 39.7505 114.098C40.5275 115.625 40.4074 117.722 39.9107 119.629L40.3433 132.08C42.29 132.839 43.6679 132.439 45.0939 132.123H45.1099Z" fill="#E1E5EA"/>
<path d="M51.1341 132.201L45.1099 132.128C45.5985 130.379 45.7267 128.714 45.5265 126.101L51.2863 125.985C51.5266 128.504 51.4225 130.316 51.1261 132.201H51.1341Z" fill="#8D95A1"/>
</g>
</svg>
