<svg width="300" height="300" viewBox="0 0 300 300" fill="none" xmlns="http://www.w3.org/2000/svg">
<path d="M108.084 256.138H101.801V262.422H108.084V256.138Z" fill="#CBA995"/>
<path d="M114.368 256.138H108.085V262.422H114.368V256.138Z" fill="#CBA995"/>
<path d="M120.652 256.138H114.368V262.422H120.652V256.138Z" fill="#CBA995"/>
<path d="M126.91 256.138H120.627V262.422H126.91V256.138Z" fill="#CBA995"/>
<path d="M133.194 256.138H126.91V262.422H133.194V256.138Z" fill="#CBA995"/>
<path d="M139.452 256.138H133.169V262.422H139.452V256.138Z" fill="#CBA995"/>
<path d="M145.736 256.138H139.452V262.422H145.736V256.138Z" fill="#CBA995"/>
<path d="M151.994 256.138H145.711V262.422H151.994V256.138Z" fill="#CBA995"/>
<path d="M158.279 256.138H151.995V262.422H158.279V256.138Z" fill="#CBA995"/>
<path d="M164.561 256.138H158.277V262.422H164.561V256.138Z" fill="#CBA995"/>
<path d="M133.194 49.1206H126.91V55.4043H133.194V49.1206Z" fill="#0B2343"/>
<path d="M170.821 49.1206H164.537V55.4043H170.821V49.1206Z" fill="#0B2343"/>
<path d="M139.452 55.4043H133.169V61.688H139.452V55.4043Z" fill="#0B2343"/>
<path d="M164.562 55.4043H158.278V61.688H164.562V55.4043Z" fill="#0B2343"/>
<path d="M145.737 61.6633H139.453V67.947H145.737V61.6633Z" fill="#0B2343"/>
<path d="M158.279 61.6633H151.995V67.947H158.279V61.6633Z" fill="#0B2343"/>
<path d="M145.737 36.5776H139.453V42.8613H145.737V36.5776Z" fill="#D2CCCA"/>
<path d="M139.453 42.8367H133.17V49.1204H139.453V42.8367Z" fill="#D2CCCA"/>
<path d="M145.737 42.8367H139.453V49.1204H145.737V42.8367Z" fill="#D2CCCA"/>
<path d="M139.453 49.1206H133.17V55.4043H139.453V49.1206Z" fill="#D2CCCA"/>
<path d="M145.737 49.1206H139.453V55.4043H145.737V49.1206Z" fill="#D2CCCA"/>
<path d="M133.195 55.4041H126.911V61.6877H133.195V55.4041Z" fill="#D2CCCA"/>
<path d="M145.737 55.4041H139.453V61.6877H145.737V55.4041Z" fill="#D2CCCA"/>
<path d="M133.195 61.6633H126.911V67.947H133.195V61.6633Z" fill="#D2CCCA"/>
<path d="M139.453 61.6633H133.17V67.947H139.453V61.6633Z" fill="#D2CCCA"/>
<path d="M133.195 67.947H126.911V74.2307H133.195V67.947Z" fill="#D2CCCA"/>
<path d="M139.453 67.947H133.17V74.2307H139.453V67.947Z" fill="#D2CCCA"/>
<path d="M145.737 67.947H139.453V74.2307H145.737V67.947Z" fill="#D2CCCA"/>
<path d="M133.195 74.2061H126.911V80.4897H133.195V74.2061Z" fill="#D2CCCA"/>
<path d="M139.453 74.2061H133.17V80.4897H139.453V74.2061Z" fill="#D2CCCA"/>
<path d="M145.737 74.2061H139.453V80.4897H145.737V74.2061Z" fill="#D2CCCA"/>
<path d="M133.195 80.4897H126.911V86.7734H133.195V80.4897Z" fill="#D2CCCA"/>
<path d="M139.453 80.4897H133.17V86.7734H139.453V80.4897Z" fill="#D2CCCA"/>
<path d="M145.737 80.4897H139.453V86.7734H145.737V80.4897Z" fill="#D2CCCA"/>
<path d="M133.195 86.7734H126.911V93.0571H133.195V86.7734Z" fill="#D2CCCA"/>
<path d="M139.453 86.7734H133.17V93.0571H139.453V86.7734Z" fill="#D2CCCA"/>
<path d="M145.737 86.7734H139.453V93.0571H145.737V86.7734Z" fill="#D2CCCA"/>
<path d="M133.195 93.0327H126.911V99.3164H133.195V93.0327Z" fill="#D2CCCA"/>
<path d="M139.453 93.0327H133.17V99.3164H139.453V93.0327Z" fill="#D2CCCA"/>
<path d="M145.737 93.0327H139.453V99.3164H145.737V93.0327Z" fill="#D2CCCA"/>
<path d="M126.911 99.3164H120.628V105.6H126.911V99.3164Z" fill="#D2CCCA"/>
<path d="M133.195 99.3164H126.911V105.6H133.195V99.3164Z" fill="#D2CCCA"/>
<path d="M139.453 99.3164H133.17V105.6H139.453V99.3164Z" fill="#D2CCCA"/>
<path d="M145.737 99.3164H139.453V105.6H145.737V99.3164Z" fill="#D2CCCA"/>
<path d="M126.911 105.575H120.628V111.859H126.911V105.575Z" fill="#D2CCCA"/>
<path d="M133.195 105.575H126.911V111.859H133.195V105.575Z" fill="#D2CCCA"/>
<path d="M139.453 105.575H133.17V111.859H139.453V105.575Z" fill="#D2CCCA"/>
<path d="M145.737 105.575H139.453V111.859H145.737V105.575Z" fill="#D2CCCA"/>
<path d="M126.911 111.859H120.628V118.143H126.911V111.859Z" fill="#D2CCCA"/>
<path d="M133.195 111.859H126.911V118.143H133.195V111.859Z" fill="#D2CCCA"/>
<path d="M139.453 111.859H133.17V118.143H139.453V111.859Z" fill="#D2CCCA"/>
<path d="M145.737 111.859H139.453V118.143H145.737V111.859Z" fill="#D2CCCA"/>
<path d="M126.911 118.118H120.628V124.402H126.911V118.118Z" fill="#D2CCCA"/>
<path d="M133.195 118.118H126.911V124.402H133.195V118.118Z" fill="#D2CCCA"/>
<path d="M139.453 118.118H133.17V124.402H139.453V118.118Z" fill="#D2CCCA"/>
<path d="M145.737 118.118H139.453V124.402H145.737V118.118Z" fill="#D2CCCA"/>
<path d="M126.911 124.402H120.628V130.686H126.911V124.402Z" fill="#D2CCCA"/>
<path d="M133.195 124.402H126.911V130.686H133.195V124.402Z" fill="#D2CCCA"/>
<path d="M139.453 124.402H133.17V130.686H139.453V124.402Z" fill="#D2CCCA"/>
<path d="M145.737 124.402H139.453V130.686H145.737V124.402Z" fill="#D2CCCA"/>
<path d="M126.911 130.686H120.628V136.969H126.911V130.686Z" fill="#D2CCCA"/>
<path d="M133.195 130.686H126.911V136.969H133.195V130.686Z" fill="#D2CCCA"/>
<path d="M139.453 130.686H133.17V136.969H139.453V130.686Z" fill="#D2CCCA"/>
<path d="M145.737 130.686H139.453V136.969H145.737V130.686Z" fill="#D2CCCA"/>
<path d="M126.911 136.945H120.628V143.229H126.911V136.945Z" fill="#D2CCCA"/>
<path d="M133.195 136.945H126.911V143.229H133.195V136.945Z" fill="#D2CCCA"/>
<path d="M139.453 136.945H133.17V143.229H139.453V136.945Z" fill="#D2CCCA"/>
<path d="M145.737 136.945H139.453V143.229H145.737V136.945Z" fill="#D2CCCA"/>
<path d="M126.911 143.229H120.628V149.512H126.911V143.229Z" fill="#D2CCCA"/>
<path d="M133.195 143.229H126.911V149.512H133.195V143.229Z" fill="#D2CCCA"/>
<path d="M139.453 143.229H133.17V149.512H139.453V143.229Z" fill="#D2CCCA"/>
<path d="M145.737 143.229H139.453V149.512H145.737V143.229Z" fill="#D2CCCA"/>
<path d="M126.911 149.488H120.628V155.771H126.911V149.488Z" fill="#D2CCCA"/>
<path d="M133.195 149.488H126.911V155.771H133.195V149.488Z" fill="#D2CCCA"/>
<path d="M139.453 149.488H133.17V155.771H139.453V149.488Z" fill="#D2CCCA"/>
<path d="M145.737 149.488H139.453V155.771H145.737V149.488Z" fill="#D2CCCA"/>
<path d="M126.911 155.771H120.628V162.055H126.911V155.771Z" fill="#D2CCCA"/>
<path d="M133.195 155.771H126.911V162.055H133.195V155.771Z" fill="#D2CCCA"/>
<path d="M139.453 155.771H133.17V162.055H139.453V155.771Z" fill="#D2CCCA"/>
<path d="M145.737 155.771H139.453V162.055H145.737V155.771Z" fill="#D2CCCA"/>
<path d="M126.911 162.055H120.628V168.339H126.911V162.055Z" fill="#D2CCCA"/>
<path d="M133.195 162.055H126.911V168.339H133.195V162.055Z" fill="#D2CCCA"/>
<path d="M139.453 162.055H133.17V168.339H139.453V162.055Z" fill="#D2CCCA"/>
<path d="M145.737 162.055H139.453V168.339H145.737V162.055Z" fill="#D2CCCA"/>
<path d="M120.653 168.314H114.369V174.598H120.653V168.314Z" fill="#D2CCCA"/>
<path d="M126.911 168.314H120.628V174.598H126.911V168.314Z" fill="#D2CCCA"/>
<path d="M133.195 168.314H126.911V174.598H133.195V168.314Z" fill="#D2CCCA"/>
<path d="M139.453 168.314H133.17V174.598H139.453V168.314Z" fill="#D2CCCA"/>
<path d="M145.737 168.314H139.453V174.598H145.737V168.314Z" fill="#D2CCCA"/>
<path d="M120.653 174.598H114.369V180.881H120.653V174.598Z" fill="#D2CCCA"/>
<path d="M126.911 174.598H120.628V180.881H126.911V174.598Z" fill="#D2CCCA"/>
<path d="M133.195 174.598H126.911V180.881H133.195V174.598Z" fill="#D2CCCA"/>
<path d="M139.453 174.598H133.17V180.881H139.453V174.598Z" fill="#D2CCCA"/>
<path d="M145.737 174.598H139.453V180.881H145.737V174.598Z" fill="#D2CCCA"/>
<path d="M120.653 180.857H114.369V187.141H120.653V180.857Z" fill="#D2CCCA"/>
<path d="M126.911 180.857H120.628V187.141H126.911V180.857Z" fill="#D2CCCA"/>
<path d="M133.195 180.857H126.911V187.141H133.195V180.857Z" fill="#D2CCCA"/>
<path d="M139.453 180.857H133.17V187.141H139.453V180.857Z" fill="#D2CCCA"/>
<path d="M145.737 180.857H139.453V187.141H145.737V180.857Z" fill="#D2CCCA"/>
<path d="M120.653 187.141H114.369V193.424H120.653V187.141Z" fill="#D2CCCA"/>
<path d="M126.911 187.141H120.628V193.424H126.911V187.141Z" fill="#D2CCCA"/>
<path d="M133.195 187.141H126.911V193.424H133.195V187.141Z" fill="#D2CCCA"/>
<path d="M139.453 187.141H133.17V193.424H139.453V187.141Z" fill="#D2CCCA"/>
<path d="M145.737 187.141H139.453V193.424H145.737V187.141Z" fill="#D2CCCA"/>
<path d="M120.653 193.4H114.369V199.684H120.653V193.4Z" fill="#D2CCCA"/>
<path d="M126.911 193.4H120.628V199.684H126.911V193.4Z" fill="#D2CCCA"/>
<path d="M133.195 193.4H126.911V199.684H133.195V193.4Z" fill="#D2CCCA"/>
<path d="M139.453 193.4H133.17V199.684H139.453V193.4Z" fill="#D2CCCA"/>
<path d="M145.737 193.4H139.453V199.684H145.737V193.4Z" fill="#D2CCCA"/>
<path d="M120.653 199.683H114.369V205.967H120.653V199.683Z" fill="#D2CCCA"/>
<path d="M126.911 199.683H120.628V205.967H126.911V199.683Z" fill="#D2CCCA"/>
<path d="M133.195 199.683H126.911V205.967H133.195V199.683Z" fill="#D2CCCA"/>
<path d="M139.453 199.683H133.17V205.967H139.453V199.683Z" fill="#D2CCCA"/>
<path d="M145.737 199.683H139.453V205.967H145.737V199.683Z" fill="#D2CCCA"/>
<path d="M120.653 205.967H114.369V212.251H120.653V205.967Z" fill="#D2CCCA"/>
<path d="M126.911 205.967H120.628V212.251H126.911V205.967Z" fill="#D2CCCA"/>
<path d="M133.195 205.967H126.911V212.251H133.195V205.967Z" fill="#D2CCCA"/>
<path d="M139.453 205.967H133.17V212.251H139.453V205.967Z" fill="#D2CCCA"/>
<path d="M145.737 205.967H139.453V212.251H145.737V205.967Z" fill="#D2CCCA"/>
<path d="M120.653 212.226H114.369V218.51H120.653V212.226Z" fill="#D2CCCA"/>
<path d="M126.911 212.226H120.628V218.51H126.911V212.226Z" fill="#D2CCCA"/>
<path d="M133.195 212.226H126.911V218.51H133.195V212.226Z" fill="#D2CCCA"/>
<path d="M139.453 212.226H133.17V218.51H139.453V212.226Z" fill="#D2CCCA"/>
<path d="M145.737 212.226H139.453V218.51H145.737V212.226Z" fill="#D2CCCA"/>
<path d="M114.368 218.51H108.085V224.794H114.368V218.51Z" fill="#0B2343"/>
<path d="M120.653 218.51H114.369V224.794H120.653V218.51Z" fill="#D2CCCA"/>
<path d="M126.911 218.51H120.628V224.794H126.911V218.51Z" fill="#D2CCCA"/>
<path d="M133.195 218.51H126.911V224.794H133.195V218.51Z" fill="#D2CCCA"/>
<path d="M139.453 218.51H133.17V224.794H139.453V218.51Z" fill="#D2CCCA"/>
<path d="M145.737 218.51H139.453V224.794H145.737V218.51Z" fill="#D2CCCA"/>
<path d="M114.368 224.769H108.085V231.053H114.368V224.769Z" fill="#0B2343"/>
<path d="M120.653 224.769H114.369V231.053H120.653V224.769Z" fill="#D2CCCA"/>
<path d="M126.911 224.769H120.628V231.053H126.911V224.769Z" fill="#D2CCCA"/>
<path d="M133.195 224.769H126.911V231.053H133.195V224.769Z" fill="#D2CCCA"/>
<path d="M139.453 224.769H133.17V231.053H139.453V224.769Z" fill="#D2CCCA"/>
<path d="M145.737 224.769H139.453V231.053H145.737V224.769Z" fill="#D2CCCA"/>
<path d="M114.368 231.053H108.085V237.336H114.368V231.053Z" fill="#0B2343"/>
<path d="M120.653 231.053H114.369V237.336H120.653V231.053Z" fill="#D2CCCA"/>
<path d="M126.911 231.053H120.628V237.336H126.911V231.053Z" fill="#D2CCCA"/>
<path d="M133.195 231.053H126.911V237.336H133.195V231.053Z" fill="#D2CCCA"/>
<path d="M139.453 231.053H133.17V237.336H139.453V231.053Z" fill="#D2CCCA"/>
<path d="M145.737 231.053H139.453V237.336H145.737V231.053Z" fill="#D2CCCA"/>
<path d="M114.368 237.336H108.085V243.62H114.368V237.336Z" fill="#0B2343"/>
<path d="M120.653 237.336H114.369V243.62H120.653V237.336Z" fill="#D2CCCA"/>
<path d="M126.911 237.336H120.628V243.62H126.911V237.336Z" fill="#D2CCCA"/>
<path d="M133.195 237.336H126.911V243.62H133.195V237.336Z" fill="#D2CCCA"/>
<path d="M139.453 237.336H133.17V243.62H139.453V237.336Z" fill="#D2CCCA"/>
<path d="M145.737 237.336H139.453V243.62H145.737V237.336Z" fill="#D2CCCA"/>
<path d="M114.368 243.596H108.085V249.879H114.368V243.596Z" fill="#0B2343"/>
<path d="M120.653 243.596H114.369V249.879H120.653V243.596Z" fill="#D2CCCA"/>
<path d="M126.911 243.596H120.628V249.879H126.911V243.596Z" fill="#D2CCCA"/>
<path d="M133.195 243.596H126.911V249.879H133.195V243.596Z" fill="#D2CCCA"/>
<path d="M139.453 243.596H133.17V249.879H139.453V243.596Z" fill="#D2CCCA"/>
<path d="M145.737 243.596H139.453V249.879H145.737V243.596Z" fill="#D2CCCA"/>
<path d="M126.91 55.4043H120.627V61.688H126.91V55.4043Z" fill="#0B2343"/>
<path d="M126.91 61.6633H120.627V67.947H126.91V61.6633Z" fill="#0B2343"/>
<path d="M126.91 67.947H120.627V74.2307H126.91V67.947Z" fill="#0B2343"/>
<path d="M126.91 74.2061H120.627V80.4897H126.91V74.2061Z" fill="#0B2343"/>
<path d="M126.91 80.49H120.627V86.7737H126.91V80.49Z" fill="#0B2343"/>
<path d="M126.91 86.7737H120.627V93.0574H126.91V86.7737Z" fill="#0B2343"/>
<path d="M126.91 93.0327H120.627V99.3164H126.91V93.0327Z" fill="#0B2343"/>
<path d="M120.652 99.3164H114.368V105.6H120.652V99.3164Z" fill="#0B2343"/>
<path d="M120.652 105.575H114.368V111.859H120.652V105.575Z" fill="#0B2343"/>
<path d="M120.652 111.859H114.368V118.143H120.652V111.859Z" fill="#0B2343"/>
<path d="M120.652 118.118H114.368V124.402H120.652V118.118Z" fill="#0B2343"/>
<path d="M120.652 124.402H114.368V130.686H120.652V124.402Z" fill="#0B2343"/>
<path d="M120.652 130.686H114.368V136.969H120.652V130.686Z" fill="#0B2343"/>
<path d="M120.652 136.945H114.368V143.229H120.652V136.945Z" fill="#0B2343"/>
<path d="M120.652 143.229H114.368V149.512H120.652V143.229Z" fill="#0B2343"/>
<path d="M120.652 149.488H114.368V155.771H120.652V149.488Z" fill="#0B2343"/>
<path d="M120.652 155.771H114.368V162.055H120.652V155.771Z" fill="#0B2343"/>
<path d="M120.652 162.055H114.368V168.339H120.652V162.055Z" fill="#0B2343"/>
<path d="M114.367 168.314H108.084V174.598H114.367V168.314Z" fill="#0B2343"/>
<path d="M114.367 174.598H108.084V180.882H114.367V174.598Z" fill="#0B2343"/>
<path d="M114.367 180.857H108.084V187.141H114.367V180.857Z" fill="#0B2343"/>
<path d="M114.367 187.141H108.084V193.424H114.367V187.141Z" fill="#0B2343"/>
<path d="M114.367 193.4H108.084V199.684H114.367V193.4Z" fill="#0B2343"/>
<path d="M114.367 199.684H108.084V205.967H114.367V199.684Z" fill="#0B2343"/>
<path d="M114.367 205.967H108.084V212.251H114.367V205.967Z" fill="#0B2343"/>
<path d="M114.367 212.227H108.084V218.51H114.367V212.227Z" fill="#0B2343"/>
<path d="M108.084 249.879H101.801V256.163H108.084V249.879Z" fill="#0B2343"/>
<path d="M151.995 24.0349H145.712V30.3186H151.995V24.0349Z" fill="#0B2343"/>
<path d="M145.737 30.2939H139.453V36.5776H145.737V30.2939Z" fill="#0B2343"/>
<path d="M151.995 30.2939H145.712V36.5776H151.995V30.2939Z" fill="#0B2343"/>
<path d="M158.279 30.2939H151.995V36.5776H158.279V30.2939Z" fill="#0B2343"/>
<path d="M139.453 36.5776H133.17V42.8613H139.453V36.5776Z" fill="#0B2343"/>
<path d="M151.995 36.5776H145.712V42.8613H151.995V36.5776Z" fill="#0B2343"/>
<path d="M164.563 36.5776H158.279V42.8613H164.563V36.5776Z" fill="#0B2343"/>
<path d="M133.195 42.8369H126.911V49.1206H133.195V42.8369Z" fill="#0B2343"/>
<path d="M151.995 42.8369H145.712V49.1206H151.995V42.8369Z" fill="#0B2343"/>
<path d="M170.821 42.8369H164.537V49.1206H170.821V42.8369Z" fill="#0B2343"/>
<path d="M126.911 49.1206H120.628V55.4043H126.911V49.1206Z" fill="#0B2343"/>
<path d="M151.995 49.1206H145.712V55.4043H151.995V49.1206Z" fill="#0B2343"/>
<path d="M177.105 49.1206H170.821V55.4043H177.105V49.1206Z" fill="#0B2343"/>
<path d="M151.995 55.4043H145.712V61.688H151.995V55.4043Z" fill="#0B2343"/>
<path d="M151.995 61.6633H145.712V67.947H151.995V61.6633Z" fill="#0B2343"/>
<path d="M151.995 67.947H145.712V74.2307H151.995V67.947Z" fill="#0B2343"/>
<path d="M151.995 74.2061H145.712V80.4897H151.995V74.2061Z" fill="#0B2343"/>
<path d="M151.995 80.49H145.712V86.7737H151.995V80.49Z" fill="#0B2343"/>
<path d="M151.995 86.7737H145.712V93.0574H151.995V86.7737Z" fill="#0B2343"/>
<path d="M151.995 93.0327H145.712V99.3164H151.995V93.0327Z" fill="#0B2343"/>
<path d="M151.995 99.3164H145.712V105.6H151.995V99.3164Z" fill="#0B2343"/>
<path d="M151.995 105.575H145.712V111.859H151.995V105.575Z" fill="#0B2343"/>
<path d="M151.995 111.859H145.712V118.143H151.995V111.859Z" fill="#0B2343"/>
<path d="M151.995 118.118H145.712V124.402H151.995V118.118Z" fill="#0B2343"/>
<path d="M151.995 124.402H145.712V130.686H151.995V124.402Z" fill="#0B2343"/>
<path d="M151.995 130.686H145.712V136.969H151.995V130.686Z" fill="#0B2343"/>
<path d="M151.995 136.945H145.712V143.229H151.995V136.945Z" fill="#0B2343"/>
<path d="M151.995 143.229H145.712V149.512H151.995V143.229Z" fill="#0B2343"/>
<path d="M151.995 149.488H145.712V155.771H151.995V149.488Z" fill="#0B2343"/>
<path d="M151.995 155.771H145.712V162.055H151.995V155.771Z" fill="#0B2343"/>
<path d="M151.995 162.055H145.712V168.339H151.995V162.055Z" fill="#0B2343"/>
<path d="M151.995 168.314H145.712V174.598H151.995V168.314Z" fill="#0B2343"/>
<path d="M151.995 174.598H145.712V180.882H151.995V174.598Z" fill="#0B2343"/>
<path d="M151.995 180.857H145.712V187.141H151.995V180.857Z" fill="#0B2343"/>
<path d="M151.995 187.141H145.712V193.424H151.995V187.141Z" fill="#0B2343"/>
<path d="M151.995 193.4H145.712V199.684H151.995V193.4Z" fill="#0B2343"/>
<path d="M151.995 199.684H145.712V205.967H151.995V199.684Z" fill="#0B2343"/>
<path d="M151.995 205.967H145.712V212.251H151.995V205.967Z" fill="#0B2343"/>
<path d="M151.995 212.227H145.712V218.51H151.995V212.227Z" fill="#0B2343"/>
<path d="M151.995 218.51H145.712V224.794H151.995V218.51Z" fill="#0B2343"/>
<path d="M151.995 224.769H145.712V231.053H151.995V224.769Z" fill="#0B2343"/>
<path d="M151.995 231.053H145.712V237.336H151.995V231.053Z" fill="#0B2343"/>
<path d="M151.995 237.336H145.712V243.62H151.995V237.336Z" fill="#0B2343"/>
<path d="M151.995 243.596H145.712V249.879H151.995V243.596Z" fill="#0B2343"/>
<path d="M114.368 249.879H108.085V256.163H114.368V249.879Z" fill="#0B2343"/>
<path d="M120.653 249.879H114.369V256.163H120.653V249.879Z" fill="#0B2343"/>
<path d="M126.911 249.879H120.628V256.163H126.911V249.879Z" fill="#0B2343"/>
<path d="M133.195 249.879H126.911V256.163H133.195V249.879Z" fill="#0B2343"/>
<path d="M139.453 249.879H133.17V256.163H139.453V249.879Z" fill="#0B2343"/>
<path d="M145.737 249.879H139.453V256.163H145.737V249.879Z" fill="#0B2343"/>
<path d="M151.995 249.879H145.712V256.163H151.995V249.879Z" fill="#0B2343"/>
<path d="M158.279 249.879H151.995V256.163H158.279V249.879Z" fill="#0B2343"/>
<path d="M164.563 249.879H158.279V256.163H164.563V249.879Z" fill="#0B2343"/>
<path d="M101.825 249.879H95.542V256.163H101.825V249.879Z" fill="#0B2343"/>
<path d="M95.5422 262.422H89.2588V268.706H95.5422V262.422Z" fill="#0B2343"/>
<path d="M101.825 262.422H95.542V268.706H101.825V262.422Z" fill="#0B2343"/>
<path d="M108.084 262.422H101.801V268.706H108.084V262.422Z" fill="#0B2343"/>
<path d="M114.367 262.422H108.084V268.706H114.367V262.422Z" fill="#0B2343"/>
<path d="M120.652 262.422H114.368V268.706H120.652V262.422Z" fill="#0B2343"/>
<path d="M126.91 262.422H120.627V268.706H126.91V262.422Z" fill="#0B2343"/>
<path d="M133.194 262.422H126.91V268.706H133.194V262.422Z" fill="#0B2343"/>
<path d="M139.452 262.422H133.169V268.706H139.452V262.422Z" fill="#0B2343"/>
<path d="M145.736 262.422H139.452V268.706H145.736V262.422Z" fill="#0B2343"/>
<path d="M151.994 262.422H145.711V268.706H151.994V262.422Z" fill="#0B2343"/>
<path d="M158.278 262.422H151.994V268.706H158.278V262.422Z" fill="#0B2343"/>
<path d="M164.562 262.422H158.278V268.706H164.562V262.422Z" fill="#0B2343"/>
<path d="M95.5422 268.681H89.2588V274.965H95.5422V268.681Z" fill="#A47A52"/>
<path d="M101.826 268.681H95.543V274.965H101.826V268.681Z" fill="#A47A52"/>
<path d="M108.084 268.681H101.801V274.965H108.084V268.681Z" fill="#A47A52"/>
<path d="M114.368 268.681H108.085V274.965H114.368V268.681Z" fill="#A47A52"/>
<path d="M120.652 268.681H114.368V274.965H120.652V268.681Z" fill="#A47A52"/>
<path d="M126.91 268.681H120.627V274.965H126.91V268.681Z" fill="#A47A52"/>
<path d="M133.194 268.681H126.91V274.965H133.194V268.681Z" fill="#A47A52"/>
<path d="M139.452 268.681H133.169V274.965H139.452V268.681Z" fill="#A47A52"/>
<path d="M145.736 268.681H139.452V274.965H145.736V268.681Z" fill="#A47A52"/>
<path d="M151.994 268.681H145.711V274.965H151.994V268.681Z" fill="#A47A52"/>
<path d="M158.279 268.681H151.995V274.965H158.279V268.681Z" fill="#A47A52"/>
<path d="M164.561 268.681H158.277V274.965H164.561V268.681Z" fill="#A47A52"/>
<path d="M89.2834 268.681H83V274.965H89.2834V268.681Z" fill="#A47A52"/>
<path d="M101.826 256.138H95.543V262.422H101.826V256.138Z" fill="#CBA995"/>
<path d="M189.916 256.138H196.199V262.422H189.916V256.138Z" fill="#CBA995"/>
<path d="M183.632 256.138H189.915V262.422H183.632V256.138Z" fill="#CBA995"/>
<path d="M177.348 256.138H183.632V262.422H177.348V256.138Z" fill="#CBA995"/>
<path d="M171.09 256.138H177.373V262.422H171.09V256.138Z" fill="#CBA995"/>
<path d="M164.806 256.138H171.09V262.422H164.806V256.138Z" fill="#CBA995"/>
<path d="M158.548 256.138H164.831V262.422H158.548V256.138Z" fill="#CBA995"/>
<path d="M152.264 256.138H158.548V262.422H152.264V256.138Z" fill="#CBA995"/>
<path d="M146.006 256.138H152.289V262.422H146.006V256.138Z" fill="#CBA995"/>
<path d="M139.721 256.138H146.005V262.422H139.721V256.138Z" fill="#CBA995"/>
<path d="M133.439 256.138H139.723V262.422H133.439V256.138Z" fill="#CBA995"/>
<path d="M164.806 49.1206H171.09V55.4043H164.806V49.1206Z" fill="#0B2343"/>
<path d="M127.179 49.1206H133.463V55.4043H127.179V49.1206Z" fill="#0B2343"/>
<path d="M158.548 55.4043H164.831V61.688H158.548V55.4043Z" fill="#0B2343"/>
<path d="M133.438 55.4043H139.722V61.688H133.438V55.4043Z" fill="#0B2343"/>
<path d="M152.263 61.6633H158.547V67.947H152.263V61.6633Z" fill="#0B2343"/>
<path d="M139.721 61.6633H146.005V67.947H139.721V61.6633Z" fill="#0B2343"/>
<path d="M152.263 36.5776H158.547V42.8613H152.263V36.5776Z" fill="#A5ACBB"/>
<path d="M158.547 42.8367H164.83V49.1204H158.547V42.8367Z" fill="#A5ACBB"/>
<path d="M152.263 42.8367H158.547V49.1204H152.263V42.8367Z" fill="#A5ACBB"/>
<path d="M158.547 49.1206H164.83V55.4043H158.547V49.1206Z" fill="#A5ACBB"/>
<path d="M152.263 49.1206H158.547V55.4043H152.263V49.1206Z" fill="#A5ACBB"/>
<path d="M164.805 55.4041H171.089V61.6877H164.805V55.4041Z" fill="#A5ACBB"/>
<path d="M152.263 55.4041H158.547V61.6877H152.263V55.4041Z" fill="#A5ACBB"/>
<path d="M164.805 61.6633H171.089V67.947H164.805V61.6633Z" fill="#A5ACBB"/>
<path d="M158.547 61.6633H164.83V67.947H158.547V61.6633Z" fill="#A5ACBB"/>
<path d="M164.805 67.947H171.089V74.2307H164.805V67.947Z" fill="#A5ACBB"/>
<path d="M158.547 67.947H164.83V74.2307H158.547V67.947Z" fill="#A5ACBB"/>
<path d="M152.263 67.947H158.547V74.2307H152.263V67.947Z" fill="#A5ACBB"/>
<path d="M164.805 74.2061H171.089V80.4897H164.805V74.2061Z" fill="#A5ACBB"/>
<path d="M158.547 74.2061H164.83V80.4897H158.547V74.2061Z" fill="#A5ACBB"/>
<path d="M152.263 74.2061H158.547V80.4897H152.263V74.2061Z" fill="#A5ACBB"/>
<path d="M164.805 80.4897H171.089V86.7734H164.805V80.4897Z" fill="#A5ACBB"/>
<path d="M158.547 80.4897H164.83V86.7734H158.547V80.4897Z" fill="#A5ACBB"/>
<path d="M152.263 80.4897H158.547V86.7734H152.263V80.4897Z" fill="#A5ACBB"/>
<path d="M164.805 86.7734H171.089V93.0571H164.805V86.7734Z" fill="#A5ACBB"/>
<path d="M158.547 86.7734H164.83V93.0571H158.547V86.7734Z" fill="#A5ACBB"/>
<path d="M152.263 86.7734H158.547V93.0571H152.263V86.7734Z" fill="#A5ACBB"/>
<path d="M164.805 93.0327H171.089V99.3164H164.805V93.0327Z" fill="#A5ACBB"/>
<path d="M158.547 93.0327H164.83V99.3164H158.547V93.0327Z" fill="#A5ACBB"/>
<path d="M152.263 93.0327H158.547V99.3164H152.263V93.0327Z" fill="#A5ACBB"/>
<path d="M171.089 99.3164H177.372V105.6H171.089V99.3164Z" fill="#A5ACBB"/>
<path d="M164.805 99.3164H171.089V105.6H164.805V99.3164Z" fill="#A5ACBB"/>
<path d="M158.547 99.3164H164.83V105.6H158.547V99.3164Z" fill="#A5ACBB"/>
<path d="M152.263 99.3164H158.547V105.6H152.263V99.3164Z" fill="#A5ACBB"/>
<path d="M171.089 105.575H177.372V111.859H171.089V105.575Z" fill="#A5ACBB"/>
<path d="M164.805 105.575H171.089V111.859H164.805V105.575Z" fill="#A5ACBB"/>
<path d="M158.547 105.575H164.83V111.859H158.547V105.575Z" fill="#A5ACBB"/>
<path d="M152.263 105.575H158.547V111.859H152.263V105.575Z" fill="#A5ACBB"/>
<path d="M171.089 111.859H177.372V118.143H171.089V111.859Z" fill="#A5ACBB"/>
<path d="M164.805 111.859H171.089V118.143H164.805V111.859Z" fill="#A5ACBB"/>
<path d="M158.547 111.859H164.83V118.143H158.547V111.859Z" fill="#A5ACBB"/>
<path d="M152.263 111.859H158.547V118.143H152.263V111.859Z" fill="#A5ACBB"/>
<path d="M171.089 118.118H177.372V124.402H171.089V118.118Z" fill="#A5ACBB"/>
<path d="M164.805 118.118H171.089V124.402H164.805V118.118Z" fill="#A5ACBB"/>
<path d="M158.547 118.118H164.83V124.402H158.547V118.118Z" fill="#A5ACBB"/>
<path d="M152.263 118.118H158.547V124.402H152.263V118.118Z" fill="#A5ACBB"/>
<path d="M171.089 124.402H177.372V130.686H171.089V124.402Z" fill="#A5ACBB"/>
<path d="M164.805 124.402H171.089V130.686H164.805V124.402Z" fill="#A5ACBB"/>
<path d="M158.547 124.402H164.83V130.686H158.547V124.402Z" fill="#A5ACBB"/>
<path d="M152.263 124.402H158.547V130.686H152.263V124.402Z" fill="#A5ACBB"/>
<path d="M171.089 130.686H177.372V136.969H171.089V130.686Z" fill="#A5ACBB"/>
<path d="M164.805 130.686H171.089V136.969H164.805V130.686Z" fill="#A5ACBB"/>
<path d="M158.547 130.686H164.83V136.969H158.547V130.686Z" fill="#A5ACBB"/>
<path d="M152.263 130.686H158.547V136.969H152.263V130.686Z" fill="#A5ACBB"/>
<path d="M171.089 136.945H177.372V143.229H171.089V136.945Z" fill="#A5ACBB"/>
<path d="M164.805 136.945H171.089V143.229H164.805V136.945Z" fill="#A5ACBB"/>
<path d="M158.547 136.945H164.83V143.229H158.547V136.945Z" fill="#A5ACBB"/>
<path d="M152.263 136.945H158.547V143.229H152.263V136.945Z" fill="#A5ACBB"/>
<path d="M171.089 143.229H177.372V149.512H171.089V143.229Z" fill="#A5ACBB"/>
<path d="M164.805 143.229H171.089V149.512H164.805V143.229Z" fill="#A5ACBB"/>
<path d="M158.547 143.229H164.83V149.512H158.547V143.229Z" fill="#A5ACBB"/>
<path d="M152.263 143.229H158.547V149.512H152.263V143.229Z" fill="#A5ACBB"/>
<path d="M171.089 149.488H177.372V155.771H171.089V149.488Z" fill="#A5ACBB"/>
<path d="M164.805 149.488H171.089V155.771H164.805V149.488Z" fill="#A5ACBB"/>
<path d="M158.547 149.488H164.83V155.771H158.547V149.488Z" fill="#A5ACBB"/>
<path d="M152.263 149.488H158.547V155.771H152.263V149.488Z" fill="#A5ACBB"/>
<path d="M171.089 155.771H177.372V162.055H171.089V155.771Z" fill="#A5ACBB"/>
<path d="M164.805 155.771H171.089V162.055H164.805V155.771Z" fill="#A5ACBB"/>
<path d="M158.547 155.771H164.83V162.055H158.547V155.771Z" fill="#A5ACBB"/>
<path d="M152.263 155.771H158.547V162.055H152.263V155.771Z" fill="#A5ACBB"/>
<path d="M171.089 162.055H177.372V168.339H171.089V162.055Z" fill="#A5ACBB"/>
<path d="M164.805 162.055H171.089V168.339H164.805V162.055Z" fill="#A5ACBB"/>
<path d="M158.547 162.055H164.83V168.339H158.547V162.055Z" fill="#A5ACBB"/>
<path d="M152.263 162.055H158.547V168.339H152.263V162.055Z" fill="#A5ACBB"/>
<path d="M177.347 168.314H183.631V174.598H177.347V168.314Z" fill="#A5ACBB"/>
<path d="M171.089 168.314H177.372V174.598H171.089V168.314Z" fill="#A5ACBB"/>
<path d="M164.805 168.314H171.089V174.598H164.805V168.314Z" fill="#A5ACBB"/>
<path d="M158.547 168.314H164.83V174.598H158.547V168.314Z" fill="#A5ACBB"/>
<path d="M152.263 168.314H158.547V174.598H152.263V168.314Z" fill="#A5ACBB"/>
<path d="M177.347 174.598H183.631V180.881H177.347V174.598Z" fill="#A5ACBB"/>
<path d="M171.089 174.598H177.372V180.881H171.089V174.598Z" fill="#A5ACBB"/>
<path d="M164.805 174.598H171.089V180.881H164.805V174.598Z" fill="#A5ACBB"/>
<path d="M158.547 174.598H164.83V180.881H158.547V174.598Z" fill="#A5ACBB"/>
<path d="M152.263 174.598H158.547V180.881H152.263V174.598Z" fill="#A5ACBB"/>
<path d="M177.347 180.857H183.631V187.141H177.347V180.857Z" fill="#A5ACBB"/>
<path d="M171.089 180.857H177.372V187.141H171.089V180.857Z" fill="#A5ACBB"/>
<path d="M164.805 180.857H171.089V187.141H164.805V180.857Z" fill="#A5ACBB"/>
<path d="M158.547 180.857H164.83V187.141H158.547V180.857Z" fill="#A5ACBB"/>
<path d="M152.263 180.857H158.547V187.141H152.263V180.857Z" fill="#A5ACBB"/>
<path d="M177.347 187.141H183.631V193.424H177.347V187.141Z" fill="#A5ACBB"/>
<path d="M171.089 187.141H177.372V193.424H171.089V187.141Z" fill="#A5ACBB"/>
<path d="M164.805 187.141H171.089V193.424H164.805V187.141Z" fill="#A5ACBB"/>
<path d="M158.547 187.141H164.83V193.424H158.547V187.141Z" fill="#A5ACBB"/>
<path d="M152.263 187.141H158.547V193.424H152.263V187.141Z" fill="#A5ACBB"/>
<path d="M177.347 193.4H183.631V199.684H177.347V193.4Z" fill="#A5ACBB"/>
<path d="M171.089 193.4H177.372V199.684H171.089V193.4Z" fill="#A5ACBB"/>
<path d="M164.805 193.4H171.089V199.684H164.805V193.4Z" fill="#A5ACBB"/>
<path d="M158.547 193.4H164.83V199.684H158.547V193.4Z" fill="#A5ACBB"/>
<path d="M152.263 193.4H158.547V199.684H152.263V193.4Z" fill="#A5ACBB"/>
<path d="M177.347 199.683H183.631V205.967H177.347V199.683Z" fill="#A5ACBB"/>
<path d="M171.089 199.683H177.372V205.967H171.089V199.683Z" fill="#A5ACBB"/>
<path d="M164.805 199.683H171.089V205.967H164.805V199.683Z" fill="#A5ACBB"/>
<path d="M158.547 199.683H164.83V205.967H158.547V199.683Z" fill="#A5ACBB"/>
<path d="M152.263 199.683H158.547V205.967H152.263V199.683Z" fill="#A5ACBB"/>
<path d="M177.347 205.967H183.631V212.251H177.347V205.967Z" fill="#A5ACBB"/>
<path d="M171.089 205.967H177.372V212.251H171.089V205.967Z" fill="#A5ACBB"/>
<path d="M164.805 205.967H171.089V212.251H164.805V205.967Z" fill="#A5ACBB"/>
<path d="M158.547 205.967H164.83V212.251H158.547V205.967Z" fill="#A5ACBB"/>
<path d="M152.263 205.967H158.547V212.251H152.263V205.967Z" fill="#A5ACBB"/>
<path d="M177.347 212.226H183.631V218.51H177.347V212.226Z" fill="#A5ACBB"/>
<path d="M171.089 212.226H177.372V218.51H171.089V212.226Z" fill="#A5ACBB"/>
<path d="M164.805 212.226H171.089V218.51H164.805V212.226Z" fill="#A5ACBB"/>
<path d="M158.547 212.226H164.83V218.51H158.547V212.226Z" fill="#A5ACBB"/>
<path d="M152.263 212.226H158.547V218.51H152.263V212.226Z" fill="#A5ACBB"/>
<path d="M183.632 218.51H189.915V224.794H183.632V218.51Z" fill="#0B2343"/>
<path d="M177.347 218.51H183.631V224.794H177.347V218.51Z" fill="#A5ACBB"/>
<path d="M171.089 218.51H177.372V224.794H171.089V218.51Z" fill="#A5ACBB"/>
<path d="M164.805 218.51H171.089V224.794H164.805V218.51Z" fill="#A5ACBB"/>
<path d="M158.547 218.51H164.83V224.794H158.547V218.51Z" fill="#A5ACBB"/>
<path d="M152.263 218.51H158.547V224.794H152.263V218.51Z" fill="#A5ACBB"/>
<path d="M183.632 224.769H189.915V231.053H183.632V224.769Z" fill="#0B2343"/>
<path d="M177.347 224.769H183.631V231.053H177.347V224.769Z" fill="#A5ACBB"/>
<path d="M171.089 224.769H177.372V231.053H171.089V224.769Z" fill="#A5ACBB"/>
<path d="M164.805 224.769H171.089V231.053H164.805V224.769Z" fill="#A5ACBB"/>
<path d="M158.547 224.769H164.83V231.053H158.547V224.769Z" fill="#A5ACBB"/>
<path d="M152.263 224.769H158.547V231.053H152.263V224.769Z" fill="#A5ACBB"/>
<path d="M183.632 231.053H189.915V237.336H183.632V231.053Z" fill="#0B2343"/>
<path d="M177.347 231.053H183.631V237.336H177.347V231.053Z" fill="#A5ACBB"/>
<path d="M171.089 231.053H177.372V237.336H171.089V231.053Z" fill="#A5ACBB"/>
<path d="M164.805 231.053H171.089V237.336H164.805V231.053Z" fill="#A5ACBB"/>
<path d="M158.547 231.053H164.83V237.336H158.547V231.053Z" fill="#A5ACBB"/>
<path d="M152.263 231.053H158.547V237.336H152.263V231.053Z" fill="#A5ACBB"/>
<path d="M183.632 237.336H189.915V243.62H183.632V237.336Z" fill="#0B2343"/>
<path d="M177.347 237.336H183.631V243.62H177.347V237.336Z" fill="#A5ACBB"/>
<path d="M171.089 237.336H177.372V243.62H171.089V237.336Z" fill="#A5ACBB"/>
<path d="M164.805 237.336H171.089V243.62H164.805V237.336Z" fill="#A5ACBB"/>
<path d="M158.547 237.336H164.83V243.62H158.547V237.336Z" fill="#A5ACBB"/>
<path d="M152.263 237.336H158.547V243.62H152.263V237.336Z" fill="#A5ACBB"/>
<path d="M183.632 243.596H189.915V249.879H183.632V243.596Z" fill="#0B2343"/>
<path d="M177.347 243.596H183.631V249.879H177.347V243.596Z" fill="#A5ACBB"/>
<path d="M171.089 243.596H177.372V249.879H171.089V243.596Z" fill="#A5ACBB"/>
<path d="M164.805 243.596H171.089V249.879H164.805V243.596Z" fill="#A5ACBB"/>
<path d="M158.547 243.596H164.83V249.879H158.547V243.596Z" fill="#A5ACBB"/>
<path d="M152.263 243.596H158.547V249.879H152.263V243.596Z" fill="#A5ACBB"/>
<path d="M171.09 55.4043H177.373V61.688H171.09V55.4043Z" fill="#0B2343"/>
<path d="M171.09 61.6633H177.373V67.947H171.09V61.6633Z" fill="#0B2343"/>
<path d="M171.09 67.947H177.373V74.2307H171.09V67.947Z" fill="#0B2343"/>
<path d="M171.09 74.2061H177.373V80.4897H171.09V74.2061Z" fill="#0B2343"/>
<path d="M171.09 80.49H177.373V86.7737H171.09V80.49Z" fill="#0B2343"/>
<path d="M171.09 86.7737H177.373V93.0574H171.09V86.7737Z" fill="#0B2343"/>
<path d="M171.09 93.0327H177.373V99.3164H171.09V93.0327Z" fill="#0B2343"/>
<path d="M177.348 99.3164H183.632V105.6H177.348V99.3164Z" fill="#0B2343"/>
<path d="M177.348 105.575H183.632V111.859H177.348V105.575Z" fill="#0B2343"/>
<path d="M177.348 111.859H183.632V118.143H177.348V111.859Z" fill="#0B2343"/>
<path d="M177.348 118.118H183.632V124.402H177.348V118.118Z" fill="#0B2343"/>
<path d="M177.348 124.402H183.632V130.686H177.348V124.402Z" fill="#0B2343"/>
<path d="M177.348 130.686H183.632V136.969H177.348V130.686Z" fill="#0B2343"/>
<path d="M177.348 136.945H183.632V143.229H177.348V136.945Z" fill="#0B2343"/>
<path d="M177.348 143.229H183.632V149.512H177.348V143.229Z" fill="#0B2343"/>
<path d="M177.348 149.488H183.632V155.771H177.348V149.488Z" fill="#0B2343"/>
<path d="M177.348 155.771H183.632V162.055H177.348V155.771Z" fill="#0B2343"/>
<path d="M177.348 162.055H183.632V168.339H177.348V162.055Z" fill="#0B2343"/>
<path d="M183.632 168.314H189.915V174.598H183.632V168.314Z" fill="#0B2343"/>
<path d="M183.632 174.598H189.915V180.882H183.632V174.598Z" fill="#0B2343"/>
<path d="M183.632 180.857H189.915V187.141H183.632V180.857Z" fill="#0B2343"/>
<path d="M183.632 187.141H189.915V193.424H183.632V187.141Z" fill="#0B2343"/>
<path d="M183.632 193.4H189.915V199.684H183.632V193.4Z" fill="#0B2343"/>
<path d="M183.632 199.684H189.915V205.967H183.632V199.684Z" fill="#0B2343"/>
<path d="M183.632 205.967H189.915V212.251H183.632V205.967Z" fill="#0B2343"/>
<path d="M183.632 212.227H189.915V218.51H183.632V212.227Z" fill="#0B2343"/>
<path d="M189.915 249.879H196.198V256.163H189.915V249.879Z" fill="#0B2343"/>
<path d="M146.006 24.0349H152.289V30.3186H146.006V24.0349Z" fill="#0B2343"/>
<path d="M152.263 30.2939H158.547V36.5776H152.263V30.2939Z" fill="#0B2343"/>
<path d="M146.006 30.2939H152.289V36.5776H146.006V30.2939Z" fill="#0B2343"/>
<path d="M139.721 30.2939H146.005V36.5776H139.721V30.2939Z" fill="#0B2343"/>
<path d="M158.548 36.5776H164.831V42.8613H158.548V36.5776Z" fill="#0B2343"/>
<path d="M146.006 36.5776H152.289V42.8613H146.006V36.5776Z" fill="#0B2343"/>
<path d="M133.438 36.5776H139.722V42.8613H133.438V36.5776Z" fill="#0B2343"/>
<path d="M164.806 42.8369H171.09V49.1206H164.806V42.8369Z" fill="#0B2343"/>
<path d="M146.006 42.8369H152.289V49.1206H146.006V42.8369Z" fill="#0B2343"/>
<path d="M127.179 42.8369H133.463V49.1206H127.179V42.8369Z" fill="#0B2343"/>
<path d="M171.09 49.1206H177.373V55.4043H171.09V49.1206Z" fill="#0B2343"/>
<path d="M146.006 49.1206H152.289V55.4043H146.006V49.1206Z" fill="#0B2343"/>
<path d="M120.896 49.1206H127.18V55.4043H120.896V49.1206Z" fill="#0B2343"/>
<path d="M139.721 24.2939H146.005V30.5776H139.721V24.2939Z" fill="white"/>
<path d="M139.825 24.2939H146.108V30.5776H139.825V24.2939Z" fill="white"/>
<path d="M146.103 18.5H152.387V24.7837H146.103V18.5Z" fill="white"/>
<path d="M152 24.5H158.283V30.7837H152V24.5Z" fill="white"/>
<path d="M158 30.5H164.283V36.7837H158V30.5Z" fill="white"/>
<path d="M164 36.5H170.283V42.7837H164V36.5Z" fill="white"/>
<path d="M170 42.5H177V49.5H170V42.5Z" fill="white"/>
<path d="M177 48.5H184V99.5H177V48.5Z" fill="white"/>
<path d="M183 98.5H190V168.5H183V98.5Z" fill="white"/>
<path d="M190 167.5H197V250.5H190V167.5Z" fill="white"/>
<path d="M134 29.5H140V36.5H134V29.5Z" fill="white"/>
<path d="M127 36.5H134V43.5H127V36.5Z" fill="white"/>
<path d="M121 42.5H128V49.5H121V42.5Z" fill="white"/>
<path d="M146.006 55.4043H152.289V61.688H146.006V55.4043Z" fill="#0B2343"/>
<path d="M146.006 61.6633H152.289V67.947H146.006V61.6633Z" fill="#0B2343"/>
<path d="M146.006 67.947H152.289V74.2307H146.006V67.947Z" fill="#0B2343"/>
<path d="M146.006 74.2061H152.289V80.4897H146.006V74.2061Z" fill="#0B2343"/>
<path d="M146.006 80.49H152.289V86.7737H146.006V80.49Z" fill="#0B2343"/>
<path d="M146.006 86.7737H152.289V93.0574H146.006V86.7737Z" fill="#0B2343"/>
<path d="M146.006 93.0327H152.289V99.3164H146.006V93.0327Z" fill="#0B2343"/>
<path d="M146.006 99.3164H152.289V105.6H146.006V99.3164Z" fill="#0B2343"/>
<path d="M146.006 105.575H152.289V111.859H146.006V105.575Z" fill="#0B2343"/>
<path d="M146.006 111.859H152.289V118.143H146.006V111.859Z" fill="#0B2343"/>
<path d="M146.006 118.118H152.289V124.402H146.006V118.118Z" fill="#0B2343"/>
<path d="M146.006 124.402H152.289V130.686H146.006V124.402Z" fill="#0B2343"/>
<path d="M146.006 130.686H152.289V136.969H146.006V130.686Z" fill="#0B2343"/>
<path d="M146.006 136.945H152.289V143.229H146.006V136.945Z" fill="#0B2343"/>
<path d="M146.006 143.229H152.289V149.512H146.006V143.229Z" fill="#0B2343"/>
<path d="M146.006 149.488H152.289V155.771H146.006V149.488Z" fill="#0B2343"/>
<path d="M146.006 155.771H152.289V162.055H146.006V155.771Z" fill="#0B2343"/>
<path d="M146.006 162.055H152.289V168.339H146.006V162.055Z" fill="#0B2343"/>
<path d="M146.006 168.314H152.289V174.598H146.006V168.314Z" fill="#0B2343"/>
<path d="M146.006 174.598H152.289V180.882H146.006V174.598Z" fill="#0B2343"/>
<path d="M146.006 180.857H152.289V187.141H146.006V180.857Z" fill="#0B2343"/>
<path d="M146.006 187.141H152.289V193.424H146.006V187.141Z" fill="#0B2343"/>
<path d="M146.006 193.4H152.289V199.684H146.006V193.4Z" fill="#0B2343"/>
<path d="M146.006 199.684H152.289V205.967H146.006V199.684Z" fill="#0B2343"/>
<path d="M146.006 205.967H152.289V212.251H146.006V205.967Z" fill="#0B2343"/>
<path d="M146.006 212.227H152.289V218.51H146.006V212.227Z" fill="#0B2343"/>
<path d="M146.006 218.51H152.289V224.794H146.006V218.51Z" fill="#0B2343"/>
<path d="M146.006 224.769H152.289V231.053H146.006V224.769Z" fill="#0B2343"/>
<path d="M146.006 231.053H152.289V237.336H146.006V231.053Z" fill="#0B2343"/>
<path d="M146.006 237.336H152.289V243.62H146.006V237.336Z" fill="#0B2343"/>
<path d="M146.006 243.596H152.289V249.879H146.006V243.596Z" fill="#0B2343"/>
<path d="M183.632 249.879H189.915V256.163H183.632V249.879Z" fill="#0B2343"/>
<path d="M177.348 249.879H183.632V256.163H177.348V249.879Z" fill="#0B2343"/>
<path d="M171.09 249.879H177.373V256.163H171.09V249.879Z" fill="#0B2343"/>
<path d="M164.806 249.879H171.09V256.163H164.806V249.879Z" fill="#0B2343"/>
<path d="M158.548 249.879H164.831V256.163H158.548V249.879Z" fill="#0B2343"/>
<path d="M152.263 249.879H158.547V256.163H152.263V249.879Z" fill="#0B2343"/>
<path d="M146.006 249.879H152.289V256.163H146.006V249.879Z" fill="#0B2343"/>
<path d="M139.721 249.879H146.005V256.163H139.721V249.879Z" fill="#0B2343"/>
<path d="M133.438 249.879H139.722V256.163H133.438V249.879Z" fill="#0B2343"/>
<path d="M196.175 249.879H202.458V256.163H196.175V249.879Z" fill="#0B2343"/>
<path d="M202.458 262.422H208.741V268.706H202.458V262.422Z" fill="#0B2343"/>
<path d="M196.175 262.422H202.458V268.706H196.175V262.422Z" fill="#0B2343"/>
<path d="M189.916 262.422H196.199V268.706H189.916V262.422Z" fill="#0B2343"/>
<path d="M183.633 262.422H189.916V268.706H183.633V262.422Z" fill="#0B2343"/>
<path d="M177.348 262.422H183.632V268.706H177.348V262.422Z" fill="#0B2343"/>
<path d="M171.09 262.422H177.373V268.706H171.09V262.422Z" fill="#0B2343"/>
<path d="M164.806 262.422H171.09V268.706H164.806V262.422Z" fill="#0B2343"/>
<path d="M158.548 262.422H164.831V268.706H158.548V262.422Z" fill="#0B2343"/>
<path d="M152.264 262.422H158.548V268.706H152.264V262.422Z" fill="#0B2343"/>
<path d="M146.006 262.422H152.289V268.706H146.006V262.422Z" fill="#0B2343"/>
<path d="M139.722 262.422H146.006V268.706H139.722V262.422Z" fill="#0B2343"/>
<path d="M133.438 262.422H139.722V268.706H133.438V262.422Z" fill="#0B2343"/>
<path d="M202.458 268.681H208.741V274.965H202.458V268.681Z" fill="#A47A52"/>
<path d="M196.174 268.681H202.457V274.965H196.174V268.681Z" fill="#A47A52"/>
<path d="M189.916 268.681H196.199V274.965H189.916V268.681Z" fill="#A47A52"/>
<path d="M183.632 268.681H189.915V274.965H183.632V268.681Z" fill="#A47A52"/>
<path d="M177.348 268.681H183.632V274.965H177.348V268.681Z" fill="#A47A52"/>
<path d="M171.09 268.681H177.373V274.965H171.09V268.681Z" fill="#A47A52"/>
<path d="M164.806 268.681H171.09V274.965H164.806V268.681Z" fill="#A47A52"/>
<path d="M158.548 268.681H164.831V274.965H158.548V268.681Z" fill="#A47A52"/>
<path d="M152.264 268.681H158.548V274.965H152.264V268.681Z" fill="#A47A52"/>
<path d="M146.006 268.681H152.289V274.965H146.006V268.681Z" fill="#A47A52"/>
<path d="M139.721 268.681H146.005V274.965H139.721V268.681Z" fill="#A47A52"/>
<path d="M133.439 268.681H139.723V274.965H133.439V268.681Z" fill="#A47A52"/>
<path d="M208.717 268.681H215V274.965H208.717V268.681Z" fill="#A47A52"/>
<path d="M196.174 256.138H202.457V262.422H196.174V256.138Z" fill="#CBA995"/>
<path d="M196 244.5H203V250.5H196V244.5Z" fill="white"/>
<path d="M202 249.5H209V262.5H202V249.5Z" fill="white"/>
<path d="M208 261.5H215V268.5H208V261.5Z" fill="white"/>
<path d="M215 267.5H222V274.5H215V267.5Z" fill="white"/>
<path d="M78 267.5H85V274.5H78V267.5Z" fill="white"/>
<path d="M83 261.5H90V268.5H83V261.5Z" fill="white"/>
<path d="M89 255.5H96V262.5H89V255.5Z" fill="white"/>
<path d="M89 248.5H96V255.5H89V248.5Z" fill="white"/>
<path d="M95 243.5H102V250.5H95V243.5Z" fill="white"/>
<path d="M102 167.5H109V250.5H102V167.5Z" fill="white"/>
<path d="M108 99.5H115V168.5H108V99.5Z" fill="white"/>
<path d="M114 48.5H121V99.5H114V48.5Z" fill="white"/>
<path d="M78 274.5H222V281.5H78V274.5Z" fill="white"/>
</svg>
