<svg width="300" height="300" viewBox="0 0 300 300" fill="none" xmlns="http://www.w3.org/2000/svg">
<path d="M233.646 101.897C234.707 101.719 235.916 102.386 237.073 102.757C237.703 102.957 238.667 101.311 241.13 101.934L241.382 104.426L248.709 104.33V81.8354L240.959 81.8131L241.181 74.0258L256.081 74.0703V111.924L248.731 112.028L248.746 119.645L241.263 119.659L241.233 127.076L203.128 127.187L203.246 119.607L233.461 119.585L233.55 113.007C233.557 112.436 233.135 112.095 232.69 112.213L197.157 112.31C196.319 112.25 195.785 112.287 195.6 113.059V119.63L188.035 119.704L187.916 127.232H180.404L180.226 142.406L172.802 142.584L172.75 149.97L165.304 150.045L165.192 142.472L149.937 142.369V104.967L149.848 104.233C152.369 104.233 155.01 104.582 157.717 104.263L157.694 74.3077L150.278 73.8997L150.248 66.4536L157.642 66.5055L157.717 74.011L165.148 74.1371L165.185 111.946L157.642 112.072L157.694 134.693L172.787 134.744L172.831 127.209L180.374 127.18L180.418 119.585L187.909 119.437V111.954L195.533 111.82L195.407 104.456L233.298 104.411C233.661 103.195 233.632 102.483 233.632 101.897H233.646ZM233.476 104.292L233.416 112.206L241.174 112.265L241.233 104.352L233.476 104.292Z" fill="#F4F4F5"/>
<path d="M57.9208 157.706C57.9356 157.936 58.0839 158.277 58.2693 158.284L59.1519 158.299L59.2409 164.143C58.8033 164.203 58.5808 164.499 58.6105 164.929L51.4536 165.211L51.3423 170.922L51.2014 195.137C51.8022 195.404 52.4029 195.433 52.6995 195.433L60.1012 195.448C60.5907 195.448 61.0282 195.404 61.5326 195.411C61.4584 195.804 61.896 195.886 62.3261 195.886C61.9331 197.354 62.7785 198.407 63.8242 199.876C64.373 200.64 65.1741 200.58 65.938 200.484L66.4423 200.595C66.3829 201.033 66.4793 201.604 66.5832 201.967L66.9985 203.413L77.7894 203.317C79.2579 203.302 80.2369 202.924 81.7424 203.191V210.674H96.7237C97.0945 213.025 96.7237 214.664 96.3232 216.874C96.6199 217.482 96.4938 218.291 95.6705 218.209L74.2518 218.172L74.1776 210.682L58.9961 210.578L58.9368 203.072L43.9185 202.931V157.654L57.9281 157.721L57.9208 157.706Z" fill="#F9F9F9"/>
<path d="M203.136 127.187L203.188 134.685L195.638 134.73L195.615 149.97L203.247 150.015L203.277 157.491L210.693 157.832L210.767 202.917L195.615 202.805L195.497 195.292L197.18 195.545L203.121 195.426C203.321 194.239 203.306 193.283 203.136 192.556C202.379 192.222 202.468 191.844 202.364 191.636C201.89 190.679 202.958 189.737 202.965 189.122L203.195 175.298L203.165 173.095L203.188 166.398L203.054 164.952L199.42 165.055C198.174 165.093 197.136 165.285 195.69 165.078L195.512 158.351C195.489 157.461 194.177 157.505 193.568 157.505L180.367 157.55L180.538 150.007L187.976 149.978V134.885L195.623 134.648L195.675 127.172H203.158L203.136 127.187Z" fill="#F9F9F9"/>
<path d="M100.106 218.254L102.353 218.276L110.318 218.157L112.046 218.476L112.024 224.929C112.024 225.44 112.172 225.774 112.691 225.774L127.48 225.811L127.339 233.383H137.299C137.818 233.383 138.768 232.679 139.413 233.25C139.806 233.769 140.266 233.287 140.607 233.302L143.766 233.413L149.937 233.391L149.766 225.774H165.289L165.222 233.376L157.657 233.428V241L119.789 240.978L119.678 233.398L104.481 233.435L104.4 225.93L96.9609 225.789L97.0054 219.07C97.0054 218.573 97.3763 218.261 97.8806 218.261H100.106V218.254Z" fill="#F4F4F5"/>
<path d="M119.492 73.9146C119.988 75.7168 119.551 77.519 119.544 79.8329L119.484 102.401C119.484 102.735 120.174 103.833 120.337 104.025L123.089 104.3C124.498 104.441 126.018 104.5 127.36 104.218L127.271 104.982L127.249 127.105L112.001 127.172L112.097 119.696L119.529 119.622L119.662 111.983L112.09 111.946L112.105 74.1222L117.919 74.1593C118.639 74.1593 119.121 74.0851 119.492 73.922V73.9146Z" fill="#F4F4F5"/>
<path d="M97.0871 134.722L96.9981 142.05C96.9981 142.361 96.4641 142.591 96.2268 142.524L89.3517 142.487L89.3072 149.896L66.687 150.022L66.6054 157.55L60.0789 157.513C59.3818 157.513 59.1445 157.928 59.1667 158.299L58.2841 158.284C58.0987 158.284 57.943 157.936 57.9355 157.706C58.388 157.817 59.0999 157.528 59.0925 156.838L59.0332 149.985L66.6944 150.089L66.6054 142.332L81.7572 142.369L81.8462 134.767L97.1019 134.715L97.0871 134.722Z" fill="#F4F4F5"/>
<path d="M195.6 202.813L195.541 210.622L188.11 210.719L188.073 218.231L172.773 218.202L172.684 210.533C172.684 210.452 172.684 210.37 172.706 210.296L174.174 210.555L187.865 210.6L187.791 202.842C187.865 202.827 187.961 202.842 188.043 202.842L195.6 202.805V202.813Z" fill="#F4F4F5"/>
<path d="M149.892 66.4462L150.27 66.461L150.3 73.9071C150.129 73.8997 149.929 73.8107 149.699 73.9961L128.992 74.0332C128.436 74.0332 127.769 73.922 127.45 74.2186C127.22 74.4337 127.012 74.76 127.346 75.2273L122.273 74.9751C121.509 74.938 120.649 75.0122 120.678 75.9763L120.767 79.7439L121.012 103.44C122.458 102.965 123.081 103.655 123.089 104.3L120.337 104.025C120.174 103.833 119.484 102.735 119.484 102.401L119.544 79.8329C119.544 77.519 119.989 75.7168 119.492 73.9146C119.596 73.8701 119.699 73.8256 119.811 73.8404C120.493 74.5079 121.413 74.1445 122.303 74.0925L127.45 73.8033L127.338 66.4165L149.885 66.4462H149.892Z" fill="#351616"/>
<path d="M149.892 66.4461L127.338 66.4165L127.271 59.178L149.951 59L149.892 66.4461Z" fill="#F9F9F9"/>
<path d="M82.4691 202.568C82.5877 202.568 82.8177 202.65 83.0846 202.85L96.7754 203.013L96.8941 209.421C96.9089 210.044 97.8063 210.489 97.9917 210.63L97.7692 214.486L97.8805 218.254C97.3761 218.254 97.0127 218.565 97.0053 219.062L96.0486 219.003C95.7445 218.996 95.5295 218.558 95.6704 218.187C96.4936 218.269 96.6123 217.453 96.323 216.852C96.7309 214.642 97.0943 213.003 96.7235 210.652H81.7348L81.7423 203.169C80.2367 202.902 79.2577 203.28 77.7893 203.295L66.9983 203.391L66.583 201.945L81.4604 202.019C81.809 202.383 82.254 202.561 82.4542 202.561L82.4691 202.568Z" fill="#3B1918"/>
<path d="M112.001 127.172L112.024 134.781L97.0869 134.722L97.1017 127.254L112.001 127.172Z" fill="#F9F9F9"/>
<path d="M240.967 81.8203L241.13 101.941C238.675 101.318 237.704 102.965 237.073 102.764C235.924 102.394 234.707 101.726 233.647 101.904L233.617 93.0637C234.885 92.8931 235.723 94.0649 237.214 93.9092C238.92 93.7386 238.43 92.3665 238.149 91.7658C239.521 88.0205 237.036 85.3431 237.036 84.5273C237.036 84.0675 237.578 83.0366 238.697 83.3036L238.675 81.761L240.967 81.8277V81.8203Z" fill="#F9F9F9"/>
<path d="M127.339 66.4165L127.451 73.8033L122.303 74.0925C121.414 74.1445 120.501 74.5079 119.812 73.8404L119.952 66.5352L127.339 66.4165Z" fill="#F4F4F5"/>
<path d="M172.779 218.209L172.809 225.767L165.289 225.774L165.155 218.15L172.779 218.209Z" fill="#F9F9F9"/>
<path d="M238.675 81.7538L238.697 83.2964C237.578 83.0294 237.036 84.0603 237.036 84.5201C237.036 85.3359 239.521 88.0133 238.149 91.7586C238.43 92.3593 238.92 93.7313 237.214 93.9019C235.723 94.0577 234.885 92.8785 233.617 93.0565V81.8502L238.675 81.7463V81.7538Z" fill="#F4F4F5"/>
<path d="M149.929 180.23H127.465L127.517 172.969L148.283 172.865C149.692 172.865 150.07 174.029 150.033 175.253L149.922 180.23H149.929Z" fill="#351616"/>
<path d="M135.252 104.448C135 104.967 135 105.583 135 106.421L134.948 147.857L134.933 156.853C134.933 157.194 135.89 157.55 136.372 157.535L142.327 157.342L142.439 141.197L142.453 107.14C142.453 106.065 142.505 105.204 141.919 104.67C142.416 104.463 143.002 104.344 143.825 104.329L148.253 104.233C148.431 105.034 149.269 105.123 149.974 104.96V142.361L165.215 142.465L165.326 150.037L157.724 150.096L157.835 157.52L150.137 157.809L150.092 162.756C150.092 163.342 149.907 165.152 149.039 165.152L128.065 165.122C127.865 165.122 127.635 165.233 127.494 165.367C127.109 166.502 127.272 167.859 127.324 169.335L127.539 172.954L120.085 172.984L119.729 173.006L112.817 172.709C112.09 172.679 112.09 170.885 112.098 170.165L112.202 157.661L119.707 157.52V150.089L127.279 149.941L127.235 134.833L112.038 134.774L112.009 127.165L127.257 127.098L127.279 104.975C127.991 105.078 128.814 105.034 129.156 104.307L135.259 104.448H135.252ZM127.42 164.425L127.198 157.691L119.981 157.624L120.1 164.158C120.122 165.515 123.393 165.493 127.079 164.974C127.153 164.788 127.242 164.625 127.413 164.425H127.42Z" fill="#351616"/>
<path d="M203.135 127.187H195.652L195.6 134.67L187.946 134.907V150L180.515 150.03L180.344 157.572L193.545 157.528C194.154 157.528 195.466 157.483 195.489 158.373L195.667 165.1C197.113 165.307 198.151 165.115 199.397 165.078L203.031 164.974L203.165 166.42H195.511C195.681 166.019 195.763 165.545 195.629 165.3C195.474 165.018 194.739 165.144 194.257 165.144L180.351 165.055L180.129 157.661L165.244 157.624L165.318 150.059L172.764 149.985L172.816 142.598L180.24 142.42L180.418 127.239H187.931L188.05 119.718L195.622 119.644V113.073L232.007 113.088C232.727 113.088 232.845 112.562 232.704 112.228C233.149 112.109 233.572 112.45 233.565 113.021L233.476 119.6L203.261 119.622L203.142 127.202L203.135 127.187Z" fill="#3B1918"/>
<path d="M149.87 104.233L150.011 77.5042C150.011 76.1321 149.989 74.9306 149.692 73.9888C149.915 73.8033 150.123 73.8849 150.293 73.8998L157.71 74.3077L157.732 104.263C155.017 104.582 152.385 104.233 149.863 104.233H149.87Z" fill="#3B1918"/>
<path d="M233.432 104.286L233.37 112.199L241.128 112.26L241.19 104.346L233.432 104.286Z" fill="#351616"/>
<path d="M232.698 112.213C232.838 112.547 232.72 113.073 232 113.073L195.615 113.059C195.801 112.287 196.335 112.243 197.173 112.31L232.705 112.213H232.698Z" fill="#351616"/>
<path d="M149.87 104.233L149.974 104.967C149.276 105.123 148.431 105.041 148.253 104.24H149.87V104.233Z" fill="#662627"/>
<path d="M96.2192 142.517L96.4046 143.778C96.4417 144.03 96.7087 144.274 97.087 144.23L97.1611 149.407L95.6704 149.362C94.7285 149.355 94.0388 149.169 93.7273 148.784C93.438 148.428 93.3268 147.879 93.2378 147.389C93.0301 146.195 91.0277 145.676 90.783 146.418L89.5963 150.007C88.9436 151.98 89.4257 154.368 89.2848 156.682C89.0623 157.083 89.1216 157.342 89.1216 157.476L74.2294 157.528L74.1478 165.1L66.494 165.256L65.3444 165.078L59.3816 164.974C59.4854 164.662 59.2555 164.343 59.2481 164.121L59.1591 158.277C59.1369 157.906 59.3742 157.483 60.0713 157.491L66.5978 157.528L66.6794 150L89.2997 149.874L89.3442 142.465L96.2192 142.502V142.517Z" fill="#351616"/>
<path d="M58.7291 166.442C58.8106 167.533 58.8626 168.645 58.9664 170.143L59.1667 173.065L59.0702 180.037L59.4633 187.735L66.2049 188.039C66.8501 189.448 66.4422 192.207 66.0714 194.536L63.7797 194.551C63.0306 194.551 63.0084 195.129 63.0899 195.478C63.1864 195.886 62.6301 195.871 62.3335 195.871C61.9033 195.871 61.4657 195.789 61.5399 195.396C61.7624 194.217 60.0788 194.024 60.1085 195.433L52.7069 195.418L52.6772 170.877L52.5215 166.212L57.1642 166.116C57.8094 166.635 58.3879 166.472 58.7291 166.442Z" fill="#351616"/>
<path d="M82.4688 202.568C82.2686 202.568 81.8236 202.39 81.475 202.027L66.5976 201.953C66.4937 201.589 66.3899 201.018 66.4566 200.581C67.3095 200.603 67.7397 200.121 67.5765 199.016C67.5395 198.289 67.7026 197.792 66.7237 197.236L67.5988 196.301C66.7237 195.975 66.8646 195.448 66.7756 195.344C67.8732 195.649 69.0747 195.441 70.4541 195.441L81.4973 195.426C82.3724 198.215 81.4008 200.855 82.4688 202.576V202.568Z" fill="#351616"/>
<path d="M58.6106 164.922L58.7293 166.45C58.3807 166.48 57.8022 166.643 57.1644 166.124L52.5217 166.22L52.6775 170.885L52.7071 195.426C52.4105 195.426 51.8097 195.404 51.209 195.129L51.3499 170.915L51.4612 165.204L58.6181 164.922H58.6106Z" fill="#3B1918"/>
<path d="M65.9527 200.469C65.1888 200.566 64.3804 200.625 63.839 199.861C62.7933 198.393 61.9478 197.339 62.3409 195.871C62.6375 195.871 63.1938 195.886 63.0974 195.478C63.9799 195.33 64.7735 195.196 66.0269 195.374L65.9601 200.469H65.9527Z" fill="#EEDFCF"/>
<path d="M66.0639 194.536C65.9007 195.062 66.3457 195.396 66.7759 195.344C66.8574 195.448 66.7165 195.975 67.5991 196.301L66.7239 197.235C67.7029 197.792 67.5471 198.289 67.5768 199.015C67.7326 200.12 67.3024 200.603 66.4569 200.58L65.9526 200.469L66.0194 195.374C64.7734 195.189 63.9724 195.329 63.0899 195.478C63.0083 195.129 63.0305 194.558 63.7796 194.551L66.0713 194.536H66.0639Z" fill="#3B1918"/>
<path d="M61.5402 195.396C61.0358 195.381 60.5983 195.433 60.1088 195.433C60.0791 194.032 61.7627 194.217 61.5402 195.396Z" fill="#3B1918"/>
<path d="M59.3666 164.981L58.6101 164.915C58.5805 164.484 58.7955 164.188 59.2405 164.128C59.2405 164.343 59.4704 164.662 59.374 164.981H59.3666Z" fill="#F4F4F5"/>
<path d="M241.123 101.941L240.967 81.8206L248.71 81.8428V104.337L241.382 104.426L241.123 101.941Z" fill="#351616"/>
<path d="M203.18 175.305L202.95 189.129C202.942 189.745 201.867 190.687 202.349 191.643C201.11 191.762 200.369 190.939 199.879 189.589L198.485 185.74C197.447 185.517 196.497 185.592 195.674 185.621L195.607 174.689C195.852 174.838 196.683 174.445 196.883 174.66L198.307 176.187C199.271 177.218 199.368 178.464 199.219 179.873C200.806 181.453 201.667 182.855 202.06 181.661C203.016 178.716 201.444 175.431 203.18 175.305Z" fill="#351616"/>
<path d="M195.482 195.307L195.6 202.813L188.043 202.85L188.08 195.611L195.482 195.307Z" fill="#351616"/>
<path d="M202.341 191.651C202.445 191.858 202.356 192.237 203.113 192.57C203.283 193.297 203.298 194.254 203.098 195.441L197.157 195.559L195.474 195.307L195.659 185.629C196.482 185.599 197.432 185.517 198.47 185.747L199.864 189.596C200.354 190.946 201.095 191.777 202.334 191.651H202.341Z" fill="#3B1918"/>
<path d="M203.15 173.11L203.18 175.312C201.437 175.438 203.016 178.717 202.06 181.668C201.674 182.87 200.806 181.461 199.219 179.881C199.368 178.472 199.271 177.226 198.307 176.195L196.883 174.667C196.683 174.452 195.852 174.845 195.607 174.697L195.667 172.984C195.667 172.806 195.667 172.657 195.667 172.487C197.002 171.879 195.904 167.97 197.617 169.572L201.185 172.909C201.593 173.288 202.727 173.162 203.15 173.11Z" fill="#3B1918"/>
<path d="M203.172 166.413L203.15 173.11C202.727 173.169 201.593 173.295 201.185 172.91L197.617 169.572C195.904 167.97 197.002 171.879 195.667 172.487L195.519 166.42H203.172V166.413Z" fill="#351616"/>
<path d="M165.067 217.698L165.156 218.15L165.29 225.774H149.774L150.153 218.172L162.034 218.031L165.067 217.698Z" fill="#3B1918"/>
<path d="M112.076 217.505C112.061 217.608 112.076 217.927 112.209 218.231L127.317 218.306L127.487 225.804L112.699 225.767C112.847 225.277 112.528 224.891 112.031 224.921L112.054 218.469L110.326 218.15C110.14 217.675 110.682 216.911 111.09 217.074C111.601 217.616 111.942 217.519 112.083 217.505H112.076Z" fill="#3B1918"/>
<path d="M112.076 217.505C111.935 217.52 111.594 217.616 111.082 217.075C110.674 216.911 110.133 217.675 110.318 218.15L102.353 218.269C102.405 217.987 102.487 217.364 102.323 217.141C102.019 216.719 101.152 216.585 100.506 216.808C100.069 216.963 99.8908 217.705 100.098 218.254H97.8735L97.7622 214.494L97.9847 210.637L110.504 210.548C111.564 210.533 112.039 211.356 112.039 212.306L112.076 217.505Z" fill="#351616"/>
<path d="M142.439 225.722L143.819 225.796L143.077 228.637C142.625 230.306 144.123 231.277 143.856 231.967C143.47 232.983 140.77 231.5 140.615 233.295C140.274 233.28 139.814 233.769 139.421 233.243C139.435 232.99 139.465 232.33 138.679 232.323H134.021C135.171 229.742 134.926 227.791 134.882 225.574L142.439 225.715V225.722Z" fill="#3B1918"/>
<path d="M134.882 225.581C134.926 227.799 135.171 229.749 134.022 232.33H138.679C139.465 232.33 139.435 232.998 139.421 233.25C138.768 232.671 137.826 233.383 137.307 233.383H127.347L127.488 225.811L133.495 225.752C134.133 225.633 134.4 225.581 134.874 225.589L134.882 225.581Z" fill="#351616"/>
<path d="M149.774 225.774L149.944 233.391L143.774 233.413L140.614 233.302C140.77 231.499 143.47 232.99 143.855 231.974C144.115 231.284 142.617 230.32 143.076 228.644L143.818 225.804L149.766 225.774H149.774Z" fill="#351616"/>
<path d="M102.353 218.276L100.106 218.254C99.8984 217.705 100.076 216.963 100.514 216.808C101.159 216.585 102.027 216.719 102.331 217.141C102.494 217.364 102.405 217.987 102.361 218.269L102.353 218.276Z" fill="#3B1918"/>
<path d="M112.699 225.766C112.18 225.766 112.031 225.425 112.031 224.921C112.528 224.891 112.854 225.284 112.699 225.766Z" fill="#662627"/>
<path d="M127.338 75.2271L127.36 104.218C126.018 104.5 124.498 104.441 123.089 104.3C123.081 103.654 122.458 102.972 121.012 103.439L120.767 79.7438L120.678 75.9762C120.656 75.0121 121.516 74.9379 122.273 74.975L127.346 75.2271H127.338Z" fill="#3B1918"/>
<path d="M129.148 104.307C128.807 105.034 127.983 105.078 127.271 104.975L127.36 104.211C128.013 104.092 128.577 104.292 129.148 104.307Z" fill="#662627"/>
<path d="M112.024 134.782L111.957 142.458L97.3243 142.539C97.0499 142.955 97.0944 144.104 97.087 144.23C96.7088 144.275 96.4417 144.03 96.4046 143.778L96.2192 142.517C96.4566 142.584 96.9906 142.354 96.9906 142.042L97.0796 134.715L112.024 134.774V134.782Z" fill="#3B1918"/>
<path d="M195.66 172.984L195.6 174.697L195.667 185.629L195.482 195.307L188.08 195.619L188.043 202.857C187.962 202.857 187.865 202.85 187.791 202.857L172.81 203.02L172.713 210.303C172.698 210.377 172.691 210.459 172.691 210.541L165.297 210.763L165.082 217.705L162.048 218.039L150.16 218.18L149.782 225.774L143.834 225.804L142.454 225.73V204.207C142.454 203.666 142.773 203.028 143.248 203.028H147.579C148.647 203.035 149.366 202.894 149.759 202.294C150.063 201.834 150.034 201.285 150.049 200.521L150.145 195.396L165.178 195.322L165.401 188.128C167.818 187.475 170.34 188.365 172.713 187.742L172.839 181.312C172.854 180.556 173.544 180.222 174.204 180.222L187.954 180.207L188.051 172.746L195.682 172.984H195.66Z" fill="#662627"/>
<path d="M187.784 202.85L187.865 210.607L174.175 210.563L172.706 210.303L172.802 203.02L187.784 202.85Z" fill="#351616"/>
<path d="M172.683 210.541L172.78 218.209L165.155 218.15L165.066 217.698L165.289 210.756L172.683 210.541Z" fill="#351616"/>
<path d="M149.699 73.9962C149.988 74.9381 150.018 76.1395 150.018 77.5116L149.877 104.241H148.26L143.833 104.337C143.009 104.352 142.423 104.47 141.926 104.678C141.244 104.226 140.517 104.218 139.412 104.263L135.267 104.448L129.163 104.307C128.592 104.292 128.035 104.092 127.375 104.211L127.353 75.2199C127.019 74.7527 127.227 74.4189 127.457 74.2113C127.776 73.9146 128.443 74.0333 129 74.0259L149.706 73.9888L149.699 73.9962ZM142.49 81.5981L134.836 81.6351L134.873 89.2964L142.527 89.2593L142.49 81.5981Z" fill="#A63E2F"/>
<path d="M66.4791 165.263L66.5755 172.702L74.0958 172.665L81.5865 172.947L81.7793 180.274L96.9756 180.348L97.1907 187.831L109.762 187.846C110.207 187.846 111.705 187.69 111.749 188.299L112.32 195.367L127.235 195.418L127.368 202.857L134.941 202.961L134.859 225.566C134.384 225.559 134.117 225.611 133.479 225.73L127.472 225.789L127.302 218.291L112.194 218.217C112.061 217.913 112.046 217.601 112.061 217.49L112.024 212.291C112.024 211.342 111.556 210.518 110.488 210.533L97.9695 210.622C97.7915 210.474 96.8866 210.029 96.8718 209.413L96.7531 203.005L83.0623 202.842C82.7879 202.635 82.5654 202.553 82.4468 202.56C81.3788 200.84 82.3503 198.207 81.4752 195.411L70.4321 195.426C69.0526 195.426 67.8512 195.633 66.7535 195.329C66.3234 195.381 65.8784 195.048 66.0415 194.521C66.4124 192.192 66.8128 189.433 66.175 188.024L59.4335 187.72L59.0404 180.022L59.1368 173.05L58.9366 170.128C58.8328 168.623 58.7883 167.518 58.6993 166.427L58.5806 164.9L59.3371 164.966L65.2999 165.07L66.4495 165.248L66.4791 165.263Z" fill="#662627"/>
<path d="M119.715 173.021V180.304L127.472 180.23H149.937L157.605 180.155L157.665 173.073L160.906 172.813C162.27 172.702 163.65 173.021 164.688 172.598C165.726 172.175 165.289 170.9 165.289 170.113V165.715L165.274 159.678L165.259 157.609L180.144 157.646L180.366 165.041L194.272 165.13C194.754 165.13 195.489 165.004 195.644 165.285C195.785 165.53 195.696 166.005 195.526 166.42L195.674 172.487C195.674 172.657 195.674 172.806 195.674 172.984L188.043 172.746L187.946 180.207L174.196 180.222C173.536 180.222 172.846 180.556 172.831 181.312L172.705 187.742C170.332 188.365 167.81 187.475 165.393 188.128L165.17 195.322L150.137 195.396L150.041 200.521C150.026 201.285 150.055 201.834 149.751 202.293C149.358 202.894 148.639 203.035 147.571 203.028H143.24C142.765 203.028 142.446 203.658 142.446 204.2V225.722L134.889 225.581L134.97 202.976L127.398 202.872L127.265 195.433L112.35 195.381L111.779 188.313C111.727 187.698 110.229 187.861 109.791 187.861L97.2205 187.846L97.0054 180.363L81.809 180.289L81.6162 172.961L86.8004 172.85L96.8719 172.761L96.9832 157.632L89.1439 157.483C89.1439 157.35 89.0846 157.09 89.3071 156.69C89.448 154.376 88.966 151.995 89.6186 150.015L95.7668 150.185C96.464 150.2 97.2353 150.089 97.176 149.414L97.1018 144.237C97.1092 144.104 97.0721 142.962 97.3391 142.546L111.972 142.465L112.039 134.789L127.235 134.848L127.279 149.955L119.707 150.104V157.535L112.194 157.676L112.09 170.18C112.09 170.9 112.09 172.694 112.81 172.724L119.722 173.021H119.715Z" fill="#9E4F39"/>
<path d="M141.912 104.678C142.498 105.212 142.446 106.072 142.446 107.148L142.431 141.204L142.32 157.35L136.365 157.543C135.883 157.558 134.926 157.202 134.926 156.86L134.941 147.864L134.993 106.428C134.993 105.583 134.993 104.975 135.245 104.456L139.391 104.27C140.496 104.218 141.222 104.226 141.905 104.686L141.912 104.678Z" fill="#662627"/>
<path d="M127.525 172.969L127.473 180.229L119.708 180.304L119.715 173.021L120.071 172.998L127.525 172.969Z" fill="#662627"/>
<path d="M157.828 157.528L163.59 157.55C161.425 159.679 157.539 156.334 157.568 159.671L157.605 165.204L152.673 165.434C151.835 165.471 150.716 165.456 150.293 166.502C149.915 167.436 150.011 171.582 150.945 172.339C151.361 172.672 151.947 172.695 152.703 172.746L157.665 173.073L157.605 180.155L149.937 180.23L150.048 175.253C150.085 174.037 149.699 172.858 148.298 172.865L127.532 172.969L127.317 169.35C127.265 167.874 127.101 166.517 127.487 165.382L127.101 164.974C123.408 165.493 120.145 165.515 120.123 164.158L120.004 157.624L127.22 157.691L127.443 164.425L128.073 165.13L149.047 165.159C149.915 165.159 150.1 163.35 150.1 162.764L150.144 157.817L157.843 157.528H157.828Z" fill="#662627"/>
<path d="M165.326 150.044L165.252 157.609C164.725 157.609 164.191 157.861 163.591 157.557L157.828 157.535L157.717 150.111L165.319 150.052L165.326 150.044Z" fill="#A7573F"/>
<path d="M89.1219 157.483L89.0922 165.211L74.1406 165.108L74.2222 157.535L89.1219 157.483Z" fill="#A63E2F"/>
<path d="M74.1402 165.107L74.1031 172.672L66.5754 172.709L66.479 165.263L74.1402 165.107Z" fill="#9E4F39"/>
<path d="M97.1614 149.407C97.2133 150.089 96.4494 150.2 95.7522 150.178L89.604 150.007L90.7906 146.418C91.0354 145.676 93.0378 146.195 93.2455 147.389C93.3345 147.879 93.4457 148.428 93.735 148.784C94.0465 149.169 94.7288 149.355 95.6781 149.362L97.1688 149.407H97.1614Z" fill="#3B1918"/>
<path d="M142.492 81.6086L134.838 81.6487L134.878 89.3098L142.532 89.2697L142.492 81.6086Z" fill="#CF8552"/>
<path d="M81.5942 172.954L74.1035 172.672L74.1406 165.108L89.0922 165.211L89.1219 157.483L96.9536 157.632L96.8424 172.754L86.7709 172.843L81.5942 172.954Z" fill="#3B1918"/>
<path d="M165.252 157.609L165.267 159.678C165.163 159.671 164.948 159.678 164.592 159.849L164.569 164.981C164.495 165.552 164.985 165.775 165.267 165.708V170.106C164.985 170.024 164.51 170.232 164.547 170.796L164.673 172.59C163.635 173.013 162.255 172.702 160.891 172.806L157.65 173.065L152.688 172.739C151.932 172.687 151.346 172.672 150.93 172.331C149.996 171.574 149.892 167.429 150.278 166.494C150.701 165.448 151.82 165.471 152.659 165.426L157.59 165.196L157.553 159.664C157.531 156.319 161.41 159.664 163.576 157.542C164.176 157.854 164.71 157.594 165.237 157.594L165.252 157.609Z" fill="#351616"/>
<path d="M165.274 165.708C164.992 165.775 164.503 165.552 164.577 164.981L164.599 159.849C164.948 159.679 165.17 159.671 165.274 159.679V165.716V165.708Z" fill="#662627"/>
<path d="M164.681 172.598L164.555 170.803C164.518 170.24 164.992 170.032 165.282 170.114C165.282 170.907 165.675 172.19 164.681 172.598Z" fill="#662627"/>
</svg>
