<svg width="920" height="120" viewBox="0 0 920 120" fill="none" xmlns="http://www.w3.org/2000/svg">
<path d="M210 97.5V10H285V22.5H297.5V60H272.5V72.5H285V85H297.5V97.5H260V85H247.5V72.5H235V97.5H210ZM235 60H260V47.5H272.5V22.5H235V60ZM322.5 97.5V85H310V47.5H322.5V35H385V47.5H397.5V72.5H335V85H385V97.5H322.5ZM335 60H372.5V47.5H335V60ZM422.5 97.5V85H447.5V22.5H435V10H472.5V85H497.5V97.5H422.5ZM522.5 97.5V85H510V72.5H522.5V60H572.5V47.5H522.5V35H585V47.5H597.5V97.5H522.5ZM535 85H572.5V72.5H535V85ZM610 97.5V85H622.5V72.5H635V60H622.5V47.5H610V35H635V47.5H647.5V60H660V47.5H672.5V35H697.5V47.5H685V60H672.5V72.5H685V85H697.5V97.5H672.5V85H660V72.5H647.5V85H635V97.5H610Z" fill="white"/>
</svg>
