<svg width="920" height="120" viewBox="0 0 920 120" fill="none" xmlns="http://www.w3.org/2000/svg">
<path d="M72.5 97.5V85H60V72.5H85V85H122.5V60H72.5V47.5H60V22.5H72.5V10H135V22.5H147.5V35H122.5V22.5H85V47.5H135V60H147.5V85H135V97.5H72.5ZM172.5 97.5V85H160V72.5H172.5V60H222.5V47.5H172.5V35H235V47.5H247.5V97.5H172.5ZM185 85H222.5V72.5H185V85ZM272.5 97.5V85H260V47.5H272.5V35H347.5V47.5H285V85H347.5V97.5H272.5ZM397.5 22.5V10H422.5V22.5H397.5ZM372.5 97.5V85H397.5V47.5H385V35H422.5V85H447.5V97.5H372.5ZM472.5 97.5V85H460V47.5H472.5V35H535V47.5H547.5V72.5H485V85H535V97.5H472.5ZM485 60H522.5V47.5H485V60ZM572.5 97.5V85H560V47.5H572.5V35H622.5V10H647.5V97.5H572.5ZM585 85H622.5V47.5H585V85ZM672.5 97.5V85H660V72.5H672.5V60H722.5V47.5H672.5V35H735V47.5H747.5V97.5H672.5ZM685 85H722.5V72.5H685V85ZM772.5 97.5V85H760V47.5H772.5V35H822.5V10H847.5V97.5H772.5ZM785 85H822.5V47.5H785V85Z" fill="white"/>
</svg>
