<svg width="179" height="199" viewBox="0 0 179 199" fill="none" xmlns="http://www.w3.org/2000/svg">
<mask id="mask0_93_190082" style="mask-type:luminance" maskUnits="userSpaceOnUse" x="0" y="0" width="179" height="199">
<path d="M178.875 0H0V198.517H178.875V0Z" fill="white"/>
</mask>
<g mask="url(#mask0_93_190082)">
<path d="M83.6136 198.508C82.5449 198.311 81.727 197.369 81.1294 196.383C78.5755 195.886 77.3105 193.821 77.3338 191.241C77.4283 190.367 77.051 189.656 76.3204 189.399C73.7032 189.262 71.6516 187.419 71.9816 184.145C70.2056 183.451 69.2547 182.157 69.1521 180.289C66.7713 179.74 65.5528 177.495 65.4431 175.01L65.4118 164.76C64.3984 164.546 63.832 164.554 62.7866 164.743C62.4566 168.291 59.9499 170.185 56.6013 169.542C56.8056 171.35 56.4755 172.19 55.5719 173.038L51.6185 173.81C51.9806 176.732 50.1965 178.24 48.0504 178.052L28.3716 178.163C26.1004 178.335 23.9231 176.972 23.7427 173.792C21.4397 174.273 20.0958 172.953 19.6796 170.699L19.6163 146.788L21.4243 144.526C22.7131 144.748 23.3497 144.723 24.8977 144.303L25.1258 136.615C26.2101 134.739 27.3027 133.83 29.0159 134.053L30.9261 131.328C30.0377 130.599 30.7923 129.383 31.7272 130.188C32.6156 129.554 33.0474 128.414 32.3641 126.931C30.6505 127.291 29.3224 126.434 29.189 124.155L18.7597 123.915L15.8204 122.792C14.6965 122.449 14.2958 121.498 14.0835 120.332C13.9027 119.509 13.6358 118.635 12.5273 118.67L9.38367 115.216C8.67646 115.216 8.26798 115.019 7.71779 114.359L6.50733 110.391L4.23621 110.477L1.83115 108.026C1.74463 106.68 0.966846 105.694 0 105.017L0.0942913 92.9857C1.80752 92.2992 2.0279 90.8084 2.28706 89.283C2.99427 87.2088 4.25167 85.9665 6.73548 86.2236C7.11256 84.261 8.34625 82.8213 10.1934 82.7616C10.2408 80.5592 11.4822 79.6502 13.0621 79.5394C13.2428 77.3708 14.7047 76.0082 16.5905 75.571L29.1025 75.5104C29.6211 74.5338 29.8414 73.566 29.9199 72.3055C30.9181 71.8259 31.4284 71.5688 32.2696 70.5057C30.9101 69.7092 30.572 68.7916 30.1875 67.9354C28.9294 67.3778 28.3875 66.5719 26.9179 66.7606L24.8585 64.4985C25.2123 61.5334 24.843 59.6219 24.5128 56.6655C22.422 57.1797 21.1807 56.5625 19.6951 54.8319L19.5694 29.5754C20.4811 28.8299 20.6619 27.9387 20.4023 26.8589C21.0153 25.7529 21.7699 24.7587 23.0902 24.6046C24.1904 23.8931 24.8899 22.6419 25.833 21.3223L47.4063 21.2967L50.7229 23.3618L51.6978 27.5014C53.8904 27.2099 55.2258 27.6472 56.7984 28.3927C56.5549 29.5325 56.8216 29.9782 57.0179 30.4322C57.3479 30.8521 58.0874 31.1865 59.0615 31.0836C59.6824 31.8892 60.2952 31.6578 60.57 31.6405C61.1203 32.0522 61.4824 32.6864 61.5369 33.5604C62.362 34.229 62.37 35.0348 62.5198 35.5828C63.1872 36.2433 64.0443 36.5688 65.278 36.123L65.4038 22.9335C66.1656 22.2908 66.402 21.6739 66.6848 20.6536C67.856 20.371 68.6651 20.114 69.475 19.4285C69.1289 18.1256 69.8203 17.3373 71.2038 17.7913C71.4946 15.9576 71.4553 14.509 71.259 12.1179C72.4222 11.6812 72.9405 10.7555 72.878 9.65003L75.5185 7.2501C76.3124 7.4815 76.8547 7.33571 77.4131 7.00189C77.6166 6.59025 77.9314 5.76747 77.7584 4.66204C77.6246 3.35075 78.3792 2.45949 79.5977 2.39941C80.132 1.51707 80.9019 1.25121 81.8688 1.63672L83.9589 0L94.4356 0.102933C95.0405 0.959644 95.7166 1.34575 96.44 1.49093C97.1858 2.57965 97.9957 3.13657 99.0099 3.98497C98.9306 5.16771 98.9154 5.96494 99.2294 7.2333C101.446 6.95021 103.466 8.09902 103.921 10.721C105.423 11.6467 106.217 12.8467 105.887 15.0319C105.705 16.1463 106.334 17.1832 107.56 16.8828L110.264 19.9771C110.358 21.0826 110.704 22.3337 112.126 22.6847L112.582 35.4373C113.18 36.1403 113.974 36.1143 114.421 35.9516C114.845 35.5403 115.137 34.9404 115.074 34.1173C115.993 33.1659 116.614 32.4549 117.974 31.7863C119.16 32.1551 120.819 31.7523 121.094 30.1495C122.249 29.4297 123.451 28.4438 124.418 27.1414C125.133 26.9873 125.739 26.7816 126.697 26.9613C127.789 26.6102 128.026 25.2305 127.805 24.3132C129.204 22.3593 130.407 21.7423 132.372 21.1766L151.626 21.1594C152.68 21.4252 153.269 22.2135 153.269 23.3451C153.811 23.4736 154.15 23.7907 154.197 24.5535C156.176 24.6475 157.56 26.2842 157.411 28.3498L158.456 30.1495L158.582 53.4598C158.605 54.78 158.189 55.637 157.599 56.0829C156.86 56.6915 156.075 56.8629 154.66 56.6655L153.599 64.8673C151.681 66.6065 149.528 67.2835 146.958 67.7631L146.997 75.4853L160.311 75.7337C162.205 76.1874 163.856 76.899 164.72 78.5534C165.168 80.2242 166.503 81.1072 168.194 81.1505C169.656 81.0648 170.417 81.4847 171.227 82.8213C171.424 84.5614 172.484 85.9751 174.284 86.2409L175.078 89.5142C176.296 89.9513 176.729 90.6024 177.389 91.5114C177.593 92.1883 177.86 92.9684 178.811 93.4315L178.874 104.726C178.89 105.592 178.497 106.243 177.609 106.586C177.224 109.586 174.96 111.291 172.092 110.802C172.092 112.516 171.982 113.656 171.352 115.131C169.813 117.127 167.856 118.413 165.537 118.953C165.011 119.861 164.877 120.709 164.9 121.755L161.954 123.975L147.068 124.172C146.778 125.398 146.832 126.065 146.856 126.845C145.96 127.497 145.897 128.354 146.038 129.186C146.243 129.751 146.675 130.394 147.461 130.779L147.783 133.719C149.222 133.547 149.897 134.156 150.935 134.661C152.617 135.099 153.505 137.044 153.591 138.759C153.544 140.72 153.442 141.981 154.039 144.671C155.171 144.294 156.169 144.586 156.507 145.948C157.332 146.36 158.048 146.891 158.653 147.834L158.401 169.148C157.702 171.453 157.277 173.372 154.393 174.255C154.668 175.293 154.408 176.372 153.253 176.715C152.774 177.675 151.964 178.172 150.919 178.086L130.32 177.975C128.977 177.434 128.34 176.595 127.97 175.164C127.616 174.264 127.059 173.518 126.013 173.75C124.402 173.227 123.326 171.813 122.783 169.516L118.225 168.513C117.313 168.076 116.346 167.339 115.513 166.568C115.412 164.597 113.863 163.963 112.574 164.751L112.448 175.858C112.299 177.795 111.489 179.363 109.627 179.74C109.344 181.772 108.669 183.365 107.12 184.625C107.151 185.337 106.9 185.911 106.318 186.297C106.114 187.736 105.266 188.559 103.953 188.996C103.144 189.056 102.366 189.321 101.933 190.35C102.578 193.409 100.935 195.68 98.2553 196.152C97.9244 197.583 97.1393 198.063 96.1484 198.44L83.6368 198.517L83.6136 198.508ZM38.0935 66.0412C39.5708 66.384 41.1185 66.3667 42.6045 66.0758L42.6598 75.7086L33.9278 75.8454L33.8413 82.3071C32.8832 82.6153 31.4997 83.1122 30.4623 81.7496L22.1078 81.8448C20.2926 82.3331 18.6262 82.153 16.8027 82.024C15.9935 82.1097 15.7184 82.8551 15.8127 83.3953C16.1506 85.4955 16.0878 87.6719 15.8518 90.3539L11.4353 90.6197L11.0974 95.1274L7.01827 95.2305L7.05744 105.198L15.7968 105.36L15.7184 110.057L20.3554 110.083L20.528 114.9L33.8806 114.993L33.9278 124.583L40.9462 124.874C42.1335 124.78 42.9346 125.757 42.7223 127.009L42.691 134.696H34.0071L33.7948 145.109L29.8334 145.023C30.0377 146.865 29.9119 148.048 29.1812 149.137L26.1159 149.359L26.1319 169.087H47.0843L47.2253 164.049L56.1695 163.963L56.3818 154.236L69.9228 154.27L73.7192 154.296L73.8129 173.939L78.7253 173.998L78.7645 183.528L83.173 183.682L83.33 188.678L96.7228 188.748L96.6595 178.84L101.368 178.634L101.344 173.827L105.674 173.545L105.705 154.27L119.302 154.313V159.12L123.742 159.198L123.883 164.031H132.757L132.796 169.096L150.762 169.019L150.738 149.265C149.245 149.222 147.987 149.351 146.486 148.896L146.203 144.372L142.038 144.217L141.905 134.661L137.149 134.79L132.843 134.678L132.859 124.823L141.857 124.806L141.96 114.917L159.494 114.89L159.595 110.211L164.154 109.963L164.248 105.198L172.5 105.164L172.618 95.2911L168.649 94.8963L168.571 90.6024L160.146 90.5089L159.989 82.0586L142.085 82.0924L141.834 75.7424L132.969 75.6913L132.929 65.9728C134.407 66.152 136.097 66.5468 137.551 65.8092C138.997 65.8351 140.451 65.9728 142.109 65.5183C141.991 63.7271 141.975 62.69 142.266 61.0876L146.18 61.1222L146.086 55.5427C147.571 55.6457 149.127 55.7998 150.817 55.2518L150.699 29.3523L132.726 29.3696L132.646 36.329L123.71 36.2944C123.86 38.36 123.876 39.688 123.491 41.3337L119.451 41.351L119.436 46.3297L106.845 46.2016L105.619 45.7125C105.643 45.5333 105.658 45.2242 105.351 44.8217V22.5991C105.344 21.7167 104.487 21.4336 103.796 21.7935L97.3356 21.7596L97.2491 12.2725L92.408 11.8609L92.392 7.55041L83.4013 7.40471L83.3148 12.1952L78.7333 12.3237L78.7798 21.8709L73.8762 22.0338L73.6559 46.2016L58.2051 46.2267C57.0571 46.3384 56.1928 45.3186 56.4051 44.0503L56.3658 36.4312L47.359 36.4052L47.2253 29.4041H26.171L26.2652 51.5067L29.3856 51.6435L29.3624 55.8682L33.7948 56.0223L33.8966 65.7667L38.0855 66.0325L38.0935 66.0412Z" fill="#F7F6F6"/>
<path d="M114.814 65.4883C114.657 66.0276 115.144 66.5592 115.632 66.1133C116.834 65.7108 118.288 65.7194 119.491 66.096C119.475 66.2674 119.419 66.5765 119.6 67.1331L122.602 67.1851L122.579 71.5474C122.618 72.2149 123.224 72.5413 123.742 72.1898C123.742 73.252 123.624 74.2718 124.073 75.8405H132.89V124.656L123.664 124.767L123.648 134.786L114.877 134.803L114.83 143.433C114.735 144.11 113.997 144.624 113.235 144.47L105.713 144.659L105.564 154.351L73.7503 154.325L69.9547 154.299L69.8442 144.667L60.6339 144.358L60.6019 134.811L51.6272 134.751L51.5959 124.776L43.3118 124.647V86.913C42.6757 86.107 42.5419 85.2335 42.6597 84.2907L42.6356 75.7548L50.5032 75.8145C49.9449 76.869 48.5702 76.7659 47.2724 76.3885V109.007C47.5872 109.752 48.0663 110.13 48.7817 110.009L51.7289 110.112C51.5014 111.955 51.4069 113.318 52.0117 114.895L56.429 115.066L56.6413 119.265C57.9535 120.062 59.0061 120.114 60.7357 120.028C60.5394 122.033 60.5787 123.199 61.1915 124.75H69.6319L70.1037 129.686H96.4791L96.8164 124.741L105.454 124.501L105.635 114.954L114.688 114.74L114.885 105.211L118.98 105.047C119.506 103.033 119.396 101.028 119.294 98.8001L119.169 81.6685C119.38 79.5423 119.467 77.6403 118.885 75.6258C117.235 75.8916 116.229 75.9002 114.838 75.5063L114.681 67.9556C114.854 66.902 114.193 66.0709 113.219 66.0103L105.682 65.9168L105.564 57.6458C105.588 56.5325 104.818 55.7862 103.796 56.052L69.8682 56.3351C66.7007 57.4666 63.5804 56.6606 60.6411 56.8493C60.5787 56.7376 60.5154 56.4632 60.6964 56.0269L70.0565 55.9663C69.7264 54.0643 69.6399 52.6584 70.0957 51.0049L105.195 51.1157C105.918 52.5727 105.942 54.047 105.321 56.0347L114.657 56.1464L114.783 65.4796L114.814 65.4883Z" fill="#EE993A"/>
<path d="M97.347 21.7772C97.504 22.1883 97.5665 22.6595 97.5745 23.4823L104.577 23.5423V45.5936C105.112 45.8672 105.434 45.7815 105.638 45.7391L106.864 46.2273L119.456 46.3563L119.471 41.3768L123.511 41.3594C123.896 39.7224 123.88 38.3944 123.731 36.321L132.667 36.3547L132.746 29.396L150.72 29.3788L150.838 55.2775C149.148 55.8264 147.593 55.6628 146.107 55.5693L146.201 61.1479L142.287 61.1142C141.996 62.7157 142.012 63.7529 142.13 65.544C140.464 65.9985 139.018 65.8617 137.572 65.8358L137.516 56.2116L141.934 56.0056V36.6803L132.848 36.3721V41.5049L128.18 41.5135L128.101 46.3563L119.479 46.3988L119.456 56.0056L123.48 55.9805C123.393 56.3147 123.448 56.6315 123.597 56.931L123.754 65.6644L132.95 65.9899L132.989 75.7084L141.854 75.7595L142.106 82.1103L160.011 82.0766L160.168 90.5259L168.593 90.6203L168.672 94.9143L172.641 95.3082L172.523 105.181L164.27 105.215L164.175 109.98L159.617 110.229L159.515 114.908L141.98 114.933L141.878 124.824L132.88 124.84L132.864 134.696L123.927 134.714L123.762 144.398L119.487 144.543L119.432 154.425L128.187 154.279L128.14 159.035L141.839 159.198L141.91 145.649C140.739 144.56 139.285 144.354 137.422 144.432L137.178 134.807L141.934 134.679L142.067 144.235L146.232 144.389L146.515 148.914C148.017 149.369 149.274 149.248 150.767 149.283L150.791 169.037L132.824 169.114L132.785 164.048H123.911L123.77 159.224L119.314 159.147V154.339L105.733 154.296L105.701 173.57L101.371 173.853L101.394 178.661L96.6861 178.866L96.7494 188.773L83.3566 188.705L83.1996 183.709L78.7903 183.554L78.7511 174.024L73.8387 173.964L73.7442 154.322L105.56 154.347L105.709 144.655L113.23 144.466C113.985 144.621 114.732 144.106 114.826 143.429L114.873 134.799L123.645 134.782L123.66 124.764L132.887 124.652V75.8374H124.068C123.621 74.2687 123.738 73.2489 123.738 72.1867L123.416 66.2816C121.797 66.3327 120.626 66.4097 119.479 66.0929C118.276 65.7154 116.822 65.7077 115.62 66.1102C115.557 65.673 115.227 65.3475 114.803 65.4843L114.677 56.151L105.34 56.0402C105.952 54.0517 105.929 52.5774 105.214 51.1212L70.1136 51.0096C69.6578 52.6726 69.7363 54.0776 70.0736 55.9718L60.7135 56.0316C60.5325 56.4688 60.5958 56.7432 60.6582 56.854L60.6823 65.4756C60.3362 65.3735 59.9901 65.4332 59.6761 65.647L52.6809 65.9475C52.1073 66.0505 51.8478 66.5985 51.7692 67.1473L51.6283 74.8176C51.738 75.6564 51.1796 76.0685 50.5043 75.8201L42.6367 75.7595L42.66 84.2954C42.5342 85.2382 42.676 86.1125 43.3048 86.9176V124.652L51.5882 124.781L51.6194 134.756L60.5958 134.817L60.627 144.363L69.8388 144.672L69.9486 154.305L56.4068 154.27L56.1945 163.997L47.2503 164.083L47.1085 169.114H26.1551L26.1396 149.394L29.2045 149.171L33.6844 149.222L33.8182 145.143L34.0305 134.73H42.7152L42.7465 127.043C42.9508 125.784 42.1577 124.815 40.9704 124.91L33.952 124.618L33.9047 115.028L20.5512 114.933L20.3787 110.117L15.7412 110.092L15.82 105.395L7.08019 105.232L7.04102 95.2657L11.1201 95.1627L11.458 90.6549L15.8751 90.3892C16.1187 87.7072 16.1739 85.5299 15.8355 83.4306C16.6766 83.55 16.944 84.124 16.4721 85.5386C17.5255 85.1273 17.5806 84.33 17.2741 83.1648L33.763 83.4046C33.9833 82.873 33.8967 82.5475 33.8495 82.3415L33.936 75.8798L42.668 75.7421L42.6135 66.1102C45.2771 65.3735 48.0441 65.8012 51.259 65.7414L51.8085 56.2627L55.778 56.0749C56.3668 54.5399 56.3595 53.3236 56.1232 51.7722C56.2891 49.9291 56.2802 48.4297 55.778 46.4672L47.4545 46.3217L47.1798 41.4114L34.077 41.4451L34.0618 46.3728L38.0232 46.5529L38.1017 66.0669L33.9128 65.8012L33.8102 56.0575L29.3777 55.9026L29.401 51.6779L26.2808 51.5402L26.1865 29.43H47.2422L47.376 36.4404L56.3828 36.4656L56.422 44.0847C56.2025 45.3452 57.0661 46.3728 58.2221 46.262L73.6737 46.236L73.894 22.0681L78.7983 21.9056L78.7511 12.3585L83.3334 12.2301L83.4199 7.43945L92.4106 7.58472L92.4266 11.8957L97.2677 12.3068L97.3542 21.7939L97.347 21.7772ZM96.7253 25.5908C96.8359 24.2111 96.7021 22.9337 96.2302 22.5911L92.3874 22.2227L92.2376 17.089L83.3958 16.7379L83.3406 26.8932L78.7038 26.9192L78.8216 41.4027L96.7886 41.4365L96.7253 25.5908ZM24.8817 105.301C24.4341 107.949 24.756 108.866 25.2433 109.903H33.8575L33.614 90.5692L20.2922 90.5086L20.2525 95.2051L15.8436 95.5653L15.6866 104.058C15.922 104.752 16.5978 105.198 17.3762 105.181L24.8817 105.301ZM164.262 104.941L164.294 95.3428L155.649 95.3168C155.043 93.7654 155.122 92.3344 155.294 90.5943L143.01 90.3208C142.24 90.2264 141.737 91.0835 142.027 91.9397L142.004 103.57C141.596 105.678 141.705 107.675 142.153 109.937L154.956 110.057C155.562 108.574 155.467 107.341 155.286 105.327L164.262 104.95V104.941ZM47.6508 159.266C48.1307 157.039 48.0674 156.07 48.0201 154.322L56.3668 154.391L56.3203 144.526L51.408 144.184L51.4865 134.714L42.5654 134.73L42.6447 144.286L38.1249 144.637L38.0625 154.45L33.787 154.347L33.7557 159.181L47.6428 159.258L47.6508 159.266ZM88.5437 178.481C88.2529 180.109 88.1584 181.617 88.0334 183.478H92.01L92.0733 174.085L96.7806 173.133L96.7966 159.361L78.8063 159.464V168.925L83.2621 169.028L83.3334 178.507C85.1174 178.695 86.2413 178.952 88.5437 178.481Z" fill="#512016"/>
<path d="M137.561 65.8416C136.107 66.5792 134.417 66.1845 132.94 66.0044L123.744 65.6789L123.587 56.9464C124.499 56.7923 124.153 55.8149 123.469 55.995L119.445 56.0201L119.469 46.4142L128.09 46.3709L128.169 41.5289H132.829L132.837 36.3779L141.915 36.6861V56.0123L137.505 56.2175L137.561 65.8416Z" fill="#EE993A"/>
<path d="M132.868 134.702L137.175 134.814L137.419 144.437C139.282 144.361 140.735 144.557 141.906 145.654L141.835 159.204L128.137 159.041L128.184 154.285L119.429 154.43L119.484 144.549L123.759 144.403L123.924 134.719L132.868 134.702Z" fill="#EE993A"/>
<path d="M42.6056 66.074C41.1204 66.3735 39.5719 66.3822 38.0946 66.0393L38.0153 46.5253L34.0547 46.3452L34.0699 41.4176L47.1711 41.3838L47.4467 46.2941L55.7693 46.4396C56.2804 48.4021 56.2804 49.9016 56.1154 51.7447C56.3509 53.2952 56.3589 54.5123 55.7693 56.0464L51.8006 56.2351L51.2503 65.7138C48.0355 65.7736 45.2701 65.3372 42.6056 66.074Z" fill="#EE993A"/>
<path d="M103.806 21.8124C103.806 22.7209 104.662 22.969 105.377 22.6179V44.8397C105.675 45.2423 105.652 45.56 105.636 45.7314C105.432 45.7738 105.11 45.8508 104.583 45.5859V23.5347L97.573 23.4746C97.573 22.6436 97.5098 22.1807 97.3447 21.7695L103.806 21.8035V21.8124Z" fill="#3C2026"/>
<path d="M33.8515 82.3183C33.8988 82.5234 33.9853 82.8498 33.765 83.3805L17.2769 83.1407C17.5834 84.3068 17.5283 85.1033 16.475 85.5153C16.9385 84.1008 16.6795 83.5268 15.8383 83.4065C15.7363 82.8671 16.0191 82.1209 16.8288 82.0352C18.6523 82.1633 20.3105 82.3442 22.1339 81.8551L30.4877 81.7607C31.5251 83.1147 32.9006 82.6178 33.8675 82.3183H33.8515Z" fill="#3C2026"/>
<path d="M33.8333 145.136L33.6995 149.215L29.2197 149.163C29.9503 148.075 30.0761 146.892 29.8726 145.05L33.8333 145.136Z" fill="#BBC0C6"/>
<path d="M105.37 22.6179C104.655 22.9694 103.799 22.7208 103.799 21.8123C104.498 21.4524 105.347 21.735 105.37 22.6179Z" fill="#512016"/>
<path d="M50.5142 75.8252C51.1976 76.0737 51.7479 75.6633 51.6382 74.8227L51.7792 67.1525C52.4713 67.375 52.9816 66.7326 52.6908 65.9526L59.686 65.6531C59.9063 66.6218 60.7627 66.2184 60.6914 65.4817L60.6682 56.86C63.6074 56.6713 66.7196 57.4773 69.8952 56.3458L103.823 56.0627C104.845 55.7969 105.615 56.5432 105.591 57.6573L105.709 65.9275L113.246 66.021C114.221 66.0816 114.873 66.9127 114.708 67.9671L114.865 75.517C116.256 75.9109 117.262 75.9031 118.912 75.6365C119.494 77.651 119.408 79.553 119.196 81.6792L119.321 98.8108C119.423 101.038 119.533 103.044 119.007 105.058L114.911 105.221L114.715 114.751L105.662 114.965L105.481 124.512L96.8442 124.752L96.5061 129.706H70.1307L69.6589 124.769H61.2177C60.5977 123.201 60.5656 122.044 60.7627 120.03C59.0411 120.107 57.9885 120.064 56.6683 119.268L56.456 115.068L52.0387 114.897C51.4259 113.329 51.5276 111.965 51.7559 110.114L48.8087 110.011C48.0933 110.132 47.6142 109.746 47.3154 109.009V76.3914C48.6044 76.768 49.9799 76.871 50.5374 75.8174L50.5142 75.8252ZM65.1639 83.1189C64.9356 81.1987 65.8392 80.5564 66.8294 80.4282C67.9694 80.6161 68.6375 80.5996 69.6981 80.4023L70.0674 75.8425L83.1686 75.7231C83.3889 74.0522 83.3497 73.0056 83.0749 71.1209L91.9871 70.6664L92.0336 61.2388L70.0835 61.205C69.9729 62.9702 70.1852 64.1874 69.4706 65.8323C67.5768 65.1726 65.989 65.6955 65.1006 66.9646C65.3362 68.4467 65.2897 69.2267 65.0846 70.5288L60.8099 70.8551L60.6521 75.7058L56.6522 76.0053L56.2901 85.4502C58.8841 85.8701 61.1792 85.8441 63.7804 85.1931C64.8258 85.69 65.8008 84.5161 65.1639 83.1189Z" fill="#FAC449"/>
<path d="M123.756 72.1876C123.238 72.54 122.633 72.2145 122.593 71.5453L122.617 67.1829L119.614 67.1319C119.434 66.5665 119.489 66.2661 119.505 66.0947C120.652 66.4202 121.823 66.3432 123.442 66.2835L123.756 72.1876Z" fill="#FAC449"/>
<path d="M115.637 66.1019C115.15 66.5477 114.662 66.0162 114.82 65.4768C115.244 65.3392 115.574 65.656 115.637 66.1019Z" fill="#C16526"/>
<path d="M96.7225 25.5921L96.7938 41.4383L78.8275 41.4037L78.709 26.9201L83.3465 26.8945L83.401 16.7393L92.2427 17.0903L92.3918 22.2241L96.2354 22.5924C96.7073 22.9351 96.8322 24.2125 96.7225 25.5921Z" fill="#FAC449"/>
<path d="M59.6836 65.6559C59.9984 65.4421 60.3445 65.3815 60.6898 65.4845C60.7603 66.2221 59.9039 66.6247 59.6836 65.6559Z" fill="#EE993A"/>
<path d="M51.7822 67.1519C51.8607 66.6031 52.1283 66.0542 52.6939 65.9512C52.9847 66.7398 52.4736 67.3744 51.7822 67.1519Z" fill="#EE993A"/>
<path d="M123.587 56.9489C123.43 56.6493 123.383 56.3238 123.47 55.9975C124.162 55.8183 124.507 56.7948 123.587 56.9489Z" fill="#C16526"/>
<path d="M47.6527 159.263L33.7656 159.186L33.7969 154.353L38.0723 154.455L38.1348 144.643L42.6538 144.292L42.5753 134.736L51.4955 134.719L51.417 144.189L56.3294 144.532L56.3758 154.396L48.03 154.327C48.0773 156.076 48.1397 157.044 47.6607 159.272L47.6527 159.263Z" fill="#EE993A"/>
<path d="M24.8806 105.303L17.3755 105.183C16.5973 105.2 15.9214 104.754 15.6855 104.061L15.8431 95.5675L20.2519 95.2082L20.2911 90.5117L33.6121 90.5715L33.8557 109.914H25.2423C24.7473 108.877 24.4331 107.951 24.8806 105.303Z" fill="#FAC449"/>
<path d="M164.262 104.943L155.287 105.321C155.468 107.334 155.562 108.569 154.957 110.051L142.155 109.932C141.714 107.67 141.604 105.672 142.005 103.564L142.029 91.9343C141.738 91.0859 142.241 90.2288 143.011 90.3145L155.295 90.589C155.122 92.3368 155.043 93.7601 155.648 95.3106L164.293 95.3365L164.262 104.943Z" fill="#EE993A"/>
<path d="M92.0771 174.085C91.9433 174.085 91.6846 174.077 91.2368 174.291L91.2208 182.587C90.3323 182.775 89.7668 182.801 88.7998 182.535C88.9889 180.976 89.0281 179.347 88.5483 178.481C86.2459 178.953 85.122 178.688 83.3379 178.499L83.2674 169.02L78.8037 168.917V159.456L96.8004 159.354L96.7852 173.125L92.0771 174.077V174.085Z" fill="#EE993A"/>
<path d="M88.5455 178.48C89.0253 179.346 88.9861 180.974 88.7978 182.533C89.7639 182.8 90.3303 182.774 91.2179 182.585L91.2331 174.289C91.6818 174.075 91.9413 174.075 92.0743 174.084L92.0118 183.477H88.0352C88.1609 181.616 88.2475 180.108 88.5455 178.48Z" fill="#FAC449"/>
<path d="M65.1611 83.1228C65.7971 84.5192 64.823 85.6853 63.7776 85.1962C61.1844 85.8567 58.882 85.874 56.2881 85.4533L56.6494 76.0092L60.6493 75.7097L60.8071 70.8591L65.0826 70.5327C65.2788 69.2307 65.3341 68.4507 65.0978 66.9677C65.9862 65.6994 67.574 65.1766 69.4678 65.8371C70.1831 64.2 69.9709 62.9742 70.0806 61.209L92.0315 61.2436L91.9842 70.6704L83.072 71.124C83.3468 73.0095 83.3861 74.064 83.1666 75.727L70.0654 75.8465L69.6961 80.4062C68.6346 80.6027 67.9665 80.62 66.8273 80.4313C65.8364 80.5603 64.9408 81.2027 65.1611 83.1228Z" fill="#FBE488"/>
</g>
</svg>
