<svg width="78" height="80" viewBox="0 0 78 80" fill="none" xmlns="http://www.w3.org/2000/svg">
<g clip-path="url(#clip0_36_15963)">
<path d="M50.435 0.180737L50.5285 2.87069L56.0707 2.88164L56.0817 5.13331L55.958 5.52777L49.2117 5.51955L49.1485 2.89808L27.9035 2.87617L27.788 5.54146L21.149 5.50859L21.105 2.87617L26.496 2.88438L26.6499 0.0492529L50.2179 0.00268555C50.3196 0.117734 50.3993 0.167041 50.4405 0.183477L50.435 0.180737Z" fill="#F6F7F8"/>
<path d="M10.4794 13.6307C10.5234 13.6745 10.5839 13.6827 10.6306 13.6361L10.6718 16.9589C10.5564 16.9506 10.4657 17.0301 10.4354 17.1177L10.4217 17.4711L7.72207 17.4875L7.74681 21.517L5.26438 21.6101L5.27263 29.1896L2.57302 29.2389L2.52629 50.901L0.00537109 50.9065V28.6856L2.5043 28.6637L2.44382 21.6211L5.0527 21.5635L5.0747 16.1617L7.87602 16.1398L7.88427 13.5786L10.4822 13.6279L10.4794 13.6307Z" fill="#FAFBFB"/>
<path d="M75.1879 50.9119L75.1082 58.3271C74.8443 58.2695 74.5474 58.2476 74.1653 58.3079C73.6512 57.9381 73.1068 57.9792 72.5213 58.0668C72.2546 58.012 72.01 58.1819 71.9742 58.4503C71.9907 58.5133 72.0512 58.7462 72.1667 58.8475L72.0952 64.1809L69.3983 64.2274L69.3818 66.9311L66.6382 66.9256L66.6052 69.5799L63.9359 69.5717L63.9304 71.9576L63.584 71.9795C63.474 72.0206 63.4053 72.1302 63.4438 72.2671H61.294L61.25 73.8943C60.8844 73.9655 60.8954 74.3901 60.9559 74.664L57.1154 74.6147C56.8845 74.4476 56.5903 74.4257 56.3126 74.4668L56.2852 72.163L60.0404 72.1713L60.1009 69.5635L62.3854 69.5553V67.0215L63.9359 66.9639L63.9606 65.4135H64.6864C65.107 65.0958 64.5957 64.5726 64.263 64.9999C64.1558 65.167 64.0293 65.1588 63.9661 65.1396C63.9331 64.9177 63.8974 64.6767 63.9826 64.2877L66.619 64.2165L66.6327 61.5621L69.5 61.5402L69.5165 57.4752L72.2711 57.4532L72.2986 50.8982L75.1879 50.9146V50.9119Z" fill="#FAFBFB"/>
<path d="M49.2777 77.1456C49.3904 77.1484 49.4564 77.2223 49.4756 77.3154C49.3684 77.3839 49.2639 77.5099 49.2804 77.7099L49.2722 79.9999L27.8155 79.978L27.7743 77.3291L20.7421 77.3237V75.2528C20.8411 74.9405 20.7229 74.7022 20.5552 74.5707C20.5717 74.4118 20.7174 74.3434 20.8493 74.4447C21.061 74.5241 21.3497 74.5735 21.6906 74.5461L27.8183 74.5789L27.8925 77.2963H48.5904C48.9176 77.3401 49.1347 77.2524 49.2749 77.1456H49.2777Z" fill="#F0F1F2"/>
<path d="M20.8519 74.4448C20.72 74.3435 20.5743 74.412 20.5578 74.5709L18.1551 74.653C18.1138 74.5078 18.1221 74.3846 18.1303 74.2942C17.9874 74.1737 17.8802 74.1298 17.5145 74.1079C17.2919 74.4202 16.9977 74.5051 16.6926 74.4476L16.6156 72.2261L14.2624 72.2041L14.2349 70.062C14.2761 69.7498 14.0397 69.5169 13.729 69.5608L10.3861 69.5553L10.3257 66.9037L9.00061 66.8955L9.0061 64.2767L6.35048 64.2329V61.5977L5.05291 61.5484L4.99243 58.8941L2.54024 58.8557L2.521 50.8982H5.28108L5.29208 57.5217L7.73053 57.6203L7.68379 61.5457L10.3916 61.595L10.3779 64.1781L13.0638 64.2302L13.0913 66.9201L15.6782 66.9639L15.6836 69.5197L16.9785 69.6128L17.0115 72.1877H20.9069C20.9839 73.0917 20.9839 73.7655 20.8574 74.4448H20.8519Z" fill="#F6F7F8"/>
<path d="M56.6037 5.50586L61.1672 5.54147L61.2194 8.18759L63.897 8.2232L63.952 10.9132L66.6598 10.9378L66.6708 13.5346L69.4007 13.5976V16.1698L72.0893 16.1342L72.1663 21.5716L75.1133 21.5606L75.1518 28.732L77.9119 28.806C77.9366 28.9128 78.0054 29.058 77.9999 29.3127V50.3475L77.9284 50.8953L75.1903 50.9145L75.1655 29.1566L72.3202 29.1456L72.2708 21.5689L69.3567 21.5059L69.3952 17.4983L66.6076 17.4271V13.6278L63.9685 13.6058L63.9355 10.9515L61.2194 10.9022L61.1589 8.23142L56.1748 8.2232L56.1006 5.54421L56.6092 5.51134L56.6037 5.50586Z" fill="#F0F1F2"/>
<path d="M56.3206 74.6748C56.2738 74.935 56.2518 75.2308 56.436 75.5157C56.5487 75.7184 56.8044 75.8581 57.0958 75.8225L57.0711 77.2853L49.4753 77.3154C49.4561 77.2195 49.3901 77.1483 49.2774 77.1456L49.2334 74.62L56.0099 74.5898C56.1446 74.6912 56.2491 74.6802 56.3178 74.672L56.3206 74.6748Z" fill="#FAFBFB"/>
<path d="M15.755 8.13833C15.8567 8.0315 16.0079 8.06163 16.0849 8.18216L16.1481 10.8885L13.9571 10.9132L13.9736 13.1293C13.8554 13.1183 13.7647 13.195 13.7317 13.2854L13.7124 13.6168L10.6307 13.636C10.5812 13.6798 10.5207 13.6744 10.4795 13.6305L10.5317 10.9351L13.4815 10.9214L13.5722 8.20955C14.5179 8.27255 15.1529 8.28351 15.7577 8.14107L15.755 8.13833Z" fill="#F0F1F2"/>
<path d="M20.577 5.53068C20.577 5.64025 20.6595 5.72517 20.7392 5.7553L21.0911 5.77721L21.0966 7.92753L20.7392 7.94123C20.6347 7.97957 20.5633 8.08093 20.5963 8.21241L16.085 8.1768C16.0108 8.05627 15.8568 8.02888 15.7551 8.13297L15.7139 5.7553L16.063 5.74982C16.1537 5.71421 16.217 5.62929 16.217 5.52246H20.577V5.53068Z" fill="#FAFBFB"/>
<path d="M75.1108 58.3271C75.0806 58.5188 75.0971 58.7517 75.1246 58.9051L72.1666 58.8475C72.0483 58.7462 71.9879 58.5133 71.9741 58.4503C72.0099 58.1819 72.2573 58.0121 72.5212 58.0668C73.1095 57.9792 73.6511 57.9408 74.1651 58.3079C74.5473 58.2476 74.8469 58.2696 75.1081 58.3271H75.1108Z" fill="#F0F1F2"/>
<path d="M57.1122 74.6145L57.0958 75.8226C56.8016 75.8582 56.5459 75.7157 56.436 75.5158C56.249 75.2309 56.2738 74.935 56.3205 74.6748L56.3123 74.4666C56.5899 74.4255 56.8841 74.4475 57.115 74.6145H57.1122Z" fill="#F0F1F2"/>
<path d="M18.1549 74.6557C17.9322 74.7324 17.6656 74.7652 17.2917 74.6776C16.9865 74.8419 16.7446 74.6693 16.6924 74.4529C16.9948 74.5105 17.2889 74.4228 17.5144 74.1133C17.8827 74.1352 17.99 74.179 18.1302 74.2995C18.1219 74.3872 18.1137 74.5132 18.1549 74.6584V74.6557Z" fill="#F0F1F2"/>
<path d="M56.0815 5.13348L56.4416 5.19648C56.5901 5.24852 56.6423 5.38001 56.6038 5.50875L56.0953 5.54163L56.1695 8.22062L61.1536 8.22884L61.2141 10.8996L63.9302 10.9489L63.9632 13.6033L66.5995 13.6252V17.4245L69.3899 17.4957L69.3514 21.5033L72.2654 21.5663L72.3149 29.1431L75.1602 29.154L75.1849 50.9119L72.2957 50.8955L72.2682 57.4506L69.5136 57.4725L69.4971 61.5375L66.6298 61.5594L66.616 64.2138L63.9796 64.285C63.8944 64.674 63.9302 64.9178 63.9632 65.1369C63.9961 65.2273 63.9934 65.3204 63.9549 65.4108L63.9302 66.9613L62.3824 67.0188V69.5526L60.0952 69.5608L60.0347 72.1686L56.2794 72.1604L56.3069 74.4641L56.3152 74.6723C56.2492 74.6805 56.1447 74.6914 56.0073 74.5901L49.2308 74.6202L49.2748 77.1458C49.1346 77.2526 48.9201 77.3403 48.5902 77.2965H27.8923L27.8181 74.5791L21.6904 74.5463C21.3467 74.5736 21.0608 74.5243 20.8491 74.4449C20.9756 73.7656 20.9756 73.0917 20.8986 72.1878H17.0032L16.9702 69.6129L15.6753 69.5197L15.6699 66.964L13.083 66.9202L13.0555 64.2302L10.3696 64.1782L10.3833 61.595L7.67549 61.5457L7.72223 57.6204L5.28378 57.5218L5.27278 50.8955H2.5127L2.55943 29.2362L5.25904 29.1869L5.25079 21.6074L7.73322 21.5142L7.70848 17.4848L10.4081 17.4684C10.551 17.5779 10.6802 17.4766 10.6995 17.3752C10.7215 17.2026 10.6995 17.0712 10.6583 16.9561L10.617 13.6334L13.6988 13.6142C13.8362 13.7567 13.9819 13.6471 13.9957 13.543C14.0149 13.3649 13.9929 13.2389 13.9599 13.1239L13.9434 10.9078L16.1344 10.8832L16.0712 8.17679L20.5825 8.2124L20.9893 8.21788C21.1021 8.19323 21.1873 8.06448 21.0856 7.92752L21.0801 5.7772C21.1323 5.68407 21.146 5.58545 21.1323 5.50328L27.7714 5.53615L27.8868 2.87085L49.1318 2.89276L49.195 5.51423L55.9413 5.52245L56.065 5.128L56.0815 5.13348ZM7.68649 45.6745L7.73322 48.1891L10.3833 48.2001L10.3888 56.2672L13.1654 56.1878V61.5293L15.6753 61.5704L15.7193 64.2521L18.265 64.222L18.3612 66.8873L21.1213 66.9174L21.1543 69.5635L27.7741 69.5964L27.8291 72.2645L49.151 72.2535L49.1978 69.6293L55.999 69.5745L56.0073 66.9229L58.6327 66.9147L58.7289 64.2576H61.2855L61.3405 61.6307L63.8862 61.6005L63.9604 56.374L66.6463 56.2754L66.6903 48.1973L69.4009 48.1891L69.3431 45.5923C69.4036 45.4225 69.4531 45.1951 69.4174 44.8801L69.4311 29.5485L66.6875 29.4827L66.6518 21.5909L63.9824 21.5334L63.9439 18.8955L61.3268 18.8791V16.2686L58.7536 16.211L58.7316 13.6197L55.9743 13.5649L55.9688 10.9024L49.1895 10.8613L49.1538 8.16857L27.8868 8.17679L27.7796 10.8887L21.1818 10.9106V13.5129L18.3915 13.5923V16.1809L15.7716 16.2631L15.6918 18.8654L13.1187 18.8818L13.1324 21.5553L10.3614 21.5909V29.4937L7.68374 29.554V45.6772L7.68649 45.6745Z" fill="#300F0D"/>
<path d="M21.1435 5.50588C21.1572 5.58805 21.1435 5.68667 21.0912 5.7798L20.7393 5.75789C20.6596 5.72776 20.5771 5.64284 20.5771 5.53327C20.7613 5.46205 20.9538 5.46753 21.1435 5.50862V5.50588Z" fill="#F0F1F2"/>
<path d="M10.4219 17.4711L10.4356 17.1177C10.4659 17.0328 10.5566 16.9506 10.672 16.9588C10.7105 17.0739 10.738 17.2026 10.7133 17.3779C10.694 17.4793 10.5621 17.5806 10.4219 17.4711Z" fill="#F0E3C4"/>
<path d="M63.9604 65.4135C63.9989 65.3231 64.0017 65.23 63.9687 65.1396C64.0319 65.1615 64.1584 65.167 64.2656 64.9999C64.5982 64.5726 65.1096 65.0958 64.689 65.4135H63.9632H63.9604Z" fill="#F0F1F2"/>
<path d="M13.7124 13.6168L13.7316 13.2854C13.7646 13.1923 13.8554 13.1183 13.9736 13.1293C14.0066 13.2416 14.0285 13.3703 14.0093 13.5484C13.9956 13.6525 13.8471 13.762 13.7124 13.6196V13.6168Z" fill="#F0E3C4"/>
<path d="M21.0994 7.93018C21.2039 8.06714 21.1159 8.19588 21.0032 8.22054L20.5963 8.21506C20.5633 8.08357 20.6375 7.98222 20.7393 7.94387L21.0966 7.93018H21.0994Z" fill="#F0F1F2"/>
<path d="M69.343 45.5894C69.2578 45.5154 69.1231 45.5154 68.9499 45.551C68.0867 45.5948 67.3801 45.5866 66.7094 45.4141L66.6626 42.4255L66.6351 32.2766L63.9218 32.1533L63.8943 24.2286L61.2387 24.1163L61.2167 21.6154L58.8222 21.5743C58.6188 21.3743 58.5638 21.1196 58.605 20.81L58.5693 19.0514C57.7721 18.8296 56.9446 18.8734 56.0154 18.8926L55.9412 16.2656L53.302 16.1478L53.2416 13.6387L45.896 13.5866C45.5908 13.625 45.3764 13.4551 45.3379 13.1264L45.2774 10.8967L31.8701 10.9049L31.8124 13.5647L23.884 13.6195L23.84 16.1588L21.1651 16.2793L21.1322 18.8898L18.438 18.9446L18.4106 21.5716L15.8154 21.5606L15.6917 24.1245L13.1405 24.2314L13.1295 32.1999L10.3832 32.2793L10.353 45.4771L13.0471 45.562L13.0828 48.1259L12.6485 48.2574L10.3062 48.241L10.298 45.5948L8.21142 45.562L7.68359 45.6688V29.5455L10.3585 29.4853V21.5825L13.1295 21.5469L13.1158 18.8734L15.689 18.857L15.7687 16.2547L18.3886 16.1725V13.5839L21.1789 13.5044V10.9022L27.7767 10.8802L27.8839 8.16837L49.1509 8.16016L49.1866 10.8528L55.9659 10.8939L55.9714 13.5565L58.7287 13.6113L58.7507 16.2026L61.3239 16.2601V18.8707L63.9383 18.8871L63.9768 21.525L66.6461 21.5825L66.6819 29.4743L69.4255 29.5401L69.4117 44.8717C69.4475 45.1867 69.398 45.4141 69.3375 45.5839L69.343 45.5894Z" fill="#E2BD8B"/>
<path d="M69.3432 45.5896L69.4009 48.1864L66.6903 48.1946L66.6463 56.2727L63.9604 56.3713L63.8862 61.5978L61.3406 61.6279L61.2856 64.2521H58.7289L58.6327 66.9119L56.0073 66.9202L55.9991 69.5718L49.1978 69.6265L49.1511 72.2508L27.8291 72.2617L27.7741 69.5937L21.1543 69.5608L21.1213 66.9147L18.3612 66.8846L18.265 64.2193L15.7194 64.2494L15.6754 61.5676L13.1655 61.5266V56.185L10.3889 56.2644L10.3834 48.1973L7.73326 48.1864L7.68652 45.6717L8.21435 45.5649L10.3009 45.5978L10.3092 48.2439L12.6514 48.2603L13.0857 48.1289L13.1792 53.6402V56.185L15.7551 56.2124L15.7881 58.9297L18.4217 58.9024L18.4272 61.5759L21.1791 61.6005L21.1543 64.2247L25.0168 64.211L27.8704 64.2768L27.8071 66.9366L31.7933 66.9092L45.3546 66.9147L49.1758 66.9393C49.2858 66.06 49.2995 65.1533 49.1511 64.285L51.8837 64.211L55.9881 64.2165L55.9826 61.5594L58.7124 61.5649L58.7509 58.8887L61.2388 58.8832L61.2196 56.311L63.9274 56.3001L63.8862 53.5882L63.9577 48.1617C64.8374 48.3179 65.6924 48.3042 66.7123 48.2138L66.6381 45.6882C66.6463 45.5978 66.671 45.5074 66.7123 45.417C67.3831 45.5896 68.0896 45.5978 68.9528 45.554C69.126 45.5183 69.2607 45.5183 69.3459 45.5923L69.3432 45.5896Z" fill="#A66549"/>
<path d="M66.7065 45.4142C66.6653 45.5046 66.6405 45.595 66.6323 45.6853C65.8075 45.5621 64.9636 45.4909 63.9711 45.6936L63.9546 48.1589L63.8832 53.5854C63.0584 53.5169 62.22 53.5032 61.2633 53.6511C61.1341 54.6071 61.1643 55.3851 61.2743 56.3383L58.7561 56.3767L58.7341 58.8667L55.974 58.9762L56.0208 61.5977L52.0648 61.5566L51.9796 63.4933C51.9933 63.8028 51.9439 64.0247 51.8806 64.2027L49.148 64.2767C49.0931 64.3068 49.0023 64.3342 48.8896 64.2411L45.3625 64.2931C45.1866 65.2738 45.2553 66.0928 45.3515 66.9064L31.7903 66.9009C31.8095 66.0243 31.9415 65.1368 31.694 64.2L30.2095 64.2411L27.8673 64.2685L25.0138 64.2027C25.1182 63.3864 25.1485 62.5373 24.9808 61.5895L21.1485 61.6032L21.1375 58.8995L18.4132 58.8803L18.3637 56.1794L15.6888 56.1384L15.6531 53.6374C14.7376 53.4731 13.9432 53.5306 13.1734 53.6347L13.0799 48.1233L13.0442 45.5593L10.3501 45.4744L10.3803 32.2767L13.1267 32.1972L13.1377 24.2287L15.6888 24.1219L15.8125 21.558L18.4077 21.5689L18.4352 18.942L21.1293 18.8872L21.1623 16.2767L23.8371 16.1562L23.8811 13.6169L31.8095 13.5621L31.8672 10.9023L45.2746 10.894L45.335 13.1238C45.3735 13.4498 45.588 13.6223 45.8931 13.584L53.2387 13.636L53.2992 16.1452L55.9383 16.263L56.0125 18.8899C56.939 18.8708 57.7664 18.8269 58.5664 19.0488L58.6022 20.8074C58.5637 21.117 58.6187 21.369 58.8193 21.5717L61.2138 21.6128L61.2358 24.1137L63.8914 24.226L63.9189 32.1507L66.6323 32.2739L66.6598 42.4229L66.7065 45.4114V45.4142Z" fill="#F6E8C7"/>
<path d="M31.7933 66.9092L27.8071 66.9366L27.8704 64.2767L30.2126 64.2493L31.6971 64.2083C31.9445 65.1451 31.8126 66.0299 31.7933 66.9092Z" fill="#E2BD8B"/>
<path d="M63.8834 53.5853L63.9246 56.2971L61.2168 56.3081L61.236 58.8802L58.7481 58.8857L58.7096 61.562L55.9798 61.5565L55.9853 64.2136L51.8809 64.2081C51.9441 64.03 51.9936 63.8082 51.9798 63.4986L52.065 61.562L56.021 61.6031L55.9743 58.9816L58.7343 58.872L58.7563 56.382L61.2745 56.3437C61.1645 55.3904 61.1343 54.6125 61.2635 53.6565C62.2202 53.5086 63.0614 53.5223 63.8834 53.5907V53.5853Z" fill="#E2BD8B"/>
<path d="M25.0142 64.211L21.1517 64.2247L21.1765 61.6005L18.4246 61.5758L18.4191 58.9023L15.7855 58.9297L15.7525 56.2123L13.1821 56.185V53.6402C13.9491 53.5388 14.7436 53.4786 15.6591 53.6429L15.6948 56.1439L18.3697 56.185L18.4191 58.8859L21.1435 58.905L21.1545 61.6087L24.9867 61.595C25.1544 62.5428 25.1214 63.3919 25.0197 64.2082L25.0142 64.211Z" fill="#E2BD8B"/>
<path d="M49.1481 64.2822C49.2993 65.1505 49.2828 66.0572 49.1728 66.9365L45.3516 66.9119C45.2554 66.0983 45.1866 65.2793 45.3626 64.2986L48.8897 64.2466C49.0051 64.337 49.0931 64.3123 49.1481 64.2822Z" fill="#E2BD8B"/>
<path d="M66.6354 45.6853L66.7097 48.2109C65.6898 48.3013 64.8348 48.3177 63.9551 48.1588L63.9716 45.6935C64.964 45.4935 65.808 45.562 66.6327 45.6853H66.6354Z" fill="#E2BD8B"/>
<path d="M32.5025 21.5525C32.3128 21.6512 32.1121 21.6621 31.9307 21.5964C31.8482 21.5525 31.8427 21.3991 31.9197 21.2759L32.2661 21.3526C32.3376 21.38 32.4255 21.4649 32.5025 21.5525Z" fill="#66272C"/>
<path d="M31.8755 19.0871C31.8645 18.9337 32.035 18.8214 32.1972 18.8899C32.1779 19.0515 32.0569 19.1858 31.8755 19.0871Z" fill="#66272C"/>
<path d="M37.792 35.0078L37.9047 34.4819V18.9558C38.0449 18.8736 38.1356 18.8763 38.1769 18.8708V34.9749C37.9872 35.0818 37.869 35.0325 37.792 35.0078Z" fill="#F0E3C4"/>
</g>
<defs>
<clipPath id="clip0_36_15963">
<rect width="78" height="80" fill="white"/>
</clipPath>
</defs>
</svg>
