<svg width="2067" height="476" viewBox="0 0 2067 476" fill="none" xmlns="http://www.w3.org/2000/svg">
<path d="M98.4697 421.035H2009.14V184.952" stroke="#737373" stroke-width="24"/>
<rect x="27" y="27" width="2012.21" height="421.036" stroke="#0E0E0E" stroke-width="54"/>
<rect x="98.4697" y="74.2881" width="1892.27" height="324.614" fill="#D9D9D9"/>
<mask id="path-4-outside-1_93_181858" maskUnits="userSpaceOnUse" x="290.603" y="137" width="1473" height="166" fill="black">
<rect fill="white" x="290.603" y="137" width="1473" height="166"/>
<path d="M332.853 261.25V247.5H319.103V233.75H346.603V247.5H387.853V220H332.853V206.25H319.103V178.75H332.853V165H401.603V178.75H415.353V192.5H387.853V178.75H346.603V206.25H401.603V220H415.353V247.5H401.603V261.25H332.853ZM470.353 178.75V165H497.853V178.75H470.353ZM442.853 261.25V247.5H470.353V206.25H456.603V192.5H497.853V247.5H525.353V261.25H442.853ZM552.853 275V261.25H607.853V247.5H552.853V233.75H539.103V206.25H552.853V192.5H635.353V261.25H621.603V275H552.853ZM566.603 233.75H607.853V206.25H566.603V233.75ZM662.853 261.25V247.5H649.103V192.5H676.603V247.5H717.853V192.5H745.353V261.25H662.853ZM800.353 178.75V165H827.853V178.75H800.353ZM772.853 261.25V247.5H800.353V206.25H786.603V192.5H827.853V247.5H855.353V261.25H772.853ZM882.853 261.25V247.5H869.103V206.25H882.853V192.5H951.603V206.25H965.353V233.75H896.603V247.5H951.603V261.25H882.853ZM896.603 220H937.853V206.25H896.603V220ZM979.103 261.25V192.5H1061.6V206.25H1075.35V261.25H1047.85V206.25H1006.6V261.25H979.103ZM1130.35 261.25V206.25H1102.85V192.5H1130.35V165H1157.85V192.5H1185.35V206.25H1157.85V261.25H1130.35ZM1212.85 261.25V247.5H1199.1V206.25H1212.85V192.5H1281.6V206.25H1295.35V233.75H1226.6V247.5H1281.6V261.25H1212.85ZM1226.6 220H1267.85V206.25H1226.6V220ZM1432.85 261.25V247.5H1419.1V206.25H1432.85V192.5H1487.85V165H1515.35V261.25H1432.85ZM1446.6 247.5H1487.85V206.25H1446.6V247.5ZM1597.85 178.75H1584.1V165H1597.85V178.75ZM1584.1 192.5H1570.35V178.75H1584.1V192.5ZM1625.35 247.5V261.25H1542.85V247.5H1570.35V220H1556.6V206.25H1597.85V247.5H1625.35ZM1652.85 261.25V247.5H1639.1V233.75H1652.85V220H1707.85V206.25H1652.85V192.5H1721.6V206.25H1735.35V261.25H1652.85ZM1666.6 247.5H1707.85V233.75H1666.6V247.5Z"/>
</mask>
<path d="M332.853 261.25V247.5H319.103V233.75H346.603V247.5H387.853V220H332.853V206.25H319.103V178.75H332.853V165H401.603V178.75H415.353V192.5H387.853V178.75H346.603V206.25H401.603V220H415.353V247.5H401.603V261.25H332.853ZM470.353 178.75V165H497.853V178.75H470.353ZM442.853 261.25V247.5H470.353V206.25H456.603V192.5H497.853V247.5H525.353V261.25H442.853ZM552.853 275V261.25H607.853V247.5H552.853V233.75H539.103V206.25H552.853V192.5H635.353V261.25H621.603V275H552.853ZM566.603 233.75H607.853V206.25H566.603V233.75ZM662.853 261.25V247.5H649.103V192.5H676.603V247.5H717.853V192.5H745.353V261.25H662.853ZM800.353 178.75V165H827.853V178.75H800.353ZM772.853 261.25V247.5H800.353V206.25H786.603V192.5H827.853V247.5H855.353V261.25H772.853ZM882.853 261.25V247.5H869.103V206.25H882.853V192.5H951.603V206.25H965.353V233.75H896.603V247.5H951.603V261.25H882.853ZM896.603 220H937.853V206.25H896.603V220ZM979.103 261.25V192.5H1061.6V206.25H1075.35V261.25H1047.85V206.25H1006.6V261.25H979.103ZM1130.35 261.25V206.25H1102.85V192.5H1130.35V165H1157.85V192.5H1185.35V206.25H1157.85V261.25H1130.35ZM1212.85 261.25V247.5H1199.1V206.25H1212.85V192.5H1281.6V206.25H1295.35V233.75H1226.6V247.5H1281.6V261.25H1212.85ZM1226.6 220H1267.85V206.25H1226.6V220ZM1432.85 261.25V247.5H1419.1V206.25H1432.85V192.5H1487.85V165H1515.35V261.25H1432.85ZM1446.6 247.5H1487.85V206.25H1446.6V247.5ZM1597.85 178.75H1584.1V165H1597.85V178.75ZM1584.1 192.5H1570.35V178.75H1584.1V192.5ZM1625.35 247.5V261.25H1542.85V247.5H1570.35V220H1556.6V206.25H1597.85V247.5H1625.35ZM1652.85 261.25V247.5H1639.1V233.75H1652.85V220H1707.85V206.25H1652.85V192.5H1721.6V206.25H1735.35V261.25H1652.85ZM1666.6 247.5H1707.85V233.75H1666.6V247.5Z" fill="white"/>
<path d="M332.853 261.25H304.853V289.25H332.853V261.25ZM332.853 247.5H360.853V219.5H332.853V247.5ZM319.103 247.5H291.103V275.5H319.103V247.5ZM319.103 233.75V205.75H291.103V233.75H319.103ZM346.603 233.75H374.603V205.75H346.603V233.75ZM346.603 247.5H318.603V275.5H346.603V247.5ZM387.853 247.5V275.5H415.853V247.5H387.853ZM387.853 220H415.853V192H387.853V220ZM332.853 220H304.853V248H332.853V220ZM332.853 206.25H360.853V178.25H332.853V206.25ZM319.103 206.25H291.103V234.25H319.103V206.25ZM319.103 178.75V150.75H291.103V178.75H319.103ZM332.853 178.75V206.75H360.853V178.75H332.853ZM332.853 165V137H304.853V165H332.853ZM401.603 165H429.603V137H401.603V165ZM401.603 178.75H373.603V206.75H401.603V178.75ZM415.353 178.75H443.353V150.75H415.353V178.75ZM415.353 192.5V220.5H443.353V192.5H415.353ZM387.853 192.5H359.853V220.5H387.853V192.5ZM387.853 178.75H415.853V150.75H387.853V178.75ZM346.603 178.75V150.75H318.603V178.75H346.603ZM346.603 206.25H318.603V234.25H346.603V206.25ZM401.603 206.25H429.603V178.25H401.603V206.25ZM401.603 220H373.603V248H401.603V220ZM415.353 220H443.353V192H415.353V220ZM415.353 247.5V275.5H443.353V247.5H415.353ZM401.603 247.5V219.5H373.603V247.5H401.603ZM401.603 261.25V289.25H429.603V261.25H401.603ZM332.853 261.25H360.853V247.5H332.853H304.853V261.25H332.853ZM332.853 247.5V219.5H319.103V247.5V275.5H332.853V247.5ZM319.103 247.5H347.103V233.75H319.103H291.103V247.5H319.103ZM319.103 233.75V261.75H346.603V233.75V205.75H319.103V233.75ZM346.603 233.75H318.603V247.5H346.603H374.603V233.75H346.603ZM346.603 247.5V275.5H387.853V247.5V219.5H346.603V247.5ZM387.853 247.5H415.853V220H387.853H359.853V247.5H387.853ZM387.853 220V192H332.853V220V248H387.853V220ZM332.853 220H360.853V206.25H332.853H304.853V220H332.853ZM332.853 206.25V178.25H319.103V206.25V234.25H332.853V206.25ZM319.103 206.25H347.103V178.75H319.103H291.103V206.25H319.103ZM319.103 178.75V206.75H332.853V178.75V150.75H319.103V178.75ZM332.853 178.75H360.853V165H332.853H304.853V178.75H332.853ZM332.853 165V193H401.603V165V137H332.853V165ZM401.603 165H373.603V178.75H401.603H429.603V165H401.603ZM401.603 178.75V206.75H415.353V178.75V150.75H401.603V178.75ZM415.353 178.75H387.353V192.5H415.353H443.353V178.75H415.353ZM415.353 192.5V164.5H387.853V192.5V220.5H415.353V192.5ZM387.853 192.5H415.853V178.75H387.853H359.853V192.5H387.853ZM387.853 178.75V150.75H346.603V178.75V206.75H387.853V178.75ZM346.603 178.75H318.603V206.25H346.603H374.603V178.75H346.603ZM346.603 206.25V234.25H401.603V206.25V178.25H346.603V206.25ZM401.603 206.25H373.603V220H401.603H429.603V206.25H401.603ZM401.603 220V248H415.353V220V192H401.603V220ZM415.353 220H387.353V247.5H415.353H443.353V220H415.353ZM415.353 247.5V219.5H401.603V247.5V275.5H415.353V247.5ZM401.603 247.5H373.603V261.25H401.603H429.603V247.5H401.603ZM401.603 261.25V233.25H332.853V261.25V289.25H401.603V261.25ZM470.353 178.75H442.353V206.75H470.353V178.75ZM470.353 165V137H442.353V165H470.353ZM497.853 165H525.853V137H497.853V165ZM497.853 178.75V206.75H525.853V178.75H497.853ZM442.853 261.25H414.853V289.25H442.853V261.25ZM442.853 247.5V219.5H414.853V247.5H442.853ZM470.353 247.5V275.5H498.353V247.5H470.353ZM470.353 206.25H498.353V178.25H470.353V206.25ZM456.603 206.25H428.603V234.25H456.603V206.25ZM456.603 192.5V164.5H428.603V192.5H456.603ZM497.853 192.5H525.853V164.5H497.853V192.5ZM497.853 247.5H469.853V275.5H497.853V247.5ZM525.353 247.5H553.353V219.5H525.353V247.5ZM525.353 261.25V289.25H553.353V261.25H525.353ZM470.353 178.75H498.353V165H470.353H442.353V178.75H470.353ZM470.353 165V193H497.853V165V137H470.353V165ZM497.853 165H469.853V178.75H497.853H525.853V165H497.853ZM497.853 178.75V150.75H470.353V178.75V206.75H497.853V178.75ZM442.853 261.25H470.853V247.5H442.853H414.853V261.25H442.853ZM442.853 247.5V275.5H470.353V247.5V219.5H442.853V247.5ZM470.353 247.5H498.353V206.25H470.353H442.353V247.5H470.353ZM470.353 206.25V178.25H456.603V206.25V234.25H470.353V206.25ZM456.603 206.25H484.603V192.5H456.603H428.603V206.25H456.603ZM456.603 192.5V220.5H497.853V192.5V164.5H456.603V192.5ZM497.853 192.5H469.853V247.5H497.853H525.853V192.5H497.853ZM497.853 247.5V275.5H525.353V247.5V219.5H497.853V247.5ZM525.353 247.5H497.353V261.25H525.353H553.353V247.5H525.353ZM525.353 261.25V233.25H442.853V261.25V289.25H525.353V261.25ZM552.853 275H524.853V303H552.853V275ZM552.853 261.25V233.25H524.853V261.25H552.853ZM607.853 261.25V289.25H635.853V261.25H607.853ZM607.853 247.5H635.853V219.5H607.853V247.5ZM552.853 247.5H524.853V275.5H552.853V247.5ZM552.853 233.75H580.853V205.75H552.853V233.75ZM539.103 233.75H511.103V261.75H539.103V233.75ZM539.103 206.25V178.25H511.103V206.25H539.103ZM552.853 206.25V234.25H580.853V206.25H552.853ZM552.853 192.5V164.5H524.853V192.5H552.853ZM635.353 192.5H663.353V164.5H635.353V192.5ZM635.353 261.25V289.25H663.353V261.25H635.353ZM621.603 261.25V233.25H593.603V261.25H621.603ZM621.603 275V303H649.603V275H621.603ZM566.603 233.75H538.603V261.75H566.603V233.75ZM607.853 233.75V261.75H635.853V233.75H607.853ZM607.853 206.25H635.853V178.25H607.853V206.25ZM566.603 206.25V178.25H538.603V206.25H566.603ZM552.853 275H580.853V261.25H552.853H524.853V275H552.853ZM552.853 261.25V289.25H607.853V261.25V233.25H552.853V261.25ZM607.853 261.25H635.853V247.5H607.853H579.853V261.25H607.853ZM607.853 247.5V219.5H552.853V247.5V275.5H607.853V247.5ZM552.853 247.5H580.853V233.75H552.853H524.853V247.5H552.853ZM552.853 233.75V205.75H539.103V233.75V261.75H552.853V233.75ZM539.103 233.75H567.103V206.25H539.103H511.103V233.75H539.103ZM539.103 206.25V234.25H552.853V206.25V178.25H539.103V206.25ZM552.853 206.25H580.853V192.5H552.853H524.853V206.25H552.853ZM552.853 192.5V220.5H635.353V192.5V164.5H552.853V192.5ZM635.353 192.5H607.353V261.25H635.353H663.353V192.5H635.353ZM635.353 261.25V233.25H621.603V261.25V289.25H635.353V261.25ZM621.603 261.25H593.603V275H621.603H649.603V261.25H621.603ZM621.603 275V247H552.853V275V303H621.603V275ZM566.603 233.75V261.75H607.853V233.75V205.75H566.603V233.75ZM607.853 233.75H635.853V206.25H607.853H579.853V233.75H607.853ZM607.853 206.25V178.25H566.603V206.25V234.25H607.853V206.25ZM566.603 206.25H538.603V233.75H566.603H594.603V206.25H566.603ZM662.853 261.25H634.853V289.25H662.853V261.25ZM662.853 247.5H690.853V219.5H662.853V247.5ZM649.103 247.5H621.103V275.5H649.103V247.5ZM649.103 192.5V164.5H621.103V192.5H649.103ZM676.603 192.5H704.603V164.5H676.603V192.5ZM676.603 247.5H648.603V275.5H676.603V247.5ZM717.853 247.5V275.5H745.853V247.5H717.853ZM717.853 192.5V164.5H689.853V192.5H717.853ZM745.353 192.5H773.353V164.5H745.353V192.5ZM745.353 261.25V289.25H773.353V261.25H745.353ZM662.853 261.25H690.853V247.5H662.853H634.853V261.25H662.853ZM662.853 247.5V219.5H649.103V247.5V275.5H662.853V247.5ZM649.103 247.5H677.103V192.5H649.103H621.103V247.5H649.103ZM649.103 192.5V220.5H676.603V192.5V164.5H649.103V192.5ZM676.603 192.5H648.603V247.5H676.603H704.603V192.5H676.603ZM676.603 247.5V275.5H717.853V247.5V219.5H676.603V247.5ZM717.853 247.5H745.853V192.5H717.853H689.853V247.5H717.853ZM717.853 192.5V220.5H745.353V192.5V164.5H717.853V192.5ZM745.353 192.5H717.353V261.25H745.353H773.353V192.5H745.353ZM745.353 261.25V233.25H662.853V261.25V289.25H745.353V261.25ZM800.353 178.75H772.353V206.75H800.353V178.75ZM800.353 165V137H772.353V165H800.353ZM827.853 165H855.853V137H827.853V165ZM827.853 178.75V206.75H855.853V178.75H827.853ZM772.853 261.25H744.853V289.25H772.853V261.25ZM772.853 247.5V219.5H744.853V247.5H772.853ZM800.353 247.5V275.5H828.353V247.5H800.353ZM800.353 206.25H828.353V178.25H800.353V206.25ZM786.603 206.25H758.603V234.25H786.603V206.25ZM786.603 192.5V164.5H758.603V192.5H786.603ZM827.853 192.5H855.853V164.5H827.853V192.5ZM827.853 247.5H799.853V275.5H827.853V247.5ZM855.353 247.5H883.353V219.5H855.353V247.5ZM855.353 261.25V289.25H883.353V261.25H855.353ZM800.353 178.75H828.353V165H800.353H772.353V178.75H800.353ZM800.353 165V193H827.853V165V137H800.353V165ZM827.853 165H799.853V178.75H827.853H855.853V165H827.853ZM827.853 178.75V150.75H800.353V178.75V206.75H827.853V178.75ZM772.853 261.25H800.853V247.5H772.853H744.853V261.25H772.853ZM772.853 247.5V275.5H800.353V247.5V219.5H772.853V247.5ZM800.353 247.5H828.353V206.25H800.353H772.353V247.5H800.353ZM800.353 206.25V178.25H786.603V206.25V234.25H800.353V206.25ZM786.603 206.25H814.603V192.5H786.603H758.603V206.25H786.603ZM786.603 192.5V220.5H827.853V192.5V164.5H786.603V192.5ZM827.853 192.5H799.853V247.5H827.853H855.853V192.5H827.853ZM827.853 247.5V275.5H855.353V247.5V219.5H827.853V247.5ZM855.353 247.5H827.353V261.25H855.353H883.353V247.5H855.353ZM855.353 261.25V233.25H772.853V261.25V289.25H855.353V261.25ZM882.853 261.25H854.853V289.25H882.853V261.25ZM882.853 247.5H910.853V219.5H882.853V247.5ZM869.103 247.5H841.103V275.5H869.103V247.5ZM869.103 206.25V178.25H841.103V206.25H869.103ZM882.853 206.25V234.25H910.853V206.25H882.853ZM882.853 192.5V164.5H854.853V192.5H882.853ZM951.603 192.5H979.603V164.5H951.603V192.5ZM951.603 206.25H923.603V234.25H951.603V206.25ZM965.353 206.25H993.353V178.25H965.353V206.25ZM965.353 233.75V261.75H993.353V233.75H965.353ZM896.603 233.75V205.75H868.603V233.75H896.603ZM896.603 247.5H868.603V275.5H896.603V247.5ZM951.603 247.5H979.603V219.5H951.603V247.5ZM951.603 261.25V289.25H979.603V261.25H951.603ZM896.603 220H868.603V248H896.603V220ZM937.853 220V248H965.853V220H937.853ZM937.853 206.25H965.853V178.25H937.853V206.25ZM896.603 206.25V178.25H868.603V206.25H896.603ZM882.853 261.25H910.853V247.5H882.853H854.853V261.25H882.853ZM882.853 247.5V219.5H869.103V247.5V275.5H882.853V247.5ZM869.103 247.5H897.103V206.25H869.103H841.103V247.5H869.103ZM869.103 206.25V234.25H882.853V206.25V178.25H869.103V206.25ZM882.853 206.25H910.853V192.5H882.853H854.853V206.25H882.853ZM882.853 192.5V220.5H951.603V192.5V164.5H882.853V192.5ZM951.603 192.5H923.603V206.25H951.603H979.603V192.5H951.603ZM951.603 206.25V234.25H965.353V206.25V178.25H951.603V206.25ZM965.353 206.25H937.353V233.75H965.353H993.353V206.25H965.353ZM965.353 233.75V205.75H896.603V233.75V261.75H965.353V233.75ZM896.603 233.75H868.603V247.5H896.603H924.603V233.75H896.603ZM896.603 247.5V275.5H951.603V247.5V219.5H896.603V247.5ZM951.603 247.5H923.603V261.25H951.603H979.603V247.5H951.603ZM951.603 261.25V233.25H882.853V261.25V289.25H951.603V261.25ZM896.603 220V248H937.853V220V192H896.603V220ZM937.853 220H965.853V206.25H937.853H909.853V220H937.853ZM937.853 206.25V178.25H896.603V206.25V234.25H937.853V206.25ZM896.603 206.25H868.603V220H896.603H924.603V206.25H896.603ZM979.103 261.25H951.103V289.25H979.103V261.25ZM979.103 192.5V164.5H951.103V192.5H979.103ZM1061.6 192.5H1089.6V164.5H1061.6V192.5ZM1061.6 206.25H1033.6V234.25H1061.6V206.25ZM1075.35 206.25H1103.35V178.25H1075.35V206.25ZM1075.35 261.25V289.25H1103.35V261.25H1075.35ZM1047.85 261.25H1019.85V289.25H1047.85V261.25ZM1047.85 206.25H1075.85V178.25H1047.85V206.25ZM1006.6 206.25V178.25H978.603V206.25H1006.6ZM1006.6 261.25V289.25H1034.6V261.25H1006.6ZM979.103 261.25H1007.1V192.5H979.103H951.103V261.25H979.103ZM979.103 192.5V220.5H1061.6V192.5V164.5H979.103V192.5ZM1061.6 192.5H1033.6V206.25H1061.6H1089.6V192.5H1061.6ZM1061.6 206.25V234.25H1075.35V206.25V178.25H1061.6V206.25ZM1075.35 206.25H1047.35V261.25H1075.35H1103.35V206.25H1075.35ZM1075.35 261.25V233.25H1047.85V261.25V289.25H1075.35V261.25ZM1047.85 261.25H1075.85V206.25H1047.85H1019.85V261.25H1047.85ZM1047.85 206.25V178.25H1006.6V206.25V234.25H1047.85V206.25ZM1006.6 206.25H978.603V261.25H1006.6H1034.6V206.25H1006.6ZM1006.6 261.25V233.25H979.103V261.25V289.25H1006.6V261.25ZM1130.35 261.25H1102.35V289.25H1130.35V261.25ZM1130.35 206.25H1158.35V178.25H1130.35V206.25ZM1102.85 206.25H1074.85V234.25H1102.85V206.25ZM1102.85 192.5V164.5H1074.85V192.5H1102.85ZM1130.35 192.5V220.5H1158.35V192.5H1130.35ZM1130.35 165V137H1102.35V165H1130.35ZM1157.85 165H1185.85V137H1157.85V165ZM1157.85 192.5H1129.85V220.5H1157.85V192.5ZM1185.35 192.5H1213.35V164.5H1185.35V192.5ZM1185.35 206.25V234.25H1213.35V206.25H1185.35ZM1157.85 206.25V178.25H1129.85V206.25H1157.85ZM1157.85 261.25V289.25H1185.85V261.25H1157.85ZM1130.35 261.25H1158.35V206.25H1130.35H1102.35V261.25H1130.35ZM1130.35 206.25V178.25H1102.85V206.25V234.25H1130.35V206.25ZM1102.85 206.25H1130.85V192.5H1102.85H1074.85V206.25H1102.85ZM1102.85 192.5V220.5H1130.35V192.5V164.5H1102.85V192.5ZM1130.35 192.5H1158.35V165H1130.35H1102.35V192.5H1130.35ZM1130.35 165V193H1157.85V165V137H1130.35V165ZM1157.85 165H1129.85V192.5H1157.85H1185.85V165H1157.85ZM1157.85 192.5V220.5H1185.35V192.5V164.5H1157.85V192.5ZM1185.35 192.5H1157.35V206.25H1185.35H1213.35V192.5H1185.35ZM1185.35 206.25V178.25H1157.85V206.25V234.25H1185.35V206.25ZM1157.85 206.25H1129.85V261.25H1157.85H1185.85V206.25H1157.85ZM1157.85 261.25V233.25H1130.35V261.25V289.25H1157.85V261.25ZM1212.85 261.25H1184.85V289.25H1212.85V261.25ZM1212.85 247.5H1240.85V219.5H1212.85V247.5ZM1199.1 247.5H1171.1V275.5H1199.1V247.5ZM1199.1 206.25V178.25H1171.1V206.25H1199.1ZM1212.85 206.25V234.25H1240.85V206.25H1212.85ZM1212.85 192.5V164.5H1184.85V192.5H1212.85ZM1281.6 192.5H1309.6V164.5H1281.6V192.5ZM1281.6 206.25H1253.6V234.25H1281.6V206.25ZM1295.35 206.25H1323.35V178.25H1295.35V206.25ZM1295.35 233.75V261.75H1323.35V233.75H1295.35ZM1226.6 233.75V205.75H1198.6V233.75H1226.6ZM1226.6 247.5H1198.6V275.5H1226.6V247.5ZM1281.6 247.5H1309.6V219.5H1281.6V247.5ZM1281.6 261.25V289.25H1309.6V261.25H1281.6ZM1226.6 220H1198.6V248H1226.6V220ZM1267.85 220V248H1295.85V220H1267.85ZM1267.85 206.25H1295.85V178.25H1267.85V206.25ZM1226.6 206.25V178.25H1198.6V206.25H1226.6ZM1212.85 261.25H1240.85V247.5H1212.85H1184.85V261.25H1212.85ZM1212.85 247.5V219.5H1199.1V247.5V275.5H1212.85V247.5ZM1199.1 247.5H1227.1V206.25H1199.1H1171.1V247.5H1199.1ZM1199.1 206.25V234.25H1212.85V206.25V178.25H1199.1V206.25ZM1212.85 206.25H1240.85V192.5H1212.85H1184.85V206.25H1212.85ZM1212.85 192.5V220.5H1281.6V192.5V164.5H1212.85V192.5ZM1281.6 192.5H1253.6V206.25H1281.6H1309.6V192.5H1281.6ZM1281.6 206.25V234.25H1295.35V206.25V178.25H1281.6V206.25ZM1295.35 206.25H1267.35V233.75H1295.35H1323.35V206.25H1295.35ZM1295.35 233.75V205.75H1226.6V233.75V261.75H1295.35V233.75ZM1226.6 233.75H1198.6V247.5H1226.6H1254.6V233.75H1226.6ZM1226.6 247.5V275.5H1281.6V247.5V219.5H1226.6V247.5ZM1281.6 247.5H1253.6V261.25H1281.6H1309.6V247.5H1281.6ZM1281.6 261.25V233.25H1212.85V261.25V289.25H1281.6V261.25ZM1226.6 220V248H1267.85V220V192H1226.6V220ZM1267.85 220H1295.85V206.25H1267.85H1239.85V220H1267.85ZM1267.85 206.25V178.25H1226.6V206.25V234.25H1267.85V206.25ZM1226.6 206.25H1198.6V220H1226.6H1254.6V206.25H1226.6ZM1432.85 261.25H1404.85V289.25H1432.85V261.25ZM1432.85 247.5H1460.85V219.5H1432.85V247.5ZM1419.1 247.5H1391.1V275.5H1419.1V247.5ZM1419.1 206.25V178.25H1391.1V206.25H1419.1ZM1432.85 206.25V234.25H1460.85V206.25H1432.85ZM1432.85 192.5V164.5H1404.85V192.5H1432.85ZM1487.85 192.5V220.5H1515.85V192.5H1487.85ZM1487.85 165V137H1459.85V165H1487.85ZM1515.35 165H1543.35V137H1515.35V165ZM1515.35 261.25V289.25H1543.35V261.25H1515.35ZM1446.6 247.5H1418.6V275.5H1446.6V247.5ZM1487.85 247.5V275.5H1515.85V247.5H1487.85ZM1487.85 206.25H1515.85V178.25H1487.85V206.25ZM1446.6 206.25V178.25H1418.6V206.25H1446.6ZM1432.85 261.25H1460.85V247.5H1432.85H1404.85V261.25H1432.85ZM1432.85 247.5V219.5H1419.1V247.5V275.5H1432.85V247.5ZM1419.1 247.5H1447.1V206.25H1419.1H1391.1V247.5H1419.1ZM1419.1 206.25V234.25H1432.85V206.25V178.25H1419.1V206.25ZM1432.85 206.25H1460.85V192.5H1432.85H1404.85V206.25H1432.85ZM1432.85 192.5V220.5H1487.85V192.5V164.5H1432.85V192.5ZM1487.85 192.5H1515.85V165H1487.85H1459.85V192.5H1487.85ZM1487.85 165V193H1515.35V165V137H1487.85V165ZM1515.35 165H1487.35V261.25H1515.35H1543.35V165H1515.35ZM1515.35 261.25V233.25H1432.85V261.25V289.25H1515.35V261.25ZM1446.6 247.5V275.5H1487.85V247.5V219.5H1446.6V247.5ZM1487.85 247.5H1515.85V206.25H1487.85H1459.85V247.5H1487.85ZM1487.85 206.25V178.25H1446.6V206.25V234.25H1487.85V206.25ZM1446.6 206.25H1418.6V247.5H1446.6H1474.6V206.25H1446.6ZM1597.85 178.75V206.75H1625.85V178.75H1597.85ZM1584.1 178.75H1556.1V206.75H1584.1V178.75ZM1584.1 165V137H1556.1V165H1584.1ZM1597.85 165H1625.85V137H1597.85V165ZM1584.1 192.5V220.5H1612.1V192.5H1584.1ZM1570.35 192.5H1542.35V220.5H1570.35V192.5ZM1570.35 178.75V150.75H1542.35V178.75H1570.35ZM1584.1 178.75H1612.1V150.75H1584.1V178.75ZM1625.35 247.5H1653.35V219.5H1625.35V247.5ZM1625.35 261.25V289.25H1653.35V261.25H1625.35ZM1542.85 261.25H1514.85V289.25H1542.85V261.25ZM1542.85 247.5V219.5H1514.85V247.5H1542.85ZM1570.35 247.5V275.5H1598.35V247.5H1570.35ZM1570.35 220H1598.35V192H1570.35V220ZM1556.6 220H1528.6V248H1556.6V220ZM1556.6 206.25V178.25H1528.6V206.25H1556.6ZM1597.85 206.25H1625.85V178.25H1597.85V206.25ZM1597.85 247.5H1569.85V275.5H1597.85V247.5ZM1597.85 178.75V150.75H1584.1V178.75V206.75H1597.85V178.75ZM1584.1 178.75H1612.1V165H1584.1H1556.1V178.75H1584.1ZM1584.1 165V193H1597.85V165V137H1584.1V165ZM1597.85 165H1569.85V178.75H1597.85H1625.85V165H1597.85ZM1584.1 192.5V164.5H1570.35V192.5V220.5H1584.1V192.5ZM1570.35 192.5H1598.35V178.75H1570.35H1542.35V192.5H1570.35ZM1570.35 178.75V206.75H1584.1V178.75V150.75H1570.35V178.75ZM1584.1 178.75H1556.1V192.5H1584.1H1612.1V178.75H1584.1ZM1625.35 247.5H1597.35V261.25H1625.35H1653.35V247.5H1625.35ZM1625.35 261.25V233.25H1542.85V261.25V289.25H1625.35V261.25ZM1542.85 261.25H1570.85V247.5H1542.85H1514.85V261.25H1542.85ZM1542.85 247.5V275.5H1570.35V247.5V219.5H1542.85V247.5ZM1570.35 247.5H1598.35V220H1570.35H1542.35V247.5H1570.35ZM1570.35 220V192H1556.6V220V248H1570.35V220ZM1556.6 220H1584.6V206.25H1556.6H1528.6V220H1556.6ZM1556.6 206.25V234.25H1597.85V206.25V178.25H1556.6V206.25ZM1597.85 206.25H1569.85V247.5H1597.85H1625.85V206.25H1597.85ZM1597.85 247.5V275.5H1625.35V247.5V219.5H1597.85V247.5ZM1652.85 261.25H1624.85V289.25H1652.85V261.25ZM1652.85 247.5H1680.85V219.5H1652.85V247.5ZM1639.1 247.5H1611.1V275.5H1639.1V247.5ZM1639.1 233.75V205.75H1611.1V233.75H1639.1ZM1652.85 233.75V261.75H1680.85V233.75H1652.85ZM1652.85 220V192H1624.85V220H1652.85ZM1707.85 220V248H1735.85V220H1707.85ZM1707.85 206.25H1735.85V178.25H1707.85V206.25ZM1652.85 206.25H1624.85V234.25H1652.85V206.25ZM1652.85 192.5V164.5H1624.85V192.5H1652.85ZM1721.6 192.5H1749.6V164.5H1721.6V192.5ZM1721.6 206.25H1693.6V234.25H1721.6V206.25ZM1735.35 206.25H1763.35V178.25H1735.35V206.25ZM1735.35 261.25V289.25H1763.35V261.25H1735.35ZM1666.6 247.5H1638.6V275.5H1666.6V247.5ZM1707.85 247.5V275.5H1735.85V247.5H1707.85ZM1707.85 233.75H1735.85V205.75H1707.85V233.75ZM1666.6 233.75V205.75H1638.6V233.75H1666.6ZM1652.85 261.25H1680.85V247.5H1652.85H1624.85V261.25H1652.85ZM1652.85 247.5V219.5H1639.1V247.5V275.5H1652.85V247.5ZM1639.1 247.5H1667.1V233.75H1639.1H1611.1V247.5H1639.1ZM1639.1 233.75V261.75H1652.85V233.75V205.75H1639.1V233.75ZM1652.85 233.75H1680.85V220H1652.85H1624.85V233.75H1652.85ZM1652.85 220V248H1707.85V220V192H1652.85V220ZM1707.85 220H1735.85V206.25H1707.85H1679.85V220H1707.85ZM1707.85 206.25V178.25H1652.85V206.25V234.25H1707.85V206.25ZM1652.85 206.25H1680.85V192.5H1652.85H1624.85V206.25H1652.85ZM1652.85 192.5V220.5H1721.6V192.5V164.5H1652.85V192.5ZM1721.6 192.5H1693.6V206.25H1721.6H1749.6V192.5H1721.6ZM1721.6 206.25V234.25H1735.35V206.25V178.25H1721.6V206.25ZM1735.35 206.25H1707.35V261.25H1735.35H1763.35V206.25H1735.35ZM1735.35 261.25V233.25H1652.85V261.25V289.25H1735.35V261.25ZM1666.6 247.5V275.5H1707.85V247.5V219.5H1666.6V247.5ZM1707.85 247.5H1735.85V233.75H1707.85H1679.85V247.5H1707.85ZM1707.85 233.75V205.75H1666.6V233.75V261.75H1707.85V233.75ZM1666.6 233.75H1638.6V247.5H1666.6H1694.6V233.75H1666.6Z" fill="black" mask="url(#path-4-outside-1_93_181858)"/>
</svg>
