<svg width="300" height="300" viewBox="0 0 300 300" fill="none" xmlns="http://www.w3.org/2000/svg">
<path d="M74.0704 258.948L74.0032 267.032L66.3563 267.116C65.8011 267.066 65.3721 267.579 65.6918 268.1L65.7507 283.411L74.062 283.529L82.3734 283.63L82.3398 291.672L90.3567 291.756L90.3062 298.402C90.6343 299.007 90.811 299.579 90.7605 299.983H82.3566L81.9276 296.13L74.9285 295.785C74.3481 294.364 74.3901 293.354 74.4574 291.975L65.9778 291.781L65.6161 283.478L49.5654 283.554L49.3971 291.63L33.4221 292.008C33.1614 295.281 33.195 297.653 33.624 299.966L0 300L0.319668 291.764L24.6986 291.815L24.8247 283.621L16.4293 283.579L16.4545 275.276L24.9089 275.419L24.9425 283.554L33.1193 283.571L33.1445 275.293L49.4392 275.167L49.5065 267.209L57.6748 267.158L57.8347 258.864L74.0704 258.939V258.948Z" fill="#F0F1F2"/>
<path d="M49.5315 258.855L49.5063 267.217L41.2877 267.116L41.2793 259.024L49.5315 258.855Z" fill="#F0F1F2"/>
<path d="M57.8344 258.872L49.5317 258.855L49.498 250.754L57.725 250.771L57.8344 258.872Z" fill="#F0F1F2"/>
<path d="M82.3562 299.983L33.6153 299.966C33.1863 297.661 33.1526 295.281 33.4134 292.008L49.3884 291.63L49.5566 283.554L65.6073 283.478L65.969 291.781L74.4487 291.975C74.3814 293.354 74.3393 294.364 74.9198 295.785L81.9188 296.13L82.3478 299.983H82.3562Z" fill="#C0BEC1"/>
<path d="M300 299.992H283.218L283.15 293.304C283.092 292.311 282.427 291.781 281.476 291.79L268.034 291.764L266.755 291.571L266.704 283.596L258.544 283.461L258.469 276.387C258.519 275.73 259.192 275.428 259.638 275.461H274.763L274.898 267.697L274.326 267.116H266.704V259.049H274.738L274.805 266.788L275.251 267.167L283.1 267.284L283.176 275.343L274.772 275.402L274.831 283.537L291.268 283.579L291.369 291.748L299.706 291.79C299.622 294.835 299.403 297.443 300 299.975V299.992Z" fill="#F0F1F2"/>
<path d="M258.409 291.461C261.126 291.975 264.012 291.865 266.754 291.571L268.033 291.764L281.476 291.79C282.418 291.781 283.091 292.311 283.15 293.304L283.217 300H242.03V291.882L258.014 291.739C258.14 291.613 258.274 291.52 258.409 291.47V291.461Z" fill="#C0BEC1"/>
<path d="M250.435 283.655L258.511 283.84L258.41 291.462C258.276 291.512 258.15 291.605 258.015 291.731L242.032 291.874V300L226.099 299.975C225.485 297.417 225.527 294.616 225.947 291.764H242.082L242.048 283.63L250.427 283.655H250.435Z" fill="#F0F1F2"/>
<path d="M65.7002 268.109C65.3806 267.587 65.8096 267.074 66.3648 267.125C66.533 267.663 66.2049 268.117 65.7002 268.109Z" fill="#615963"/>
<path d="M233.735 242.931C233.701 243.309 233.811 243.848 233.962 244.504V259.107L242.097 258.973L242.131 267.183L250.299 267.2L250.223 281.535C250.148 282.443 250.24 283.125 250.434 283.663L242.055 283.638L242.089 291.756H225.954C225.533 294.624 225.491 297.426 226.105 299.983L90.7678 300C90.8183 299.596 90.6416 299.016 90.3135 298.418L90.364 291.773L82.3471 291.688L82.3807 283.646L74.0693 283.545L74.1366 267.242L82.1452 267.183L82.3555 258.973L90.4145 258.864L102.604 258.922L102.772 267.175L119 267.267L119.126 275.368L175.909 275.537L176.506 275.192L176.91 267.192L209.247 267.166L209.424 259.04L217.659 258.981L217.617 250.754L225.777 250.519L225.903 242.678L233.735 242.947V242.931ZM176.994 275.621L176.557 276.193L176.885 283.503L184.355 283.444C184.742 280.677 184.935 278.094 184.363 275.352L176.994 275.612V275.621ZM176.439 283.764L168.279 283.798L168.313 291.781L176.472 291.747L176.439 283.764Z" fill="#615963"/>
<path d="M259.637 275.461C259.199 275.428 258.518 275.739 258.467 276.387L258.543 283.461L266.703 283.596L266.754 291.571C264.011 291.865 261.126 291.983 258.409 291.461L258.51 283.84L250.434 283.655C250.24 283.125 250.148 282.435 250.223 281.526L250.299 267.192L242.131 267.175L242.097 258.965L233.971 259.099V244.495C233.811 243.839 233.702 243.301 233.735 242.922L233.769 234.518L225.676 234.392L225.701 226.148L217.558 226.35L209.297 226.232L209.163 218.114H152.111L151.959 226.157L135.698 226.333L135.723 234.51L119.134 234.401L119.042 242.695L102.89 242.645L102.798 250.796H92.4083C91.1381 250.628 90.2211 251.646 90.4819 252.908L90.4146 258.838L82.3556 258.948L82.1453 267.158L74.1368 267.217L74.0695 283.52L65.7581 283.402L65.6992 268.092C66.204 268.092 66.532 267.646 66.3638 267.108L74.0106 267.024L74.0779 258.939L82.2294 258.721L82.3977 250.527L89.8089 250.3L90.0529 243.839C90.524 243.385 91.0203 243.023 91.5755 242.746H102.461L102.638 234.476L118.327 234.35C118.747 232.92 118.789 231.717 118.571 230.245C119.294 228.941 119.412 227.679 119.378 226.106L135.227 225.946L135.404 219.343C135.463 218.644 135.757 218.182 136.38 217.719L151.143 217.576L151.337 211.73C151.194 210.686 151.606 210.005 152.094 209.626C152.472 209.408 153.002 209.248 153.835 209.29H207.279C207.851 209.971 208.355 210.131 209.356 210.064C209.121 212.066 209.096 213.454 210.198 215.145C209.567 216.18 209.97 217.273 210.896 217.685L224.389 217.66C225.012 217.786 225.491 218.14 225.929 218.661L226.063 225.972L233.634 226.106L233.718 234.375L242.047 234.51L242.122 258.721L250.35 258.796L250.459 267.167L258.737 267.276L259.014 273.594L259.645 275.436L259.637 275.461Z" fill="#300F0D"/>
<path d="M217.559 226.35L217.627 234.325L225.669 234.392L233.762 234.518L233.728 242.922L225.896 242.653L225.77 250.493L217.61 250.729L217.652 258.956L209.416 259.015L209.24 267.141L176.903 267.167L176.499 275.167L176.995 275.613L184.364 275.352C184.936 278.094 184.743 280.677 184.356 283.445L176.886 283.503L176.558 276.193C176.213 276.084 175.994 275.857 175.902 275.512L119.118 275.343L118.992 267.242L102.765 267.15L102.597 258.897L90.4072 258.839L90.4745 252.908C90.2137 251.646 91.1391 250.628 92.4009 250.796H102.79L102.883 242.645L119.034 242.695L119.127 234.401L135.716 234.51L135.691 226.333L151.952 226.157L152.103 218.098H209.155L209.29 226.224L217.551 226.342L217.559 226.35Z" fill="#95847C"/>
<path d="M176.443 283.753L168.283 283.786L168.315 291.769L176.475 291.736L176.443 283.753Z" fill="#95847C"/>
<path d="M225.668 234.392L217.626 234.325L217.559 226.35L225.701 226.148L225.668 234.392Z" fill="#615963"/>
<path d="M189.487 177.173C189.487 179.374 188.723 181.615 189.487 184.498L206.979 184.549C207.448 187.137 207.203 189.429 206.979 192.332L221.995 192.363L222.26 199.678L229.595 200.065V206.697L228.087 206.87C226.722 207.033 223.809 207.889 222.332 206.35C221.893 204.914 222.637 200.462 220.111 200.309L207.254 199.535L206.928 192.312L187.093 192.108L186.472 185.364L142.849 185.242L142.655 192.18L121.292 192.444L120.793 199.79L89.9655 199.769L89.7618 207.389C86.9296 207.491 84.7597 207.237 82.0498 208.062L81.2348 215.234L75.1427 216.446C74.4602 218.504 73.9508 223.465 75.9577 224.616C80.2161 226.399 85.0551 224.963 89.6904 225.34C90.047 226.848 90.047 228.274 89.8127 230.108L75.4484 230.087C74.9084 232.532 75.1631 234.509 75.3668 237.045L68.3273 237.147L67.5225 215.061L74.613 214.908L74.725 207.481L81.6627 206.962L81.8359 199.759L89.5988 199.657L89.8433 192.312L120.956 192.332L121.027 184.722L142.604 184.508L142.716 177.143H189.487V177.173Z" fill="#031F40"/>
<path d="M228.109 206.89C228.149 207.827 228.761 208.53 229.627 208.744L229.443 213.716C229.351 216.354 233.009 215.407 237.277 216.996C237.053 218.371 237.053 220.47 237.277 221.957C237.379 222.609 237.899 222.854 238.551 222.803L242.453 222.518C243.838 227.204 245.173 231.788 244.398 236.892C242.31 236.852 239.172 236.169 237.685 237.432C236.361 238.879 237.084 242.19 237.206 244.146L230.686 244.788C228.995 246.438 229.953 249.749 230.248 251.562L193.634 251.583L193.441 244.411L186.411 244.329L186.126 237.626C183.6 236.505 181.246 236.821 179.046 237.218L178.791 237.921C178.516 239.775 178.312 241.803 178.801 244.125L185.209 244.879C186.798 245.979 186.289 249.586 185.311 251.44L160.128 251.521C160.026 249.25 160.28 246.071 158.65 244.91C157.02 243.748 154.035 244.186 152.079 244.451C152.202 246.978 152.507 248.944 151.723 251.521L105.034 251.552L96.9244 251.471L89.8645 251.501L89.7728 244.329L96.6289 244.278L96.5373 237.3L81.0523 237.697C79.6158 238.767 79.6872 243.942 81.3376 244.207L83.9354 244.625C84.6383 244.737 85.0967 245.735 84.9133 246.662L84.6994 251.328L81.7246 251.562L68.4402 251.613L67.5029 237.239L68.2975 237.147L75.3371 237.045C75.1334 234.508 74.8786 232.532 75.4186 230.087L89.783 230.107C90.0173 228.263 90.0173 226.837 89.6607 225.34C85.0356 224.963 80.1863 226.399 75.9279 224.616C73.921 223.465 74.4304 218.504 75.113 216.446L81.2051 215.234L82.0201 208.062C84.73 207.236 86.8999 207.501 89.732 207.389L89.9357 199.769L120.763 199.789L121.262 192.444L142.625 192.179L142.819 185.242L186.442 185.364L187.063 192.108L206.898 192.312L207.224 199.535L220.081 200.309C222.607 200.462 221.874 204.914 222.302 206.35C223.779 207.888 226.703 207.033 228.058 206.87L228.109 206.89ZM178.394 198.913C178.526 197.558 179.331 194.217 177.884 192.831C176.295 191.303 172.516 191.996 170.763 192.465L170.845 199.8L177.793 199.688L178.383 198.913H178.394ZM163.092 207.104C163.398 204.812 163.551 202.459 163.072 199.789L154.188 199.769V207.593L162.481 207.654L163.082 207.094L163.092 207.104ZM178.964 199.637L178.383 200.095L178.506 207.369L185.973 207.613L186.401 207.145L186.248 199.81L178.944 199.647L178.964 199.637ZM163.714 207.603L163.225 208.367L163.632 215.234C166.179 215.712 168.247 215.733 170.763 215.285L171.038 207.675C168.43 207.135 166.036 207.298 163.714 207.603ZM187.236 207.613C186.829 207.726 186.533 208.082 186.462 208.388C185.994 210.252 185.555 213.512 187.247 214.765C188.703 215.845 192.544 215.682 193.481 214.164C194.419 212.646 194.49 208.714 193.094 207.827C191.505 206.819 188.866 207.359 187.247 207.613H187.236ZM111.319 231.147L111.411 233.153C111.431 233.642 111.727 234.162 112.063 234.508L112.919 235.364C113.112 236.159 113.601 236.841 114.355 237.249C114.355 238.96 114.08 240.957 114.854 243.005C115.333 243.708 117.544 243.687 118.338 243.433C119.816 242.944 120.05 236.485 118.501 232.216L118.563 230.382C120.081 229.853 120.896 228.182 120.111 225.584H104.321C104.076 226.623 103.893 229.364 104.85 230.281L111.299 231.157L111.319 231.147ZM178.261 236.627V230.25L171.283 230.087L171.436 236.851L177.691 236.821C177.895 236.821 178.088 236.729 178.261 236.627ZM152.222 236.424H144.989V244.594H152.222V236.424Z" fill="#AD563C"/>
<path d="M230.45 206.87L229.604 206.707V200.075L222.279 199.688L222.014 192.373L206.998 192.343C207.212 189.439 207.467 187.147 206.998 184.56L189.506 184.509C188.732 181.615 189.506 179.384 189.506 177.184L207.579 177.113L207.884 184.325L222.656 184.58C222.3 186.679 221.76 189.827 223.278 191.304C224.796 192.781 227.974 192.119 229.9 191.854L230.256 199.393L237.316 199.719C237.713 201.685 238.294 204.884 236.98 206.677C235.594 207.96 232.069 207.176 230.47 206.88L230.45 206.87Z" fill="#F1F2F3"/>
<path d="M142.717 177.173L142.604 184.539L121.027 184.753L120.956 192.363L89.8434 192.342L89.5989 199.688L81.8361 199.79L81.6629 206.992L74.7252 207.512L74.6131 214.938L67.5226 215.091L68.3275 237.178L67.5328 237.269C65.6583 237.483 63.7839 236.811 61.1351 237.269L61.1656 251.481C63.9061 252.011 65.7398 251.776 68.3682 251.44C68.032 254.242 67.8282 256.086 68.4191 258.5H81.7036L81.7546 251.603L84.7293 251.369L89.8842 251.573L90.0064 258.582L97.046 258.673L104.921 258.51L264.559 258.592L264.834 251.766C267.279 251.98 268.827 252.072 270.987 251.532L271.028 237.259L263.927 237.239V231.136C263.927 230.464 263.479 230.189 262.868 230.189L252.517 230.23L252.293 222.722L252.14 222.09L244.652 222.049C244.174 219.94 244.459 218.433 244.489 216.925L244.52 215.438C244.52 215.061 243.899 214.806 243.44 214.898C242.095 215.162 239.08 215.713 237.817 214.439C236.716 213.329 236.574 209.019 237.919 207.563C239.263 206.106 243.318 206.992 245.172 207.95C244.999 209.58 244.408 212.534 245.763 213.797C247.22 215.152 250.276 214.429 252.11 214.297C252.884 217.119 252.558 219.136 252.589 221.448L253.23 221.896L264.488 221.998C264.253 224.82 264.039 226.562 264.691 229.374C267.727 229.476 270.233 228.763 272.79 230.077C271.955 232.41 271.935 235.344 273.493 236.536C274.461 237.269 276.672 236.964 278.75 236.709L278.108 259.162L265.404 259.111C265.017 262.331 265.292 264.511 265.557 266.701C265.353 266.762 265.048 266.721 264.966 266.406L119.744 266.355L119.357 273.669L96.8728 273.863L96.1902 273.832C96.4551 271.377 96.7913 268.739 96.0272 266.192L61.3083 266.243L60.8906 259.142L53.5556 258.897L53.25 236.638C55.6644 236.831 57.2537 236.964 59.607 236.322L59.7598 214.327C61.7667 214.643 64.8535 215.213 66.1066 213.695C67.5227 211.974 66.9318 209.07 66.6771 206.86L73.8898 206.636L73.9815 199.616L80.5728 199.148C82.1825 197.579 81.3776 194.258 81.1739 191.986C83.5679 191.874 86.7261 192.842 88.6209 191.303C89.9962 189.898 89.3035 186.566 89.1303 184.519L120.457 184.457L120.661 177.102L142.717 177.204V177.173Z" fill="#F1F2F3"/>
<path d="M189.507 169.156L189.487 177.173H142.716L142.818 169.115L189.507 169.156Z" fill="#F1F2F3"/>
<path d="M237.276 216.996C233.018 215.407 229.35 216.344 229.442 213.716C234.098 216.375 237.928 212.921 237.276 216.996Z" fill="#672529"/>
<path d="M230.45 206.87C230.225 207.553 229.971 208.174 229.624 208.734C228.758 208.52 228.147 207.817 228.106 206.88L229.604 206.707L230.45 206.87Z" fill="#672529"/>
<path d="M230.256 251.573C229.96 249.759 229.003 246.459 230.694 244.798L237.214 244.156C237.091 242.21 236.368 238.889 237.692 237.443C239.18 236.179 242.318 236.862 244.406 236.903C245.17 231.799 243.836 227.214 242.46 222.528C242.99 222.487 243.285 221.448 244.1 222.039C245.374 222.966 243.703 227.907 245.313 229.303C246.739 230.546 249.449 230.148 251.456 230.291L252.23 236.77L263.762 237.341L263.823 251.512L230.256 251.563V251.573Z" fill="#672529"/>
<path d="M89.8024 244.34C87.9177 244.35 85.0244 244.513 84.9531 246.673C85.1365 245.756 84.678 244.747 83.9751 244.635L81.3773 244.217C79.7269 243.953 79.6556 238.777 81.092 237.708L96.577 237.31L96.6687 244.289L89.8125 244.34H89.8024Z" fill="#672529"/>
<path d="M118.572 230.383C116.117 230.454 113.693 230.464 111.319 231.157L104.87 230.281C103.902 229.364 104.096 226.624 104.34 225.574H120.131C120.905 228.182 120.09 229.863 118.583 230.383H118.572Z" fill="#031F40"/>
<path d="M67.5422 237.249L68.4795 251.624L81.764 251.573L81.7131 258.47H68.4285C67.8377 256.055 68.0312 254.211 68.3776 251.41C65.7391 251.746 63.9155 251.99 61.1751 251.45L61.1445 237.239C63.7933 236.78 65.6677 237.463 67.5422 237.239V237.249Z" fill="#031F40"/>
<path d="M162.49 207.654L154.188 207.593V199.769L163.081 199.79C163.56 202.459 163.407 204.802 163.102 207.104L163.723 207.603C166.036 207.298 168.43 207.145 171.048 207.675L170.773 215.285C168.256 215.733 166.188 215.713 163.642 215.234L163.234 208.368L162.49 207.654Z" fill="#672529"/>
<path d="M177.802 199.688L170.854 199.8L170.772 192.465C172.525 191.996 176.304 191.303 177.894 192.832C179.34 194.217 178.535 197.559 178.403 198.913L178.973 199.637L186.278 199.8L186.431 207.135L187.246 207.603C188.865 207.339 191.504 206.809 193.093 207.817C194.489 208.704 194.387 212.667 193.48 214.154C192.574 215.641 188.713 215.835 187.246 214.755C185.554 213.512 185.993 210.242 186.461 208.378L185.993 207.593L178.525 207.349L178.403 200.075L177.812 199.678L177.802 199.688Z" fill="#672529"/>
<path d="M118.571 230.383L118.51 232.216L118.347 243.433C117.553 243.698 115.342 243.708 114.863 243.005C114.089 240.957 114.374 238.96 114.364 237.249C114.364 236.271 113.926 235.537 112.928 235.364L112.072 234.508C111.919 234.03 111.695 233.571 111.42 233.153L111.328 231.147C113.702 230.464 116.126 230.444 118.582 230.372L118.571 230.383Z" fill="#F1F2F3"/>
<path d="M105.062 251.562L104.93 258.48L97.0549 258.643C96.7086 256.259 96.6881 253.875 96.953 251.481L105.062 251.562Z" fill="#D1AC80"/>
<path d="M152.231 236.424H144.998V244.594H152.231V236.424Z" fill="#0E1116"/>
<path d="M89.8025 244.34L89.8941 251.512L96.954 251.481C96.6892 253.875 96.7096 256.249 97.056 258.643L90.0164 258.551L89.8941 251.542L84.7393 251.338L84.9532 246.673C85.0245 244.513 87.9178 244.35 89.8025 244.34Z" fill="#031F40"/>
<path d="M118.348 243.423L118.511 232.206C120.059 236.465 119.825 242.934 118.348 243.423Z" fill="#D1AC80"/>
<path d="M114.365 237.249C113.601 236.842 113.122 236.17 112.929 235.365C113.937 235.538 114.365 236.261 114.365 237.249Z" fill="#D1AC80"/>
<path d="M112.062 234.509C111.716 234.162 111.42 233.643 111.41 233.154C111.685 233.571 111.909 234.02 112.062 234.509Z" fill="#D1AC80"/>
<path d="M238.561 222.813C237.909 222.864 237.389 222.62 237.287 221.968L238.561 222.813Z" fill="#672529"/>
<path d="M263.937 231.096L262.867 230.148C263.489 230.148 263.937 230.423 263.937 231.096Z" fill="#672529"/>
<path d="M244.499 216.884C243.826 216.446 243.5 215.713 243.449 214.857C243.908 214.765 244.529 215.01 244.529 215.397L244.499 216.884Z" fill="#672529"/>
<path d="M104.736 258.521V251.389H151.599V244.258H160.258V251.389H185.217V245.277L177.577 244.258V237.127H170.955V229.996H178.596V236.618H186.746V244.258H193.877V251.389H263.152V238.146L251.436 237.127V231.014H244.305V222.864H237.174V216.808L229.36 214.714V209.111L230.042 206.564H237.683V214.714H244.814V221.846H252.455V229.996H264.17V237.127H271.302V251.899H265.189L264.68 258.521H104.736Z" fill="#031F40"/>
</svg>
