<svg width="300" height="300" viewBox="0 0 300 300" fill="none" xmlns="http://www.w3.org/2000/svg">
<path d="M74.0704 258.947L74.0032 267.032L66.3563 267.116C65.8011 267.065 65.3721 267.578 65.6918 268.1L65.7507 283.41L74.062 283.528L82.3734 283.629L82.3398 291.671L90.3567 291.755L90.3062 298.401C90.6343 299.007 90.811 299.579 90.7605 299.983H82.3566L81.9276 296.13L74.9285 295.785C74.3481 294.363 74.3901 293.354 74.4574 291.974L65.9778 291.781L65.6161 283.478L49.5654 283.553L49.3971 291.629L33.4221 292.008C33.1614 295.28 33.195 297.652 33.624 299.966L0 300L0.319668 291.764L24.6986 291.814L24.8247 283.621L16.4293 283.579L16.4545 275.276L24.9089 275.419L24.9425 283.553L33.1193 283.57L33.1445 275.293L49.4392 275.166L49.5065 267.208L57.6748 267.158L57.8347 258.863L74.0704 258.939V258.947Z" fill="#F0F1F2"/>
<path d="M49.5315 258.855L49.5063 267.217L41.2877 267.116L41.2793 259.023L49.5315 258.855Z" fill="#F0F1F2"/>
<path d="M57.8344 258.872L49.5317 258.855L49.498 250.754L57.725 250.771L57.8344 258.872Z" fill="#F0F1F2"/>
<path d="M82.3562 299.983L33.6153 299.966C33.1863 297.661 33.1526 295.28 33.4134 292.008L49.3884 291.629L49.5566 283.553L65.6073 283.478L65.969 291.781L74.4487 291.974C74.3814 293.354 74.3393 294.363 74.9198 295.785L81.9188 296.13L82.3478 299.983H82.3562Z" fill="#C0BEC1"/>
<path d="M300 299.991H283.218L283.15 293.303C283.092 292.311 282.427 291.781 281.476 291.789L268.034 291.764L266.755 291.57L266.704 283.595L258.544 283.461L258.469 276.386C258.519 275.73 259.192 275.427 259.638 275.461H274.763L274.898 267.696L274.326 267.116H266.704V259.048H274.738L274.805 266.788L275.251 267.166L283.1 267.284L283.176 275.343L274.772 275.402L274.831 283.537L291.268 283.579L291.369 291.747L299.706 291.789C299.622 294.834 299.403 297.442 300 299.974V299.991Z" fill="#F0F1F2"/>
<path d="M258.409 291.461C261.126 291.974 264.012 291.865 266.754 291.57L268.033 291.764L281.476 291.789C282.418 291.781 283.091 292.311 283.15 293.303L283.217 299.999H242.03V291.882L258.014 291.739C258.14 291.612 258.274 291.52 258.409 291.469V291.461Z" fill="#C0BEC1"/>
<path d="M250.435 283.654L258.511 283.839L258.41 291.461C258.276 291.511 258.15 291.604 258.015 291.73L242.032 291.873V300L226.099 299.974C225.485 297.417 225.527 294.616 225.947 291.764H242.082L242.048 283.629L250.427 283.654H250.435Z" fill="#F0F1F2"/>
<path d="M65.7002 268.109C65.3806 267.587 65.8096 267.074 66.3648 267.124C66.533 267.663 66.2049 268.117 65.7002 268.109Z" fill="#615963"/>
<path d="M233.735 242.93C233.701 243.309 233.811 243.847 233.962 244.503V259.107L242.097 258.972L242.131 267.183L250.299 267.2L250.223 281.534C250.148 282.443 250.24 283.124 250.434 283.663L242.055 283.637L242.089 291.755H225.954C225.533 294.624 225.491 297.425 226.105 299.982L90.7678 299.999C90.8183 299.595 90.6416 299.015 90.3135 298.418L90.364 291.772L82.3471 291.688L82.3807 283.646L74.0693 283.545L74.1366 267.242L82.1452 267.183L82.3555 258.972L90.4145 258.863L102.604 258.922L102.772 267.174L119 267.267L119.126 275.368L175.909 275.536L176.506 275.191L176.91 267.191L209.247 267.166L209.424 259.04L217.659 258.981L217.617 250.754L225.777 250.518L225.903 242.678L233.735 242.947V242.93ZM176.994 275.62L176.557 276.192L176.885 283.503L184.355 283.444C184.742 280.676 184.935 278.094 184.363 275.351L176.994 275.612V275.62ZM176.439 283.763L168.279 283.797L168.313 291.78L176.472 291.747L176.439 283.763Z" fill="#615963"/>
<path d="M259.637 275.461C259.199 275.427 258.518 275.738 258.467 276.386L258.543 283.461L266.703 283.595L266.754 291.57C264.011 291.865 261.126 291.983 258.409 291.461L258.51 283.839L250.434 283.654C250.24 283.124 250.148 282.435 250.223 281.526L250.299 267.191L242.131 267.175L242.097 258.964L233.971 259.099V244.495C233.811 243.839 233.702 243.3 233.735 242.922L233.769 234.518L225.676 234.392L225.701 226.148L217.558 226.35L209.297 226.232L209.163 218.114H152.111L151.959 226.156L135.698 226.333L135.723 234.51L119.134 234.4L119.042 242.695L102.89 242.644L102.798 250.796H92.4083C91.1381 250.628 90.2211 251.645 90.4819 252.907L90.4146 258.838L82.3556 258.947L82.1453 267.158L74.1368 267.217L74.0695 283.52L65.7581 283.402L65.6992 268.092C66.204 268.092 66.532 267.646 66.3638 267.107L74.0106 267.023L74.0779 258.939L82.2294 258.72L82.3977 250.527L89.8089 250.299L90.0529 243.839C90.524 243.385 91.0203 243.023 91.5755 242.745H102.461L102.638 234.476L118.327 234.35C118.747 232.92 118.789 231.717 118.571 230.245C119.294 228.941 119.412 227.679 119.378 226.106L135.227 225.946L135.404 219.342C135.463 218.644 135.757 218.181 136.38 217.719L151.143 217.576L151.337 211.729C151.194 210.686 151.606 210.005 152.094 209.626C152.472 209.407 153.002 209.247 153.835 209.289H207.279C207.851 209.971 208.355 210.131 209.356 210.063C209.121 212.066 209.096 213.454 210.198 215.144C209.567 216.179 209.97 217.273 210.896 217.685L224.389 217.66C225.012 217.786 225.491 218.139 225.929 218.661L226.063 225.971L233.634 226.106L233.718 234.375L242.047 234.51L242.122 258.72L250.35 258.796L250.459 267.166L258.737 267.276L259.014 273.593L259.645 275.436L259.637 275.461Z" fill="#300F0D"/>
<path d="M217.559 226.35L217.627 234.325L225.669 234.392L233.762 234.518L233.728 242.922L225.896 242.653L225.77 250.493L217.61 250.729L217.652 258.956L209.416 259.015L209.24 267.141L176.903 267.166L176.499 275.166L176.995 275.612L184.364 275.351C184.936 278.094 184.743 280.676 184.356 283.444L176.886 283.503L176.558 276.193C176.213 276.083 175.994 275.856 175.902 275.511L119.118 275.343L118.992 267.242L102.765 267.149L102.597 258.897L90.4072 258.838L90.4745 252.907C90.2137 251.645 91.1391 250.628 92.4009 250.796H102.79L102.883 242.644L119.034 242.695L119.127 234.4L135.716 234.51L135.691 226.333L151.952 226.156L152.103 218.097H209.155L209.29 226.223L217.551 226.341L217.559 226.35Z" fill="#95847C"/>
<path d="M176.443 283.753L168.283 283.786L168.315 291.769L176.475 291.736L176.443 283.753Z" fill="#95847C"/>
<path d="M225.668 234.392L217.626 234.324L217.559 226.35L225.701 226.148L225.668 234.392Z" fill="#615963"/>
<path d="M168.8 109.414L168.943 114.463L169.118 135.964L175.809 136.124L175.726 157.486C175.726 160.096 174.709 163.113 175.922 165.84L191.378 165.99L192.252 172.911L205.952 173.361C208.5 173.446 208.829 178.281 208.192 180.795L222.148 180.966L223.546 188.604L231.881 188.679L232.086 196.616L239.825 196.883L240.133 204.457L248.335 204.628C248.17 207.858 247.646 210.736 249.044 213.068C249.876 214.469 252.127 214.662 254.963 213.934L255.19 239.768L215.417 239.468C214.441 239.468 214.338 235.917 214.913 235.157C215.489 234.398 217.904 234.483 218.377 233.649C219.548 231.584 220.031 229.434 223.402 229.659L223.279 218.299C223.269 217.293 219.692 217.261 219.61 218.438L218.901 228.504C216.794 228.065 214.934 228.268 214.677 229.006L213.752 231.723C212.108 232.889 209.713 232.782 207.688 233.061L207.195 239.778L197.761 239.896C197.062 239.896 196.61 240.324 196.743 240.923V245.202C196.404 246.378 195.315 247.256 193.65 247.363L180.31 248.208L179.95 239.853L172.027 239.489L171.78 231.542L164.894 231.274L164.617 223.85L150.599 223.808C150.003 221.551 150.085 219.882 150.208 217.571L140.383 217.357C141.894 221.144 139.54 222.877 138.554 225.295C137.053 228.942 138.523 233.713 138.122 237.724C139.232 238.719 140.332 238.912 141.853 239.19L142.14 247.758L107.352 248.357C106.407 248.379 106.283 246.4 106.345 245.758C108.308 245.095 107.116 240.067 105.43 240.099L95.852 240.26L96.0473 233.414C96.0679 232.633 95.5437 232.205 94.9785 232.569L90.1585 233.349C89.2643 233.499 87.8461 233.392 87.0548 232.59C86.6437 232.173 86.4278 231.221 86.469 230.472L86.3559 216.833C84.1669 215.945 82.0703 216.33 79.0488 216.095L79.1208 168.75C81.7003 167.68 83.9613 168.397 87.0034 168.279L87.3836 144.917L87.7639 142.81C88.9355 142.093 90.3948 142.2 90.8059 143.259C91.0937 143.986 90.6312 146.81 91.2581 146.939L95.5334 147.837C96.407 148.019 96.4173 150.651 96.0576 152.565L106.705 152.951L107.455 147.099C109.161 147.73 111.915 147.484 112.347 145.655C112.666 144.297 112.583 142.788 114.012 142.81C115.358 142.831 115.646 143.238 116.324 144.896L119.058 151.592C123.775 153.175 128.441 153.56 133.199 152.619C132.85 150.704 133.158 148.65 133.888 148.116C134.741 147.506 136.344 147.442 138.287 147.688C138.41 145.441 137.804 143.505 138.872 141.355C141.174 142.328 143.24 141.569 143.682 139.986C143.96 139.002 143.723 136.862 142.798 136.456C141.966 136.092 139.797 135.964 138.821 136.359C137.988 136.702 138.842 139.109 138.256 140.542C137.629 142.061 134.998 142.232 133.364 141.622C132.747 143.655 132.809 144.682 132.727 146.885C129.335 147.431 126.396 147.495 122.778 146.853C122.562 144.639 122.686 143.184 121.874 141.398C120.26 141.868 118.287 141.59 117.742 140.82C117.167 140.007 117.208 137.6 117.681 136.777C118.195 135.857 120.425 135.857 121.874 135.953C123.189 134.605 122.737 131.364 122.09 129.16L106.9 129.128C106.314 131.706 106.088 133.953 107.188 136.359C108.935 135.514 111.802 135.653 112.09 136.766C112.378 137.878 112.655 140.735 111.73 141.344C110.877 141.911 108.699 141.687 107.136 141.28L106.376 146.789C102.799 147.431 99.7882 147.452 96.3762 146.907C96.9928 143.398 93.6219 139.761 90.6929 136.028L90.9087 109.499C93.0977 109.307 94.5366 109.531 96.3762 108.515C95.924 106.226 96.4378 103.488 97.8047 102.792C99.1716 102.097 101.309 102.835 103.056 102.396C105.307 101.829 105.862 98.2246 105.101 94.6518L145.46 94.2881L145.624 101.787L159.92 101.851L160.239 108.911L168.83 109.403L168.8 109.414ZM101.155 113.842L96.1912 114.42C95.9137 116.388 95.7082 119.18 96.6331 119.929C97.4964 120.635 100.487 120.485 101.001 119.48C101.597 118.324 101.319 116.174 101.268 114.751L112.409 114.698L112.316 109.489C108.986 109.178 105.852 108.258 102.512 108.911C100.641 109.275 100.6 112.58 101.155 113.832V113.842ZM144.617 115.147C143.939 118.709 144.864 119.972 146.847 120.111C149.252 120.282 150.414 120.036 150.362 117.458C150.27 112.666 145.409 116.196 144.977 109.724C141.555 108.847 137.382 108.59 133.538 108.847C133.025 111.114 133.487 112.954 132.233 114.955C130.157 113.874 127.907 114.816 127.701 116.249C127.567 117.158 127.372 119.383 128.4 119.972C129.366 120.528 131.915 120.325 132.583 119.415C133.117 118.688 132.562 115.329 133.405 114.987C136.159 114.045 141.709 114.292 144.607 115.137L144.617 115.147ZM112.357 114.409L112.234 120.047L117.434 120.175L117.557 114.538L112.357 114.409ZM153.558 147.891H148.934L148.944 152.897H153.569L153.558 147.891ZM122.398 158.481L116.992 158.513L117.023 163.658L122.429 163.626L122.398 158.481ZM101.186 163.701L97.3319 163.733L97.3731 168.643L101.227 168.611L101.186 163.701ZM138.852 170.151C140.784 171.146 143.199 170.387 143.497 169.103C143.795 167.819 144.001 165.99 143.764 164.568C143.59 163.476 140.27 163.102 139.088 164.065C137.906 165.028 137.649 169.296 138.852 170.151ZM188.614 203.633C188.203 200.777 188.306 198.616 188.984 197.429L195.489 196.905L195.746 189.62L202.601 189.46C203.012 187.427 203.495 184.186 202.17 182.603C201.06 181.287 197.648 181.726 195.757 182.389L194.873 188.978L188.84 189.074L188.347 195.974L181.379 196.37C181.163 198.413 180.67 201.975 182.18 203.601C183.486 205.002 187.175 204.371 188.593 203.644L188.614 203.633ZM208.593 188.208L208.531 196.252L215.18 196.306L215.242 188.261L208.593 188.208ZM219.898 195.054L216.517 195.204L216.917 204.842L220.299 204.692L219.898 195.054ZM202.755 212.875C202.005 210.137 201.913 207.013 202.981 206.051C204.441 204.746 207.154 205.227 209.271 205.708C209.898 203.205 209.816 201.183 209.631 198.285C207.411 197.835 205.325 197.707 202.735 198.188L201.738 205.259L195.006 205.837L194.955 213.089C197.617 213.613 199.909 213.806 202.755 212.875Z" fill="#AD563C"/>
<path d="M147.176 78.6277L147.341 86.3509L161.369 86.5114L161.4 93.4538L169.396 93.4966L169.54 100.781L176.209 101.059L176.281 113.778L183.773 114.206L183.702 149.538L193.496 149.72C192.663 151.913 192.9 156.652 194.421 156.684L209.179 157.037L209.456 164.61L225.376 164.835L225.458 172.355L232.611 172.601L232.755 179.982L240.884 180.196L240.987 187.481L248.705 187.727L248.982 195.749L256.998 195.963L257.153 203.43L265.282 203.751C265.179 205.644 264.665 208.104 265.96 209.902C267.378 210.907 270.585 209.944 272.856 210.725L273 239.81L265.385 240.067L265.292 250.7L265.241 254.669L257.255 254.818L257.111 262.381C254.367 262.98 252.055 262.734 249.147 262.424L249.023 270.992L232.395 271.206L232.446 279.283L214.204 279.218C214.369 277.175 215.109 273.613 213.927 272.18C211.871 270.714 208.531 271.623 206.476 271.805L206.25 264.285C201.121 265.023 197.339 261.151 190.392 262.82L190.289 270.008H142.511L142.223 262.371H106.725C106.787 260.092 106.859 258.808 106.304 256.509L95.1327 256.808C94.4441 258.113 94.5058 260.477 94.7422 262.017L88.2059 262.157L87.8976 256.787L79.6347 256.829V248.764C76.6543 248.882 74.2906 249.106 71.8138 248.496C70.9916 239.543 71.8754 231.467 71.8343 222.792L65.1747 222.717L65 163.198L72.1426 162.942L71.9474 144.115L79.943 143.869L79.9019 103.028C82.5226 102.14 85.0611 102.14 87.7845 103.006V136.295L87.7948 142.778L87.4145 144.885L79.7889 144.746L79.8197 167.295L72.9134 167.52L72.8723 215.892C75.2361 215.806 77.1785 215.582 79.7992 216.32L79.9328 231.167L80.0561 239.95V248.25L86.9932 248.208L87.9695 248.336C87.8359 249.748 86.9418 253.021 88.2573 254.487C89.5728 255.952 93.0978 255.375 94.6291 254.391L94.8963 248.389L106.407 248.443L106.951 254.615L148.615 254.69L149.365 254.733C149.006 257.022 148.595 259.407 149.304 262.264L185.284 262.21L185.603 255.642L196.25 255.364C196.815 252.743 196.599 250.572 196.538 248.325C196.867 248.154 197.483 248.218 197.812 248.218L207.134 248.122L208.007 248.304L207.76 262.413C210.802 263.162 213.022 262.756 215.283 262.317L215.427 263.194L215.314 269.677C215.304 270.35 215.53 270.853 216.219 270.853H232.272L232.374 263.109L232.6 262.071L248.828 262.413L248.623 256.819C248.581 255.781 249.177 255.107 249.63 254.818C250.082 254.53 250.914 254.669 251.315 254.615L254.306 254.722C254.933 254.733 256.176 254.84 256.505 253.717C257.317 250.989 256.505 248.464 256.495 246.304L256.402 239.81L265.097 239.736V212.522L256.515 212.127L256.392 204.457H248.191C248.571 201.333 248.756 198.969 248.139 196.252L240.36 196.231L240.103 188.54L231.973 188.294C232.333 186.325 232.929 182.4 231.521 181.287C229.271 179.522 225.715 180.635 223.608 180.442C223.885 177.458 224.019 175.874 223.433 173.222L208.963 173.179C208.315 170.868 208.541 168.654 208.531 165.477L193.146 165.348L192.612 157.775L175.778 157.443L175.86 136.081L175.942 114.73L168.995 114.431L168.851 109.382L168.82 101.819L160.588 101.434L160.64 94.3309L146.313 94.224C146.19 91.5283 146.663 89.068 145.851 86.5114L104.742 86.6612L104.269 94.3844L96.2015 94.47L95.9652 101.915C93.1595 102.397 90.8574 102.375 88.1031 101.99L88.1237 94.3737L96.1707 94.1919C96.0268 92.3841 95.2971 88.7364 96.5407 87.3886C98.3495 85.9017 101.751 86.7147 104.177 86.8109L104.444 78.5742H147.238L147.176 78.6277Z" fill="#F1F2F3"/>
<path d="M87.754 142.789L87.7231 136.306L90.6521 136.028C93.5811 139.761 96.9623 143.409 96.3354 146.907C99.7475 147.452 102.759 147.431 106.335 146.789L107.096 141.28C108.658 141.676 110.837 141.911 111.69 141.344C112.625 140.735 112.337 137.9 112.049 136.766C111.761 135.632 108.894 135.515 107.147 136.36C106.058 133.953 106.273 131.706 106.859 129.128L122.049 129.161C122.696 131.353 123.149 134.605 121.833 135.953C120.384 135.857 118.164 135.857 117.64 136.777C117.178 137.6 117.136 140.007 117.702 140.82C118.246 141.59 120.23 141.869 121.833 141.398C122.645 143.184 122.522 144.639 122.738 146.853C126.355 147.495 129.294 147.431 132.686 146.885C132.758 144.693 132.706 143.655 133.323 141.623C134.947 142.222 137.588 142.061 138.215 140.542C138.801 139.109 137.958 136.691 138.78 136.36C139.757 135.964 141.925 136.092 142.757 136.456C143.682 136.862 143.909 139.002 143.641 139.986C143.199 141.569 141.134 142.329 138.832 141.355C137.763 143.505 138.359 145.441 138.246 147.688C136.303 147.442 134.7 147.506 133.847 148.116C133.117 148.64 132.809 150.694 133.159 152.619C128.411 153.56 123.734 153.175 119.017 151.592L116.283 144.896C115.605 143.238 115.307 142.831 113.971 142.81C112.532 142.788 112.614 144.297 112.306 145.655C111.885 147.484 109.131 147.731 107.414 147.099L106.664 152.951L96.0168 152.566C96.3765 150.651 96.3663 148.019 95.4927 147.838L91.2174 146.939C90.5905 146.811 91.053 143.987 90.7652 143.259C90.3541 142.2 88.8947 142.093 87.7231 142.81L87.754 142.789Z" fill="#672529"/>
<path d="M196.743 245.191C197.483 246.015 197.801 247.127 197.76 248.25C197.431 248.25 196.815 248.186 196.486 248.357C193.454 249.93 190.124 248.892 186.281 249.395C185.16 249.545 184.76 253.128 185.047 254.743L149.324 254.765L148.574 254.722C148.676 252.904 149.118 249.705 147.741 248.133C146.261 246.443 143.569 247.716 142.15 247.748L141.863 239.179C140.342 238.901 139.242 238.709 138.132 237.714C138.543 233.702 137.063 228.932 138.564 225.284C139.55 222.877 141.904 221.133 140.393 217.347L150.218 217.561C150.095 219.86 150.012 221.54 150.609 223.797L164.627 223.84L164.904 231.263L171.79 231.531L172.036 239.479L179.96 239.843L180.32 248.197L193.66 247.352C195.325 247.245 196.414 246.368 196.763 245.191H196.743Z" fill="#672529"/>
<path d="M255.18 239.768L256.341 239.853L256.434 246.346L249.014 246.657C248.798 249.342 249.353 252.444 248.356 254.883C243.464 256.947 238.665 254.851 233.886 255.032C231.861 255.877 232.231 260.531 232.56 262.114L232.334 263.151L215.387 263.237L215.243 262.36C214.585 258.295 216.178 253.396 214.503 249.106C213.136 247.609 209.457 248.646 207.967 248.347L207.093 248.165C207.258 246.015 207.381 243.79 206.682 241.287L196.754 240.934C196.621 240.335 197.073 239.907 197.772 239.907L207.206 239.789L207.7 233.071C209.734 232.793 212.119 232.9 213.763 231.734L214.688 229.017C214.945 228.279 216.795 228.065 218.912 228.515L219.621 218.449C219.703 217.272 223.28 217.293 223.29 218.31L223.413 229.67C220.042 229.445 219.559 231.595 218.388 233.66C217.915 234.494 215.5 234.409 214.924 235.168C214.349 235.928 214.452 239.468 215.428 239.479L255.201 239.778L255.18 239.768Z" fill="#672529"/>
<path d="M87.3738 144.896L86.9935 168.258C83.9515 168.376 81.6802 167.659 79.1109 168.729L79.039 216.074C82.0707 216.309 84.1673 215.913 86.346 216.812L86.4591 230.451C84.2392 230.044 82.0193 230.397 79.892 231.189L79.7584 216.341C77.1377 215.603 75.1953 215.828 72.8315 215.914L72.8726 167.542L79.7789 167.317L79.7481 144.768L87.3738 144.907V144.896Z" fill="#031F40"/>
<path d="M256.342 239.843L256.229 213.186L249.045 213.057C247.647 210.736 248.171 207.848 248.336 204.617L240.134 204.446L239.826 196.873L232.087 196.605L231.882 188.668L223.547 188.593L222.149 180.956L208.193 180.784C208.84 178.271 208.501 173.425 205.953 173.35L192.253 172.901L191.38 165.98L175.923 165.83C174.71 163.092 175.717 160.086 175.727 157.476L192.561 157.807L193.096 165.381L208.481 165.509C208.481 168.686 208.265 170.9 208.912 173.211L223.383 173.254C223.958 175.907 223.835 177.49 223.557 180.474C225.654 180.667 229.22 179.554 231.471 181.319C232.879 182.432 232.283 186.358 231.923 188.326L240.052 188.572L240.309 196.263L248.089 196.284C248.706 199.001 248.521 201.365 248.14 204.489H256.342L256.465 212.159L265.026 212.555V239.768L256.342 239.843Z" fill="#031F40"/>
<path d="M105.421 240.089C105.781 241.565 106.49 244.186 106.335 245.748C106.274 246.389 106.407 248.358 107.343 248.347L142.131 247.748C143.549 247.727 146.242 246.454 147.722 248.133C149.109 249.706 148.667 252.904 148.554 254.722L106.89 254.648L106.346 248.475L94.8353 248.422L94.5681 254.423C93.0368 255.418 89.5117 255.974 88.1962 254.519C86.8808 253.064 87.7749 249.78 87.9085 248.368L94.9997 248.208L95.8116 240.26L105.39 240.1L105.421 240.089Z" fill="#031F40"/>
<path d="M86.4489 230.451C86.4181 231.199 86.6236 232.151 87.0347 232.569C87.8261 233.371 89.2443 233.478 90.1384 233.328L90.5598 240.26L95.277 240.121L94.9584 232.547C95.5237 232.184 96.0478 232.611 96.0273 233.392L95.832 240.238L95.0201 248.186L87.9289 248.347L86.9525 248.218C87.045 246.015 87.1786 243.768 86.5825 241.169L80.0154 239.96L79.8921 231.178C82.0195 230.386 84.2393 230.033 86.4592 230.44L86.4489 230.451Z" fill="#672529"/>
<path d="M188.613 203.633C187.195 204.36 183.505 204.992 182.2 203.59C180.689 201.975 181.193 198.402 181.398 196.359L188.366 195.963L188.859 189.064L194.892 188.967L195.776 182.378C197.667 181.704 201.079 181.276 202.189 182.592C203.515 184.175 203.032 187.416 202.621 189.449L195.766 189.609L195.509 196.894L189.003 197.418C188.325 198.605 188.212 200.766 188.633 203.622L188.613 203.633Z" fill="#672529"/>
<path d="M175.809 136.124L169.118 135.964L168.943 114.463L175.891 114.773L175.809 136.124Z" fill="#031F40"/>
<path d="M202.755 212.876C199.909 213.806 197.617 213.614 194.955 213.09L195.006 205.837L201.738 205.259L202.735 198.189C205.335 197.707 207.411 197.836 209.631 198.285C209.816 201.184 209.898 203.195 209.271 205.709C207.154 205.227 204.441 204.746 202.982 206.051C201.913 207.014 202.005 210.137 202.755 212.876Z" fill="#672529"/>
<path d="M144.617 115.148C141.709 114.313 136.169 114.057 133.415 114.998C132.572 115.34 133.127 118.699 132.593 119.427C131.925 120.336 129.376 120.539 128.41 119.983C127.382 119.394 127.578 117.169 127.711 116.26C127.917 114.827 130.167 113.885 132.243 114.966C133.487 112.965 133.035 111.126 133.549 108.858C137.392 108.601 141.554 108.858 144.987 109.735C145.419 116.207 150.28 112.677 150.372 117.469C150.424 120.058 149.262 120.293 146.858 120.122C144.874 119.983 143.959 118.71 144.627 115.158L144.617 115.148Z" fill="#672529"/>
<path d="M207.082 248.154L197.761 248.251C197.802 247.128 197.483 246.026 196.743 245.191V240.913L206.661 241.266C207.36 243.769 207.236 245.994 207.072 248.144L207.082 248.154Z" fill="#031F40"/>
<path d="M101.268 114.763C101.268 114.549 101.268 114.099 101.155 113.843C100.59 112.591 100.641 109.286 102.512 108.922C105.852 108.269 108.997 109.189 112.316 109.5L112.409 114.709L101.268 114.763Z" fill="#672529"/>
<path d="M208.595 188.192L208.535 196.236L215.184 196.29L215.245 188.246L208.595 188.192Z" fill="#672529"/>
<path d="M94.9675 232.558L95.2861 240.132L90.5688 240.271L90.1475 233.339L94.9675 232.558Z" fill="#031F40"/>
<path d="M138.852 170.152C137.65 169.296 137.856 165.071 139.089 164.065C140.322 163.06 143.59 163.477 143.765 164.568C144.001 166.002 143.806 167.767 143.498 169.104C143.189 170.441 140.785 171.147 138.852 170.152Z" fill="#D1AC80"/>
<path d="M256.341 239.842L255.179 239.757L254.953 213.924C252.117 214.651 249.876 214.458 249.034 213.057L256.217 213.185L256.33 239.842H256.341Z" fill="#D1AC80"/>
<path d="M122.39 158.481L116.984 158.512L117.011 163.657L122.417 163.626L122.39 158.481Z" fill="#D1AC80"/>
<path d="M101.155 113.842C101.268 114.099 101.258 114.548 101.268 114.762C101.33 116.185 101.608 118.324 101.001 119.49C100.487 120.485 97.4967 120.635 96.6334 119.94C95.7084 119.191 95.914 116.399 96.1915 114.431L101.155 113.853V113.842Z" fill="#672529"/>
<path d="M219.903 195.052L216.515 195.205L216.915 204.834L220.304 204.681L219.903 195.052Z" fill="#672529"/>
<path d="M112.35 114.393L112.222 120.028L117.421 120.156L117.549 114.52L112.35 114.393Z" fill="#672529"/>
<path d="M152.603 148.223H147.979V153.207H152.603V148.223Z" fill="#D1AC80"/>
<path d="M101.194 163.699L97.3398 163.731L97.3777 168.641L101.232 168.609L101.194 163.699Z" fill="#D1AC80"/>
<path d="M106.345 245.748C106.499 244.186 105.78 241.554 105.43 240.089C107.116 240.068 108.308 245.095 106.345 245.748Z" fill="#672529"/>
<path d="M86.9523 248.24L79.9946 248.283V239.982L86.572 241.191C87.1681 243.79 87.0448 246.036 86.942 248.24H86.9523Z" fill="#031F40"/>
<path d="M256.433 246.347C256.444 248.507 257.256 251.032 256.444 253.76C256.105 254.883 254.861 254.776 254.244 254.765C254.152 253.984 253.432 253.728 252.672 253.781C252.086 253.824 251.624 254.241 251.254 254.658C250.853 254.701 250.041 254.562 249.568 254.862C249.096 255.161 248.53 255.824 248.561 256.862L248.767 262.456L232.539 262.114C232.22 260.531 231.85 255.878 233.865 255.033C238.644 254.851 243.443 256.958 248.335 254.883C249.342 252.444 248.777 249.353 248.993 246.657L256.413 246.347H256.433Z" fill="#031F40"/>
<path d="M254.245 254.754L251.254 254.647C251.635 254.23 252.097 253.813 252.673 253.77C253.423 253.716 254.153 253.973 254.245 254.754Z" fill="#672529"/>
<path d="M196.487 248.358C196.549 250.594 196.754 252.776 196.199 255.397L185.552 255.675L185.233 262.243L149.253 262.296C148.544 259.44 148.965 257.055 149.315 254.765L185.038 254.744C184.75 253.118 185.151 249.545 186.271 249.396C190.125 248.893 193.445 249.92 196.477 248.358H196.487Z" fill="#031F40"/>
<path d="M232.322 263.141L232.22 270.875L216.167 270.885L215.272 269.709L215.375 263.226L232.322 263.141Z" fill="#031F40"/>
<path d="M215.242 262.35C212.97 262.788 210.761 263.195 207.719 262.446L207.965 248.337C209.466 248.647 213.135 247.609 214.502 249.096C216.177 253.375 214.584 258.285 215.242 262.35Z" fill="#031F40"/>
<path d="M216.167 270.886C215.489 270.886 215.253 270.383 215.263 269.709L216.167 270.886Z" fill="#672529"/>
<path d="M90.8268 136.006L87.7437 136.541V101.776H95.9654V94.2881H105.729V102.311L97.507 103.381L96.4793 109.264L91.3407 109.799L90.8268 136.006Z" fill="#031F40"/>
<path d="M103.673 94.8228L104.701 86.2651H146.323V94.2879H160.711V101.241L168.933 101.776V109.799H159.684V102.311H145.295V94.8228H103.673Z" fill="#031F40"/>
</svg>
