<svg width="300" height="300" viewBox="0 0 300 300" fill="none" xmlns="http://www.w3.org/2000/svg">
<path d="M74.0704 258.948L74.0032 267.032L66.3563 267.116C65.8011 267.066 65.3721 267.579 65.6918 268.1L65.7507 283.411L74.062 283.529L82.3734 283.63L82.3398 291.672L90.3567 291.756L90.3062 298.402C90.6343 299.007 90.811 299.579 90.7605 299.983H82.3566L81.9276 296.13L74.9285 295.785C74.3481 294.364 74.3901 293.354 74.4574 291.975L65.9778 291.781L65.6161 283.478L49.5654 283.554L49.3971 291.63L33.4221 292.008C33.1614 295.281 33.195 297.653 33.624 299.966L0 300L0.319668 291.764L24.6986 291.815L24.8247 283.621L16.4293 283.579L16.4545 275.276L24.9089 275.419L24.9425 283.554L33.1193 283.571L33.1445 275.293L49.4392 275.167L49.5065 267.209L57.6748 267.158L57.8347 258.864L74.0704 258.939V258.948Z" fill="#F0F1F2"/>
<path d="M49.5315 258.855L49.5063 267.217L41.2877 267.116L41.2793 259.024L49.5315 258.855Z" fill="#F0F1F2"/>
<path d="M57.8344 258.872L49.5317 258.855L49.498 250.754L57.725 250.771L57.8344 258.872Z" fill="#F0F1F2"/>
<path d="M82.3562 299.983L33.6153 299.966C33.1863 297.661 33.1526 295.281 33.4134 292.008L49.3884 291.63L49.5566 283.554L65.6073 283.478L65.969 291.781L74.4487 291.975C74.3814 293.354 74.3393 294.364 74.9198 295.785L81.9188 296.13L82.3478 299.983H82.3562Z" fill="#C0BEC1"/>
<path d="M300 299.992H283.218L283.15 293.304C283.092 292.311 282.427 291.781 281.476 291.79L268.034 291.764L266.755 291.571L266.704 283.596L258.544 283.461L258.469 276.387C258.519 275.73 259.192 275.428 259.638 275.461H274.763L274.898 267.697L274.326 267.116H266.704V259.049H274.738L274.805 266.788L275.251 267.167L283.1 267.284L283.176 275.343L274.772 275.402L274.831 283.537L291.268 283.579L291.369 291.748L299.706 291.79C299.622 294.835 299.403 297.443 300 299.975V299.992Z" fill="#F0F1F2"/>
<path d="M258.409 291.461C261.126 291.975 264.012 291.865 266.754 291.571L268.033 291.764L281.476 291.79C282.418 291.781 283.091 292.311 283.15 293.304L283.217 300H242.03V291.882L258.014 291.739C258.14 291.613 258.274 291.52 258.409 291.47V291.461Z" fill="#C0BEC1"/>
<path d="M250.435 283.655L258.511 283.84L258.41 291.462C258.276 291.512 258.15 291.605 258.015 291.731L242.032 291.874V300L226.099 299.975C225.485 297.417 225.527 294.616 225.947 291.764H242.082L242.048 283.63L250.427 283.655H250.435Z" fill="#F0F1F2"/>
<path d="M65.7002 268.109C65.3806 267.587 65.8096 267.074 66.3648 267.125C66.533 267.663 66.2049 268.117 65.7002 268.109Z" fill="#615963"/>
<path d="M233.735 242.931C233.701 243.309 233.811 243.848 233.962 244.504V259.107L242.097 258.973L242.131 267.183L250.299 267.2L250.223 281.535C250.148 282.443 250.24 283.125 250.434 283.663L242.055 283.638L242.089 291.756H225.954C225.533 294.624 225.491 297.426 226.105 299.983L90.7678 300C90.8183 299.596 90.6416 299.016 90.3135 298.418L90.364 291.773L82.3471 291.688L82.3807 283.646L74.0693 283.545L74.1366 267.242L82.1452 267.183L82.3555 258.973L90.4145 258.864L102.604 258.922L102.772 267.175L119 267.267L119.126 275.368L175.909 275.537L176.506 275.192L176.91 267.192L209.247 267.166L209.424 259.04L217.659 258.981L217.617 250.754L225.777 250.519L225.903 242.678L233.735 242.947V242.931ZM176.994 275.621L176.557 276.193L176.885 283.503L184.355 283.444C184.742 280.677 184.935 278.094 184.363 275.352L176.994 275.612V275.621ZM176.439 283.764L168.279 283.798L168.313 291.781L176.472 291.747L176.439 283.764Z" fill="#615963"/>
<path d="M259.637 275.461C259.199 275.428 258.518 275.739 258.467 276.387L258.543 283.461L266.703 283.596L266.754 291.571C264.011 291.865 261.126 291.983 258.409 291.461L258.51 283.84L250.434 283.655C250.24 283.125 250.148 282.435 250.223 281.526L250.299 267.192L242.131 267.175L242.097 258.965L233.971 259.099V244.495C233.811 243.839 233.702 243.301 233.735 242.922L233.769 234.518L225.676 234.392L225.701 226.148L217.558 226.35L209.297 226.232L209.163 218.114H152.111L151.959 226.157L135.698 226.333L135.723 234.51L119.134 234.401L119.042 242.695L102.89 242.645L102.798 250.796H92.4083C91.1381 250.628 90.2211 251.646 90.4819 252.908L90.4146 258.838L82.3556 258.948L82.1453 267.158L74.1368 267.217L74.0695 283.52L65.7581 283.402L65.6992 268.092C66.204 268.092 66.532 267.646 66.3638 267.108L74.0106 267.024L74.0779 258.939L82.2294 258.721L82.3977 250.527L89.8089 250.3L90.0529 243.839C90.524 243.385 91.0203 243.023 91.5755 242.746H102.461L102.638 234.476L118.327 234.35C118.747 232.92 118.789 231.717 118.571 230.245C119.294 228.941 119.412 227.679 119.378 226.106L135.227 225.946L135.404 219.343C135.463 218.644 135.757 218.182 136.38 217.719L151.143 217.576L151.337 211.73C151.194 210.686 151.606 210.005 152.094 209.626C152.472 209.408 153.002 209.248 153.835 209.29H207.279C207.851 209.971 208.355 210.131 209.356 210.064C209.121 212.066 209.096 213.454 210.198 215.145C209.567 216.18 209.97 217.273 210.896 217.685L224.389 217.66C225.012 217.786 225.491 218.14 225.929 218.661L226.063 225.972L233.634 226.106L233.718 234.375L242.047 234.51L242.122 258.721L250.35 258.796L250.459 267.167L258.737 267.276L259.014 273.594L259.645 275.436L259.637 275.461Z" fill="#300F0D"/>
<path d="M217.559 226.35L217.627 234.325L225.669 234.392L233.762 234.518L233.728 242.922L225.896 242.653L225.77 250.493L217.61 250.729L217.652 258.956L209.416 259.015L209.24 267.141L176.903 267.167L176.499 275.167L176.995 275.613L184.364 275.352C184.936 278.094 184.743 280.677 184.356 283.445L176.886 283.503L176.558 276.193C176.213 276.084 175.994 275.857 175.902 275.512L119.118 275.343L118.992 267.242L102.765 267.15L102.597 258.897L90.4072 258.839L90.4745 252.908C90.2137 251.646 91.1391 250.628 92.4009 250.796H102.79L102.883 242.645L119.034 242.695L119.127 234.401L135.716 234.51L135.691 226.333L151.952 226.157L152.103 218.098H209.155L209.29 226.224L217.551 226.342L217.559 226.35Z" fill="#95847C"/>
<path d="M176.443 283.753L168.283 283.786L168.315 291.769L176.475 291.736L176.443 283.753Z" fill="#95847C"/>
<path d="M225.668 234.392L217.626 234.325L217.559 226.35L225.701 226.148L225.668 234.392Z" fill="#615963"/>
<path d="M145.624 101.788L159.92 101.851L160.238 108.912L168.83 109.404L168.8 109.415L168.943 114.463L169.118 135.964L175.809 136.125L175.727 157.487C175.727 160.097 174.709 163.114 175.922 165.841L191.379 165.991L192.252 172.912L205.951 173.361C208.5 173.447 208.829 178.282 208.192 180.795L222.148 180.966L223.546 188.604L231.881 188.679L232.087 196.617L239.825 196.883L240.134 204.458L248.335 204.628C248.171 207.859 247.647 210.736 249.044 213.068C249.876 214.469 252.127 214.662 254.964 213.935L255.189 239.768L215.417 239.468C214.441 239.468 214.338 235.917 214.913 235.158C215.489 234.399 217.904 234.484 218.377 233.65C219.548 231.585 220.032 229.435 223.402 229.66L223.279 218.299C223.269 217.294 219.694 217.262 219.61 218.438L218.9 228.504C216.794 228.066 214.934 228.269 214.677 229.007L213.752 231.724C212.108 232.89 209.713 232.783 207.688 233.061L207.195 239.779L197.761 239.896C197.062 239.896 196.61 240.324 196.743 240.923V245.203C196.404 246.379 195.314 247.256 193.649 247.363L180.31 248.208L179.95 239.854L172.026 239.49L171.78 231.542L164.895 231.275L164.617 223.851L150.599 223.808C150.003 221.551 150.085 219.882 150.208 217.572L140.383 217.358C141.894 221.145 139.54 222.878 138.554 225.295C137.053 228.943 138.523 233.714 138.122 237.725C139.232 238.72 140.332 238.913 141.853 239.191L142.141 247.759L107.353 248.358C106.407 248.379 106.283 246.4 106.345 245.758C108.307 245.095 107.116 240.069 105.431 240.1L95.8516 240.26L96.0469 233.415C96.0673 232.634 95.5436 232.206 94.9785 232.569L90.1582 233.35C89.2641 233.5 87.8459 233.393 87.0547 232.59C86.6437 232.173 86.4276 231.221 86.4688 230.472L86.3555 216.833C84.1666 215.946 82.07 216.331 79.0488 216.095L79.1211 168.75C81.7003 167.681 83.9613 168.397 87.0029 168.28L87.3838 144.917L87.6855 143.24C85.7529 142.665 86.6903 139.247 87.7637 136.5C89.4996 135.763 89.5005 136.36 90.6934 136.029L90.9092 109.5C93.0978 109.307 94.5366 109.531 96.376 108.515C95.924 106.226 96.438 103.488 97.8047 102.792C99.1716 102.097 101.31 102.836 103.057 102.397C105.307 101.83 105.862 98.2244 105.102 94.6519L145.46 94.2886L145.624 101.788ZM209.631 198.285C207.411 197.835 205.324 197.708 202.734 198.189L201.738 205.259L195.006 205.837L194.955 213.089C197.617 213.613 199.908 213.806 202.755 212.875C202.005 210.137 201.913 207.014 202.981 206.051C204.441 204.746 207.154 205.227 209.271 205.708C209.898 203.206 209.816 201.183 209.631 198.285ZM216.517 195.205L216.917 204.842L220.299 204.693L219.897 195.054L216.517 195.205ZM202.17 182.603C201.06 181.287 197.648 181.726 195.757 182.389L194.873 188.979L188.84 189.075L188.347 195.974L181.379 196.371C181.163 198.414 180.67 201.975 182.181 203.601C183.486 205.002 187.175 204.371 188.594 203.644L188.614 203.633C188.203 200.777 188.306 198.617 188.984 197.429L195.489 196.905L195.746 189.621L202.602 189.46C203.013 187.428 203.496 184.186 202.17 182.603ZM208.531 196.252L215.181 196.306L215.242 188.262L208.593 188.208L208.531 196.252Z" fill="#AD563C"/>
<path d="M106.968 123.425C106.968 123.693 106.818 124.164 106.861 124.41C106.39 125.362 105.46 126.742 104.229 126.7C102.998 126.657 102.046 125.437 101.372 124.592V123.5L106.979 123.436L106.968 123.425Z" fill="#031F40"/>
<path d="M106.958 117.894L106.968 123.426L101.372 123.49L101.533 118.043L106.958 117.894Z" fill="#F1F2F3"/>
<path d="M101.372 123.49V124.581L101.576 128.754L94 128.968L94.0107 123.404L101.372 123.49Z" fill="#F1F2F3"/>
<path d="M117.605 144.216C116.321 143.831 114.556 143.852 113.25 144.238C113.111 143.168 113.165 141.627 112.63 140.503C112.17 139.529 109.484 139.861 108.392 138.909C106.798 137.539 107.108 134.511 107.686 132.853L123.105 133.184C124.753 133.216 124.796 138.855 123.159 139.251C121.682 139.615 119.135 138.994 118.418 139.583C117.52 140.321 117.744 142.996 117.605 144.205V144.216Z" fill="#672529"/>
<path d="M107.556 148.86C111.687 148.817 117.968 149.951 122.494 148.56C124.046 147.587 121.349 144.655 119.691 144.826L123.949 144.965C123.981 147.094 123.799 148.678 124.869 150.775C127.17 149.844 129.684 150.337 130.219 151.867C130.701 153.236 130.455 155.205 129.342 155.986C128.454 156.596 125.907 156.8 124.837 156.168C123.906 155.633 124.72 152.38 123.81 151.139L107 150.861C107.342 153.429 107.203 155.697 106.187 156.243C105.053 156.853 102.913 156.757 102.474 155.944C102.035 155.13 101.8 151.888 102.656 151.471C104.346 150.636 106.315 149.577 107.556 148.86Z" fill="#0E1116"/>
<path d="M145.542 123.436C144.097 123.501 142.086 124.036 140.566 123.287C139.411 122.719 139.229 120.076 139.849 118.257C137.549 117.562 135.858 117.872 133.996 118.054L133.836 113.41L132.98 112.554C132.081 112.661 129.727 113.036 129.031 112.415C128.186 111.655 128.304 109.023 128.743 107.964C129.181 106.905 132.199 106.712 133.087 107.418C134.082 108.21 134.114 110.853 133.643 112.008L134.2 112.758C135.355 112.608 136.917 112.544 138.18 112.982C139.036 113.282 139.346 115.379 139.56 116.856L150.56 117.658C151.138 119.713 151.224 122.238 150.047 123.094C149.062 123.811 146.762 123.361 145.553 123.415L145.542 123.436Z" fill="#672529"/>
<path d="M117.604 144.216L119.68 144.837C121.338 144.665 124.024 147.597 122.483 148.571C117.957 149.962 111.676 148.817 107.546 148.871L106.989 146.003C107.888 145.96 108.658 145.553 109.086 144.815C110.563 145.018 111.879 144.644 113.238 144.248C114.597 143.852 116.309 143.841 117.593 144.227L117.604 144.216Z" fill="#031F40"/>
<path d="M145.542 123.436L146.077 128.519L139.432 128.626L139.828 123.511L134.51 123.554C134.135 121.82 134.071 119.851 134.007 118.054C135.869 117.872 137.559 117.562 139.86 118.257C139.239 120.076 139.421 122.719 140.577 123.286C142.096 124.024 144.108 123.5 145.552 123.436H145.542Z" fill="#F1F2F3"/>
<path d="M139.421 128.636C137.987 128.658 135.601 129.364 134.713 128.08C133.739 126.667 134.713 124.613 134.488 123.564L139.806 123.521L139.411 128.636H139.421Z" fill="#0E1116"/>
<path d="M106.957 117.894L101.532 118.054C101.586 116.471 101.062 115.154 101.95 112.897C103.084 113.528 106.658 113.089 106.647 111.795C106.626 109.408 106.722 107.579 108.466 107.151C109.686 106.851 111.698 106.947 112.179 107.985C112.586 108.852 112.65 111.281 112.168 112.116C111.687 112.95 109.397 113.186 107.685 112.597C106.529 114.427 106.947 116.224 106.957 117.904V117.894Z" fill="#672529"/>
<path d="M106.861 124.41C107.011 125.341 107.353 127.598 106.519 128.315C105.128 129.396 102.849 128.722 101.575 128.754L101.372 124.581C102.035 125.426 103.052 126.657 104.229 126.689C105.46 126.732 106.39 125.362 106.861 124.399V124.41Z" fill="#0E1116"/>
<path d="M147.176 78.6282L147.341 86.3514L161.369 86.5119L161.4 93.4543L169.396 93.4971L169.54 100.782L176.209 101.06L176.281 113.779L183.773 114.206L183.702 149.539L193.496 149.721C192.663 151.914 192.9 156.652 194.421 156.684L209.179 157.037L209.456 164.611L225.376 164.836L225.458 172.356L232.611 172.602L232.755 179.982L240.884 180.196L240.987 187.481L248.705 187.727L248.982 195.75L256.998 195.964L257.153 203.43L265.282 203.751C265.179 205.645 264.665 208.105 265.96 209.902C267.378 210.908 270.585 209.945 272.856 210.726L273 239.811L265.385 240.068L265.292 250.701L265.241 254.669L257.255 254.819L257.111 262.382C254.367 262.981 252.055 262.735 249.147 262.424L249.023 270.993L232.395 271.207L232.446 279.283L214.204 279.219C214.369 277.176 215.109 273.614 213.927 272.18C211.871 270.715 208.531 271.624 206.476 271.806L206.25 264.286C201.121 265.024 197.339 261.152 190.392 262.82L190.289 270.009H142.511L142.223 262.371H106.725C106.787 260.093 106.859 258.809 106.304 256.509L95.1327 256.809C94.4441 258.114 94.5058 260.478 94.7422 262.018L88.2059 262.157L87.8976 256.787L79.6347 256.83V248.764C76.6543 248.882 74.2906 249.107 71.8138 248.497C70.9916 239.544 71.8754 231.467 71.8343 222.792L65.1747 222.717L65 163.199L72.1426 162.942L71.9474 144.115L79.943 143.869L79.9019 103.028C82.5226 102.14 85.0611 102.14 87.7845 103.007V136.296L87.7948 142.778L87.4145 144.886L79.7889 144.747L79.8197 167.296L72.9134 167.52L72.8723 215.892C75.2361 215.807 77.1785 215.582 79.7992 216.32L79.9328 231.168L80.0561 239.95V248.251L86.9932 248.208L87.9695 248.337C87.8359 249.749 86.9418 253.022 88.2573 254.487C89.5728 255.953 93.0978 255.375 94.6291 254.391L94.8963 248.39L106.407 248.443L106.951 254.616L148.615 254.691L149.365 254.733C149.006 257.022 148.595 259.408 149.304 262.264L185.284 262.211L185.603 255.643L196.25 255.364C196.815 252.744 196.599 250.572 196.538 248.326C196.867 248.155 197.483 248.219 197.812 248.219L207.134 248.123L208.007 248.304L207.76 262.414C210.802 263.163 213.022 262.756 215.283 262.317L215.427 263.195L215.314 269.677C215.304 270.351 215.53 270.854 216.219 270.854H232.272L232.374 263.109L232.6 262.071L248.828 262.414L248.623 256.819C248.581 255.782 249.177 255.108 249.63 254.819C250.082 254.53 250.914 254.669 251.315 254.616L254.306 254.723C254.933 254.733 256.176 254.84 256.505 253.717C257.317 250.989 256.505 248.465 256.495 246.304L256.402 239.811L265.097 239.736V212.523L256.515 212.127L256.392 204.457H248.191C248.571 201.334 248.756 198.97 248.139 196.253L240.36 196.231L240.103 188.54L231.973 188.294C232.333 186.326 232.929 182.4 231.521 181.288C229.271 179.523 225.715 180.635 223.608 180.442C223.885 177.458 224.019 175.875 223.433 173.222L208.963 173.179C208.315 170.869 208.541 168.654 208.531 165.477L193.146 165.349L192.612 157.775L175.778 157.444L175.86 136.082L175.942 114.731L168.995 114.431L168.851 109.382L168.82 101.819L160.588 101.434L160.64 94.3314L146.313 94.2245C146.19 91.5288 146.663 89.0685 145.851 86.5119L104.742 86.6617L104.269 94.3849L96.2015 94.4705L95.9652 101.916C93.1595 102.397 90.8574 102.376 88.1031 101.991L88.1237 94.3742L96.1707 94.1924C96.0268 92.3846 95.2971 88.7369 96.5407 87.389C98.3495 85.9022 101.751 86.7152 104.177 86.8114L104.444 78.5747H147.238L147.176 78.6282Z" fill="#F1F2F3"/>
<path d="M196.743 245.192C197.483 246.015 197.802 247.128 197.761 248.251C197.432 248.251 196.815 248.187 196.486 248.358C193.455 249.93 190.125 248.893 186.281 249.395C185.161 249.545 184.76 253.129 185.048 254.744L149.324 254.765L148.574 254.723C148.677 252.904 149.119 249.706 147.742 248.133C146.262 246.443 143.569 247.716 142.151 247.748L141.863 239.18C140.342 238.902 139.242 238.709 138.132 237.714C138.544 233.703 137.064 228.932 138.564 225.284C139.551 222.878 141.904 221.134 140.393 217.347L150.218 217.561C150.095 219.861 150.013 221.54 150.609 223.797L164.627 223.84L164.905 231.264L171.79 231.531L172.037 239.479L179.961 239.843L180.32 248.197L193.66 247.352C195.325 247.245 196.414 246.368 196.764 245.192H196.743Z" fill="#672529"/>
<path d="M255.18 239.768L256.341 239.854L256.433 246.347L249.013 246.657C248.798 249.342 249.352 252.444 248.356 254.883C243.464 256.948 238.664 254.851 233.885 255.033C231.861 255.878 232.231 260.531 232.56 262.114L232.333 263.152L215.386 263.238L215.243 262.36C214.585 258.296 216.178 253.396 214.503 249.107C213.136 247.609 209.456 248.647 207.966 248.347L207.093 248.165C207.257 246.015 207.38 243.79 206.682 241.287L196.754 240.934C196.62 240.335 197.072 239.907 197.771 239.907L207.206 239.79L207.699 233.072C209.734 232.794 212.118 232.901 213.763 231.735L214.688 229.018C214.944 228.28 216.794 228.066 218.911 228.515L219.621 218.449C219.703 217.272 223.279 217.294 223.29 218.31L223.413 229.67C220.042 229.446 219.559 231.596 218.387 233.66C217.915 234.495 215.499 234.409 214.924 235.169C214.348 235.928 214.451 239.469 215.427 239.479L255.2 239.779L255.18 239.768Z" fill="#672529"/>
<path d="M87.3733 144.896L86.993 168.259C83.951 168.376 81.6797 167.66 79.1104 168.729L79.0385 216.074C82.0702 216.31 84.1668 215.914 86.3456 216.813L86.4586 230.451C84.2387 230.045 82.0189 230.398 79.8915 231.189L79.7579 216.342C77.1372 215.604 75.1948 215.828 72.8311 215.914L72.8722 167.542L79.7784 167.317L79.7476 144.768L87.3733 144.907V144.896Z" fill="#031F40"/>
<path d="M256.342 239.843L256.229 213.186L249.045 213.058C247.647 210.737 248.171 207.848 248.336 204.618L240.134 204.447L239.826 196.873L232.087 196.606L231.882 188.669L223.547 188.594L222.149 180.956L208.193 180.785C208.84 178.271 208.501 173.425 205.953 173.35L192.253 172.901L191.38 165.98L175.923 165.83C174.71 163.092 175.717 160.086 175.727 157.476L192.561 157.808L193.096 165.381L208.481 165.51C208.481 168.687 208.265 170.901 208.912 173.211L223.383 173.254C223.958 175.907 223.835 177.49 223.557 180.475C225.654 180.667 229.22 179.555 231.471 181.32C232.879 182.432 232.283 186.358 231.923 188.326L240.052 188.572L240.309 196.263L248.089 196.285C248.706 199.002 248.521 201.366 248.14 204.489H256.342L256.465 212.159L265.026 212.555V239.768L256.342 239.843Z" fill="#031F40"/>
<path d="M105.42 240.089C105.78 241.566 106.489 244.186 106.335 245.748C106.273 246.39 106.407 248.358 107.342 248.347L142.13 247.748C143.549 247.727 146.241 246.454 147.721 248.134C149.109 249.706 148.667 252.904 148.554 254.723L106.89 254.648L106.345 248.476L94.8348 248.422L94.5676 254.423C93.0363 255.418 89.5112 255.974 88.1958 254.52C86.8803 253.065 87.7744 249.781 87.908 248.369L94.9993 248.208L95.8112 240.261L105.389 240.1L105.42 240.089Z" fill="#031F40"/>
<path d="M86.4494 230.451C86.4186 231.2 86.6241 232.152 87.0352 232.569C87.8266 233.371 89.2448 233.478 90.1389 233.329L90.5603 240.26L95.2775 240.121L94.9589 232.548C95.5242 232.184 96.0483 232.612 96.0278 233.393L95.8325 240.239L95.0206 248.187L87.9293 248.347L86.953 248.219C87.0455 246.015 87.1791 243.769 86.583 241.17L80.0159 239.961L79.8926 231.179C82.02 230.387 84.2398 230.034 86.4597 230.44L86.4494 230.451Z" fill="#672529"/>
<path d="M188.613 203.634C187.195 204.361 183.505 204.992 182.2 203.591C180.689 201.976 181.193 198.403 181.398 196.36L188.366 195.964L188.859 189.064L194.892 188.968L195.776 182.379C197.667 181.705 201.079 181.277 202.189 182.593C203.515 184.176 203.032 187.417 202.621 189.449L195.766 189.61L195.509 196.894L189.003 197.419C188.325 198.606 188.212 200.767 188.633 203.623L188.613 203.634Z" fill="#672529"/>
<path d="M175.809 136.125L169.118 135.964L168.943 114.463L175.891 114.774L175.809 136.125Z" fill="#031F40"/>
<path d="M202.755 212.876C199.909 213.807 197.617 213.614 194.955 213.09L195.006 205.838L201.738 205.26L202.735 198.189C205.335 197.708 207.411 197.836 209.631 198.285C209.816 201.184 209.898 203.195 209.271 205.709C207.154 205.228 204.441 204.746 202.982 206.051C201.913 207.014 202.005 210.138 202.755 212.876Z" fill="#672529"/>
<path d="M207.082 248.155L197.761 248.251C197.802 247.128 197.483 246.026 196.743 245.192V240.913L206.661 241.266C207.36 243.769 207.236 245.994 207.072 248.144L207.082 248.155Z" fill="#031F40"/>
<path d="M208.596 188.192L208.535 196.236L215.184 196.291L215.245 188.247L208.596 188.192Z" fill="#672529"/>
<path d="M94.9675 232.559L95.2861 240.132L90.5688 240.271L90.1475 233.339L94.9675 232.559Z" fill="#031F40"/>
<path d="M256.341 239.843L255.18 239.757L254.954 213.924C252.117 214.651 249.877 214.459 249.034 213.058L256.218 213.186L256.331 239.843H256.341Z" fill="#D1AC80"/>
<path d="M219.903 195.052L216.515 195.205L216.915 204.834L220.304 204.681L219.903 195.052Z" fill="#672529"/>
<path d="M106.345 245.748C106.499 244.186 105.78 241.555 105.431 240.089C107.116 240.068 108.308 245.096 106.345 245.748Z" fill="#672529"/>
<path d="M86.9518 248.241L79.9941 248.283V239.982L86.5715 241.191C87.1676 243.791 87.0443 246.037 86.9415 248.241H86.9518Z" fill="#031F40"/>
<path d="M256.433 246.347C256.444 248.508 257.256 251.032 256.444 253.76C256.105 254.883 254.861 254.776 254.244 254.766C254.152 253.985 253.432 253.728 252.672 253.782C252.086 253.824 251.624 254.242 251.254 254.659C250.853 254.702 250.041 254.562 249.568 254.862C249.096 255.162 248.53 255.825 248.561 256.862L248.767 262.457L232.539 262.115C232.22 260.531 231.85 255.878 233.865 255.033C238.644 254.851 243.443 256.959 248.335 254.883C249.342 252.444 248.777 249.353 248.993 246.657L256.413 246.347H256.433Z" fill="#031F40"/>
<path d="M254.246 254.755L251.255 254.648C251.635 254.23 252.098 253.813 252.673 253.77C253.423 253.717 254.153 253.974 254.246 254.755Z" fill="#672529"/>
<path d="M196.487 248.358C196.549 250.594 196.755 252.776 196.2 255.397L185.552 255.675L185.234 262.243L149.253 262.297C148.544 259.441 148.966 257.055 149.315 254.766L185.039 254.745C184.751 253.119 185.152 249.546 186.272 249.396C190.126 248.893 193.445 249.92 196.477 248.358H196.487Z" fill="#031F40"/>
<path d="M232.322 263.141L232.22 270.875L216.167 270.886L215.272 269.709L215.375 263.227L232.322 263.141Z" fill="#031F40"/>
<path d="M215.242 262.35C212.97 262.789 210.761 263.195 207.719 262.446L207.965 248.337C209.466 248.647 213.135 247.61 214.502 249.097C216.177 253.375 214.584 258.285 215.242 262.35Z" fill="#031F40"/>
<path d="M216.167 270.886C215.489 270.886 215.253 270.383 215.263 269.709L216.167 270.886Z" fill="#672529"/>
<path d="M90.8273 136.007L87.7441 136.542V101.776H95.9659V94.2886H105.729V102.311L97.5075 103.381L96.4798 109.264L91.3412 109.799L90.8273 136.007Z" fill="#031F40"/>
<path d="M103.673 94.8232L104.701 86.2656H146.323V94.2884H160.711V101.241L168.933 101.776V109.799H159.684V102.311H145.295V94.8232H103.673Z" fill="#031F40"/>
<path d="M131.946 162.545L131.914 162.946L110.498 163C109.886 161.159 109.746 159.2 110.606 157.219C112.195 157.619 114.3 157.543 115.02 156.861C115.739 156.179 115.804 154.079 115.492 152.097L132 152L131.946 162.545Z" fill="#AD563C"/>
<path d="M236.671 82.2873L236.146 101.986C234.124 101.494 232.102 101.655 231.503 102.382C231.053 102.928 231.663 104.95 231.289 106.106C230.85 107.443 227.907 107.497 226.334 106.973L226.217 114.238L226.506 139.009C225.115 139.929 219.615 140.304 219.197 138.399L219.176 116.603L218.994 106.801C216.918 107.411 214.489 107.155 214.468 106.341L214.35 102.639C214.297 100.756 210.434 101.366 209.043 101.601L209 79.3126C211.226 78.9916 213.045 79.0451 214.81 79.3126L215.024 95.3308C215.399 96.4543 219.39 96.4864 219.797 95.3629L219.978 79.3982L225.5 79.4517L225.831 95.4057C225.853 96.572 230.368 96.5934 230.39 95.4271L230.7 79.2377C232.968 78.9702 234.274 78.9381 235.74 79.4303C236.639 79.7299 236.328 81.5169 236.649 82.298L236.671 82.2873Z" fill="#F1F2F3"/>
<path d="M263.121 79.3128C263.25 82.4052 264.095 86.3322 263.239 89.7241C261.794 95.4916 262.961 100.531 262.993 106.235L263.175 139.287L252.731 139.587C252.795 139.17 252.838 138.292 252.592 138.003V136.848V124.125C252.592 122.317 252.849 120.081 252.239 117.919C251.683 117.149 249.286 117.299 248.58 117.62L247.231 112.376L246.964 90.7406C249.083 90.837 251.158 89.9916 251.212 88.4401L251.34 84.3633C253.577 85.0696 256.016 85.0909 257.054 83.9888C257.739 83.2505 257.193 80.4899 257.386 79.5696C258.927 78.4889 261.666 79.27 263.132 79.3128H263.121Z" fill="#F1F2F3"/>
<path d="M226.216 114.239L226.334 106.973C227.917 107.498 230.86 107.444 231.288 106.107C231.662 104.951 231.052 102.918 231.502 102.383C232.101 101.655 234.123 101.506 236.146 101.987L236.67 82.2881C238.799 88.3337 238.179 99.6545 236.392 107.38C234.648 107.327 232.775 107.958 232.657 108.792L232.154 112.088C230.838 113.822 227.906 113.779 226.216 114.239Z" fill="#0E1116"/>
<path d="M252.732 139.587L263.175 139.287L262.993 106.234C262.961 100.531 261.795 95.4912 263.239 89.7238C264.095 86.3318 263.25 82.4049 263.121 79.3125C264.288 79.3446 264.652 79.8475 264.587 81.2385L264.373 136.826L263.218 145.354C259.89 145.504 256.145 146.06 252.732 145.065C251.298 144.627 251.769 140.464 252.742 139.587H252.732Z" fill="#0E1116"/>
<path d="M252.603 124.114C251.394 123.547 249.318 123.472 247.842 122.317C246.59 121.332 247.403 118.411 248.58 117.609C249.297 117.288 251.683 117.138 252.239 117.908C252.86 120.07 252.592 122.306 252.592 124.114H252.603Z" fill="#0E1116"/>
</svg>
