<svg width="311" height="307" viewBox="0 0 311 307" fill="none" xmlns="http://www.w3.org/2000/svg">
<g filter="url(#filter0_f_23_12871)">
<path fill-rule="evenodd" clip-rule="evenodd" d="M144.714 62.06L144.905 70.6789L161.159 70.8588L161.194 78.6061L170.458 78.6539L170.625 86.7843L178.354 87.0941L178.437 101.29L187.118 101.767L187.034 141.2L198.382 141.402C197.417 143.849 197.691 149.139 199.454 149.175L216.553 149.568L216.874 158.02L235.32 158.271L235.415 166.664L243.703 166.939L243.87 175.176L253.288 175.415L253.408 183.545L262.35 183.819L262.672 192.774L271.96 193.012L272.138 201.345L281.558 201.704C281.438 203.817 280.843 206.563 282.343 208.568C283.986 209.69 287.702 208.615 290.334 209.486L290.5 241.947L281.676 242.233L281.569 254.1L281.51 258.53L272.258 258.697L272.09 267.138C268.911 267.806 266.232 267.531 262.862 267.185L262.719 276.748L243.452 276.987L243.512 286L222.376 285.928C222.566 283.648 223.424 279.672 222.054 278.073C219.673 276.437 215.803 277.452 213.421 277.655L213.16 269.263C207.218 270.087 202.835 265.765 194.785 267.627L194.667 275.65H139.308L138.975 267.125H97.8458C97.9172 264.583 98.0003 263.15 97.3573 260.583L84.4134 260.917C83.6156 262.373 83.6865 265.012 83.9604 266.731L76.388 266.887L76.0303 260.894L66.4566 260.941V251.939C63.0034 252.071 60.2644 252.322 57.3946 251.642C56.442 241.649 57.4666 232.635 57.419 222.953L49.7027 222.87L49.5 156.444L57.7756 156.158L57.5497 135.147L66.8133 134.872L66.7656 89.2916C69.7869 88.3056 72.7144 88.3002 75.852 89.2527V87.8947H76.2695L76.2928 79.6332L85.6162 79.43C85.4495 77.4125 84.604 73.3413 86.0448 71.8371C88.1405 70.1778 92.0818 71.0856 94.8919 71.1931L95.202 62H144.785L144.714 62.06ZM243.381 267.997H243.368L243.25 276.593H243.309L243.429 267.949L243.679 266.84L243.643 266.839L243.381 267.997ZM223.666 275.393C223.674 276.078 223.877 276.492 224.572 276.529L223.666 275.381C223.666 275.385 223.666 275.389 223.666 275.393ZM263.351 258.745C262.803 259.079 262.149 259.819 262.184 260.977L262.42 267.171L262.493 267.173L262.255 260.929C262.209 259.816 262.847 259.08 263.362 258.738C263.358 258.741 263.354 258.743 263.351 258.745ZM189.178 259.652L188.81 266.947H188.868L189.234 259.65L189.178 259.652ZM223.644 257.899C223.643 260.437 223.297 262.997 223.403 265.372C223.298 262.996 223.645 260.438 223.644 257.899ZM245.695 258.924C250.192 258.888 254.707 260.38 259.284 259.537C254.707 260.368 250.192 258.882 245.695 258.924ZM201.847 251.486L201.916 253.355C201.982 255.22 201.995 257.128 201.52 259.307L201.574 259.306C202.227 256.386 201.979 253.966 201.907 251.463C201.887 251.471 201.866 251.477 201.847 251.486ZM145.369 251.235C143.926 249.648 141.487 250.399 139.771 250.699C141.486 250.403 143.909 249.665 145.345 251.235C146.943 252.98 146.447 256.516 146.312 258.552L146.335 258.553C146.458 256.517 146.955 252.98 145.369 251.235ZM83.7588 258.255C83.6675 258.312 83.5692 258.367 83.4664 258.421C83.5957 258.356 83.7176 258.289 83.8297 258.22L84.1376 251.557H84.0678L83.7588 258.255ZM261.721 208.928C261.841 210.059 262.133 211.117 262.735 212.089L271.055 212.232L271.185 241.982L269.863 241.888L269.864 241.899L223.781 241.565C223.676 241.565 223.58 241.53 223.492 241.467C223.583 241.537 223.683 241.576 223.793 241.577L269.876 241.911L269.853 241.9L271.199 241.996L271.305 249.242L271.317 249.699C271.427 252.006 272.199 254.661 271.317 257.515C271.199 257.891 270.986 258.142 270.727 258.311C271.02 258.143 271.262 257.881 271.388 257.467C272.329 254.423 271.388 251.606 271.376 249.194L271.27 241.982L271.198 241.984L271.067 212.232L262.743 212.089C262.135 211.118 261.842 210.057 261.721 208.921V208.928ZM76.1112 251.473C76.1104 251.481 76.1098 251.489 76.1089 251.496L84.2583 251.319L84.2605 251.295L76.1112 251.473ZM203.197 249.978C203.297 250.417 203.338 250.872 203.323 251.329C203.338 250.871 203.299 250.418 203.198 249.981L203.197 249.978ZM66.9451 242.151L74.4941 243.487C75.1814 246.374 75.0426 248.871 74.9239 251.319H74.9349C75.0421 248.863 75.1958 246.36 74.5063 243.464L66.9451 242.122V242.151ZM213.641 243.594C214.441 246.369 214.302 248.837 214.113 251.223H214.14C214.328 248.838 214.465 246.37 213.66 243.595L213.641 243.594ZM136.843 216.888C138.593 221.115 135.866 223.049 134.723 225.747C132.985 229.818 134.688 235.143 134.223 239.619C135.509 240.73 136.784 240.945 138.546 241.255L138.878 250.805C138.882 250.805 138.886 250.804 138.889 250.803L138.557 241.243C136.795 240.932 135.52 240.717 134.234 239.607C134.711 235.13 132.996 229.806 134.735 225.735C135.877 223.051 138.6 221.106 136.859 216.888H136.843ZM96.3351 242.27C96.7527 243.92 97.5708 246.834 97.3928 248.573C97.3522 248.979 97.3856 249.861 97.6187 250.547C97.392 249.863 97.3648 248.988 97.4049 248.585C98.2582 248.307 98.5954 247.343 98.5823 246.25C98.5947 247.341 98.2574 248.301 97.4049 248.574C97.5831 246.835 96.7532 243.908 96.3472 242.27H96.3351ZM202.145 247.964C201.982 248.509 201.667 248.994 201.219 249.387C201.671 248.997 201.989 248.513 202.161 247.97C202.155 247.964 202.15 247.958 202.145 247.952V247.964ZM98.4593 245.134C98.4891 245.279 98.5131 245.425 98.5324 245.571C98.5131 245.426 98.49 245.28 98.4604 245.136L98.4593 245.134ZM232.62 217.498C231.697 216.838 228.721 216.984 228.64 218.094L227.818 229.328C225.378 228.839 223.222 229.066 222.924 229.889L221.852 232.921C219.947 234.223 217.172 234.103 214.827 234.414L214.255 241.911L203.323 242.042C202.514 242.042 201.991 242.52 202.145 243.188V243.177H202.153C202.016 242.521 202.536 242.055 203.336 242.055L214.267 241.924L214.839 234.426C217.196 234.116 219.96 234.235 221.865 232.934L222.936 229.901C223.234 229.078 225.378 228.839 227.83 229.34L228.652 218.106C228.732 217.001 231.683 216.843 232.62 217.498ZM78.6275 234.739L79.1148 242.449L79.1248 242.448L78.6375 234.738C78.6342 234.739 78.6308 234.739 78.6275 234.739ZM85.1787 233.921C85.3538 234.111 85.4601 234.411 85.45 234.784L85.223 242.424L85.2197 242.448H85.2474L85.4733 234.808C85.4839 234.419 85.3677 234.109 85.1787 233.921ZM169.78 96.8479L169.934 102.053L177.984 102.4L177.793 150.057L197.298 150.427L197.918 158.88L215.744 159.023C215.744 162.568 215.493 165.04 216.243 167.618L233.009 167.666C233.676 170.627 233.533 172.395 233.212 175.726C235.641 175.94 239.774 174.698 242.381 176.668C244.012 177.91 243.322 182.291 242.905 184.488L252.324 184.762L252.622 193.347L261.636 193.37C262.351 196.402 262.135 199.041 261.695 202.526H271.198L271.34 211.086L281.26 211.528V241.864H281.343V211.493L271.4 211.051L271.257 202.491H261.755C262.195 199.005 262.409 196.367 261.695 193.334L252.682 193.31L252.384 184.727L242.965 184.452C243.382 182.256 244.071 177.874 242.44 176.633C239.832 174.663 235.713 175.904 233.272 175.689C233.593 172.358 233.748 170.591 233.069 167.631L216.303 167.583C215.553 165.004 215.815 162.533 215.803 158.987L197.977 158.844L197.358 150.392L177.853 150.022L178.044 102.352L169.994 102.018L169.841 96.8479H169.78ZM74.3634 231.501C74.3597 231.501 74.3561 231.5 74.3524 231.499L74.3513 231.501C74.3156 232.337 74.5539 233.4 75.0302 233.865C75.033 233.868 75.0362 233.87 75.039 233.873C74.5727 233.4 74.3285 232.351 74.3756 231.525L74.2438 216.303C74.2401 216.302 74.2365 216.3 74.2327 216.299L74.3634 231.501ZM66.6349 135.874L75.4234 136.03L74.9826 162.091C71.4581 162.222 68.8264 161.423 65.8497 162.616L65.7655 215.456C65.7694 215.456 65.7738 215.456 65.7777 215.456L65.8608 162.641C68.8496 161.447 71.4701 162.247 74.9947 162.115L75.4344 136.042L75.4411 136.005L66.6349 135.851V135.874ZM262.933 212.367C264.02 213.686 266.505 213.831 269.591 213.071V213.056C266.509 213.817 264.035 213.676 262.933 212.367ZM216.987 202.359C216.904 202.855 216.797 203.362 216.661 203.888C216.842 203.19 216.972 202.525 217.062 201.87L216.987 202.359ZM225.519 202.909L225.52 202.921L229.437 202.754L229.436 202.741L225.519 202.909ZM215.41 176.083L231.58 176.274L233.2 184.799L242.858 184.882L243.096 193.74L252.062 194.038L252.419 202.491L261.921 202.681C261.921 202.677 261.922 202.673 261.922 202.67L252.419 202.479L252.062 194.026L243.096 193.729L242.858 184.87L233.2 184.786L231.58 176.262L215.412 176.071C215.411 176.075 215.411 176.079 215.41 176.083ZM184.342 193.465C184.092 195.746 183.521 199.721 185.271 201.536C186.784 203.1 191.059 202.395 192.702 201.584L192.725 201.571C191.082 202.383 186.807 203.088 185.295 201.524C183.547 199.723 184.126 195.745 184.364 193.463L184.342 193.465ZM214.117 195.2C212.546 195.092 210.926 195.166 209.087 195.495L209.645 195.402C211.262 195.153 212.709 195.103 214.117 195.2ZM193.178 194.636C193.177 194.639 193.175 194.642 193.173 194.645L200.692 194.063V194.052L193.178 194.636ZM215.803 193.334L223.508 193.394V193.374L215.807 193.316L215.875 184.357L215.803 193.334ZM192.988 185.324L192.416 193.012L192.44 193.011L193.01 185.323L192.988 185.324ZM201.013 185.92L201.012 185.931L208.932 185.754C208.933 185.75 208.934 185.745 208.934 185.741L201.013 185.92ZM201.002 177.862L199.979 185.204H200.001L201.024 177.854C201.017 177.857 201.009 177.859 201.002 177.862ZM177.391 157.062C177.478 157.851 177.668 158.633 178.019 159.394L195.929 159.56L196.941 167.284L212.814 167.786C215.487 167.873 216.053 172.3 215.59 175.22C216.064 172.299 215.49 167.85 212.814 167.774L196.941 167.273L195.929 159.548L178.019 159.382C177.668 158.618 177.478 157.835 177.39 157.045L177.391 157.062ZM86.9618 157.042L87.0095 162.521L91.4751 162.485L91.474 162.482L87.015 162.518L86.9707 157.041L86.9618 157.042ZM58.6694 161.268L58.6683 161.289L66.6239 161.04L66.6228 161.018L58.6694 161.268ZM116.026 156.922L109.775 156.956L109.776 156.957L116.041 156.922L116.004 151.18H115.994L116.026 156.922ZM132.067 138.984C130.867 138.994 129.895 139.182 129.27 139.612C128.425 140.197 128.067 142.489 128.472 144.638C126.419 145.03 124.377 145.215 122.34 145.202C124.391 145.217 126.448 145.032 128.519 144.638C128.115 142.501 128.472 140.209 129.317 139.612C129.934 139.187 130.889 138.999 132.067 138.984ZM97.7738 145.005L97.8214 145.007L98.6886 138.49C98.6738 138.485 98.6579 138.482 98.6432 138.477L97.7738 145.005ZM146.751 139.731H151.002V144.947H152.12L152.108 139.361H146.75L146.751 139.731ZM135.045 132.067C133.808 134.465 134.496 136.624 134.366 139.129C134.382 139.131 134.398 139.132 134.414 139.134C134.556 136.632 133.857 134.475 135.085 132.081C135.072 132.076 135.058 132.072 135.045 132.067ZM106.241 133.69C104.574 133.666 104.669 135.35 104.312 136.866C104.006 138.142 102.645 138.727 101.182 138.815C102.658 138.735 104.043 138.153 104.358 136.866C104.725 135.36 104.634 133.689 106.254 133.69C106.25 133.69 106.245 133.69 106.241 133.69ZM115.354 132.124C116.29 134.114 116.149 135.736 116.398 138.203C118.501 138.562 120.405 138.722 122.277 138.717C120.42 138.72 118.53 138.559 116.445 138.203C116.195 135.732 116.338 134.108 115.397 132.114C115.383 132.118 115.368 132.12 115.354 132.124ZM79.2289 126.129C82.6211 130.293 86.5326 134.361 85.8067 138.263C87.5529 138.532 89.2089 138.677 90.8704 138.694C89.2248 138.674 87.584 138.529 85.8543 138.263C86.5687 134.347 82.6623 130.289 79.2688 126.123L79.2289 126.129ZM77.6828 133.18C77.115 133.165 76.4865 133.324 75.9107 133.645L75.9118 133.655L75.9085 133.671C76.4816 133.341 77.1113 133.174 77.6828 133.18ZM128.705 132.379C129.175 132.541 129.714 132.651 130.27 132.698C129.715 132.646 129.177 132.533 128.71 132.365C128.709 132.37 128.707 132.374 128.705 132.379ZM137.034 126.22C138.03 126.227 139.054 126.372 139.594 126.599C140.666 127.053 140.928 129.44 140.618 130.539C140.267 131.75 139.031 132.528 137.43 132.549C139.054 132.543 140.31 131.762 140.665 130.539C140.986 129.44 140.713 127.053 139.641 126.599C139.093 126.368 138.045 126.222 137.034 126.22ZM113.986 125.992C112.521 125.993 110.949 126.184 110.492 126.957C109.956 127.876 109.908 130.562 110.563 131.469C110.997 132.061 112.224 132.393 113.552 132.37C112.24 132.385 111.041 132.055 110.61 131.469C109.944 130.562 109.991 127.876 110.538 126.957C110.982 126.191 112.531 125.997 113.986 125.992ZM99.4196 132.215C99.77 132.275 100.128 132.329 100.483 132.365C100.128 132.328 99.7693 132.277 99.4196 132.215ZM98.3198 131.993C98.6554 132.074 99.0153 132.145 99.3841 132.209C99.0152 132.143 98.6564 132.066 98.322 131.982L98.3198 131.993ZM102.646 126.006C101.424 125.731 99.65 125.893 98.373 126.475C98.3756 126.48 98.3781 126.486 98.3807 126.491C99.6441 125.903 101.413 125.742 102.646 126.006ZM115.6 118.456C116.35 120.903 116.872 124.528 115.351 126.034C115.366 126.035 115.382 126.036 115.397 126.037C116.921 124.533 116.398 120.916 115.647 118.456L98.0473 118.421L115.6 118.456ZM110.237 108.407L104.227 108.265V108.285L110.253 108.428L110.395 102.137L110.384 102.136L110.237 108.407ZM142.166 96.7646C138.2 95.7857 133.366 95.4987 128.913 95.7852C128.317 98.3161 128.852 100.37 127.4 102.602C124.995 101.397 122.387 102.447 122.149 104.047C122.008 104.97 121.808 107.111 122.672 107.983C121.821 107.104 122.021 104.978 122.161 104.059C122.399 102.459 125.007 101.408 127.412 102.614C128.853 100.382 128.328 98.3283 128.924 95.7974C133.373 95.5112 138.191 95.7969 142.166 96.7735C142.165 96.7705 142.166 96.7675 142.166 96.7646ZM141.749 102.817C141.198 105.605 141.561 107.129 142.619 107.845C141.574 107.122 141.22 105.596 141.76 102.83L141.749 102.817ZM85.6394 102.006C85.4836 103.07 85.3495 104.351 85.3725 105.484C85.3507 104.354 85.4853 103.079 85.6405 102.018L91.3921 101.373V101.363L91.3909 101.361L85.6394 102.006ZM143.58 100.677C144.85 101.955 146.651 101.886 147.659 103.012C146.653 101.873 144.843 101.948 143.569 100.664L143.58 100.677ZM91.4341 101.477C91.5197 101.768 91.5124 102.177 91.5227 102.387C91.5227 102.177 91.5219 101.768 91.4341 101.477ZM104.323 96.5014C100.465 96.1552 96.8325 95.1292 92.9626 95.8574C92.0823 96.0225 91.5523 96.7293 91.2758 97.6041C91.5549 96.7346 92.0871 96.0338 92.9637 95.8696C96.8334 95.1416 100.477 96.1674 104.323 96.5136L104.329 96.8545L104.323 96.5014ZM143.726 79.5378H153.704L143.726 79.4656V79.5378Z" fill="#D3C5C0"/>
</g>
<path d="M74.0704 258.948L74.0032 267.032L66.3563 267.116C65.8011 267.066 65.3721 267.579 65.6918 268.1L65.7507 283.411L74.062 283.529L82.3734 283.63L82.3398 291.672L90.3567 291.756L90.3062 298.402C90.6343 299.007 90.811 299.579 90.7605 299.983H82.3566L81.9276 296.13L74.9285 295.785C74.3481 294.364 74.3901 293.354 74.4574 291.975L65.9778 291.781L65.6161 283.478L49.5654 283.554L49.3971 291.63L33.4221 292.008C33.1614 295.281 33.195 297.653 33.624 299.966L0 300L0.319668 291.764L24.6986 291.815L24.8247 283.621L16.4293 283.579L16.4545 275.276L24.9089 275.419L24.9425 283.554L33.1193 283.571L33.1445 275.293L49.4392 275.167L49.5065 267.209L57.6748 267.158L57.8347 258.864L74.0704 258.939V258.948Z" fill="#F0F1F2"/>
<path d="M49.5315 258.855L49.5063 267.217L41.2877 267.116L41.2793 259.024L49.5315 258.855Z" fill="#F0F1F2"/>
<path d="M57.8344 258.872L49.5317 258.855L49.498 250.754L57.725 250.771L57.8344 258.872Z" fill="#F0F1F2"/>
<path d="M82.3562 299.983L33.6153 299.966C33.1863 297.661 33.1526 295.281 33.4134 292.008L49.3884 291.63L49.5566 283.554L65.6073 283.478L65.969 291.781L74.4487 291.975C74.3814 293.354 74.3393 294.364 74.9198 295.785L81.9188 296.13L82.3478 299.983H82.3562Z" fill="#C0BEC1"/>
<path d="M300 299.992H283.218L283.15 293.304C283.092 292.311 282.427 291.781 281.476 291.79L268.034 291.764L266.755 291.571L266.704 283.596L258.544 283.461L258.469 276.387C258.519 275.73 259.192 275.428 259.638 275.461H274.763L274.898 267.697L274.326 267.116H266.704V259.049H274.738L274.805 266.788L275.251 267.167L283.1 267.284L283.176 275.343L274.772 275.402L274.831 283.537L291.268 283.579L291.369 291.748L299.706 291.79C299.622 294.835 299.403 297.443 300 299.975V299.992Z" fill="#F0F1F2"/>
<path d="M258.409 291.461C261.126 291.975 264.012 291.865 266.754 291.571L268.033 291.764L281.476 291.79C282.418 291.781 283.091 292.311 283.15 293.304L283.217 300H242.03V291.882L258.014 291.739C258.14 291.613 258.274 291.52 258.409 291.47V291.461Z" fill="#C0BEC1"/>
<path d="M250.435 283.655L258.511 283.84L258.41 291.462C258.276 291.512 258.15 291.605 258.015 291.731L242.032 291.874V300L226.099 299.975C225.485 297.417 225.527 294.616 225.947 291.764H242.082L242.048 283.63L250.427 283.655H250.435Z" fill="#F0F1F2"/>
<path d="M65.7002 268.109C65.3806 267.587 65.8096 267.074 66.3648 267.125C66.533 267.663 66.2049 268.117 65.7002 268.109Z" fill="#615963"/>
<path d="M233.735 242.931C233.701 243.309 233.811 243.848 233.962 244.504V259.107L242.097 258.973L242.131 267.183L250.299 267.2L250.223 281.535C250.148 282.443 250.24 283.125 250.434 283.663L242.055 283.638L242.089 291.756H225.954C225.533 294.624 225.491 297.426 226.105 299.983L90.7678 300C90.8183 299.596 90.6416 299.016 90.3135 298.418L90.364 291.773L82.3471 291.688L82.3807 283.646L74.0693 283.545L74.1366 267.242L82.1452 267.183L82.3555 258.973L90.4145 258.864L102.604 258.922L102.772 267.175L119 267.267L119.126 275.368L175.909 275.537L176.506 275.192L176.91 267.192L209.247 267.166L209.424 259.04L217.659 258.981L217.617 250.754L225.777 250.519L225.903 242.678L233.735 242.947V242.931ZM176.994 275.621L176.557 276.193L176.885 283.503L184.355 283.444C184.742 280.677 184.935 278.094 184.363 275.352L176.994 275.612V275.621ZM176.439 283.764L168.279 283.798L168.313 291.781L176.472 291.747L176.439 283.764Z" fill="#615963"/>
<path d="M259.637 275.461C259.199 275.428 258.518 275.739 258.467 276.387L258.543 283.461L266.703 283.596L266.754 291.571C264.011 291.865 261.126 291.983 258.409 291.461L258.51 283.84L250.434 283.655C250.24 283.125 250.148 282.435 250.223 281.526L250.299 267.192L242.131 267.175L242.097 258.965L233.971 259.099V244.495C233.811 243.839 233.702 243.301 233.735 242.922L233.769 234.518L225.676 234.392L225.701 226.148L217.558 226.35L209.297 226.232L209.163 218.114H152.111L151.959 226.157L135.698 226.333L135.723 234.51L119.134 234.401L119.042 242.695L102.89 242.645L102.798 250.796H92.4083C91.1381 250.628 90.2211 251.646 90.4819 252.908L90.4146 258.838L82.3556 258.948L82.1453 267.158L74.1368 267.217L74.0695 283.52L65.7581 283.402L65.6992 268.092C66.204 268.092 66.532 267.646 66.3638 267.108L74.0106 267.024L74.0779 258.939L82.2294 258.721L82.3977 250.527L89.8089 250.3L90.0529 243.839C90.524 243.385 91.0203 243.023 91.5755 242.746H102.461L102.638 234.476L118.327 234.35C118.747 232.92 118.789 231.717 118.571 230.245C119.294 228.941 119.412 227.679 119.378 226.106L135.227 225.946L135.404 219.343C135.463 218.644 135.757 218.182 136.38 217.719L151.143 217.576L151.337 211.73C151.194 210.686 151.606 210.005 152.094 209.626C152.472 209.408 153.002 209.248 153.835 209.29H207.279C207.851 209.971 208.355 210.131 209.356 210.064C209.121 212.066 209.096 213.454 210.198 215.145C209.567 216.18 209.97 217.273 210.896 217.685L224.389 217.66C225.012 217.786 225.491 218.14 225.929 218.661L226.063 225.972L233.634 226.106L233.718 234.375L242.047 234.51L242.122 258.721L250.35 258.796L250.459 267.167L258.737 267.276L259.014 273.594L259.645 275.436L259.637 275.461Z" fill="#300F0D"/>
<path d="M217.559 226.35L217.627 234.325L225.669 234.392L233.762 234.518L233.728 242.922L225.896 242.653L225.77 250.493L217.61 250.729L217.652 258.956L209.416 259.015L209.24 267.141L176.903 267.167L176.499 275.167L176.995 275.613L184.364 275.352C184.936 278.094 184.743 280.677 184.356 283.445L176.886 283.503L176.558 276.193C176.213 276.084 175.994 275.857 175.902 275.512L119.118 275.343L118.992 267.242L102.765 267.15L102.597 258.897L90.4072 258.839L90.4745 252.908C90.2137 251.646 91.1391 250.628 92.4009 250.796H102.79L102.883 242.645L119.034 242.695L119.127 234.401L135.716 234.51L135.691 226.333L151.952 226.157L152.103 218.098H209.155L209.29 226.224L217.551 226.342L217.559 226.35Z" fill="#95847C"/>
<path d="M176.443 283.753L168.283 283.786L168.315 291.769L176.475 291.736L176.443 283.753Z" fill="#95847C"/>
<path d="M225.668 234.392L217.626 234.325L217.559 226.35L225.701 226.148L225.668 234.392Z" fill="#615963"/>
<path d="M145.624 101.788L159.92 101.851L160.238 108.912L168.83 109.404L168.8 109.415L168.943 114.463L169.118 135.964L175.809 136.125L175.727 157.487C175.727 160.097 174.709 163.114 175.922 165.841L191.379 165.991L192.252 172.912L205.951 173.361C208.5 173.447 208.829 178.282 208.192 180.795L222.148 180.966L223.546 188.604L231.881 188.679L232.087 196.617L239.825 196.883L240.134 204.458L248.335 204.628C248.171 207.859 247.647 210.736 249.044 213.068C249.876 214.469 252.127 214.662 254.964 213.935L255.189 239.768L215.417 239.468C214.441 239.468 214.338 235.917 214.913 235.158C215.489 234.399 217.904 234.484 218.377 233.65C219.548 231.585 220.032 229.435 223.402 229.66L223.279 218.299C223.269 217.294 219.694 217.262 219.61 218.438L218.9 228.504C216.794 228.066 214.934 228.269 214.677 229.007L213.752 231.724C212.108 232.89 209.713 232.783 207.688 233.061L207.195 239.779L197.761 239.896C197.062 239.896 196.61 240.324 196.743 240.923V245.203C196.404 246.379 195.314 247.256 193.649 247.363L180.31 248.208L179.95 239.854L172.026 239.49L171.78 231.542L164.895 231.275L164.617 223.851L150.599 223.808C150.003 221.551 150.085 219.882 150.208 217.572L140.383 217.358C141.894 221.145 139.54 222.878 138.554 225.295C137.053 228.943 138.523 233.714 138.122 237.725C139.232 238.72 140.332 238.913 141.853 239.191L142.141 247.759L107.353 248.358C106.407 248.379 106.283 246.4 106.345 245.758C108.307 245.095 107.116 240.069 105.431 240.1L95.8516 240.26L96.0469 233.415C96.0673 232.634 95.5436 232.206 94.9785 232.569L90.1582 233.35C89.2641 233.5 87.8459 233.393 87.0547 232.59C86.6437 232.173 86.4276 231.221 86.4688 230.472L86.3555 216.833C84.1666 215.946 82.07 216.331 79.0488 216.095L79.1211 168.75C81.7003 167.681 83.9613 168.397 87.0029 168.28L87.3838 144.917L87.6855 143.24C85.7529 142.665 86.6903 139.247 87.7637 136.5C89.4996 135.763 89.5005 136.36 90.6934 136.029L90.9092 109.5C93.0978 109.307 94.5366 109.531 96.376 108.515C95.924 106.226 96.438 103.488 97.8047 102.792C99.1716 102.097 101.31 102.836 103.057 102.397C105.307 101.83 105.862 98.2244 105.102 94.6519L145.46 94.2886L145.624 101.788ZM209.631 198.285C207.411 197.835 205.324 197.708 202.734 198.189L201.738 205.259L195.006 205.837L194.955 213.089C197.617 213.613 199.908 213.806 202.755 212.875C202.005 210.137 201.913 207.014 202.981 206.051C204.441 204.746 207.154 205.227 209.271 205.708C209.898 203.206 209.816 201.183 209.631 198.285ZM216.517 195.205L216.917 204.842L220.299 204.693L219.897 195.054L216.517 195.205ZM202.17 182.603C201.06 181.287 197.648 181.726 195.757 182.389L194.873 188.979L188.84 189.075L188.347 195.974L181.379 196.371C181.163 198.414 180.67 201.975 182.181 203.601C183.486 205.002 187.175 204.371 188.594 203.644L188.614 203.633C188.203 200.777 188.306 198.617 188.984 197.429L195.489 196.905L195.746 189.621L202.602 189.46C203.013 187.428 203.496 184.186 202.17 182.603ZM208.531 196.252L215.181 196.306L215.242 188.262L208.593 188.208L208.531 196.252ZM143.765 164.568C143.589 163.477 140.27 163.103 139.088 164.065C137.906 165.028 137.649 169.296 138.852 170.152C140.783 171.147 143.199 170.387 143.497 169.104C143.795 167.82 144.001 165.99 143.765 164.568ZM97.332 163.734L97.373 168.644L101.227 168.612L101.186 163.702L97.332 163.734ZM122.408 160.179C120.593 160.382 118.781 160.538 117.005 160.655L117.023 163.659L122.429 163.626L122.408 160.179Z" fill="#D1AC80"/>
<path d="M147.176 78.6282L147.341 86.3514L161.369 86.5119L161.4 93.4543L169.396 93.4971L169.54 100.782L176.209 101.06L176.281 113.779L183.773 114.206L183.702 149.539L193.496 149.721C192.663 151.914 192.9 156.652 194.421 156.684L209.179 157.037L209.456 164.611L225.376 164.836L225.458 172.356L232.611 172.602L232.755 179.982L240.884 180.196L240.987 187.481L248.705 187.727L248.982 195.75L256.998 195.964L257.153 203.43L265.282 203.751C265.179 205.645 264.665 208.105 265.96 209.902C267.378 210.908 270.585 209.945 272.856 210.726L273 239.811L265.385 240.068L265.292 250.701L265.241 254.669L257.255 254.819L257.111 262.382C254.367 262.981 252.055 262.735 249.147 262.424L249.023 270.993L232.395 271.207L232.446 279.283L214.204 279.219C214.369 277.176 215.109 273.614 213.927 272.18C211.871 270.715 208.531 271.624 206.476 271.806L206.25 264.286C201.121 265.024 197.339 261.152 190.392 262.82L190.289 270.009H142.511L142.223 262.371H106.725C106.787 260.093 106.859 258.809 106.304 256.509L95.1327 256.809C94.4441 258.114 94.5058 260.478 94.7422 262.018L88.2059 262.157L87.8976 256.787L79.6347 256.83V248.764C76.6543 248.882 74.2906 249.107 71.8138 248.497C70.9916 239.544 71.8754 231.467 71.8343 222.792L65.1747 222.717L65 163.199L72.1426 162.942L71.9474 144.115L79.943 143.869L79.9019 103.028C82.5226 102.14 85.0611 102.14 87.7845 103.007V136.296L87.7948 142.778L87.4145 144.886L79.7889 144.747L79.8197 167.296L72.9134 167.52L72.8723 215.892C75.2361 215.807 77.1785 215.582 79.7992 216.32L79.9328 231.168L80.0561 239.95V248.251L86.9932 248.208L87.9695 248.337C87.8359 249.749 86.9418 253.022 88.2573 254.487C89.5728 255.953 93.0978 255.375 94.6291 254.391L94.8963 248.39L106.407 248.443L106.951 254.616L148.615 254.691L149.365 254.733C149.006 257.022 148.595 259.408 149.304 262.264L185.284 262.211L185.603 255.643L196.25 255.364C196.815 252.744 196.599 250.572 196.538 248.326C196.867 248.155 197.483 248.219 197.812 248.219L207.134 248.123L208.007 248.304L207.76 262.414C210.802 263.163 213.022 262.756 215.283 262.317L215.427 263.195L215.314 269.677C215.304 270.351 215.53 270.854 216.219 270.854H232.272L232.374 263.109L232.6 262.071L248.828 262.414L248.623 256.819C248.581 255.782 249.177 255.108 249.63 254.819C250.082 254.53 250.914 254.669 251.315 254.616L254.306 254.723C254.933 254.733 256.176 254.84 256.505 253.717C257.317 250.989 256.505 248.465 256.495 246.304L256.402 239.811L265.097 239.736V212.523L256.515 212.127L256.392 204.457H248.191C248.571 201.334 248.756 198.97 248.139 196.253L240.36 196.231L240.103 188.54L231.973 188.294C232.333 186.326 232.929 182.4 231.521 181.288C229.271 179.523 225.715 180.635 223.608 180.442C223.885 177.458 224.019 175.875 223.433 173.222L208.963 173.179C208.315 170.869 208.541 168.654 208.531 165.477L193.146 165.349L192.612 157.775L175.778 157.444L175.86 136.082L175.942 114.731L168.995 114.431L168.851 109.382L168.82 101.819L160.588 101.434L160.64 94.3314L146.313 94.2245C146.19 91.5288 146.663 89.0685 145.851 86.5119L104.742 86.6617L104.269 94.3849L96.2015 94.4705L95.9652 101.916C93.1595 102.397 90.8574 102.376 88.1031 101.991L88.1237 94.3742L96.1707 94.1924C96.0268 92.3846 95.2971 88.7369 96.5407 87.389C98.3495 85.9022 101.751 86.7152 104.177 86.8114L104.444 78.5747H147.238L147.176 78.6282Z" fill="#F1F2F3"/>
<path d="M196.743 245.192C197.483 246.015 197.801 247.128 197.76 248.251C197.431 248.251 196.815 248.187 196.486 248.358C193.454 249.93 190.124 248.893 186.281 249.395C185.16 249.545 184.76 253.129 185.047 254.744L149.324 254.765L148.574 254.723C148.676 252.904 149.118 249.706 147.741 248.133C146.261 246.443 143.569 247.716 142.15 247.748L141.863 239.18C140.342 238.902 139.242 238.709 138.132 237.714C138.543 233.703 137.063 228.932 138.564 225.284C139.55 222.878 141.904 221.134 140.393 217.347L150.218 217.561C150.095 219.861 150.012 221.54 150.609 223.797L164.627 223.84L164.904 231.264L171.79 231.531L172.036 239.479L179.96 239.843L180.32 248.197L193.66 247.352C195.325 247.245 196.414 246.368 196.763 245.192H196.743Z" fill="#AD563C"/>
<path d="M255.18 239.768L256.341 239.854L256.434 246.347L249.014 246.657C248.798 249.342 249.353 252.444 248.356 254.883C243.464 256.948 238.665 254.851 233.886 255.033C231.861 255.878 232.231 260.531 232.56 262.114L232.334 263.152L215.387 263.238L215.243 262.36C214.585 258.296 216.178 253.396 214.503 249.107C213.136 247.609 209.457 248.647 207.967 248.347L207.093 248.165C207.258 246.015 207.381 243.79 206.682 241.287L196.754 240.934C196.621 240.335 197.073 239.907 197.772 239.907L207.206 239.79L207.7 233.072C209.734 232.794 212.119 232.901 213.763 231.735L214.688 229.018C214.945 228.28 216.795 228.066 218.912 228.515L219.621 218.449C219.703 217.272 223.28 217.294 223.29 218.31L223.413 229.67C220.042 229.446 219.559 231.596 218.388 233.66C217.915 234.495 215.5 234.409 214.924 235.169C214.349 235.928 214.452 239.469 215.428 239.479L255.201 239.779L255.18 239.768Z" fill="#AD563C"/>
<path d="M87.3738 144.896L86.9935 168.259C83.9515 168.376 81.6802 167.66 79.1109 168.729L79.039 216.074C82.0707 216.31 84.1673 215.914 86.346 216.813L86.4591 230.451C84.2392 230.045 82.0193 230.398 79.892 231.189L79.7584 216.342C77.1377 215.604 75.1953 215.828 72.8315 215.914L72.8726 167.542L79.7789 167.317L79.7481 144.768L87.3738 144.907V144.896Z" fill="#672529"/>
<path d="M256.342 239.843L256.229 213.186L249.045 213.058C247.647 210.737 248.171 207.848 248.336 204.618L240.134 204.447L239.826 196.873L232.087 196.606L231.882 188.669L223.547 188.594L222.149 180.956L208.193 180.785C208.84 178.271 208.501 173.425 205.953 173.35L192.253 172.901L191.38 165.98L175.923 165.83C174.71 163.092 175.717 160.086 175.727 157.476L192.561 157.808L193.096 165.381L208.481 165.51C208.481 168.687 208.265 170.901 208.912 173.211L223.383 173.254C223.958 175.907 223.835 177.49 223.557 180.475C225.654 180.667 229.22 179.555 231.471 181.32C232.879 182.432 232.283 186.358 231.923 188.326L240.052 188.572L240.309 196.263L248.089 196.285C248.706 199.002 248.521 201.366 248.14 204.489H256.342L256.465 212.159L265.026 212.555V239.768L256.342 239.843Z" fill="#672529"/>
<path d="M105.421 240.089C105.781 241.566 106.49 244.186 106.335 245.748C106.274 246.39 106.407 248.358 107.343 248.347L142.131 247.748C143.549 247.727 146.242 246.454 147.722 248.134C149.109 249.706 148.667 252.904 148.554 254.723L106.89 254.648L106.346 248.476L94.8353 248.422L94.5681 254.423C93.0368 255.418 89.5117 255.974 88.1962 254.52C86.8808 253.065 87.7749 249.781 87.9085 248.369L94.9997 248.208L95.8116 240.261L105.39 240.1L105.421 240.089Z" fill="#672529"/>
<path d="M86.4489 230.451C86.4181 231.2 86.6236 232.152 87.0347 232.569C87.8261 233.371 89.2443 233.478 90.1384 233.329L90.5598 240.26L95.277 240.121L94.9584 232.548C95.5237 232.184 96.0478 232.612 96.0273 233.393L95.832 240.239L95.0201 248.187L87.9289 248.347L86.9525 248.219C87.045 246.015 87.1786 243.769 86.5825 241.17L80.0154 239.961L79.8921 231.179C82.0195 230.387 84.2393 230.034 86.4592 230.44L86.4489 230.451Z" fill="#AD563C"/>
<path d="M188.613 203.634C187.195 204.361 183.505 204.992 182.2 203.591C180.689 201.976 181.193 198.403 181.398 196.36L188.366 195.964L188.859 189.064L194.892 188.968L195.776 182.379C197.667 181.705 201.079 181.277 202.189 182.593C203.515 184.176 203.032 187.417 202.621 189.449L195.766 189.61L195.509 196.894L189.003 197.419C188.325 198.606 188.212 200.767 188.633 203.623L188.613 203.634Z" fill="#AD563C"/>
<path d="M175.809 136.125L169.118 135.964L168.943 114.463L175.891 114.774L175.809 136.125Z" fill="#672529"/>
<path d="M202.755 212.876C199.909 213.807 197.617 213.614 194.955 213.09L195.006 205.838L201.738 205.26L202.735 198.189C205.335 197.708 207.411 197.836 209.631 198.285C209.816 201.184 209.898 203.195 209.271 205.709C207.154 205.228 204.441 204.746 202.982 206.051C201.913 207.014 202.005 210.138 202.755 212.876Z" fill="#AD563C"/>
<path d="M144.617 115.148C141.709 114.314 136.169 114.057 133.415 114.998C132.572 115.341 133.127 118.7 132.593 119.427C131.925 120.336 129.376 120.539 128.41 119.983C127.382 119.395 127.578 117.17 127.711 116.261C127.917 114.827 130.167 113.886 132.243 114.966C133.487 112.966 133.035 111.126 133.549 108.858C137.392 108.602 141.554 108.858 144.987 109.735C145.419 116.207 150.28 112.677 150.372 117.469C150.424 120.058 149.262 120.293 146.858 120.122C144.874 119.983 143.959 118.71 144.627 115.159L144.617 115.148Z" fill="#031F40"/>
<path d="M207.082 248.155L197.761 248.251C197.802 247.128 197.483 246.026 196.743 245.192V240.913L206.661 241.266C207.36 243.769 207.236 245.994 207.072 248.144L207.082 248.155Z" fill="#672529"/>
<path d="M101.268 114.763C101.268 114.549 101.268 114.1 101.155 113.843C100.59 112.592 100.641 109.286 102.512 108.923C105.852 108.27 108.997 109.19 112.316 109.5L112.409 114.71L101.268 114.763Z" fill="#031F40"/>
<path d="M208.595 188.192L208.535 196.236L215.184 196.291L215.245 188.247L208.595 188.192Z" fill="#AD563C"/>
<path d="M94.9675 232.559L95.2861 240.132L90.5688 240.271L90.1475 233.339L94.9675 232.559Z" fill="#672529"/>
<path d="M138.852 170.153C137.65 169.297 137.856 165.071 139.089 164.066C140.322 163.06 143.59 163.478 143.765 164.569C144.001 166.002 143.806 167.767 143.498 169.104C143.189 170.441 140.785 171.147 138.852 170.153Z" fill="#D1AC80"/>
<path d="M256.341 239.843L255.179 239.757L254.953 213.924C252.117 214.651 249.876 214.459 249.034 213.058L256.217 213.186L256.33 239.843H256.341Z" fill="#D1AC80"/>
<path d="M122.39 158.481L116.984 158.513L117.011 163.658L122.417 163.626L122.39 158.481Z" fill="#D1AC80"/>
<path d="M101.155 113.843C101.268 114.1 101.258 114.549 101.268 114.763C101.33 116.185 101.608 118.325 101.001 119.491C100.487 120.486 97.4967 120.635 96.6334 119.94C95.7084 119.191 95.914 116.399 96.1915 114.431L101.155 113.853V113.843Z" fill="#031F40"/>
<path d="M219.903 195.052L216.515 195.205L216.915 204.834L220.304 204.681L219.903 195.052Z" fill="#AD563C"/>
<path d="M112.35 114.393L112.222 120.029L117.421 120.156L117.549 114.521L112.35 114.393Z" fill="#031F40"/>
<path d="M152.603 148.223H147.979V153.208H152.603V148.223Z" fill="#D1AC80"/>
<path d="M101.194 163.699L97.3398 163.731L97.3777 168.641L101.232 168.609L101.194 163.699Z" fill="#D1AC80"/>
<path d="M106.345 245.748C106.499 244.186 105.78 241.555 105.43 240.089C107.116 240.068 108.308 245.096 106.345 245.748Z" fill="#AD563C"/>
<path d="M86.9523 248.241L79.9946 248.283V239.982L86.572 241.191C87.1681 243.791 87.0448 246.037 86.942 248.241H86.9523Z" fill="#672529"/>
<path d="M256.433 246.347C256.444 248.508 257.256 251.032 256.444 253.76C256.105 254.883 254.861 254.776 254.244 254.766C254.152 253.985 253.432 253.728 252.672 253.782C252.086 253.824 251.624 254.242 251.254 254.659C250.853 254.702 250.041 254.562 249.568 254.862C249.096 255.162 248.53 255.825 248.561 256.862L248.767 262.457L232.539 262.115C232.22 260.531 231.85 255.878 233.865 255.033C238.644 254.851 243.443 256.959 248.335 254.883C249.342 252.444 248.777 249.353 248.993 246.657L256.413 246.347H256.433Z" fill="#672529"/>
<path d="M254.245 254.755L251.254 254.648C251.635 254.23 252.097 253.813 252.673 253.77C253.423 253.717 254.153 253.974 254.245 254.755Z" fill="#AD563C"/>
<path d="M196.487 248.358C196.549 250.594 196.754 252.776 196.199 255.397L185.552 255.675L185.233 262.243L149.253 262.297C148.544 259.441 148.965 257.055 149.315 254.766L185.038 254.745C184.75 253.119 185.151 249.546 186.271 249.396C190.125 248.893 193.445 249.92 196.477 248.358H196.487Z" fill="#672529"/>
<path d="M232.322 263.141L232.22 270.875L216.167 270.886L215.272 269.709L215.375 263.227L232.322 263.141Z" fill="#672529"/>
<path d="M215.242 262.35C212.97 262.789 210.761 263.195 207.719 262.446L207.965 248.337C209.466 248.647 213.135 247.61 214.502 249.097C216.177 253.375 214.584 258.285 215.242 262.35Z" fill="#672529"/>
<path d="M216.167 270.886C215.489 270.886 215.253 270.383 215.263 269.709L216.167 270.886Z" fill="#AD563C"/>
<path d="M90.8268 136.007L87.7437 136.542V101.776H95.9654V94.2886H105.729V102.311L97.507 103.381L96.4793 109.264L91.3407 109.799L90.8268 136.007Z" fill="#672529"/>
<path d="M103.673 94.8232L104.701 86.2656H146.323V94.2884H160.711V101.241L168.933 101.776V109.799H159.684V102.311H145.295V94.8232H103.673Z" fill="#672529"/>
<path d="M95 106.041L94.959 113.903L86.8004 114.138L86.9949 129.278L95.1433 129.514L95.1945 141.521L100.651 141.542L100.63 146.066L100.692 146.824L116.169 146.783L115.965 136.557C114.327 136.986 112.085 137.13 111.317 136.393C110.55 135.656 110.969 133.526 111.123 131.52L125.956 131.448C127.123 131.448 127.389 135.072 126.816 136.034C126.181 137.089 123.223 136.731 121.933 136.833C121.042 139.628 121.329 143.579 121.687 146.558L141.393 146.722C141.485 143.784 141.556 140.528 142.642 137.867C143.42 137.12 145.825 137.222 147.013 137.724C147.361 140.948 147.34 143.456 147.064 146.732C145.037 146.875 143.624 146.722 141.864 147.653C142.386 149.209 142.283 151.42 141.475 152.096C140.758 152.69 138.711 152.618 137.063 152.229L137.011 162.322C135.015 162.875 133.408 162.629 131.893 162.394L131.944 152.423L116.21 152.516C116.507 154.379 116.415 156.406 115.76 157.02C115.105 157.634 113.068 157.736 111.553 157.358C110.734 159.221 110.857 161.073 111.45 162.824L131.862 162.773C131.75 164.431 132.221 166.059 131.77 168.178L111.348 167.697C111.327 167.072 111.194 166.53 111.256 166.151C111.409 165.209 111.368 163.52 110.601 163.182C109.505 162.701 107.745 162.681 105.882 163.1L105.503 153.703C105.452 152.352 101.961 152.045 100.64 152.7L100.262 147.428L99.586 146.885C96.5662 146.834 93.5463 146.967 90.5265 146.803L90.5777 137.898L86.1043 137.488C86.1555 134.765 86.2373 132.646 85.9917 130.455C85.92 129.821 85.3672 129.493 84.753 129.575C82.9207 129.821 80.9962 129.964 79 129.503L79.0512 114.077C81.3647 113.821 83.6168 113.821 85.7869 114.077C86.5854 114.169 87.0665 113.667 86.7594 112.91C86.6468 112.644 86.3602 112.316 86.1043 112.009C86.913 110.125 86.2578 107.873 85.961 106C88.9501 106.399 91.9597 106.317 94.9692 106.072L95 106.041Z" fill="#672529"/>
<path d="M131.946 162.545L131.914 162.946L110.498 163C109.886 161.159 109.746 159.2 110.606 157.219C112.195 157.619 114.3 157.543 115.02 156.861C115.739 156.179 115.804 154.079 115.492 152.097L132 152L131.946 162.545Z" fill="#AD563C"/>
<path d="M253.031 80.0152L253.185 79.227L263.872 79.1861C264.639 84.8981 265.233 89.6173 264.414 95.2167C263.206 94.9915 260.135 95.5136 260.084 96.5782C259.992 98.9224 259.664 100.448 257.76 100.785C256.409 100.182 254.792 100.693 254.515 102.26C254.331 103.283 254.372 104.399 254.536 105.402C254.321 105.464 253.901 105.668 253.604 105.617C252.345 106.733 252.529 108.76 252.898 110.326C251.936 111.206 248.138 111.421 247.974 110.121C247.892 108.463 248.128 106.405 247.032 105.965C245.937 105.525 244.432 105.679 242.733 105.781L242.416 99.9666C240.839 100.304 238.863 100.304 238.147 99.6799C237.461 99.0862 237.4 96.9979 237.809 95.4419L232.701 94.1623C232.476 90.6102 232.158 87.5392 232.926 84.1918C234.707 84.6832 236.867 84.4682 237.369 83.6902C237.911 82.8406 237.932 81.0389 237.666 79.3191C241.341 79.2372 244.473 78.8687 248.22 79.8617C247.452 82.2264 248.046 84.3146 249.172 84.4068C250.472 84.5091 252.437 84.4887 252.878 83.7107C253.502 82.6153 253.369 81.0696 253.031 79.9948V80.0152Z" fill="#AD563C"/>
<path d="M253.03 80.0148C253.378 81.0897 253.501 82.6354 252.876 83.7308C252.436 84.5087 250.471 84.5292 249.171 84.4268C248.045 84.3347 247.451 82.2567 248.219 79.8818C244.472 78.8786 241.34 79.2573 237.665 79.3392C237.921 81.0487 237.91 82.8504 237.368 83.7103C236.866 84.4883 234.706 84.693 232.925 84.2119C232.157 87.5593 232.485 90.6303 232.7 94.1824L237.808 95.462C237.399 97.018 237.46 99.1165 238.146 99.7C238.862 100.324 240.838 100.324 242.415 99.9866L242.732 105.801C244.421 105.699 245.967 105.555 247.031 105.985C248.096 106.415 247.891 108.483 247.973 110.141C248.137 111.441 251.945 111.227 252.897 110.346C254.033 109.302 253.992 107.183 253.603 105.637C253.9 105.688 254.32 105.484 254.535 105.422C255.671 105.873 257.985 105.883 258.036 104.409C258.077 103.252 257.892 102.024 257.749 100.806C259.643 100.468 259.981 98.9425 260.073 96.5983C260.114 95.5337 263.195 95.0116 264.403 95.2368C265.212 89.6373 264.618 84.9182 263.86 79.2061L253.173 79.2471L253.337 74.1594L263.901 74.2106C263.431 75.9509 263.533 78.4998 264.608 79.0219C265.683 79.5439 266.972 79.4518 268.938 79.2983C267.249 82.8913 270.576 83.9764 271.251 85.4608C272.511 88.2042 271.507 91.5106 271.763 94.1619C269.173 95.2573 268.907 97.7448 268.416 100.048C267.228 100.243 264.72 100.273 264.147 101.256C263.727 101.973 263.994 104.696 263.205 104.962C262.049 105.361 259.428 104.716 258.896 106.303C258.589 107.204 258.937 109.65 258.384 110.356C257.831 111.063 255.047 110.387 254.351 110.95C253.654 111.513 253.808 113.653 253.306 114.902C252.805 116.15 248.495 116.294 248.137 115.004C247.973 113.581 248.065 111.677 247.123 111.032C246.376 110.52 243.52 111.206 243.1 110.408C242.558 109.394 243.336 106.548 241.872 105.688C241.074 105.228 238.801 105.494 237.767 105.299C237.552 103.948 237.808 101.369 236.887 100.601C236.201 100.028 233.222 100.816 232.761 100.048C232.168 99.0653 233.191 96.1888 231.646 95.3801C230.663 94.8683 229.066 94.8785 227.387 95.2368C226.353 89.8523 227.438 84.089 230.069 79.4313C231.379 79.5849 232.884 79.1242 233.048 78.4998C233.243 77.7525 233.396 76.4013 233.079 74.6303C238.084 73.8728 243.049 73.8114 248.188 74.3744L248.29 79.4416L253.03 80.0148Z" fill="#F1F2F3"/>
<path d="M207.078 111.811C213.568 111.924 220.058 111.576 227.019 112.354C226.804 114.145 226.763 116.243 227.572 117.195C228.217 117.953 229.988 118.25 231.841 118.076V128.589C228.278 128.005 227.07 130.165 226.896 132.376C225.954 132.94 224.04 132.97 223.047 132.438C222.249 132.008 221.952 129.991 222.464 128.906C222.843 128.108 225.269 128.282 226.333 127.985C227.316 125.211 226.968 121.976 226.927 118.465C224.296 117.39 219.618 117.247 217.018 118.69C216.926 119.826 217.325 122.488 216.578 122.908C215.769 123.368 213.783 123.153 212.626 123.163C211.285 123.163 211.398 120.379 211.551 118.741C208.859 117.124 204.457 117.687 201.489 118.516L201.571 128.62C203.29 128.261 205.368 128.251 205.901 128.947C206.433 129.643 206.351 131.906 206.106 133.236C207.958 134.403 209.76 134.035 211.807 134.403C211.633 136.082 211.992 138.191 212.77 138.723C213.548 139.256 215.912 139.051 216.721 138.559C217.53 138.068 217.12 135.284 217.386 134.383C218.267 132.919 221.235 133.595 222.351 134.25C222.31 134.618 222.187 135.069 222.259 135.376C222.474 136.379 222.494 138.447 221.164 138.805C219.935 139.143 218.4 138.723 217.888 139.204C217.1 139.952 216.803 142.019 217.366 143.954L207.047 144.333L206.689 139.317L201.53 138.58C201.868 136.963 201.827 134.925 201.182 134.281C200.537 133.636 198.336 133.492 196.473 133.963L195.971 118.014L201.079 117.799L201.468 112.384C203.638 111.801 205.307 111.78 207.068 111.811H207.078Z" fill="#F1F2F3"/>
<path d="M226.896 132.377C227.152 132.909 227.49 133.656 227.531 134.271H225.473C224.654 134.291 223.139 134.639 222.351 134.24C221.235 133.595 218.267 132.909 217.386 134.373C217.12 135.274 217.53 138.058 216.721 138.55C215.912 139.041 213.548 139.246 212.77 138.713C211.992 138.181 211.633 136.072 211.807 134.393C209.76 134.035 207.958 134.393 206.106 133.226C206.351 131.896 206.443 129.633 205.901 128.937C205.358 128.241 203.28 128.251 201.571 128.61L201.489 118.506C204.457 117.677 208.859 117.104 211.551 118.731C211.398 120.369 211.285 123.164 212.626 123.154C213.783 123.154 215.769 123.369 216.578 122.898C217.325 122.468 216.926 119.806 217.018 118.68C219.618 117.226 224.296 117.38 226.927 118.455C226.968 121.976 227.316 125.211 226.333 127.975C225.258 128.272 222.832 128.098 222.464 128.896C221.962 129.971 222.259 131.998 223.047 132.428C224.03 132.96 225.944 132.93 226.896 132.367V132.377Z" fill="#AD563C"/>
<path d="M49.6683 140.265L49.5762 140.879C47.8769 140.736 46.1776 140.715 44.4783 140.941L44.3145 140.081C44.4988 139.057 44.7957 136.6 43.8232 136.027C42.5538 135.28 40.5986 135.577 39.4009 135.607L39.2986 135.136L38.9198 130.11C37.5583 130.622 34.4771 130.366 34.0676 128.831C33.3101 125.985 33.3613 122.33 34.1188 119.73C35.3267 119.454 37.7323 119.454 38.3056 118.788C38.8789 118.123 38.3056 115.697 38.8481 114.909C39.6466 113.752 43.9767 113.731 44.335 115.472C44.5398 116.495 44.0791 119.177 45.0618 119.454C46.0445 119.73 48.0919 119.781 48.9927 119.423C49.8935 119.065 49.8014 116.946 49.7809 115.359C49.7809 114.131 53.2614 113.854 54.1008 114.571C54.8276 115.195 55.1245 117.12 54.6331 118.747C56.2915 119.607 57.6837 119.474 59.8231 119.628C60.3657 123.211 60.4066 126.23 59.8231 129.742L54.6331 130.602C55.2473 132.393 54.8993 134.328 54.0189 135.024C53.2921 135.607 51.4188 135.546 49.9447 135.239L49.6479 140.265H49.6683Z" fill="#AD563C"/>
<path d="M53.6397 109.278L60.5802 109.421C60.1708 111.059 60.0479 113.137 60.6416 113.874C61.2354 114.611 63.5796 114.724 65.5757 114.171L65.934 129.854L59.8227 130.315C60.6621 132.434 60.2424 135.003 59.3825 135.075L55.1343 135.433C54.1823 135.515 55.165 139.589 54.2028 140.244C53.1381 140.971 50.8451 140.459 49.6679 140.254L49.9648 135.228C51.4491 135.546 53.3122 135.597 54.039 135.013C54.9193 134.307 55.2674 132.382 54.6532 130.591L59.8432 129.731C60.4267 126.22 60.3755 123.2 59.8432 119.617C57.7139 119.464 56.3115 119.597 54.6532 118.737C55.1343 117.109 54.8477 115.185 54.1209 114.56C53.2917 113.844 49.7907 114.12 49.801 115.349C49.8112 116.935 49.9238 119.044 49.0127 119.413C48.1017 119.781 46.0646 119.72 45.0819 119.443C44.0991 119.167 44.5598 116.485 44.3551 115.461C43.9968 113.711 39.6666 113.731 38.8682 114.898C38.3256 115.686 38.8989 118.112 38.3256 118.778C37.7524 119.443 35.3365 119.443 34.1388 119.72C33.3813 122.32 33.3301 125.974 34.0876 128.82C34.4971 130.356 37.5681 130.611 38.9398 130.1L39.3186 135.126C38.1107 135.341 35.6948 135.873 34.7837 135.157C33.8727 134.44 33.6577 132.208 34.3538 130.407L29 129.833L29.0717 120.457C29.0717 119.464 32.0403 119.279 32.9207 119.177L34.8861 109.37C38.7556 109.37 41.6014 108.787 44.7543 109.882C44.2732 111.54 44.3346 113.926 45.1228 114.263C45.911 114.601 48.1836 114.54 49.0537 114.243C49.9238 113.946 49.1458 111.489 49.6167 110.333C50.323 108.644 52.4932 109.237 53.6704 109.258L53.6397 109.278Z" fill="#F1F2F3"/>
<path d="M49.5757 140.869V145.7L45.3684 145.966C44.7133 144.892 43.8329 143.643 44.4164 142.066C44.5393 141.749 44.5188 141.288 44.4779 140.93C46.1771 140.705 47.8867 140.735 49.5757 140.869Z" fill="#F1F2F3"/>
<path d="M44.3044 140.07C43.1784 140.449 40.7728 141.104 39.8514 140.388C38.5821 139.405 38.9301 136.661 39.3908 135.597C40.5885 135.576 42.5437 135.269 43.8131 136.016C44.7855 136.59 44.4887 139.036 44.3044 140.07Z" fill="#F1F2F3"/>
<path d="M44.4169 142.066C43.4956 141.954 43.7208 141.094 44.4783 140.93C44.5192 141.288 44.5295 141.749 44.4169 142.066Z" fill="#672529"/>
<defs>
<filter id="filter0_f_23_12871" x="29.3" y="41.8" width="281.4" height="264.4" filterUnits="userSpaceOnUse" color-interpolation-filters="sRGB">
<feFlood flood-opacity="0" result="BackgroundImageFix"/>
<feBlend mode="normal" in="SourceGraphic" in2="BackgroundImageFix" result="shape"/>
<feGaussianBlur stdDeviation="10.1" result="effect1_foregroundBlur_23_12871"/>
</filter>
</defs>
</svg>
