<svg width="300" height="300" viewBox="0 0 300 300" fill="none" xmlns="http://www.w3.org/2000/svg">
<path d="M74.0704 258.948L74.0032 267.032L66.3563 267.116C65.8011 267.066 65.3721 267.579 65.6918 268.1L65.7507 283.411L74.062 283.529L82.3734 283.63L82.3398 291.672L90.3567 291.756L90.3062 298.402C90.6343 299.007 90.811 299.579 90.7605 299.983H82.3566L81.9276 296.13L74.9285 295.785C74.3481 294.364 74.3901 293.354 74.4574 291.975L65.9778 291.781L65.6161 283.478L49.5654 283.554L49.3971 291.63L33.4221 292.008C33.1614 295.281 33.195 297.653 33.624 299.966L0 300L0.319668 291.764L24.6986 291.815L24.8247 283.621L16.4293 283.579L16.4545 275.276L24.9089 275.419L24.9425 283.554L33.1193 283.571L33.1445 275.293L49.4392 275.167L49.5065 267.209L57.6748 267.158L57.8347 258.864L74.0704 258.939V258.948Z" fill="#F0F1F2"/>
<path d="M49.5315 258.855L49.5063 267.217L41.2877 267.116L41.2793 259.024L49.5315 258.855Z" fill="#F0F1F2"/>
<path d="M57.8344 258.872L49.5317 258.855L49.498 250.754L57.725 250.771L57.8344 258.872Z" fill="#F0F1F2"/>
<path d="M82.3562 299.983L33.6153 299.966C33.1863 297.661 33.1526 295.281 33.4134 292.008L49.3884 291.63L49.5566 283.554L65.6073 283.478L65.969 291.781L74.4487 291.975C74.3814 293.354 74.3393 294.364 74.9198 295.785L81.9188 296.13L82.3478 299.983H82.3562Z" fill="#C0BEC1"/>
<path d="M300 299.992H283.218L283.15 293.304C283.092 292.311 282.427 291.781 281.476 291.79L268.034 291.764L266.755 291.571L266.704 283.596L258.544 283.461L258.469 276.387C258.519 275.73 259.192 275.428 259.638 275.461H274.763L274.898 267.697L274.326 267.116H266.704V259.049H274.738L274.805 266.788L275.251 267.167L283.1 267.284L283.176 275.343L274.772 275.402L274.831 283.537L291.268 283.579L291.369 291.748L299.706 291.79C299.622 294.835 299.403 297.443 300 299.975V299.992Z" fill="#F0F1F2"/>
<path d="M258.409 291.461C261.126 291.975 264.012 291.865 266.754 291.571L268.033 291.764L281.476 291.79C282.418 291.781 283.091 292.311 283.15 293.304L283.217 300H242.03V291.882L258.014 291.739C258.14 291.613 258.274 291.52 258.409 291.47V291.461Z" fill="#C0BEC1"/>
<path d="M250.435 283.655L258.511 283.84L258.41 291.462C258.276 291.512 258.15 291.605 258.015 291.731L242.032 291.874V300L226.099 299.975C225.485 297.417 225.527 294.616 225.947 291.764H242.082L242.048 283.63L250.427 283.655H250.435Z" fill="#F0F1F2"/>
<path d="M65.7002 268.109C65.3806 267.587 65.8096 267.074 66.3648 267.125C66.533 267.663 66.2049 268.117 65.7002 268.109Z" fill="#615963"/>
<path d="M233.735 242.931C233.701 243.309 233.811 243.848 233.962 244.504V259.107L242.097 258.973L242.131 267.183L250.299 267.2L250.223 281.535C250.148 282.443 250.24 283.125 250.434 283.663L242.055 283.638L242.089 291.756H225.954C225.533 294.624 225.491 297.426 226.105 299.983L90.7678 300C90.8183 299.596 90.6416 299.016 90.3135 298.418L90.364 291.773L82.3471 291.688L82.3807 283.646L74.0693 283.545L74.1366 267.242L82.1452 267.183L82.3555 258.973L90.4145 258.864L102.604 258.922L102.772 267.175L119 267.267L119.126 275.368L175.909 275.537L176.506 275.192L176.91 267.192L209.247 267.166L209.424 259.04L217.659 258.981L217.617 250.754L225.777 250.519L225.903 242.678L233.735 242.947V242.931ZM176.994 275.621L176.557 276.193L176.885 283.503L184.355 283.444C184.742 280.677 184.935 278.094 184.363 275.352L176.994 275.612V275.621ZM176.439 283.764L168.279 283.798L168.313 291.781L176.472 291.747L176.439 283.764Z" fill="#615963"/>
<path d="M259.637 275.461C259.199 275.428 258.518 275.739 258.467 276.387L258.543 283.461L266.703 283.596L266.754 291.571C264.011 291.865 261.126 291.983 258.409 291.461L258.51 283.84L250.434 283.655C250.24 283.125 250.148 282.435 250.223 281.526L250.299 267.192L242.131 267.175L242.097 258.965L233.971 259.099V244.495C233.811 243.839 233.702 243.301 233.735 242.922L233.769 234.518L225.676 234.392L225.701 226.148L217.558 226.35L209.297 226.232L209.163 218.114H152.111L151.959 226.157L135.698 226.333L135.723 234.51L119.134 234.401L119.042 242.695L102.89 242.645L102.798 250.796H92.4083C91.1381 250.628 90.2211 251.646 90.4819 252.908L90.4146 258.838L82.3556 258.948L82.1453 267.158L74.1368 267.217L74.0695 283.52L65.7581 283.402L65.6992 268.092C66.204 268.092 66.532 267.646 66.3638 267.108L74.0106 267.024L74.0779 258.939L82.2294 258.721L82.3977 250.527L89.8089 250.3L90.0529 243.839C90.524 243.385 91.0203 243.023 91.5755 242.746H102.461L102.638 234.476L118.327 234.35C118.747 232.92 118.789 231.717 118.571 230.245C119.294 228.941 119.412 227.679 119.378 226.106L135.227 225.946L135.404 219.343C135.463 218.644 135.757 218.182 136.38 217.719L151.143 217.576L151.337 211.73C151.194 210.686 151.606 210.005 152.094 209.626C152.472 209.408 153.002 209.248 153.835 209.29H207.279C207.851 209.971 208.355 210.131 209.356 210.064C209.121 212.066 209.096 213.454 210.198 215.145C209.567 216.18 209.97 217.273 210.896 217.685L224.389 217.66C225.012 217.786 225.491 218.14 225.929 218.661L226.063 225.972L233.634 226.106L233.718 234.375L242.047 234.51L242.122 258.721L250.35 258.796L250.459 267.167L258.737 267.276L259.014 273.594L259.645 275.436L259.637 275.461Z" fill="#300F0D"/>
<path d="M217.559 226.35L217.627 234.325L225.669 234.392L233.762 234.518L233.728 242.922L225.896 242.653L225.77 250.493L217.61 250.729L217.652 258.956L209.416 259.015L209.24 267.141L176.903 267.167L176.499 275.167L176.995 275.613L184.364 275.352C184.936 278.094 184.743 280.677 184.356 283.445L176.886 283.503L176.558 276.193C176.213 276.084 175.994 275.857 175.902 275.512L119.118 275.343L118.992 267.242L102.765 267.15L102.597 258.897L90.4072 258.839L90.4745 252.908C90.2137 251.646 91.1391 250.628 92.4009 250.796H102.79L102.883 242.645L119.034 242.695L119.127 234.401L135.716 234.51L135.691 226.333L151.952 226.157L152.103 218.098H209.155L209.29 226.224L217.551 226.342L217.559 226.35Z" fill="#95847C"/>
<path d="M176.443 283.753L168.283 283.786L168.315 291.769L176.475 291.736L176.443 283.753Z" fill="#95847C"/>
<path d="M225.668 234.392L217.626 234.325L217.559 226.35L225.701 226.148L225.668 234.392Z" fill="#615963"/>
<path d="M145.624 101.788L159.92 101.851L160.238 108.912L168.83 109.404L168.8 109.415L168.943 114.463L169.118 135.964L175.809 136.125L175.727 157.487C175.727 160.097 174.709 163.114 175.922 165.841L191.379 165.991L192.252 172.912L205.951 173.361C208.5 173.447 208.829 178.282 208.192 180.795L222.148 180.966L223.546 188.604L231.881 188.679L232.087 196.617L239.825 196.883L240.134 204.458L248.335 204.628C248.171 207.859 247.647 210.736 249.044 213.068C249.876 214.469 252.127 214.662 254.964 213.935L255.189 239.768L215.417 239.468C214.441 239.468 214.338 235.917 214.913 235.158C215.489 234.399 217.904 234.484 218.377 233.65C219.548 231.585 220.032 229.435 223.402 229.66L223.279 218.299C223.269 217.294 219.694 217.262 219.61 218.438L218.9 228.504C216.794 228.066 214.934 228.269 214.677 229.007L213.752 231.724C212.108 232.89 209.713 232.783 207.688 233.061L207.195 239.779L197.761 239.896C197.062 239.896 196.61 240.324 196.743 240.923V245.203C196.404 246.379 195.314 247.256 193.649 247.363L180.31 248.208L179.95 239.854L172.026 239.49L171.78 231.542L164.895 231.275L164.617 223.851L150.599 223.808C150.003 221.551 150.085 219.882 150.208 217.572L140.383 217.358C141.894 221.145 139.54 222.878 138.554 225.295C137.053 228.943 138.523 233.714 138.122 237.725C139.232 238.72 140.332 238.913 141.853 239.191L142.141 247.759L107.353 248.358C106.407 248.379 106.283 246.4 106.345 245.758C108.307 245.095 107.116 240.069 105.431 240.1L95.8516 240.26L96.0469 233.415C96.0673 232.634 95.5436 232.206 94.9785 232.569L90.1582 233.35C89.2641 233.5 87.8459 233.393 87.0547 232.59C86.6437 232.173 86.4276 231.221 86.4688 230.472L86.3555 216.833C84.1666 215.946 82.07 216.331 79.0488 216.095L79.1211 168.75C81.7003 167.681 83.9613 168.397 87.0029 168.28L87.3838 144.917L87.6855 143.24C85.7529 142.665 86.6903 139.247 87.7637 136.5C89.4996 135.763 89.5005 136.36 90.6934 136.029L90.9092 109.5C93.0978 109.307 94.5366 109.531 96.376 108.515C95.924 106.226 96.438 103.488 97.8047 102.792C99.1716 102.097 101.31 102.836 103.057 102.397C105.307 101.83 105.862 98.2244 105.102 94.6519L145.46 94.2886L145.624 101.788ZM209.631 198.285C207.411 197.835 205.324 197.708 202.734 198.189L201.738 205.259L195.006 205.837L194.955 213.089C197.617 213.613 199.908 213.806 202.755 212.875C202.005 210.137 201.913 207.014 202.981 206.051C204.441 204.746 207.154 205.227 209.271 205.708C209.898 203.206 209.816 201.183 209.631 198.285ZM216.517 195.205L216.917 204.842L220.299 204.693L219.897 195.054L216.517 195.205ZM202.17 182.603C201.06 181.287 197.648 181.726 195.757 182.389L194.873 188.979L188.84 189.075L188.347 195.974L181.379 196.371C181.163 198.414 180.67 201.975 182.181 203.601C183.486 205.002 187.175 204.371 188.594 203.644L188.614 203.633C188.203 200.777 188.306 198.617 188.984 197.429L195.489 196.905L195.746 189.621L202.602 189.46C203.013 187.428 203.496 184.186 202.17 182.603ZM208.531 196.252L215.181 196.306L215.242 188.262L208.593 188.208L208.531 196.252Z" fill="#AD563C"/>
<path d="M169.333 127.336L169.414 136.093L177.949 136.423L177.837 168.238L177.716 175.739L169.161 175.44L169.049 143.892L161 143.779L161.03 120.721C163.825 120.67 166.579 120.824 169.181 120L169.322 127.336H169.333Z" fill="#D1AC80"/>
<path d="M86.0671 175L86.1886 216.624L80.4478 216.675L79.1013 216.552L79 175.319L86.0671 175Z" fill="#D1AC80"/>
<path d="M114.292 240.031L114.363 247.552L106 247.686L106.01 240L114.292 240.031Z" fill="#D1AC80"/>
<path d="M101.564 241.109C99.3568 241.377 95.9144 242.243 93.5857 240.759C93.282 239.389 94.4261 235.371 92.8568 234.206C90.6597 232.579 87.2173 233.65 85 233.66C85 232.96 85.1924 232.125 85.4151 231.548C87.1161 227.2 85.7897 222.482 86.1542 217.371C88.6652 216.856 90.7103 216.877 93.2213 217.433L93.3529 233.702L101.534 233.794C102.04 236.617 101.756 238.884 101.544 241.109H101.564Z" fill="#D1AC80"/>
<path d="M257.093 239.19L248.467 239.272L249.105 213.906L257.042 214.205L257.093 239.19Z" fill="#D1AC80"/>
<path d="M232.085 195.968L224.552 195.618L224.066 187.52L231.984 187.746L232.085 195.968Z" fill="#D1AC80"/>
<path d="M248.964 211.247C247.101 211.711 243.092 212.772 241.371 211C239.822 209.403 241.341 205.766 240.905 204.251L248.732 204.179L248.964 211.247Z" fill="#D1AC80"/>
<path d="M240.207 201.799C240.328 202.479 239.964 203.901 238.87 204.066C236.805 204.375 234.982 204.251 232.806 203.839L232.421 195.988C234.689 195.669 237.048 195.339 239.66 195.803L240.197 201.799H240.207Z" fill="#D1AC80"/>
<path d="M98.5572 116.868C100.248 118.062 102.496 118.395 105.301 117.873C106.506 118.03 107.473 117.56 108.203 116.45C110.079 115.967 112.27 116.143 114.435 116.378C114.499 118.01 114.934 120.648 114.134 121.999C113.544 122.26 111.399 121.842 111.399 122.828C113.314 122.671 113.115 125.903 111.303 126.197C110.233 126.595 109.535 125.877 109.202 124.049L103.021 124.173C103.175 125.126 102.739 125.635 101.836 126.046C99.9854 127.065 100.094 125.681 100.254 123.997C99.7485 123.879 99.3962 123.481 99.1977 122.808C99.0503 123.389 98.8326 123.396 98.5444 122.854C98.365 123.422 98.1537 123.416 97.9039 122.854L97.7182 121.581C95.88 121.229 96.0209 117.945 97.6669 117.344C97.8334 117.024 98.1345 116.45 98.1345 116.091L98.5508 116.861L98.5572 116.868Z" fill="#6A2929"/>
<path d="M98.1246 128.697L98.8976 127.358C101.176 127.793 102.995 127.358 104.357 126.073C105.745 124.638 106.293 125.903 106.409 127.671C108.502 127.419 110.219 127.664 111.574 128.405C111.478 130.404 110.815 131.934 108.81 132.457C110.226 133.762 110.144 135.754 108.277 136.55L107.271 137.699C106.279 137.794 99.3081 137.631 98.9455 137.434C98.5008 137.196 98.1656 136.849 97.9057 136.421C97.8509 133.939 97.6799 131.492 97.3994 129.071V122.272H98.0835C98.8429 123.829 98.494 126.651 98.1314 128.697H98.1246Z" fill="#88452E"/>
<path d="M111.574 125.993L111.452 128.718C109.635 129.568 106.706 129.819 104.726 128.913C104.977 128 105.085 126.467 104.305 126.328C103.831 128.342 101.715 127.826 101.559 125.84C101.451 124.844 101.342 123.854 101.654 122.461L111.181 122.272C110.909 124.028 111.093 125.004 111.574 125.993Z" fill="#110E0D"/>
<path d="M101.224 126.006L103.474 126.517L103.408 129.484L98.4121 129.324C98.5844 126.962 98.7566 124.65 98.9345 122.375C99.3457 122.339 100.04 122.164 100.379 122.375C101.446 123.046 99.8847 125.693 101.224 125.999V126.006Z" fill="#E7CDAA"/>
<path d="M98.4739 129.477L98.4121 122.325L99.3129 122.272C99.207 124.528 99.993 127.055 98.4828 129.484L98.4739 129.477Z" fill="#F3E1C8"/>
<path d="M137.522 119.375C141.34 119.88 145.269 120.041 149.315 119.873C149.45 121.781 149.691 123.611 150.048 125.356L149.888 125.964C149.826 126.462 149.697 127.199 149.346 127.257C148.447 127.406 141.753 127.484 141.433 127.238C141.002 126.902 140.7 126.507 140.577 125.945C140.232 127.962 134.961 127.872 134.456 125.945C134.32 126.52 134.111 126.527 133.84 125.99C133.667 126.533 133.458 126.52 133.218 125.99C132.51 129.061 129.819 126.598 129.929 123.902C128.95 124.063 128.507 123.837 128.064 122.764C128.088 120.701 127.325 118.419 128.181 116.091L136.95 116.291C137.639 116.744 137.652 118.625 137.522 119.388V119.375Z" fill="#652629"/>
<path d="M149.973 136.878C149.816 138.785 150.324 141.066 149.816 142.738C149.159 142.795 147.624 142.662 147.267 143.093C146.91 143.524 146.791 144.639 146.973 145.874L137.835 145.969C137.158 145.976 136.814 144.056 137.29 143.144L134.133 142.555C133.839 141.439 133.613 139.932 134.302 139.045L134.878 137.79L145.914 138.012C145.977 136.802 146.484 135.623 147.837 135.668C149.91 135.737 148.777 137.619 148.695 137.505C147.868 136.365 148.745 136.086 149.979 136.871L149.973 136.878Z" fill="#6B2728"/>
<path d="M118.225 145.773C117.944 147.691 115.162 147.205 115.021 145.384L114.709 139.596C113.815 139.161 112.883 139.155 111.575 138.973L111.594 132.576L124.211 132.705C124.785 132.705 124.893 134.922 124.517 135.343C124.045 135.875 122.417 135.596 121.652 136.147C121.205 136.465 121.479 138.15 121.135 138.584C120.656 139.194 119.361 139.433 118.097 139.142L118.225 145.76V145.773Z" fill="#642427"/>
<path d="M118.377 146.336C119.119 146.425 120.884 146.311 120.996 146.722L121.738 149.437C121.919 150.095 124.107 149.608 124.494 150.171C124.93 150.81 124.787 152.829 123.951 152.898C121.732 153.076 119.986 153.202 118.071 152.582C118.215 151.519 118.208 150.272 117.809 149.905C117.41 149.538 115.957 149.608 115.502 149.893C115.047 150.177 115.159 151.69 115.134 152.525C113.613 153.278 110.221 153.538 108.917 152.462C108.119 151.804 108.743 150.146 109.235 149.905C109.728 149.665 111.281 149.899 111.617 149.45C112.041 148.88 111.686 146.817 112.815 146.551L115.253 145.969L118.383 146.349L118.377 146.336Z" fill="#692526"/>
<path d="M108.29 136.217C110.042 136.836 109.928 137.882 108.17 138.323L104.632 138.953L104.265 141.848L96.9893 141.732C95.8325 141.053 96.4878 140.661 97.6981 140.52C98.1662 139.314 98.2063 138.023 97.658 136.83C97.0963 134.644 97.3437 131.866 97.658 129.485C99.1158 131.015 97.7918 133.941 98.4003 135.263C99.0422 136.658 104.171 135.091 108.29 136.211V136.217Z" fill="#672527"/>
<path d="M149.596 126.412C150.229 127.018 150.198 129.072 149.498 129.653C148.583 130.466 147.833 131.408 147.25 132.496L140.327 132.576C138.404 132.209 138.478 126.932 140.315 126.394L149.603 126.419L149.596 126.412Z" fill="#EBD0A7"/>
<path d="M140.732 132.564C142.952 133.588 145.44 133.003 148.023 133.216C145.688 134.234 143.424 133.594 140.949 134.015L140.324 135.295C139.699 136.569 135.387 133.003 132.332 135.386C133.257 135.856 134.035 135.697 134.258 136.014C134.615 136.532 134.469 137.819 134.437 138.471L134.265 141.848C133.493 141.062 133.659 139.861 133.735 138.843C132.338 137.051 131.885 136.746 132.37 137.935L131.082 138.666L130.412 136.508C130.17 135.728 128.358 136.112 127.81 135.953C127.612 134.935 128.224 134.423 129.653 134.411C129.277 133.563 129.666 133.027 130.616 132.588C130.756 132.058 130.948 132.076 131.19 132.606C131.407 130.851 132.593 130.924 133.104 132.576C133.333 130.509 133.544 128.461 133.742 126.437L134.379 126.394L135.668 127.046L135.84 131.491C138.34 131.064 139.967 131.424 140.732 132.564Z" fill="#85472E"/>
<path d="M132.483 125.782C132.971 127.633 132.932 130.523 132.494 132.542L130.83 132.575C130.697 131.516 130.547 130.349 130.375 129.088C130.336 130.275 130.153 130.335 129.737 129.242L127.773 129.276L127.846 122.435C128.678 122.261 130.575 122.006 130.652 123.012L130.841 125.353C130.885 125.923 131.95 126.023 132.488 125.789L132.483 125.782Z" fill="#E7C7A1"/>
<path d="M129.938 132.439C129.692 131.295 130.128 131.235 130.597 132.343C130.608 133.144 131.111 134.366 130.535 134.926C129.854 135.582 128.866 135.468 128.146 135.667C127.604 135.113 127.755 133.475 127.967 132.343L129.944 132.439H129.938Z" fill="#62211E"/>
<path d="M111.575 126.394L111.66 122.272L113.995 122.304C114.707 122.288 114.865 125.619 114.142 126.098C113.525 126.505 112.389 126.29 111.581 126.386L111.575 126.394Z" fill="#F0D2B4"/>
<path d="M149.524 129.699C150.265 129.776 150.159 132.029 149.589 132.576L147.368 132.429C147.05 131.74 146.786 130.735 147.303 129.946C147.667 129.388 148.843 129.376 149.524 129.699Z" fill="#E5BD8E"/>
<path d="M133.722 138.571C132.987 138.577 131.076 139.084 130.84 138.398C130.937 137.814 130.702 136.812 130.882 136.257C131.103 135.559 133.071 135.434 133.576 136.132C134.047 136.782 133.777 137.975 133.722 138.571Z" fill="#6A2722"/>
<path d="M150.831 132.522L150.107 132.576L150.048 129.644L150.134 126.466L150.831 126.394C151.137 128.409 151.137 130.501 150.831 132.522Z" fill="#B7825C"/>
<path d="M139.911 126.4L139.923 132.396C138.039 132.414 136.093 132.817 133.94 132.354L133.849 126.394H139.911V126.4Z" fill="#0D0C0B"/>
<path d="M132.855 132.576L132.835 126.418C133.116 126.356 133.577 126.436 133.847 126.418V131.928C133.847 132.417 133.206 132.564 132.845 132.57L132.855 132.576Z" fill="#EFD9B6"/>
<path d="M147.176 78.6282L147.341 86.3514L161.369 86.5119L161.4 93.4543L169.396 93.4971L169.54 100.782L176.209 101.06L176.281 113.779L183.773 114.206L183.702 149.539L193.496 149.721C192.663 151.914 192.9 156.652 194.421 156.684L209.179 157.037L209.456 164.611L225.376 164.836L225.458 172.356L232.611 172.602L232.755 179.982L240.884 180.196L240.987 187.481L248.705 187.727L248.982 195.75L256.998 195.964L257.153 203.43L265.282 203.751C265.179 205.645 264.665 208.105 265.96 209.902C267.378 210.908 270.585 209.945 272.856 210.726L273 239.811L265.385 240.068L265.292 250.701L265.241 254.669L257.255 254.819L257.111 262.382C254.367 262.981 252.055 262.735 249.147 262.424L249.023 270.993L232.395 271.207L232.446 279.283L214.204 279.219C214.369 277.176 215.109 273.614 213.927 272.18C211.871 270.715 208.531 271.624 206.476 271.806L206.25 264.286C201.121 265.024 197.339 261.152 190.392 262.82L190.289 270.009H142.511L142.223 262.371H106.725C106.787 260.093 106.859 258.809 106.304 256.509L95.1327 256.809C94.4441 258.114 94.5058 260.478 94.7422 262.018L88.2059 262.157L87.8976 256.787L79.6347 256.83V248.764C76.6543 248.882 74.2906 249.107 71.8138 248.497C70.9916 239.544 71.8754 231.467 71.8343 222.792L65.1747 222.717L65 163.199L72.1426 162.942L71.9474 144.115L79.943 143.869L79.9019 103.028C82.5226 102.14 85.0611 102.14 87.7845 103.007V136.296L87.7948 142.778L87.4145 144.886L79.7889 144.747L79.8197 167.296L72.9134 167.52L72.8723 215.892C75.2361 215.807 77.1785 215.582 79.7992 216.32L79.9328 231.168L80.0561 239.95V248.251L86.9932 248.208L87.9695 248.337C87.8359 249.749 86.9418 253.022 88.2573 254.487C89.5728 255.953 93.0978 255.375 94.6291 254.391L94.8963 248.39L106.407 248.443L106.951 254.616L148.615 254.691L149.365 254.733C149.006 257.022 148.595 259.408 149.304 262.264L185.284 262.211L185.603 255.643L196.25 255.364C196.815 252.744 196.599 250.572 196.538 248.326C196.867 248.155 197.483 248.219 197.812 248.219L207.134 248.123L208.007 248.304L207.76 262.414C210.802 263.163 213.022 262.756 215.283 262.317L215.427 263.195L215.314 269.677C215.304 270.351 215.53 270.854 216.219 270.854H232.272L232.374 263.109L232.6 262.071L248.828 262.414L248.623 256.819C248.581 255.782 249.177 255.108 249.63 254.819C250.082 254.53 250.914 254.669 251.315 254.616L254.306 254.723C254.933 254.733 256.176 254.84 256.505 253.717C257.317 250.989 256.505 248.465 256.495 246.304L256.402 239.811L265.097 239.736V212.523L256.515 212.127L256.392 204.457H248.191C248.571 201.334 248.756 198.97 248.139 196.253L240.36 196.231L240.103 188.54L231.973 188.294C232.333 186.326 232.929 182.4 231.521 181.288C229.271 179.523 225.715 180.635 223.608 180.442C223.885 177.458 224.019 175.875 223.433 173.222L208.963 173.179C208.315 170.869 208.541 168.654 208.531 165.477L193.146 165.349L192.612 157.775L175.778 157.444L175.86 136.082L175.942 114.731L168.995 114.431L168.851 109.382L168.82 101.819L160.588 101.434L160.64 94.3314L146.313 94.2245C146.19 91.5288 146.663 89.0685 145.851 86.5119L104.742 86.6617L104.269 94.3849L96.2015 94.4705L95.9652 101.916C93.1595 102.397 90.8574 102.376 88.1031 101.991L88.1237 94.3742L96.1707 94.1924C96.0268 92.3846 95.2971 88.7369 96.5407 87.389C98.3495 85.9022 101.751 86.7152 104.177 86.8114L104.444 78.5747H147.238L147.176 78.6282Z" fill="#F1F2F3"/>
<path d="M196.743 245.192C197.483 246.015 197.802 247.128 197.761 248.251C197.432 248.251 196.815 248.187 196.486 248.358C193.455 249.93 190.125 248.893 186.281 249.395C185.161 249.545 184.76 253.129 185.048 254.744L149.324 254.765L148.574 254.723C148.677 252.904 149.119 249.706 147.742 248.133C146.262 246.443 143.569 247.716 142.151 247.748L141.863 239.18C140.342 238.902 139.242 238.709 138.132 237.714C138.544 233.703 137.064 228.932 138.564 225.284C139.551 222.878 141.904 221.134 140.393 217.347L150.218 217.561C150.095 219.861 150.013 221.54 150.609 223.797L164.627 223.84L164.905 231.264L171.79 231.531L172.037 239.479L179.961 239.843L180.32 248.197L193.66 247.352C195.325 247.245 196.414 246.368 196.764 245.192H196.743Z" fill="#672529"/>
<path d="M255.18 239.768L256.341 239.854L256.433 246.347L249.013 246.657C248.798 249.342 249.352 252.444 248.356 254.883C243.464 256.948 238.664 254.851 233.885 255.033C231.861 255.878 232.231 260.531 232.56 262.114L232.333 263.152L215.386 263.238L215.243 262.36C214.585 258.296 216.178 253.396 214.503 249.107C213.136 247.609 209.456 248.647 207.966 248.347L207.093 248.165C207.257 246.015 207.38 243.79 206.682 241.287L196.754 240.934C196.62 240.335 197.072 239.907 197.771 239.907L207.206 239.79L207.699 233.072C209.734 232.794 212.118 232.901 213.763 231.735L214.688 229.018C214.944 228.28 216.794 228.066 218.911 228.515L219.621 218.449C219.703 217.272 223.279 217.294 223.29 218.31L223.413 229.67C220.042 229.446 219.559 231.596 218.387 233.66C217.915 234.495 215.499 234.409 214.924 235.169C214.348 235.928 214.451 239.469 215.427 239.479L255.2 239.779L255.18 239.768Z" fill="#672529"/>
<path d="M87.3733 144.896L86.993 168.259C83.951 168.376 81.6797 167.66 79.1104 168.729L79.0385 216.074C82.0702 216.31 84.1668 215.914 86.3456 216.813L86.4586 230.451C84.2387 230.045 82.0189 230.398 79.8915 231.189L79.7579 216.342C77.1372 215.604 75.1948 215.828 72.8311 215.914L72.8722 167.542L79.7784 167.317L79.7476 144.768L87.3733 144.907V144.896Z" fill="#031F40"/>
<path d="M256.342 239.843L256.229 213.186L249.045 213.058C247.647 210.737 248.171 207.848 248.336 204.618L240.134 204.447L239.826 196.873L232.087 196.606L231.882 188.669L223.547 188.594L222.149 180.956L208.193 180.785C208.84 178.271 208.501 173.425 205.953 173.35L192.253 172.901L191.38 165.98L175.923 165.83C174.71 163.092 175.717 160.086 175.727 157.476L192.561 157.808L193.096 165.381L208.481 165.51C208.481 168.687 208.265 170.901 208.912 173.211L223.383 173.254C223.958 175.907 223.835 177.49 223.557 180.475C225.654 180.667 229.22 179.555 231.471 181.32C232.879 182.432 232.283 186.358 231.923 188.326L240.052 188.572L240.309 196.263L248.089 196.285C248.706 199.002 248.521 201.366 248.14 204.489H256.342L256.465 212.159L265.026 212.555V239.768L256.342 239.843Z" fill="#031F40"/>
<path d="M105.42 240.089C105.78 241.566 106.489 244.186 106.335 245.748C106.273 246.39 106.407 248.358 107.342 248.347L142.13 247.748C143.549 247.727 146.241 246.454 147.721 248.134C149.109 249.706 148.667 252.904 148.554 254.723L106.89 254.648L106.345 248.476L94.8348 248.422L94.5676 254.423C93.0363 255.418 89.5112 255.974 88.1958 254.52C86.8803 253.065 87.7744 249.781 87.908 248.369L94.9993 248.208L95.8112 240.261L105.389 240.1L105.42 240.089Z" fill="#031F40"/>
<path d="M86.4494 230.451C86.4186 231.2 86.6241 232.152 87.0352 232.569C87.8266 233.371 89.2448 233.478 90.1389 233.329L90.5603 240.26L95.2775 240.121L94.9589 232.548C95.5242 232.184 96.0483 232.612 96.0278 233.393L95.8325 240.239L95.0206 248.187L87.9293 248.347L86.953 248.219C87.0455 246.015 87.1791 243.769 86.583 241.17L80.0159 239.961L79.8926 231.179C82.02 230.387 84.2398 230.034 86.4597 230.44L86.4494 230.451Z" fill="#672529"/>
<path d="M188.613 203.634C187.195 204.361 183.505 204.992 182.2 203.591C180.689 201.976 181.193 198.403 181.398 196.36L188.366 195.964L188.859 189.064L194.892 188.968L195.776 182.379C197.667 181.705 201.079 181.277 202.189 182.593C203.515 184.176 203.032 187.417 202.621 189.449L195.766 189.61L195.509 196.894L189.003 197.419C188.325 198.606 188.212 200.767 188.633 203.623L188.613 203.634Z" fill="#672529"/>
<path d="M175.809 136.125L169.118 135.964L168.943 114.463L175.891 114.774L175.809 136.125Z" fill="#031F40"/>
<path d="M202.755 212.876C199.909 213.807 197.617 213.614 194.955 213.09L195.006 205.838L201.738 205.26L202.735 198.189C205.335 197.708 207.411 197.836 209.631 198.285C209.816 201.184 209.898 203.195 209.271 205.709C207.154 205.228 204.441 204.746 202.982 206.051C201.913 207.014 202.005 210.138 202.755 212.876Z" fill="#672529"/>
<path d="M207.082 248.155L197.761 248.251C197.802 247.128 197.483 246.026 196.743 245.192V240.913L206.661 241.266C207.36 243.769 207.236 245.994 207.072 248.144L207.082 248.155Z" fill="#031F40"/>
<path d="M208.596 188.192L208.535 196.236L215.184 196.291L215.245 188.247L208.596 188.192Z" fill="#672529"/>
<path d="M94.9675 232.559L95.2861 240.132L90.5688 240.271L90.1475 233.339L94.9675 232.559Z" fill="#031F40"/>
<path d="M256.341 239.843L255.18 239.757L254.954 213.924C252.117 214.651 249.877 214.459 249.034 213.058L256.218 213.186L256.331 239.843H256.341Z" fill="#D1AC80"/>
<path d="M219.903 195.052L216.515 195.205L216.915 204.834L220.304 204.681L219.903 195.052Z" fill="#672529"/>
<path d="M106.345 245.748C106.499 244.186 105.78 241.555 105.431 240.089C107.116 240.068 108.308 245.096 106.345 245.748Z" fill="#672529"/>
<path d="M86.9518 248.241L79.9941 248.283V239.982L86.5715 241.191C87.1676 243.791 87.0443 246.037 86.9415 248.241H86.9518Z" fill="#031F40"/>
<path d="M256.433 246.347C256.444 248.508 257.256 251.032 256.444 253.76C256.105 254.883 254.861 254.776 254.244 254.766C254.152 253.985 253.432 253.728 252.672 253.782C252.086 253.824 251.624 254.242 251.254 254.659C250.853 254.702 250.041 254.562 249.568 254.862C249.096 255.162 248.53 255.825 248.561 256.862L248.767 262.457L232.539 262.115C232.22 260.531 231.85 255.878 233.865 255.033C238.644 254.851 243.443 256.959 248.335 254.883C249.342 252.444 248.777 249.353 248.993 246.657L256.413 246.347H256.433Z" fill="#031F40"/>
<path d="M254.246 254.755L251.255 254.648C251.635 254.23 252.098 253.813 252.673 253.77C253.423 253.717 254.153 253.974 254.246 254.755Z" fill="#672529"/>
<path d="M196.487 248.358C196.549 250.594 196.755 252.776 196.2 255.397L185.552 255.675L185.234 262.243L149.253 262.297C148.544 259.441 148.966 257.055 149.315 254.766L185.039 254.745C184.751 253.119 185.152 249.546 186.272 249.396C190.126 248.893 193.445 249.92 196.477 248.358H196.487Z" fill="#031F40"/>
<path d="M232.322 263.141L232.22 270.875L216.167 270.886L215.272 269.709L215.375 263.227L232.322 263.141Z" fill="#031F40"/>
<path d="M215.242 262.35C212.97 262.789 210.761 263.195 207.719 262.446L207.965 248.337C209.466 248.647 213.135 247.61 214.502 249.097C216.177 253.375 214.584 258.285 215.242 262.35Z" fill="#031F40"/>
<path d="M216.167 270.886C215.489 270.886 215.253 270.383 215.263 269.709L216.167 270.886Z" fill="#672529"/>
<path d="M90.8273 136.007L87.7441 136.542V101.776H95.9659V94.2886H105.729V102.311L97.5075 103.381L96.4798 109.264L91.3412 109.799L90.8273 136.007Z" fill="#031F40"/>
<path d="M103.673 94.8232L104.701 86.2656H146.323V94.2884H160.711V101.241L168.933 101.776V109.799H159.684V102.311H145.295V94.8232H103.673Z" fill="#031F40"/>
<path d="M131.946 162.545L131.914 162.946L110.498 163C109.886 161.159 109.746 159.2 110.606 157.219C112.195 157.619 114.3 157.543 115.02 156.861C115.739 156.179 115.804 154.079 115.492 152.097L132 152L131.946 162.545Z" fill="#AD563C"/>
<path d="M220.487 121.783C219.589 121.679 218.031 121.471 217.099 121.992C216.372 122.397 216.474 124.687 215.417 125.404L209.346 129.569C207.641 130.737 209.301 133.687 211.063 133.19C211.802 132.981 212.916 133.074 213.928 133.109C215.201 133.155 217.861 132.53 219.305 133.583C220.817 134.682 219.68 137.505 219.782 138.8L202.628 138.904L202.73 131.871L202.707 130.703C202.764 130.147 202.935 129.164 202.73 128.667C206.606 129.152 210.87 126.203 211.722 121.633C208.289 120.812 205.424 121.078 202.491 121.17L202.832 115.629L220.1 115.467L220.498 121.772L220.487 121.783Z" fill="#D1AC80"/>
<path d="M249.037 99.859L248.992 100.634C247.776 100.299 244.99 99.6624 243.706 100.831C241.716 102.647 243.001 106.233 244.956 106.06L248.924 105.713L260.235 105.921L260.258 112.214L233.202 112.295C233.133 110.791 232.065 107.61 233.759 106.268C234.759 106.013 237.351 106.025 237.453 104.671C237.51 103.873 237.021 101.166 237.919 100.819L242.455 99.0724C243.501 98.6675 243.274 96.0763 243.558 94.4683C244.718 94.6765 246.809 93.8089 248.128 95.6367C248.81 96.5853 249.151 98.2742 249.049 99.859H249.037Z" fill="#D1AC80"/>
<path d="M260.305 88.4419L255.928 88.1527C255.189 88.118 254.61 88.5576 254.746 89.2054C254.985 90.397 255.394 93.2312 253.825 94.0872C252.848 94.5615 250.165 93.7054 249.017 95.0242V92.6065L249.028 90.3854C249.028 89.9921 249.233 89.4021 249.062 88.708C248.926 88.1759 248.516 88.1759 247.925 88.1759L234.704 88.3957L234.75 82.3687L260.123 82.3918L260.316 88.4419H260.305Z" fill="#D1AC80"/>
<path d="M260.247 112.214L260.213 118.068L233.43 118.033L233.191 112.295L260.247 112.214Z" fill="#0E1116"/>
<path d="M247.913 88.1871C247.936 89.0894 248.3 89.8991 249.016 90.385V92.6061C247.333 92.9647 247.515 94.885 249.004 95.0238C250.153 93.7051 252.835 94.5611 253.813 94.0868C255.382 93.2308 254.973 90.3966 254.734 89.205L255.916 88.1523L260.293 88.4415C260.338 89.9223 261.362 93.4968 259.474 94.0058L255.621 95.047L254.291 99.0611C253.711 100.796 250.369 99.9519 249.016 99.8593C249.118 98.2745 248.777 96.5971 248.095 95.6369C246.788 93.8092 244.685 94.6768 243.525 94.4686C240.967 94.0058 238.637 93.5662 235.113 94.1909C234.055 92.1781 234.669 90.2346 234.681 88.3953L247.902 88.1755L247.913 88.1871Z" fill="#0E1116"/>
<path d="M220.489 121.783C220.602 123.611 220.989 125.508 220.068 127.683C216.635 128.042 214.088 130.043 213.929 133.12C212.918 133.085 211.803 132.981 211.064 133.201C209.314 133.698 207.654 130.748 209.348 129.58L215.418 125.416C216.464 124.698 216.373 122.408 217.101 122.003C218.045 121.482 219.591 121.691 220.489 121.795V121.783Z" fill="#0E1116"/>
<path d="M248.993 100.635L248.924 105.713L244.957 106.06C243.013 106.234 241.728 102.648 243.706 100.831C244.991 99.6629 247.765 100.299 248.993 100.635Z" fill="#0E1116"/>
<rect x="232.807" y="113.807" width="4.49123" height="4.49123" fill="white"/>
<rect x="245.158" y="100.333" width="4.49123" height="4.49123" fill="white"/>
<rect x="249.649" y="98.0879" width="4.49123" height="4.49123" fill="white"/>
<rect x="238.421" y="96.9648" width="4.49123" height="4.49123" fill="white"/>
<rect x="233.93" y="99.2104" width="4.49123" height="4.49123" fill="white"/>
<rect x="232.807" y="103.702" width="4.49123" height="4.49123" fill="white"/>
<rect x="229.438" y="107.07" width="4.49123" height="8.98246" fill="white"/>
<rect x="253.018" y="93.5967" width="4.49123" height="4.49123" fill="white"/>
<rect x="257.509" y="90.228" width="5.61404" height="4.49123" fill="white"/>
<rect x="259.754" y="85.7368" width="4.49123" height="4.49123" fill="white"/>
<rect x="230.562" y="83.4912" width="4.49123" height="4.49123" fill="white"/>
<rect x="230.562" y="87.9824" width="4.49123" height="4.49123" fill="white"/>
<rect x="235.053" y="92.4736" width="7.85965" height="4.49123" fill="white"/>
<rect x="255.263" y="79" width="4.49123" height="4.49123" fill="white"/>
<rect x="235.053" y="79" width="20.2105" height="4.49123" fill="white"/>
<rect x="259.754" y="82.3687" width="4.49123" height="3.36842" fill="white"/>
<rect x="237.298" y="113.807" width="4.49123" height="4.49123" fill="white"/>
<rect x="202.491" y="137.386" width="4.49123" height="4.49123" fill="white"/>
<rect x="206.982" y="138.509" width="4.49123" height="4.49123" fill="white"/>
<rect x="211.474" y="138.509" width="4.49123" height="4.49123" fill="white"/>
<rect x="215.965" y="138.509" width="4.49123" height="4.49123" fill="white"/>
<rect x="218.211" y="136.263" width="4.49123" height="4.49123" fill="white"/>
<rect x="219.333" y="134.018" width="4.49123" height="4.49123" fill="white"/>
<rect x="219.333" y="130.649" width="4.49123" height="4.49123" fill="white"/>
<rect x="214.842" y="130.649" width="4.49123" height="4.49123" fill="white"/>
<rect x="215.965" y="126.158" width="4.49123" height="4.49123" fill="white"/>
<rect x="202.491" y="120.544" width="4.49123" height="4.49123" fill="white"/>
<rect x="206.982" y="120.544" width="4.49123" height="4.49123" fill="white"/>
<rect x="201.368" y="126.158" width="4.49123" height="4.49123" fill="white"/>
<rect x="199.123" y="130.649" width="4.49123" height="4.49123" fill="white"/>
<rect x="199.123" y="135.14" width="4.49123" height="4.49123" fill="white"/>
<rect x="220.456" y="122.79" width="4.49123" height="4.49123" fill="white"/>
<rect x="202.491" y="112.684" width="17.9649" height="4.49123" fill="white"/>
<rect x="220.456" y="117.175" width="4.49123" height="5.61404" fill="white"/>
<rect x="198" y="117.175" width="4.49123" height="4.49123" fill="white"/>
<rect x="259.754" y="105.947" width="4.49123" height="10.1053" fill="white"/>
<rect x="241.789" y="113.807" width="4.49123" height="4.49123" fill="white"/>
<rect x="246.28" y="113.807" width="13.4737" height="4.49123" fill="white"/>
<rect x="245.158" y="102.579" width="14.5965" height="4.49123" fill="white"/>
</svg>
