<svg width="300" height="300" viewBox="0 0 300 300" fill="none" xmlns="http://www.w3.org/2000/svg">
<path d="M74.0704 258.948L74.0032 267.032L66.3563 267.116C65.8011 267.066 65.3721 267.579 65.6918 268.1L65.7507 283.411L74.062 283.529L82.3734 283.63L82.3398 291.672L90.3567 291.756L90.3062 298.402C90.6343 299.007 90.811 299.579 90.7605 299.983H82.3566L81.9276 296.13L74.9285 295.785C74.3481 294.364 74.3901 293.354 74.4574 291.975L65.9778 291.781L65.6161 283.478L49.5654 283.554L49.3971 291.63L33.4221 292.008C33.1614 295.281 33.195 297.653 33.624 299.966L0 300L0.319668 291.764L24.6986 291.815L24.8247 283.621L16.4293 283.579L16.4545 275.276L24.9089 275.419L24.9425 283.554L33.1193 283.571L33.1445 275.293L49.4392 275.167L49.5065 267.209L57.6748 267.158L57.8347 258.864L74.0704 258.939V258.948Z" fill="#F0F1F2"/>
<path d="M49.5315 258.855L49.5063 267.217L41.2877 267.116L41.2793 259.024L49.5315 258.855Z" fill="#F0F1F2"/>
<path d="M57.8344 258.872L49.5317 258.855L49.498 250.754L57.725 250.771L57.8344 258.872Z" fill="#F0F1F2"/>
<path d="M82.3562 299.983L33.6153 299.966C33.1863 297.661 33.1526 295.281 33.4134 292.008L49.3884 291.63L49.5566 283.554L65.6073 283.478L65.969 291.781L74.4487 291.975C74.3814 293.354 74.3393 294.364 74.9198 295.785L81.9188 296.13L82.3478 299.983H82.3562Z" fill="#C0BEC1"/>
<path d="M300 299.992H283.218L283.15 293.304C283.092 292.311 282.427 291.781 281.476 291.79L268.034 291.764L266.755 291.571L266.704 283.596L258.544 283.461L258.469 276.387C258.519 275.73 259.192 275.428 259.638 275.461H274.763L274.898 267.697L274.326 267.116H266.704V259.049H274.738L274.805 266.788L275.251 267.167L283.1 267.284L283.176 275.343L274.772 275.402L274.831 283.537L291.268 283.579L291.369 291.748L299.706 291.79C299.622 294.835 299.403 297.443 300 299.975V299.992Z" fill="#F0F1F2"/>
<path d="M258.409 291.461C261.126 291.975 264.012 291.865 266.754 291.571L268.033 291.764L281.476 291.79C282.418 291.781 283.091 292.311 283.15 293.304L283.217 300H242.03V291.882L258.014 291.739C258.14 291.613 258.274 291.52 258.409 291.47V291.461Z" fill="#C0BEC1"/>
<path d="M250.435 283.655L258.511 283.84L258.41 291.462C258.276 291.512 258.15 291.605 258.015 291.731L242.032 291.874V300L226.099 299.975C225.485 297.417 225.527 294.616 225.947 291.764H242.082L242.048 283.63L250.427 283.655H250.435Z" fill="#F0F1F2"/>
<path d="M65.7002 268.109C65.3806 267.587 65.8096 267.074 66.3648 267.125C66.533 267.663 66.2049 268.117 65.7002 268.109Z" fill="#615963"/>
<path d="M233.735 242.931C233.701 243.309 233.811 243.848 233.962 244.504V259.107L242.097 258.973L242.131 267.183L250.299 267.2L250.223 281.535C250.148 282.443 250.24 283.125 250.434 283.663L242.055 283.638L242.089 291.756H225.954C225.533 294.624 225.491 297.426 226.105 299.983L90.7678 300C90.8183 299.596 90.6416 299.016 90.3135 298.418L90.364 291.773L82.3471 291.688L82.3807 283.646L74.0693 283.545L74.1366 267.242L82.1452 267.183L82.3555 258.973L90.4145 258.864L102.604 258.922L102.772 267.175L119 267.267L119.126 275.368L175.909 275.537L176.506 275.192L176.91 267.192L209.247 267.166L209.424 259.04L217.659 258.981L217.617 250.754L225.777 250.519L225.903 242.678L233.735 242.947V242.931ZM176.994 275.621L176.557 276.193L176.885 283.503L184.355 283.444C184.742 280.677 184.935 278.094 184.363 275.352L176.994 275.612V275.621ZM176.439 283.764L168.279 283.798L168.313 291.781L176.472 291.747L176.439 283.764Z" fill="#615963"/>
<path d="M259.637 275.461C259.199 275.428 258.518 275.739 258.467 276.387L258.543 283.461L266.703 283.596L266.754 291.571C264.011 291.865 261.126 291.983 258.409 291.461L258.51 283.84L250.434 283.655C250.24 283.125 250.148 282.435 250.223 281.526L250.299 267.192L242.131 267.175L242.097 258.965L233.971 259.099V244.495C233.811 243.839 233.702 243.301 233.735 242.922L233.769 234.518L225.676 234.392L225.701 226.148L217.558 226.35L209.297 226.232L209.163 218.114H152.111L151.959 226.157L135.698 226.333L135.723 234.51L119.134 234.401L119.042 242.695L102.89 242.645L102.798 250.796H92.4083C91.1381 250.628 90.2211 251.646 90.4819 252.908L90.4146 258.838L82.3556 258.948L82.1453 267.158L74.1368 267.217L74.0695 283.52L65.7581 283.402L65.6992 268.092C66.204 268.092 66.532 267.646 66.3638 267.108L74.0106 267.024L74.0779 258.939L82.2294 258.721L82.3977 250.527L89.8089 250.3L90.0529 243.839C90.524 243.385 91.0203 243.023 91.5755 242.746H102.461L102.638 234.476L118.327 234.35C118.747 232.92 118.789 231.717 118.571 230.245C119.294 228.941 119.412 227.679 119.378 226.106L135.227 225.946L135.404 219.343C135.463 218.644 135.757 218.182 136.38 217.719L151.143 217.576L151.337 211.73C151.194 210.686 151.606 210.005 152.094 209.626C152.472 209.408 153.002 209.248 153.835 209.29H207.279C207.851 209.971 208.355 210.131 209.356 210.064C209.121 212.066 209.096 213.454 210.198 215.145C209.567 216.18 209.97 217.273 210.896 217.685L224.389 217.66C225.012 217.786 225.491 218.14 225.929 218.661L226.063 225.972L233.634 226.106L233.718 234.375L242.047 234.51L242.122 258.721L250.35 258.796L250.459 267.167L258.737 267.276L259.014 273.594L259.645 275.436L259.637 275.461Z" fill="#300F0D"/>
<path d="M217.559 226.35L217.627 234.325L225.669 234.392L233.762 234.518L233.728 242.922L225.896 242.653L225.77 250.493L217.61 250.729L217.652 258.956L209.416 259.015L209.24 267.141L176.903 267.167L176.499 275.167L176.995 275.613L184.364 275.352C184.936 278.094 184.743 280.677 184.356 283.445L176.886 283.503L176.558 276.193C176.213 276.084 175.994 275.857 175.902 275.512L119.118 275.343L118.992 267.242L102.765 267.15L102.597 258.897L90.4072 258.839L90.4745 252.908C90.2137 251.646 91.1391 250.628 92.4009 250.796H102.79L102.883 242.645L119.034 242.695L119.127 234.401L135.716 234.51L135.691 226.333L151.952 226.157L152.103 218.098H209.155L209.29 226.224L217.551 226.342L217.559 226.35Z" fill="#95847C"/>
<path d="M176.443 283.753L168.283 283.786L168.315 291.769L176.475 291.736L176.443 283.753Z" fill="#95847C"/>
<path d="M225.668 234.392L217.626 234.325L217.559 226.35L225.701 226.148L225.668 234.392Z" fill="#615963"/>
<path d="M145.624 101.796L159.92 101.86L160.238 108.92L168.83 109.413L168.8 109.423L168.943 114.472L169.118 135.973L175.809 136.133L175.727 157.496C175.727 160.106 174.709 163.122 175.922 165.85L191.379 166L192.252 172.92L205.951 173.37C208.5 173.455 208.829 178.29 208.192 180.804L222.148 180.975L223.546 188.613L231.881 188.688L232.087 196.625L239.825 196.892L240.134 204.466L248.335 204.637C248.171 207.868 247.647 210.745 249.044 213.077C249.876 214.478 252.127 214.671 254.964 213.944L255.189 239.777L215.417 239.477C214.441 239.477 214.338 235.926 214.913 235.167C215.489 234.407 217.904 234.493 218.377 233.659C219.548 231.594 220.032 229.444 223.402 229.668L223.279 218.308C223.269 217.303 219.694 217.271 219.61 218.447L218.9 228.513C216.794 228.075 214.934 228.278 214.677 229.016L213.752 231.733C212.108 232.899 209.713 232.792 207.688 233.07L207.195 239.788L197.761 239.905C197.062 239.905 196.61 240.333 196.743 240.932V245.211C196.404 246.388 195.314 247.265 193.649 247.372L180.31 248.217L179.95 239.863L172.026 239.499L171.78 231.551L164.895 231.284L164.617 223.86L150.599 223.817C150.003 221.56 150.085 219.891 150.208 217.581L140.383 217.367C141.894 221.153 139.54 222.887 138.554 225.304C137.053 228.952 138.523 233.723 138.122 237.734C139.232 238.729 140.332 238.922 141.853 239.2L142.141 247.768L107.353 248.367C106.407 248.388 106.283 246.409 106.345 245.767C108.307 245.104 107.116 240.078 105.431 240.109L95.8516 240.269L96.0469 233.423C96.0673 232.643 95.5436 232.214 94.9785 232.578L90.1582 233.359C89.2641 233.509 87.8459 233.401 87.0547 232.599C86.6437 232.182 86.4276 231.23 86.4688 230.481L86.3555 216.842C84.1666 215.955 82.07 216.339 79.0488 216.104L79.1211 168.759C81.7003 167.69 83.9613 168.406 87.0029 168.289L87.3838 144.926L87.6855 143.249C85.7529 142.673 86.6903 139.256 87.7637 136.509C89.4996 135.771 89.5005 136.369 90.6934 136.038L90.9092 109.508C93.0978 109.316 94.5366 109.54 96.376 108.524C95.924 106.235 96.438 103.497 97.8047 102.801C99.1716 102.106 101.31 102.844 103.057 102.406C105.307 101.838 105.862 98.2332 105.102 94.6606L145.46 94.2974L145.624 101.796ZM209.631 198.293C207.411 197.844 205.324 197.716 202.734 198.198L201.738 205.268L195.006 205.846L194.955 213.098C197.617 213.622 199.908 213.815 202.755 212.884C202.005 210.146 201.913 207.023 202.981 206.06C204.441 204.755 207.154 205.236 209.271 205.717C209.898 203.214 209.816 201.192 209.631 198.293ZM216.517 195.213L216.917 204.851L220.299 204.702L219.897 195.063L216.517 195.213ZM202.17 182.612C201.06 181.296 197.648 181.735 195.757 182.398L194.873 188.988L188.84 189.083L188.347 195.983L181.379 196.379C181.163 198.423 180.67 201.984 182.181 203.61C183.486 205.011 187.175 204.38 188.594 203.653L188.614 203.642C188.203 200.786 188.306 198.625 188.984 197.438L195.489 196.914L195.746 189.629L202.602 189.469C203.013 187.437 203.496 184.195 202.17 182.612ZM208.531 196.261L215.181 196.315L215.242 188.271L208.593 188.217L208.531 196.261Z" fill="#AD563C"/>
<path d="M122.624 145.195L118.332 145.36C116.405 145.403 114.457 145.36 112.212 144.287C112.694 142.645 112.574 140.444 111.807 139.908C111.238 139.503 109.432 139.864 108.052 139.557C105.972 139.098 106.082 133.394 108.085 133.383L123.029 133.295C123.258 135.846 123.488 137.751 122.777 139.864C120.741 139.59 119 139.875 118.124 140.4C117.456 140.794 117.434 143.553 118.157 143.685C119.919 144.013 121.682 144.254 122.613 145.195H122.624Z" fill="#672529"/>
<path d="M105.021 124.406L102.941 123.476C103.204 121.943 103.291 120.41 103.007 118.932C102.875 118.265 102.273 118.035 101.638 118.024L98.3103 117.947C97.3141 116.447 95.6281 115.714 93.6904 115.593C94.1612 114.192 94.1721 111.619 93.7671 110.196L99.9852 110.733C100.5 113.842 103.62 114.291 106.192 113.995C107.079 114.269 107.014 116.579 107.648 117.137C108.754 118.111 110.878 118.155 112.903 117.498C113.626 119.436 113.56 120.99 113.407 122.906C110.254 122.753 107.429 123.662 105.021 124.406Z" fill="#672529"/>
<path d="M138.662 117.848L131.732 117.936L131.272 122.446C129.674 122.633 126.926 122.873 125.503 122.173C124.309 121.582 124.156 117.345 125.47 117.257C127.222 117.378 129.444 117.914 130.013 117.016C130.582 116.119 130.287 113.667 130.495 112.594C133.013 112.243 136.998 113.218 139.592 111.915C140.019 110.952 140.227 108.762 140.982 108.368C142.055 107.81 147.573 107.7 147.901 109.55C148.022 110.24 148.109 112.145 147.529 112.616C146.993 113.053 145.482 112.637 144.453 113.415L138.662 117.837V117.848Z" fill="#672529"/>
<path d="M138.726 123.202L140.883 123.082L140.785 129.376C137.993 129.464 135.114 129.869 132.224 129.146L132.267 123.377L138.726 123.191V123.202Z" fill="#031F40"/>
<path d="M102.939 123.475L105.019 124.406C105.107 125.917 104.757 128.369 103.618 129.037C101.976 129.978 99.6003 129.923 97.3779 129.497V123.432L102.939 123.464V123.475Z" fill="#0E1116"/>
<path d="M138.662 117.849L138.728 123.202L132.269 123.388C131.973 123.268 131.415 122.742 131.272 122.458L131.732 117.947L138.662 117.86V117.849Z" fill="#F1F2F3"/>
<path d="M140.786 129.377L140.885 123.082C142.505 122.994 144.048 122.359 146.205 122.71L145.975 129.212L140.786 129.387V129.377Z" fill="#D1AC80"/>
<path d="M107.713 151.775C107.133 153.527 107.582 155.815 106.422 157.085C104.539 157.468 102.327 157.369 101.878 156.493C101.43 155.618 100.762 152.049 101.955 151.633L106.87 149.881C107.352 149.706 108.086 149.64 108.283 150.078C108.447 150.429 107.987 151.031 107.713 151.775Z" fill="#0E1116"/>
<path d="M122.624 145.195C123.817 146.4 123.959 148.414 123.686 150.264C123.456 151.753 120.051 152.256 118.365 150.91C117.205 149.979 117.785 146.772 118.343 145.36L122.635 145.195H122.624Z" fill="#031F40"/>
<path d="M123.921 151.27L123.692 157.067L129.599 157.3L129.828 151.502L123.921 151.27Z" fill="#0E1116"/>
<path d="M101.637 118.024L103.006 118.933C103.29 120.411 103.203 121.943 102.94 123.476L97.3897 123.443C97.3897 121.538 97.2037 119.623 98.3093 117.958L101.637 118.035V118.024Z" fill="#F1F2F3"/>
<path d="M109.256 145.097C110.318 145.688 111.489 146.783 111.445 147.888C111.391 149.29 110.788 150.494 110.383 151.698C109.65 151.457 108.675 151.545 107.712 151.786C107.986 151.041 108.446 150.439 108.281 150.089C108.084 149.651 107.351 149.728 106.869 149.892V146.805C106.869 145.502 107.986 144.878 109.267 145.097H109.256Z" fill="#031F40"/>
<path d="M93.1533 129.289L93 123.443C93.5912 123.191 94.2042 122.917 94.6968 122.917C95.704 122.896 96.5689 123.76 96.3499 125.567C96.2186 126.727 96.4047 128.052 95.5727 128.807C95.0801 129.256 94.0838 129.376 93.1423 129.289H93.1533Z" fill="#D1AC80"/>
<path d="M110.384 151.687C110.8 150.494 111.392 149.279 111.446 147.878C111.49 146.783 110.33 145.688 109.257 145.086C109.925 145.195 111.337 144.659 111.961 145.185C112.782 145.885 112.782 147.035 112.705 148.469L112.563 151.096C112.53 151.742 111.315 151.983 110.384 151.676V151.687Z" fill="#0E1116"/>
<path d="M147.176 78.637L147.341 86.3602L161.369 86.5207L161.4 93.4631L169.396 93.5059L169.54 100.791L176.209 101.069L176.281 113.787L183.773 114.215L183.702 149.548L193.496 149.729C192.663 151.922 192.9 156.661 194.421 156.693L209.179 157.046L209.456 164.62L225.376 164.844L225.458 172.364L232.611 172.61L232.755 179.991L240.884 180.205L240.987 187.49L248.705 187.736L248.982 195.759L256.998 195.973L257.153 203.439L265.282 203.76C265.179 205.653 264.665 208.114 265.96 209.911C267.378 210.916 270.585 209.954 272.856 210.735L273 239.82L265.385 240.076L265.292 250.709L265.241 254.678L257.255 254.828L257.111 262.391C254.367 262.99 252.055 262.743 249.147 262.433L249.023 271.002L232.395 271.216L232.446 279.292L214.204 279.228C214.369 277.184 215.109 273.622 213.927 272.189C211.871 270.723 208.531 271.633 206.476 271.815L206.25 264.295C201.121 265.033 197.339 261.16 190.392 262.829L190.289 270.017H142.511L142.223 262.38H106.725C106.787 260.101 106.859 258.818 106.304 256.518L95.1327 256.817C94.4441 258.122 94.5058 260.486 94.7422 262.027L88.2059 262.166L87.8976 256.796L79.6347 256.839V248.773C76.6543 248.891 74.2906 249.115 71.8138 248.506C70.9916 239.552 71.8754 231.476 71.8343 222.801L65.1747 222.726L65 163.208L72.1426 162.951L71.9474 144.124L79.943 143.878L79.9019 103.037C82.5226 102.149 85.0611 102.149 87.7845 103.015V136.305L87.7948 142.787L87.4145 144.894L79.7889 144.755L79.8197 167.305L72.9134 167.529L72.8723 215.901C75.2361 215.816 77.1785 215.591 79.7992 216.329L79.9328 231.177L80.0561 239.959V248.26L86.9932 248.217L87.9695 248.345C87.8359 249.757 86.9418 253.031 88.2573 254.496C89.5728 255.962 93.0978 255.384 94.6291 254.4L94.8963 248.399L106.407 248.452L106.951 254.624L148.615 254.699L149.365 254.742C149.006 257.031 148.595 259.417 149.304 262.273L185.284 262.219L185.603 255.651L196.25 255.373C196.815 252.752 196.599 250.581 196.538 248.335C196.867 248.163 197.483 248.228 197.812 248.228L207.134 248.131L208.007 248.313L207.76 262.423C210.802 263.171 213.022 262.765 215.283 262.326L215.427 263.203L215.314 269.686C215.304 270.36 215.53 270.863 216.219 270.863H232.272L232.374 263.118L232.6 262.08L248.828 262.423L248.623 256.828C248.581 255.79 249.177 255.117 249.63 254.828C250.082 254.539 250.914 254.678 251.315 254.624L254.306 254.731C254.933 254.742 256.176 254.849 256.505 253.726C257.317 250.998 256.505 248.474 256.495 246.313L256.402 239.82L265.097 239.745V212.532L256.515 212.136L256.392 204.466H248.191C248.571 201.343 248.756 198.979 248.139 196.261L240.36 196.24L240.103 188.549L231.973 188.303C232.333 186.335 232.929 182.409 231.521 181.296C229.271 179.531 225.715 180.644 223.608 180.451C223.885 177.467 224.019 175.884 223.433 173.231L208.963 173.188C208.315 170.877 208.541 168.663 208.531 165.486L193.146 165.358L192.612 157.784L175.778 157.453L175.86 136.091L175.942 114.739L168.995 114.44L168.851 109.391L168.82 101.828L160.588 101.443L160.64 94.3402L146.313 94.2332C146.19 91.5376 146.663 89.0773 145.851 86.5207L104.742 86.6704L104.269 94.3937L96.2015 94.4793L95.9652 101.924C93.1595 102.406 90.8574 102.384 88.1031 101.999L88.1237 94.383L96.1707 94.2012C96.0268 92.3934 95.2971 88.7457 96.5407 87.3978C98.3495 85.9109 101.751 86.7239 104.177 86.8202L104.444 78.5835H147.238L147.176 78.637Z" fill="#F1F2F3"/>
<path d="M196.743 245.2C197.483 246.024 197.802 247.136 197.761 248.26C197.432 248.26 196.815 248.195 196.486 248.367C193.455 249.939 190.125 248.901 186.281 249.404C185.161 249.554 184.76 253.137 185.048 254.753L149.324 254.774L148.574 254.731C148.677 252.913 149.119 249.714 147.742 248.142C146.262 246.452 143.569 247.725 142.151 247.757L141.863 239.189C140.342 238.91 139.242 238.718 138.132 237.723C138.544 233.712 137.064 228.941 138.564 225.293C139.551 222.886 141.904 221.143 140.393 217.356L150.218 217.57C150.095 219.87 150.013 221.549 150.609 223.806L164.627 223.849L164.905 231.273L171.79 231.54L172.037 239.488L179.961 239.852L180.32 248.206L193.66 247.361C195.325 247.254 196.414 246.377 196.764 245.2H196.743Z" fill="#672529"/>
<path d="M255.18 239.777L256.341 239.863L256.433 246.356L249.013 246.666C248.798 249.351 249.352 252.453 248.356 254.892C243.464 256.956 238.664 254.86 233.885 255.042C231.861 255.887 232.231 260.54 232.56 262.123L232.333 263.161L215.386 263.246L215.243 262.369C214.585 258.304 216.178 253.405 214.503 249.116C213.136 247.618 209.456 248.656 207.966 248.356L207.093 248.174C207.257 246.024 207.38 243.799 206.682 241.296L196.754 240.943C196.62 240.344 197.072 239.916 197.771 239.916L207.206 239.798L207.699 233.081C209.734 232.803 212.118 232.91 213.763 231.744L214.688 229.027C214.944 228.288 216.794 228.075 218.911 228.524L219.621 218.458C219.703 217.281 223.279 217.303 223.29 218.319L223.413 229.679C220.042 229.454 219.559 231.605 218.387 233.669C217.915 234.503 215.499 234.418 214.924 235.177C214.348 235.937 214.451 239.478 215.427 239.488L255.2 239.788L255.18 239.777Z" fill="#672529"/>
<path d="M87.3733 144.905L86.993 168.268C83.951 168.385 81.6797 167.668 79.1104 168.738L79.0385 216.083C82.0702 216.319 84.1668 215.923 86.3456 216.821L86.4586 230.46C84.2387 230.054 82.0189 230.407 79.8915 231.198L79.7579 216.351C77.1372 215.613 75.1948 215.837 72.8311 215.923L72.8722 167.551L79.7784 167.326L79.7476 144.777L87.3733 144.916V144.905Z" fill="#031F40"/>
<path d="M256.342 239.852L256.229 213.195L249.045 213.067C247.647 210.745 248.171 207.857 248.336 204.627L240.134 204.455L239.826 196.882L232.087 196.615L231.882 188.677L223.547 188.603L222.149 180.965L208.193 180.794C208.84 178.28 208.501 173.434 205.953 173.359L192.253 172.91L191.38 165.989L175.923 165.839C174.71 163.101 175.717 160.095 175.727 157.485L192.561 157.816L193.096 165.39L208.481 165.518C208.481 168.695 208.265 170.91 208.912 173.22L223.383 173.263C223.958 175.916 223.835 177.499 223.557 180.483C225.654 180.676 229.22 179.563 231.471 181.329C232.879 182.441 232.283 186.367 231.923 188.335L240.052 188.581L240.309 196.272L248.089 196.294C248.706 199.011 248.521 201.375 248.14 204.498H256.342L256.465 212.168L265.026 212.564V239.777L256.342 239.852Z" fill="#031F40"/>
<path d="M105.42 240.098C105.78 241.574 106.489 244.195 106.335 245.757C106.273 246.399 106.407 248.367 107.342 248.356L142.13 247.757C143.549 247.736 146.241 246.463 147.721 248.142C149.109 249.715 148.667 252.913 148.554 254.732L106.89 254.657L106.345 248.485L94.8348 248.431L94.5676 254.432C93.0363 255.427 89.5112 255.983 88.1958 254.528C86.8803 253.074 87.7744 249.79 87.908 248.378L94.9993 248.217L95.8112 240.269L105.389 240.109L105.42 240.098Z" fill="#031F40"/>
<path d="M86.4494 230.46C86.4186 231.209 86.6241 232.161 87.0352 232.578C87.8266 233.38 89.2448 233.487 90.1389 233.337L90.5603 240.269L95.2775 240.13L94.9589 232.557C95.5242 232.193 96.0483 232.621 96.0278 233.402L95.8325 240.248L95.0206 248.196L87.9293 248.356L86.953 248.228C87.0455 246.024 87.1791 243.778 86.583 241.178L80.0159 239.97L79.8926 231.187C82.02 230.396 84.2398 230.043 86.4597 230.449L86.4494 230.46Z" fill="#672529"/>
<path d="M188.613 203.642C187.195 204.37 183.505 205.001 182.2 203.6C180.689 201.984 181.193 198.412 181.398 196.368L188.366 195.973L188.859 189.073L194.892 188.977L195.776 182.387C197.667 181.713 201.079 181.286 202.189 182.601C203.515 184.184 203.032 187.426 202.621 189.458L195.766 189.619L195.509 196.903L189.003 197.427C188.325 198.615 188.212 200.776 188.633 203.632L188.613 203.642Z" fill="#672529"/>
<path d="M175.809 136.134L169.118 135.973L168.943 114.472L175.891 114.782L175.809 136.134Z" fill="#031F40"/>
<path d="M202.755 212.885C199.909 213.816 197.617 213.623 194.955 213.099L195.006 205.846L201.738 205.269L202.735 198.198C205.335 197.717 207.411 197.845 209.631 198.294C209.816 201.193 209.898 203.204 209.271 205.718C207.154 205.237 204.441 204.755 202.982 206.06C201.913 207.023 202.005 210.147 202.755 212.885Z" fill="#672529"/>
<path d="M207.082 248.164L197.761 248.26C197.802 247.137 197.483 246.035 196.743 245.201V240.922L206.661 241.275C207.36 243.778 207.236 246.003 207.072 248.153L207.082 248.164Z" fill="#031F40"/>
<path d="M208.596 188.201L208.535 196.245L215.184 196.299L215.245 188.256L208.596 188.201Z" fill="#672529"/>
<path d="M94.9675 232.567L95.2861 240.141L90.5688 240.28L90.1475 233.348L94.9675 232.567Z" fill="#031F40"/>
<path d="M256.341 239.852L255.18 239.766L254.954 213.933C252.117 214.66 249.877 214.468 249.034 213.066L256.218 213.195L256.331 239.852H256.341Z" fill="#D1AC80"/>
<path d="M219.903 195.061L216.515 195.214L216.915 204.843L220.304 204.69L219.903 195.061Z" fill="#672529"/>
<path d="M106.345 245.757C106.499 244.195 105.78 241.564 105.431 240.098C107.116 240.077 108.308 245.104 106.345 245.757Z" fill="#672529"/>
<path d="M86.9518 248.249L79.9941 248.292V239.991L86.5715 241.2C87.1676 243.799 87.0443 246.046 86.9415 248.249H86.9518Z" fill="#031F40"/>
<path d="M256.433 246.356C256.444 248.517 257.256 251.041 256.444 253.769C256.105 254.892 254.861 254.785 254.244 254.775C254.152 253.994 253.432 253.737 252.672 253.79C252.086 253.833 251.624 254.25 251.254 254.668C250.853 254.71 250.041 254.571 249.568 254.871C249.096 255.17 248.53 255.834 248.561 256.871L248.767 262.466L232.539 262.123C232.22 260.54 231.85 255.887 233.865 255.042C238.644 254.86 243.443 256.967 248.335 254.892C249.342 252.453 248.777 249.362 248.993 246.666L256.413 246.356H256.433Z" fill="#031F40"/>
<path d="M254.246 254.763L251.255 254.656C251.635 254.239 252.098 253.822 252.673 253.779C253.423 253.726 254.153 253.983 254.246 254.763Z" fill="#672529"/>
<path d="M196.487 248.367C196.549 250.603 196.755 252.785 196.2 255.406L185.552 255.684L185.234 262.252L149.253 262.305C148.544 259.449 148.966 257.064 149.315 254.775L185.039 254.753C184.751 253.127 185.152 249.555 186.272 249.405C190.126 248.902 193.445 249.929 196.477 248.367H196.487Z" fill="#031F40"/>
<path d="M232.322 263.15L232.22 270.884L216.167 270.895L215.272 269.718L215.375 263.235L232.322 263.15Z" fill="#031F40"/>
<path d="M215.242 262.359C212.97 262.798 210.761 263.204 207.719 262.455L207.965 248.346C209.466 248.656 213.135 247.618 214.502 249.105C216.177 253.384 214.584 258.294 215.242 262.359Z" fill="#031F40"/>
<path d="M216.167 270.895C215.489 270.895 215.253 270.392 215.263 269.718L216.167 270.895Z" fill="#672529"/>
<path d="M90.8273 136.016L87.7441 136.551V101.785H95.9659V94.2974H105.729V102.32L97.5075 103.39L96.4798 109.273L91.3412 109.808L90.8273 136.016Z" fill="#031F40"/>
<path d="M103.673 94.832L104.701 86.2744H146.323V94.2972H160.711V101.25L168.933 101.785V109.808H159.684V102.32H145.295V94.832H103.673Z" fill="#031F40"/>
<path d="M131.946 162.554L131.914 162.955L110.498 163.009C109.886 161.168 109.746 159.209 110.606 157.227C112.195 157.628 114.3 157.552 115.02 156.87C115.739 156.188 115.804 154.088 115.492 152.106L132 152.009L131.946 162.554Z" fill="#AD563C"/>
<path d="M252.603 124.123C251.394 123.556 249.318 123.481 247.842 122.325C246.59 121.341 247.403 118.42 248.58 117.617C249.297 117.296 251.683 117.147 252.239 117.917C252.86 120.078 252.592 122.315 252.592 124.123H252.603Z" fill="#0E1116"/>
<path d="M72.8052 119.61L67.5175 119.753L67.419 119.128C67.7693 117.508 68.3824 114.684 66.8279 113.283C65.8864 112.429 63.3027 112.779 62.0328 113.009L62 99.642C64.3318 99.5216 65.755 99.4121 67.43 99.9814L67.5723 113.283L72.7832 113.578V119.61H72.8052Z" fill="#D1AC80"/>
<path d="M182.487 90.666C180.794 90.6977 179.099 90.9183 177.591 91.6514L177.334 90.9178C177.792 90.8733 178.052 90.3075 177.905 90.0325C177.759 89.7576 177.278 89.5393 176.981 89.4898L176.655 87.5685L177.384 86.3013C178.289 85.4817 180.789 84.9025 181.922 86.0872C182.733 86.9381 182.651 89.3391 182.489 90.6768L182.487 90.666Z" fill="#D1AC80"/>
<path d="M183.755 91.9836L182.498 90.6642C182.819 90.6544 183.367 90.4171 183.692 90.3065L183.765 91.9818L183.755 91.9836Z" fill="#AD563C"/>
<path d="M176.675 87.5541C176.603 87 176.866 86.5223 177.393 86.2887L176.675 87.5541Z" fill="#AD563C"/>
<path d="M177.342 90.9055L176.989 89.4775C177.286 89.5271 177.771 89.767 177.914 90.0203C178.071 90.2935 177.803 90.8719 177.342 90.9055Z" fill="#AD563C"/>
<path d="M196.174 94.0534L198.236 106.806L193.071 107.782L191.188 100.472L190.654 96.6656C190.392 94.7892 187.642 94.8778 185.521 95.4037C183.73 95.8406 183.136 92.9878 183.743 91.9854L183.67 90.3101C184.801 89.9074 187.342 89.0437 188.315 89.7447C189.289 90.4458 189.641 92.6513 189.443 94.628L196.163 94.0552L196.174 94.0534Z" fill="#D1AC80"/>
<path d="M193.419 110.088L194.443 114.689L194.481 116.092L188.498 117.217C187.984 114.973 187.973 113.076 188.193 111.162C189.96 110.907 191.736 110.773 193.42 110.098L193.419 110.088Z" fill="#D1AC80"/>
<path d="M67.6939 91.7935L67.6133 97.9346L73.2289 98.0083L73.3094 91.8672L67.6939 91.7935Z" fill="#D1AC80"/>
<path d="M73.6662 85.9039L73.6221 91.5088L78.8876 91.5502L78.9318 85.9453L73.6662 85.9039Z" fill="#D1AC80"/>
<path d="M272.732 112.646C271.476 112.762 269.044 112.628 268.857 113.457L267.966 117.34L263.958 118.124L263.156 121.375L259.549 122.916C258.881 123.201 259.005 125.009 258.996 126.55L240.79 126.782L240.852 122.462L259.335 122.355C259.184 120.672 259.121 119.282 259.522 118.329C259.896 117.447 261.776 117.5 263.192 117.661C264.109 117.313 264.163 114.721 263.53 113.1L268.305 112.78L268.278 99.6055L267.761 99.1958C266.666 99.6857 264.466 99.8371 263.913 98.7148C263.432 97.7439 263.691 96.2385 263.869 95.2409L263.37 94.6708C262.257 94.9825 260.092 95.0983 259.478 94.172C258.863 93.2456 259.192 91.6868 259.397 90.805L258.988 90.3062L249.929 90.1904C250.338 88.7385 250.472 86.9481 249.92 86.3245C249.296 85.6119 247.39 85.4338 245.858 85.9326L245.359 81.2117L230.226 81.2562C231.366 86.0039 226.164 85.033 227.206 90.2973C223.955 90.5288 221.318 89.6559 218.058 90.8228C218.708 92.7201 218.299 94.7688 217.301 94.9826C216.428 95.1696 214.21 94.555 213.64 94.9826C213.435 95.802 214.094 97.9932 213.408 98.7504C212.723 99.5075 211.28 99.8816 209.347 99.4452L209.204 112.984C210.692 112.815 212.696 112.878 213.337 113.866C213.978 114.855 213.506 116.717 213.319 117.741C212.259 117.545 210.718 117.848 209.596 117.349C208.679 116.939 209.177 114.374 208.955 113.528C207.841 112.29 205.516 112.797 204.43 112.78L204.795 99.3026C206.541 99.7747 208.679 99.5075 208.812 98.7593L209.418 95.3923L213.346 94.1631L213.88 90.4131C214.958 90.2349 217.301 90.609 217.88 89.7272C218.343 89.0235 218.272 87.4558 217.871 85.7634C219.644 85.5763 221.211 85.9415 222.868 84.9528C222.449 83.492 222.815 81.4967 223.536 81.4255L226.689 81.1404C227.669 81.0513 227.732 78.299 227.233 76.5977L250.276 76.8382C249.982 78.3257 249.929 80.1428 250.499 80.7574C251.069 81.372 252.913 81.4255 254.365 81.0068L255.113 85.7901C256.618 85.3002 258.845 85.4516 259.184 86.3424C259.54 87.2866 259.362 88.783 259.308 89.7272L260.003 90.2973C261.01 89.9142 263.254 89.7984 263.7 90.7782C264.145 91.7581 263.913 93.2011 263.824 94.1898L264.457 94.8133C265.454 94.4303 267.726 94.2789 268.144 95.2231C268.59 96.2296 268.314 97.6548 268.18 98.6079L268.875 99.3116L272.696 99.4808L272.732 112.646Z" fill="#D1AC80"/>
<path d="M213.32 117.732L213.899 117.839C213.65 118.828 213.258 120.832 213.988 121.749C214.718 122.667 216.856 122.417 217.845 122.257L218.37 122.319C218.228 123.593 218.094 124.983 218.62 126.577L231.901 126.764L231.651 131.173L218.014 131.129C218.032 129.543 217.765 127.931 217.052 127.735L213.926 126.88C213.418 125.793 213.721 123.46 212.598 123.157L209.427 122.302L208.198 118.819L204.885 117.438C203.789 116.066 204.395 113.973 204.43 112.753C205.508 112.771 207.842 112.263 208.955 113.501C209.178 114.347 208.679 116.913 209.597 117.322C210.719 117.821 212.269 117.518 213.32 117.714V117.732Z" fill="#0E1116"/>
<path d="M240.79 126.791L258.997 126.559C259.015 125.027 258.881 123.219 259.549 122.925L263.157 121.384L263.958 118.133L267.967 117.349L268.857 113.465C269.044 112.637 271.476 112.771 272.732 112.655C272.732 113.804 273.436 116.182 271.984 117.18C271.2 117.643 268.929 117.349 268.51 118.445C268.252 119.122 268.385 121.34 267.904 121.936C265.873 122.355 263.709 124.689 263.308 126.818C262.56 127.147 260.52 127.183 260.119 127.78C259.692 128.412 259.282 129.695 259.202 131.12L240.657 131.458C241.04 133.356 240.835 135.03 240.175 135.458C239.436 135.948 237.325 135.859 237.049 135.119C236.711 134.22 236.497 132.322 237.076 131.717C237.485 131.289 238.946 131.441 239.846 131.022C241.378 130.309 240.772 127.949 240.781 126.782L240.79 126.791Z" fill="#0E1116"/>
<path d="M231.9 126.755L218.619 126.568C218.085 124.983 218.228 123.593 218.37 122.311L231.838 122.337C232.346 124.065 231.981 125.419 231.909 126.746L231.9 126.755Z" fill="#D1AC80"/>
<path d="M231.767 108.094C231.99 107.088 232.106 105.057 231.304 104.647C230.324 104.139 227.955 104.184 227.572 105.003C227.171 105.876 227.447 107.257 227.554 108.05L223.688 103.596L227.136 103.631L227.43 99.6499C228.873 104.513 234.725 101.93 235.473 105.778C235.669 106.803 235.072 108.023 233.781 108.45C233.104 108.673 232.534 108.513 231.75 108.085L231.767 108.094Z" fill="#672529"/>
<path d="M250.545 101.69C250.598 102.429 250.945 103.097 251.373 103.382C251.97 103.765 253.021 103.846 253.546 103.676C251.792 104.612 250.678 105.752 249.69 107.444C250.117 106.055 249.779 104.665 248.336 104.487C247.552 104.398 245.824 104.291 245.432 105.075C245.013 105.912 245.378 107.364 245.548 108.157C244.336 108.21 242.546 108.371 241.806 107.507C241.299 106.91 241.352 104.398 242.091 104.104L250.545 101.699V101.69Z" fill="#672529"/>
<path d="M232.605 140.339C231.189 141.39 231.964 143.243 231.679 143.938C231.323 144.811 228.748 144.838 227.929 144.401C227.216 144.018 227.341 142.103 227.403 141.355C227.51 140.161 229.265 139.386 231.278 140.286L232.427 135.69C233.906 135.325 235.946 135.414 236.302 136.126C236.658 136.839 236.64 138.807 236.302 139.556C235.963 140.304 233.505 139.68 232.614 140.348L232.605 140.339Z" fill="#0E1116"/>
<path d="M226.609 99.1246C226.778 99.3651 227.179 99.5611 227.437 99.668L227.143 103.65L223.696 103.614C223.509 103.614 223.251 103.587 222.957 103.694C222.904 102.545 222.725 101.111 223.385 100.033C223.937 99.1247 225.54 98.9465 226.618 99.1336L226.609 99.1246Z" fill="#AD563C"/>
<path d="M217.845 122.257C216.856 122.417 214.754 122.711 213.988 121.749C213.222 120.787 213.649 118.828 213.899 117.839C214.905 117.456 217.097 117.162 217.925 118.302C218.513 119.122 218.05 121.259 217.845 122.257Z" fill="#D1AC80"/>
<path d="M231.767 108.095L227.563 108.05C227.447 107.257 227.18 105.877 227.581 105.004C227.955 104.184 230.333 104.14 231.313 104.647C232.115 105.057 231.99 107.088 231.776 108.095H231.767Z" fill="#AD563C"/>
<path d="M249.689 107.444C248.958 108.7 246.705 108.103 245.547 108.156C245.378 107.373 245.012 105.912 245.431 105.075C245.823 104.3 247.551 104.398 248.335 104.487C249.778 104.656 250.116 106.054 249.689 107.444Z" fill="#AD563C"/>
<path d="M254.115 100.104C254.382 101.048 254.507 103.159 253.545 103.667C253.019 103.836 251.968 103.756 251.371 103.373C250.944 103.097 250.596 102.42 250.543 101.681L250.472 100.069C251.585 99.1244 253.073 99.1244 254.115 100.095V100.104Z" fill="#AD563C"/>
<path d="M226.61 99.1244C225.532 98.9373 223.929 99.1155 223.376 100.024C222.726 101.102 222.904 102.536 222.949 103.685C221.613 103.088 221.497 100.594 222.619 99.3382C223.528 98.3139 225.63 97.717 226.61 99.1244Z" fill="#672529"/>
<path d="M254.115 100.104C253.072 99.1332 251.585 99.1243 250.471 100.077C250.409 98.5542 251.425 97.8327 252.627 98.2781C253.251 98.5097 253.874 99.2579 254.115 100.104Z" fill="#672529"/>
</svg>
