<svg width="300" height="300" viewBox="0 0 300 300" fill="none" xmlns="http://www.w3.org/2000/svg">
<path d="M74.0704 258.948L74.0032 267.032L66.3563 267.116C65.8011 267.066 65.3721 267.579 65.6918 268.1L65.7507 283.411L74.062 283.529L82.3734 283.63L82.3398 291.672L90.3567 291.756L90.3062 298.402C90.6343 299.007 90.811 299.579 90.7605 299.983H82.3566L81.9276 296.13L74.9285 295.785C74.3481 294.364 74.3901 293.354 74.4574 291.975L65.9778 291.781L65.6161 283.478L49.5654 283.554L49.3971 291.63L33.4221 292.008C33.1614 295.281 33.195 297.653 33.624 299.966L0 300L0.319668 291.764L24.6986 291.815L24.8247 283.621L16.4293 283.579L16.4545 275.276L24.9089 275.419L24.9425 283.554L33.1193 283.571L33.1445 275.293L49.4392 275.167L49.5065 267.209L57.6748 267.158L57.8347 258.864L74.0704 258.939V258.948Z" fill="#F0F1F2"/>
<path d="M49.5315 258.855L49.5063 267.217L41.2877 267.116L41.2793 259.024L49.5315 258.855Z" fill="#F0F1F2"/>
<path d="M57.8344 258.872L49.5317 258.855L49.498 250.754L57.725 250.771L57.8344 258.872Z" fill="#F0F1F2"/>
<path d="M82.3562 299.983L33.6153 299.966C33.1863 297.661 33.1526 295.281 33.4134 292.008L49.3884 291.63L49.5566 283.554L65.6073 283.478L65.969 291.781L74.4487 291.975C74.3814 293.354 74.3393 294.364 74.9198 295.785L81.9188 296.13L82.3478 299.983H82.3562Z" fill="#C0BEC1"/>
<path d="M300 299.992H283.218L283.15 293.304C283.092 292.311 282.427 291.781 281.476 291.79L268.034 291.764L266.755 291.571L266.704 283.596L258.544 283.461L258.469 276.387C258.519 275.73 259.192 275.428 259.638 275.461H274.763L274.898 267.697L274.326 267.116H266.704V259.049H274.738L274.805 266.788L275.251 267.167L283.1 267.284L283.176 275.343L274.772 275.402L274.831 283.537L291.268 283.579L291.369 291.748L299.706 291.79C299.622 294.835 299.403 297.443 300 299.975V299.992Z" fill="#F0F1F2"/>
<path d="M258.409 291.461C261.126 291.975 264.012 291.865 266.754 291.571L268.033 291.764L281.476 291.79C282.418 291.781 283.091 292.311 283.15 293.304L283.217 300H242.03V291.882L258.014 291.739C258.14 291.613 258.274 291.52 258.409 291.47V291.461Z" fill="#C0BEC1"/>
<path d="M250.435 283.655L258.511 283.84L258.41 291.462C258.276 291.512 258.15 291.605 258.015 291.731L242.032 291.874V300L226.099 299.975C225.485 297.417 225.527 294.616 225.947 291.764H242.082L242.048 283.63L250.427 283.655H250.435Z" fill="#F0F1F2"/>
<path d="M65.7002 268.109C65.3806 267.587 65.8096 267.074 66.3648 267.125C66.533 267.663 66.2049 268.117 65.7002 268.109Z" fill="#615963"/>
<path d="M233.735 242.931C233.701 243.309 233.811 243.848 233.962 244.504V259.107L242.097 258.973L242.131 267.183L250.299 267.2L250.223 281.535C250.148 282.443 250.24 283.125 250.434 283.663L242.055 283.638L242.089 291.756H225.954C225.533 294.624 225.491 297.426 226.105 299.983L90.7678 300C90.8183 299.596 90.6416 299.016 90.3135 298.418L90.364 291.773L82.3471 291.688L82.3807 283.646L74.0693 283.545L74.1366 267.242L82.1452 267.183L82.3555 258.973L90.4145 258.864L102.604 258.922L102.772 267.175L119 267.267L119.126 275.368L175.909 275.537L176.506 275.192L176.91 267.192L209.247 267.166L209.424 259.04L217.659 258.981L217.617 250.754L225.777 250.519L225.903 242.678L233.735 242.947V242.931ZM176.994 275.621L176.557 276.193L176.885 283.503L184.355 283.444C184.742 280.677 184.935 278.094 184.363 275.352L176.994 275.612V275.621ZM176.439 283.764L168.279 283.798L168.313 291.781L176.472 291.747L176.439 283.764Z" fill="#615963"/>
<path d="M259.637 275.461C259.199 275.428 258.518 275.739 258.467 276.387L258.543 283.461L266.703 283.596L266.754 291.571C264.011 291.865 261.126 291.983 258.409 291.461L258.51 283.84L250.434 283.655C250.24 283.125 250.148 282.435 250.223 281.526L250.299 267.192L242.131 267.175L242.097 258.965L233.971 259.099V244.495C233.811 243.839 233.702 243.301 233.735 242.922L233.769 234.518L225.676 234.392L225.701 226.148L217.558 226.35L209.297 226.232L209.163 218.114H152.111L151.959 226.157L135.698 226.333L135.723 234.51L119.134 234.401L119.042 242.695L102.89 242.645L102.798 250.796H92.4083C91.1381 250.628 90.2211 251.646 90.4819 252.908L90.4146 258.838L82.3556 258.948L82.1453 267.158L74.1368 267.217L74.0695 283.52L65.7581 283.402L65.6992 268.092C66.204 268.092 66.532 267.646 66.3638 267.108L74.0106 267.024L74.0779 258.939L82.2294 258.721L82.3977 250.527L89.8089 250.3L90.0529 243.839C90.524 243.385 91.0203 243.023 91.5755 242.746H102.461L102.638 234.476L118.327 234.35C118.747 232.92 118.789 231.717 118.571 230.245C119.294 228.941 119.412 227.679 119.378 226.106L135.227 225.946L135.404 219.343C135.463 218.644 135.757 218.182 136.38 217.719L151.143 217.576L151.337 211.73C151.194 210.686 151.606 210.005 152.094 209.626C152.472 209.408 153.002 209.248 153.835 209.29H207.279C207.851 209.971 208.355 210.131 209.356 210.064C209.121 212.066 209.096 213.454 210.198 215.145C209.567 216.18 209.97 217.273 210.896 217.685L224.389 217.66C225.012 217.786 225.491 218.14 225.929 218.661L226.063 225.972L233.634 226.106L233.718 234.375L242.047 234.51L242.122 258.721L250.35 258.796L250.459 267.167L258.737 267.276L259.014 273.594L259.645 275.436L259.637 275.461Z" fill="#300F0D"/>
<path d="M217.559 226.35L217.627 234.325L225.669 234.392L233.762 234.518L233.728 242.922L225.896 242.653L225.77 250.493L217.61 250.729L217.652 258.956L209.416 259.015L209.24 267.141L176.903 267.167L176.499 275.167L176.995 275.613L184.364 275.352C184.936 278.094 184.743 280.677 184.356 283.445L176.886 283.503L176.558 276.193C176.213 276.084 175.994 275.857 175.902 275.512L119.118 275.343L118.992 267.242L102.765 267.15L102.597 258.897L90.4072 258.839L90.4745 252.908C90.2137 251.646 91.1391 250.628 92.4009 250.796H102.79L102.883 242.645L119.034 242.695L119.127 234.401L135.716 234.51L135.691 226.333L151.952 226.157L152.103 218.098H209.155L209.29 226.224L217.551 226.342L217.559 226.35Z" fill="#95847C"/>
<path d="M176.443 283.753L168.283 283.786L168.315 291.769L176.475 291.736L176.443 283.753Z" fill="#95847C"/>
<path d="M225.668 234.392L217.626 234.325L217.559 226.35L225.701 226.148L225.668 234.392Z" fill="#615963"/>
<path d="M155.006 92.8959L155.149 100.918H163.084L163.165 109.146H155.016L155.027 102.97C155.027 98.4766 146.888 102.744 138.659 99.8718L138.404 93.0703C138.252 92.6189 136.349 92.6702 136.359 93.2447L95.8919 92.8343C95.546 90.8646 95.078 88.9052 95.9529 86.0122L137.896 85.9712L138.699 92.9677C144.508 93.3062 149.818 92.7317 155.006 92.8856V92.8959Z" fill="#031F40"/>
<path d="M95.0475 93.6552C95.3324 95.4197 96.2479 98.6307 94.3965 100.559C92.8705 101.554 89.3507 100.559 87.1127 101.165L86.9398 116.214L95.0781 116.686L95.0475 117.332C94.9662 119.251 95.0069 121.036 95.78 122.893C96.7871 125.303 100.042 125.365 103.471 124.462C104.284 127.365 104.071 130.125 103.633 133.192L96.1157 133.49L95.5562 140.64L86.4718 140.969L86.3497 165.949C83.6234 165.938 81.3447 165.631 78.5675 166.646L78.5268 206.645C81.3244 206.563 83.2267 206.194 85.9428 206.738L86.0242 223.511L80.5614 223.859L80.1647 207.456L72.0264 207.23L72.0772 165.682L78.7099 165.477L78.7608 140.948L86.9093 140.774L86.95 133.418L95.0577 133.387L95.1289 124.873C91.9245 125.201 89.7475 125.303 87.0924 124.626L86.9805 116.43C83.9388 116.737 81.5787 116.984 79.0355 116.378C79.1779 110.664 78.9541 105.843 78.9948 100.918L87.0517 100.99L87.0924 93.6552C89.9916 92.9576 92.5348 93.2448 95.0679 93.6552H95.0475Z" fill="#031F40"/>
<path d="M172.005 116.347L171.975 125.385L163.704 124.975L163.379 116.522L172.005 116.347Z" fill="#031F40"/>
<path d="M205.831 165.517L205.851 173.632L222.809 173.56L223.084 181.213L231.375 181.757L231.263 189.195C228.496 190.015 225.556 189.964 222.443 189.943L222.066 181.716L205.82 181.511V173.581L188.781 173.56L188.455 165.62L172.24 165.64C171.253 162.624 172.24 160.152 172.24 157.864L188.455 157.926L188.577 165.558L205.841 165.507L205.831 165.517Z" fill="#031F40"/>
<path d="M78.9744 100.918C78.9338 105.832 79.1576 110.664 79.0151 116.378C81.5584 116.984 83.9185 116.738 86.9601 116.43L87.0721 124.626C89.7272 125.304 91.9042 125.191 95.1086 124.873L95.0374 133.387L86.9296 133.418L86.8889 140.774L78.7405 140.948L78.6896 165.477L72.0569 165.682L72.0061 207.23L80.1443 207.456L80.5411 223.86L80.653 232.087C80.6733 233.78 79.3407 237.247 81.1209 239.063C82.5655 240.551 86.1056 239.35 87.7231 239.381L89.0151 239.412L88.893 247.332L112.24 247.301L114.793 247.527L114.437 253.548C114.295 254.051 114.407 254.667 115.261 254.667H154.945C155.8 254.667 156.054 253.959 156.064 253.62L156.176 247.362H207.488L207.407 262.874L215.82 262.925C215.362 265.89 215.138 268.198 215.881 270.896L232.157 270.937L232.188 262.72L248.464 262.668L248.525 254.667L256.44 254.708L256.226 246.583L256.521 239.217L264.141 239.166L264.12 214.606C261.048 213.95 258.8 214.083 256.613 214.483L255.636 214.668L255.789 213.642C256.033 211.364 256.379 209.179 255.707 206.091L247.966 205.886L247.925 197.843L239.726 197.628L239.492 189.944L231.262 189.575V189.175L231.364 181.737C233.419 181.788 236.908 180.198 239.258 182.178C240.58 183.286 240.092 186.877 239.685 189.031L247.569 189.298L247.803 197.32L255.677 197.412C256.297 200.069 256.114 202.326 255.962 205.394C258.892 205.148 261.455 204.942 264.426 205.537C264.029 207.322 263.612 210.287 264.934 211.508L271.872 212.37L271.933 213.683L271.892 215.663L272.188 239.422L264.721 239.545L264.782 248.419L264.7 254.8L256.715 254.738V262.894L248.749 262.925L248.536 270.978L232.269 271.019L232.218 279L215.067 278.939L214.945 271.809L206.125 271.706C206.491 269.655 207.356 265.828 205.871 264.351C204.518 263.007 201.445 263.674 199.787 263.9L199.472 255.518L156.919 255.467C156.349 258.206 156.532 260.237 156.817 263.479L106.36 263.53C106.655 260.227 106.777 258.247 106.248 255.569L79.9511 255.59C80.2054 252.656 80.4699 250.348 79.9002 247.721L72.7588 247.957L72.413 223.695L72.3926 215.724L64.3459 215.663L64 161.199L70.9888 160.737L71.3245 139.84C74.0203 139.809 77.0009 140.548 78.8117 139.091L78.537 135.121C78.3946 134.916 78.4048 133.152 78.8626 133.008C81.5584 132.156 83.9693 132.587 86.6143 132.71L86.655 125.611L78.7608 125.509L78.6388 117.353H71.5585L71.1108 100.857L78.9439 100.929L78.9744 100.918Z" fill="#F1F2F3"/>
<path d="M231.384 181.747L223.093 181.203L222.818 173.55L205.86 173.622L205.84 165.507L222.879 165.436L223.062 172.945C225.809 173.478 228.2 173.314 231.191 173.048C231.984 175.992 231.435 178.926 231.394 181.737L231.384 181.747Z" fill="#F1F2F3"/>
<path d="M172.005 116.347L163.379 116.521L163.165 109.156L163.084 100.928H155.149L155.006 92.8955L163.663 93.152C163.45 95.9937 163.155 98.1788 163.999 100.774C167 100.661 169.269 100.384 171.832 101.215L171.995 116.347H172.005Z" fill="#F1F2F3"/>
<path d="M155.006 92.8957C149.817 92.7418 144.517 93.3061 138.698 92.9778L137.895 85.9813L95.9521 86.0224C95.0773 88.9051 95.535 90.8748 95.8911 92.8444C95.4435 92.8444 94.945 93.0188 95.0468 93.6549C92.5239 93.2548 89.9807 92.9675 87.0712 93.6549L87.0305 100.99L78.9736 100.918L79.0449 92.8034L86.9085 92.8342L86.8474 85.0888L95.0366 85.3042L95.1892 78.0616L138.78 78L139.166 85.1606L154.904 85.2837L155.006 92.906V92.8957Z" fill="#F1F2F3"/>
<path d="M205.83 165.517L188.566 165.569L188.444 157.936L172.229 157.875L171.954 125.395L171.985 116.357L180.092 116.563L180.143 149.35C183.449 150.068 185.881 149.647 189.044 149.575L189.268 157.341L205.748 157.464L205.809 165.528L205.83 165.517Z" fill="#F1F2F3"/>
<path d="M155.688 239.668C155.963 242.099 156.278 244.469 155.719 247.362L114.824 247.526L112.27 247.3C112.84 244.674 111.66 241.986 111.64 239.576L111.518 214.729L119.086 214.175C120.643 212.739 119.89 209.128 119.829 207.014L138.354 206.717L138.567 230.999L147.55 231.256L147.743 239.411L155.688 239.668Z" fill="#672529"/>
<path d="M207.296 239.627C206.879 241.648 206.045 245.495 208.324 246.972C210.053 248.101 213.603 246.911 215.821 247.608L215.943 262.914L231.09 262.843L231.975 255.128L248.344 254.687L248.689 247.629L256.248 246.582L256.461 254.707L248.547 254.666L248.486 262.668L232.209 262.719L232.179 270.937L215.902 270.896C215.149 268.198 215.383 265.889 215.841 262.925L207.428 262.873L207.51 247.352H156.198L156.086 253.62L114.469 253.548L114.825 247.526L155.72 247.362C156.279 244.469 155.964 242.089 155.689 239.668L207.296 239.627Z" fill="#031F40"/>
<path d="M86.0346 223.511C87.9878 223.387 91.8026 222.454 93.6439 224.167C95.2817 225.696 94.3865 229.43 94.4781 231.225L103.217 231.338L103.267 239.391H89.0458L87.7538 239.371C86.9196 237.309 86.8789 235.041 86.8281 232.241C84.468 231.677 82.586 231.902 80.6837 232.077L80.5718 223.849L86.0346 223.5V223.511Z" fill="#672529"/>
<path d="M103.257 239.401L111.65 239.576C111.66 241.987 112.85 244.674 112.28 247.301L88.9336 247.331L89.0557 239.412H103.277L103.257 239.401Z" fill="#031F40"/>
<path d="M87.7445 239.38C86.127 239.35 82.597 240.55 81.1423 239.062C79.3722 237.247 80.6947 233.779 80.6744 232.087C82.5767 231.912 84.4587 231.686 86.8188 232.251C86.8595 235.051 86.9002 237.318 87.7445 239.38Z" fill="#031F40"/>
<path d="M156.094 253.62C156.094 253.958 155.84 254.666 154.975 254.666H115.291C114.436 254.666 114.324 254.061 114.467 253.558L156.084 253.63L156.094 253.62Z" fill="#0E1116"/>
<path d="M136.36 93.2448L104.194 93.7988L103.634 101.072L95.4246 101.38L95.0787 116.676L86.9404 116.204L87.1134 101.154C89.3514 100.549 92.861 101.544 94.3971 100.549C96.2486 98.6102 95.333 95.3992 95.0482 93.6449C94.9465 93.0089 95.4449 92.8345 95.8925 92.8345L136.36 93.2448Z" fill="#672529"/>
<path d="M138.659 99.8716C138.801 103.821 148.211 100.436 155.027 102.97V109.146H163.165L163.379 116.511L163.704 124.965L171.975 125.375L172.25 157.854C172.27 160.142 171.273 162.624 172.25 165.63L188.465 165.61L188.791 173.55L205.84 173.571V181.501L222.076 181.706L222.453 189.933C225.566 189.954 228.495 189.995 231.273 189.184V189.584L231.486 198.11H239.289L239.533 206.204L247.407 206.347C247.946 211.159 246.715 214.359 249.268 213.918C249.746 214.206 250.164 214.144 250.632 213.846L253.449 213.816C254.375 215.806 254.66 218.104 254.64 220.781L255.128 239.483L207.285 239.617L155.678 239.658L147.733 239.401L147.54 231.245L138.557 230.989L138.344 206.706L119.819 207.004C119.88 209.117 120.633 212.728 119.076 214.165L111.508 214.718L111.63 239.565L103.237 239.391L103.186 231.338L94.4477 231.225C94.3562 229.43 95.2514 225.695 93.6135 224.167C91.7722 222.454 87.9574 223.387 86.0042 223.51L85.9229 206.737C83.2067 206.193 81.2942 206.563 78.5068 206.645L78.5475 166.646C81.3247 165.63 83.5933 165.928 86.3298 165.948L86.4518 140.968L95.5362 140.64L96.0957 133.49L103.613 133.192C104.051 130.125 104.265 127.365 103.451 124.462C100.022 125.354 96.7773 125.303 95.76 122.892C96.1974 120.923 96.4823 118.584 95.0275 117.332L95.0581 116.686L95.404 101.39L103.613 101.082L104.173 93.8086L136.34 93.2547C136.34 92.6699 138.232 92.6186 138.384 93.0803L138.639 99.8818L138.659 99.8716ZM121.04 101.082L112.169 101.133L112.22 109.228L121.09 109.176L121.04 101.082ZM163.196 198.079L163.114 190.087L171.192 190.015C171.863 187.153 171.599 184.927 171.304 181.788L179.889 181.46L180.032 173.673C177.194 173.201 174.528 173.129 171.487 173.765L171.1 181.921C168.974 181.562 165.108 180.721 163.633 182.321C162.067 184.035 162.942 187.646 163.176 189.974L155.098 190.241C154.488 192.98 154.478 195.381 155.068 198.12L163.196 198.099V198.079ZM180.327 206.327C179.737 203.208 179.544 200.11 180.51 198.715L188.302 198.017L188.557 190.149L196.542 189.985C196.675 187.646 197.285 184.158 196.034 182.301C195.037 180.854 190.073 180.824 188.984 182.208C187.621 184.004 188.557 187.625 188.618 189.872L179.951 189.964L179.483 198.151C176.502 198.797 174.264 198.499 171.487 198.397L171.568 206.409C174.559 206.788 177.184 206.86 180.327 206.327Z" fill="#AD563C"/>
<path d="M256.542 239.216L256.247 246.582L248.689 247.628L248.343 254.687L231.975 255.128L231.09 262.842L215.942 262.914L215.82 247.608C213.603 246.91 210.062 248.09 208.323 246.972C206.044 245.495 206.878 241.648 207.295 239.627L255.138 239.493L255.647 214.688L256.624 214.503L256.542 239.237V239.216Z" fill="#672529"/>
<path d="M255.799 213.652L253.449 213.826L250.631 213.857L249.268 213.929C246.715 214.37 247.946 211.169 247.407 206.358L239.533 206.214L239.289 198.12H231.486L231.272 189.605L239.502 189.975L239.736 197.659L247.936 197.874L247.976 205.917L255.718 206.122C256.379 209.21 256.043 211.395 255.799 213.673V213.652Z" fill="#031F40"/>
<path d="M256.541 239.217L256.623 214.483C258.81 214.083 261.058 213.949 264.13 214.606L264.151 239.165L256.531 239.217H256.541Z" fill="#031F40"/>
<path d="M255.801 213.651L255.648 214.677L255.139 239.483L254.651 220.781C254.661 218.104 254.387 215.816 253.461 213.816L255.811 213.641L255.801 213.651Z" fill="#D1AC80"/>
<path d="M95.7802 122.883C95.007 121.036 94.9562 119.241 95.0477 117.322C96.5126 118.574 96.2176 120.913 95.7802 122.883Z" fill="#672529"/>
<path d="M155.027 102.97C148.211 100.436 138.801 103.821 138.659 99.8716C146.889 102.744 155.037 98.4764 155.027 102.97Z" fill="#672529"/>
<path d="M180.327 206.327C177.193 206.861 174.569 206.779 171.568 206.409L171.486 198.397C174.264 198.5 176.502 198.797 179.482 198.151L179.95 189.965L188.617 189.872C188.556 187.626 187.62 184.004 188.984 182.209C190.072 180.824 195.047 180.855 196.033 182.301C197.295 184.158 196.684 187.646 196.542 189.985L188.556 190.149L188.302 198.018L180.51 198.715C179.543 200.111 179.737 203.209 180.327 206.327Z" fill="#672529"/>
<path d="M121.044 101.074L112.173 101.127L112.221 109.221L121.092 109.168L121.044 101.074Z" fill="#672529"/>
<path d="M163.195 198.079L155.067 198.099C154.477 195.36 154.497 192.97 155.097 190.22L163.174 189.954C162.94 187.625 162.065 184.024 163.632 182.301C165.097 180.69 168.963 181.542 171.099 181.901L171.486 173.745C174.527 173.109 177.192 173.181 180.031 173.653L179.888 181.439L171.302 181.767C171.587 184.906 171.852 187.143 171.191 189.995L163.113 190.067L163.195 198.058V198.079Z" fill="#672529"/>
<path d="M249.269 213.918L250.632 213.847C250.164 214.144 249.757 214.206 249.269 213.918Z" fill="#D1AC80"/>
</svg>
