<svg width="400" height="400" viewBox="0 0 400 400" fill="none" xmlns="http://www.w3.org/2000/svg">
<g clip-path="url(#clip0_73_135232)">
<path d="M207.714 46.6141L209.789 46.6355C209.445 48.3782 209.474 50.2422 209.817 52.092H238.957L239.108 46.4927L247.219 46.6927L302.616 46.6355C302.588 48.1639 302.43 49.3495 302.795 50.8993C302.33 52.0349 302.459 53.2062 303.367 54.0204H309.869L309.948 60.7196L310.728 61.4766L317.008 61.5481L317.122 67.2403C317.165 67.9116 317.458 68.2759 317.651 68.4187C318.045 68.7044 318.546 68.8044 319.189 68.6687L346.334 68.7329L346.434 75.8036L354.102 75.8678L354.259 82.9956L361.347 83.317L361.412 90.1662L368.493 90.4376V178.077L362.02 178.184C361.211 178.92 361.14 179.727 361.283 180.691C361.347 182.577 361.455 184.248 360.947 185.626L354.173 185.748L353.937 192.747L347.743 192.797C346.777 193.04 346.42 194.054 346.978 194.897C346.434 195.754 346.62 196.411 347.042 197.039C346.377 198.061 346.291 198.746 346.341 199.982L339.403 200.218L339.167 207.567L331.943 207.731L331.814 214.773L324.497 215.266L324.482 222.087L309.941 222.122L309.891 229.229L302.659 229.271L302.359 236.435L286.509 236.592L280.643 237.042L280.572 243.955L273.498 244.184L273.297 251.312H266.903C266.045 251.655 265.794 252.454 265.995 253.461L265.859 258.575L258.735 258.711L258.427 265.681L247.905 265.81L244.057 266.41L244.093 280.544L258.434 280.601L258.527 287.665H272.983C273.383 288.9 273.534 290.421 273.297 292L273.348 299.885C273.219 300.542 273.212 301.056 273.505 301.563C273.669 301.777 274.07 301.999 274.707 302.384L283.461 302.149L287.746 302.384V353.414L151.279 353.471V348.3C150.078 348.358 149.312 348.129 148.383 347.586C147.589 347.465 147.567 346.615 147.81 346.165L280.464 346.208V309.855L273.39 309.748L273.333 302.57L265.973 302.37L265.916 294.992L258.52 294.899L258.441 287.786L236.733 287.772V258.525L251.174 258.568L251.196 251.262L258.456 251.183L258.549 244.105L265.944 243.934L265.966 236.685L273.333 236.485L273.398 229.286L295.049 229.243L295.106 222.087L302.495 222.029L302.545 214.802L317.058 214.687L317.036 207.338L324.382 207.281L324.497 200.196L331.835 200.039L331.764 192.719L339.217 192.626L339.231 185.498L346.312 185.484L346.563 178.156L353.873 178.12L353.887 163.615L361.254 163.458V105.222L353.93 105.1L353.894 97.8867L346.72 97.8581L346.37 98.3152L346.463 105.093L353.873 105.157L353.894 163.479L346.47 163.65L346.448 170.85L339.303 170.864L339.238 178.12L331.921 178.306L331.778 185.419L324.482 185.626L324.332 192.74L317.208 192.811L317.136 200.118L309.912 200.153L309.927 207.488L295.185 207.61L295.02 214.837L273.426 214.816L273.348 222.115L266.152 222.137L266.037 229.25L258.656 229.307L258.62 236.628H251.382L251.317 244.02H244.029L243.964 251.333L229.33 251.376L229.301 294.842L251.353 294.792L251.539 302.334L258.556 302.349L258.642 309.748H265.923L266.109 316.876L273.405 316.968L273.348 338.944L126.924 338.966L126.831 316.911L134.156 316.861L134.084 309.698L141.323 309.676L141.509 302.277L148.776 302.356V295.035L170.999 294.878L170.863 251.333L156.172 251.347L156.072 244.163L148.962 244.063L148.819 236.621L141.373 236.478L141.344 229.321H134.099L134.034 222.208L126.839 222.115L126.781 214.859L104.966 214.837L104.994 207.445H97.5911V200.125L90.3526 199.982L90.3383 192.847L82.8994 192.747L82.9638 185.684C83.0639 185.734 83.1784 185.712 83.2642 185.634C85.6103 185.419 88.0637 185.298 90.3025 185.791L90.3597 192.504L97.6698 192.683L111.997 192.747C111.897 193.054 111.954 193.376 112.175 193.633L112.283 200.011V207.353C114.235 207.652 115.559 207.438 116.875 207.217L117.104 207.795L126.245 207.731L134.091 207.81L134.127 214.573L139.864 214.63C140.45 214.823 140.922 214.923 141.266 214.909L141.373 221.987L148.254 222.072C148.468 222.615 148.769 222.729 148.926 222.801C148.669 224.379 148.661 226.107 148.912 227.7C148.654 227.807 148.475 228.014 148.397 228.15C148.475 228.564 148.719 228.743 148.94 228.936C151.186 229.621 153.547 229.171 156.208 229.229L156.251 236.428L162.717 236.535C162.759 236.692 162.86 237.035 163.475 237.206L163.546 243.948L171.3 244.17L178.274 244.191V251.176L185.598 251.262L185.519 258.211L185.569 294.835L177.995 295.107L178.009 301.392C177.895 301.892 177.287 302.22 177.079 302.527L170.57 302.491L161.265 302.52L156.279 302.713L156.179 309.755L149.069 309.791C148.146 310.055 148.146 311.305 148.576 312.062C148.769 313.683 148.747 315.354 148.483 316.99L141.416 317.104L141.308 324.225L149.126 324.246L155.893 324.018C156.308 324.196 156.923 324.339 157.688 324.232L171.185 324.132L229.151 324.103H258.391L258.42 316.983L251.26 316.947L251.217 309.798L244.157 309.648C243.814 308.212 243.857 306.662 244.143 304.827C243.971 304.07 243.893 303.534 244.129 302.427C242.798 302.156 241.461 302.156 239.851 302.327C238.542 302.134 237.412 302.156 236.497 302.52C236.003 302.284 235.402 302.27 234.909 302.606L234.701 301.992L221.891 302.02L221.819 295.035L214.688 294.857L214.767 259.204L214.745 251.355L218.429 251.29H221.29C221.719 251.49 222.134 251.09 221.92 250.662V245.648L221.984 244.07L229.416 243.848L236.676 243.884L236.711 236.999C236.339 236.871 236.354 236.556 236.497 236.392L244.036 236.435L244.129 229.429L251.253 229.343L251.31 222.072L258.47 222.001L258.627 214.909L261.174 214.616C262.568 214.823 264.006 214.98 265.83 214.309L266.023 207.995C267.067 207.481 268.384 207.345 269.857 207.453L287.775 207.36L287.803 200.053L295.056 200.025L294.892 192.897L302.016 192.761L309.805 192.79L309.726 185.634C310.313 185.369 311.1 185.405 311.979 185.534L317.036 185.455L317.072 179.234C317.094 178.649 317.537 178.284 317.709 178.027L324.325 178.049V171.321C324.468 171.307 324.747 171.207 325.033 170.821L331.892 170.714L331.971 163.479L339.074 163.515L339.088 156.373C339.074 156.251 339.045 156.023 339.21 155.666L339.174 112.456L332.715 112.364C332.157 112.306 331.964 111.892 331.985 111.635C332.071 111.321 332.043 111.007 331.914 110.714L331.928 105.764C332.2 105.35 331.807 104.907 331.356 105.114C330.941 105.079 330.269 105.043 329.961 105.286L324.432 105.122L324.325 97.8081L295.364 97.7867L295.113 105.107L287.61 105.157L284.155 105.129L280.593 105.05V85.0525L280.557 83.6241C280.736 83.2027 280.35 82.7956 279.921 83.0241H274.192C273.698 82.867 273.176 82.8599 272.675 83.0598L222.427 83.167C222.063 82.9313 221.691 82.8813 221.269 82.9313H120.551C120.072 82.817 119.707 83.1813 119.822 83.6526L119.807 90.0805V90.7375C118.963 90.5661 118.928 91.5232 119.679 91.5517L119.757 97.5653L119.486 105.186L112.075 105.164L104.937 105.072L104.873 97.8581L98.0346 97.9795C97.3837 97.7867 96.5397 97.7367 95.5383 97.801L75.7467 97.901L75.7324 105.129L68.358 105.15L68.3222 112.278L64.0449 112.299C63.8875 112.192 63.6157 112.156 63.4011 112.199C62.7431 111.928 61.9563 112.128 61.9635 112.885C61.6988 112.792 61.1194 112.992 61.2482 113.642L61.1838 156.423V163.508L68.3723 163.615L68.451 170.757H75.4821C76.0185 173.128 75.8755 175.606 75.6752 177.992C75.6394 178.092 75.6108 178.192 75.6037 178.292L68.358 178.02V170.992L61.0694 170.907L61.0837 163.565H46.5994L46.4349 164.015L46.4635 170.764H53.5805L53.8094 178.163L60.9549 178.135L61.0622 185.391L68.451 185.512L68.4653 192.683L75.6824 192.726L75.7038 200.032L82.8279 200.089L83.0282 207.46L90.2667 207.424L90.3526 214.602L97.7199 214.752L97.6912 221.987L104.93 222.037L104.994 229.221L126.903 229.186V236.563H134.177L134.227 244.013L141.437 244.027V251.197L148.805 251.147L148.948 258.582L163.539 258.597V287.779L141.401 287.686L141.416 294.992L134.199 295.114V302.513H126.932L126.989 309.726L119.6 309.826L119.536 346.208L140.565 346.229C140.729 346.793 140.772 347.415 140.379 348.15C138.784 348.686 137.367 349.029 135.565 349.057C134.828 348.915 134.37 349.336 134.227 349.543C133.941 350.057 133.92 350.414 133.884 351.307C134.134 352.1 134.063 353.128 133.441 353.386L112.268 353.336L112.24 314.162L112.39 309.912L119.3 309.791L119.285 304.106C119.314 303.513 119.278 303.07 119.471 302.691C119.593 302.427 120.043 302.063 120.659 302.456C121.345 302.042 121.968 302.027 122.69 302.391C123.992 302.049 125.007 302.127 126.624 302.427L126.996 294.942L134.056 294.842L134.206 287.772L141.308 287.672L141.38 280.673L148.433 280.515L154.891 280.573C155.993 280.558 156.58 279.551 156.301 278.473L156.05 266.074L145.571 266.06C144.091 266.281 142.811 265.924 141.366 265.603L141.287 260.596C141.437 259.739 141.208 259.068 140.515 258.489L134.192 258.447L134.163 251.405L127.01 251.29L126.917 244.198C125.215 243.798 123.749 244.098 121.996 244.105L119.822 243.87C119.478 243.648 118.928 242.948 119.457 242.07L119.199 237.106L113.949 236.542L97.7413 236.378L97.4624 229.486L90.2524 229.193C90.1451 227.914 89.9949 227.1 90.374 226.193L90.4527 222.094L82.9781 222.022L82.7206 215.016L75.5822 214.887L75.525 207.695L68.3365 207.438V200.796C67.8001 200.118 67.1206 199.825 66.2765 200.111L61.1695 199.968C61.2196 197.375 61.3555 195.304 60.633 192.84L53.7736 192.504L53.5089 185.734L46.5136 185.527L46.3205 178.056L39.1463 177.856L38.853 170.985L31.543 170.685V105.15L31.6431 97.901L38.9818 97.3582L39.0676 90.4733L46.2489 90.2019L46.3848 83.317L53.5018 82.9813L53.7164 75.8107L61.2339 75.8321L61.2839 68.7044L88.4213 68.6687C89.3369 68.8615 89.9592 68.483 90.2882 68.0973C90.4742 67.6974 90.5528 67.2188 90.5028 66.5618L90.5314 61.5766L95.6098 61.4124C96.4324 61.4695 97.0332 61.4338 97.7413 60.6839L97.7699 53.9989L104.908 53.7561L104.923 46.8284L111.389 46.6712L207.75 46.5855L207.714 46.6141ZM46.4778 163.115L46.4564 105.157L60.9907 105.143L61.0622 97.8438L68.3079 97.8296L68.3651 90.509L104.873 90.4518L104.915 75.8535L112.304 75.8893L112.261 68.6115L287.753 68.583L287.968 75.8893L295.206 76.1392L295.235 90.509L339.067 90.3804L339.081 83.1884L302.559 83.2384L302.495 68.7044L295.163 68.4615L294.87 61.3695H105.051L104.915 68.7758H97.6483L97.6912 83.217L61.0694 83.2741L60.9406 90.5733L53.7307 90.7518L53.5376 97.8653L46.3848 97.9367V105.179L39.0176 105.236V163.486L45.8627 163.586L46.4778 163.122V163.115ZM346.377 97.5796L346.398 90.6161L339.482 90.5304L339.267 97.8867L345.955 97.9438L346.37 97.5867L346.377 97.5796Z" fill="#050504"/>
<path d="M75.5893 178.327L75.6179 185.584L82.9709 185.712L82.9065 192.776L90.3453 192.876L90.3596 200.011L97.5982 200.153V207.467L104.994 207.474L104.965 214.866L126.781 214.887L126.838 222.144L134.034 222.237L134.098 229.35H141.344L141.373 236.514L148.819 236.656L148.962 244.098L156.072 244.198L156.172 251.383L170.863 251.369L170.999 294.914L148.776 295.071V302.392L141.509 302.313L141.323 309.712L134.084 309.734L134.156 316.897L126.831 316.947L126.924 339.002L273.347 338.98L273.405 317.004L266.109 316.911L265.923 309.776H258.641L258.556 302.392L251.539 302.377L251.353 294.835L229.301 294.885L229.33 251.419L243.964 251.376L244.029 244.056H251.317L251.381 236.678H258.62L258.656 229.35L266.037 229.293L266.152 222.18L273.347 222.158L273.426 214.859L295.02 214.88L295.185 207.653L309.926 207.531L309.912 200.196L317.136 200.161L317.208 192.854L324.332 192.783L324.482 185.669L331.778 185.462L331.921 178.349L339.238 178.163L339.303 170.907L346.448 170.893L346.47 163.693L353.894 163.522L353.873 105.2L346.462 105.136L346.369 98.3582L345.955 97.9582L339.267 97.9011L339.481 90.5448L346.398 90.6305L346.377 97.594L346.727 97.894L353.901 97.9225L353.937 105.136L361.254 105.257V163.493L353.894 163.651L353.88 178.156L346.57 178.192L346.319 185.519L339.238 185.534L339.224 192.661L331.771 192.754L331.842 200.075L324.504 200.232L324.389 207.317L317.043 207.374L317.065 214.723L302.552 214.837L302.502 222.065L295.113 222.122L295.056 229.279L273.405 229.322L273.34 236.521L265.973 236.721L265.952 243.97L258.556 244.141L258.463 251.219L251.203 251.298L251.181 258.604L236.747 258.561V287.808L258.448 287.822L258.527 294.935L265.923 295.028L265.98 302.406L273.34 302.606L273.398 309.784L280.464 309.891V346.244L147.81 346.201C147.846 345.622 147.875 345.015 147.646 344.237L140.629 344.208C140.393 345.044 140.429 345.687 140.529 346.258L119.5 346.236L119.564 309.855L126.953 309.755L126.896 302.542H134.156L134.163 295.142L141.38 295.021L141.366 287.715L163.503 287.808V258.625L148.912 258.611L148.769 251.176L141.409 251.226V244.056L134.199 244.041L134.149 236.592H126.881V229.222L104.973 229.257L104.908 222.072L97.6697 222.022L97.6983 214.787L90.331 214.638L90.2452 207.46L83.0067 207.495L82.8064 200.125L75.6823 200.068L75.6608 192.761L68.4437 192.719L68.4294 185.548L61.0407 185.427L60.9334 178.17L53.7878 178.199L53.5589 170.814H46.442L46.4134 164.058L45.8555 163.586L39.0032 163.486V105.236L46.3705 105.179V97.9368L53.5232 97.8654L53.7163 90.7519L60.9262 90.5734L61.055 83.2742L97.6769 83.2171L97.6339 68.7688H104.901L105.037 61.3696H294.863L295.156 68.4545L302.488 68.6973L302.552 83.2314L339.074 83.1814L339.059 90.3734L295.228 90.502L295.199 76.1322L287.96 75.8822L287.746 68.5759L112.254 68.6045L112.297 75.8822L104.908 75.8465L104.865 90.4448L68.3579 90.502L68.3007 97.8225L61.055 97.8368L60.9835 105.136L46.4491 105.15L46.4706 163.108L46.5779 163.586H61.0621L61.0478 170.935L68.3364 171.021V178.049L75.5821 178.32L75.5893 178.327Z" fill="#F7F7F7"/>
<path d="M280.407 192.904L280.529 200.046L273.498 199.975L273.448 192.847L280.407 192.904Z" fill="#C6864F"/>
<path d="M280.608 105.093L280.572 127.069L280.486 170.971L273.29 171L273.448 192.847L265.866 192.883V203.567C266.166 205.16 265.923 206.603 265.286 207.724C265.143 207.595 264.972 207.603 264.836 207.724C264.628 207.874 264.349 207.86 264.156 207.624L262.618 207.767C262.597 207.067 261.817 207.003 261.481 207.581C260.308 207.274 259.493 207.46 258.692 207.96C258.291 210.509 258.406 212.716 258.634 214.916L258.477 222.008L251.317 222.08L251.26 229.35L244.136 229.436L236.69 229.279L236.504 236.399L229.122 236.649L221.955 236.706L222.005 243.491C221.626 243.384 221.355 243.627 221.355 243.984L214.745 243.948V250.583C214.688 250.84 214.688 251.098 214.76 251.355L185.605 251.24L185.548 244.234L180.834 244.184C180.77 243.927 180.777 243.484 181.206 243.484L189.847 243.998L193.416 243.791C195.59 244.084 197.672 244.27 199.968 243.656L199.918 236.628L206.956 236.306L207.257 229.264L214.531 229.3L214.953 222.194L220.611 222.122C221.219 222.172 221.612 221.901 221.912 221.294L222.02 214.959L229.151 214.902L229.394 207.424L236.733 207.503L236.983 192.933L242.777 192.854C243.864 192.747 244.372 191.754 244.05 190.712L244.014 171.264C245.402 170.671 246.818 170.8 248.442 170.907C249.472 170.971 250.251 170.993 251.267 170.45L251.21 97.8654L156.315 97.9225L154.126 97.8011L141.237 97.8797H126.996L119.757 97.594L119.679 91.5804C119.829 91.3233 119.865 91.0448 119.807 90.7662C120.094 90.7805 120.58 90.7091 121.36 90.4591L220.475 90.4734L222.041 90.1306C223.035 90.5662 224.144 90.7591 225.625 90.6234L279.785 90.6591L279.914 85.2169C280.257 85.0455 280.479 85.0669 280.608 85.0812V105.079V105.093Z" fill="#C6864F"/>
<path d="M214.788 259.232L214.71 294.885L221.841 295.064L221.912 302.049C222.005 302.642 222.649 303.013 223.4 302.706L234.93 302.634C235.417 302.299 236.018 302.313 236.518 302.549L236.633 309.834L244.172 309.676L251.231 309.826L251.274 316.976C251.339 317.418 251.639 317.783 252.233 318.39L257.705 318.447L257.669 323.425H229.158L229.094 317.076L221.998 316.976L221.605 309.719C218.93 309.848 216.777 310.026 214.731 309.469L214.681 302.577L192.629 302.42L192.729 294.95L199.939 294.885L207.514 294.935L207.264 286.051L207.028 266.553C204.496 265.682 202.2 265.674 200.018 265.917L192.758 265.796L192.701 259.868C192.901 259.382 192.593 258.982 192.214 258.968C192.465 258.697 192.858 258.461 193.416 258.532L213.515 258.611C214.073 258.518 214.517 259.132 214.788 259.225V259.232Z" fill="#C6864F"/>
<path d="M222.041 90.145L220.475 90.4878L121.36 90.4736C120.58 90.7235 120.093 90.795 119.807 90.7807V90.1236C119.936 90.1522 120.158 90.1807 120.508 90.0022L120.651 84.3957H221.111C221.469 83.7315 221.326 83.303 221.304 82.9673C221.726 82.9173 222.098 82.9673 222.463 83.203C222.213 83.7029 221.948 84.2886 221.998 85.0956L222.048 90.145H222.041Z" fill="#F9DFA5"/>
<path d="M272.697 83.096C272.711 83.5316 273.197 83.9459 273.798 83.6887C273.991 83.6245 274.234 83.3888 274.213 83.0674H279.942C279.892 83.4245 280.157 83.7459 280.579 83.6602L280.615 85.0886C280.486 85.0671 280.271 85.0529 279.921 85.2243L279.792 90.6665L225.632 90.6308C224.151 90.7665 223.042 90.5737 222.048 90.138L221.998 85.0886C221.948 84.2887 222.213 83.703 222.463 83.1959L272.711 83.0888L272.697 83.096Z" fill="#F7B940"/>
<path d="M126.996 97.8943L126.889 163.594H120.537V127.369C120.065 127.105 119.765 127.184 119.629 127.234L119.486 105.236L119.757 97.6157L126.996 97.8943Z" fill="#F9DFA5"/>
<path d="M331.985 156.38L331.778 162.658C331.592 162.965 331.263 163.558 330.726 163.679L324.203 163.629C324.618 166.286 324.597 168.436 324.132 170.578L318.417 170.728C317.802 170.678 317.437 170.2 317.136 170.079L317.101 164.286C317.515 164.365 317.844 164.051 317.744 163.622H324.296L324.339 156.294L331.985 156.373V156.38Z" fill="#F7B940"/>
<path d="M331.37 105.143C331.306 105.521 331.571 105.814 331.943 105.793L331.928 110.742C331.048 110.821 331.285 111.799 332 111.664C331.978 111.921 332.171 112.335 332.729 112.392L339.188 112.485L339.224 155.694C339.06 156.051 339.081 156.28 339.102 156.401L331.985 156.373L331.857 120.905C332.214 120.441 331.878 119.948 331.356 119.906L324.318 119.877L324.303 112.156L324.339 105.764C326.328 105.721 328.316 106.25 329.976 105.3C330.283 105.05 330.948 105.086 331.37 105.129V105.143Z" fill="#F7B940"/>
<path d="M200.018 265.917L199.932 294.878L192.722 294.943L192.622 302.413L185.562 302.656L185.455 309.677L178.517 309.805L178.088 312.712C178.438 314.176 178.467 315.376 178.088 316.947L171.228 317.054V323.339C171.157 323.625 171.142 323.904 171.171 324.161L157.674 324.261C156.909 324.368 156.293 324.225 155.879 324.046C155.764 323.861 155.707 323.489 156.229 323.339L156.301 317.176L163.382 316.99C163.697 314.348 163.711 312.083 163.425 309.862L170.871 309.52C171.007 307.013 171.049 304.691 170.57 302.513L177.079 302.549L185.469 302.52L185.569 294.857C187.773 295.135 190.047 295.285 192.701 294.786L192.758 265.782L200.018 265.903V265.917Z" fill="#F9DFA5"/>
<path d="M287.624 105.193C287.717 105.714 287.918 106.379 287.86 107.214L287.846 119.706L295.12 119.613L295.428 112.692L301.014 112.599C301.801 112.749 302.631 112.292 302.595 111.521V105.086H315.62C316.385 104.979 316.993 105.122 317.408 105.329C316.95 106.464 316.993 107.8 317.144 109.364L316.8 112.385L324.289 112.164L324.303 119.884L331.342 119.913C331.191 120.384 331.406 120.827 331.842 120.913L331.971 156.38L324.325 156.301V120.12C321.614 119.591 319.583 119.67 317.093 119.934V112.242L302.624 112.306L302.481 120.063C299.77 119.563 297.838 119.677 295.578 120.02L295.356 125.712C295.306 126.333 295.106 126.712 294.942 126.905C294.555 127.126 294.069 127.205 293.461 127.069H280.55L280.586 105.093L284.148 105.172L287.603 105.2L287.624 105.193Z" fill="#834731"/>
<path d="M339.11 156.408L339.095 163.55L331.993 163.515C332.164 163.222 332.093 162.858 331.785 162.658L331.993 156.38L339.11 156.408Z" fill="#834731"/>
<path d="M324.447 105.15L317.43 105.336C317.015 105.136 316.4 104.986 315.642 105.093H302.616V111.521C302.652 112.292 301.822 112.75 301.036 112.6L295.449 112.692C295.364 110.207 295.771 107.6 295.142 105.143L295.392 97.8228L324.354 97.8442L324.461 105.158L324.447 105.15Z" fill="#F7B940"/>
<path d="M192.214 258.983C192.593 258.99 192.901 259.39 192.701 259.882L192.758 265.81L192.701 294.814C190.047 295.314 187.772 295.164 185.569 294.886L185.519 258.261C186.614 258.561 187.701 258.625 189.153 258.59C190.369 258.44 191.463 258.44 192.207 258.99L192.214 258.983Z" fill="#F7B940"/>
<path d="M119.486 105.229L119.629 127.226L104.994 127.005L104.894 119.463C105.423 119.756 106.046 119.906 106.94 119.663L112.104 119.813L112.075 105.208L119.486 105.229Z" fill="#834731"/>
<path d="M273.448 192.847L273.498 199.975L280.522 200.039L287.868 200.089L287.882 192.869L294.899 192.911L295.063 200.039L287.81 200.068L287.782 207.374L269.864 207.467C268.391 207.353 267.075 207.488 266.03 208.01C265.716 208.167 265.408 208.01 265.279 207.724C265.916 206.603 266.159 205.16 265.852 203.567V192.883L273.441 192.847H273.448Z" fill="#834731"/>
<path d="M280.493 170.964L280.729 184.934L295.199 184.827L295.22 178.263L302.073 178.113C302.173 177.97 302.28 177.856 302.387 177.792C303.553 178.084 304.791 177.913 306.372 177.792C306.858 177.863 307.051 178.184 307.123 178.427C305.799 178.706 304.462 178.677 302.702 178.377C302.43 180.913 302.359 182.698 302.759 185.448L295.628 185.569H280.615L280.414 192.911L273.455 192.854L273.297 171.007L280.493 170.978V170.964Z" fill="#834731"/>
<path d="M105.616 185.605H119.55L119.672 192.976L119.579 199.854C119.307 199.832 118.913 199.961 118.456 200.097L112.297 200.039L112.19 193.662C112.955 193.433 112.605 192.69 112.011 192.776L97.6841 192.712L97.7842 185.684L105.624 185.605H105.616Z" fill="#F7B940"/>
<path d="M180.834 244.213L185.548 244.263L185.605 251.269L214.76 251.383L214.781 259.232C214.509 259.139 214.073 258.532 213.508 258.618L193.409 258.539C192.844 258.468 192.458 258.704 192.207 258.975C191.463 258.425 190.369 258.425 189.153 258.575C187.701 258.611 186.614 258.539 185.519 258.247L185.598 251.297L178.274 251.212V244.227C178.66 244.355 179.046 244.277 179.354 244.02C179.826 243.763 180.419 243.848 180.834 244.205V244.213Z" fill="#834731"/>
<path d="M307.123 178.42C308.009 178.113 308.989 178.178 309.912 178.299L309.755 183.591C309.976 184.62 309.569 185.134 309.011 185.512L302.473 185.427L302.602 192.04C302.18 192.233 302.015 192.547 302.03 192.783L294.906 192.919L287.889 192.876L287.875 200.096L280.529 200.046L280.414 192.904L280.615 185.555H295.628L302.759 185.441C302.359 182.691 302.43 180.906 302.702 178.37C304.462 178.67 305.799 178.699 307.123 178.42Z" fill="#F7B940"/>
<path d="M112.075 105.208L112.104 119.813L106.94 119.663C106.046 119.906 105.423 119.756 104.894 119.463L104.858 112.271H97.541L97.634 105.129L97.5982 99.3083C97.8772 98.837 98.0632 98.3727 98.0274 98.0228L104.865 97.9014L104.93 105.115L112.068 105.208H112.075Z" fill="#F7B940"/>
<path d="M156.186 309.791C156.472 309.891 156.765 309.891 157.059 309.791L163.432 309.87C163.718 312.091 163.704 314.355 163.389 316.997L156.308 317.183L156.236 323.347C155.714 323.497 155.771 323.868 155.886 324.054L149.119 324.282C149.169 323.782 149.041 323.175 148.583 322.561L148.483 317.026C148.747 315.39 148.762 313.719 148.576 312.098C149.32 311.662 149.298 310.627 149.069 309.827L156.179 309.791H156.186Z" fill="#F7B940"/>
<path d="M98.0274 98.0152C98.056 98.3723 97.8772 98.8294 97.5982 99.3008L97.634 105.122H82.7063L75.6966 105.164L75.5393 112.242L68.3079 112.299L68.3436 105.172L75.7181 105.15L75.7324 97.9224L95.5239 97.8224C96.5253 97.7581 97.3693 97.8081 98.0202 98.001L98.0274 98.0152Z" fill="#F9DFA5"/>
<path d="M221.29 82.9741C221.312 83.3098 221.455 83.7383 221.097 84.4025H120.644L120.501 90.009C120.158 90.1876 119.936 90.1519 119.807 90.1304L119.822 83.7026C120.279 83.8097 120.651 83.4312 120.551 82.9813H221.29V82.9741Z" fill="#F5E5C3"/>
<path d="M126.896 170.785L126.917 192.797L134.191 192.811L134.12 205.017C134.084 205.496 134.306 205.753 134.463 205.938C134.055 206.538 134.013 207.174 134.098 207.845L126.252 207.767L117.111 207.831L116.882 207.253L126.931 207.217L126.703 199.768L126.724 192.854L119.671 192.99L119.55 185.627V172.114C119.679 171.714 119.85 171.342 119.814 171.114C120.208 171.221 120.694 171.1 121.173 170.757L126.896 170.8V170.785Z" fill="#834731"/>
<path d="M295.135 105.143C295.764 107.6 295.356 110.207 295.442 112.692L295.135 119.613L287.86 119.706L287.875 107.214C287.925 106.379 287.732 105.714 287.639 105.193L295.142 105.143H295.135Z" fill="#C6864F"/>
<path d="M119.579 199.853L124.843 200.125C125.68 200.353 126.281 200.089 126.703 199.753L126.931 207.203L116.882 207.238C115.566 207.46 114.25 207.674 112.304 207.374V200.032L118.448 200.089C118.913 199.961 119.3 199.832 119.571 199.846L119.579 199.853Z" fill="#A3523B"/>
<path d="M170.577 302.52C171.057 304.698 171.014 307.012 170.878 309.526L163.432 309.869L163.51 303.341L157.002 303.463L157.052 309.791C156.765 309.891 156.465 309.891 156.179 309.791L156.279 302.749L161.265 302.556L170.57 302.527L170.577 302.52Z" fill="#C6864F"/>
<path d="M185.576 294.871L185.476 302.534L177.086 302.563C177.294 302.256 177.902 301.927 178.016 301.427L178.002 295.142L185.576 294.871Z" fill="#C6864F"/>
<path d="M179.354 244.027C179.046 244.284 178.66 244.355 178.274 244.234L171.3 244.212C171.321 243.955 171.171 243.598 170.67 243.37L170.57 236.521L178.023 236.706C178.359 238.577 178.316 240.22 178.173 242.091C178.138 243.213 178.753 243.641 179.354 244.027Z" fill="#C6864F"/>
<path d="M244.164 309.684L236.625 309.841L236.511 302.556C237.427 302.192 238.55 302.17 239.866 302.363C241.475 302.192 242.805 302.192 244.143 302.463C243.907 303.57 243.986 304.113 244.157 304.863C243.871 306.698 243.835 308.248 244.172 309.684H244.164Z" fill="#834731"/>
<path d="M236.511 236.421C236.368 236.585 236.354 236.899 236.726 237.028L236.69 243.913L229.43 243.877C229.044 242.749 229.072 241.442 229.265 239.963L229.136 236.671L236.518 236.421H236.511Z" fill="#672C2B"/>
<path d="M82.7062 105.129C83.0496 107.343 82.9781 109.607 82.7134 112.307L75.5678 112.285L75.5321 120.013L68.3865 119.899C68.4151 119.384 68.3078 118.742 68.079 117.963C68.4509 116.406 68.3007 115.199 68.1004 113.592C68.8443 113.271 68.5081 112.178 67.6498 112.542C66.627 113.135 64.7601 113.349 64.0305 112.328L68.3078 112.307L75.5392 112.25L75.6966 105.172L82.7062 105.129Z" fill="#F7B940"/>
<path d="M317.043 177.935C317.279 177.92 317.508 177.956 317.73 178.049C317.558 178.306 317.115 178.67 317.093 179.256L317.058 185.477L312.001 185.555C311.121 185.427 310.334 185.384 309.748 185.655C309.512 185.819 309.197 185.777 309.018 185.505C309.583 185.127 309.984 184.62 309.762 183.584L309.919 178.292L309.934 177.899L317.051 177.935H317.043Z" fill="#AF603D"/>
<path d="M141.952 214.809C141.731 214.916 141.502 214.959 141.266 214.938C140.915 214.952 140.443 214.852 139.864 214.659L134.127 214.602L134.091 207.839C134.006 207.167 134.049 206.539 134.456 205.932C134.692 206.146 134.9 206.46 134.921 207.296H141.294L141.309 213.588C141.344 214.152 141.802 214.531 141.952 214.802V214.809Z" fill="#C6864F"/>
<path d="M170.57 236.513L170.67 243.363C171.171 243.591 171.321 243.948 171.3 244.205L163.546 243.984L163.475 237.242C162.86 237.078 162.759 236.728 162.717 236.571C162.938 236.485 163.174 236.442 163.41 236.456L170.57 236.513Z" fill="#834731"/>
<path d="M331.993 163.515L331.914 170.75L325.054 170.857C324.768 171.243 324.497 171.336 324.339 171.357L324.139 170.593C324.604 168.45 324.625 166.293 324.21 163.644L330.734 163.694C331.27 163.572 331.599 162.979 331.785 162.672C332.093 162.872 332.164 163.237 331.993 163.529V163.515Z" fill="#AF603D"/>
<path d="M244.143 229.45L244.05 236.456L236.511 236.421L236.697 229.293L244.143 229.45Z" fill="#834731"/>
<path d="M229.129 236.671L229.258 239.963C229.072 241.442 229.037 242.756 229.423 243.877L221.991 244.099L222.005 243.513L221.955 236.728L229.122 236.671H229.129Z" fill="#A3523B"/>
<path d="M149.241 221.83C149.198 222.187 149.091 222.515 148.926 222.83C148.776 222.765 148.476 222.644 148.254 222.101L141.373 222.015L141.266 214.938C141.502 214.959 141.731 214.916 141.952 214.809L148.29 214.938C148.833 216.259 148.869 217.216 148.883 218.551C148.719 219.866 148.747 220.951 149.241 221.83Z" fill="#AF603D"/>
<path d="M324.446 105.15L329.975 105.315C328.316 106.265 326.328 105.736 324.339 105.779L324.303 112.171L316.814 112.392L317.158 109.371C317.008 107.814 316.972 106.472 317.422 105.336L324.439 105.15H324.446Z" fill="#C6864F"/>
<path d="M148.483 317.026L148.583 322.561C149.041 323.175 149.169 323.782 149.119 324.282L141.301 324.261L141.409 317.14L148.475 317.026H148.483Z" fill="#C6864F"/>
<path d="M309.011 185.505C309.19 185.777 309.504 185.82 309.741 185.655L309.819 192.812L302.03 192.783C302.016 192.547 302.18 192.233 302.602 192.04L302.473 185.427L309.011 185.512V185.505Z" fill="#A3523B"/>
<path d="M324.132 170.586L324.332 171.35V178.078L317.723 178.056C317.501 177.963 317.272 177.92 317.036 177.942L316.993 170.871L317.136 170.093C317.437 170.214 317.802 170.693 318.417 170.743L324.132 170.593V170.586Z" fill="#C6864F"/>
<path d="M163.418 236.457C163.181 236.442 162.945 236.478 162.724 236.571L156.258 236.464L156.215 229.265C153.554 229.207 151.194 229.657 148.948 228.972C149.198 228.493 149.191 228.065 148.919 227.736C148.669 226.144 148.676 224.415 148.933 222.837C149.098 222.523 149.205 222.194 149.248 221.837L156.107 222.115L156.322 229.058L163.389 229.25L163.425 236.464L163.418 236.457Z" fill="#C6864F"/>
<path d="M68.3078 156.395L68.3651 163.651L61.1694 163.544L61.1766 156.452L61.9562 156.409L68.3078 156.395Z" fill="#AF603D"/>
<path d="M92.6343 185.67L97.7699 185.684L97.6698 192.712L90.3597 192.533L90.3025 185.82L91.2538 185.663C91.7044 185.57 92.1693 185.57 92.6271 185.67H92.6343Z" fill="#672C2B"/>
<path d="M221.362 244.006C221.047 244.656 221.147 245.527 221.941 245.67V250.683C221.555 250.626 221.247 250.898 221.311 251.312H218.45C218.415 250.669 217.735 250.355 217.063 250.705L214.752 250.612V243.977L221.354 244.013L221.362 244.006Z" fill="#834731"/>
<path d="M229.151 323.425V324.132L171.185 324.161C171.149 323.904 171.171 323.625 171.235 323.339L229.151 323.418V323.425Z" fill="#E3BD8B"/>
<path d="M67.657 112.543C67.8859 112.978 67.6928 113.635 67.0061 113.7L61.9492 113.742V156.416L61.1838 156.459L61.2482 113.678C61.1266 113.028 61.6988 112.828 61.9635 112.921C62.5929 113.221 63.3797 113.007 63.4012 112.235C63.6158 112.193 63.8876 112.228 64.0449 112.335C64.7745 113.35 66.6414 113.142 67.6642 112.55L67.657 112.543Z" fill="#F5E5C3"/>
<path d="M229.151 324.132V323.425H257.662L257.697 318.447L252.226 318.39C251.632 317.783 251.331 317.426 251.267 316.976L258.427 317.011L258.398 324.132H229.158H229.151Z" fill="#CC9871"/>
<path d="M264.156 207.631C263.806 208.367 264.857 208.945 264.836 207.731C264.979 207.603 265.143 207.596 265.286 207.731C265.415 208.024 265.723 208.174 266.038 208.017L265.844 214.331C264.02 215.002 262.583 214.845 261.188 214.638L261.317 208.638C262.168 208.81 262.647 208.417 262.619 207.781L264.156 207.638V207.631Z" fill="#A3523B"/>
<path d="M262.619 207.781C262.647 208.417 262.168 208.81 261.317 208.639L261.188 214.638L258.642 214.931C258.406 212.731 258.298 210.524 258.699 207.974C259.5 207.474 260.308 207.289 261.488 207.596C261.825 207.017 262.604 207.089 262.626 207.781H262.619Z" fill="#834731"/>
<path d="M234.923 302.642L223.393 302.713C222.642 303.02 221.998 302.649 221.905 302.056L234.716 302.027L234.923 302.642Z" fill="#834731"/>
<path d="M218.45 251.319L214.767 251.383C214.695 251.133 214.688 250.869 214.752 250.612L217.063 250.705C217.728 250.348 218.407 250.662 218.45 251.312V251.319Z" fill="#672C2B"/>
<path d="M221.998 244.099L221.941 245.677C221.147 245.534 221.047 244.656 221.361 244.013C221.361 243.656 221.633 243.413 222.012 243.52L221.998 244.106V244.099Z" fill="#672C2B"/>
<path d="M148.576 312.098C148.154 311.341 148.147 310.084 149.069 309.827C149.291 310.627 149.32 311.662 148.576 312.098Z" fill="#C6864F"/>
<path d="M63.394 112.228C63.3725 112.992 62.5857 113.214 61.9563 112.914C61.9563 112.164 62.7359 111.957 63.394 112.228Z" fill="#F9DFA5"/>
<path d="M274.213 83.0741C274.234 83.3955 273.991 83.624 273.798 83.6955C273.197 83.9526 272.711 83.5383 272.697 83.1027C273.197 82.9027 273.719 82.9098 274.213 83.0812V83.0741Z" fill="#CC9871"/>
<path d="M280.579 83.6672C280.157 83.7529 279.892 83.4315 279.942 83.0673C280.371 82.8387 280.758 83.2458 280.579 83.6672Z" fill="#CC9871"/>
<path d="M332.007 111.664C331.292 111.8 331.056 110.821 331.935 110.743C332.064 111.035 332.093 111.35 332.007 111.664Z" fill="#C6864F"/>
<path d="M221.312 251.312C221.247 250.905 221.562 250.626 221.941 250.683C222.156 251.112 221.748 251.512 221.312 251.312Z" fill="#672C2B"/>
<path d="M331.95 105.793C331.578 105.807 331.306 105.522 331.377 105.143C331.828 104.936 332.229 105.379 331.95 105.793Z" fill="#C6864F"/>
<path d="M148.94 228.971C148.726 228.779 148.483 228.593 148.397 228.186C148.468 228.057 148.647 227.85 148.912 227.736C149.184 228.057 149.191 228.486 148.94 228.971Z" fill="#AF603D"/>
<path d="M119.679 91.595C118.928 91.5664 118.963 90.6094 119.807 90.7808C119.865 91.0593 119.829 91.3379 119.679 91.595Z" fill="#834731"/>
<path d="M112.182 193.669C111.968 193.412 111.911 193.083 112.004 192.783C112.597 192.698 112.948 193.44 112.182 193.669Z" fill="#A3523B"/>
<path d="M119.822 83.6956C119.707 83.2242 120.072 82.86 120.551 82.9743C120.651 83.4242 120.279 83.8027 119.822 83.6956Z" fill="#CC9871"/>
<path d="M83.1498 178.027C82.8207 178.134 82.7778 178.534 83.1283 178.742L83.2714 185.662C83.1784 185.741 83.0711 185.762 82.971 185.712L75.618 185.584L75.5894 178.327C75.5894 178.227 75.6251 178.127 75.6609 178.027H83.1569H83.1498Z" fill="#32110F"/>
<path d="M141.244 97.9012L141.351 183.491C141.273 184.484 141.487 185.077 142.102 185.555L148.218 185.712C148.533 186.519 148.647 187.155 148.547 187.841L148.597 199.961L155.399 200.068C156.136 200.582 156.394 201.246 156.25 202.118L156.322 214.688L163.468 214.952L163.51 222.08L170.52 221.994L170.635 213.552C171.443 211.467 171.407 209.181 170.627 207.403C167.895 207.517 165.885 207.61 163.46 207.16L163.439 186.398C163.06 185.177 161.858 184.912 160.606 185.17C159.026 185.17 157.838 185.384 156.222 184.798L156.193 110.885L156.329 97.9512L251.224 97.894L251.281 170.478C250.266 171.021 249.486 171 248.456 170.936C246.832 170.828 245.416 170.7 244.029 171.293L244.064 190.74C244.379 191.783 243.878 192.769 242.791 192.883L236.997 192.962L236.747 207.531L229.408 207.453L229.165 214.93L222.034 214.988L221.927 221.323C221.626 221.93 221.24 222.201 220.625 222.151L214.967 222.222L214.545 229.329L207.271 229.293L206.97 236.335L199.932 236.656L199.982 243.684C197.686 244.298 195.605 244.113 193.43 243.82L189.861 244.027L181.221 243.513C180.791 243.513 180.784 243.956 180.849 244.213C180.434 243.856 179.84 243.77 179.368 244.027C178.767 243.634 178.152 243.206 178.188 242.092C178.331 240.22 178.374 238.578 178.038 236.706L170.585 236.521L163.425 236.464L163.389 229.25L156.322 229.057L156.107 222.115L149.248 221.837C148.754 220.958 148.733 219.88 148.89 218.559C148.876 217.223 148.84 216.266 148.297 214.945L141.959 214.816C141.816 214.545 141.351 214.159 141.316 213.602L141.301 207.31H134.928C134.907 206.481 134.699 206.167 134.463 205.946C134.306 205.76 134.084 205.503 134.12 205.024L134.192 192.819L126.917 192.804L126.896 170.793V163.601L127.003 97.9012H141.244ZM178.267 229.2L178.245 222.144L171.178 222.201L170.942 227.743C170.77 228.315 170.892 228.757 171.414 229.193L178.267 229.207V229.2Z" fill="#F7B940"/>
<path d="M156.322 97.944L156.186 110.878L156.215 184.791C157.831 185.377 159.026 185.155 160.599 185.162C161.851 184.905 163.053 185.17 163.432 186.391L163.453 207.153C165.878 207.603 167.888 207.51 170.62 207.396C171.4 209.167 171.436 211.452 170.627 213.545L170.513 221.987L163.503 222.072L163.46 214.945L156.315 214.68L156.243 202.11C156.379 201.246 156.129 200.575 155.392 200.061L148.59 199.954L148.54 187.834C148.64 187.148 148.518 186.505 148.211 185.705L142.095 185.548C141.48 185.07 141.265 184.477 141.344 183.484L141.237 97.894L154.126 97.8154L156.315 97.9368L156.322 97.944Z" fill="#F9DFA5"/>
<path d="M324.339 156.302L324.296 163.629H317.744C317.308 163.444 316.893 163.844 317.101 164.294L317.136 170.086L316.993 170.864L311.371 170.886C310.892 170.693 310.384 170.7 309.876 170.686L305.191 171.343C304.476 170.686 303.739 170.614 302.702 170.9L302.759 176.521C302.323 176.992 302.259 177.471 302.373 177.792C302.266 177.856 302.159 177.971 302.058 178.113L295.206 178.263L295.185 184.827L280.715 184.934L280.479 170.964L280.565 127.062H293.475C294.09 127.205 294.57 127.126 294.956 126.898C295.12 126.705 295.313 126.327 295.371 125.705L295.592 120.013C297.853 119.67 299.784 119.563 302.495 120.056L302.638 112.3L317.108 112.235V119.927C319.604 119.663 321.635 119.584 324.332 120.113V156.295L324.339 156.302ZM310.399 156.187L317.108 156.173L317.158 119.884L302.573 119.827L302.473 134.468L295.228 134.54L295.206 170.821L302.466 170.864L302.552 163.579L309.769 163.501L309.805 156.859L309.504 156.352L302.595 156.245V141.625L309.848 141.618L309.941 156.102L310.399 156.187Z" fill="#050504"/>
<path d="M264.156 207.631C264.349 207.867 264.628 207.881 264.836 207.731C264.857 208.945 263.806 208.367 264.156 207.631Z" fill="#834731"/>
<path d="M192.622 302.413L214.674 302.57L214.724 309.462C216.77 310.019 218.922 309.841 221.598 309.712L221.991 316.969L229.086 317.069L229.151 323.425L171.235 323.346V317.061L178.095 316.954C178.474 315.383 178.438 314.183 178.095 312.719L178.524 309.812L185.462 309.684L185.569 302.663L192.629 302.42L192.622 302.413Z" fill="#F7B940"/>
<path d="M199.932 294.878L200.018 265.917C202.2 265.675 204.488 265.674 207.028 266.553L207.264 286.051L207.514 294.935L199.939 294.885L199.932 294.878Z" fill="#F7B940"/>
<path d="M126.896 163.594V170.786L121.173 170.743C120.694 171.086 120.215 171.207 119.814 171.1C119.421 168.664 119.45 166.072 119.779 163.586H120.537L126.888 163.594H126.896Z" fill="#C6864F"/>
<path d="M120.537 163.594H119.779L119.621 127.234C119.757 127.191 120.065 127.105 120.53 127.369V163.594H120.537Z" fill="#F5E5C3"/>
<path d="M331.857 120.913C331.42 120.827 331.206 120.384 331.356 119.913C331.871 119.956 332.214 120.449 331.857 120.913Z" fill="#AF603D"/>
<path d="M97.5411 112.271H104.858L104.894 119.456L104.994 126.998L119.629 127.219L119.786 163.572C119.457 166.065 119.428 168.65 119.822 171.086C119.85 171.314 119.679 171.686 119.543 172.085V185.598H105.624C105.595 185.37 105.438 185.041 104.908 184.863L104.958 178.242L97.6198 177.999V170.871L90.4456 170.864L90.4814 163.594L83.486 163.636C83.2285 163.529 82.971 163.486 82.7135 163.544L82.8852 156.366L75.6895 156.444L75.6538 149.145L75.6323 120.127C77.0843 119.763 78.336 119.742 79.8238 119.892C80.9969 119.72 81.8981 119.842 82.7493 120.006C82.7421 120.156 82.7135 120.441 82.9853 120.849L83.0068 156.13L90.4241 156.273L90.4742 163.572L97.5697 163.651L97.7199 170.743L104.901 170.707L104.88 134.533L97.6198 134.454L97.7199 148.96H90.3884L90.4313 134.39L97.4409 134.311L97.5268 119.884L83.1355 119.949C82.9495 117.52 82.7993 115.021 83.2571 112.285H97.5339L97.5411 112.271Z" fill="#050504"/>
<path d="M105.616 185.605L97.777 185.684L92.6414 185.67C92.6414 185.577 92.6485 185.363 92.7916 185.013L97.6411 184.998L97.6125 178.006L104.951 178.249L104.901 184.87C105.43 185.048 105.595 185.384 105.616 185.605Z" fill="#AF603D"/>
<path d="M126.703 199.754C126.281 200.089 125.673 200.354 124.843 200.125L119.579 199.854L119.672 192.976L126.724 192.84L126.703 199.754Z" fill="#C6864F"/>
<path d="M97.6339 105.129L97.5409 112.271H83.2641C82.8063 115.013 82.9565 117.513 83.1425 119.941L82.7491 120.006C81.8979 119.834 80.9967 119.713 79.8236 119.891C78.3287 119.741 77.077 119.763 75.6321 120.127L75.6536 149.145L68.365 149.295L68.3936 119.899L75.5392 120.013L75.5749 112.285L82.7205 112.307C82.978 109.6 83.0567 107.343 82.7133 105.129H97.641H97.6339Z" fill="#A3523B"/>
<path d="M163.432 309.869L157.059 309.791L157.009 303.456L163.51 303.334L163.432 309.869Z" fill="#AF603D"/>
<path d="M68.3866 119.898L68.358 149.295L68.3079 156.394L61.9563 156.408V113.735L67.0061 113.692C67.6928 113.635 67.893 112.971 67.657 112.535C68.5153 112.171 68.8515 113.271 68.1076 113.585C68.3079 115.199 68.451 116.399 68.0862 117.956C68.3151 118.734 68.4224 119.37 68.3937 119.891L68.3866 119.898Z" fill="#F9DFA5"/>
<path d="M309.891 170.678C309.919 170.95 309.898 171.2 309.841 171.45L309.926 177.906L309.912 178.299C308.989 178.177 308.01 178.113 307.123 178.42C307.051 178.177 306.858 177.856 306.372 177.785C304.784 177.906 303.546 178.07 302.387 177.785C302.273 177.463 302.337 176.985 302.774 176.513L302.717 170.892C303.754 170.6 304.49 170.678 305.206 171.335L309.891 170.678Z" fill="#32110F"/>
<path d="M317 170.864L317.043 177.935L309.926 177.899L309.841 171.443C310.477 171.643 311.164 171.55 311.386 170.878L317.008 170.857L317 170.864Z" fill="#F7B940"/>
<path d="M75.6465 149.145L75.6822 156.444V163.629L82.7062 163.55C82.556 163.972 82.8278 164.315 83.1997 164.386L83.1711 170.721L75.4748 170.792L75.5535 163.65H68.3722L68.3149 156.394L68.365 149.295L75.6536 149.145H75.6465Z" fill="#F7B940"/>
<path d="M97.6055 178.006L97.6341 184.998L92.7845 185.012C92.6415 185.362 92.6272 185.577 92.6343 185.669C92.1765 185.562 91.7116 185.562 91.261 185.662C91.3111 185.205 90.9463 184.891 90.5028 185.012C90.56 184.512 90.5529 184.005 90.4384 183.513L90.3884 179.342C90.2954 178.62 89.8734 178.235 89.1152 178.227C87.1553 178.299 85.453 178.392 83.9295 177.963C83.6934 177.813 83.3716 177.82 83.1498 178.035L83.0854 171.528C83.579 171.671 84.0797 171.35 84.1369 170.864L90.4885 170.7L90.4456 174.992C89.7732 176.135 90.0236 177.456 91.168 178.185L97.6055 177.999V178.006Z" fill="#F7B940"/>
<path d="M91.2609 185.662L90.3096 185.82C90.4383 185.555 90.4884 185.277 90.5027 185.013C90.939 184.891 91.311 185.205 91.2609 185.662Z" fill="#AF603D"/>
<path d="M83.1639 170.721C83.0781 170.985 83.0566 171.25 83.0852 171.528L83.1496 178.035H75.6536C75.8538 175.642 75.9969 173.164 75.4604 170.8L83.1568 170.728L83.1639 170.721Z" fill="#834731"/>
<path d="M90.4456 183.513C89.9592 183.513 89.5515 184.041 89.809 184.627C89.8519 184.898 90.1452 185.155 90.5099 185.012C90.4956 185.277 90.4456 185.555 90.3168 185.819C88.0709 185.327 85.6246 185.448 83.2786 185.662L83.1355 178.742C83.6433 178.87 84.001 178.485 83.9366 177.956C85.4601 178.385 87.1625 178.292 89.1223 178.22C89.8805 178.235 90.3025 178.62 90.3955 179.334L90.4456 183.505V183.513Z" fill="#A3523B"/>
<path d="M83.1355 178.742C82.785 178.534 82.828 178.135 83.157 178.027C83.3859 177.813 83.7006 177.806 83.9366 177.956C84.001 178.485 83.6434 178.87 83.1355 178.742Z" fill="#C6864F"/>
<path d="M75.4676 170.793H68.4365L68.365 163.651L75.5463 163.658L75.4676 170.793Z" fill="#A3523B"/>
<path d="M178.266 229.2L171.414 229.186C170.892 228.75 170.77 228.307 170.942 227.736L171.178 222.194L178.245 222.137L178.266 229.193V229.2Z" fill="#F9DFA5"/>
<path d="M309.805 156.866L309.769 163.508L302.552 163.587L302.466 170.871L295.206 170.829L295.228 134.547L302.473 134.476L302.573 119.834L317.158 119.892L317.108 156.18L310.398 156.195L309.805 156.873V156.866ZM309.941 156.102L309.848 141.618H302.595V156.245L309.504 156.352L309.941 156.095V156.102Z" fill="#F7F7F7"/>
<path d="M82.7493 120.006L83.1427 119.941L97.5339 119.877L97.4481 134.304L90.4384 134.382L90.3955 148.959H97.727L97.6269 134.447L104.887 134.525L104.908 170.7L97.727 170.735L97.5768 163.643L90.4813 163.565L90.4313 156.266L83.0139 156.123L82.9925 120.841C82.7207 120.441 82.7493 120.148 82.7564 119.998L82.7493 120.006Z" fill="#F7F7F7"/>
<path d="M97.6054 178.006L91.1679 178.192C90.0235 177.463 89.7803 176.142 90.4455 174.999L90.4884 170.707L84.1368 170.871C83.8364 170.742 83.5145 170.685 83.1641 170.728L83.1927 164.393C83.4001 164.172 83.4788 163.9 83.4716 163.658L90.467 163.615L90.4312 170.885H97.6125L97.6054 178.02V178.006Z" fill="#A3523B"/>
<path d="M311.378 170.885C311.157 171.557 310.47 171.65 309.833 171.45C309.891 171.2 309.912 170.95 309.884 170.678C310.391 170.693 310.892 170.685 311.378 170.878V170.885Z" fill="#C6864F"/>
<path d="M317.108 164.293C316.9 163.843 317.315 163.45 317.752 163.629C317.852 164.058 317.515 164.372 317.108 164.293Z" fill="#C6864F"/>
<path d="M82.7063 163.551L75.6895 163.629L75.6824 156.444L82.878 156.373L82.7063 163.551Z" fill="#AF603D"/>
<path d="M90.5099 185.013C90.1451 185.155 89.859 184.898 89.8089 184.627C89.5514 184.034 89.9591 183.513 90.4455 183.513C90.56 184.005 90.56 184.513 90.5099 185.013Z" fill="#C6864F"/>
<path d="M83.0925 171.521C83.0639 171.243 83.0782 170.979 83.1712 170.714C83.5289 170.679 83.8436 170.729 84.144 170.857C84.0939 171.343 83.5861 171.664 83.0925 171.521Z" fill="#C6864F"/>
<path d="M83.1997 164.379C82.8278 164.315 82.556 163.965 82.7062 163.544C82.9565 163.494 83.2212 163.529 83.4787 163.637C83.4858 163.879 83.4072 164.151 83.1997 164.372V164.379Z" fill="#C6864F"/>
</g>
<defs>
<clipPath id="clip0_73_135232">
<rect width="337" height="307" fill="white" transform="translate(31.5 46.5)"/>
</clipPath>
</defs>
</svg>
