<svg width="400" height="400" viewBox="0 0 400 400" fill="none" xmlns="http://www.w3.org/2000/svg">
<path d="M219.704 305.803L199.98 305.755L199.946 300.923L195.058 300.865L194.893 295.912L190.058 295.854L190.034 261.308L185.131 261.172L185.106 251.353L180.276 251.363L180.111 246.381L175.199 246.357L175.174 241.476L170.228 241.467L170.218 236.533L165.204 236.489L165.189 231.522L160.32 231.512L160.451 226.646L155.402 226.52L155.349 221.601L150.543 221.562L150.489 216.74L145.432 216.638L145.461 211.767L140.398 211.695V206.732L105.936 206.703L105.882 201.764L100.902 201.648L100.941 112.764L105.921 112.555L105.95 107.67L110.737 107.588L110.911 102.693L150.364 102.712L150.48 97.7156L160.315 97.7737L160.383 92.806L180.111 92.7721L180.208 87.8433H264.321L264.452 92.7721L274.175 92.8012L274.316 97.7252L279.185 97.7882L279.209 102.683L284.166 102.712L284.204 122.404L289.044 122.442L289.074 127.337L294.03 127.497L294.059 147.121L289.117 147.15L289.136 152.238L294.025 152.19L294.136 157.201L299.039 157.254L299.064 176.999L289.078 177.042L289.064 186.808L299.039 186.871L299.098 206.688L294.146 206.766L294.035 211.7L289.146 211.68L289.117 216.532L284.272 216.633L284.074 221.543L224.689 221.557L224.675 235.613C224.588 236.184 225.033 236.591 225.575 236.465L229.699 236.48L229.762 251.232L234.631 251.281L234.655 285.918L229.801 286.02L229.762 295.897L224.607 295.931L224.622 300.85H219.738L219.69 305.794L219.704 305.803ZM110.979 181.942V196.405C111.478 196.332 111.841 196.419 112.073 196.942L126.013 196.903C126.1 196.821 126.255 196.748 126.482 196.758L140.441 196.879L140.557 201.721H150.388L150.417 206.698L155.354 206.742L155.407 211.661L160.417 211.709L160.383 221.543H165.247L165.271 226.433L170.276 226.569L170.446 231.265L174.782 231.338C175.063 231.391 175.383 231.725 175.31 232.238L175.3 236.494L180.102 236.572L180.155 241.36L185.01 241.437L185.082 246.279L190.3 246.299L190.179 251.242L194.182 251.271L194.893 251.082C194.884 251.208 194.879 251.392 195.034 251.634L195.072 261.201L199.932 261.303L199.975 290.765C199.903 291.089 199.903 291.424 199.946 291.748L199.995 295.616H219.767L219.777 286.403C219.869 286.015 220.222 285.759 220.725 285.928L224.138 285.972C224.312 286.01 224.694 285.885 224.622 285.439V251.615L219.83 251.45C219.849 251.334 219.84 251.223 219.806 251.111L219.733 236.567L214.878 236.446L214.806 216.716L219.617 216.575L219.82 211.622L220.817 211.453H284.049L284.175 206.679C284.471 206.742 284.771 206.708 285.066 206.63L288.933 206.582V192.154C288.439 192.231 288.076 192.149 287.849 191.631L284.137 191.616L284.219 186.992L279.369 186.92L260.41 186.861L259.335 186.755L259.365 177.004L283.101 177.018L287.849 177.096C288.081 176.587 288.439 176.505 288.933 176.568V157.322L286.034 157.24L283.982 157.337L284.112 152.292L279.253 152.369L261.359 152.456C261.025 152.369 260.773 152.292 260.613 152.306C260.376 151.953 260.013 151.89 259.35 152.006L259.398 147.14L284.088 147.106V127.313L279.219 127.357L274.311 127.439L274.335 122.946C274.514 122.733 274.35 122.374 273.992 122.433L267.646 122.462H254.553C254.331 120.936 254.258 119.382 254.573 117.538L274.243 117.562L274.258 102.838L269.301 102.828L264.21 102.746L264.161 97.7737L259.684 97.8463C259.369 97.7494 259.064 97.6671 258.387 97.7204L180.242 97.7398L180.136 102.707L160.528 102.775L160.393 107.617H150.572L150.475 112.609L115.858 112.628L115.785 117.596H110.844L110.969 129.264L110.994 181.928L110.979 181.942Z" fill="#060504"/>
<path d="M219.704 305.803L199.98 305.755L199.946 300.923L195.058 300.865L194.893 295.912L190.058 295.854L190.034 261.308L185.131 261.172L185.106 251.353L180.276 251.363L180.111 246.381L175.199 246.357L175.174 241.476L170.228 241.467L170.218 236.533L165.204 236.489L165.189 231.522L160.32 231.512L160.451 226.646L155.402 226.52L155.349 221.601L150.543 221.562L150.489 216.74L145.432 216.638L145.461 211.767L140.398 211.695V206.732L105.936 206.703L105.882 201.764L100.902 201.648L100.941 112.764L105.921 112.555L105.95 107.67L110.737 107.588L110.911 102.693L150.364 102.712L150.48 97.7156L160.315 97.7737L160.383 92.806L180.111 92.7721L180.208 87.8433H264.321L264.452 92.7721L274.175 92.8012L274.316 97.7252L279.185 97.7882L279.209 102.683L284.166 102.712L284.204 122.404L289.044 122.442L289.074 127.337L294.03 127.497L294.059 147.121L289.117 147.15L289.136 152.238L294.025 152.19L294.136 157.201L299.039 157.254L299.064 176.999L289.078 177.042L289.064 186.808L299.039 186.871L299.098 206.688L294.146 206.766L294.035 211.7L289.146 211.68L289.117 216.532L284.272 216.633L284.074 221.543L224.689 221.557L224.675 235.613C224.588 236.184 225.033 236.591 225.575 236.465L229.699 236.48L229.762 251.232L234.631 251.281L234.655 285.918L229.801 286.02L229.762 295.897L224.607 295.931L224.622 300.85H219.738L219.69 305.794L219.704 305.803ZM110.979 181.942V196.405C111.478 196.332 111.841 196.419 112.073 196.942L126.013 196.903C126.1 196.821 126.255 196.748 126.482 196.758L140.441 196.879L140.557 201.721H150.388L150.417 206.698L155.354 206.742L155.407 211.661L160.417 211.709L160.383 221.543H165.247L165.271 226.433L170.276 226.569L170.446 231.265L174.782 231.338C175.063 231.391 175.383 231.725 175.31 232.238L175.3 236.494L180.102 236.572L180.155 241.36L185.01 241.437L185.082 246.279L190.3 246.299L190.179 251.242L194.182 251.271L194.893 251.082C194.884 251.208 194.879 251.392 195.034 251.634L195.072 261.201L199.932 261.303L199.975 290.765C199.903 291.089 199.903 291.424 199.946 291.748L199.995 295.616H219.767L219.777 286.403C219.869 286.015 220.222 285.759 220.725 285.928L224.138 285.972C224.312 286.01 224.694 285.885 224.622 285.439V251.615L219.83 251.45C219.849 251.334 219.84 251.223 219.806 251.111L219.733 236.567L214.878 236.446L214.806 216.716L219.617 216.575L219.82 211.622L220.817 211.453H284.049L284.175 206.679C284.471 206.742 284.771 206.708 285.066 206.63L288.933 206.582V192.154C288.439 192.231 288.076 192.149 287.849 191.631L284.137 191.616L284.219 186.992L279.369 186.92L260.41 186.861L259.335 186.755L259.365 177.004L283.101 177.018L287.849 177.096C288.081 176.587 288.439 176.505 288.933 176.568V157.322L286.034 157.24L283.982 157.337L284.112 152.292L279.253 152.369L261.359 152.456C261.025 152.369 260.773 152.292 260.613 152.306C260.376 151.953 260.013 151.89 259.35 152.006L259.398 147.14L284.088 147.106V127.313L279.219 127.357L274.311 127.439L274.335 122.946C274.514 122.733 274.35 122.374 273.992 122.433L267.646 122.462H254.553C254.331 120.936 254.258 119.382 254.573 117.538L274.243 117.562L274.258 102.838L269.301 102.828L264.21 102.746L264.161 97.7737L259.684 97.8463C259.369 97.7494 259.064 97.6671 258.387 97.7204L180.242 97.7398L180.136 102.707L160.528 102.775L160.393 107.617H150.572L150.475 112.609L115.858 112.628L115.785 117.596H110.844L110.969 129.264L110.994 181.928L110.979 181.942Z" fill="#060504"/>
<path d="M221.528 318.5L199.979 318.447L199.942 313.193L194.601 313.13L194.421 307.744L189.138 307.681L189.111 270.118L183.754 269.97L183.728 259.293L178.45 259.304L178.27 253.887L172.903 253.86L172.876 248.553L167.472 248.543L167.461 243.178L161.982 243.131L161.967 237.729L156.647 237.719L156.789 232.428L151.274 232.291L151.215 226.942L145.964 226.9L145.906 221.656L140.38 221.546L140.411 216.249L134.88 216.17V210.774L97.2274 210.743L97.1692 205.373L91.7275 205.246L91.7698 108.597L97.2115 108.371L97.2432 103.059L102.473 102.969L102.664 97.6468L145.769 97.6678L145.895 92.2347L156.641 92.2979L156.715 86.8963L178.27 86.8594L178.376 81.5H270.276L270.419 86.8594L281.043 86.891L281.196 92.2452L286.516 92.3136L286.543 97.6362L291.958 97.6678L292 119.079L297.288 119.121L297.32 124.444L302.735 124.618L302.767 145.955L297.368 145.987L297.389 151.52L302.73 151.468L302.852 156.917L308.209 156.974L308.235 178.444L297.325 178.491L297.31 189.11L308.209 189.178L308.272 210.727L302.862 210.811L302.741 216.176L297.399 216.155L297.368 221.43L292.074 221.54L291.857 226.879L226.975 226.895L226.96 242.178C226.864 242.799 227.351 243.241 227.943 243.105L232.449 243.12L232.518 259.162L237.838 259.214L237.864 296.878L232.56 296.989L232.518 307.728L226.886 307.765L226.901 313.114H221.565L221.513 318.489L221.528 318.5ZM102.738 183.819V199.545C103.282 199.466 103.679 199.56 103.933 200.129L119.163 200.087C119.258 199.997 119.428 199.918 119.676 199.929L134.928 200.061L135.054 205.325H145.795L145.827 210.737L151.221 210.785L151.279 216.134L156.752 216.186L156.715 226.879H162.03L162.056 232.196L167.525 232.344L167.71 237.45L172.448 237.529C172.755 237.587 173.104 237.95 173.024 238.508L173.014 243.136L178.26 243.22L178.318 248.427L183.622 248.511L183.701 253.776L189.402 253.797L189.27 259.172L193.643 259.204L194.421 258.999C194.41 259.136 194.405 259.336 194.574 259.599L194.616 270.002L199.926 270.112L199.973 302.148C199.894 302.501 199.894 302.864 199.942 303.217L199.995 307.423H221.597L221.608 297.404C221.708 296.983 222.094 296.704 222.644 296.888L226.373 296.936C226.563 296.978 226.981 296.841 226.901 296.357V259.578L221.666 259.399C221.687 259.272 221.677 259.151 221.64 259.03L221.56 243.215L216.256 243.083L216.177 221.63L221.433 221.477L221.655 216.091L222.745 215.907H291.831L291.968 210.716C292.291 210.785 292.619 210.748 292.941 210.664L297.167 210.611V194.922C296.627 195.006 296.231 194.917 295.982 194.354L291.926 194.338L292.016 189.31L286.717 189.231L266.003 189.168L264.829 189.052L264.861 178.449L290.794 178.465L295.982 178.549C296.236 177.996 296.627 177.907 297.167 177.975V157.048L293.999 156.959L291.757 157.064L291.9 151.578L286.59 151.662L267.039 151.757C266.675 151.662 266.4 151.578 266.225 151.594C265.966 151.21 265.569 151.141 264.845 151.268L264.898 145.977L291.873 145.94V124.418L286.553 124.465L281.191 124.555L281.217 119.669C281.413 119.437 281.233 119.048 280.842 119.111L273.909 119.142H259.604C259.361 117.484 259.282 115.794 259.625 113.788L281.117 113.815L281.133 97.8047L275.718 97.7942L270.154 97.7047L270.101 92.2979L265.21 92.3768C264.866 92.2715 264.533 92.182 263.792 92.2399L178.413 92.261L178.297 97.6626L156.874 97.7363L156.726 103.001H145.996L145.89 108.429L108.068 108.45L107.989 113.851H102.59L102.727 126.539L102.754 183.803L102.738 183.819Z" fill="white"/>
<path d="M269.287 102.834L269.185 112.667L249.524 112.643L249.437 122.438L254.544 122.472H267.636C267.578 122.646 267.714 122.99 268.101 122.936L274.326 122.951L274.301 127.444L279.209 127.362C279.292 127.652 279.287 127.962 279.185 128.253V142.299L254.461 142.289L254.471 152.311L259.418 152.394C259.326 152.568 259.452 152.989 259.897 152.926H279.2L279.233 157.269L284.166 157.24L284.156 170.831C284.354 171.518 283.851 172.148 283.096 172.022L254.398 172.007L254.442 186.833L259.311 186.755L260.386 186.862L279.345 186.92L279.214 188.222L279.151 201.736L219.83 201.755L219.757 206.698L209.685 206.723L209.724 216.542L204.787 216.721L204.738 231.406L209.651 231.367L209.699 241.418L214.786 241.438L214.874 246.294L219.268 246.313L219.283 251.044C219.544 251.17 219.704 251.136 219.777 251.116C219.815 251.228 219.825 251.344 219.801 251.455C219.752 251.668 219.748 251.881 219.777 252.09L219.762 281.024L214.709 281.072L214.748 285.943L209.69 285.967L209.612 290.896L201.369 290.993L199.946 290.765L199.903 261.303L195.043 261.202L195.005 251.634C194.855 251.392 194.855 251.208 194.864 251.083C194.796 250.961 194.743 250.729 195.053 250.579V246.357L190.271 246.304L190.155 244.837L190.082 236.431L185.121 236.412L185.155 231.536L181.525 231.464C180.9 231.604 180.349 231.42 180.126 230.791L180.073 226.428L175.266 226.443L175.218 221.654L170.276 221.567L170.194 211.666L165.184 211.705L165.155 206.698L160.368 206.64L160.339 201.736L155.417 201.711L155.393 196.676L150.364 196.715L150.393 191.825L140.456 191.781L140.403 186.833L120.703 186.847L120.621 181.943L111.434 181.957V127.463L117.721 127.638L120.568 127.531L120.785 122.486L145.354 122.467L145.625 119.029C145.325 118.385 145.611 117.809 146.22 117.596L159.783 117.552C160.368 117.335 160.514 116.773 160.378 116.173C160.397 114.875 160.286 113.776 160.63 112.677L175.155 112.638V107.627L190.014 107.603L190.3 102.693H259.321L259.335 98.6745C259.607 98.3986 259.718 98.0838 259.66 97.8514L264.137 97.7788L264.185 102.751L269.277 102.834H269.287Z" fill="#B8B7B6"/>
<path d="M259.675 97.856C259.733 98.0932 259.617 98.408 259.35 98.6791L259.336 102.698H190.315L190.029 107.607L175.175 107.631V112.643L160.645 112.681C160.301 113.785 160.412 114.884 160.393 116.177C160.528 116.777 160.383 117.344 159.798 117.557L146.235 117.601C145.63 117.814 145.345 118.39 145.64 119.034L145.369 122.471L120.8 122.491L120.582 127.536L117.736 127.642L111.449 127.468V181.962L110.97 181.938L110.946 129.274L110.82 117.601H115.762L115.834 112.638L150.451 112.618L150.548 107.617H160.369L160.504 102.78L180.112 102.712L180.218 97.7446L258.363 97.7253C259.041 97.6769 259.346 97.7592 259.66 97.8512L259.675 97.856Z" fill="#8D8D8D"/>
<path d="M284.127 191.616C284.079 191.849 284.011 192.125 284.156 192.58L288.44 192.609V206.098L285.134 206.141C285.023 206.408 285.042 206.563 285.056 206.626C284.761 206.703 284.456 206.737 284.166 206.674C284.059 206.626 283.895 206.563 283.629 206.689L283.541 210.964H219.912C219.685 211.274 219.767 211.487 219.811 211.613L219.607 216.566L214.796 216.706L214.869 236.436L219.724 236.557L219.796 251.102C219.724 251.121 219.564 251.155 219.303 251.029L219.288 246.299L214.893 246.279L214.806 241.423L209.719 241.404L209.671 231.352L204.758 231.391L204.806 216.706L209.743 216.527L209.704 206.708L219.777 206.684L219.849 201.74L279.171 201.721L279.234 188.208L279.364 186.905L284.214 186.978L284.132 191.602L284.127 191.616Z" fill="#525252"/>
<path d="M190.29 246.299L185.073 246.279L185 241.438L180.145 241.36L180.092 236.572L175.291 236.494L175.3 232.238C175.373 231.725 175.054 231.386 174.773 231.338C174.884 231.159 174.773 230.757 174.352 230.791L170.939 230.781L170.925 226.511C170.586 226.38 170.393 226.491 170.267 226.564L165.262 226.428L165.238 221.543H160.373L160.407 211.705L155.398 211.656L155.344 206.737L150.407 206.693L150.378 201.711H140.548L140.432 196.879L126.473 196.758C126.245 196.748 126.086 196.826 126.003 196.903L125.877 195.974L111.458 195.964V181.967L120.64 181.952L120.723 186.857L140.422 186.842L140.475 191.791L150.412 191.834L150.383 196.724L155.412 196.686L155.436 201.721L160.359 201.745L160.388 206.65L165.175 206.708L165.204 211.714L170.213 211.676L170.296 221.577L175.238 221.664L175.286 226.452L180.092 226.438L180.145 230.8C180.368 231.435 180.92 231.614 181.544 231.473L185.174 231.546L185.141 236.422L190.102 236.441L190.174 244.846L190.29 246.313V246.299Z" fill="#525252"/>
<path d="M224.128 285.972L220.716 285.928C220.218 285.759 219.859 286.015 219.767 286.403C218.828 287.119 218.31 288.765 219.206 289.981L219.259 295.127H200.47L200.416 291.825C200.16 291.714 200.01 291.733 199.942 291.743C199.894 291.414 199.894 291.085 199.971 290.76L201.394 290.988L209.637 290.891L209.714 285.962L214.772 285.938L214.734 281.067L219.787 281.019L219.801 252.084L224.133 252.128V285.972H224.128Z" fill="#525252"/>
<path d="M286.02 157.24L286.068 158.223L288.435 158.29V176.118L283.184 176.147L283.082 177.018L259.346 177.004L259.317 186.755L254.447 186.832L254.404 172.007L283.101 172.022C283.856 172.152 284.355 171.518 284.161 170.831L284.171 157.24L279.239 157.269L279.205 152.931C279.253 152.737 279.268 152.538 279.244 152.374L284.103 152.296L283.972 157.341L286.025 157.245L286.02 157.24Z" fill="#525252"/>
<path d="M259.394 147.145L259.345 152.011C260.004 151.895 260.367 151.958 260.609 152.311C260.212 152.48 259.815 152.403 259.428 152.393L254.481 152.311L254.471 142.289L279.19 142.298V128.252L283.609 128.286V146.632H259.916C259.481 146.574 259.345 146.961 259.398 147.145H259.394Z" fill="#C4C4C4"/>
<path d="M254.544 122.472L249.438 122.438L249.525 112.643L269.185 112.667L269.287 102.833L274.243 102.843L274.229 117.567L254.558 117.543C254.249 119.392 254.321 120.942 254.539 122.467L254.544 122.472Z" fill="#525252"/>
<path d="M219.811 211.612C219.762 211.487 219.685 211.274 219.912 210.964H283.541L283.628 206.684C283.895 206.558 284.059 206.626 284.166 206.669L284.04 211.443H220.808L219.811 211.608V211.612Z" fill="#525252"/>
<path d="M259.394 147.145C259.341 146.966 259.476 146.573 259.912 146.632H283.6L283.604 128.286L279.19 128.252C279.292 127.962 279.301 127.652 279.214 127.361L284.088 127.318V147.111L259.394 147.145Z" fill="#525252"/>
<path d="M194.889 251.078L194.177 251.266L190.174 251.237L190.295 246.294L195.077 246.347V250.569C194.768 250.724 194.821 250.952 194.889 251.073V251.078Z" fill="#525252"/>
<path d="M126.008 196.903L112.068 196.942C111.841 196.419 111.473 196.337 110.974 196.405V181.942L111.453 181.967V195.964L125.877 195.974L126.003 196.903H126.008Z" fill="#525252"/>
<path d="M224.128 285.972V252.128L219.796 252.084C219.767 251.871 219.777 251.658 219.82 251.45L224.612 251.615V285.439C224.684 285.885 224.307 286.01 224.133 285.972H224.128Z" fill="#525252"/>
<path d="M283.082 177.018L283.183 176.147L288.435 176.118V158.29L286.068 158.223L286.02 157.24L288.919 157.322V176.568C288.42 176.505 288.062 176.587 287.83 177.096L283.082 177.018Z" fill="#525252"/>
<path d="M199.942 291.743C200.01 291.729 200.165 291.714 200.416 291.826L200.469 295.132H219.259L219.206 289.981C218.305 288.766 218.823 287.119 219.767 286.403L219.758 295.612H199.985L199.937 291.743H199.942Z" fill="#525252"/>
<path d="M285.056 206.63C285.042 206.568 285.023 206.408 285.134 206.146L288.44 206.103V192.614L284.156 192.585C284.011 192.129 284.079 191.853 284.127 191.621L287.84 191.636C288.067 192.149 288.43 192.231 288.919 192.159V206.587L285.056 206.635V206.63Z" fill="#525252"/>
<path d="M260.604 152.311C260.763 152.301 261.015 152.374 261.349 152.461L279.243 152.374C279.268 152.538 279.253 152.737 279.205 152.931H259.902C259.457 152.984 259.331 152.568 259.423 152.393C259.815 152.403 260.207 152.48 260.604 152.311Z" fill="#8D8D8D"/>
<path d="M174.783 231.333L170.446 231.26L170.276 226.564C170.402 226.491 170.596 226.385 170.935 226.51L170.949 230.781L174.361 230.791C174.783 230.752 174.894 231.158 174.783 231.338V231.333Z" fill="#525252"/>
<path d="M274.326 122.951L268.101 122.936C267.714 122.985 267.578 122.646 267.636 122.471L273.982 122.442C274.34 122.379 274.505 122.738 274.326 122.956V122.951Z" fill="#525252"/>
</svg>
