<svg width="50" height="50" viewBox="0 0 50 50" fill="none" xmlns="http://www.w3.org/2000/svg">
<path d="M30.7164 35.4746L30.7317 37.4544L32.4548 37.4671V38.7429C32.5158 39.0123 32.714 39.2106 32.9733 39.2614L34.4956 39.2563L34.5185 43.066L34.4956 44.3367C34.6023 44.5603 34.5591 44.7586 34.4193 44.9034C34.3634 44.939 34.1982 45 33.9543 45L15.4499 44.9797L15.4448 43.01L15.4626 39.2665L17.3992 39.1445C17.3636 38.5625 17.3153 38.0669 17.4983 37.4976C18.1769 37.3629 18.7335 37.3731 19.2723 37.4417L19.2824 39.2258L19.2926 41.0404C18.7716 41.2844 18.1972 41.2691 17.4017 41.1904C17.262 41.8181 17.3052 42.334 17.3382 43.0482L21.0513 43.0329L27.903 43.0634L32.6403 43.0507C32.7623 42.3696 32.7521 41.7952 32.559 41.2234L30.7622 41.198L30.6859 39.4622L30.6656 37.4875C29.9896 37.368 29.4381 37.3909 28.8866 37.4341C28.8459 37.2003 28.8078 36.969 28.8713 36.7479C28.9323 36.6361 28.94 36.509 28.8917 36.3946V34.425C28.8968 34.0794 28.8383 33.7896 28.7671 33.566C28.8256 33.4694 28.879 33.3322 28.8485 33.1517L28.8917 27.8757L30.7317 27.8502L30.719 24.0203L30.6885 22.2438L32.1727 22.1853L32.498 22.0328C32.5692 21.9896 32.6479 21.9769 32.7318 21.9922C32.681 22.0862 32.7623 22.3073 32.986 22.2082V10.6039C32.7623 10.5048 32.6835 10.7259 32.7318 10.8199C32.6505 10.8301 32.5692 10.8199 32.4929 10.7894C32.4319 10.7564 32.3684 10.7539 32.3048 10.7818C32.2947 10.6547 32.1803 10.5429 31.9897 10.5302C31.4077 10.6675 31.0468 10.5556 30.6961 10.3116L30.7088 8.79948L29.3822 8.8376L28.8103 8.31151C28.9095 7.76764 28.8968 7.35085 28.7366 6.93405L24.4441 6.91117L21.2063 6.91625L21.1199 8.81473L19.2824 8.79694L19.2977 10.5785C19.1935 10.5505 19.0969 10.5658 19.0105 10.6192L18.0269 10.7691C18.0091 10.6649 17.9405 10.5937 17.8719 10.5632C17.7321 10.5632 17.6584 10.6649 17.661 10.7716C17.5186 10.7259 17.4043 10.8276 17.4373 10.975C17.3407 10.975 17.2365 11.0487 17.2365 11.1961C17.262 11.2367 17.3255 11.3054 17.4322 11.3333L17.2721 14.6347L17.3382 16.5001L17.2848 19.6795C17.1959 19.837 17.262 20.0048 17.4424 20.0886C17.9964 20.2843 18.6699 20.2106 19.2672 20.1725L19.2748 21.7355L19.2672 25.7815L19.2901 27.8045L21.0589 27.7867C20.9979 27.9443 21.0869 28.0917 21.247 28.1018L21.2698 32.1453C21.2139 32.6053 21.2266 32.9942 21.3232 33.3296C21.2038 33.6321 21.1936 33.998 21.2266 34.4199L21.1809 37.1926L19.2748 37.2816L19.2595 27.8375L17.3331 27.8197L17.3102 26.5516C17.3611 26.2771 17.3026 26.0763 17.2264 25.934L17.2315 22.2616L15.4601 22.1853L15.4855 8.86302L17.3331 8.81473L17.356 6.86797L19.2316 6.79427L19.2824 5L30.6859 5.00762V6.90355L32.5971 6.90864L32.6149 8.79185L34.521 8.82998L34.5159 23.9745C33.7992 24.0279 33.2045 23.9491 32.6302 24.1346V27.7943L30.7164 27.8274V35.4721V35.4746Z" fill="#08213F"/>
<path d="M19.2621 16.3959V20.1674C18.6674 20.2055 17.994 20.2818 17.4399 20.0835C17.5568 19.8827 17.478 19.6896 17.2823 19.6743L17.3357 16.495L19.2621 16.3959Z" fill="#D1A943"/>
<path d="M30.691 10.3066L30.7215 10.8047L32.2972 10.7767C32.3607 10.7488 32.4243 10.7539 32.4853 10.7844L32.47 12.5913L30.6834 12.5608L30.7113 14.5051L28.8561 14.561L28.8408 16.3857L26.8991 16.3374L26.8839 14.5584L25.0566 14.6347L25.0134 20.0429C25.5979 20.2564 26.1748 20.2462 26.8585 20.1522L26.8839 18.3325L30.6732 18.363L30.7164 16.3832L32.47 16.3908C32.4243 16.556 32.5539 16.6907 32.7242 16.65V20.203C32.6327 20.1979 32.5386 20.203 32.4446 20.2284C31.9134 20.17 31.3619 20.1395 30.7723 20.231L30.6808 22.2336L30.7113 24.0101L28.8433 23.9898L28.7188 27.8528L26.9118 27.8452L26.8966 31.6014H24.988L24.9651 33.5126L23.2775 33.5202C23.0412 34.1709 23.0234 34.7173 23.1759 35.3984L24.8507 35.4975L26.8509 35.4085L26.8864 33.4872L28.4316 33.4821C28.579 33.3856 28.7239 33.4364 28.7646 33.5507C28.8357 33.7744 28.8942 34.0641 28.8891 34.4098V36.3794C28.7798 36.3641 28.6731 36.4328 28.6629 36.5674C28.6883 36.6513 28.7646 36.7225 28.8688 36.7327C28.8052 36.9538 28.8434 37.185 28.884 37.4188L25.1964 37.4773C25.143 37.0859 24.7821 37.1825 24.7846 37.4316L22.3321 37.4265C22.1796 37.1113 21.7425 37.1367 21.4604 37.2664C21.3537 37.2943 21.2495 37.2638 21.1783 37.1799L21.2241 34.4072C21.191 33.9853 21.2012 33.6194 21.3206 33.3169C21.8238 33.5711 22.4058 33.627 23.0514 33.3881L23.1251 29.8834C23.5088 29.7258 23.89 29.7411 24.2331 29.7818C24.4339 29.6598 24.6016 29.6369 24.9778 29.6598L24.9981 22.1599L23.1073 22.1345L23.0488 20.2157C22.3804 20.1852 21.8162 20.2793 21.2393 20.0429L21.2495 18.3833C21.928 18.2232 22.3753 18.2613 23.0615 18.3325L23.0666 14.8812C23.026 14.6143 22.8531 14.4593 22.5761 14.4974L21.2723 14.6245L21.1681 16.4239L19.2646 16.3857L19.2493 14.6143C18.5072 14.4644 17.8846 14.4568 17.2721 14.622L17.4322 11.3206C17.5135 11.2139 17.5135 11.0766 17.4373 10.9623C17.4042 10.8149 17.5161 10.7132 17.6609 10.7589C17.7778 10.825 17.91 10.8225 18.0269 10.7564L19.0104 10.6065C19.0714 10.9038 19.3358 10.7716 19.2976 10.5658L19.2824 8.78423L21.1199 8.80202L21.2063 6.90356L24.4441 6.89847L28.7366 6.92135C28.8967 7.33815 28.9094 7.75494 28.8103 8.29881L29.3821 8.8249L30.7088 8.78677L30.6961 10.2989L30.691 10.3066ZM28.6959 9.67374C28.9374 9.19086 28.6883 8.92655 28.5104 8.79186C28.3579 8.76898 28.1622 8.74357 27.9005 8.81981C27.5116 8.78169 27.2041 8.85286 26.9169 9.06888L26.9245 10.5404L28.1571 10.581C28.4291 10.6217 28.6019 10.4997 28.6781 10.4159C28.7595 10.2634 28.8484 10.0575 28.6934 9.67628L28.6959 9.67374ZM23.0361 12.4338C23.0336 11.8874 23.1479 11.313 22.9446 10.7056L21.1376 10.7818L21.1605 12.5812L22.9218 12.5583L23.0361 12.4338ZM23.2318 12.6269L23.0844 12.7413L23.059 13.8671C22.9726 14.1391 23.1098 14.3348 23.2115 14.4161C23.3716 14.4898 23.5673 14.533 23.8341 14.4898L24.8965 14.4466L24.8837 12.5913L23.2343 12.6295L23.2318 12.6269Z" fill="#D1A943"/>
<path d="M21.318 33.3296C21.2214 32.9942 21.2087 32.6053 21.2646 32.1453L21.2418 28.1018C21.3739 27.9748 21.2824 27.7079 21.0537 27.7867L19.2848 27.8045L19.262 25.7815C19.3636 25.7612 19.4932 25.8222 19.5568 25.9874H21.1808C21.1147 26.6913 21.1045 27.2098 21.2723 27.7918L22.8708 27.8655C23.0589 27.5732 23.1047 27.2098 23.0538 26.8184L23.0437 23.9974C22.3702 24.0152 21.8187 24.0686 21.224 23.85C21.2545 23.4484 21.1909 23.2426 21.0766 22.9808V20.2386L19.5212 20.1827L19.511 21.6898C19.3763 21.738 19.3026 21.7355 19.2696 21.733L19.262 20.17V16.3984L21.1604 16.4366L21.2646 14.6372L22.5684 14.5101C22.8429 14.472 23.0182 14.627 23.0589 14.8939L23.0538 18.3452C22.3676 18.274 21.9229 18.2384 21.2418 18.396L21.2316 20.0556C21.8085 20.2945 22.3727 20.1979 23.0411 20.2284L23.0996 22.1472L24.9904 22.1726L24.9701 29.6725C24.5939 29.6496 24.4262 29.6725 24.2254 29.7945C23.8823 29.7538 23.5011 29.7385 23.1174 29.8961L23.0437 33.4008C22.3981 33.6397 21.8161 33.5838 21.3129 33.3296H21.318Z" fill="#A65139"/>
<path d="M19.262 16.3959L17.3356 16.495L17.2695 14.6295C17.882 14.4669 18.5047 14.472 19.2468 14.6219L19.262 16.3933V16.3959Z" fill="#A65139"/>
<path d="M30.7139 24.0152L30.7266 27.8452L28.8866 27.8706L28.8434 33.1466C28.8713 33.3271 28.8205 33.4643 28.7621 33.5609C28.7214 33.4465 28.5765 33.3932 28.4291 33.4923L26.8839 33.4974L26.8484 35.4187L24.8482 35.5077L23.1734 35.4085C23.0209 34.7274 23.0387 34.181 23.2751 33.5304L24.9626 33.5228L24.9855 31.6141H26.8941L26.9093 27.8553L28.7163 27.8629L28.8408 23.9999L30.7088 24.0203L30.7139 24.0152Z" fill="#A65139"/>
<path d="M19.2645 25.7764L19.2722 21.7304C19.3052 21.7304 19.3789 21.7355 19.5136 21.6872L19.5238 20.1801L21.0766 20.2361V22.9783C21.191 23.24 21.257 23.4459 21.2265 23.8475C21.8212 24.066 22.3727 24.0127 23.0462 23.9949L23.0564 26.8159C23.1047 27.2073 23.0615 27.5707 22.8734 27.863L21.2748 27.7893C21.1071 27.2073 21.1172 26.6888 21.1833 25.9848H19.5593C19.4958 25.8196 19.3662 25.7586 19.2645 25.779V25.7764Z" fill="#D1A943"/>
<path d="M32.4471 20.231L32.4929 22.0252L32.1676 22.1777L30.6833 22.2362L30.7748 20.2335C31.3645 20.142 31.9134 20.1725 32.4471 20.231Z" fill="#A65139"/>
<path d="M32.7267 21.9845V20.208V16.6551V16.4009V12.5938V10.8174C32.6759 10.7233 32.7572 10.5022 32.9809 10.6013V22.2056C32.7572 22.3048 32.6785 22.0836 32.7267 21.9896V21.9845Z" fill="#301110"/>
<path d="M32.7267 21.9845C32.6454 21.9693 32.5666 21.9845 32.4929 22.0252L32.4471 20.2309C32.5412 20.2081 32.6352 20.2004 32.7267 20.2055V21.982V21.9845Z" fill="#5E5663"/>
<path d="M32.7268 12.5913H32.4727L32.4879 10.7844C32.5641 10.8149 32.6455 10.8225 32.7268 10.8149V12.5913Z" fill="#5E5663"/>
<path d="M32.2971 10.7767L30.7214 10.8046L30.6909 10.3065C31.0416 10.5505 31.4025 10.6623 31.9845 10.5251C32.1751 10.5353 32.2895 10.6496 32.2996 10.7767H32.2971Z" fill="#5E5663"/>
<path d="M18.0217 10.7641C17.9048 10.8301 17.7727 10.8327 17.6558 10.7666C17.6507 10.6599 17.7269 10.5582 17.8667 10.5582C17.9353 10.5887 18.0065 10.6599 18.0217 10.7641Z" fill="#A65139"/>
<path d="M19.0054 10.614C19.0918 10.5632 19.1858 10.5454 19.2926 10.5734C19.3307 10.7792 19.0664 10.9114 19.0054 10.614Z" fill="#A65139"/>
<path d="M17.4271 11.3282C17.3204 11.2977 17.2569 11.2291 17.2314 11.191C17.2314 11.0436 17.3331 10.9724 17.4322 10.9699C17.5085 11.0842 17.511 11.2215 17.4271 11.3282Z" fill="#A65139"/>
<path d="M17.4398 20.0835C17.2593 19.9971 17.1933 19.8319 17.2822 19.6744C17.4805 19.6896 17.5567 19.8828 17.4398 20.0835Z" fill="#A65139"/>
<path d="M28.8814 37.429C29.4329 37.3858 29.987 37.3629 30.6605 37.4824L30.6808 39.4571C30.1623 39.1775 29.5626 39.2207 29.0111 39.3452C28.2867 39.2283 27.5396 39.2487 26.8178 39.3249L25.1709 39.2283C25.054 38.7836 24.9066 38.2931 25.1938 37.7035C25.2319 37.5942 24.9727 37.3781 24.777 37.4391C24.777 37.1901 25.1353 37.0935 25.1887 37.4849L28.8764 37.4264L28.8814 37.429Z" fill="#5E5663"/>
<path d="M28.8663 36.7428C28.7621 36.7326 28.6884 36.6615 28.6604 36.5776C28.6706 36.4429 28.7748 36.3743 28.8866 36.3895C28.9349 36.5065 28.9273 36.6335 28.8663 36.7428Z" fill="#A65139"/>
<path d="M21.1756 37.1901C21.2468 37.2714 21.351 37.3045 21.4577 37.2765C21.6458 37.5408 22.0397 37.5281 22.3295 37.4366L24.782 37.4417C24.9777 37.3807 25.2369 37.5967 25.1988 37.706C24.9116 38.2956 25.0564 38.7861 25.1759 39.2309L19.2823 39.2258L19.2721 37.4417C19.2975 37.3883 19.2975 37.3324 19.2721 37.2791L21.1782 37.1901H21.1756Z" fill="#45262A"/>
<path d="M32.4725 12.5913H32.7267V16.3984L32.4725 16.3933L30.7189 16.3857L30.6757 18.3655L26.8864 18.335L26.861 20.1547C26.1748 20.2488 25.6004 20.2589 25.0159 20.0454L25.0591 14.6372L26.8864 14.561L26.9016 16.34L28.8433 16.3883L28.8586 14.5635L30.7138 14.5076L30.6859 12.5634L32.4725 12.5939V12.5913Z" fill="#A65139"/>
<path d="M22.9218 12.5583L21.1606 12.5811L21.1377 10.7818L22.9447 10.7056C23.148 11.313 23.0336 11.8873 23.0362 12.4338L23.2319 12.6269L24.8813 12.5888L24.894 14.444L23.8317 14.4872C23.5648 14.533 23.3691 14.4872 23.209 14.4135C23.1073 14.3322 22.9726 14.1365 23.0565 13.8646L23.0819 12.7387L22.9167 12.5557L22.9218 12.5583Z" fill="#A65139"/>
<path d="M28.6959 9.6737C28.8484 10.0549 28.7594 10.2608 28.6807 10.4133C28.6044 10.4946 28.4316 10.6191 28.1597 10.5785L26.9271 10.5378L26.9194 9.06631C27.2066 8.85028 27.5116 8.78165 27.903 8.81723C28.1647 8.74099 28.3604 8.76641 28.5129 8.78928C28.6908 8.92398 28.9399 9.1883 28.6985 9.67118L28.6959 9.6737Z" fill="#EBEDEE"/>
<path d="M22.3296 37.4341C22.0424 37.5255 21.646 37.5408 21.4579 37.2739C21.7374 37.1418 22.1771 37.1189 22.3296 37.4341Z" fill="#5E5663"/>
<path d="M32.7267 16.6526C32.5564 16.6933 32.4268 16.556 32.4725 16.3934L32.7267 16.3985V16.6526Z" fill="#5E5663"/>
<path d="M21.2444 28.0993C21.0843 28.0891 20.9953 27.9417 21.0563 27.7842C21.285 27.7054 21.3765 27.9722 21.2444 28.0993Z" fill="#45262A"/>
<path d="M26.9652 41.1573L28.9145 41.1497L30.7596 41.1929L32.5564 41.2183C32.7496 41.7902 32.7597 42.3645 32.6377 43.0456L27.9005 43.0583L21.0487 43.0278L17.3356 43.0431C17.3026 42.3289 17.2594 41.813 17.3992 41.1853C18.1946 41.2666 18.769 41.2793 19.29 41.0353L20.7895 41.0582C21.0055 41.2158 21.2698 41.3073 21.5545 41.1802L24.6042 41.2082L26.9678 41.1548L26.9652 41.1573Z" fill="#5E5663"/>
<path d="M25.1734 39.2309L26.8203 39.3275C26.9728 39.9196 26.9702 40.5626 26.9651 41.1573L24.6016 41.2107L21.5518 41.1827C21.2672 41.3098 21.0029 41.2183 20.7868 41.0607L19.2874 41.0379L19.2772 39.2233L25.1709 39.2283L25.1734 39.2309Z" fill="#D1A943"/>
<path d="M30.6834 39.4571L30.7596 41.1929L28.9145 41.1497C28.7925 40.5499 28.7544 39.9145 29.0136 39.3452C29.5677 39.2207 30.1649 39.1775 30.6834 39.4571Z" fill="#D1A943"/>
<path d="M29.0136 39.3452C28.7518 39.9145 28.79 40.5474 28.9145 41.1497L26.9652 41.1573C26.9703 40.5626 26.9753 39.9196 26.8203 39.3275C27.5421 39.2512 28.2893 39.2309 29.0136 39.3478V39.3452Z" fill="#EBEDEE"/>
</svg>
