<svg width="300" height="300" viewBox="0 0 300 300" fill="none" xmlns="http://www.w3.org/2000/svg">
<path d="M74.0704 258.948L74.0031 267.032L66.3563 267.116C65.8011 267.066 65.3721 267.579 65.6918 268.1L65.7507 283.411L74.062 283.528L82.3734 283.629L82.3398 291.672L90.3567 291.756L90.3062 298.401C90.6343 299.007 90.811 299.579 90.7605 299.983H82.3566L81.9275 296.13L74.9285 295.785C74.3481 294.364 74.3901 293.354 74.4574 291.974L65.9778 291.781L65.6161 283.478L49.5654 283.554L49.3971 291.63L33.4221 292.008C33.1614 295.28 33.195 297.653 33.624 299.966L0 300L0.319668 291.764L24.6986 291.815L24.8247 283.621L16.4293 283.579L16.4545 275.276L24.9089 275.419L24.9425 283.554L33.1193 283.571L33.1445 275.293L49.4392 275.167L49.5065 267.209L57.6748 267.158L57.8347 258.864L74.0704 258.939V258.948Z" fill="#F0F1F2"/>
<path d="M49.5315 258.855L49.5063 267.217L41.2877 267.116L41.2793 259.023L49.5315 258.855Z" fill="#F0F1F2"/>
<path d="M57.8344 258.872L49.5317 258.855L49.498 250.754L57.725 250.771L57.8344 258.872Z" fill="#F0F1F2"/>
<path d="M82.3562 299.983L33.6153 299.966C33.1863 297.661 33.1526 295.281 33.4134 292.008L49.3884 291.63L49.5566 283.554L65.6073 283.478L65.969 291.781L74.4487 291.974C74.3814 293.354 74.3393 294.364 74.9197 295.785L81.9188 296.13L82.3478 299.983H82.3562Z" fill="#C0BEC1"/>
<path d="M300 299.991H283.218L283.15 293.304C283.092 292.311 282.427 291.781 281.476 291.789L268.034 291.764L266.755 291.571L266.704 283.596L258.544 283.461L258.469 276.386C258.519 275.73 259.192 275.427 259.638 275.461H274.763L274.898 267.696L274.326 267.116H266.704V259.049H274.738L274.805 266.788L275.251 267.166L283.1 267.284L283.176 275.343L274.772 275.402L274.831 283.537L291.268 283.579L291.369 291.747L299.706 291.789C299.622 294.835 299.403 297.442 300 299.975V299.991Z" fill="#F0F1F2"/>
<path d="M258.409 291.461C261.126 291.974 264.012 291.865 266.754 291.571L268.033 291.764L281.476 291.789C282.418 291.781 283.091 292.311 283.15 293.303L283.217 300H242.03V291.882L258.014 291.739C258.14 291.613 258.274 291.52 258.409 291.47V291.461Z" fill="#C0BEC1"/>
<path d="M250.435 283.655L258.511 283.84L258.41 291.461C258.276 291.512 258.15 291.604 258.015 291.73L242.032 291.873V300L226.099 299.975C225.485 297.417 225.527 294.616 225.947 291.764H242.082L242.048 283.629L250.427 283.655H250.435Z" fill="#F0F1F2"/>
<path d="M65.7002 268.109C65.3806 267.587 65.8096 267.074 66.3648 267.125C66.533 267.663 66.2049 268.117 65.7002 268.109Z" fill="#615963"/>
<path d="M233.735 242.93C233.701 243.309 233.811 243.847 233.962 244.503V259.107L242.097 258.973L242.131 267.183L250.299 267.2L250.223 281.534C250.148 282.443 250.24 283.124 250.434 283.663L242.055 283.638L242.089 291.755H225.954C225.533 294.624 225.491 297.425 226.105 299.983L90.7678 300C90.8183 299.596 90.6416 299.015 90.3135 298.418L90.364 291.772L82.3471 291.688L82.3807 283.646L74.0693 283.545L74.1366 267.242L82.1452 267.183L82.3555 258.973L90.4145 258.863L102.604 258.922L102.772 267.175L119 267.267L119.126 275.368L175.909 275.536L176.506 275.192L176.91 267.191L209.247 267.166L209.424 259.04L217.659 258.981L217.617 250.754L225.777 250.518L225.903 242.678L233.735 242.947V242.93ZM176.994 275.621L176.557 276.193L176.885 283.503L184.355 283.444C184.742 280.676 184.935 278.094 184.363 275.351L176.994 275.612V275.621ZM176.439 283.764L168.279 283.797L168.313 291.781L176.472 291.747L176.439 283.764Z" fill="#615963"/>
<path d="M259.637 275.461C259.199 275.427 258.518 275.739 258.467 276.386L258.543 283.461L266.703 283.596L266.754 291.571C264.011 291.865 261.126 291.983 258.409 291.461L258.51 283.84L250.434 283.655C250.24 283.125 250.148 282.435 250.223 281.526L250.299 267.192L242.131 267.175L242.097 258.964L233.971 259.099V244.495C233.811 243.839 233.702 243.301 233.735 242.922L233.769 234.518L225.676 234.392L225.701 226.148L217.558 226.35L209.297 226.232L209.163 218.114H152.111L151.959 226.156L135.698 226.333L135.723 234.51L119.134 234.4L119.042 242.695L102.89 242.645L102.798 250.796H92.4083C91.1381 250.628 90.2211 251.646 90.4819 252.908L90.4146 258.838L82.3556 258.948L82.1453 267.158L74.1368 267.217L74.0695 283.52L65.7581 283.402L65.6992 268.092C66.204 268.092 66.532 267.646 66.3638 267.108L74.0106 267.023L74.0779 258.939L82.2294 258.72L82.3977 250.527L89.8089 250.3L90.0529 243.839C90.524 243.385 91.0203 243.023 91.5755 242.745H102.461L102.638 234.476L118.327 234.35C118.747 232.92 118.789 231.717 118.571 230.245C119.294 228.941 119.412 227.679 119.378 226.106L135.227 225.946L135.404 219.342C135.463 218.644 135.757 218.182 136.38 217.719L151.143 217.576L151.337 211.729C151.194 210.686 151.606 210.005 152.094 209.626C152.472 209.407 153.002 209.248 153.835 209.29H207.279C207.851 209.971 208.355 210.131 209.356 210.064C209.121 212.066 209.096 213.454 210.198 215.145C209.567 216.179 209.97 217.273 210.896 217.685L224.389 217.66C225.012 217.786 225.491 218.139 225.929 218.661L226.063 225.971L233.634 226.106L233.718 234.375L242.047 234.51L242.122 258.72L250.35 258.796L250.459 267.166L258.737 267.276L259.014 273.593L259.645 275.436L259.637 275.461Z" fill="#300F0D"/>
<path d="M217.559 226.35L217.627 234.325L225.669 234.392L233.762 234.518L233.728 242.922L225.896 242.653L225.77 250.493L217.61 250.729L217.652 258.956L209.416 259.015L209.24 267.141L176.903 267.166L176.499 275.167L176.995 275.612L184.364 275.352C184.936 278.094 184.743 280.677 184.356 283.444L176.886 283.503L176.558 276.193C176.213 276.084 175.994 275.856 175.902 275.511L119.118 275.343L118.992 267.242L102.765 267.15L102.597 258.897L90.4072 258.838L90.4745 252.908C90.2137 251.646 91.1391 250.628 92.4009 250.796H102.79L102.883 242.645L119.034 242.695L119.127 234.4L135.716 234.51L135.691 226.333L151.952 226.156L152.103 218.097H209.155L209.29 226.224L217.551 226.341L217.559 226.35Z" fill="#95847C"/>
<path d="M176.443 283.753L168.283 283.786L168.315 291.769L176.475 291.736L176.443 283.753Z" fill="#95847C"/>
<path d="M225.668 234.392L217.626 234.324L217.559 226.35L225.701 226.148L225.668 234.392Z" fill="#615963"/>
<path d="M156.975 68.1499V73.6716H162.555L162.563 79.2007L168.025 79.2265L167.995 84.7224L173.59 84.7703L173.616 139.932L179.108 139.914L179.041 150.986L184.562 150.968L184.555 156.523L190.098 156.505L190.076 162.019L195.652 162.041L195.601 156.541L190.072 156.538L190.043 151.012L184.536 151.005L184.529 139.954L179.012 139.947L179.056 115.63L179.052 84.7887L173.557 84.7224L173.505 79.2412L168.047 79.2044L167.977 73.69L162.519 73.6642L162.5 68.1794L156.975 68.1499Z" fill="#E7E8E9"/>
<path d="M217.763 173.095L217.745 178.602L223.314 178.613V184.135L234.359 184.128L234.374 189.668L239.866 189.653L239.895 195.175L245.409 195.179L245.424 200.663L250.934 200.674L250.956 206.196L256.481 206.207L256.477 217.229L261.979 217.258L261.909 206.229L256.418 206.189L256.41 200.708L250.915 200.663L250.908 195.182L245.361 195.19L245.357 189.694L239.825 189.686L239.814 184.194L234.311 184.172L234.275 178.647L223.321 178.636L223.28 173.154L217.763 173.095Z" fill="#E7E8E9"/>
<path d="M195.653 162.041L195.649 167.53L206.677 167.504L206.662 173.107L217.763 173.095L217.767 167.6L206.699 167.559L206.64 162.059L195.653 162.041Z" fill="#EBEBEA"/>
<path d="M250.945 261.446L256.407 261.439L256.455 255.932L261.921 255.881L261.983 244.878L256.499 244.929L256.459 255.899L250.945 255.962V261.446Z" fill="#E7E8E9"/>
<path d="M151.444 62.6172V68.1684L156.976 68.1499L156.987 62.6651L151.444 62.6172Z" fill="#EBEBEA"/>
<path d="M146 57.5518V63.1029L151.532 63.0845L151.543 57.5997L146 57.5518Z" fill="#EBEBEA"/>
<path d="M140 51.5518V57.1029L145.532 57.0845L145.543 51.5997L140 51.5518Z" fill="#EBEBEA"/>
<path d="M85.0906 228.287L85.098 233.104C85.0205 233.576 85.3598 233.923 85.8319 233.834L90.6338 233.827L90.608 228.331L85.0943 228.283L85.0906 228.287Z" fill="#0D1F3E"/>
<path d="M90.6317 233.831L90.6538 239.293L96.1602 239.345L96.1048 233.853L90.6317 233.831Z" fill="#0D1F3E"/>
<path d="M101.662 57.0993L101.64 62.6505H96.1038L96.0374 75.876L96.1149 76.5874L99.0137 76.569L98.9879 71.0768L99.0764 68.9094C98.6449 68.9536 98.6375 68.3933 99.0764 68.4412C99.4084 68.1279 99.9616 68.0579 100.581 68.1611C101.009 68.3012 101.297 68.2053 101.459 67.9731C101.599 67.6192 101.702 67.2359 101.636 66.6756L101.739 62.6615L104.199 62.6025C104.557 62.2266 104.738 61.8248 104.483 61.1613C104.634 60.7411 104.616 60.4646 104.476 59.8933L106.851 59.6648C106.792 58.9755 106.744 58.452 107.024 57.9802L107.297 57.1177L112.693 57.0587L112.815 54.519L118.634 54.4121H122.319L130.798 54.4601C131.166 54.3974 131.45 54.4342 131.675 54.5522C131.919 54.7402 132.103 55.1014 132.03 55.6212C131.823 56.281 132.015 56.6975 132.343 57.0587L140.424 57.0808L140.475 62.1565C140.579 62.1971 140.733 62.3113 140.811 62.6099L145.875 62.6873L145.886 67.7077C146.236 68.15 146.55 68.2127 146.999 68.1205L148.482 68.1906L151.403 68.1832L151.447 72.9456C151.362 73.27 151.492 73.5354 151.79 73.6717L157.009 73.6496L156.95 79.175L151.768 79.1603C151.388 79.2967 151.337 79.6542 151.396 79.9122C151.772 79.8827 151.986 80.2808 151.75 80.6273C151.849 81.1728 151.812 81.4972 151.776 81.8105C151.86 81.8621 151.956 81.8695 152.045 81.8327C152.218 81.7221 152.524 81.7294 152.616 82.1165C153.361 82.1681 154.003 82.1718 154.567 82.0428C154.626 81.6373 155.213 81.6041 155.442 81.8769C156.36 81.9727 156.788 81.5378 157.131 80.9996L157.005 79.927C156.957 79.7685 156.872 79.5547 157.005 79.1824L162.497 79.1971L162.523 84.7409L159.568 84.7115L159.594 82.4519C159.668 82.2492 159.627 82.017 159.576 81.8179L158.06 81.8806C157.732 81.8327 157.492 81.8695 157.311 81.9359C157.09 82.1017 156.88 82.415 157.016 82.8647L156.788 89.8572C157.024 90.1447 157.23 90.4027 157.688 90.2774L162.541 90.2848L162.508 84.7078L168.007 84.6893L168.025 139.844L173.517 139.943V150.953L179.067 150.987L179.082 156.534L184.614 156.494L184.57 162.037L190.117 162.03V166.837C190.028 167.168 190.18 167.426 190.497 167.548H195.668L195.638 171.99L195.712 172.856C195.944 173.007 196.287 173.162 196.759 173.121L206.721 173.066L206.673 178.639L217.822 178.687L217.77 184.146L223.325 184.213L223.28 189.683L234.392 189.627L234.293 195.212L239.788 195.134L239.843 200.704L245.442 200.645L245.379 206.222L250.945 206.182L250.934 217.277L256.469 217.299L256.436 239.382L256.41 244.811L251.671 244.9C251.336 244.988 251.048 245.265 250.948 245.611V255.903L246.866 255.862C246.382 255.814 245.94 255.777 245.438 256.01L245.368 261.446H234.385L234.337 266.964H225.143L217.822 266.913L217.767 261.564L213.706 261.432C213.142 261.513 212.592 261.443 212.22 261.133L212.249 250.621L212.474 250.37L217.744 250.359L217.73 245.272C217.567 244.966 217.35 244.837 217.051 244.896L212.216 244.863L212.227 250.171L212.017 250.388H185.739C185.359 250.363 185.134 250.329 184.95 250.226C184.74 250.06 184.555 249.747 184.614 249.294L184.537 244.955L180.915 244.911C180.248 244.815 179.687 244.811 179.2 244.948C179.06 245.445 179.053 246.028 179.049 246.71L179.112 255.847L183.508 255.954C184.05 255.906 184.459 256.139 184.541 256.677L184.6 261.413L190.091 261.487V271.753L190.257 272.438L191.596 272.553L195.623 272.538L195.671 277.654C195.406 277.971 194.993 278.078 194.543 277.975L173.609 278.015L173.546 274.307C173.683 273.64 173.561 273.024 173.093 272.53L162.548 272.449L162.563 267.61C162.312 267.315 161.859 267.263 161.394 267.37C160.966 267.447 160.675 267.3 160.649 266.953L156.965 266.924H151.473L151.466 261.476L145.952 261.38L145.897 255.917L140.409 255.822L140.379 245.596C140.324 245.324 140.173 245.114 139.94 244.9H134.899L134.803 250.374L118.336 250.381L118.254 245.021C117.841 244.889 117.546 244.896 117.17 244.911L101.761 244.852L101.724 239.702C101.651 239.511 101.525 239.374 101.33 239.275L96.1702 239.326C96.1702 239.861 95.9489 240.462 96.1296 241.166L96.137 244.852L90.6602 244.859L90.5901 250.355L79.6217 250.414L79.5591 255.888L69.0185 255.866C68.6644 255.545 68.5132 255.247 68.5317 254.801V250.366L74.0122 250.337L74.0859 246.319C73.931 245.84 74.1339 245.552 74.2998 245.283L75.2956 244.94L79.5701 244.778L79.6291 228.327L85.1059 228.261L85.0912 217.295L79.6217 217.159L79.5885 206.2V162.041L85.0654 161.956L85.117 145.45L90.627 145.406V128.885L96.1112 128.856L96.1665 114.874L96.1555 106.894L98.0106 106.758C98.5269 106.802 98.7887 106.636 99.0174 106.396L99.0506 102.755C98.8846 102.747 98.7703 102.615 98.7482 102.534C98.6117 102.202 98.8478 101.94 99.0949 101.951C99.058 101.789 99.0654 101.63 99.1133 101.465C99.1834 101.336 99.3088 101.258 99.46 101.262C99.4932 100.853 100.072 100.639 100.555 100.867C100.987 100.856 101.164 100.819 101.356 100.72C101.562 100.547 101.772 100.256 101.68 99.7763C101.643 99.3819 101.647 99.1129 101.761 98.6816L103.83 98.6447C104.059 98.2872 104.266 98.0808 104.612 97.8448L104.66 93.5101C104.583 93.1341 104.295 92.8539 103.915 92.7839L101.68 92.7986L101.64 95.7217L96.1223 95.777L96.1112 106.747L90.6123 106.772L90.5459 128.863H85.0986L85.0285 145.413L79.5554 145.432V161.997H74.2629C74.381 162.402 74.381 162.745 74.0675 163.099L74.0454 165.484L74.0712 217.199L79.5554 217.229L79.5443 228.265L74.0454 228.309L74.0048 244.819L68.5538 244.859L68.5464 250.359L62.9995 250.37L63.018 261.454L79.5664 261.424V255.925L90.6528 255.903L90.6344 250.37L96.0927 250.355L96.1444 244.885L101.658 244.87L101.688 250.348L118.243 250.355L118.288 255.91L140.405 255.899L140.438 261.439L145.919 261.428L145.926 266.946L151.444 266.957L151.469 272.512L162.512 272.497V277.997L173.521 278.023L173.565 283.552L201.174 283.519L201.2 272.468L195.642 272.446L195.649 261.432L190.098 261.402L190.132 255.94L206.747 255.925V266.968L217.781 266.957L217.826 272.523L234.348 272.494L234.415 266.983L245.42 266.95L245.534 261.435L250.956 261.421V255.932L256.469 255.873L256.51 244.903L261.994 244.852V217.232L256.488 217.203V206.185L250.967 206.174L250.945 200.652L245.435 200.641L245.424 195.16H239.91L239.88 189.635L234.389 189.653L234.374 184.113L223.328 184.121V178.595L217.763 178.584L217.781 173.081L206.68 173.092L206.695 167.489L195.668 167.515V162.026L190.095 162.004L190.117 156.49L184.574 156.508L184.581 150.953L179.064 150.972L179.13 139.899L173.639 139.917L173.613 84.7557L168.018 84.7041L168.047 79.2082L162.585 79.1824L162.578 73.6533H156.998V68.1316L151.462 68.1537V62.5988L145.956 62.6173V57.0845L140.405 57.0624L140.416 51.5518H107.242L107.257 57.0993L101.68 57.0808L101.662 57.0993Z" fill="#0D1F3E"/>
<path d="M107.165 73.6644C107.073 73.9519 107.036 74.3131 107.246 74.7628C107.172 75.4816 107.11 76.064 107.231 76.5874C107.98 76.4252 108.707 76.3884 109.839 76.4547L109.957 73.6275L120.885 73.6496L121.043 76.3405L123.791 76.2888V73.6718H120.9C121.018 73.0709 121.04 72.7429 120.955 72.1826C121.102 71.8066 121.007 71.508 120.841 71.3053C120.652 71.0583 120.265 70.8851 119.741 70.9256L114.597 70.8224L110.864 70.9035C110.569 70.7782 110.296 70.7119 110.009 70.8114C109.828 70.9625 109.721 71.368 109.909 71.7992C109.927 72.5033 109.979 72.9751 109.739 73.6681H107.165V73.6644Z" fill="#401110"/>
<path d="M123.794 76.2888L123.779 79.1087L126.516 79.234V98.3388L123.845 98.4862L123.757 103.621C123.79 103.923 123.794 104.225 123.72 104.528L123.786 106.75C123.373 106.817 123.071 106.776 122.769 106.677C122.488 106.474 122.212 106.522 121.968 106.935C121.633 106.474 121.345 106.54 121.231 106.592C121.035 106.71 120.921 106.909 120.947 107.174L120.906 109.53L118.21 109.566L118.243 112.324L107.234 112.316L104.619 112.235C104.431 111.288 104.398 110.352 104.616 109.511L104.501 106.78L104.52 99.4335C104.564 99.0133 104.686 98.7848 104.826 98.6632C105.103 98.56 105.353 98.5784 105.733 98.6226C106.327 98.7 106.866 98.6853 107.256 98.3941L107.234 76.5837C106.294 76.4547 105.357 76.3736 104.365 76.5542C104.501 77.6121 104.498 78.2977 104.31 79.116L101.68 79.0902L101.735 76.9192C101.411 76.4215 100.799 76.3626 100.242 76.5284L99.0173 76.5653L96.1184 76.5837L96.0926 79.1713L99.032 79.2045L99.0541 84.7041L101.669 84.6967L101.662 92.8245L103.897 92.8097C104.276 92.8798 104.568 93.1599 104.642 93.5359L104.594 97.8707C104.247 98.1066 104.04 98.313 103.812 98.6705L101.743 98.7074C101.625 99.1387 101.621 99.4077 101.662 99.8021C101.754 100.281 101.544 100.573 101.337 100.746C101.145 100.845 100.968 100.882 100.537 100.893C100.05 100.665 99.4746 100.878 99.4414 101.288H101.695V112.287L104.398 112.515C104.295 113.588 104.284 114.259 104.535 115.062L116.171 115.092L118.284 114.937L118.24 112.298L123.75 112.243L123.742 106.776L126.416 106.75L126.512 101.435L129.234 101.295L129.352 87.6529L131.922 87.5387C132.092 87.1774 132.122 86.7683 132.192 86.1527C132.055 85.6735 132.011 85.2939 132.229 84.693L129.315 84.6193L129.308 79.2119L126.73 79.0608C126.446 78.2203 126.494 77.3467 126.818 76.6316C126.719 76.5248 126.593 76.4953 126.471 76.5321C126.169 76.7349 125.715 76.6906 125.619 76.3073C125.317 76.2852 124.996 76.2888 124.517 76.4105C124.159 76.4879 123.93 76.3921 123.783 76.2852L123.794 76.2888Z" fill="#401110"/>
<path d="M79.5777 206.226L79.6108 217.184L85.0803 217.321L85.095 228.287L90.6087 228.335L90.6345 233.83L96.1114 233.853L96.1667 239.348L101.326 239.297C101.522 239.393 101.647 239.533 101.721 239.724L101.758 244.874L117.167 244.933C117.539 244.918 117.834 244.911 118.251 245.043L118.332 250.403L134.799 250.396L134.895 244.918H139.937C140.169 245.132 140.32 245.342 140.376 245.618L140.405 255.843L145.893 255.939L145.949 261.402L151.462 261.498L151.47 266.95H156.961L156.998 261.653L151.518 261.424L151.444 255.954L145.893 255.888L145.974 245.607C146.044 245.272 145.867 245.018 145.528 244.918L140.734 244.94C140.49 244.752 140.335 244.465 140.391 244.129L140.38 217.464L140.586 217.254C141.379 217.262 142.227 217.354 143.116 217.015L143.127 211.725L145.901 211.744V206.255L140.383 206.233L140.368 213.225L140.409 217.07L140.188 217.291L134.851 217.306L134.788 233.812L129.345 233.849L129.282 237.903C129.356 238.456 129.334 239.009 129.013 239.4L112.796 239.33L112.708 233.893L101.806 233.849L101.629 228.36H96.1114L96.0892 222.802L90.6604 222.739L90.6345 217.317L85.154 217.228L85.1172 206.259L79.585 206.24L79.5777 206.226Z" fill="#682729"/>
<path d="M96.1602 239.345L90.6538 239.293L90.6317 233.827L85.8298 233.834C85.3578 233.919 85.0184 233.576 85.0959 233.104L85.0885 228.287L79.6117 228.353L79.5527 244.804L75.2782 244.966L74.2824 245.309C74.1164 245.578 73.9136 245.865 74.0685 246.345L73.9947 250.362L68.5179 250.392V254.826C68.4958 255.272 68.647 255.571 69.0011 255.891L79.5416 255.914L79.6043 250.44L90.5727 250.381L90.6428 244.885L96.1196 244.878L96.1122 241.191C95.9315 240.487 96.1528 239.887 96.1528 239.352L96.1602 239.345Z" fill="#682729"/>
<path d="M148.483 68.1905L148.619 69.9966L148.534 89.1199C148.752 89.6138 148.593 90.0561 148.114 90.2883C147.339 90.1962 146.701 90.1556 145.923 90.3178V95.0618C146.038 95.5188 145.669 95.8911 145.2 95.799L140.446 95.8653L140.417 98.4013L140.376 101.206C139.178 101.339 138.197 101.369 137.219 101.21C136.887 101.343 136.485 101.369 135.962 101.284L135.073 101.339L134.815 101.055L134.848 92.4447L134.907 90.2957L132.034 90.2478L131.927 87.5496L129.356 87.6639L129.238 101.306L126.516 101.446L126.421 106.761L123.747 106.787L123.754 112.254L118.244 112.309L118.288 114.948L116.175 115.103L104.539 115.073C104.288 114.27 104.296 113.595 104.403 112.526L101.699 112.298V101.299H99.4459C99.2947 101.299 99.1656 101.372 99.0992 101.501C99.0513 101.667 99.0439 101.822 99.0808 101.988C99.1287 102.257 99.1324 102.53 99.0365 102.791L99.0033 106.433L98.948 115.014L96.1524 114.907L96.0971 128.889L90.6092 128.918V145.439L85.1029 145.483L85.0513 161.989L79.5745 162.074V206.233L85.1029 206.251L85.1398 217.221L90.6203 217.31L90.6461 222.732L96.075 222.794L96.0971 228.349H101.615L101.792 233.842L112.694 233.886L112.782 239.323L128.999 239.393C129.319 239.002 129.342 238.449 129.268 237.896L129.331 233.842L134.774 233.805L134.837 217.299L140.173 217.284L140.365 217.457L140.376 244.122C140.321 244.457 140.476 244.745 140.719 244.933L145.514 244.911C145.853 245.01 146.03 245.265 145.96 245.6L145.879 255.88L151.43 255.947L151.503 261.417L156.984 261.645L156.947 266.939L160.631 266.968L171.692 266.961C172.319 266.942 172.857 266.931 173.503 267.101L173.54 272.055C173.894 272.468 174.196 272.586 174.646 272.516L190.239 272.449L190.07 271.764V261.498L184.585 261.424L184.526 256.688C184.445 256.15 184.036 255.917 183.494 255.965L179.098 255.858L179.035 246.721C179.035 246.039 179.046 245.456 179.186 244.959L173.532 244.867L173.495 228.379L170.906 228.235L170.818 222.953L168.008 222.772V217.258L173.532 217.273L173.573 228.276L178.762 228.301C179.064 228.515 179.138 228.965 179.064 229.392L179.109 233.794L184.53 233.893L184.597 239.341L189.76 239.367C190.14 239.61 190.206 240.012 190.129 240.44L190.195 244.859L212.172 244.874L212.217 239.518L217.716 239.356L217.775 233.845L223.207 233.779L223.314 222.831L227.721 222.813C228.057 222.717 228.33 222.772 228.555 222.912C228.743 223.071 228.905 223.406 228.813 223.893V239.326L223.639 239.36C223.229 239.577 223.211 240.034 223.377 240.425L223.336 244.889L250.886 244.911L250.916 239.518L256.426 239.382L256.459 217.299L250.923 217.276L250.934 206.181L245.369 206.222L245.432 200.645L239.833 200.704L239.778 195.134L234.282 195.212L234.382 189.627L223.27 189.683L223.314 184.213L217.76 184.146L217.811 178.687L206.662 178.639L206.71 173.066L196.749 173.121C196.277 173.162 195.934 173.007 195.701 172.856L195.628 171.99L195.657 167.552H190.486C190.169 167.426 190.018 167.168 190.103 166.84V162.034L184.56 162.041L184.604 156.497L179.072 156.538L179.057 150.99L173.503 150.957V139.947L168.015 139.847L167.996 84.6929L162.498 84.7114L162.531 90.2883L157.677 90.281C157.22 90.4063 157.013 90.1483 156.777 89.8608L156.549 82.4039L152.499 82.544C152.116 82.4334 152.027 82.0906 152.038 81.8325C151.95 81.8694 151.854 81.862 151.769 81.8104C151.57 81.7441 151.378 81.7478 151.234 81.7736C151.064 81.6482 150.891 81.3865 151.157 81.0106C150.854 80.5535 151.013 80.0006 151.385 79.9121C151.326 79.6578 151.378 79.3002 151.758 79.1602L156.94 79.1749L156.999 73.6495L151.78 73.6716C151.481 73.5353 151.352 73.2699 151.437 72.9455L151.393 68.1831L148.472 68.1905H148.483ZM134.63 101.251L134.885 101.498L134.848 106.713L131.975 106.813L132.034 101.28L134.634 101.247L134.63 101.251ZM129.312 112.125L129.319 106.835L131.949 106.853L132.023 112.316L129.522 112.331L129.312 112.121V112.125ZM129.113 112.32L129.334 112.537C129.426 113.256 129.496 113.986 129.305 114.9L126.753 115.298L126.598 117.735L124.042 117.823L123.817 117.628L123.761 115.107L125.281 115.033C125.805 115.162 126.185 114.937 126.376 114.683C126.505 114.465 126.568 114.192 126.494 113.805L126.623 112.239L129.12 112.32H129.113ZM123.809 118.077L123.82 120.632L118.255 120.706L118.233 123.319L105.373 123.345C104.926 123.371 104.594 123.249 104.429 123.043L104.347 122.261C104.543 121.649 104.414 121.104 103.923 120.713L101.718 120.643L101.644 117.901L99.1287 117.794C98.8189 116.99 98.8742 116.172 99.114 115.283C99.9991 115.007 100.685 115.051 101.692 115.107L101.703 117.819L123.592 117.867L123.813 118.081L123.809 118.077ZM206.707 181.26L209.48 181.312L209.425 184.246L206.651 184.194L206.707 181.26ZM140.402 217.055L140.362 213.211L140.376 206.218L145.886 206.24V211.729L143.117 211.71L143.106 217C142.217 217.339 141.372 217.247 140.575 217.24L140.402 217.055Z" fill="#A54E36"/>
<path d="M99.0838 68.4413V68.9094L98.9953 71.0768L99.0211 76.569L100.246 76.5322C100.802 76.3626 101.415 76.4216 101.739 76.9229L101.684 79.094L104.314 79.1198C104.498 78.3015 104.502 77.6158 104.369 76.558C105.361 76.3773 106.298 76.4584 107.238 76.5874C107.116 76.064 107.179 75.4816 107.253 74.7628C107.043 74.3132 107.08 73.9519 107.172 73.6644L101.732 73.6349L101.647 69.6061C101.743 68.9794 101.699 68.4265 101.474 67.9731C101.308 68.2054 101.024 68.3012 100.596 68.1611C99.9763 68.0579 99.4231 68.128 99.0912 68.4413H99.0838Z" fill="#722E38"/>
<path d="M107.235 76.5873L107.257 98.3977C106.866 98.6926 106.327 98.7073 105.733 98.6262C105.354 98.582 105.099 98.5636 104.826 98.6668C104.686 98.7884 104.564 99.0169 104.52 99.4372L104.502 106.783L107.201 106.736L107.264 104.152L109.916 104.004L110.178 101.284L120.862 101.299L121.006 103.632C121.216 103.691 121.227 103.824 121.22 103.905C121.507 103.717 121.795 103.665 122.363 103.569C122.879 103.658 123.34 103.672 123.765 103.621L123.853 98.4862L126.52 98.3387V79.2339L123.787 79.1086L123.801 76.2888L121.054 76.3404L120.895 73.6496L109.967 73.6274L109.849 76.4546C108.713 76.3883 107.987 76.4252 107.242 76.5873H107.235Z" fill="#722E38"/>
<path d="M123.794 73.6719V76.289C123.942 76.3959 124.17 76.4917 124.528 76.4143C125.008 76.2927 125.329 76.289 125.631 76.3111C125.568 76.0125 125.59 75.6808 125.823 75.5002H126.468C126.579 74.9952 126.686 74.4238 126.627 73.7309L123.794 73.6719Z" fill="#722E38"/>
<path d="M104.502 106.787L104.616 109.518L107.298 109.563L107.235 112.323L118.244 112.331L118.211 109.574L120.907 109.537L120.947 107.181C120.921 106.912 121.036 106.713 121.231 106.599C121.346 106.547 121.633 106.481 121.969 106.942C122.212 106.529 122.489 106.481 122.769 106.684C123.072 106.78 123.378 106.82 123.787 106.757L123.721 104.535L122.666 104.623C122.913 105.084 122.902 105.268 122.758 105.777C122.426 106.393 121.464 106.37 121.102 105.784L121.209 103.912C121.22 103.827 121.209 103.698 120.995 103.639L120.851 101.306L110.167 101.291L109.905 104.011L107.253 104.159L107.191 106.743L104.491 106.791L104.502 106.787Z" fill="#BE595B"/>
<path d="M104.616 109.519C104.398 110.359 104.431 111.295 104.619 112.243L107.234 112.324L107.297 109.563L104.616 109.519Z" fill="#722E38"/>
<path d="M96.152 114.897L98.9476 115.003L99.0029 106.422C98.7743 106.662 98.5124 106.828 97.9961 106.784L96.141 106.92L96.152 114.9V114.897Z" fill="#682729"/>
<path d="M99.0391 102.777C99.1349 102.515 99.1313 102.242 99.0833 101.973C98.8325 101.962 98.6002 102.224 98.7366 102.555C98.7625 102.636 98.8731 102.769 99.0391 102.777Z" fill="#682729"/>
<path d="M107.032 57.9803C107.298 58.5553 107.287 59.252 107.136 60.0371C107.242 60.9955 107.276 61.8802 106.981 62.6727L104.203 62.6026L101.744 62.6616L101.64 66.6757C101.707 67.236 101.603 67.6193 101.463 67.9732C101.685 68.4266 101.732 68.9795 101.637 69.6061L101.721 73.635L107.161 73.6645C107.254 72.8535 107.301 72.1163 107.084 70.9442C107.578 70.793 108.072 70.8188 108.688 70.852C109.337 70.9921 109.891 70.6456 109.931 70.0042L109.961 68.1981L114.217 68.1501C114.674 68.2976 115.135 68.1759 115.426 67.7926L115.515 63.5794L115.585 59.7349L112.734 59.7644L112.693 57.0625L107.298 57.1215L107.025 57.984L107.032 57.9803Z" fill="#A54E36"/>
<path d="M99.0801 68.9129V68.4448C98.6412 68.3969 98.6486 68.9572 99.0801 68.9129Z" fill="#401110"/>
<path d="M132.347 57.0586L129.392 57.0991L129.293 59.7015L125.638 59.8784C124.945 59.8231 124.373 59.8563 123.908 60.0775L123.768 62.584L118.207 62.6172L118.262 68.1425L121.113 68.1315C120.987 69.1931 120.906 69.9266 121.105 70.8002L123.894 70.9181L123.805 73.6753L126.637 73.7343C126.696 74.4273 126.59 74.9986 126.479 75.511C126.313 75.839 126.372 76.2187 126.497 76.5431C126.623 76.5062 126.748 76.532 126.844 76.6426C127.563 76.4398 128.271 76.4398 129.348 76.4583L129.374 79.1601L134.526 79.1491C134.888 79.3997 134.991 79.8457 134.851 80.2881L134.869 84.6818L137.624 84.7408L137.753 85.8393L137.591 88.7697C137.635 89.3152 137.536 89.7391 137.329 90.0524C137.44 90.0708 137.598 90.0967 137.816 90.2478L140.523 90.2625L141.862 90.2146C142.345 90.2773 142.71 90.1593 142.954 90.034C143.068 89.7723 143.105 89.529 143.112 89.1346C142.994 88.5633 143.027 88.062 143.274 87.557L145.9 87.5459L145.893 68.301L143.064 68.1683L143.031 65.496L140.324 65.3854L140.387 63.3617C140.328 62.8678 140.35 62.4845 140.483 62.1675L140.431 57.0918L132.35 57.0697L132.347 57.0586Z" fill="#A54E36"/>
<path d="M112.697 57.0587L115.481 56.9518L115.588 59.7311L115.518 63.5757L115.43 67.7888C115.138 68.1722 114.677 68.2938 114.22 68.1464L109.964 68.1943L109.934 70.0005C109.894 70.6418 109.341 70.9883 108.692 70.8483C108.072 70.8151 107.578 70.793 107.087 70.9404C107.305 72.1089 107.257 72.8461 107.165 73.6607H109.739C109.979 72.9677 109.927 72.4959 109.909 71.7919C109.721 71.3643 109.831 70.9551 110.008 70.804C110.296 70.7045 110.569 70.7672 110.864 70.8962L114.596 70.8151L119.741 70.9183C120.265 70.8777 120.656 71.051 120.84 71.298C121.006 71.5007 121.106 71.7993 120.954 72.1752C121.039 72.7318 121.013 73.0636 120.899 73.6644H123.791L123.879 70.9109L121.091 70.793C120.892 69.9194 120.973 69.1895 121.098 68.1243L118.247 68.1353L118.192 62.6099L123.754 62.5768L123.894 60.0702C123.739 59.779 123.643 59.4178 123.842 58.9239C123.61 58.2383 123.721 57.5084 124.052 57.0514L129.382 57.0919L132.336 57.0514C132.008 56.6901 131.816 56.2736 132.022 55.6138C132.096 55.0941 131.912 54.7328 131.668 54.5449C131.443 54.4269 131.159 54.39 130.791 54.4527L122.312 54.4048H118.627L112.807 54.5117L112.686 57.0514L112.697 57.0587Z" fill="#682729"/>
<path d="M179.193 244.951C179.68 244.815 180.244 244.819 180.908 244.915L184.529 244.959L184.607 249.297C184.548 249.751 184.732 250.064 184.942 250.23C185.123 250.333 185.348 250.366 185.732 250.388H212.009L212.242 250.621L212.212 261.133C212.588 261.443 213.134 261.509 213.698 261.432L217.759 261.564L217.814 266.913L225.135 266.957H234.33L234.378 261.439H245.361L245.431 256.006C245.929 255.774 246.371 255.814 246.858 255.858L250.937 255.899V245.607C251.04 245.261 251.328 244.985 251.664 244.896L256.403 244.808L256.429 239.378L250.919 239.514L250.889 244.907L223.339 244.885L223.38 240.421C223.214 240.03 223.232 239.573 223.642 239.356L228.816 239.323V223.889C228.904 223.406 228.742 223.071 228.558 222.909C228.329 222.769 228.056 222.713 227.724 222.809L223.317 222.828L223.21 233.775L217.778 233.842L217.719 239.352L212.22 239.514L212.175 244.87L190.198 244.856L190.132 240.436C190.209 240.008 190.143 239.607 189.763 239.363L184.599 239.338L184.533 233.89L179.112 233.79L179.067 229.389C179.141 228.961 179.067 228.508 178.765 228.298L173.576 228.272L173.535 217.269L168.014 217.254V222.769L170.821 222.949L170.909 228.231L173.498 228.375L173.535 244.863L179.189 244.955L179.193 244.951ZM212.22 250.174L212.209 244.867L217.044 244.9C217.342 244.841 217.564 244.97 217.722 245.276L217.737 250.362L212.467 250.374L212.22 250.178V250.174Z" fill="#682729"/>
<path d="M157.006 79.9233C157.286 79.9896 157.607 80.0081 157.799 79.5584H161.664C161.752 79.798 161.878 79.9233 162.114 80.0081V84.3134H160.247C160.402 83.7052 160.277 83.3071 159.809 82.9274C160.041 82.5662 159.709 82.4298 159.587 82.4482L159.561 84.7078L162.516 84.7373L162.49 79.1935L156.998 79.1787C156.869 79.551 156.954 79.7648 156.998 79.9233H157.006Z" fill="#605863"/>
<path d="M140.52 90.2516L140.45 95.8618L145.204 95.7954C145.672 95.8876 146.041 95.5153 145.931 95.0582V90.3143C146.705 90.1558 147.343 90.1926 148.118 90.2848C148.597 90.0525 148.756 89.6102 148.538 89.1163L148.623 69.9931L148.486 68.1869L147.004 68.1169C146.55 68.209 146.24 68.1463 145.89 67.704L145.879 62.6836L140.815 62.6062C140.738 62.3076 140.583 62.1934 140.48 62.1528C140.347 62.4661 140.321 62.8532 140.384 63.3471L140.321 65.3708L143.028 65.4813L143.061 68.1537L145.89 68.2864L145.897 87.5313L143.271 87.5423C143.024 88.0473 142.991 88.5486 143.109 89.12C143.105 89.5144 143.065 89.7577 142.951 90.0194C142.707 90.1447 142.342 90.2626 141.859 90.2L140.52 90.2479V90.2516Z" fill="#682729"/>
<path d="M104.206 62.6028L106.984 62.6728C107.275 61.8803 107.242 60.9993 107.139 60.0373C107.29 59.2522 107.301 58.5518 107.035 57.9805C106.755 58.4523 106.799 58.9757 106.862 59.665L104.487 59.8935C104.627 60.4649 104.645 60.7413 104.494 61.1615C104.749 61.825 104.568 62.2268 104.21 62.6028H104.206Z" fill="#682729"/>
<path d="M160.642 266.964C160.671 267.311 160.959 267.458 161.387 267.381C161.855 267.274 162.309 267.326 162.556 267.621L162.541 272.46L173.086 272.541C173.554 273.035 173.672 273.655 173.539 274.318L173.602 278.026L194.536 277.986C194.985 278.085 195.399 277.978 195.664 277.665L195.616 272.549L191.589 272.564L190.25 272.449L174.657 272.516C174.207 272.586 173.904 272.464 173.55 272.055L173.513 267.101C172.868 266.931 172.33 266.939 171.703 266.961L160.642 266.968V266.964Z" fill="#682729"/>
<path d="M129.526 112.335L132.026 112.32L131.953 106.857L129.323 106.839L129.316 112.128L129.113 112.324L126.616 112.243L126.487 113.809C126.561 114.196 126.502 114.469 126.369 114.686C126.173 114.941 125.797 115.162 125.273 115.037L123.754 115.11L123.809 117.632L123.588 117.868L101.699 117.82L101.688 115.107C100.681 115.051 99.9916 115.007 99.1101 115.284C98.8741 116.172 98.8151 116.99 99.1249 117.794L101.64 117.901L101.714 120.643L103.919 120.713C104.414 121.104 104.539 121.649 104.344 122.261L104.425 123.043C104.591 123.245 104.923 123.367 105.369 123.345L118.229 123.319L118.251 120.706L123.817 120.632L123.806 118.078L124.034 117.823L126.59 117.735L126.745 115.298L129.297 114.9C129.485 113.986 129.419 113.26 129.327 112.537L129.518 112.331L129.526 112.335Z" fill="#682729"/>
<path d="M126.83 76.6355C126.509 77.3506 126.461 78.2241 126.741 79.0646L129.319 79.2157L129.326 84.6231L132.24 84.6969C132.022 85.2977 132.063 85.6773 132.203 86.1565C132.129 86.7721 132.104 87.1812 131.934 87.5425L132.041 90.2407L134.914 90.2886L137.326 90.0416C137.529 89.7283 137.628 89.3044 137.588 88.7589L137.75 85.8285L137.621 84.73L134.866 84.671L134.847 80.2773C134.988 79.835 134.884 79.3889 134.523 79.1383L129.371 79.1493L129.345 76.4475C128.268 76.429 127.56 76.4254 126.841 76.6318L126.83 76.6355Z" fill="#682729"/>
<path d="M137.326 90.0449L134.914 90.2919L134.855 92.4409L134.822 101.051C134.752 101.107 134.685 101.177 134.637 101.251L132.037 101.284L131.978 106.816L134.851 106.717L134.888 101.501L135.08 101.339L135.969 101.284C136.492 101.368 136.898 101.343 137.226 101.21C137.219 101.015 137.429 100.86 137.602 100.561L137.614 98.5044L140.424 98.4012L140.453 95.8652L140.523 90.255L137.816 90.2403C137.595 90.0892 137.44 90.0634 137.33 90.0449H137.326Z" fill="#401110"/>
<path d="M137.222 101.207C138.2 101.365 139.181 101.336 140.379 101.203L140.42 98.3979L137.61 98.5012L137.599 100.558C137.425 100.857 137.219 101.011 137.222 101.207Z" fill="#682729"/>
<path d="M206.714 181.262L209.487 181.312L209.433 184.25L206.66 184.199L206.714 181.262Z" fill="#BE595B"/>
<path d="M152.045 81.8291C152.034 82.0872 152.122 82.4337 152.506 82.5405L156.555 82.4005L156.784 89.8574L157.013 82.8649C156.876 82.4152 157.086 82.1019 157.308 81.936C157.485 81.866 157.725 81.8291 158.056 81.8807L159.572 81.8181C159.572 81.4827 159.27 81.232 158.813 81.3426C158.119 81.4753 157.463 81.4274 157.131 80.9961C156.791 81.5343 156.36 81.9692 155.442 81.8734C155.213 81.6006 154.623 81.6338 154.568 82.0392C154.003 82.1719 153.362 82.1646 152.617 82.113C152.524 81.7259 152.218 81.7186 152.045 81.8291Z" fill="#605863"/>
<path d="M151.776 81.8071C151.809 81.4938 151.846 81.1694 151.75 80.6239C151.986 80.2774 151.772 79.8793 151.396 79.9088C151.023 79.9972 150.865 80.5501 151.167 81.0072C150.898 81.3832 151.075 81.6449 151.245 81.7702C151.388 81.7481 151.576 81.7444 151.779 81.8071H151.776Z" fill="#605863"/>
<path d="M121.217 103.908L121.11 105.781C121.471 106.37 122.434 106.393 122.766 105.773C122.909 105.265 122.92 105.077 122.673 104.62L123.728 104.531C123.802 104.225 123.795 103.927 123.765 103.624C123.341 103.676 122.88 103.665 122.364 103.573C121.796 103.669 121.508 103.72 121.22 103.908H121.217Z" fill="#A54E36"/>
<path d="M112.697 57.0588L112.741 59.7607L115.592 59.7312L115.481 56.9556L112.697 57.0588Z" fill="#401110"/>
<path d="M123.904 60.0775C124.369 59.8563 124.945 59.8231 125.634 59.8784L129.289 59.7015L129.389 57.0991L124.059 57.0586C123.724 57.512 123.617 58.2455 123.849 58.9311C123.654 59.425 123.75 59.7863 123.901 60.0775H123.904Z" fill="#401110"/>
<path d="M125.63 76.3111C125.726 76.6982 126.18 76.7387 126.482 76.536C126.357 76.2116 126.298 75.832 126.464 75.5039H125.819C125.586 75.6772 125.564 76.0089 125.627 76.3075L125.63 76.3111Z" fill="#682729"/>
<path d="M157.005 79.9235L157.131 80.9962C157.463 81.4237 158.123 81.4717 158.813 81.3426C159.27 81.2321 159.572 81.4864 159.572 81.8181C159.628 82.0135 159.668 82.2494 159.591 82.4521C159.713 82.4337 160.041 82.5701 159.812 82.9313C160.281 83.311 160.406 83.7128 160.251 84.3173H162.117V80.0083C161.881 79.9235 161.752 79.7982 161.667 79.5586H157.802C157.61 80.0083 157.289 79.9899 157.009 79.9235H157.005Z" fill="#A54E36"/>
<rect x="262" y="216.552" width="6" height="29" fill="#F1F2F3"/>
<rect x="245" y="261.552" width="6" height="6" fill="#F1F2F3"/>
<rect x="234" y="266.552" width="13" height="6" fill="#F1F2F3"/>
<rect x="218" y="271.552" width="17" height="6" fill="#F1F2F3"/>
<rect x="206" y="266.552" width="12" height="6" fill="#F1F2F3"/>
<rect x="200" y="255.552" width="7" height="12" fill="#F1F2F3"/>
<rect x="190" y="255.552" width="10" height="7" fill="#F1F2F3"/>
<rect x="190" y="262.552" width="7" height="10" fill="#F1F2F3"/>
<rect x="197" y="272.552" width="7" height="11" fill="#F1F2F3"/>
<rect x="162" y="277.552" width="12" height="8" fill="#F1F2F3"/>
<rect x="151" y="272.552" width="12" height="8" fill="#F1F2F3"/>
<rect x="145" y="266.552" width="7" height="8" fill="#F1F2F3"/>
<rect x="139" y="261.552" width="7" height="8" fill="#F1F2F3"/>
<rect x="90" y="249.552" width="29" height="8" fill="#F1F2F3"/>
<rect x="79" y="255.552" width="12" height="8" fill="#F1F2F3"/>
<rect x="56" y="250.552" width="8" height="11" fill="#F1F2F3"/>
<rect x="61" y="243.552" width="8" height="8" fill="#F1F2F3"/>
<rect x="67" y="228.552" width="8" height="16" fill="#F1F2F3"/>
<rect x="72" y="216.552" width="8" height="13" fill="#F1F2F3"/>
<rect x="66" y="161.552" width="8" height="55" fill="#F1F2F3"/>
<rect x="72" y="145.552" width="8" height="17" fill="#F1F2F3"/>
<rect x="77" y="128.552" width="8" height="17" fill="#F1F2F3"/>
<rect x="83" y="106.552" width="8" height="22" fill="#F1F2F3"/>
<rect x="88" y="95.5518" width="8" height="11" fill="#F1F2F3"/>
<rect x="94" y="84.5518" width="8" height="11" fill="#F1F2F3"/>
<rect x="91" y="78.5518" width="8" height="6" fill="#F1F2F3"/>
<rect x="89" y="62.5518" width="8" height="16" fill="#F1F2F3"/>
<rect x="94" y="56.5518" width="8" height="6" fill="#F1F2F3"/>
<rect x="99" y="50.5518" width="8" height="7" fill="#F1F2F3"/>
<rect x="104" y="44.5518" width="37" height="7" fill="#F1F2F3"/>
<rect x="63" y="260.552" width="20" height="8" fill="#F1F2F3"/>
<rect x="118" y="255.552" width="23" height="8" fill="#F1F2F3"/>
<rect x="174" y="283.552" width="24" height="6" fill="#F1F2F3"/>
</svg>
